<?xml version="1.0" encoding="UTF-8"?>
<svg width="16px" height="16px" viewBox="0 0 16 16" version="1.1" xmlns="http://www.w3.org/2000/svg" xmlns:xlink="http://www.w3.org/1999/xlink">
    <title>概念模型</title>
    <g id="可选数据源" stroke="none" stroke-width="1" fill="none" fill-rule="evenodd">
        <g id="画板" transform="translate(-431.000000, -208.000000)" fill-rule="nonzero">
            <g id="概念模型" transform="translate(431.000000, 208.000000)">
                <rect id="矩形" fill="#DEF0EF" x="0" y="0" width="8" height="16"></rect>
                <path d="M1,1 L7,1 L7,6 L1,6 Z M1,10 L7,10 L7,15 L1,15 Z" id="形状结合" fill-opacity="0.4" fill="#5A86B6"></path>
                <path d="M4,6 L1,6 L1,1 L7,1 L7,3 L10,3 L10,4 L7,4 L7,6 L5,6 L5,10 L7,10 L7,12 L10,12 L10,13 L7,13 L7,15 L1,15 L1,10 L4,10 L4,6 Z M5.999,11 L2,11 L2,13.999 L5.999,13.999 L5.999,11 Z M5.999,2 L2,2 L2,4.999 L5.999,4.999 L5.999,2 Z" id="形状结合" fill="#5A86B6"></path>
                <path d="M12.5,15 C14.4329966,15 16,13.8807119 16,12.5 C16,11.1192881 14.4329966,10 12.5,10 C10.5670034,10 9,11.1192881 9,12.5 C9,13.8807119 10.5670034,15 12.5,15 Z M10,1 L15,1 C15.5522847,1 16,1.44771525 16,2 L16,5 C16,5.55228475 15.5522847,6 15,6 L10,6 C9.44771525,6 9,5.55228475 9,5 L9,2 C9,1.44771525 9.44771525,1 10,1 Z" id="形状结合" fill="#FFFFFF"></path>
                <path d="M12.5,10 C14.4329966,10 16,11.1192881 16,12.5 C16,13.8807119 14.4329966,15 12.5,15 C10.5670034,15 9,13.8807119 9,12.5 C9,11.1192881 10.5670034,10 12.5,10 Z M12.5,11 C11.0609568,11 10,11.7578263 10,12.5 C10,13.2421737 11.0609568,14 12.5,14 C13.9390432,14 15,13.2421737 15,12.5 C15,11.7578263 13.9390432,11 12.5,11 Z M15,1 C15.5522847,1 16,1.44771525 16,2 L16,5 C16,5.55228475 15.5522847,6 15,6 L10,6 C9.44771525,6 9,5.55228475 9,5 L9,2 C9,1.44771525 9.44771525,1 10,1 L15,1 Z M15,2 L10,2 L10,5 L15,5 L15,2 Z" id="形状结合" fill="#979797"></path>
            </g>
        </g>
    </g>
</svg>