<?xml version="1.0" standalone="no"?><!DOCTYPE svg PUBLIC "-//W3C//DTD SVG 1.1//EN" "http://www.w3.org/Graphics/SVG/1.1/DTD/svg11.dtd"><svg t="1692582980182" class="icon" viewBox="0 0 1024 1024" version="1.1" xmlns="http://www.w3.org/2000/svg" p-id="10508" xmlns:xlink="http://www.w3.org/1999/xlink" width="200" height="200"><path d="M896 0H266.56A122.56 122.56 0 0 0 144 122.56V768H128a128 128 0 0 0 0 256h630.4a121.6 121.6 0 0 0 121.6-122.56V256H896a128 128 0 0 0 0-256zM149.333333 960h-17.066666C94.570667 960 64 931.349333 64 896s30.570667-64 68.266667-64H149.333333v128z m681.685334-58.56c0.192 32.042667-25.962667 58.218667-58.517334 58.56H213.333333V122.56c-0.085333-15.573333 6.144-30.506667 17.322667-41.493333A59.669333 59.669333 0 0 1 272.853333 64h171.306667a155.797333 155.797333 0 0 1-24.042667 166.4 15.488 15.488 0 0 0-2.133333 16.512c2.56 5.44 8.064 8.96 14.165333 9.088H832v645.44h-0.981333zM892.8 191.936H512c6.314667-20.693333 9.493333-42.282667 9.386667-63.957333A215.232 215.232 0 0 0 512 64h384.554667a61.930667 61.930667 0 0 1 48.448 22.4c12.096 14.464 17.258667 33.706667 14.08 52.437333-6.272 32-34.410667 54.528-66.282667 53.098667zM490.666667 454.570667a37.674667 37.674667 0 0 1-19.349334 27.264c-4.394667 1.962667-6.784 0-12.202666-4.544a62.058667 62.058667 0 0 0-42.069334-25.962667c-6.826667 0-13.333333 2.666667-18.026666 7.402667-4.693333 4.714667-7.125333 11.093333-6.741334 17.6 0 15.253333 14.592 25.962667 36.288 42.197333 35.968 26.922667 47.509333 39.914667 47.509334 61.653333 0 43.178667-67.84 81.152-101.781334 81.152-25.792 0-52.928-16.213333-54.293333-37.973333a32.810667 32.810667 0 0 1 22.741333-26.944c3.392 0 5.76 0 9.152 4.224a75.84 75.84 0 0 0 53.952 34.730667c7.232 0.341333 14.293333-2.112 19.584-6.826667a25.173333 25.173333 0 0 0 8.576-18.176c0-10.709333-6.784-21.418667-31.573333-40.896-24.746667-19.477333-50.88-33.749333-50.88-62.954667a71.04 71.04 0 0 1 31.893333-55.189333A111.146667 111.146667 0 0 1 444.522667 426.666667c26.794667 0 46.144 12.992 46.144 27.904z m115.904-32a180.330667 180.330667 0 0 1 46.293333-4.992c51.754667 0 72.469333 25.088 72.469333 67.754666a158.933333 158.933333 0 0 1-42.069333 101.653334 203.946667 203.946667 0 0 1-97.066667 58.346666c-8.810667 0-17.557333-1.365333-25.898666-4.074666l-13.930667 75.306666c-5.482667 27.285333-3.221333 31.36 23.637333 34.496h11.968l-2.261333 10.666667L448 768l2.261333-10.666667c35.605333-6.272 37.866667-10.346667 45.312-42.666666 17.152-76.544 37.866667-176.938667 55.018667-260.394667-14.186667 4.736-27.946667 10.624-41.109333 17.578667l-3.242667-11.306667c15.381333-8.896 31.274667-16.96 47.573333-24.149333l5.504-21.013334A166.997333 166.997333 0 0 1 612.074667 384l4.202666 3.136-9.706666 35.456zM554.666667 623.061333c5.76 10.304 17.002667 16.810667 29.269333 16.96C614.229333 640 661.333333 568.64 661.333333 500.48c0-42.88-19.2-52.48-47.104-52.48a90.624 90.624 0 0 0-23.552 3.2c-11.456 53.44-25.92 115.52-36.010666 170.88v0.96z" fill="#867BA9" p-id="10509"></path></svg>