<?xml version="1.0" encoding="UTF-8"?>
<svg width="16px" height="16px" viewBox="0 0 16 16" version="1.1" xmlns="http://www.w3.org/2000/svg" xmlns:xlink="http://www.w3.org/1999/xlink">
    <title>hive</title>
    <g id="dark" stroke="none" stroke-width="1" fill="none" fill-rule="evenodd">
        <g id="icon集合" transform="translate(-947.000000, -533.000000)">
            <g id="编组-2" transform="translate(947.000000, 535.000000)">
                <rect id="矩形" stroke="#55B9B6" x="0.5" y="0.5" width="15" height="11" rx="1"></rect>
                <rect id="矩形" fill="#55B9B6" x="8" y="8" width="5" height="1" rx="0.5"></rect>
                <path d="M4.7,3.375 L7.11091349,5.6352314 C7.31236963,5.82409653 7.32257666,6.14051443 7.13371153,6.34197056 C7.12635924,6.34981301 7.11875594,6.35741631 7.11091349,6.3647686 L4.7,8.625 C4.47503432,8.83590532 4.12496568,8.83590532 3.9,8.625 C3.69282417,8.43077266 3.68232735,8.1053711 3.87655469,7.89819527 C3.88407672,7.89017177 3.89185424,7.88239166 3.89987524,7.87486696 L5.8992,5.99925 L5.8992,5.99925 L3.9,4.125 C3.69289322,3.93083739 3.68239989,3.60554428 3.8765625,3.3984375 C3.88412102,3.39037508 3.89193758,3.38255852 3.9,3.375 C4.12496568,3.16409468 4.47503432,3.16409468 4.7,3.375 Z" id="路径" fill="#55B9B6"></path>
            </g>
        </g>
    </g>
</svg>