<?xml version="1.0" encoding="UTF-8"?>
<svg width="16px" height="16px" viewBox="0 0 16 16" version="1.1" xmlns="http://www.w3.org/2000/svg" xmlns:xlink="http://www.w3.org/1999/xlink">
    <title>形状结合 2</title>
    <g id="页面-1" stroke="none" stroke-width="1" fill="none" fill-rule="evenodd">
        <path d="M5.40307558,1.66823882 C5.43116722,1.69633045 5.45025627,1.7321518 5.45790876,1.77113538 L6.32392394,6.18282383 C6.3452006,6.29121222 6.2745826,6.3963265 6.16619421,6.41760316 C6.14075377,6.42259712 6.11458505,6.42259712 6.08914462,6.41760316 L1.67745617,5.55158797 C1.56906778,5.53031131 1.49844977,5.42519703 1.51972643,5.31680864 C1.52737891,5.27782507 1.54646797,5.24200372 1.57455961,5.21391208 L2.93973291,3.84797189 L0.0473022105,0.956269127 C-0.030802649,0.878164268 -0.030802649,0.75153127 0.0473022105,0.673426411 L0.579747196,0.140981426 C0.657852055,0.0628765661 0.784485053,0.0628765661 0.862589912,0.140981426 L3.75502703,3.03267778 L5.12023287,1.66823882 C5.19833773,1.59013396 5.32497072,1.59013396 5.40307558,1.66823882 Z M10.5969244,1.66823882 C10.5688328,1.69633045 10.5497437,1.7321518 10.5420912,1.77113538 L9.67607606,6.18282383 C9.6547994,6.29121222 9.7254174,6.3963265 9.83380579,6.41760316 C9.85924623,6.42259712 9.88541495,6.42259712 9.91085538,6.41760316 L14.3225438,5.55158797 C14.4309322,5.53031131 14.5015502,5.42519703 14.4802736,5.31680864 C14.4726211,5.27782507 14.453532,5.24200372 14.4254404,5.21391208 L13.0602671,3.84797189 L15.9526978,0.956269127 C16.0308026,0.878164268 16.0308026,0.75153127 15.9526978,0.673426411 L15.4202528,0.140981426 C15.3421479,0.0628765661 15.2155149,0.0628765661 15.1374101,0.140981426 L12.244973,3.03267778 L10.8797671,1.66823882 C10.8016623,1.59013396 10.6750293,1.59013396 10.5969244,1.66823882 Z M5.40307558,14.3317612 C5.43116722,14.3036695 5.45025627,14.2678482 5.45790876,14.2288646 L6.32392394,9.81717617 C6.3452006,9.70878778 6.2745826,9.6036735 6.16619421,9.58239684 C6.14075377,9.57740288 6.11458505,9.57740288 6.08914462,9.58239684 L1.67745617,10.448412 C1.56906778,10.4696887 1.49844977,10.574803 1.51972643,10.6831914 C1.52737891,10.7221749 1.54646797,10.7579963 1.57455961,10.7860879 L2.93973291,12.1520281 L0.0473022105,15.0437309 C-0.030802649,15.1218357 -0.030802649,15.2484687 0.0473022105,15.3265736 L0.579747196,15.8590186 C0.657852055,15.9371234 0.784485053,15.9371234 0.862589912,15.8590186 L3.75502703,12.9673222 L5.12023287,14.3317612 C5.19833773,14.409866 5.32497072,14.409866 5.40307558,14.3317612 Z M10.5969244,14.3317612 C10.5688328,14.3036695 10.5497437,14.2678482 10.5420912,14.2288646 L9.67607606,9.81717617 C9.6547994,9.70878778 9.7254174,9.6036735 9.83380579,9.58239684 C9.85924623,9.57740288 9.88541495,9.57740288 9.91085538,9.58239684 L14.3225438,10.448412 C14.4309322,10.4696887 14.5015502,10.574803 14.4802736,10.6831914 C14.4726211,10.7221749 14.453532,10.7579963 14.4254404,10.7860879 L13.0602671,12.1520281 L15.9526978,15.0437309 C16.0308026,15.1218357 16.0308026,15.2484687 15.9526978,15.3265736 L15.4202528,15.8590186 C15.3421479,15.9371234 15.2155149,15.9371234 15.1374101,15.8590186 L12.244973,12.9673222 L10.8797671,14.3317612 C10.8016623,14.409866 10.6750293,14.409866 10.5969244,14.3317612 Z" id="形状结合" fill="#268A1B"></path>
    </g>
</svg>