<?xml version="1.0" encoding="UTF-8"?>
<svg width="16px" height="16px" viewBox="0 0 16 16" version="1.1" xmlns="http://www.w3.org/2000/svg" xmlns:xlink="http://www.w3.org/1999/xlink">
    <title>hive</title>
    <g id="dark" stroke="none" stroke-width="1" fill="none" fill-rule="evenodd">
        <g id="icon集合" transform="translate(-947.000000, -297.000000)" fill-rule="nonzero">
            <g id="flinksql" transform="translate(947.000000, 297.000000)">
                <path d="M13.0971451,13.8798048 C13.0971451,13.8798048 13.0129191,14.4278767 13.1813711,14.680833 L13.8972922,15.1867456 L13.8551792,15.3553831 L13.8551792,15.6083394 L14.0236313,15.6504987 L14.2763093,15.6083394 L14.3184223,15.6926581 L14.4447613,15.8612956 L14.6132134,15.8612956 L14.7816654,15.4818612 L14.7816654,15.3132237 L14.9501174,15.2710643 C14.9501174,15.2710643 16.0871686,14.8916299 15.8344906,14.4700361 L15.7502645,14.4278767 C15.7502645,14.4278767 15.2449085,14.6386736 15.0343434,14.5965142 C15.0343434,14.5965142 14.0657443,14.6386736 13.6025012,14.3013986 L13.0971451,13.8798048 L13.0971451,13.8798048 Z" id="路径" fill="#D77083"></path>
                <path d="M13.3498232,13.5425297 C13.3498232,13.5425297 12.8865801,13.5425297 13.1813711,14.0062829 C13.1813711,14.0062829 13.6446142,14.5121955 14.5289873,14.6386736 C14.5289873,14.6386736 15.8344906,14.6386736 15.9187166,14.2170798 C15.9187166,14.2170798 15.8766036,13.7111673 15.4975865,13.7533266 C15.1185694,13.8798048 13.3498232,13.5425297 13.3498232,13.5425297 L13.3498232,13.5425297 Z" id="路径" fill="#733D48"></path>
                <path d="M15.3712475,12.1934296 C15.3712475,12.1934296 15.9608296,12.8258203 15.7081515,13.795486 C15.7081515,13.795486 15.6660385,14.2170798 15.3291345,14.343558 C15.3291345,14.343558 14.6974394,14.4700361 14.5289873,14.3857173 C14.5289873,14.3857173 13.7288402,14.343558 13.4761622,13.9219642 C13.4761622,13.9219642 13.1392581,13.5846891 13.4340492,13.2052547 C13.4340492,13.2052547 14.0236313,12.9522984 14.1499703,12.572864 C14.1499703,12.572864 14.3605353,12.4042265 14.6132134,12.4463859 C14.8658914,12.4885452 15.0764564,12.6150234 15.0764564,12.6150234 C15.0764564,12.6150234 15.4554735,12.3199077 15.3712475,12.1934296 Z" id="路径" fill="#D59D52"></path>
                <path d="M13.8130662,12.6993421 C13.8130662,12.6993421 14.1078573,13.3317328 14.8237784,13.3738922 C14.8237784,13.3738922 15.4975865,13.3738922 15.7923776,12.9522984 L15.5396995,12.3199077 L15.0764564,12.1934296 C15.0764564,12.1934296 13.8551792,11.8139952 13.8130662,12.6993421 L13.8130662,12.6993421 Z" id="路径" fill="#DBAE62"></path>
                <path d="M15.3712475,12.1934296 C15.3712475,12.1934296 15.6660385,12.572864 15.2870215,12.6571828 C15.2870215,12.6571828 14.9080044,12.7415015 14.6974394,12.6571828 C14.6974394,12.6571828 13.3919362,13.0366172 13.7288402,14.1327611 C13.7288402,14.1327611 13.4761622,14.1327611 13.3498232,13.5003704 L13.4761622,12.1934296 C13.4761622,12.1934296 15.2449085,11.8561545 15.3712475,12.1934296 Z" id="路径" fill="#B88F4D"></path>
                <path d="M15.2027955,12.8258203 C15.2027955,12.8258203 15.3712475,13.1630953 15.2449085,13.3317328 C15.2449085,13.3317328 15.2027955,13.4160516 15.4133605,13.458211 C15.4133605,13.458211 15.6660385,13.1630953 15.3712475,12.6993421 C15.3712475,12.6993421 15.2027955,12.6571828 15.2027955,12.8258203 L15.2027955,12.8258203 Z" id="路径" fill="#FFFFFF"></path>
                <path d="M15.2027955,12.7836609 C15.2027955,12.8302289 15.2405047,12.8679797 15.2870215,12.8679797 C15.3335382,12.8679797 15.3712475,12.8302289 15.3712475,12.7836609 C15.3712475,12.7370929 15.3335382,12.6993421 15.2870215,12.6993421 C15.2405047,12.6993421 15.2027955,12.7370929 15.2027955,12.7836609 L15.2027955,12.7836609 Z" id="路径" fill="#FFFFFF"></path>
                <path d="M15.2449085,13.3738922 C15.2449085,13.4204602 15.2826177,13.458211 15.3291345,13.458211 C15.3756512,13.458211 15.4133605,13.4204602 15.4133605,13.3738922 C15.4133605,13.3273243 15.3756512,13.2895735 15.3291345,13.2895735 C15.2826177,13.2895735 15.2449085,13.3273243 15.2449085,13.3738922 L15.2449085,13.3738922 Z" id="路径" fill="#FFFFFF"></path>
                <path d="M15.8344906,13.8798048 C15.8344906,13.8798048 16.2135076,12.910139 15.4975865,12.1512702 L15.3712475,12.1512702 L15.3712475,12.3620671 C15.3712475,12.3620671 15.7923776,12.8258203 15.6660385,13.3738922 C15.6660385,13.3738922 15.6239255,13.8376454 15.5396995,14.0484423 C15.5396995,14.0484423 15.2449085,14.343558 14.9080044,14.343558 C14.9080044,14.343558 14.1920833,14.343558 13.6025012,14.0062829 C13.6025012,14.0062829 13.3077101,13.6690079 13.4340492,13.2895735 L13.3498232,13.2895735 C13.3498232,13.2474141 13.3077101,13.2052547 13.1392581,13.2895735 C13.1392581,13.2895735 13.2234841,13.4160516 13.0550321,13.458211 C13.0550321,13.458211 12.7181281,13.6268485 12.8023541,14.3013986 C12.8444671,14.8916299 13.6025012,15.2710643 13.6025012,15.2710643 C13.6025012,15.2710643 13.6446142,15.3132237 13.6446142,15.3975425 C13.6446142,15.4818612 13.6025012,15.6926581 13.8551792,15.7348175 C13.8551792,15.7348175 14.0236313,15.7769769 14.1078573,15.6926581 C14.1078573,15.6926581 14.2341963,16.0720925 14.4868743,15.9877738 C14.7395524,15.903455 14.8237784,15.6504987 14.6974394,15.4397018 C14.6974394,15.4397018 15.2870215,15.3553831 15.6660385,14.8916299 C15.7502645,14.8916299 16.2556206,14.343558 15.8344906,13.8798048 L15.8344906,13.8798048 Z M15.6660385,14.680833 C15.5818125,14.8073111 15.4133605,15.1867456 14.8237784,15.3132237 C14.8237784,15.3132237 14.4868743,15.3132237 14.3605353,15.2710643 C14.3605353,15.2710643 14.0236313,15.3975425 14.4026483,15.3553831 C14.4026483,15.3553831 14.6974394,15.3553831 14.6553264,15.56618 C14.6553264,15.56618 14.6132134,15.7769769 14.5289873,15.7769769 C14.5289873,15.7769769 14.4447613,15.8612956 14.3184223,15.6083394 C14.3184223,15.6083394 14.3605353,15.5240206 14.1920833,15.5240206 C14.1920833,15.5240206 13.8972922,15.6504987 13.8972922,15.3553831 C13.8972922,15.3553831 13.9815183,15.1867456 14.0657443,15.1445862 C14.0657443,15.1445862 13.2234841,14.8916299 13.0971451,14.1749204 C13.0971451,14.1749204 13.0129191,14.0062829 13.1392581,14.0484423 C13.7288402,14.5965142 14.4447613,14.680833 14.4447613,14.680833 C15.0764564,14.7651518 15.6239255,14.5121955 15.6239255,14.5121955 C15.6660385,14.5543549 15.7081515,14.5965142 15.6660385,14.680833 L15.6660385,14.680833 Z M15.7923776,14.3013986 C15.7923776,14.3013986 15.7502645,14.3857173 15.7081515,14.4278767 C15.6660385,14.4278767 15.6660385,14.4700361 15.6239255,14.4700361 C14.8658914,14.8073111 13.9394053,14.4700361 13.9394053,14.4700361 C13.2234841,14.0906017 13.1813711,13.8376454 13.1813711,13.795486 C13.1813711,13.7533266 13.1813711,13.7111673 13.2234841,13.7111673 C13.2234841,13.7111673 13.3077101,13.5425297 13.3919362,13.6268485 C13.3919362,13.7533266 13.4761622,13.9219642 13.5603882,14.0062829 C13.8130662,14.2170798 14.1499703,14.3857173 14.6974394,14.4278767 C15.2449085,14.4700361 15.5396995,14.3013986 15.6660385,14.0484423 C15.7502645,14.0906017 15.8344906,14.2170798 15.7923776,14.3013986 L15.7923776,14.3013986 Z" id="形状" fill="#000000"></path>
                <path d="M0.168452027,8.82067918 C0.168452027,8.82067918 0.421130068,10.8864888 2.02142433,12.235589 L3.91650963,10.5913731 L6.73808109,10.5070544 L10.3597997,8.44124476 C10.3597997,8.44124476 12.549676,7.04998521 12.46545,5.49008815 C12.46545,5.49008815 10.0650086,6.58623203 9.51753954,6.24895699 L8.59105339,6.71271017 L7.58034122,7.42941964 L6.10638599,7.55589778 L5.89582095,7.80885406 L3.15847551,8.65204166 C3.15847551,8.65204166 2.77945845,7.47157902 4.04284865,5.49008815 L4.46397872,4.81553807 L2.65311943,5.65872567 L2.61100642,5.23713187 L2.40044139,5.27929125 L2.06353733,6.33327575 L1.68452027,6.45975389 L0.631695102,8.27260724 L0.505356082,7.97749158 L0.336904054,7.97749158 L0.336904054,8.82067918 L0.168452027,8.82067918 L0.168452027,8.82067918 Z" id="路径" fill="#947BB0"></path>
                <path d="M12.0443199,7.13430397 L12.423337,7.00782583 L12.8865801,6.33327575 L13.0550321,6.33327575 L13.3498232,6.37543513 L13.4761622,6.62839141 L13.7288402,6.88134769 L14.1920833,7.00782583 L14.6132134,7.17646336 L14.9922304,7.5137384 L15.1606824,7.76669468 L15.3712475,8.1461291 L15.5396995,8.73636042 L15.6660385,9.15795422 L15.7502645,9.45306988 L15.8344906,9.70602616 L15.7923776,10.0854606 L15.6660385,10.3805762 L15.4975865,10.5913731 L15.0764564,10.7178513 L14.9501174,10.8443294 L14.4026483,10.9286482 L14.0236313,10.9286482 L13.7709532,11.0972857 L13.8130662,11.3080826 L14.0657443,11.3080826 L14.5289873,11.1816045 L14.9922304,11.2237638 L15.2870215,11.4767201 L15.4133605,11.6031983 L15.4554735,11.8983139 L15.4554735,12.3199077 L15.1606824,12.572864 L14.8658914,12.5307046 L14.6553264,12.4463859 L14.2763093,12.4885452 L14.1499703,12.6571828 L13.8972922,12.910139 L13.4340492,13.1630953 L13.0129191,13.2474141 L12.381224,13.3317328 L12.339111,13.5003704 L12.339111,13.6690079 L12.254885,14.0062829 L12.0022069,14.343558 L11.7495289,14.7229924 L12.254885,14.7651518 L12.7181281,14.8494705 L12.9286931,15.1024268 L13.0129191,15.3553831 L12.9286931,15.56618 L12.633902,15.8191363 L11.9600939,15.8612956 L5.89582095,15.8612956 C5.89582095,15.8612956 2.52678041,15.8612956 1.13705118,13.4160516 C-0.252678041,10.9708076 0.252678041,9.4109105 0.252678041,9.4109105 L0.336904054,9.03147608 C0.336904054,9.03147608 0.884373143,10.9708076 1.81085929,11.9404733 L2.06353733,12.235589 C2.06353733,12.235589 2.23198936,12.1934296 2.35832838,11.5188795 C2.35832838,11.5188795 2.65311943,10.12762 6.10638599,10.12762 L7.53822822,9.36875112 L8.97007045,8.94715732 L10.0228956,8.69420104 L10.8651558,8.27260724 L12.0443199,7.13430397 L12.0443199,7.13430397 Z" id="路径" fill="#D77083"></path>
                <path d="M13.8972922,8.69420104 C13.8972922,8.69420104 14.1499703,8.31476662 14.6553264,8.5677229 C14.6553264,8.5677229 15.1606824,8.86283856 14.8237784,9.53738864 C14.8237784,9.53738864 14.6132134,9.49522926 14.4447613,9.53738864 C14.4026483,9.53738864 13.4340492,9.57954802 13.8972922,8.69420104 L13.8972922,8.69420104 Z" id="路径" fill="#000000"></path>
                <path d="M14.0657443,9.11579484 C14.0657443,9.11579484 13.9394053,8.9893167 14.0236313,8.82067918 L13.8972922,8.69420104 C13.8972922,8.69420104 13.6867272,8.94715732 14.0657443,9.24227298 C14.0657443,9.24227298 14.2341963,9.36875112 14.6132134,9.36875112 C14.6132134,9.36875112 14.7395524,9.4109105 14.7395524,9.45306988 L14.7395524,9.11579484 C14.7395524,9.11579484 14.6553264,9.32659174 14.5289873,9.32659174 C14.5289873,9.32659174 14.2341963,9.28443236 14.0657443,9.11579484 L14.0657443,9.11579484 Z" id="路径" fill="#FFFFFF"></path>
                <path d="M14.1499703,8.90499794 C14.1499703,9.04470183 14.2630981,9.15795422 14.4026483,9.15795422 C14.5421986,9.15795422 14.6553264,9.04470183 14.6553264,8.90499794 C14.6553264,8.76529404 14.5421986,8.65204166 14.4026483,8.65204166 C14.2630981,8.65204166 14.1499703,8.76529404 14.1499703,8.90499794 L14.1499703,8.90499794 Z" id="路径" fill="#D19B52"></path>
                <path d="M14.0657443,8.73636042 C14.0657443,8.80621236 14.1223082,8.86283856 14.1920833,8.86283856 C14.2618584,8.86283856 14.3184223,8.80621236 14.3184223,8.73636042 C14.3184223,8.66650847 14.2618584,8.60988228 14.1920833,8.60988228 C14.1223082,8.60988228 14.0657443,8.66650847 14.0657443,8.73636042 L14.0657443,8.73636042 Z" id="路径" fill="#FFFFFF"></path>
                <path d="M4.71665676,2.07517837 L4.75876977,1.65358457 L5.85370795,0.852556352 L6.35906403,0.599600071 C6.35906403,0.599600071 7.03287214,0.00936875112 8.00147129,0.00936875112 L9.18063548,0.135846891 L10.0228956,0.430962551 L10.6545907,0.810396972 L11.1599468,1.06335325 L11.7916419,1.48494705 L11.6653029,2.24381589 L11.5389639,2.79188783 L11.7074159,3.55075667 L11.4547379,3.93019109 C11.4547379,3.93019109 11.3283988,4.26746613 10.6545907,4.81553807 L10.2755737,5.53224753 L9.60176555,6.37543513 L8.42260136,7.13430397 L7.4118892,7.42941964 L6.61174207,7.5137384 L3.7059446,8.39908538 L3.15847551,8.65204166 C3.15847551,8.65204166 2.82157146,6.83918831 4.04284865,5.49008815 L4.80088278,4.81553807 C4.80088278,4.81553807 5.30623886,4.39394427 5.39046487,3.71939419 L5.85370795,4.52042241 L6.190612,3.80371295 C6.190612,3.76155357 6.23272501,1.94870023 4.71665676,2.07517837 Z" id="路径" fill="#E7DFAB"></path>
                <path d="M12.170659,1.18983139 L11.7916419,1.65358457 L11.6653029,2.07517837 L11.5810769,3.04484411 L11.4547379,3.93019109 C11.4547379,3.93019109 10.9493818,4.73121931 10.7388167,4.64690055 L10.5703647,5.02633497 L10.4861387,5.32145063 L11.1599468,4.73121931 L12.0443199,4.35178489 L12.549676,4.14098799 L12.7602411,3.71939419 L12.549676,2.91836597 L12.507563,2.41245341 L12.254885,2.32813465 C12.254885,2.32813465 12.128546,1.65358457 12.339111,1.40062829 L12.170659,1.18983139 L12.170659,1.18983139 Z" id="路径" fill="#D19456"></path>
                <path d="M10.1492346,5.70088505 C10.1492346,5.70088505 10.9914948,4.68905993 12.0443199,4.22530675 L12.0443199,4.47826303 L13.0971451,3.88803171 L13.3498232,3.88803171 L13.2655971,4.43610365 L12.9708061,4.81553807 L12.633902,5.36361001 L12.086433,5.74304443 L10.9493818,6.16463823 L9.85444359,6.41759451 L10.1492346,5.70088505 L10.1492346,5.70088505 Z" id="路径" fill="#D77083"></path>
                <path d="M6.10638599,2.41245341 C6.10638599,2.41245341 7.49611521,2.03301899 7.95935829,2.41245341 C8.42260136,2.79188783 9.68599156,2.32813465 9.68599156,2.32813465 L10.8230427,3.00268473 L10.7388167,4.60474117 C10.7388167,4.60474117 10.6124777,3.55075667 9.39120052,3.42427853 C8.16992332,3.29780039 8.21203633,3.08700349 7.4540022,2.70756907 C6.69596808,2.32813465 6.86442011,2.74972845 6.10638599,2.41245341 Z" id="路径" fill="#D89E52"></path>
                <path d="M6.10638599,2.41245341 C6.10638599,2.41245341 6.27483801,2.91836597 7.11709815,2.96052535 C7.95935829,3.00268473 10.6545907,4.39394427 9.60176555,5.53224753 C9.60176555,5.53224753 9.43331352,6.79702893 8.38048835,7.09214459 C8.38048835,7.09214459 9.22274849,5.99600071 8.6752794,4.81553807 C8.6752794,4.81553807 8.54894038,3.84587233 7.36977619,3.55075667 C7.4118892,3.55075667 6.65385507,3.21348163 6.10638599,2.41245341 L6.10638599,2.41245341 Z" id="路径" fill="#D89E52"></path>
                <path d="M6.90653312,4.05666923 C6.90653312,4.05666923 7.32766318,5.36361001 8.0435843,5.57440691 C8.0435843,5.57440691 8.88584444,6.33327575 8.12781031,6.88134769 L6.61174207,7.5137384 L4.00073565,8.18828848 L3.0742495,8.52556352 C3.0742495,8.52556352 4.12707467,7.17646336 4.84299578,6.83918831 C4.84299578,6.83918831 6.10638599,6.50191327 6.65385507,5.15281311 L6.90653312,4.05666923 L6.90653312,4.05666923 Z" id="路径" fill="#D89E52"></path>
                <path d="M5.68525592,4.05666923 C5.68525592,4.05666923 5.39046487,5.32145063 4.12707467,6.54407265 C3.49537956,7.13430397 3.36904054,7.89317282 3.24270152,8.44124476 C3.24270152,8.44124476 3.57960558,7.26078212 4.50609173,6.50191327 C5.05356082,6.03816009 5.64314291,5.32145063 5.68525592,4.05666923 Z" id="路径" fill="#814879"></path>
                <path d="M6.7801941,7.7245353 C6.7801941,7.7245353 7.58034122,7.76669468 7.87513227,8.01965096 C7.87513227,8.01965096 7.62245423,7.80885406 7.4118892,7.7245353 C7.4118892,7.7245353 8.6752794,7.89317282 9.18063548,8.10396972 C9.18063548,8.10396972 9.77021758,8.23044786 10.1071216,8.10396972 C10.1071216,8.10396972 9.18063548,8.06181034 8.80161842,7.80885406 C8.80161842,7.80885406 8.0435843,7.5137384 7.58034122,7.55589778 L6.7801941,7.7245353 L6.7801941,7.7245353 Z" id="路径" fill="#785085"></path>
                <path d="M9.47542653,6.75486955 C9.47542653,6.75486955 9.85444359,6.67055079 10.3597997,6.75486955 C10.3597997,6.75486955 11.1599468,7.17646336 12.086433,6.54407265 C12.086433,6.54407265 11.3705118,7.42941964 10.7809297,7.3029415 C10.7809297,7.3029415 9.13852248,7.00782583 8.80161842,7.13430397 C8.84373143,7.17646336 9.34908751,7.00782583 9.47542653,6.75486955 L9.47542653,6.75486955 Z" id="路径" fill="#E1CAC9"></path>
                <path d="M5.81159494,2.11733775 C5.81159494,2.11733775 6.40117703,1.61142519 6.65385507,1.52710643 C6.65385507,1.52710643 7.79090626,1.23199077 7.32766318,1.52710643 L7.11709815,1.78006271 C7.11709815,1.78006271 7.53822822,1.56926581 8.00147129,1.61142519 L7.79090626,1.78006271 C7.79090626,1.78006271 8.50682737,1.65358457 8.59105339,1.78006271 C8.59105339,1.78006271 8.88584444,2.11733775 9.18063548,1.94870023 C9.18063548,1.94870023 9.05429646,2.28597527 8.33837535,1.90654085 C8.33837535,1.90654085 7.83301927,1.90654085 8.33837535,2.11733775 C8.29626234,2.11733775 6.94864612,1.78006271 5.81159494,2.11733775 L5.81159494,2.11733775 Z" id="路径" fill="#FFFFFF"></path>
                <path d="M5.26412585,11.2237638 C5.26412585,11.2237638 4.67454375,11.3080826 4.67454375,12.1934296 C4.67454375,12.1934296 4.80088278,12.910139 5.34835186,13.1209359 C5.34835186,13.1209359 5.09567382,12.0247921 5.47469088,11.2659232 L5.26412585,11.2237638 L5.26412585,11.2237638 Z" id="路径" fill="#A04F5D"></path>
                <path d="M10.6967037,11.4767201 C10.6967037,11.4767201 10.6124777,12.9522984 11.2020598,13.5846891 C11.2020598,13.5846891 11.7074159,14.0906017 12.381224,14.0062829 C12.381224,14.0062829 12.7602411,13.3738922 12.0022069,13.3317328 C12.0022069,13.3317328 11.2441728,13.1630953 11.0336078,12.4042265 C10.9914948,12.4463859 10.9072688,11.5610389 10.6967037,11.4767201 L10.6967037,11.4767201 Z" id="路径" fill="#9A505E"></path>
                <path d="M11.3283988,10.12762 C11.3283988,10.12762 11.0336078,11.3080826 12.296998,11.6453576 C12.296998,11.6453576 13.3077101,11.7718358 13.6025012,11.2237638 C13.6025012,11.2237638 12.549676,11.4345607 12.0022069,10.8864888 C11.9600939,10.8864888 11.3705118,10.464895 11.3283988,10.12762 L11.3283988,10.12762 Z M13.1392581,6.58623203 C13.1392581,6.58623203 12.339111,7.09214459 12.9286931,7.64021654 C12.9286931,7.64021654 13.0550321,7.04998521 13.1813711,6.88134769 C13.3498232,6.71271017 13.1392581,6.58623203 13.1392581,6.58623203 L13.1392581,6.58623203 Z" id="形状" fill="#A04F5E"></path>
                <path d="M13.0550321,6.96566645 C13.0550321,6.96566645 12.8444671,7.42941964 12.9286931,7.59805716 C12.9286931,7.59805716 13.0550321,7.89317282 13.1392581,7.85101344 C13.1392581,7.85101344 12.9286931,7.42941964 13.1813711,7.04998521 C13.1813711,7.04998521 13.3919362,6.75486955 13.1813711,6.33327575 C13.1813711,6.37543513 13.2655971,6.67055079 13.0550321,6.96566645 Z M13.4761622,7.80885406 C13.4761622,7.80885406 13.9815183,7.5137384 13.6446142,7.04998521 C13.6446142,7.04998521 13.7288402,7.47157902 13.4761622,7.80885406 Z M11.3283988,10.0854606 C11.4968509,11.3080826 12.8023541,11.2237638 12.8023541,11.2237638 C11.4968509,10.9708076 11.3283988,10.12762 11.3283988,10.0854606 Z" id="形状" fill="#000000"></path>
                <path d="M15.7923776,9.28443236 C15.7923776,9.28443236 15.6239255,8.69420104 15.6239255,8.39908538 C15.6239255,8.39908538 15.3291345,6.83918831 13.7288402,6.75486955 C13.7288402,6.75486955 13.5603882,6.24895699 13.0550321,6.24895699 C13.0550321,6.24895699 12.7602411,6.29111637 12.296998,6.88134769 C12.212772,6.96566645 12.212772,6.83918831 12.212772,6.83918831 C12.296998,6.75486955 12.296998,6.67055079 12.296998,6.67055079 C12.591789,6.33327575 12.7602411,5.61656629 12.8444671,5.32145063 C13.0129191,5.19497249 13.1392581,5.02633497 13.2655971,4.85769745 L13.4340492,4.30962551 C13.4340492,4.30962551 13.3498232,4.30962551 13.2655971,4.43610365 C13.1813711,4.56258179 13.5603882,3.76155357 13.4340492,3.55075667 C13.4340492,3.55075667 12.9286931,3.80371295 12.8865801,3.93019109 C12.8865801,3.93019109 12.7602411,3.17132225 12.591789,2.79188783 C12.591789,2.79188783 12.591789,2.24381589 12.7602411,2.15949713 C12.7602411,2.15949713 12.591789,1.94870023 12.339111,2.32813465 C12.339111,2.32813465 12.0443199,2.03301899 12.46545,1.23199077 C12.46545,1.23199077 12.549676,1.06335325 12.128546,1.18983139 C12.128546,1.18983139 11.7916419,1.52710643 11.7495289,1.61142519 C11.7495289,1.61142519 11.5810769,1.40062829 11.4968509,1.14767201 C11.4968509,1.14767201 11.4547379,1.10551263 11.4126248,1.14767201 C11.4126248,1.14767201 11.3283988,1.27415015 11.2862858,1.02119387 C11.2862858,1.02119387 11.1178338,0.726078212 11.0336078,0.726078212 C11.0336078,0.726078212 11.0757208,0.936875112 11.0336078,0.936875112 C11.0336078,0.936875112 10.9914948,0.936875112 10.8651558,0.852556352 C10.8651558,0.852556352 10.2334607,0.430962551 9.2648615,0.220165651 C9.2648615,0.220165651 9.05429646,0.135846891 8.97007045,0.0936875112 C8.97007045,0.0936875112 8.92795744,0.0936875112 8.88584444,0.135846891 C8.88584444,0.135846891 8.71739241,0.135846891 8.59105339,0.0936875112 C8.12781031,-0.117109389 7.91724528,0.0936875112 7.91724528,0.0936875112 C5.51680389,0.0936875112 4.75876977,1.65358457 4.75876977,1.65358457 C4.50609173,1.90654085 4.71665676,2.07517837 4.71665676,2.07517837 L5.09567382,2.07517837 C6.69596808,3.08700349 5.68525592,4.05666923 5.68525592,4.05666923 L5.51680389,3.50859729 C5.13778683,3.12916287 5.26412585,3.50859729 5.26412585,3.50859729 C5.39046487,4.09882861 4.9693348,4.47826303 4.9693348,4.47826303 C3.7059446,4.85769745 2.77945845,5.40576939 2.77945845,5.40576939 C2.52678041,5.36361001 2.90579747,4.98417559 2.61100642,5.02633497 C2.31621537,5.06849435 2.14776335,5.82736319 2.14776335,5.82736319 C1.34761622,6.41759451 0.673808109,7.55589778 0.421130068,7.97749158 C0.421130068,7.89317282 0.379017061,7.34510088 0.379017061,7.04998521 C0.379017061,7.04998521 0.0842260136,7.76669468 0.252678041,8.52556352 C0.252678041,8.52556352 0.12633902,8.86283856 0.0421130068,9.28443236 C0.0421130068,9.28443236 0.0421130068,9.36875112 0,9.45306988 L0,10.0011418 C0,10.6756919 0.0421130068,11.687517 0.463243075,12.5307046 C0.463243075,12.5307046 1.09493818,14.5121955 3.7059446,15.6083394 C3.7059446,15.6083394 4.75876977,15.9877738 5.68525592,15.9877738 L12.0022069,15.9877738 C12.0022069,15.9877738 12.8865801,15.9877738 13.0129191,15.5240206 C13.1392581,15.018108 12.8444671,14.5121955 12.0022069,14.6386736 C12.0022069,14.6386736 11.7495289,14.680833 12.086433,14.4278767 C12.086433,14.4278767 12.381224,14.1749204 12.381224,13.6268485 C12.381224,13.6268485 12.254885,13.4160516 12.676015,13.458211 C12.676015,13.458211 12.9708061,13.458211 13.1392581,13.4160516 C13.1392581,13.4160516 13.9394053,13.2474141 14.2341963,12.572864 C14.2341963,12.572864 14.5289873,12.4463859 14.6974394,12.572864 C14.6974394,12.572864 15.0343434,12.7415015 15.1185694,12.6150234 C15.1185694,12.6150234 15.1606824,12.572864 15.3712475,12.4463859 C15.3712475,12.4463859 15.4554735,12.4885452 15.5396995,11.8561545 C15.5396995,11.8561545 15.5396995,11.6031983 15.3712475,11.4767201 C15.3712475,11.4767201 15.2870215,11.350242 15.2449085,11.2659232 C15.2449085,11.2659232 15.0343434,10.9708076 14.3184223,11.0972857 C14.3184223,11.0972857 13.9394053,11.350242 13.8551792,11.2237638 C13.7709532,11.0972857 13.9815183,11.0972857 13.9815183,11.0972857 C13.9815183,11.0972857 14.8237784,11.0551263 15.1606824,10.80217 C15.1606824,10.80217 15.7081515,10.7600107 15.7502645,10.1697793 C15.7923776,10.0854606 16.1292816,9.79034492 15.7923776,9.28443236 L15.7923776,9.28443236 Z M12.170659,6.50191327 C11.4126248,8.06181034 9.93866961,8.52556352 9.93866961,8.52556352 C9.18063548,8.52556352 9.01218346,8.5677229 9.01218346,8.5677229 C9.55965254,8.65204166 9.43331352,8.73636042 9.43331352,8.73636042 C8.25414933,8.86283856 7.83301927,9.07363546 7.83301927,9.07363546 C6.27483801,8.82067918 5.43257788,8.9893167 5.43257788,8.9893167 C3.53749257,9.32659174 2.73734544,10.2119387 2.73734544,10.2119387 C4.42186571,9.24227298 5.5589169,9.15795422 5.5589169,9.15795422 C7.4118892,9.03147608 7.53822822,9.15795422 7.53822822,9.15795422 C7.03287214,9.24227298 6.40117703,9.70602616 6.40117703,9.70602616 C6.10638599,9.91682306 4.80088278,10.12762 4.80088278,10.12762 C4.3376397,10.1697793 3.49537956,10.4227356 3.49537956,10.4227356 C2.18987635,10.8443294 2.18987635,12.0247921 2.18987635,12.0247921 C1.76874629,11.5610389 1.81085929,10.7600107 1.81085929,10.7600107 L1.76874629,10.7178513 C1.81085929,10.5492138 1.89508531,10.3805762 2.06353733,10.0011418 C2.44255439,9.11579484 2.69523244,9.07363546 3.36904054,8.65204166 C4.04284865,8.23044786 6.52751605,7.76669468 6.52751605,7.76669468 C8.97007045,7.47157902 9.64387856,6.58623203 9.64387856,6.58623203 C9.68599156,6.54407265 9.77021758,6.45975389 9.8965566,6.37543513 L9.93866961,6.37543513 C9.93866961,6.37543513 11.3705118,6.33327575 12.507563,5.57440691 C12.46545,5.95384133 12.170659,6.50191327 12.170659,6.50191327 Z M13.2234841,3.97235047 C13.2234841,3.97235047 13.1392581,4.68905993 12.591789,5.15281311 C12.591789,5.15281311 11.7916419,5.95384133 10.0650086,6.24895699 L9.98078261,6.29111637 C10.1071216,6.12247885 10.2755737,5.99600071 10.2755737,5.99600071 C11.6653029,5.78520381 12.507563,4.77337869 12.507563,4.77337869 C11.2862858,5.65872567 10.3597997,5.82736319 10.3597997,5.82736319 C10.4861387,5.65872567 10.5703647,5.44792877 10.6967037,5.23713187 C10.8651558,5.11065373 11.4126248,4.64690055 11.8758679,4.52042241 C11.8758679,4.52042241 11.6653029,4.89985683 11.4126248,5.06849435 C11.4126248,5.06849435 11.7916419,5.02633497 12.423337,4.43610365 C12.381224,4.35178489 12.8865801,3.97235047 13.2234841,3.97235047 L13.2234841,3.97235047 Z M11.7074159,2.41245341 C11.7916419,1.69574395 12.170659,1.35846891 12.170659,1.35846891 C12.339111,1.48494705 12.170659,1.61142519 12.170659,1.61142519 C12.0443199,2.03301899 12.128546,2.58109093 12.128546,2.58109093 L11.7074159,3.55075667 C11.7074159,3.50859729 11.6231899,3.12916287 11.7074159,2.41245341 Z M5.43257788,3.93019109 C5.98004697,4.64690055 5.09567382,5.82736319 5.09567382,5.82736319 C6.61174207,4.64690055 6.27483801,3.55075667 6.27483801,3.55075667 C6.27483801,2.45461279 5.39046487,2.11733775 5.39046487,2.11733775 C4.9272218,2.03301899 5.01144781,1.86438147 5.01144781,1.86438147 C6.27483801,0.430962551 7.4540022,0.683918831 7.4540022,0.683918831 C7.4540022,0.473121931 6.56962906,0.599600071 6.56962906,0.599600071 C6.86442011,0.178006271 7.87513227,0.262325031 7.87513227,0.262325031 C8.0435843,0.304484411 8.42260136,0.473121931 8.42260136,0.473121931 L8.25414933,0.135846891 C8.38048835,0.178006271 8.46471437,0.220165651 8.54894038,0.262325031 C8.63316639,0.304484411 8.71739241,0.304484411 8.71739241,0.304484411 C8.84373143,0.304484411 9.01218346,0.346643791 9.2648615,0.346643791 C9.2648615,0.346643791 9.51753954,0.388803171 9.72810457,0.810396972 C9.72810457,0.810396972 9.68599156,0.557440691 9.64387856,0.473121931 C9.64387856,0.473121931 9.93866961,0.641759451 10.0650086,0.852556352 C10.0650086,0.852556352 10.1071216,0.810396972 10.0650086,0.641759451 C10.0650086,0.641759451 10.6124777,0.894715732 10.8230427,1.23199077 C10.8230427,1.23199077 10.8651558,1.27415015 10.8651558,1.14767201 C10.8651558,1.14767201 10.9072688,0.894715732 10.9914948,1.14767201 C10.9914948,1.14767201 10.9493818,1.40062829 11.0336078,1.35846891 C11.0336078,1.35846891 11.1178338,1.27415015 11.1178338,1.14767201 C11.1178338,1.14767201 11.2020598,1.10551263 11.2020598,1.23199077 C11.2020598,1.23199077 11.2862858,1.31630953 11.3705118,1.23199077 C11.3705118,1.23199077 11.4547379,1.31630953 11.4968509,1.48494705 C11.5389639,1.65358457 11.6231899,1.78006271 11.6231899,1.78006271 C11.6231899,1.78006271 11.4547379,2.20165651 11.4968509,2.66540969 C11.4968509,2.66540969 11.4968509,3.84587233 11.3283988,4.05666923 C11.3283988,4.05666923 11.8337549,3.84587233 12.0443199,2.96052535 C12.0443199,2.96052535 12.339111,2.20165651 12.381224,2.66540969 C12.381224,2.66540969 12.296998,2.87620659 12.381224,3.12916287 C12.381224,3.12916287 12.254885,3.63507543 12.128546,3.71939419 C12.128546,3.71939419 12.381224,3.55075667 12.507563,3.33995977 C12.507563,3.33995977 12.633902,3.76155357 12.423337,3.88803171 C12.423337,3.88803171 11.8337549,4.26746613 11.2862858,4.39394427 C11.2862858,4.39394427 10.9072688,4.60474117 10.7809297,4.85769745 L10.6967037,4.98417559 C10.9072688,4.47826303 11.0336078,3.97235047 11.0336078,3.97235047 C11.2441728,3.80371295 11.3283988,3.46643791 11.3283988,3.46643791 C11.2441728,3.46643791 11.0757208,3.67723481 11.0757208,3.67723481 C10.9072688,3.84587233 10.9914948,3.38211915 10.9914948,3.38211915 C11.0757208,3.25564101 11.1599468,3.04484411 11.1599468,3.04484411 C11.1599468,2.87620659 10.9914948,3.08700349 10.9914948,3.08700349 C10.8230427,3.17132225 10.9072688,2.87620659 10.9072688,2.87620659 C11.0336078,2.62325031 10.9493818,2.53893155 10.9493818,2.53893155 C10.8651558,2.53893155 10.7388167,2.91836597 10.7388167,2.91836597 C10.6967037,3.17132225 10.4861387,2.66540969 10.4861387,2.66540969 C10.2755737,2.49677217 10.3176867,2.07517837 10.3176867,2.07517837 C10.2755737,1.82222209 10.2334607,2.07517837 10.2334607,2.07517837 C10.1913476,2.37029403 10.1492346,2.20165651 10.1492346,2.20165651 C10.1492346,1.99085961 10.1071216,1.82222209 10.1071216,1.82222209 L10.1071216,2.15949713 C10.0228956,2.28597527 9.93866961,1.99085961 9.93866961,1.99085961 C9.8965566,1.69574395 9.81233058,1.73790333 9.81233058,1.73790333 C9.77021758,1.90654085 9.85444359,1.99085961 9.81233058,2.03301899 C9.77021758,2.07517837 9.64387856,1.90654085 9.64387856,1.73790333 C9.64387856,1.56926581 9.51753954,1.65358457 9.51753954,1.65358457 C9.51753954,1.94870023 9.43331352,1.82222209 9.43331352,1.82222209 C7.24343717,0.852556352 6.31695102,1.61142519 6.31695102,1.61142519 C8.33837535,0.768237592 10.1492346,2.74972845 10.1492346,2.74972845 C9.85444359,2.62325031 9.34908751,2.70756907 9.34908751,2.70756907 C8.75950541,2.96052535 8.42260136,2.79188783 8.42260136,2.79188783 C8.63316639,3.04484411 9.47542653,2.91836597 9.47542653,2.91836597 C9.81233058,2.79188783 10.1071216,2.96052535 10.1071216,2.96052535 C10.4861387,3.29780039 10.0228956,3.29780039 10.0228956,3.29780039 C10.4440257,3.46643791 10.5703647,4.09882861 10.5703647,4.09882861 C10.4440257,5.82736319 8.63316639,6.71271017 8.63316639,6.71271017 C9.51753954,5.36361001 8.97007045,4.56258179 8.97007045,4.56258179 C8.6752794,3.88803171 7.4540022,3.59291605 7.4540022,3.59291605 C8.6752794,4.14098799 8.75950541,4.85769745 8.75950541,4.85769745 C8.88584444,6.12247885 8.16992332,6.88134769 8.16992332,6.88134769 L7.74879325,7.04998521 C8.0435843,6.67055079 8.00147129,5.99600071 8.00147129,5.99600071 C7.79090626,6.88134769 6.94864612,7.3029415 6.94864612,7.3029415 C7.24343717,6.83918831 7.20132416,6.41759451 7.20132416,6.41759451 C7.11709815,6.83918831 6.44329004,7.34510088 6.44329004,7.34510088 C6.14849899,7.7245353 4.21130068,8.18828848 4.04284865,8.18828848 C3.95862264,8.18828848 3.53749257,8.31476662 3.28481453,8.44124476 C2.82157146,7.09214459 4.63243075,5.15281311 4.63243075,5.15281311 C5.26412585,4.73121931 5.43257788,3.93019109 5.43257788,3.93019109 L5.43257788,3.93019109 Z M1.81085929,6.58623203 C1.60029426,8.9893167 2.40044139,8.94715732 2.40044139,8.94715732 C1.47395524,8.31476662 2.31621537,5.65872567 2.31621537,5.65872567 C2.56889341,5.02633497 2.61100642,5.65872567 2.61100642,5.65872567 C2.23198936,6.37543513 2.35832838,7.04998521 2.35832838,7.04998521 C2.56889341,5.36361001 4.12707467,5.15281311 4.12707467,5.15281311 C2.99002348,6.79702893 3.0742495,8.52556352 3.0742495,8.52556352 L3.1163625,8.52556352 C2.99002348,8.52556352 2.94791048,8.5677229 2.94791048,8.5677229 C2.61100642,7.64021654 2.94791048,6.41759451 2.94791048,6.41759451 C2.35832838,7.04998521 2.69523244,8.9893167 2.69523244,8.9893167 C2.65311943,9.11579484 2.4846674,9.03147608 2.4846674,9.03147608 C2.31621537,9.03147608 2.02142433,9.66386678 2.02142433,9.66386678 C1.93719831,9.66386678 1.81085929,9.36875112 1.81085929,9.36875112 C1.72663328,9.57954802 1.81085929,9.66386678 1.81085929,9.66386678 C1.89508531,10.1697793 1.8529723,10.0854606 1.8529723,10.0854606 C1.76874629,10.12762 1.68452027,9.8325043 1.68452027,9.8325043 C1.55818125,10.0854606 1.72663328,10.3805762 1.72663328,10.3805762 L1.68452027,10.6335325 C1.68452027,10.6335325 0.92648615,9.57954802 0.589582095,8.48340414 C0.92648615,7.55589778 1.81085929,6.58623203 1.81085929,6.58623203 L1.81085929,6.58623203 Z M0.379017061,8.10396972 C0.379017061,8.10396972 0.294791048,8.65204166 1.68452027,10.8864888 C1.68452027,11.1394451 1.68452027,11.3924014 1.72663328,11.6453576 C1.72663328,11.6453576 0.715921116,10.7178513 0.463243075,9.03147608 C0.463243075,9.03147608 0.336904054,8.23044786 0.379017061,8.10396972 Z M15.7502645,10.0011418 C15.7502645,10.0011418 15.4554735,9.66386678 15.3712475,9.8325043 L15.6660385,10.0854606 C15.6660385,10.0854606 15.6660385,10.5913731 15.0764564,10.6335325 C15.0764564,10.6335325 14.8658914,10.9286482 14.1920833,10.9286482 C14.1920833,10.9286482 13.7709532,10.9708076 13.6446142,11.0972857 C13.6446142,11.0972857 13.4761622,11.2237638 12.8865801,11.1816045 C12.8865801,11.1816045 13.0550321,11.2659232 13.3919362,11.2659232 C13.3919362,11.2659232 13.6025012,11.2237638 13.6446142,11.3080826 C13.6446142,11.3080826 13.9815183,11.4345607 13.9815183,11.4767201 C13.9815183,11.5188795 14.8658914,10.9708076 15.2027955,11.4767201 C15.2027955,11.4767201 15.2870215,11.6453576 15.3712475,11.6453576 C15.3712475,11.6453576 15.4133605,11.8561545 15.3712475,11.8983139 C15.3291345,11.9404733 15.2027955,11.7718358 15.2027955,11.8983139 C15.2027955,11.8983139 15.4975865,11.9404733 15.3712475,12.2777483 C15.3712475,12.2777483 15.1185694,12.6571828 14.7816654,12.3620671 C14.7816654,12.3620671 14.3184223,12.4463859 14.1920833,12.3620671 C14.1920833,12.3620671 13.8130662,13.5846891 11.9179809,13.2474141 C11.9179809,13.2474141 11.1599468,13.0787766 10.8230427,11.9826327 C10.8230427,11.9826327 10.3597997,10.0011418 8.50682737,10.5070544 C8.50682737,10.5070544 9.68599156,10.4227356 10.2334607,11.1816045 C10.2334607,11.1816045 10.6545907,11.5188795 10.9072688,12.5307046 C10.9072688,12.5307046 11.2020598,13.2474141 11.9600939,13.3738922 C11.9600939,13.3738922 12.507563,13.4160516 12.128546,14.1327611 C12.128546,14.1327611 11.9179809,14.4700361 11.4547379,14.7229924 C11.4547379,14.7229924 11.2862858,14.8073111 11.3283988,14.9337893 C11.3283988,14.9337893 11.2862858,15.1867456 11.5389639,14.9759487 C11.5389639,14.9759487 12.507563,14.4278767 12.8023541,15.1867456 C12.8023541,15.1867456 12.8865801,15.3553831 12.8023541,15.3975425 C12.8023541,15.3975425 12.7181281,15.3975425 12.676015,15.3132237 C12.676015,15.3132237 12.591789,15.1024268 12.46545,15.1445862 C12.46545,15.1445862 12.7181281,15.3132237 12.633902,15.6504987 C12.633902,15.6504987 12.423337,15.903455 12.339111,15.6504987 C12.339111,15.6504987 12.423337,15.1867456 12.086433,15.2710643 C12.086433,15.2710643 12.423337,15.5240206 12.170659,15.7769769 C12.170659,15.7769769 12.0443199,15.8612956 11.7916419,15.8191363 C11.7916419,15.8191363 11.6653029,15.6504987 11.0336078,15.8191363 L5.5589169,15.8191363 C5.5589169,15.8191363 2.69523244,15.7769769 1.01071216,13.2474141 C1.01071216,13.2474141 0.252678041,11.8561545 0.210565034,10.9286482 L0.842260136,11.7718358 L0.294791048,10.4227356 L0.294791048,9.49522926 C0.294791048,9.32659174 0.336904054,9.15795422 0.336904054,9.07363546 C0.379017061,8.90499794 0.547469088,10.3805762 1.81085929,11.9826327 C1.97931132,12.6571828 2.31621537,13.0787766 2.31621537,13.0787766 C1.97931132,13.0787766 1.51606824,12.6150234 1.51606824,12.6150234 C2.02142433,13.4160516 2.77945845,13.6268485 2.77945845,13.6268485 C3.79017061,14.4700361 4.80088278,14.680833 4.80088278,14.680833 C4.08496166,14.5121955 3.28481453,13.8376454 3.28481453,13.8376454 C2.52678041,13.2474141 2.14776335,12.2777483 2.14776335,12.2777483 C2.14776335,11.9404733 2.52678041,11.350242 2.52678041,11.350242 C3.03213649,10.5913731 4.3376397,10.3805762 4.3376397,10.3805762 C5.09567382,10.3384169 6.02215997,10.1697793 6.02215997,10.1697793 C5.81159494,10.2540981 5.51680389,10.8864888 5.51680389,10.8864888 C5.47469088,10.9708076 5.13778683,11.0129669 5.13778683,11.0129669 C3.66383159,11.1816045 3.36904054,11.7718358 3.36904054,11.7718358 C3.62171858,11.5610389 4.08496166,11.3924014 4.08496166,11.3924014 C4.3376397,11.2659232 5.26412585,11.2237638 5.26412585,11.2237638 C4.88510879,12.6571828 5.43257788,13.795486 5.43257788,13.795486 C4.9272218,12.235589 5.64314291,11.0972857 5.64314291,11.0972857 C6.56962906,9.70602616 8.08569731,9.4109105 8.08569731,9.4109105 C8.63316639,9.24227298 9.98078261,8.90499794 9.98078261,8.90499794 C10.9072688,8.5677229 11.3705118,7.9353322 11.3705118,7.9353322 C11.5810769,7.59805716 12.0443199,7.38726026 12.212772,7.3029415 C12.212772,7.42941964 12.296998,7.55589778 12.423337,7.64021654 C12.423337,7.64021654 12.591789,7.68237592 12.507563,7.38726026 C12.507563,7.38726026 12.339111,7.21862274 12.591789,6.83918831 C12.591789,6.83918831 12.8865801,6.50191327 13.0971451,6.45975389 C13.0971451,6.45975389 13.4761622,6.75486955 13.5182752,7.04998521 C13.5182752,7.04998521 15.1185694,7.3029415 15.3291345,8.69420104 C15.3291345,8.69420104 15.3712475,8.94715732 15.3712475,9.03147608 C15.3712475,9.03147608 15.3712475,9.2001136 15.5396995,9.45306988 C15.6239255,9.36875112 15.8766036,9.79034492 15.7502645,10.0011418 Z" id="形状" fill="#000000"></path>
            </g>
        </g>
    </g>
</svg>