<svg xmlns="http://www.w3.org/2000/svg" width="16" height="14" viewBox="0 0 16 14">
  <g id="Icon_ionic-ios-heart" data-name="Icon ionic-ios-heart" transform="translate(0 0)">
    <path id="路径_3371" data-name="路径 3371" d="M489.526,349.187a1.014,1.014,0,0,1-.555-.165,28.222,28.222,0,0,1-5.588-4.811,7.788,7.788,0,0,1-1.855-4.579c0-.036,0-.073,0-.109a4.623,4.623,0,0,1,4.808-4.332,4.972,4.972,0,0,1,3.192,1.125,5.005,5.005,0,0,1,3.16-1.126h.042a4.621,4.621,0,0,1,4.8,4.334.759.759,0,0,1,0,.107,7.763,7.763,0,0,1-1.837,4.56,28.217,28.217,0,0,1-5.606,4.831A1.014,1.014,0,0,1,489.526,349.187Zm-6-9.619a5.83,5.83,0,0,0,1.377,3.368,26.136,26.136,0,0,0,4.621,4.078,26.178,26.178,0,0,0,4.64-4.1,5.82,5.82,0,0,0,1.358-3.348,2.636,2.636,0,0,0-2.733-2.414h-.071a2.989,2.989,0,0,0-2.39,1.167,1.008,1.008,0,0,1-.8.4h0a1.008,1.008,0,0,1-.8-.4,2.952,2.952,0,0,0-2.384-1.167A2.667,2.667,0,0,0,483.528,339.568Zm9.226-3.4h0Z" transform="translate(-481.526 -335.187)" fill="#4386f5"/>
  </g>
</svg>
