<?xml version="1.0" encoding="utf-8"?>
<!-- Generator: Adobe Illustrator 21.1.0, SVG Export Plug-In . SVG Version: 6.00 Build 0)  -->
<svg version="1.1" id="图层_1" xmlns="http://www.w3.org/2000/svg" xmlns:xlink="http://www.w3.org/1999/xlink" x="0px" y="0px"
	 viewBox="0 0 50 50" style="enable-background:new 0 0 50 50;" xml:space="preserve">
<g>
	<g>
		<path d="M25,38.4c-2.8,0-5.2-2.3-5.2-5.2c0-2.9,2.3-5.2,5.2-5.2c2.8,0,5.2,2.3,5.2,5.2C30.2,36.1,27.8,38.4,25,38.4L25,38.4z
			 M25,30.9c-1.2,0-2.2,1-2.2,2.3s1,2.3,2.2,2.3c1.2,0,2.2-1,2.2-2.3S26.2,30.9,25,30.9L25,30.9z M25,30.9"/>
		<path d="M39.9,20.8h-1.5v-2.9c0-3.7-1.4-7.1-3.9-9.7c-2.5-2.6-5.9-4.1-9.4-4.1c-3.5,0-6.9,1.4-9.4,4.1c-2.5,2.6-3.9,6.1-3.9,9.7
			v2.9h-1.6c-1.6,0-3,1.3-3,3v19.1c0,1.6,1.3,3,3,3h29.7c1.6,0,3-1.3,3-3V23.8C42.8,22.2,41.5,20.8,39.9,20.8L39.9,20.8z M14.7,17.9
			c0-2.9,1.1-5.6,3.1-7.7c2-2,4.5-3.2,7.3-3.2s5.3,1.1,7.3,3.2c2,2.1,3.1,4.8,3.1,7.7v2.9H14.7V17.9z M39.9,42.9L39.9,42.9
			C39.9,42.9,39.9,42.9,39.9,42.9l-29.8,0c0,0,0,0,0,0V23.8c0,0,0,0,0,0h29.8c0,0,0,0,0,0V42.9z M39.9,42.9"/>
	</g>
</g>
</svg>
