<?xml version="1.0" encoding="utf-8"?>
<!-- Generator: Adobe Illustrator 21.1.0, SVG Export Plug-In . SVG Version: 6.00 Build 0)  -->
<svg version="1.1" id="图层_1" xmlns="http://www.w3.org/2000/svg" xmlns:xlink="http://www.w3.org/1999/xlink" x="0px" y="0px"
	 viewBox="0 0 50 50" style="enable-background:new 0 0 50 50;" xml:space="preserve">
<g>
	<g>
		<path d="M32.4,27.4c3.4-2.3,5.6-6.1,5.6-10.5C38,9.8,32.1,4.1,25,4.1c-7.2,0-13,5.8-13,12.8c0,4.4,2.2,8.2,5.6,10.5
			c-7.6,3-13,10.1-13,18.6h3.6c0-8.4,6.5-15.3,14.7-16.3c0.1,0,2.3-0.2,4.2,0h0.2c8.1,1.1,14.3,8,14.3,16.3h3.7
			C45.3,37.5,40,30.3,32.4,27.4L32.4,27.4z M25,26.4c-5.4,0-9.8-4.3-9.8-9.6c0-5.3,4.4-9.6,9.8-9.6c5.4,0,9.8,4.3,9.8,9.6
			C34.7,22.2,30.4,26.4,25,26.4L25,26.4z M25,26.4"/>
	</g>
</g>
</svg>
