<?xml version="1.0" encoding="UTF-8"?>
<svg width="24px" height="24px" viewBox="0 0 24 24" version="1.1" xmlns="http://www.w3.org/2000/svg" xmlns:xlink="http://www.w3.org/1999/xlink">
    <title>影响对象</title>
    <g id="dam-icon" stroke="none" stroke-width="1" fill="none" fill-rule="evenodd">
        <g id="资产icon" transform="translate(-1489.000000, -362.000000)" fill="#409EFF">
            <g id="影响对象" transform="translate(1489.000000, 362.000000)">
                <circle id="椭圆形" opacity="0.1" cx="12" cy="12" r="12"></circle>
                <rect id="矩形" x="10" y="10" width="4" height="4" rx="2"></rect>
                <path d="M10.0734718,17.5338473 L10.0768387,14.7020538 C10.0771323,14.4546226 9.95869831,14.2560854 9.78813573,14.134075 L9.69262125,14.0763279 L9.62232665,14.0456642 L9.57718873,14.0303135 C9.51586353,14.0118607 9.45222186,14.0014935 9.38795205,14 L6.544213,14.0045885 C6.15761395,14.0050481 5.84458606,14.3188211 5.84504564,14.7054202 C5.84550522,15.0920192 6.15927823,15.4050471 6.54587728,15.4045875 L7.64424889,15.4042639 L5.20502525,17.7634669 C4.93165825,18.0368339 4.93165825,18.4800494 5.20502525,18.7534164 C5.47839226,19.0267834 5.92160774,19.0267834 6.19497475,18.7534164 L8.67485077,16.393159 L8.67347276,17.532183 C8.67305914,17.8801222 8.92657037,18.1690722 9.25910746,18.2237179 L9.37264013,18.2330147 C9.75923918,18.2334742 10.0730122,17.9204464 10.0734718,17.5338473 Z" id="路径" fill-rule="nonzero" opacity="0.5"></path>
                <path d="M13.9033669,17.5338473 L13.9,14.7020538 C13.8996644,14.4192752 14.0544017,14.2003583 14.2647986,14.0865508 L14.354512,14.0456642 L14.3996499,14.0303135 C14.4609751,14.0118607 14.5246168,14.0014935 14.5888866,14 L17.4326257,14.0045885 C17.8192247,14.0050481 18.1322526,14.3188211 18.131793,14.7054202 C18.1313335,15.0920192 17.8175604,15.4050471 17.4309614,15.4045875 L16.3325898,15.4042639 L18.7718134,17.7634669 C19.0451804,18.0368339 19.0451804,18.4800494 18.7718134,18.7534164 C18.4984464,19.0267834 18.0552309,19.0267834 17.7818639,18.7534164 L15.3019879,16.393159 L15.3033659,17.532183 C15.3037795,17.8801222 15.0502683,18.1690722 14.7177312,18.2237179 L14.6041985,18.2330147 C14.2175995,18.2334742 13.9038265,17.9204464 13.9033669,17.5338473 Z" id="路径" fill-rule="nonzero"></path>
                <path d="M10.0734718,8.5338473 L10.0768387,5.70205382 C10.0771323,5.45462257 9.95869831,5.25608537 9.78813573,5.13407503 L9.69262125,5.07632786 L9.62232665,5.04566421 L9.57718873,5.03031351 C9.51586353,5.01186072 9.45222186,5.00149347 9.38795205,5 L6.544213,5.00458853 C6.15761395,5.00504811 5.84458606,5.31882112 5.84504564,5.70542018 C5.84550522,6.09201923 6.15927823,6.40504712 6.54587728,6.40458754 L7.64424889,6.40426394 L5.20502525,8.76346692 C4.93165825,9.03683393 4.93165825,9.48004941 5.20502525,9.75341642 C5.47839226,10.0267834 5.92160774,10.0267834 6.19497475,9.75341642 L8.67485077,7.39315903 L8.67347276,8.53218302 C8.67305914,8.88012217 8.92657037,9.16907223 9.25910746,9.22371788 L9.37264013,9.23301467 C9.75923918,9.23347424 10.0730122,8.92044635 10.0734718,8.5338473 Z" id="路径" fill-rule="nonzero" transform="translate(7.538419, 7.479221) scale(1, -1) translate(-7.538419, -7.479221) "></path>
                <path d="M13.9033669,8.5338473 L13.9,5.70205382 C13.8996644,5.41927525 14.0544017,5.2003583 14.2647986,5.08655076 L14.354512,5.04566421 L14.3996499,5.03031351 C14.4609751,5.01186072 14.5246168,5.00149347 14.5888866,5 L17.4326257,5.00458853 C17.8192247,5.00504811 18.1322526,5.31882112 18.131793,5.70542018 C18.1313335,6.09201923 17.8175604,6.40504712 17.4309614,6.40458754 L16.3325898,6.40426394 L18.7718134,8.76346692 C19.0451804,9.03683393 19.0451804,9.48004941 18.7718134,9.75341642 C18.4984464,10.0267834 18.0552309,10.0267834 17.7818639,9.75341642 L15.3019879,7.39315903 L15.3033659,8.53218302 C15.3037795,8.88012217 15.0502683,9.16907223 14.7177312,9.22371788 L14.6041985,9.23301467 C14.2175995,9.23347424 13.9038265,8.92044635 13.9033669,8.5338473 Z" id="路径" fill-rule="nonzero" opacity="0.5" transform="translate(16.438419, 7.479221) scale(1, -1) translate(-16.438419, -7.479221) "></path>
            </g>
        </g>
    </g>
</svg>