<?xml version="1.0" encoding="UTF-8"?>
<svg width="24px" height="24px" viewBox="0 0 24 24" version="1.1" xmlns="http://www.w3.org/2000/svg" xmlns:xlink="http://www.w3.org/1999/xlink">
    <title>关键词</title>
    <g id="dam-icon" stroke="none" stroke-width="1" fill="none" fill-rule="evenodd">
        <g id="资产icon" transform="translate(-1292.000000, -848.000000)" fill="#409EFF">
            <g id="关键词" transform="translate(1292.000000, 848.000000)">
                <circle id="椭圆形" opacity="0.1" cx="12" cy="12" r="12"></circle>
                <g id="编组-45" transform="translate(5.000000, 6.000000)">
                    <path d="M13.3,10.5569964 C13.6865993,10.5569964 14,10.8800238 14,11.2784982 C14,11.6769726 13.6865993,12 13.3,12 L0.7,12 C0.313400675,12 0,11.6769726 0,11.2784982 C0,10.8800238 0.313400675,10.5569964 0.7,10.5569964 L13.3,10.5569964 Z M4.08476563,0 L6.66435547,6.64027244 L5.24931641,6.64027244 L4.68681641,5.13194316 L2.11162109,5.13194316 L1.57988281,6.64027244 L0.2,6.64027244 L2.70927734,0 L4.08476563,0 Z M3.38164063,1.54909494 L2.51152344,4.01315238 L4.26933594,4.01315238 L3.38164063,1.54909494 Z" id="形状结合"></path>
                    <path d="M13.3,7.67098928 C13.6865993,7.67098928 14,7.99401663 14,8.39249107 C14,8.7909655 13.6865993,9.11399285 13.3,9.11399285 L0.7,9.11399285 C0.313400675,9.11399285 0,8.7909655 0,8.39249107 C0,7.99401663 0.313400675,7.67098928 0.7,7.67098928 L13.3,7.67098928 Z" id="路径" opacity="0.7"></path>
                    <path d="M13.3,4.78498213 C13.6865993,4.78498213 14,5.10800949 14,5.50648392 C14,5.90495835 13.6865993,6.22798571 13.3,6.22798571 L8.7,6.22798571 C8.31340068,6.22798571 8,5.90495835 8,5.50648392 C8,5.10800949 8.31340068,4.78498213 8.7,4.78498213 L13.3,4.78498213 Z" id="路径" opacity="0.6"></path>
                    <path d="M13.3,1.89897499 C13.6865993,1.89897499 14,2.22200234 14,2.62047677 C14,3.01895121 13.6865993,3.34197856 13.3,3.34197856 L8.7,3.34197856 C8.31340068,3.34197856 8,3.01895121 8,2.62047677 C8,2.22200234 8.31340068,1.89897499 8.7,1.89897499 L13.3,1.89897499 Z" id="路径" opacity="0.5"></path>
                </g>
            </g>
        </g>
    </g>
</svg>