<?xml version="1.0" encoding="UTF-8"?>
<svg width="24px" height="24px" viewBox="0 0 24 24" version="1.1" xmlns="http://www.w3.org/2000/svg" xmlns:xlink="http://www.w3.org/1999/xlink">
    <title>业务系统</title>
    <g id="dam-icon" stroke="none" stroke-width="1" fill="none" fill-rule="evenodd">
        <g id="资产icon" transform="translate(-1292.000000, -638.000000)" fill="#409EFF">
            <g id="业务系统" transform="translate(1292.000000, 638.000000)">
                <circle id="椭圆形" opacity="0.1" cx="12" cy="12" r="12"></circle>
                <g id="编组-6" transform="translate(5.000000, 5.000000)">
                    <path d="M12,0 C12.5522847,-1.01453063e-16 13,0.44771525 13,1 L13,11 C13,11.5522847 12.5522847,12 12,12 L2,12 C1.44771525,12 1,11.5522847 1,11 L1,1 C1,0.44771525 1.44771525,-3.42636147e-16 2,0 L12,0 Z M9.7,5.6 L4.3,5.6 C3.8581722,5.6 3.5,5.9581722 3.5,6.4 C3.5,6.8418278 3.8581722,7.2 4.3,7.2 L9.7,7.2 C10.1418278,7.2 10.5,6.8418278 10.5,6.4 C10.5,5.9581722 10.1418278,5.6 9.7,5.6 Z M9.7,2 L4.3,2 C3.8581722,2 3.5,2.3581722 3.5,2.8 C3.5,3.2418278 3.8581722,3.6 4.3,3.6 L9.7,3.6 C10.1418278,3.6 10.5,3.2418278 10.5,2.8 C10.5,2.3581722 10.1418278,2 9.7,2 Z" id="形状结合" opacity="0.5"></path>
                    <polygon id="矩形" points="0 9 3.0020752 9 5 10 9 10 11 9 14 9 14 14 -1.51545443e-14 14"></polygon>
                </g>
            </g>
        </g>
    </g>
</svg>