<?xml version="1.0" encoding="UTF-8"?>
<svg width="24px" height="24px" viewBox="0 0 24 24" version="1.1" xmlns="http://www.w3.org/2000/svg" xmlns:xlink="http://www.w3.org/1999/xlink">
    <title>数据库类型</title>
    <g id="dam-icon" stroke="none" stroke-width="1" fill="none" fill-rule="evenodd">
        <g id="资产icon" transform="translate(-1292.000000, -672.000000)" fill="#409EFF">
            <g id="数据库类型" transform="translate(1292.000000, 672.000000)">
                <circle id="椭圆形" opacity="0.1" cx="12" cy="12" r="12"></circle>
                <g id="编组-7" transform="translate(5.000000, 5.000000)">
                    <ellipse id="椭圆形" cx="7" cy="3" rx="7" ry="3"></ellipse>
                    <path d="M13.2056547,5.61061691 C13.7130336,6.02600439 14,6.49863978 14,7 C14,8.65685425 10.8659932,10 7,10 C3.13400675,10 0,8.65685425 0,7 C0,6.49863978 0.286966406,6.02600439 0.794345341,5.61061691 C2.27077215,6.4952566 4.51823363,7 7,7 C9.42327356,7 11.6231567,6.51876884 13.0999371,5.67248739 Z" id="形状结合" opacity="0.6"></path>
                    <path d="M13.2056547,9.61061691 C13.7130336,10.0260044 14,10.4986398 14,11 C14,12.6568542 10.8659932,14 7,14 C3.13400675,14 0,12.6568542 0,11 C0,10.4986398 0.286966406,10.0260044 0.794345341,9.61061691 C2.27077215,10.4952566 4.51823363,11 7,11 C9.42327356,11 11.6231567,10.5187688 13.0999371,9.67248739 Z" id="形状结合备份" opacity="0.3"></path>
                </g>
            </g>
        </g>
    </g>
</svg>