<?xml version="1.0" encoding="UTF-8"?>
<svg width="64px" height="66px" viewBox="0 0 64 66" version="1.1" xmlns="http://www.w3.org/2000/svg" xmlns:xlink="http://www.w3.org/1999/xlink">
    <title>插画/暂无内容</title>
    <defs>
        <rect id="path-1" x="0" y="0" width="48" height="54" rx="1"></rect>
        <filter x="-18.8%" y="-16.7%" width="137.5%" height="133.3%" filterUnits="objectBoundingBox" id="filter-2">
            <feOffset dx="0" dy="0" in="SourceAlpha" result="shadowOffsetOuter1"></feOffset>
            <feGaussianBlur stdDeviation="3" in="shadowOffsetOuter1" result="shadowBlurOuter1"></feGaussianBlur>
            <feColorMatrix values="0 0 0 0 0.733827871   0 0 0 0 0.78061045   0 0 0 0 0.882699275  0 0 0 0.4 0" type="matrix" in="shadowBlurOuter1"></feColorMatrix>
        </filter>
    </defs>
    <g id="组件交互规范" stroke="none" stroke-width="1" fill="none" fill-rule="evenodd">
        <g id="插画使用" transform="translate(-80.000000, -197.000000)">
            <g id="插画/暂无内容" transform="translate(80.000000, 198.000000)">
                <circle id="椭圆形" fill="#F2F3F5" cx="32" cy="32" r="32"></circle>
                <g id="编组-7" transform="translate(8.000000, 5.000000)">
                    <g id="矩形备份-7">
                        <use fill="black" fill-opacity="1" filter="url(#filter-2)" xlink:href="#path-1"></use>
                        <use fill="#FFFFFF" fill-rule="evenodd" xlink:href="#path-1"></use>
                    </g>
                    <g id="编组-10" transform="translate(4.000000, 7.000000)" fill="#EDEFF4">
                        <path d="M0,0 L8,0 L8,8 L0,8 Z M0,32 L8,32 L8,40 L0,40 Z M10,1 L40,1 L40,3 L10,3 Z M10,33 L40,33 L40,35 L10,35 Z M0,16 L4,16 L4,18 L0,18 Z M6,16 L14,16 L14,18 L6,18 Z M10,5 L40,5 L40,7 L10,7 Z M10,37 L40,37 L40,39 L10,39 Z M0,11 L22,11 L22,13 L0,13 Z M0,21 L8,21 L8,29 L0,29 Z M11,21 L19,21 L19,29 L11,29 Z" id="形状结合"></path>
                        <rect id="矩形备份-53" x="28" y="14" width="12" height="4"></rect>
                    </g>
                </g>
                <g id="blue" transform="translate(25.000000, 18.000000)">
                    <polygon id="矩形" fill="#9EA6B4" points="22.6333697 26.6896708 25.5173018 24.2697645 28.5421846 27.8746795 25.6582526 30.2945858"></polygon>
                    <path d="M25.6582526,30.2945858 L28.5421846,27.8746795 C28.9403726,27.5405602 29.5340249,27.592498 29.8681442,27.990686 L38.3378163,38.084448 C38.6719356,38.4826359 38.6199977,39.0762883 38.2218098,39.4104076 L35.3378778,41.8303139 C34.9396899,42.1644332 34.3460376,42.1124954 34.0119182,41.7143075 L25.5422462,31.6205454 C25.2081269,31.2223575 25.2600647,30.6287052 25.6582526,30.2945858 Z" id="矩形备份-10" fill="#CFD6E3"></path>
                    <path d="M24.6415897,26.4903991 C30.9875619,21.1654962 31.8153021,11.7043825 26.4903991,5.35841034 C21.1654962,-0.987561869 11.7043825,-1.81530206 5.35841034,3.50960088 C-0.987561869,8.83450381 -1.81530206,18.2956175 3.50960088,24.6415897 C8.83450381,30.9875619 18.2956175,31.8153021 24.6415897,26.4903991 Z" id="椭圆形" fill="#FAFBFC"></path>
                    <path d="M5.35841034,3.50960088 C11.7043825,-1.81530206 21.1654962,-0.987561869 26.4903991,5.35841034 C31.8153021,11.7043825 30.9875619,21.1654962 24.6415897,26.4903991 C18.2956175,31.8153021 8.83450381,30.9875619 3.50960088,24.6415897 C-1.81530206,18.2956175 -0.987561869,8.83450381 5.35841034,3.50960088 Z M24.2012962,7.27919578 C19.9372137,2.19746022 12.3609313,1.5346214 7.27919578,5.79870383 C2.19746022,10.0627863 1.5346214,17.6390687 5.79870383,22.7208042 C10.0627863,27.8025398 17.6390687,28.4653786 22.7208042,24.2012962 C27.8025398,19.9372137 28.4653786,12.3609313 24.2012962,7.27919578 Z" id="椭圆形" fill="#CFD6E3" fill-rule="nonzero"></path>
                </g>
            </g>
        </g>
    </g>
</svg>