<svg xmlns="http://www.w3.org/2000/svg" viewBox="0 0 15.93 16"><defs><style>.f242293c-b822-40e5-a230-bc78f157be2b{fill:#4386f5;}.e1532ea3-c466-4051-b500-a35d85ee87f0{fill:#b2d1ff;}.b5809f52-f057-4aad-b401-6b86027ca927{fill:#eaeaea;}</style></defs><title>资源 133</title><g id="fff14f76-00b8-4867-969d-91a1fb299064" data-name="图层 2"><g id="b4fd863b-6f82-47b9-93f1-bb27fc9bafff" data-name="dam 图标"><path class="f242293c-b822-40e5-a230-bc78f157be2b" d="M0,2V16H4V2ZM2,5.18a1,1,0,1,1,1-1A1,1,0,0,1,2,5.18Z"/><path class="e1532ea3-c466-4051-b500-a35d85ee87f0" d="M4.91,0V16h4V0Zm2,3a1,1,0,1,1,1-1A1,1,0,0,1,6.91,3Z"/><path class="b5809f52-f057-4aad-b401-6b86027ca927" d="M12.81,1.46l-3.9.89L12,16l3.9-.89ZM11.32,4.92a1,1,0,1,1,1-1A1,1,0,0,1,11.32,4.92Z"/></g></g></svg>