<svg xmlns="http://www.w3.org/2000/svg" viewBox="0 0 15.96 15.96"><defs><style>.bd16bc59-98cb-46fb-904d-2eb2067aee9e{fill:#cde1fe;}.bf374d74-b502-4cd4-b044-c434f6a0762b{fill:#4386f5;}</style></defs><title>资源 132</title><g id="f37ba81a-e657-466d-b132-1ad3563fef54" data-name="图层 2"><g id="a9aa0a79-9662-4fde-9b63-5afe353bbc10" data-name="dam 图标"><path class="bd16bc59-98cb-46fb-904d-2eb2067aee9e" d="M15.41,15a2.55,2.55,0,0,1-1.7.95h-.3a2.5,2.5,0,0,1-1.57-.55,2.65,2.65,0,0,1-.41-.41l-1.34-1.68L8.36,11.14,5.83,7.56,6.42,7h0L4.61,5.16a2.17,2.17,0,0,1-1.22.38,2.15,2.15,0,0,1-1.51-.63L.5,3.53A.39.39,0,0,1,.5,3L3,.51a.38.38,0,0,1,.55,0L4.91,1.88A2.16,2.16,0,0,1,5.54,3.4a2.07,2.07,0,0,1-.38,1.21L7,6.41v0l.65-.65a.08.08,0,0,1,.12,0l3.17,2.4L14,10.66l1,.77A2.54,2.54,0,0,1,15.41,15Z"/><path class="bf374d74-b502-4cd4-b044-c434f6a0762b" d="M15.84,3.36a.43.43,0,0,0,0-.11.39.39,0,0,0-.06-.11.22.22,0,0,0-.09-.1A.4.4,0,0,0,15.44,3h-.08s0,0,0,0a.16.16,0,0,0-.09,0,.05.05,0,0,0-.05,0h0v0l0,0-1,1A1.61,1.61,0,0,1,13,4.58,1.6,1.6,0,0,1,11.39,3a1.55,1.55,0,0,1,.47-1.13l1-1s0,0,0,0A.16.16,0,0,0,13,.72a.08.08,0,0,0,0,0,.31.31,0,0,0,0-.13.34.34,0,0,0,0-.19L12.89.26a.67.67,0,0,0-.14-.09l0,0A4.38,4.38,0,0,0,7.19,4.39a4.12,4.12,0,0,0,.09.86l-6.11,5a3.66,3.66,0,0,0-.44.44A3.18,3.18,0,0,0,0,13.07a3.22,3.22,0,0,0,1.15,2.16,3.16,3.16,0,0,0,2,.73h.32A3.26,3.26,0,0,0,5.68,14.8l5-6.11a4.12,4.12,0,0,0,.86.09A4.4,4.4,0,0,0,16,4.39,4.46,4.46,0,0,0,15.84,3.36ZM3.2,14.17a1.4,1.4,0,1,1,1.39-1.4A1.4,1.4,0,0,1,3.2,14.17Z"/></g></g></svg>