<?xml version="1.0" encoding="UTF-8"?>
<svg width="42px" height="48px" viewBox="0 0 42 48" version="1.1" xmlns="http://www.w3.org/2000/svg" xmlns:xlink="http://www.w3.org/1999/xlink">
    <title>数据标准-48</title>
    <g id="dam-icon" stroke="none" stroke-width="1" fill="none" fill-rule="evenodd">
        <g id="资产状态" transform="translate(-1131.000000, -626.000000)" fill="#38B48B">
            <g id="编组-27" transform="translate(0.000000, 600.000000)">
                <g id="数据标准-48" transform="translate(1131.000000, 26.000000)">
                    <path d="M40,0 C41.1045695,0 42,0.901156168 42,2.01278864 L42,45.9868013 C42,47.0984337 41.1045695,48 40,48 C39.6767551,48 39.3583266,47.9207399 39.071986,47.7697929 L21.928014,38.732195 C21.3467927,38.425799 20.6532073,38.425799 20.071986,38.732195 L2.92801399,47.7697929 C1.94955149,48.2855981 0.740864903,47.9054684 0.228336929,46.9207493 C0.0783490258,46.6325778 0,46.3121131 0,45.9868013 L0,2.01278864 C0,0.901156168 0.8954305,0 2,0 L40,0 Z M3,24 L3,44.3226122 L18.679965,36.0577075 C20.0565417,35.3320328 21.6852374,35.2938394 23.088353,35.9431273 L23.320035,36.0577075 L39,44.3226122 L39,24 L3,24 Z M33.8681047,11.0014998 L27.5154694,11.0014998 L27.5154694,12.3708169 L31.9767246,12.3708169 L27.4449179,18.1300475 L27.4449179,19.4993646 L33.9386562,19.4993646 L33.9386562,18.1300475 L29.2942673,18.1300475 L33.8681047,12.3708169 L33.8681047,11.0014998 Z M12.0136583,11 L10.7032021,11 L7,19.4993646 L8.70074099,19.4993646 L9.4617963,17.5496251 L13.1544907,17.5496251 L13.9455679,19.4993646 L15.6748297,19.4993646 L12.0136583,11 Z M25.0131435,14.5005324 L17.0078023,14.5005324 L17.0078023,16.4997653 L25.0131435,16.4997653 L25.0131435,14.5005324 Z M11.3126468,12.8012594 L12.6246041,16.2597973 L9.98117525,16.2597973 L11.3126468,12.8012594 Z M3,8 L39,8 L39,3.01918296 L3,3.01918296 L3,8 Z" id="形状结合" fill-rule="nonzero"></path>
                    <rect id="矩形备份" opacity="0.7" x="3" y="28" width="36" height="4"></rect>
                </g>
            </g>
        </g>
    </g>
</svg>