<svg xmlns="http://www.w3.org/2000/svg" width="42" height="48" viewBox="0 0 42 48">
  <path id="指标标准" d="M342.449,141.758c-8.2-.8-14.352-2.8-18.285-5.957l-1.053-.8-1.109.7c-6.206,4-12.356,6.057-18.285,6.057H302V163.88c0,6.807,6.594,12.964,20.28,18.82l.72.3.72-.3c13.464-5.156,20.28-11.513,20.28-18.77V141.908Zm-19.4,37.989c-8.569-3.754-14.079-7.608-16.473-11.461h33C337.35,172.439,331.785,176.294,323.049,179.746Zm5.714-23.323a.842.842,0,0,1,.206-1.452l6.688-2.6a.856.856,0,0,1,1.184.9l-1.029,6.908a.871.871,0,0,1-1.389.551l-1.543-1.2-4.579,5.356a1.558,1.558,0,0,1-1.184.55,1.673,1.673,0,0,1-.823-.2l-9.415-5.605-6.123,4.6a1.528,1.528,0,0,1-2.16-.25,1.476,1.476,0,0,1,.256-2.1l6.947-5.256a1.5,1.5,0,0,1,1.749-.1l9.159,5.456,3.652-4.3Zm12.207-6.657H305.026V144.71a38.958,38.958,0,0,0,17.916-5.906c4.281,2.954,10.367,4.905,18.084,5.807v5.155Z" transform="translate(-302 -135)" fill="#d1af3e"/>
</svg>
