<?xml version="1.0" encoding="UTF-8"?>
<svg width="48px" height="48px" viewBox="0 0 48 48" version="1.1" xmlns="http://www.w3.org/2000/svg" xmlns:xlink="http://www.w3.org/1999/xlink">
    <title>信息项</title>
    <g id="dam-icon" stroke="none" stroke-width="1" fill="none" fill-rule="evenodd">
        <path d="M42.375,0 C43.8247475,0 45,1.34314575 45,3 L45,45 C45,46.6568542 43.8247475,48 42.375,48 L5.625,48 C4.17525253,48 3,46.6568542 3,45 L3,3 C3,1.34314575 4.17525253,0 5.625,0 L42.375,0 Z M42,28 L6,28 L6,45 L42,45 L42,28 Z M35.5,37 C36.3284271,37 37,37.6715729 37,38.5 C37,39.3284271 36.3284271,40 35.5,40 L12.5,40 C11.6715729,40 11,39.3284271 11,38.5 C11,37.6715729 11.6715729,37 12.5,37 L35.5,37 Z M35.5,31 C36.3284271,31 37,31.6715729 37,32.5 C37,33.3284271 36.3284271,34 35.5,34 L12.5,34 C11.6715729,34 11,33.3284271 11,32.5 C11,31.6715729 11.6715729,31 12.5,31 L35.5,31 Z M17,15 L13,15 C12.4477153,15 12,15.4477153 12,16 C12,16.5522847 12.4477153,17 13,17 L15,17 L15,22 L12,22 C11.4477153,22 11,22.4477153 11,23 C11,23.5522847 11.4477153,24 12,24 L20,24 C20.5522847,24 21,23.5522847 21,23 C21,22.4477153 20.5522847,22 20,22 L18,22 L18,16 C18,15.4477153 17.5522847,15 17,15 Z M38,20 L24,20 C23.4477153,20 23,20.4477153 23,21 C23,21.5522847 23.4477153,22 24,22 L38,22 C38.5522847,22 39,21.5522847 39,21 C39,20.4477153 38.5522847,20 38,20 Z M34,15 L24,15 C23.4477153,15 23,15.4477153 23,16 C23,16.5522847 23.4477153,17 24,17 L34,17 C34.5522847,17 35,16.5522847 35,16 C35,15.4477153 34.5522847,15 34,15 Z M16.5,11 C15.6715729,11 15,11.6715729 15,12.5 C15,13.3284271 15.6715729,14 16.5,14 C17.3284271,14 18,13.3284271 18,12.5 C18,11.6715729 17.3284271,11 16.5,11 Z M42,3 L6,3 L6,8 L42,8 L42,3 Z" id="形状结合" fill="#A15BC3" fill-rule="nonzero"></path>
    </g>
</svg>