<svg xmlns="http://www.w3.org/2000/svg" viewBox="0 0 28 32"><defs><style>.b4e1fa15-2033-4187-84b1-fe7ce73a047a{fill:#9fa0a6;}.e0069cb0-c924-47de-8edf-814c30e00938{fill:#9e9fa5;}.b4d1b10f-b85f-4b4e-8a5f-3df3df12eca5{fill:#dd311b;}</style></defs><title>资源 87</title><g id="ff3a27ad-e7df-4dac-ad98-cd919b746813" data-name="图层 2"><g id="afaea031-3f06-4dca-a8b3-0e1a1c18847e" data-name="ddc图标"><path class="b4e1fa15-2033-4187-84b1-fe7ce73a047a" d="M7.8,17.29a2.1,2.1,0,0,1,.33-.73,4.17,4.17,0,0,1,1-1,11.71,11.71,0,0,1,1.7-1,.26.26,0,0,0,.11-.12,29.05,29.05,0,0,0,2-4,.12.12,0,0,0,0-.12,15.39,15.39,0,0,1-.5-2.28,3.83,3.83,0,0,1,0-1.43A.81.81,0,0,1,12.85,6l.26-.12h.26a1,1,0,0,1,.78.73,3.64,3.64,0,0,1,.14,1.08A7.67,7.67,0,0,1,14,10a.39.39,0,0,0,0,.26A7.3,7.3,0,0,0,15.16,12a6.64,6.64,0,0,0,1.22,1.08.13.13,0,0,0,.12,0,13.28,13.28,0,0,1,1.9-.14,4,4,0,0,1,1.15.16,1.08,1.08,0,0,1,.59.52,1.14,1.14,0,0,1-.28,1.2,1.24,1.24,0,0,1-.71.19,5,5,0,0,1-1.43-.26A9.59,9.59,0,0,1,16,14a.32.32,0,0,0-.12,0,27.52,27.52,0,0,0-2.84.59l-1.32.35c-.07,0-.12,0-.12.12a13.7,13.7,0,0,1-1.22,1.88,4.1,4.1,0,0,1-1.1,1,1.91,1.91,0,0,1-.47.17H8.6l0,0a.93.93,0,0,1-.78-.61ZM15,13.41a8.38,8.38,0,0,1-1.55-1.86,27.27,27.27,0,0,1-1.27,2.61C13.09,13.86,14,13.62,15,13.41ZM13.4,6.62a3.7,3.7,0,0,0,.11,2l0,0s0-.08,0-.1a4.53,4.53,0,0,0,.07-1.1,3.66,3.66,0,0,0-.12-.61A1.6,1.6,0,0,1,13.4,6.62Zm4.46,7.26v0l.57.21a2.13,2.13,0,0,0,.94.14,1.64,1.64,0,0,0,.28-.07v-.05A3.92,3.92,0,0,0,17.86,13.88ZM8.77,17.34h0a3.75,3.75,0,0,0,1.08-1.23,5.75,5.75,0,0,0-.94,1Z"/><path class="e0069cb0-c924-47de-8edf-814c30e00938" d="M27.71,8.29,26,6.58,21.42,2,19.71.29A1,1,0,0,0,19,0H2A2,2,0,0,0,0,2V30a2,2,0,0,0,2,2H26a2,2,0,0,0,2-2V9A1,1,0,0,0,27.71,8.29ZM20,3.41,24.59,8H21a1,1,0,0,1-1-1ZM26,30H2V2H18V7a3,3,0,0,0,3,3h5Z"/><path class="b4d1b10f-b85f-4b4e-8a5f-3df3df12eca5" d="M7.64,19.75H6.56V22.2H7.63a1.42,1.42,0,0,0,1-.32A1.15,1.15,0,0,0,9,21a1.18,1.18,0,0,0-.35-.92A1.41,1.41,0,0,0,7.64,19.75Z"/><path class="b4d1b10f-b85f-4b4e-8a5f-3df3df12eca5" d="M0,16V28H28V16Zm10.29,6a2.43,2.43,0,0,1-.52.77,2.39,2.39,0,0,1-.8.49,2.73,2.73,0,0,1-1,.17H6.56v2.19H5.09v-7H8a2.64,2.64,0,0,1,1,.17,2.26,2.26,0,0,1,.77.49,2.23,2.23,0,0,1,.5.77,2.7,2.7,0,0,1,.18,1A2.64,2.64,0,0,1,10.29,22Zm6.9,1.57a2.88,2.88,0,0,1-.65,1.12,2.53,2.53,0,0,1-1,.69,3.86,3.86,0,0,1-1.41.24H11.33v-7H14.1a4.07,4.07,0,0,1,1.4.23,2.77,2.77,0,0,1,1,.68,2.89,2.89,0,0,1,.64,1.09A4.55,4.55,0,0,1,17.41,22,5,5,0,0,1,17.19,23.53Zm5.72-3.74H19.77v1.84h2.87v1.21H19.77v2.74H18.3v-7h4.61Z"/><path class="b4d1b10f-b85f-4b4e-8a5f-3df3df12eca5" d="M15.36,20.38a1.53,1.53,0,0,0-.64-.44,2.26,2.26,0,0,0-.85-.15H12.8v4.53h1.07a1.91,1.91,0,0,0,1.5-.58A2.43,2.43,0,0,0,15.9,22a3.11,3.11,0,0,0-.14-1A1.79,1.79,0,0,0,15.36,20.38Z"/></g></g></svg>