<svg xmlns="http://www.w3.org/2000/svg" viewBox="0 0 28 32"><defs><style>.a1926138-da90-4327-a31b-d4f2e0ff5c22,.a6df54e8-1e14-4b12-8538-ec20f53cd553,.b52a670d-b2ba-4b9b-9a7e-7c6ce805f0eb{fill:#9fa0a6;}.a1926138-da90-4327-a31b-d4f2e0ff5c22{opacity:0.6;}.b52a670d-b2ba-4b9b-9a7e-7c6ce805f0eb{opacity:0.8;}.fd9fd2d0-e336-4567-89d3-b63b0c5db0e1{fill:#9e9fa5;}.a6c2cc9f-a280-4c2c-b5ab-f4d68bacb415{fill:#c43d1d;}</style></defs><title>资源 86</title><g id="ec910a47-cfef-431e-8aa1-00a67eae889c" data-name="图层 2"><g id="f44792f8-3c07-4260-aa96-39726ba5b563" data-name="ddc图标"><path class="a1926138-da90-4327-a31b-d4f2e0ff5c22" d="M19.34,12.67H14.47V7.8a5.17,5.17,0,0,1,4.87,4.87Z"/><path class="b52a670d-b2ba-4b9b-9a7e-7c6ce805f0eb" d="M9.92,16.71a5.12,5.12,0,0,1,3.51-8.48v5Z"/><path class="a6df54e8-1e14-4b12-8538-ec20f53cd553" d="M13.8,18.48a5.13,5.13,0,0,0,5.12-4.77H14l-3.52,3.52a5.06,5.06,0,0,0,3.36,1.26Z"/><path class="fd9fd2d0-e336-4567-89d3-b63b0c5db0e1" d="M27.71,8.29,26,6.58,21.42,2,19.71.29A1,1,0,0,0,19,0H2A2,2,0,0,0,0,2V30a2,2,0,0,0,2,2H26a2,2,0,0,0,2-2V9A1,1,0,0,0,27.71,8.29ZM20,3.41,24.59,8H21a1,1,0,0,1-1-1ZM26,30H2V2H18V7a3,3,0,0,0,3,3h5Z"/><path class="a6c2cc9f-a280-4c2c-b5ab-f4d68bacb415" d="M7.66,19.75H6.59V22.2H7.66a1.42,1.42,0,0,0,1-.32A1.15,1.15,0,0,0,9,21a1.18,1.18,0,0,0-.35-.92A1.42,1.42,0,0,0,7.66,19.75Z"/><path class="a6c2cc9f-a280-4c2c-b5ab-f4d68bacb415" d="M14.2,19.75H13.13V22.2H14.2a1.45,1.45,0,0,0,1-.32,1.15,1.15,0,0,0,.35-.9,1.18,1.18,0,0,0-.35-.92A1.42,1.42,0,0,0,14.2,19.75Z"/><path class="a6c2cc9f-a280-4c2c-b5ab-f4d68bacb415" d="M2,16V28H26V16Zm8.31,6a2.25,2.25,0,0,1-.51.77,2.5,2.5,0,0,1-.8.49,2.8,2.8,0,0,1-1,.17H6.59v2.19H5.12v-7H8.05a2.66,2.66,0,0,1,1,.17,2.36,2.36,0,0,1,.77.49,2.38,2.38,0,0,1,.5.77,2.7,2.7,0,0,1,.18,1A2.64,2.64,0,0,1,10.31,22Zm6.54,0a2.14,2.14,0,0,1-.52.77,2.35,2.35,0,0,1-.79.49,2.8,2.8,0,0,1-1,.17H13.13v2.19H11.65v-7h2.94a2.64,2.64,0,0,1,1,.17A2.14,2.14,0,0,1,16.86,20,2.91,2.91,0,0,1,17,21,2.64,2.64,0,0,1,16.85,22Zm6.64-2.17H21.38v5.79H19.9V19.79H17.79V18.54h5.7Z"/></g></g></svg>