<?xml version="1.0" encoding="UTF-8"?>
<svg width="160px" height="160px" viewBox="0 0 160 160" version="1.1" xmlns="http://www.w3.org/2000/svg" xmlns:xlink="http://www.w3.org/1999/xlink">
    <title>筛选-没有数据</title>
    <defs>
        <linearGradient x1="80.9165737%" y1="88.9655413%" x2="16.4892578%" y2="12.9778181%" id="linearGradient-1">
            <stop stop-color="#F8F8F8" stop-opacity="0.226535184" offset="0%"></stop>
            <stop stop-color="#F1F1F1" offset="100%"></stop>
        </linearGradient>
    </defs>
    <g id="dam-icon" stroke="none" stroke-width="1" fill="none" fill-rule="evenodd">
        <g id="类型" transform="translate(-512.000000, -428.000000)">
            <g id="筛选-没有数据" transform="translate(512.000000, 428.000000)">
                <circle id="椭圆_1699" fill="url(#linearGradient-1)" fill-rule="nonzero" cx="80" cy="80" r="60"></circle>
                <rect id="矩形_17690" fill="#DDDDDD" fill-rule="nonzero" x="46" y="39" width="68" height="82" rx="2"></rect>
                <rect id="矩形_17691" fill="#FDFDFD" fill-rule="nonzero" x="52" y="44" width="56" height="71" rx="2"></rect>
                <circle id="椭圆_1700" fill="#E9E9E9" fill-rule="nonzero" cx="5" cy="68" r="5"></circle>
                <circle id="椭圆_1701" fill="#EFEFEF" fill-rule="nonzero" cx="129" cy="16" r="4"></circle>
                <path d="M85,98 C86.1045695,98 87,98.8954305 87,100 C87,101.104569 86.1045695,102 85,102 L59,102 C57.8954305,102 57,101.104569 57,100 C57,98.8954305 57.8954305,98 59,98 L85,98 Z M77,88 C78.1045695,88 79,88.8954305 79,90 C79,91.1045695 78.1045695,92 77,92 L59,92 C57.8954305,92 57,91.1045695 57,90 C57,88.8954305 57.8954305,88 59,88 L77,88 Z M77,78 C78.1045695,78 79,78.8954305 79,80 C79,81.1045695 78.1045695,82 77,82 L59,82 C57.8954305,82 57,81.1045695 57,80 C57,78.8954305 57.8954305,78 59,78 L77,78 Z M83,68 C84.1045695,68 85,68.8954305 85,70 C85,71.1045695 84.1045695,72 83,72 L59,72 C57.8954305,72 57,71.1045695 57,70 C57,68.8954305 57.8954305,68 59,68 L83,68 Z M101,58 C102.104569,58 103,58.8954305 103,60 C103,61.1045695 102.104569,62 101,62 L59,62 C57.8954305,62 57,61.1045695 57,60 C57,58.8954305 57.8954305,58 59,58 L101,58 Z" id="形状结合" fill="#E7E7E7" fill-rule="nonzero"></path>
                <path d="M20,0 C21.1045695,-2.02906125e-16 22,0.8954305 22,2 L22,5 L25,5 C26.1045695,5 27,5.8954305 27,7 C27,8.1045695 26.1045695,9 25,9 L22,9 L22,12 C22,13.1045695 21.1045695,14 20,14 C18.8954305,14 18,13.1045695 18,12 L18,9 L15,9 C13.8954305,9 13,8.1045695 13,7 C13,5.8954305 13.8954305,5 15,5 L18,5 L18,2 C18,0.8954305 18.8954305,2.02906125e-16 20,0 Z" id="形状结合" fill="#EFEFEF"></path>
                <path d="M153,39 C154.104569,39 155,39.8954305 155,41 L155,44 L158,44 C159.104569,44 160,44.8954305 160,46 C160,47.1045695 159.104569,48 158,48 L155,48 L155,51 C155,52.1045695 154.104569,53 153,53 C151.895431,53 151,52.1045695 151,51 L151,48 L148,48 C146.895431,48 146,47.1045695 146,46 C146,44.8954305 146.895431,44 148,44 L151,44 L151,41 C151,39.8954305 151.895431,39 153,39 Z" id="形状结合备份-2" fill="#DDDDDD"></path>
                <path d="M115.889087,93.3890873 C116.993657,93.3890873 117.889087,94.2845178 117.889087,95.3890873 L117.889087,100.389087 L117.889087,100.389087 L113.889087,100.389087 L113.889087,95.3890873 C113.889087,94.2845178 114.784518,93.3890873 115.889087,93.3890873 Z" id="矩形_17664" fill="#A9A9A9" fill-rule="nonzero" transform="translate(115.889087, 96.889087) rotate(-45.000000) translate(-115.889087, -96.889087) "></path>
                <path d="M121.363961,96.7071068 L132.67767,108.020815 C133.068194,108.41134 133.068194,109.044505 132.67767,109.435029 L128.435029,113.67767 C128.044505,114.068194 127.41134,114.068194 127.020815,113.67767 L115.707107,102.363961 C115.316582,101.973437 115.316582,101.340272 115.707107,100.949747 L119.949747,96.7071068 C120.340272,96.3165825 120.973437,96.3165825 121.363961,96.7071068 Z M103,67 C112.388841,67 120,74.6111593 120,84 C120,93.3888407 112.388841,101 103,101 C93.6111593,101 86,93.3888407 86,84 C86,74.6111593 93.6111593,67 103,67 Z M103,71 C95.8202983,71 90,76.8202983 90,84 C90,91.1797017 95.8202983,97 103,97 C110.179702,97 116,91.1797017 116,84 C116,76.8202983 110.179702,71 103,71 Z M80,33 C83.2383969,33 85.8775718,35.5655749 85.9958615,38.7750617 L86,39 L97,39 C98.6568542,39 100,40.3431458 100,42 L100,46 L60,46 L60,42 C60,40.3431458 61.3431458,39 63,39 L74,39 C74,35.6862915 76.6862915,33 80,33 Z M80,36 C78.8954305,36 78,36.8954305 78,38 C78,39.1045695 78.8954305,40 80,40 C81.1045695,40 82,39.1045695 82,38 C82,36.8954305 81.1045695,36 80,36 Z" id="形状结合" fill="#BDBDBD"></path>
            </g>
        </g>
    </g>
</svg>