<?xml version="1.0" encoding="UTF-8"?>
<svg width="32px" height="32px" viewBox="0 0 32 32" version="1.1" xmlns="http://www.w3.org/2000/svg" xmlns:xlink="http://www.w3.org/1999/xlink">
    <title>数据服务</title>
    <defs>
        <rect id="path-1" x="0" y="0" width="132" height="70" rx="2"></rect>
    </defs>
    <g id="设计方案" stroke="none" stroke-width="1" fill="none" fill-rule="evenodd">
        <g id="资产清单备份" transform="translate(-872.000000, -41.000000)">
            <g id="数据服务" transform="translate(852.000000, 25.000000)">
                <g id="椭圆形">
                    <mask id="mask-2" fill="white">
                        <use xlink:href="#path-1"></use>
                    </mask>
                    <use id="蒙版" fill-opacity="0.1" fill="#35BAE6" xlink:href="#path-1"></use>
                </g>
                <path d="M50,17 C51.1045695,17 52,17.8954305 52,19 L52,38 C52,39.1045695 51.1045695,40 50,40 L22,40 C20.8954305,40 20,39.1045695 20,38 L20,19 C20,17.8954305 20.8954305,17 22,17 L50,17 Z M50,19 L22,19 L22,38 L50,38 L50,19 Z M27.5,44 L44.5,44 C45.3284271,44 46,44.6715729 46,45.5 C46,46.3284271 45.3284271,47 44.5,47 L27.5,47 C26.6715729,47 26,46.3284271 26,45.5 C26,44.6715729 26.6715729,44 27.5,44 Z M37,39 L37,45 L35,45 L35,39 L37,39 Z M37.2815513,26.1254018 L37.3073064,26.1267319 C37.8771897,26.1857556 38.2174874,26.629879 38.1611553,27.1842503 L38.1429524,27.3046314 L36.2608105,33.2285342 L37.1230862,32.1924253 L37.1987238,32.7577169 C37.2043629,32.7998619 37.2065363,32.8458734 37.2060898,32.8985972 L37.203561,32.9830729 L37.18979,33.2074138 L37.1478833,33.3459677 C36.5433439,34.2539217 36.0364074,34.6616135 35.2109529,34.6583881 C34.6064022,34.5593716 34.261908,34.1116784 34.3547057,33.5956723 L34.3813488,33.4841561 L36.2508105,27.5805342 L35.4145996,28.589506 L35.3352932,28.0303956 L35.3315735,28.0002928 L35.3286975,27.9685463 L35.3245136,27.8222303 L35.3302443,27.5916006 L35.3722721,27.452865 C35.8698097,26.7070288 36.680959,26.1254018 37.2815513,26.1254018 Z M30.7928932,25.2573593 C31.1555229,25.619989 31.181425,26.1918344 30.8705996,26.5843521 L30.7928932,26.6715729 L27.9646171,29.4987368 L30.7928932,32.3284271 C31.1555229,32.6910568 31.181425,33.2629022 30.8705996,33.6554199 L30.7928932,33.7426407 C30.4302635,34.1052704 29.8584181,34.1311725 29.4659005,33.8203471 L29.3786797,33.7426407 L26.1966991,30.5606602 C25.6453707,30.0093318 25.6129396,29.1356019 26.0994059,28.5463439 L26.1966991,28.4393398 L29.3786797,25.2573593 C29.7692039,24.866835 30.4023689,24.866835 30.7928932,25.2573593 Z M42.7056724,25.1796529 L42.7928932,25.2573593 L45.9748737,28.4393398 C46.5262021,28.9906682 46.5586332,29.8643981 46.072167,30.4536561 L45.9748737,30.5606602 L42.7928932,33.7426407 C42.4023689,34.133165 41.7692039,34.133165 41.3786797,33.7426407 C41.01605,33.380011 40.9901478,32.8081656 41.3009733,32.4156479 L41.3786797,32.3284271 L44.2076629,29.5005561 L41.3786797,26.6715729 C41.01605,26.3089432 40.9901478,25.7370978 41.3009733,25.3445801 L41.3786797,25.2573593 C41.7413094,24.8947296 42.3131547,24.8688275 42.7056724,25.1796529 Z M38.1211283,23.5215342 C38.6766839,23.5215342 39.1261221,23.9260286 39.1261221,24.5215342 C39.1261221,25.1182882 38.6766839,25.5215342 38.1211283,25.5215342 C37.5655728,25.5215342 37.1161346,25.1182882 37.1161346,24.5215342 C37.1161346,23.9260286 37.5668212,23.5215342 38.1211283,23.5215342 Z M27,20 C27.5522847,20 28,20.4477153 28,21 C28,21.5522847 27.5522847,22 27,22 C26.4477153,22 26,21.5522847 26,21 C26,20.4477153 26.4477153,20 27,20 Z M24,20 C24.5522847,20 25,20.4477153 25,21 C25,21.5522847 24.5522847,22 24,22 C23.4477153,22 23,21.5522847 23,21 C23,20.4477153 23.4477153,20 24,20 Z" fill="#35BAE6" fill-rule="nonzero"></path>
            </g>
        </g>
    </g>
</svg>