<?xml version="1.0" encoding="UTF-8"?>
<svg width="48px" height="48px" viewBox="0 0 48 48" version="1.1" xmlns="http://www.w3.org/2000/svg" xmlns:xlink="http://www.w3.org/1999/xlink">
    <title>icon/数据资产</title>
    <defs>
        <linearGradient x1="50%" y1="104.533691%" x2="71.6278076%" y2="9.04174805%" id="linearGradient-1">
            <stop stop-color="#A4E0FF" offset="0%"></stop>
            <stop stop-color="#409EFF" stop-opacity="0.368607955" offset="100%"></stop>
        </linearGradient>
        <linearGradient x1="0%" y1="9.6081543%" x2="103.996277%" y2="81.4111328%" id="linearGradient-2">
            <stop stop-color="#F3F9FF" stop-opacity="0.600606425" offset="0%"></stop>
            <stop stop-color="#FFFFFF" stop-opacity="0" offset="100%"></stop>
        </linearGradient>
    </defs>
    <g id="设计方案" stroke="none" stroke-width="1" fill="none" fill-rule="evenodd">
        <g id="数据资产dashboard（交互说明）" transform="translate(-148.000000, -99.000000)">
            <g id="数据资产统计" transform="translate(65.000000, 83.000000)">
                <g id="数据资产总量" transform="translate(67.000000, 10.000000)">
                    <g id="icon/数据资产" transform="translate(16.000000, 6.000000)">
                        <path d="M23.3022295,26.7213203 L36.4544156,39.8735065 L36.4544156,39.8735065 C44.8897403,31.4381818 44.8897403,17.7618182 36.4544156,9.32649353 L23.3022295,22.4786797 L23.3022295,22.4786797 C22.1306566,23.6502525 22.1306566,25.5497475 23.3022295,26.7213203 Z" id="椭圆形" fill="#409EFF"></path>
                        <path d="M24,0.5 C30.4893458,0.5 36.3643458,3.13032709 40.6170094,7.38299064 C44.8696729,11.6356542 47.5,17.5106542 47.5,24 C47.5,30.4893458 44.8696729,36.3643458 40.6170094,40.6170094 C36.3643458,44.8696729 30.4893458,47.5 24,47.5 C17.5106542,47.5 11.6356542,44.8696729 7.38299064,40.6170094 C3.13032709,36.3643458 0.5,30.4893458 0.5,24 C0.5,17.5106542 3.13032709,11.6356542 7.38299064,7.38299064 C11.6356542,3.13032709 17.5106542,0.5 24,0.5 Z M24,11.5 C20.5482203,11.5 17.4232203,12.8991102 15.1611652,15.1611652 C12.8991102,17.4232203 11.5,20.5482203 11.5,24 C11.5,27.4517797 12.8991102,30.5767797 15.1611652,32.8388348 C17.4232203,35.1008898 20.5482203,36.5 24,36.5 C27.4517797,36.5 30.5767797,35.1008898 32.8388348,32.8388348 C35.1008898,30.5767797 36.5,27.4517797 36.5,24 C36.5,20.5482203 35.1008898,17.4232203 32.8388348,15.1611652 C30.5767797,12.8991102 27.4517797,11.5 24,11.5 Z" id="椭圆形" stroke="url(#linearGradient-2)" fill-opacity="0.8" fill="url(#linearGradient-1)" fill-rule="nonzero" transform="translate(24.000000, 24.000000) scale(1, -1) translate(-24.000000, -24.000000) "></path>
                    </g>
                </g>
            </g>
        </g>
    </g>
</svg>