<?xml version="1.0" encoding="UTF-8"?>
<svg width="14px" height="12px" viewBox="0 0 14 12" version="1.1" xmlns="http://www.w3.org/2000/svg" xmlns:xlink="http://www.w3.org/1999/xlink">
    <title>形状结合</title>
    <g id="元数据" stroke="none" stroke-width="1" fill="none" fill-rule="evenodd">
        <g id="1.4-数据集/全部元数据-详情（摘要）备份" transform="translate(-1663.000000, -122.000000)" fill="#999999" fill-rule="nonzero">
            <g id="表" transform="translate(200.000000, 95.000000)">
                <g id="右边" transform="translate(773.000000, 25.000000)">
                    <g id="收藏次数" transform="translate(656.000000, 1.000000)">
                        <path d="M44.3333333,1 C46.3583774,1 48,2.63830417 48,4.65925479 C48,5.74240705 47.5284357,6.7156422 46.7790168,7.38564206 C46.7236682,7.46708994 46.6595754,7.54437247 46.5880545,7.61559306 L41.3528086,12.8288517 C41.1577181,13.0231229 40.8422819,13.0231229 40.6471914,12.8288517 L35.4119455,7.61559306 C35.3382806,7.54223746 35.2732525,7.46349031 35.2168641,7.38061594 L35.1389399,7.31002815 C34.4373105,6.64346448 34,5.70232607 34,4.65925479 C34,2.63830417 35.6416226,1 37.6666667,1 C39.1466882,1 40.4219033,1.87510797 41.0011207,3.13512547 C41.5780967,1.87510797 42.8533118,1 44.3333333,1 Z M44.3333333,2 C43.3417081,2 42.4504708,2.544174 41.9912842,3.38949542 L41.9103308,3.55146293 L41.3658619,4.74049046 C41.2738871,4.94134762 41.0365,5.02961427 40.8356428,4.93763954 C40.7485929,4.89777839 40.6787279,4.82801599 40.6387389,4.7410247 L40.0925233,3.55279853 L40.0925233,3.55279853 C39.6611635,2.61442745 38.7202707,2 37.6666667,2 C36.1934549,2 35,3.1910424 35,4.65925479 C35,5.33045138 35.249495,5.96001103 35.6768324,6.43210567 L35.8102972,6.56889429 L35.9765727,6.71951521 L36.0436337,6.8180752 L36.0781359,6.86388311 L36.1175628,6.90699985 L41,11.769 L45.8824372,6.90699985 C45.8956544,6.89383822 45.9081192,6.88020312 45.9197327,6.86624873 L45.9519205,6.82358184 L46.020953,6.72199739 L46.1125164,6.64013741 C46.6742392,6.13794267 47,5.42588472 47,4.65925479 C47,3.1910424 45.8065451,2 44.3333333,2 Z" id="形状结合"></path>
                    </g>
                </g>
            </g>
        </g>
    </g>
</svg>