<?xml version="1.0" encoding="UTF-8"?>
<svg width="32px" height="32px" viewBox="0 0 32 32" version="1.1" xmlns="http://www.w3.org/2000/svg" xmlns:xlink="http://www.w3.org/1999/xlink">
    <title>数据服务备份</title>
    <defs>
        <rect id="path-1" x="0" y="0" width="132" height="70" rx="2"></rect>
    </defs>
    <g id="设计方案" stroke="none" stroke-width="1" fill="none" fill-rule="evenodd">
        <g id="资产清单备份" transform="translate(-1014.000000, -41.000000)">
            <g id="数据服务备份" transform="translate(994.000000, 25.000000)">
                <g id="椭圆形">
                    <mask id="mask-2" fill="white">
                        <use xlink:href="#path-1"></use>
                    </mask>
                    <use id="蒙版" fill-opacity="0.1" fill="#41C272" xlink:href="#path-1"></use>
                </g>
                <path d="M44,16 L50,22 L50,46 C50,47.1045695 49.1045695,48 48,48 L24,48 C22.8954305,48 22,47.1045695 22,46 L22,18 C22,16.8954305 22.8954305,16 24,16 L44,16 Z M48,42 L24,42 L24,46 L48,46 L48,42 Z M42,18 L24,18 L24,40 L48,40 L48,24 L43,24 C42.4477153,24 42,23.5522847 42,23 L42,18 Z M30.6787852,26.0509033 L32.8227852,34.7389033 L32.8867852,34.7389033 L35.1427852,26.0509033 L37.0787852,26.0509033 L39.3347852,34.7389033 L39.3987852,34.7389033 L41.5427852,26.0509033 L43.6547852,26.0509033 L40.3587852,37.4749033 L38.3747852,37.4749033 L36.1507852,28.8829033 L36.0867852,28.8829033 L33.8467852,37.4749033 L31.8467852,37.4749033 L28.5667852,26.0509033 L30.6787852,26.0509033 Z" id="形状结合" fill="#41C272" fill-rule="nonzero"></path>
                <rect id="矩形" fill-opacity="0.2" fill="#41C272" x="23" y="41" width="26" height="6"></rect>
            </g>
        </g>
    </g>
</svg>