<?xml version="1.0" encoding="UTF-8"?>
<svg width="32px" height="32px" viewBox="0 0 32 32" version="1.1" xmlns="http://www.w3.org/2000/svg" xmlns:xlink="http://www.w3.org/1999/xlink">
    <title>编组 6</title>
    <g id="设计方案" stroke="none" stroke-width="1" fill="none" fill-rule="evenodd">
        <g id="管理/资产目录-摘要信息" transform="translate(-1153.000000, -435.000000)" fill="#3397FF">
            <g id="编组-2" transform="translate(1153.000000, 435.000000)">
                <path d="M3.48366805,8 L3.48350338,14.505 L2.75855167,14.50567 L2.5286318,14.5187987 C1.83707381,14.5982379 1.24576233,15.0317539 0.953503377,15.6436182 L0.954668054,9 C0.954668054,8.44771525 1.4023833,8 1.95466805,8 L3.48366805,8 Z M19.9546681,2 L6.95466805,2 L6.95309765,14.50567 L4.95450338,14.505 L4.95466805,2 C4.95466805,0.8954305 5.85009855,0 6.95466805,0 L19.9546681,0 C21.0592376,0 21.9546681,0.8954305 21.9546681,2 L21.9545034,14.505 L19.9530976,14.50567 L19.9546681,2 Z M28.9546681,8 C29.5069528,8 29.9546681,8.44771525 29.9546681,9 L29.9545034,10.497 L26.1129268,10.4956737 L26.0026356,10.5111662 C25.8965871,10.5415937 25.8059735,10.615153 25.7551559,10.7167882 L25.7551559,10.7167882 L23.8657132,14.50567 L23.4815034,14.505 L23.4816681,8 L28.9546681,8 Z M17.4546681,10 C17.7308104,10 17.9546681,10.2238576 17.9546681,10.5 L17.9546681,11.5 C17.9546681,11.7761424 17.7308104,12 17.4546681,12 L9.45466805,12 C9.17852568,12 8.95466805,11.7761424 8.95466805,11.5 L8.95466805,10.5 C8.95466805,10.2238576 9.17852568,10 9.45466805,10 L17.4546681,10 Z M17.4546681,5 C17.7308104,5 17.9546681,5.22385763 17.9546681,5.5 L17.9546681,6.5 C17.9546681,6.77614237 17.7308104,7 17.4546681,7 L9.45466805,7 C9.17852568,7 8.95466805,6.77614237 8.95466805,6.5 L8.95466805,5.5 C8.95466805,5.22385763 9.17852568,5 9.45466805,5 L17.4546681,5 Z" id="形状结合"></path>
                <path d="M24.5271085,14.999 L26.5274959,10.998 L29.9889358,10.998 C31.0935053,10.998 31.9889358,11.8934305 31.9889358,12.998 C31.9889358,13.0717355 31.9848582,13.1454145 31.9767215,13.2186997 L30.0890248,30.2206997 C29.9765606,31.2336367 29.1204005,32 28.1012392,32 L1.99922748,32 C0.944865681,32 0.0810623541,31.1841222 0.00471321237,30.1492623 L0,29.9465159 L0.004439465,29.8557059 L0.944801787,16.8557059 L0.962034259,16.7006701 C1.10795433,15.7308948 1.94343623,15 2.9395898,15 L24.5271085,14.999 Z M29.9889358,12.998 L27.7641085,12.997 L25.7613744,17 L2.9395898,17 L1.99922748,30 L28.1012392,30 L29.9889358,12.998 Z" id="形状" fill-rule="nonzero"></path>
                <polygon id="路径" fill-opacity="0.2" fill-rule="nonzero" points="29.9889358 12.998 27.7641085 12.997 25.7613744 17 2.9395898 17 1.99922748 30 28.1012392 30"></polygon>
            </g>
        </g>
    </g>
</svg>