<?xml version="1.0" standalone="no"?><!DOCTYPE svg PUBLIC "-//W3C//DTD SVG 1.1//EN" "http://www.w3.org/Graphics/SVG/1.1/DTD/svg11.dtd"><svg t="1695887378878" class="icon" viewBox="0 0 1024 1024" version="1.1" xmlns="http://www.w3.org/2000/svg" p-id="12897" xmlns:xlink="http://www.w3.org/1999/xlink" width="200" height="200"><path d="M512 512m-512 0a512 512 0 1 0 1024 0 512 512 0 1 0-1024 0Z" fill="#EBF5FF" p-id="12898"></path><path d="M734.165333 207.530667a29.866667 29.866667 0 0 1 41.045334 35.925333l-170.666667 554.666667a29.866667 29.866667 0 0 1-55.253333 4.565333l-85.333334-170.666667a29.866667 29.866667 0 1 1 53.418667-26.709333l51.968 103.936 129.066667-419.456-410.666667 189.568 123.434667 24.704a29.866667 29.866667 0 0 1 23.637333 24.618667l0.341333 4.650666v170.666667a29.866667 29.866667 0 1 1-59.733333 0v-146.218667l-189.269333-37.845333c-26.794667-5.333333-32.341333-40.106667-10.752-54.144l4.096-2.261333 554.666666-256z" fill="#409EFF" p-id="12899"></path></svg>