<?xml version="1.0" standalone="no"?>
<!DOCTYPE svg PUBLIC "-//W3C//DTD SVG 1.1//EN" "http://www.w3.org/Graphics/SVG/1.1/DTD/svg11.dtd">
<svg class="icon" width="200px" height="200.00px" viewBox="0 0 1024 1024" version="1.1" xmlns="http://www.w3.org/2000/svg">
  <path d="M512.005813 0C229.229613 0 0 229.229613 0 512.06394s229.229613 511.93606 512.005813 511.93606 511.982562-229.229613 511.982562-511.93606S794.770387 0 512.005813 0z m190.65654 475.804321a24.715598 24.715598 0 0 1-34.876197 0L536.663283 344.716324v393.577876a24.669096 24.669096 0 0 1-49.326566 0V344.716324L356.24872 475.804321a24.660958 24.660958 0 0 1-34.876196-34.876196l172.695298-172.672048a26.192023 26.192023 0 0 1 35.864356 0l172.683673 172.683673a24.715598 24.715598 0 0 1 0 34.864571z" fill="#999999" fill-rule="nonzero"/>
</svg>