<?xml version="1.0" encoding="utf-8"?>
<!-- Generator: Adobe Illustrator 22.1.0, SVG Export Plug-In . SVG Version: 6.00 Build 0)  -->
<svg version="1.1" xmlns="http://www.w3.org/2000/svg" xmlns:xlink="http://www.w3.org/1999/xlink" x="0px" y="0px"
	 viewBox="0 0 40 40" style="enable-background:new 0 0 40 40;" xml:space="preserve">
<style type="text/css">
	.st0{display:none;}
	.st1{fill:#1E1412;}
</style>
<g id="图层_3" class="st0">
</g>
<g id="图层_2">
	<g>
		<path class="st1" d="M33,11.4v14c0,1.1-0.9,2-2,2h-8l-2.7,3.1c-0.1,0.1-0.4,0.1-0.5,0L17,27.4H9c-1.1,0-2-0.9-2-2v-14
			c0-1.1,0.9-2,2-2h22C32.1,9.4,33,10.3,33,11.4z M13,16.4c-1.1,0-2,0.9-2,2s0.9,2,2,2s2-0.9,2-2S14.1,16.4,13,16.4z M20,16.4
			c-1.1,0-2,0.9-2,2s0.9,2,2,2s2-0.9,2-2S21.1,16.4,20,16.4z M27,16.4c-1.1,0-2,0.9-2,2s0.9,2,2,2c1.1,0,2-0.9,2-2
			S28.1,16.4,27,16.4z"/>
	</g>
</g>
</svg>
