<?xml version="1.0" encoding="UTF-8"?>
<svg width="64px" height="56px" viewBox="0 0 64 56" version="1.1" xmlns="http://www.w3.org/2000/svg" xmlns:xlink="http://www.w3.org/1999/xlink">
    <title>插画-目录分类</title>
    <g id="分类分级工具" stroke="none" stroke-width="1" fill="none" fill-rule="evenodd">
        <g id="协同分类分级-待梳理" transform="translate(-1544.000000, -494.000000)">
            <g id="分类操作" transform="translate(1504.000000, 192.000000)">
                <g id="插画-目录分类" transform="translate(40.000000, 302.000000)">
                    <rect id="矩形_17690备份" fill="#409EFF" fill-rule="nonzero" x="54" y="0" width="10" height="32" rx="1"></rect>
                    <rect id="矩形_17690备份-3" fill="#C1D0DE" fill-rule="nonzero" x="54" y="36" width="10" height="20" rx="1"></rect>
                    <polygon id="三角形" fill="#409EFF" transform="translate(48.000000, 16.000000) rotate(90.000000) translate(-48.000000, -16.000000) " points="48 13 53 19 43 19"></polygon>
                    <rect id="矩形_17690" fill="#409EFF" fill-rule="nonzero" opacity="0.1" x="0" y="0" width="42" height="56" rx="2"></rect>
                    <rect id="矩形_17691" fill="#FFFFFF" fill-rule="nonzero" x="4" y="4" width="33" height="48" rx="1"></rect>
                    <g id="编组-3" transform="translate(7.000000, 9.000000)" fill="#409EFF" fill-rule="nonzero">
                        <rect id="矩形_17804" x="0" y="0" width="6" height="3" rx="1.5"></rect>
                        <rect id="矩形_17804备份" opacity="0.4" x="9" y="0" width="18" height="3" rx="1.5"></rect>
                    </g>
                    <g id="编组-3备份" transform="translate(7.000000, 16.000000)" fill="#409EFF" fill-rule="nonzero">
                        <rect id="矩形_17804" x="0" y="0" width="6" height="3" rx="1.5"></rect>
                        <rect id="矩形_17804备份" opacity="0.4" x="9" y="0" width="18" height="3" rx="1.5"></rect>
                    </g>
                    <g id="编组-3备份-4" transform="translate(7.000000, 37.000000)" fill="#409EFF" fill-rule="nonzero">
                        <rect id="矩形_17804" x="0" y="0" width="6" height="3" rx="1.5"></rect>
                        <rect id="矩形_17804备份" opacity="0.4" x="9" y="0" width="18" height="3" rx="1.5"></rect>
                    </g>
                    <g id="编组-3备份-2" transform="translate(7.000000, 23.000000)" fill="#C1D0DE" fill-rule="nonzero">
                        <rect id="矩形_17804" x="0" y="0" width="6" height="3" rx="1.5"></rect>
                        <rect id="矩形_17804备份" opacity="0.4" x="9" y="0" width="18" height="3" rx="1.5"></rect>
                    </g>
                    <g id="编组-3备份-5" transform="translate(7.000000, 44.000000)" fill="#C1D0DE" fill-rule="nonzero">
                        <rect id="矩形_17804" x="0" y="0" width="6" height="3" rx="1.5"></rect>
                        <rect id="矩形_17804备份" opacity="0.4" x="9" y="0" width="18" height="3" rx="1.5"></rect>
                    </g>
                    <g id="编组-3备份-3" transform="translate(7.000000, 30.000000)" fill="#C1D0DE" fill-rule="nonzero">
                        <rect id="矩形_17804" x="0" y="0" width="6" height="3" rx="1.5"></rect>
                        <rect id="矩形_17804备份" opacity="0.4" x="9" y="0" width="18" height="3" rx="1.5"></rect>
                    </g>
                </g>
            </g>
        </g>
    </g>
</svg>