<?xml version="1.0" encoding="UTF-8"?>
<svg width="24px" height="24px" viewBox="0 0 24 24" version="1.1" xmlns="http://www.w3.org/2000/svg" xmlns:xlink="http://www.w3.org/1999/xlink">
    <title>目录权限</title>
    <g id="dam-icon" stroke="none" stroke-width="1" fill="none" fill-rule="evenodd">
        <g id="资产icon" transform="translate(-1292.000000, -816.000000)" fill="#409EFF">
            <g id="目录权限" transform="translate(1292.000000, 816.000000)">
                <circle id="椭圆形" opacity="0.1" cx="12" cy="12" r="12"></circle>
                <g id="编组-23" transform="translate(4.000000, 4.000000)">
                    <path d="M3.1,5.4 L6.7,5.4 C7.08659932,5.4 7.4,5.71340068 7.4,6.1 C7.4,6.48659932 7.08659932,6.8 6.7,6.8 L3.1,6.8 C2.71340068,6.8 2.4,6.48659932 2.4,6.1 C2.4,5.71340068 2.71340068,5.4 3.1,5.4 Z M8.80000001,5.4 L9.39999999,5.4 C9.6209139,5.4 9.8,5.5790861 9.8,5.80000001 L9.8,6.39999999 C9.8,6.6209139 9.6209139,6.8 9.39999999,6.8 L8.80000001,6.8 C8.5790861,6.8 8.4,6.6209139 8.4,6.39999999 L8.4,5.80000001 C8.4,5.5790861 8.5790861,5.4 8.80000001,5.4 Z" id="形状结合" opacity="0.7"></path>
                    <rect id="矩形备份-39" opacity="0.5" x="2.4" y="7.8" width="5" height="1.4" rx="0.7"></rect>
                    <path d="M13.4764183,8.8 C13.8480571,8.8 14.1914655,8.99807621 14.3772848,9.31961524 L15.8571693,11.8803848 C16.0429887,12.2019238 16.0429887,12.5980762 15.8571693,12.9196152 L14.3772848,15.4803848 C14.1914655,15.8019238 13.8480571,16 13.4764183,16 L10.5166494,16 C10.1450106,16 9.80160223,15.8019238 9.61578285,15.4803848 L8.13589838,12.9196152 C7.950079,12.5980762 7.950079,12.2019238 8.13589838,11.8803848 L9.61578285,9.31961524 C9.80160223,8.99807621 10.1450106,8.8 10.5166494,8.8 L13.4764183,8.8 Z M13.4764183,9.83923048 L10.5166494,9.83923048 L9.03676492,12.4 L10.5166494,14.9607695 L13.4764183,14.9607695 L14.9563028,12.4 L13.4764183,9.83923048 Z M12.7657049,10.6696152 C12.9085515,10.6696152 13.0405568,10.7457918 13.1120316,10.8694709 L13.8808692,12.1998556 C13.9524335,12.3236894 13.9524335,12.4763106 13.8808692,12.6001444 L13.1120316,13.9305291 C13.0405568,14.0542082 12.9085515,14.1303848 12.7657049,14.1303848 L11.2273628,14.1303848 C11.0845161,14.1303848 10.9525109,14.0542082 10.881036,13.9305291 L10.1121985,12.6001444 C10.0406342,12.4763106 10.0406342,12.3236894 10.1121985,12.1998556 L10.881036,10.8694709 C10.9525109,10.7457918 11.0845161,10.6696152 11.2273628,10.6696152 L12.7657049,10.6696152 Z M11.7,0 C12.6388841,0 13.4,0.761115925 13.4,1.7 L13.4,7 C13.4,7.38659932 13.0865993,7.7 12.7,7.7 C12.3134007,7.7 12,7.38659932 12,7 L12,1.7 C12,1.53431458 11.8656854,1.4 11.7,1.4 L1.7,1.4 C1.53431458,1.4 1.4,1.53431458 1.4,1.7 L1.4,11.7 C1.4,11.8656854 1.53431458,12 1.7,12 L5.99963379,12 C6.38623311,12 6.69963379,12.3134007 6.69963379,12.7 C6.69963379,13.0865993 6.38623311,13.4 5.99963379,13.4 L1.7,13.4 C0.761115925,13.4 0,12.6388841 0,11.7 L0,1.7 C0,0.761115925 0.761115925,0 1.7,0 L11.7,0 Z M6.7,3 C7.08659932,3 7.4,3.31340068 7.4,3.7 C7.4,4.08659932 7.08659932,4.4 6.7,4.4 L3.1,4.4 C2.71340068,4.4 2.4,4.08659932 2.4,3.7 C2.4,3.31340068 2.71340068,3 3.1,3 L6.7,3 Z M9.4,3 C9.6209139,3 9.8,3.1790861 9.8,3.40000001 L9.8,4 C9.8,4.2209139 9.6209139,4.4 9.4,4.4 L8.80000001,4.4 C8.5790861,4.4 8.4,4.2209139 8.4,4 L8.4,3.40000001 C8.4,3.1790861 8.5790861,3 8.80000001,3 L9.4,3 Z" id="形状" fill-rule="nonzero"></path>
                </g>
            </g>
        </g>
    </g>
</svg>