<?xml version="1.0" encoding="UTF-8"?>
<svg width="16px" height="16px" viewBox="0 0 16 16" version="1.1" xmlns="http://www.w3.org/2000/svg" xmlns:xlink="http://www.w3.org/1999/xlink">
    <title>编组 8</title>
    <g id="1px" stroke="none" stroke-width="1" fill="none" fill-rule="evenodd">
        <g id="light-树备份" transform="translate(-1179.000000, -383.000000)">
            <g id="编组-8" transform="translate(1179.000000, 383.000000)">
                <path d="M4,0 L4,2 L5,2 L5,3 L7,3 L7,4 L5,4 L5,5 L4,5 L4,7 L3,7 L3,5 L2,5 L2,6 L1,6 L1,5 L2,5 L2,4 L0,4 L0,3 L2,3 L2,2 L3,2 L3,0 L4,0 Z M6,5 L6,6 L5,6 L5,5 L6,5 Z M4,3 L3,3 L3,4 L4,4 L4,3 Z M2,1 L2,2 L1,2 L1,1 L2,1 Z M6,1 L6,2 L5,2 L5,1 L6,1 Z" id="形状结合" fill="#539FFD"></path>
                <rect id="矩形备份-20" stroke="#999999" fill-opacity="0.1" fill="#999999" x="5.5" y="7.5" width="10" height="3"></rect>
                <rect id="矩形备份-127" fill-opacity="0.495375093" fill="#539FFD" x="8" y="2" width="8" height="4"></rect>
                <rect id="矩形备份-142" stroke="#999999" fill-opacity="0.1" fill="#999999" x="1.5" y="12.5" width="14" height="3"></rect>
                <rect id="矩形备份-141" fill="#539FFD" x="15" y="3" width="1" height="2"></rect>
                <rect id="矩形备份-130" fill="#539FFD" x="8" y="2" width="8" height="1"></rect>
                <rect id="矩形备份-139" fill="#539FFD" x="8" y="5" width="8" height="1"></rect>
            </g>
        </g>
    </g>
</svg>