<?xml version="1.0" encoding="UTF-8"?>
<svg width="16px" height="16px" viewBox="0 0 16 16" version="1.1" xmlns="http://www.w3.org/2000/svg" xmlns:xlink="http://www.w3.org/1999/xlink">
    <title>编组 3</title>
    <g id="1px" stroke="none" stroke-width="1" fill="none" fill-rule="evenodd">
        <g id="light-树备份" transform="translate(-1179.000000, -409.000000)">
            <g id="编组-3" transform="translate(1179.000000, 409.000000)">
                <path d="M9,8 L12,10.5 L9,13 L9,8 Z M5.5,4 L8,7 L3,7 L5.5,4 Z" id="形状结合" fill="#999999"></path>
                <path d="M16,12 L16,16 L12,16 L12,15 L15,15 L15,12 L16,12 Z M10,15 L10,16 L6,16 L6,15 L10,15 Z M1,6 L1,10 L0,10 L0,6 L1,6 Z M16,6 L16,10 L15,10 L15,6 L16,6 Z M4,0 L4,1 L1,1 L1,4 L0,4 L0,0 L4,0 Z M16,0 L16,4 L15,4 L15,1 L12,1 L12,0 L16,0 Z M10,0 L10,1 L6,1 L6,0 L10,0 Z" id="形状结合" fill="#999999" opacity="0.704924084"></path>
                <rect id="矩形备份" fill="#539FFD" x="0" y="8" width="8" height="8"></rect>
            </g>
        </g>
    </g>
</svg>