<?xml version="1.0" encoding="UTF-8"?>
<svg width="24px" height="24px" viewBox="0 0 24 24" version="1.1" xmlns="http://www.w3.org/2000/svg" xmlns:xlink="http://www.w3.org/1999/xlink">
    <title>自动映射</title>
    <g id="模型编辑" stroke="none" stroke-width="1" fill="none" fill-rule="evenodd">
        <g id="Icon备份">
            <path d="M7,0 L7,7 L0,7 L0,0 L7,0 Z M6,1 L1,1 L1,6 L6,6 L6,1 Z M7,16 L7,23 L0,23 L0,16 L7,16 Z M6,17 L1,17 L1,22 L6,22 L6,17 Z" id="形状结合" fill="#999999" fill-rule="nonzero"></path>
            <path d="M24,8 L24,15 L17,15 L17,8 L24,8 Z M23,9 L18,9 L18,14 L23,14 L23,9 Z M24,16 L24,23 L17,23 L17,16 L24,16 Z M23,17 L18,17 L18,22 L23,22 L23,17 Z" id="形状结合" fill="#999999" fill-rule="nonzero"></path>
            <rect id="矩形备份-8" fill-opacity="0.2" fill="#409EFF" x="17" y="0" width="7" height="7"></rect>
            <path d="M24,0 L24,7 L17,7 L17,3.5 L14.5,3.5 L14.5,12 L11,12 L11,13.5 L8,11.5 L11,9.5 L11,11 L13.5,11 L13.5,2.5 L17,2.5 L17,0 L24,0 Z M18,6 L23,6 L23,1 L18,1 L18,6 Z M7,8 L7,15 L0,15 L0,8 L7,8 Z M6,9 L1,9 L1,14 L6,14 L6,9 Z" id="形状结合" fill="#409EFF" fill-rule="nonzero"></path>
            <rect id="矩形备份-6" fill-opacity="0.2" fill="#409EFF" x="0" y="8" width="7" height="7"></rect>
        </g>
    </g>
</svg>