<?xml version="1.0" encoding="UTF-8"?>
<svg width="20px" height="20px" viewBox="0 0 20 20" version="1.1" xmlns="http://www.w3.org/2000/svg" xmlns:xlink="http://www.w3.org/1999/xlink">
    <title>编组 10</title>
    <g id="6.1-设计方案" stroke="none" stroke-width="1" fill="none" fill-rule="evenodd">
        <g id="1、主视觉-1" transform="translate(-1047.000000, -37.000000)">
            <g id="操作工具栏" transform="translate(0.000000, 30.000000)">
                <g id="工具栏" transform="translate(20.000000, 6.000000)">
                    <g id="字体" transform="translate(730.000000, 0.000000)">
                        <g id="编组-10" transform="translate(297.000000, 0.996000)">
                            <polygon id="路径-2" fill="#D8D8D8" points="5.904 15.8535534 10.9304893 15.8535534 15.9257285 10.8535534 0.915129279 10.8535534"></polygon>
                            <path d="M11.1475984,0.2971782 L18.7096091,7.89478081 C19.09939,8.28639629 19.0964012,8.91688064 18.7029277,9.30484739 L9.16465786,18.7094759 C8.77146948,19.0971556 8.13627764,19.0967953 7.74353661,18.70867 L0.296257478,11.2435303 C-0.0967435219,10.8551458 -0.0990355362,10.2247108 0.29113238,9.83352709 L9.71465569,0.296422996 C10.0779175,-0.0677628718 10.6537447,-0.0967542368 11.0508026,0.211578589 L11.1475984,0.2971782 Z M17.9927723,8.59648608 L10.4307616,0.998883472 L0.909574172,10.5448582 L8.45450546,18.0011177 L17.9927723,8.59648608 Z" id="形状" fill="#979797" fill-rule="nonzero"></path>
                            <polygon id="矩形" fill="#979797" fill-rule="nonzero" points="19 8.36728571 19 17.8535534 18 17.8535534 18 8.36728571"></polygon>
                            <rect id="矩形备份-7" fill="#DDDDDD" x="0" y="14" width="20" height="6" rx="1"></rect>
                            <path d="M19,14 C19.5522847,14 20,14.4477153 20,15 L20,19 C20,19.5522847 19.5522847,20 19,20 L1,20 C0.44771525,20 0,19.5522847 0,19 L0,15 C0,14.4477153 0.44771525,14 1,14 L19,14 Z M19,15 L1,15 L1,19 L19,19 L19,15 Z" id="矩形" fill="#999999" fill-rule="nonzero"></path>
                        </g>
                    </g>
                </g>
            </g>
        </g>
    </g>
</svg>