<?xml version="1.0" encoding="UTF-8"?>
<svg width="16px" height="16px" viewBox="0 0 16 16" version="1.1" xmlns="http://www.w3.org/2000/svg" xmlns:xlink="http://www.w3.org/1999/xlink">
    <title>备注</title>
    <g id="页面-1" stroke="none" stroke-width="1" fill="none" fill-rule="evenodd">
        <g id="web-er" transform="translate(-504.000000, -391.000000)">
            <g id="编组-10" transform="translate(488.000000, 264.000000)">
                <g id="备注" transform="translate(16.000000, 127.000000)">
                    <path d="M5.5,6 L5.5,5 L10.5,5 L10.5,6 L8.5,6 L8.5,11 L7.5,11 L7.5,6 L5.5,6 Z" id="形状结合" fill="#539FFD"></path>
                    <path d="M16,13 L16,16 L13,16 L13,15 L3,15 L3,16 L0,16 L0,13 L1,13 L1,3 L0,3 L0,0 L3,0 L3,1 L13,1 L13,0 L16,0 L16,3 L15,3 L15,13 L16,13 Z M14,3 L13,3 L13,2 L3,2 L3,3 L2,3 L2,13 L3,13 L3,14 L13,14 L13,13 L14,13 L14,3 Z" id="形状结合" fill="#A0AAB9"></path>
                </g>
            </g>
        </g>
    </g>
</svg>