<?xml version="1.0" encoding="UTF-8"?>
<svg width="16px" height="16px" viewBox="0 0 16 16" version="1.1" xmlns="http://www.w3.org/2000/svg" xmlns:xlink="http://www.w3.org/1999/xlink">
    <title>形状结合</title>
    <g id="6.1-设计方案" stroke="none" stroke-width="1" fill="none" fill-rule="evenodd">
        <g id="IOCN" transform="translate(-1257.000000, -417.000000)" fill="#539FFD">
            <g id="编组-4" transform="translate(1248.000000, 308.000000)">
                <g id="编组" transform="translate(0.000000, 104.000000)">
                    <path d="M22,20 L22,9 L23,9 L23,21 L11,21 L11,9 L12,9 L12,20 L22,20 Z M15,11 L15,18 L14,18 L14,11 L15,11 Z M17.5,11 L17.5,18 L16.5,18 L16.5,11 L17.5,11 Z M20,11 L20,18 L19,18 L19,11 L20,11 Z M20,5 L20,7 L25,7 L25,8 L9,8 L9,7 L14,7 L14,5 L20,5 Z" id="形状结合"></path>
                </g>
            </g>
        </g>
    </g>
</svg>