<?xml version="1.0" encoding="UTF-8"?>
<svg width="16px" height="16px" viewBox="0 0 16 16" version="1.1" xmlns="http://www.w3.org/2000/svg" xmlns:xlink="http://www.w3.org/1999/xlink">
    <title>树-主题-主</title>
    <g id="设计方案" stroke="none" stroke-width="1" fill="none" fill-rule="evenodd">
        <g id="树-主题-主">
            <path d="M1,8 L1,7 L0,7 L0,5 L1,5 L1,4 L2,4 L2,3 L3,3 L3,2 L4,2 L4,1 L5,1 L5,0 L6,0 L6,1 L7,1 L7,2 L8,2 L8,3 L9,3 L9,4 L10,4 L10,5 L9,5 L9,6 L8,6 L8,7 L7,7 L7,8 L6,8 L6,9 L5,9 L5,10 L3,10 L3,9 L2,9 L2,8 L1,8 Z" id="形状结合" fill="#539FFD"></path>
            <path d="M11,11 L11,10 L10,10 L10,9 L9,9 L9,8 L8,8 L8,7 L9,7 L9,6 L10,6 L10,5 L11,5 L11,4 L12,4 L12,5 L13,5 L13,6 L14,6 L14,7 L15,7 L15,8 L16,8 L16,9 L15,9 L15,10 L14,10 L14,11 L13,11 L13,12 L12,12 L12,11 L11,11 Z" id="形状结合" fill="#72D8A9"></path>
            <path d="M5,15 L5,14 L4,14 L4,13 L3,13 L3,12 L4,12 L4,11 L5,11 L5,10 L6,10 L6,9 L7,9 L7,8 L8,8 L8,9 L9,9 L9,10 L10,10 L10,11 L11,11 L11,12 L10,12 L10,13 L9,13 L9,14 L8,14 L8,15 L7,15 L7,16 L6,16 L6,15 L5,15 Z" id="形状结合" fill="#F4D86A"></path>
        </g>
    </g>
</svg>