<?xml version="1.0" encoding="UTF-8"?>
<svg width="16px" height="16px" viewBox="0 0 16 16" version="1.1" xmlns="http://www.w3.org/2000/svg" xmlns:xlink="http://www.w3.org/1999/xlink">
    <title>icon/编辑备份</title>
    <g id="设计方案" stroke="none" stroke-width="1" fill="none" fill-rule="evenodd">
        <g id="一、编辑表-历史纪录" transform="translate(-1810.000000, -377.000000)" fill="#409EFF" fill-rule="nonzero">
            <g id="收起-字段信息" transform="translate(1320.000000, 50.000000)">
                <g id="Content-表" transform="translate(0.000000, 50.000000)">
                    <g id="字段" transform="translate(20.000000, 146.000000)">
                        <g id="列表" transform="translate(0.000000, 73.000000)">
                            <g id="列表1备份-28" transform="translate(0.000000, 44.000000)">
                                <g id="操作" transform="translate(470.000000, 14.000000)">
                                    <path d="M15.4444446,14.8888893 C15.7512694,14.8888893 16,15.1376199 16,15.4444446 C16,15.7512694 15.7512694,16 15.4444446,16 L15.4444446,16 L0.555555353,16 C0.248730604,16 -7.81221257e-14,15.7512694 -7.81597009e-14,15.4444446 C-7.81972761e-14,15.1376199 0.248730604,14.8888893 0.555555353,14.8888893 L0.555555353,14.8888893 Z M9.86487618,2.75910121 L11.4811202,4.37534529 C11.9274337,4.82165876 11.9274337,5.54527588 11.4811202,5.99158936 L4.37296672,13.0997429 C4.05387976,13.4188298 3.6474821,13.6363273 3.2049881,13.7248261 L0.683494934,14.2291247 C0.374032218,14.2910172 0.0729893,14.090322 0.0110967567,13.7808593 C-0.00369891892,13.7068809 -0.00369891892,13.6307049 0.0110967567,13.5567265 L0.51539539,11.0352334 C0.60389419,10.5927394 0.821391615,10.1863417 1.14047858,9.86725474 L8.2486321,2.75910121 C8.69494558,2.31278774 9.4185627,2.31278774 9.86487618,2.75910121 Z M9.05675414,3.56722325 L1.94860061,10.6753768 C1.82096583,10.8030116 1.7258397,10.9585858 1.67023894,11.1289885 L1.63605902,11.2593661 L1.30004124,12.9401802 L2.98085537,12.6041624 C3.15785298,12.5687629 3.32329975,12.4920838 3.46408481,12.3811419 L3.56484468,12.2916208 L10.6729982,5.18346732 L9.05675414,3.56722325 Z M12.2892423,0.334735107 L13.9054864,1.95097918 C14.3517998,2.39729265 14.3517998,3.12090977 13.9054864,3.56722325 C13.4591729,4.01353673 12.7355558,4.01353673 12.2892423,3.56722325 L10.6729982,1.95097918 C10.2266847,1.5046657 10.2266847,0.781048584 10.6729982,0.334735107 C11.1193117,-0.111578369 11.8429288,-0.111578369 12.2892423,0.334735107 Z" id="icon/编辑备份"></path>
                                </g>
                            </g>
                        </g>
                    </g>
                </g>
            </g>
        </g>
    </g>
</svg>