<?xml version="1.0" encoding="UTF-8"?>
<svg width="16px" height="16px" viewBox="0 0 16 16" version="1.1" xmlns="http://www.w3.org/2000/svg" xmlns:xlink="http://www.w3.org/1999/xlink">
    <title>图框icon</title>
    <g id="1px" stroke="none" stroke-width="1" fill="none" fill-rule="evenodd">
        <g id="light-树备份" transform="translate(-973.000000, -536.000000)">
            <g id="编组-4备份" transform="translate(963.000000, 504.000000)">
                <g id="2" transform="translate(0.000000, 27.000000)">
                    <g id="图框icon" transform="translate(10.000000, 5.000000)">
                        <rect id="矩形" fill="#539FFD" x="5" y="5" width="6" height="6"></rect>
                        <path d="M3,13 L3,14 L13,14 L13,13 L14,13 L14,3 L13,3 L13,2 L3,2 L3,3 L2,3 L2,13 L3,13 Z M3,16 L0,16 L0,13 L1,13 L1,3 L0,3 L0,0 L3,0 L3,1 L13,1 L13,0 L16,0 L16,3 L15,3 L15,13 L16,13 L16,16 L13,16 L13,15 L3,15 L3,16 Z" id="形状结合" fill="#999999"></path>
                    </g>
                </g>
            </g>
        </g>
    </g>
</svg>