<?xml version="1.0" encoding="UTF-8"?>
<svg width="14px" height="14px" viewBox="0 0 14 14" version="1.1" xmlns="http://www.w3.org/2000/svg" xmlns:xlink="http://www.w3.org/1999/xlink">
    <title>icon/编辑备份</title>
    <g id="设计方案" stroke="none" stroke-width="1" fill="none" fill-rule="evenodd">
        <g id="菜单" transform="translate(-1667.000000, -172.000000)" fill="#999999" fill-rule="nonzero">
            <g id="Hover备份" transform="translate(1656.000000, 158.000000)">
                <path d="M24.5138891,27.0277781 C24.7823607,27.0277781 25,27.2454174 25,27.5138891 C25,27.7823607 24.7823607,28 24.5138891,28 L24.5138891,28 L11.4861109,28 C11.2176393,28 11,27.7823607 11,27.5138891 C11,27.2454174 11.2176393,27.0277781 11.4861109,27.0277781 L11.4861109,27.0277781 Z M19.6317667,16.4142136 L21.0459802,17.8284271 C21.4365045,18.2189514 21.4365045,18.8521164 21.0459802,19.2426407 L14.8263459,25.462275 C14.5471448,25.7414761 14.1915468,25.9317864 13.8043646,26.0092228 L11.5980581,26.4504841 C11.3272782,26.5046401 11.0638656,26.3290317 11.0097097,26.0582518 C10.9967634,25.9935208 10.9967634,25.9268668 11.0097097,25.8621357 L11.450971,23.6558292 C11.5284074,23.2686469 11.7187177,22.913049 11.9979188,22.6338479 L18.2175531,16.4142136 C18.6080774,16.0236893 19.2412424,16.0236893 19.6317667,16.4142136 Z M18.9246599,17.1213203 L12.7050255,23.3409547 C12.5933451,23.4526351 12.5101097,23.5887625 12.4614591,23.737865 L12.4315516,23.8519453 L12.1375361,25.3226577 L13.6082485,25.0286421 C13.7631214,24.9976676 13.9078873,24.9305734 14.0310742,24.8334992 L14.1192391,24.7551682 L20.3388734,18.5355339 L18.9246599,17.1213203 Z M21.753087,14.2928932 L23.1673006,15.7071068 C23.5578249,16.0976311 23.5578249,16.7307961 23.1673006,17.1213203 C22.7767763,17.5118446 22.1436113,17.5118446 21.753087,17.1213203 L20.3388734,15.7071068 C19.9483491,15.3165825 19.9483491,14.6834175 20.3388734,14.2928932 C20.7293977,13.9023689 21.3625627,13.9023689 21.753087,14.2928932 Z" id="icon/编辑备份"></path>
            </g>
        </g>
    </g>
</svg>