<?xml version="1.0" encoding="UTF-8"?>
<svg width="14px" height="14px" viewBox="0 0 14 14" version="1.1" xmlns="http://www.w3.org/2000/svg" xmlns:xlink="http://www.w3.org/1999/xlink">
    <title>缩小</title>
    <g id="页面-1" stroke="none" stroke-width="1" fill="none" fill-rule="evenodd">
        <g id="Icon(16*16)备份" transform="translate(-538.000000, -129.000000)" fill="#999999" fill-rule="nonzero">
            <path d="M542.410905,137.584998 C542.658663,137.584998 542.885377,137.675099 543.060067,137.824323 L543.119942,137.875761 L543.161937,137.924713 C543.316913,138.10085 543.410905,138.331947 543.410905,138.584998 L543.410905,141.459998 C543.410905,141.73614 543.187047,141.959998 542.910905,141.959998 C542.634762,141.959998 542.410905,141.73614 542.410905,141.459998 L542.410905,139.295 L538.8792,142.827407 C538.705835,143.001175 538.436433,143.020586 538.241511,142.885672 L538.172239,142.827553 C537.97718,142.632202 537.977115,142.315732 538.172093,142.1203 L541.705905,138.585 L539.536405,138.584998 C539.260262,138.584998 539.036405,138.36114 539.036405,138.084998 C539.036405,137.808855 539.260262,137.584998 539.536405,137.584998 L542.410905,137.584998 Z M550.46178,137.586105 C550.737922,137.586105 550.96178,137.809963 550.96178,138.086105 C550.96178,138.362248 550.737922,138.586105 550.46178,138.586105 L548.292,138.587 L551.827407,142.1208 C552.001175,142.294165 552.020586,142.563567 551.885672,142.758489 L551.827553,142.827761 C551.632202,143.02282 551.315732,143.022885 551.1203,142.827907 L547.587,139.298 L547.58628,141.461105 C547.58628,141.737248 547.362422,141.961105 547.08628,141.961105 C546.810137,141.961105 546.58628,141.737248 546.58628,141.461105 L546.58628,138.586105 C546.58628,138.327763 546.684244,138.092301 546.84505,137.914842 L546.875761,137.880058 L546.896615,137.861974 C547.076037,137.69104 547.318904,137.586105 547.58628,137.586105 L550.46178,137.586105 Z M538.8797,129.172093 L542.416101,132.706055 L542.416101,130.540055 C542.416101,130.263912 542.639959,130.040055 542.916101,130.040055 C543.192244,130.040055 543.416101,130.263912 543.416101,130.540055 L543.416101,133.415055 C543.416101,133.967339 542.968386,134.415055 542.416101,134.415055 L539.541101,134.415055 C539.264959,134.415055 539.041101,134.191197 539.041101,133.915055 C539.041101,133.638912 539.264959,133.415055 539.541101,133.415055 L541.711101,133.415055 L538.172593,129.8792 C537.998825,129.705835 537.979414,129.436433 538.114328,129.241511 L538.172447,129.172239 C538.367798,128.97718 538.684268,128.977115 538.8797,129.172093 Z M551.758489,129.114328 L551.827761,129.172447 C552.02282,129.367798 552.022885,129.684268 551.827907,129.8797 L548.297,133.414819 L550.456955,133.414819 C550.733098,133.414819 550.956955,133.638677 550.956955,133.914819 C550.956955,134.190962 550.733098,134.414819 550.456955,134.414819 L547.581955,134.414819 C547.02967,134.414819 546.581955,133.967104 546.581955,133.414819 L546.581955,130.539819 C546.581955,130.263677 546.805813,130.039819 547.081955,130.039819 C547.358098,130.039819 547.581955,130.263677 547.581955,130.539819 L547.582,132.714819 L551.1208,129.172593 C551.294165,128.998825 551.563567,128.979414 551.758489,129.114328 Z" id="缩小"></path>
        </g>
    </g>
</svg>