<?xml version="1.0" encoding="UTF-8"?>
<svg width="24px" height="24px" viewBox="0 0 24 24" version="1.1" xmlns="http://www.w3.org/2000/svg" xmlns:xlink="http://www.w3.org/1999/xlink">
    <title>多对多</title>
    <g id="设计方案" stroke="none" stroke-width="1" fill="none" fill-rule="evenodd">
        <g id="多对多">
            <path d="M9,21 L9,4 L6,4 L6,3 L10,3 L10,12 L14,12 L14,3 L18,3 L18,4 L15,4 L15,21 L18,21 L18,22 L14,22 L14,13 L10,13 L10,22 L6,22 L6,21 L9,21 Z" id="形状结合" fill="#999999"></path>
            <rect id="矩形" fill="#539FFD" x="0" y="0" width="6" height="6"></rect>
            <rect id="矩形备份-58" fill="#539FFD" x="0" y="18" width="6" height="6"></rect>
            <rect id="矩形备份-83" stroke="#666666" x="18.5" y="18.5" width="5" height="5"></rect>
            <rect id="矩形备份-111" stroke="#666666" x="18.5" y="0.5" width="5" height="5"></rect>
        </g>
    </g>
</svg>