<?xml version="1.0" encoding="UTF-8"?>
<svg width="20px" height="19px" viewBox="0 0 20 19" version="1.1" xmlns="http://www.w3.org/2000/svg" xmlns:xlink="http://www.w3.org/1999/xlink">
    <title>Mutiple</title>
    <g id="页面-1" stroke="none" stroke-width="1" fill="none" fill-rule="evenodd">
        <g id="Mutiple" fill="#C6D0E0" fill-rule="nonzero">
            <polygon id="形状结合" points="7.5 16.2105263 7.5 2.78947368 5 2.78947368 5 2 8.33333333 2 8.33333333 9.10526316 11.6666667 9.10526316 11.6666667 2 15 2 15 2.78947368 12.5 2.78947368 12.5 16.2105263 15 16.2105263 15 17 11.6666667 17 11.6666667 9.89473684 8.33333333 9.89473684 8.33333333 17 5 17 5 16.2105263"></polygon>
            <rect id="矩形" x="0" y="0" width="5" height="5"></rect>
            <rect id="矩形备份-58" x="0" y="14" width="5" height="5"></rect>
            <path d="M20,14 L20,19 L15,19 L15,14 L20,14 Z M19,15 L16,15 L16,18 L19,18 L19,15 Z" id="矩形备份-83"></path>
            <path d="M20,0 L20,5 L15,5 L15,0 L20,0 Z M19,1 L16,1 L16,4 L19,4 L19,1 Z" id="矩形备份-111"></path>
        </g>
    </g>
</svg>