<?xml version="1.0" encoding="UTF-8"?>
<svg width="20px" height="20px" viewBox="0 0 20 20" version="1.1" xmlns="http://www.w3.org/2000/svg" xmlns:xlink="http://www.w3.org/1999/xlink">
    <title>命名设置</title>
    <g id="页面-1" stroke="none" stroke-width="1" fill="none" fill-rule="evenodd">
        <g id="light-tab" transform="translate(-824.000000, -70.000000)" fill-rule="nonzero">
            <g id="命名设置" transform="translate(824.000000, 70.000000)">
                <path d="M19.5,0 C19.7454599,0 19.9496084,0.176875161 19.9919443,0.410124368 L20,0.5 L20,9.00778198 C20,9.28392436 19.7761424,9.50778198 19.5,9.50778198 C19.2545401,9.50778198 19.0503916,9.33090682 19.0080557,9.09765761 L19,9.00778198 L19,1 L1,1 L1,19 L7.99887085,19 C8.24433074,19 8.44847922,19.1768752 8.49081518,19.4101244 L8.49887085,19.5 C8.49887085,19.7454599 8.32199569,19.9496084 8.08874648,19.9919443 L7.99887085,20 L0.5,20 C0.254540111,20 0.0503916296,19.8231248 0.00805566941,19.5898756 L0,19.5 L0,0.5 C0,0.254540111 0.176875161,0.0503916296 0.410124368,0.00805566941 L0.5,0 L19.5,0 Z M7.62049861,3 L11,11 L9.40443213,11 L8.67313019,9.16949153 L5.27146814,9.16949153 L4.56232687,11 L3,11 L6.41274238,3 L7.62049861,3 Z M6.97783934,4.69491525 L5.74792244,7.94915254 L8.18559557,7.94915254 L6.97783934,4.69491525 Z" id="形状结合" fill="#A0AAB9"></path>
                <path d="M15.4225012,10 L14.5787059,10 C14.4084983,10 14.2612265,10.1207146 14.2286335,10.2873008 L14.01014,11.3761468 C13.98479,11.4992757 13.8978754,11.5994689 13.7807822,11.6429261 C13.6817962,11.6791405 13.5852245,11.7189763 13.48986,11.7648479 C13.4415741,11.7865765 13.3896668,11.798648 13.3353452,11.798648 C13.2653308,11.798648 13.1953163,11.7781265 13.1385804,11.7382907 L12.2139063,11.1214389 C12.0714631,11.0272815 11.8831482,11.0453887 11.7636408,11.1661033 L11.1673105,11.7624336 C11.0465958,11.8831482 11.0272815,12.0714631 11.1226461,12.2126992 L11.7394978,13.1373732 C11.8083052,13.242395 11.8191695,13.3751811 11.7648479,13.4886528 C11.7201835,13.5840174 11.6803477,13.6805891 11.6429261,13.7795751 C11.600676,13.8966683 11.4992757,13.98479 11.3761468,14.0089329 L10.2873008,14.2286335 C10.1207146,14.2624336 10,14.4084983 10,14.5787059 L10,15.4225012 C10,15.5927088 10.1207146,15.7399807 10.2873008,15.7725736 L11.3761468,15.9910671 C11.4992757,16.0164172 11.5994689,16.1033317 11.6429261,16.2204249 C11.6791405,16.3194109 11.7189763,16.4171898 11.7648479,16.5113472 C11.8179623,16.6248189 11.8095123,16.757605 11.7394978,16.8626268 L11.1226461,17.7873008 C11.0284887,17.9285369 11.0465958,18.1180589 11.1673105,18.2375664 L11.7636408,18.8338967 C11.8843554,18.9546113 12.0726702,18.9739256 12.2139063,18.8785611 L13.1385804,18.2617093 C13.1977306,18.2230806 13.2665379,18.201352 13.3353452,18.201352 C13.3884597,18.201352 13.4415741,18.2134235 13.48986,18.2351521 C13.5852245,18.2798165 13.6817962,18.3196523 13.7807822,18.3570739 C13.8978754,18.4005311 13.9859971,18.5007243 14.01014,18.6238532 L14.2286335,19.7126992 C14.2624336,19.8792854 14.4084983,20 14.5787059,20 L15.4225012,20 C15.5927088,20 15.7399807,19.8792854 15.7725736,19.7126992 L15.9910671,18.6238532 C16.0164172,18.5007243 16.1033317,18.4005311 16.2204249,18.3570739 C16.3194109,18.3208595 16.4171898,18.2810237 16.5113472,18.2351521 C16.559633,18.2134235 16.6115403,18.201352 16.6658619,18.201352 C16.7358764,18.201352 16.8058909,18.2218735 16.8626268,18.2617093 L17.7873008,18.8785611 C17.9285369,18.9727185 18.1180589,18.9546113 18.2375664,18.8338967 L18.8338967,18.2375664 C18.9546113,18.1168518 18.9739256,17.9285369 18.8785611,17.7873008 L18.2617093,16.8626268 C18.192902,16.757605 18.1820377,16.6248189 18.2351521,16.5113472 C18.2798165,16.4159826 18.3196523,16.3194109 18.3570739,16.2204249 C18.4005311,16.1033317 18.5007243,16.01521 18.6238532,15.9910671 L19.7126992,15.7725736 C19.8792854,15.7387735 20,15.5927088 20,15.4225012 L20,14.5787059 C20,14.4084983 19.8792854,14.2612265 19.7126992,14.2286335 L18.6250604,14.01014 C18.5019314,13.98479 18.4017383,13.8978754 18.358281,13.7807822 C18.3220666,13.6817962 18.2822308,13.5852245 18.2363592,13.48986 C18.1832448,13.3763882 18.1916948,13.2436021 18.2629165,13.1385804 L18.8797682,12.2139063 C18.9739256,12.0714631 18.9558184,11.8831482 18.8351038,11.7636408 L18.2387735,11.1661033 C18.1180589,11.0453887 17.9297441,11.0260744 17.788508,11.1214389 L16.8638339,11.7382907 C16.8046837,11.7769194 16.7358764,11.798648 16.667069,11.798648 C16.6139546,11.798648 16.5608402,11.7865765 16.5125543,11.7648479 C16.4171898,11.7201835 16.3206181,11.6803477 16.2216321,11.6429261 C16.1045389,11.600676 16.0164172,11.4992757 15.9922743,11.3761468 L15.7737808,10.2873008 C15.7399807,10.1207146 15.5927088,10 15.4225012,10 Z M14.9992769,17.5 C13.8068199,17.5 12.7804903,16.6580737 12.5481935,15.4881137 C12.3158967,14.3181538 12.9409863,13.1481938 14.0433403,12.6906282 C15.1442865,12.2344705 16.4155836,12.6188256 17.0786855,13.609983 C17.7403794,14.6011405 17.6122642,15.923153 16.7675485,16.7664816 C16.2987313,17.2381261 15.6637866,17.5014023 14.9992769,17.5 L14.9992769,17.5 Z" id="形状" fill="#539FFD"></path>
            </g>
        </g>
    </g>
</svg>