<?xml version="1.0" encoding="UTF-8"?>
<svg width="20px" height="20px" viewBox="0 0 20 20" version="1.1" xmlns="http://www.w3.org/2000/svg" xmlns:xlink="http://www.w3.org/1999/xlink">
    <title>恢复</title>
    <g id="页面-1" stroke="none" stroke-width="1" fill="none" fill-rule="evenodd">
        <g id="light-tab" transform="translate(-163.000000, -70.000000)" fill="#A0AAB9">
            <g id="恢复" transform="translate(163.000000, 70.000000)">
                <path d="M7,10.739785 C7,11.4357825 6.48734931,12 5.85496264,12 C5.64036006,12 5.43007667,11.9336252 5.24809405,11.8084452 L0.538322043,8.56874452 C0.00205921625,8.19986657 -0.160963377,7.42237645 0.17420089,6.83217173 C0.266354307,6.66989494 0.390876576,6.53284716 0.538322043,6.43142417 L5.24809405,3.1917235 C5.78435687,2.82284555 6.49078811,3.00226635 6.82595238,3.59247107 C6.93969152,3.79275906 7,4.02419454 7,4.26038368 L7,7 L15,7 C17.7614237,7 20,9.23857625 20,12 C20,14.6887547 17.8776933,16.8818181 15.2168896,16.9953805 L15,17 L8.05358887,17 C7.77744649,17 7.55358887,16.7761424 7.55358887,16.5 C7.55358887,16.2545401 7.73046403,16.0503916 7.96371323,16.0080557 L8.05358887,16 L15,16 C17.209139,16 19,14.209139 19,12 C19,9.85780461 17.3160315,8.10892112 15.1996403,8.00489531 L15,8 L7,8 L7,10.739785 Z" id="形状结合" transform="translate(10.000000, 10.000000) scale(-1, 1) translate(-10.000000, -10.000000) "></path>
            </g>
        </g>
    </g>
</svg>