<?xml version="1.0" encoding="UTF-8"?>
<svg width="16px" height="16px" viewBox="0 0 16 16" version="1.1" xmlns="http://www.w3.org/2000/svg" xmlns:xlink="http://www.w3.org/1999/xlink">
    <title>分区编辑</title>
    <g id="模型编辑" stroke="none" stroke-width="1" fill="none" fill-rule="evenodd">
        <g id="表编辑-分区编辑" transform="translate(-940.000000, -634.000000)" fill="#409EFF">
            <g id="编组-9" transform="translate(856.000000, 590.000000)">
                <g id="分区设计器" transform="translate(80.000000, 40.000000)">
                    <g id="分区编辑" transform="translate(4.000000, 4.000000)">
                        <path d="M7,16 L0,16 L0,0 L15,0 L15,7 L7,7 L7,16 Z M3,9 L1,9 L1,15 L3,15 L3,9 Z M6,9 L4,9 L4,15 L6,15 L6,9 Z M6,1 L4,1 L4,8 L6,8 L6,1 Z M3,1 L1,1 L1,8 L3,8 L3,1 Z M10,1 L7,1 L7,6 L10,6 L10,1 Z M14,1 L11,1 L11,6 L14,6 L14,1 Z" id="形状" fill-rule="nonzero"></path>
                        <path d="M12.338001,8 L11.6629648,8 C11.5267986,8 11.4089812,8.0965717 11.3829068,8.22984066 L11.208112,9.10091743 C11.187832,9.19942057 11.1183003,9.27957508 11.0246258,9.3143409 C10.945437,9.34331241 10.8681796,9.37518107 10.791888,9.41187832 C10.7532593,9.42926123 10.7117335,9.4389184 10.6682762,9.4389184 C10.6122646,9.4389184 10.556253,9.42250121 10.5108643,9.39063254 L9.77112506,8.89715113 C9.65717045,8.82182521 9.50651859,8.83631096 9.4109126,8.93288267 L8.93384838,9.40994689 C8.83727668,9.50651859 8.82182521,9.65717045 8.89811685,9.77015934 L9.39159826,10.5098986 C9.44664413,10.593916 9.45533559,10.7001449 9.41187832,10.7909223 C9.37614679,10.8672139 9.34427813,10.9444713 9.3143409,11.0236601 C9.2805408,11.1173346 9.19942057,11.187832 9.10091743,11.2071463 L8.22984066,11.3829068 C8.0965717,11.4099469 8,11.5267986 8,11.6629648 L8,12.338001 C8,12.4741671 8.0965717,12.5919845 8.22984066,12.6180589 L9.10091743,12.7928537 C9.19942057,12.8131338 9.27957508,12.8826654 9.3143409,12.9763399 C9.34331241,13.0555287 9.37518107,13.1337518 9.41187832,13.2090777 C9.45436987,13.2998551 9.44760985,13.406084 9.39159826,13.4901014 L8.89811685,14.2298407 C8.82279092,14.3428296 8.83727668,14.4944471 8.93384838,14.5900531 L9.4109126,15.0671173 C9.50748431,15.163689 9.65813617,15.1791405 9.77112506,15.1028489 L10.5108643,14.6093675 C10.5581845,14.5784645 10.6132303,14.5610816 10.6682762,14.5610816 C10.7107677,14.5610816 10.7532593,14.5707388 10.791888,14.5881217 C10.8681796,14.6238532 10.945437,14.6557219 11.0246258,14.6856591 C11.1183003,14.7204249 11.1887977,14.8005794 11.208112,14.8990826 L11.3829068,15.7701593 C11.4099469,15.9034283 11.5267986,16 11.6629648,16 L12.338001,16 C12.4741671,16 12.5919845,15.9034283 12.6180589,15.7701593 L12.7928537,14.8990826 C12.8131338,14.8005794 12.8826654,14.7204249 12.9763399,14.6856591 C13.0555287,14.6566876 13.1337518,14.6248189 13.2090777,14.5881217 C13.2477064,14.5707388 13.2892323,14.5610816 13.3326895,14.5610816 C13.3887011,14.5610816 13.4447127,14.5774988 13.4901014,14.6093675 L14.2298407,15.1028489 C14.3428296,15.1781748 14.4944471,15.163689 14.5900531,15.0671173 L15.0671173,14.5900531 C15.163689,14.4934814 15.1791405,14.3428296 15.1028489,14.2298407 L14.6093675,13.4901014 C14.5543216,13.406084 14.5456301,13.2998551 14.5881217,13.2090777 C14.6238532,13.1327861 14.6557219,13.0555287 14.6856591,12.9763399 C14.7204249,12.8826654 14.8005794,12.812168 14.8990826,12.7928537 L15.7701593,12.6180589 C15.9034283,12.5910188 16,12.4741671 16,12.338001 L16,11.6629648 C16,11.5267986 15.9034283,11.4089812 15.7701593,11.3829068 L14.9000483,11.208112 C14.8015451,11.187832 14.7213906,11.1183003 14.6866248,11.0246258 C14.6576533,10.945437 14.6257846,10.8681796 14.5890874,10.791888 C14.5465958,10.7011106 14.5533559,10.5948817 14.6103332,10.5108643 L15.1038146,9.77112506 C15.1791405,9.65717045 15.1646548,9.50651859 15.0680831,9.4109126 L14.5910188,8.93288267 C14.4944471,8.83631096 14.3437953,8.82085949 14.2308064,8.89715113 L13.4910671,9.39063254 C13.443747,9.42153549 13.3887011,9.4389184 13.3336552,9.4389184 C13.2911637,9.4389184 13.2486721,9.42926123 13.2100435,9.41187832 C13.1337518,9.37614679 13.0564944,9.34427813 12.9773056,9.3143409 C12.8836311,9.2805408 12.8131338,9.19942057 12.7938194,9.10091743 L12.6190246,8.22984066 C12.5919845,8.0965717 12.4741671,8 12.338001,8 Z M11.9994215,14 C11.0454559,14 10.2243923,13.326459 10.0385548,12.390491 C9.85271734,11.454523 10.352789,10.518555 11.2346723,10.1525026 C12.1154292,9.78757641 13.1324669,10.0950605 13.6629484,10.8879864 C14.1923035,11.6809124 14.0898114,12.7385224 13.4140388,13.4131853 C13.038985,13.7905009 12.5310293,14.0011218 11.9994215,14 L11.9994215,14 Z" id="形状" fill-rule="nonzero"></path>
                        <path d="M7,16 L0,16 L0,0 L7,0 L7,16 Z" id="形状结合" fill-opacity="0.2"></path>
                    </g>
                </g>
            </g>
        </g>
    </g>
</svg>