<?xml version="1.0" encoding="UTF-8"?>
<svg width="24px" height="24px" viewBox="0 0 24 24" version="1.1" xmlns="http://www.w3.org/2000/svg" xmlns:xlink="http://www.w3.org/1999/xlink">
    <title>上一步</title>
    <g id="上一步" stroke="none" stroke-width="1" fill="none" fill-rule="evenodd">
        <path d="M7,9.89039473 C7,10.5032128 6.50076769,11 5.88493342,11 C5.63508724,11 5.39247988,10.916502 5.19602125,10.7628977 L0.426201898,7.03353784 C-0.0580398805,6.65492563 -0.142158921,5.9573669 0.238316762,5.47549681 C0.315076378,5.37828123 0.407623334,5.29451474 0.512133345,5.22765879 L5.2819527,2.17636435 C5.79997923,1.84497833 6.48988637,1.99422358 6.82290343,2.50971295 C6.93852596,2.68868933 7,2.89697182 7,3.10974043 L7,6 L16,6 C20.418278,6 24,9.581722 24,14 C24,18.3349143 20.5521622,21.8645429 16.2491793,21.9961932 L16,22 L5.5,22 C5.22385763,22 5,21.7761424 5,21.5 C5,21.2545401 5.17687516,21.0503916 5.41012437,21.0080557 L5.5,21 L16,21 C19.8659932,21 23,17.8659932 23,14 C23,10.2145483 19.9952166,7.13090132 16.2406498,7.00405902 L16,7 L7,7 L7,9.89039473 Z" id="icon-上一步/撤销" fill="#B1B1B1" fill-rule="nonzero"></path>
    </g>
</svg>