<?xml version="1.0" encoding="UTF-8"?>
<svg width="20px" height="20px" viewBox="0 0 20 20" version="1.1" xmlns="http://www.w3.org/2000/svg" xmlns:xlink="http://www.w3.org/1999/xlink">
    <title>非主键 2</title>
    <g id="页面-1" stroke="none" stroke-width="1" fill="none" fill-rule="evenodd">
        <g id="编组-2备份-5" transform="translate(-9.000000, -8.000000)">
            <g id="非主键" transform="translate(9.000000, 8.000000)">
                <path d="M14,11 L14,13 L13,13 L13,11 L14,11 Z M14,7 L14,9 L13,9 L13,7 L14,7 Z M14,3 L14,5 L13,5 L13,3 L14,3 Z M7,3 L7,4 L5,4 L5,3 L7,3 Z M11,3 L11,4 L9,4 L9,3 L11,3 Z" id="形状结合" fill="#C6D0E0"></path>
                <rect id="矩形" stroke="#C6D0E0" fill-opacity="0.2" fill="#A0AAB9" x="0.5" y="0.5" width="4" height="6"></rect>
                <path d="M13.0200195,12.5 C15.4279441,12.5 17.5368252,13.6860369 19.3687288,16.0062502 C17.5354716,18.3188143 15.4179763,19.5 12.9946899,19.5 C10.5715047,19.5 8.45726585,18.3180252 6.63035945,16.0037738 C8.4583217,13.6842109 10.5811079,12.5 13.0200195,12.5 Z" id="矩形" stroke="#C6D0E0"></path>
                <circle id="椭圆形" fill="#C6D0E0" cx="13" cy="16" r="2"></circle>
            </g>
        </g>
    </g>
</svg>