<?xml version="1.0" encoding="UTF-8"?>
<svg width="20px" height="20px" viewBox="0 0 20 20" version="1.1" xmlns="http://www.w3.org/2000/svg" xmlns:xlink="http://www.w3.org/1999/xlink">
    <title>非主键 2</title>
    <g id="页面-1" stroke="none" stroke-width="1" fill="none" fill-rule="evenodd">
        <g id="light-tab" transform="translate(-643.000000, -70.000000)">
            <g id="非主键" transform="translate(643.000000, 70.000000)">
                <path d="M14,11 L14.0007008,12.0627314 C16.2504924,12.355132 18.2502588,13.669725 20,16.0065104 C18,18.6688368 15.6648966,20 12.9946899,20 C10.3244832,20 7.99291992,18.6680592 6,16.0041775 C7.98795994,13.3413696 10.321281,12.006652 12.9999631,12.0000248 L13,11 L14,11 Z M13.0200195,13 C10.9414177,13 9.09395086,13.9169816 7.43911656,15.8111911 L7.275,16.003 L7.43825027,16.1947668 C9.01969287,18.0029362 10.7715518,18.9186017 12.7268012,18.9948067 L12.9946899,19 C15.0588042,19 16.9016767,18.0852119 18.5606218,16.1953136 L18.723,16.005 L18.5598931,15.8137356 C16.9744436,13.9998401 15.2270389,13.0816236 13.2859211,13.0052077 L13.0200195,13 Z M13,14 C14.1045695,14 15,14.8954305 15,16 C15,17.1045695 14.1045695,18 13,18 C11.8954305,18 11,17.1045695 11,16 C11,14.8954305 11.8954305,14 13,14 Z M14,7 L14,9 L13,9 L13,7 L14,7 Z M14,3 L14,5 L13,5 L13,3 L14,3 Z M7,3 L7,4 L5,4 L5,3 L7,3 Z M11,3 L11,4 L9,4 L9,3 L11,3 Z" id="形状结合" fill="#A0AAB9"></path>
                <path d="M5,0 L5,7 L0,7 L0,0 L5,0 Z M4,1 L1,1 L1,6 L4,6 L4,1 Z" id="矩形" fill="#539FFD" fill-rule="nonzero"></path>
                <rect id="矩形" fill-opacity="0.2" fill="#539FFD" x="0" y="0" width="5" height="7"></rect>
            </g>
        </g>
    </g>
</svg>