<svg xmlns="http://www.w3.org/2000/svg" viewBox="0 0 32 32"><defs><style>.a161b275-a088-45b6-956e-587b4a0a1cf3{fill:#509dea;}</style></defs><title>资源 92</title><g id="f7c443c7-187f-4bae-a504-a6595b5886c4" data-name="图层 2"><g id="e5b1036e-0aaf-4ff9-acee-0ec05700d3b3" data-name="ddc图标"><path class="a161b275-a088-45b6-956e-587b4a0a1cf3" d="M30,0H2A2,2,0,0,0,0,2V30a2,2,0,0,0,2,2H30a2,2,0,0,0,2-2V2A2,2,0,0,0,30,0ZM10,30H2V24h8Zm0-8H2V17h8Zm0-7H2V9h8ZM20,30H12V24h8Zm0-8H12V17h8Zm0-7H12V9h8ZM30,30H22V24h8Zm0-8H22V17h8Zm0-7H22V9h8Z"/></g></g></svg>