<?xml version="1.0" encoding="UTF-8"?>
<svg width="36px" height="6px" viewBox="0 0 36 6" version="1.1" xmlns="http://www.w3.org/2000/svg" xmlns:xlink="http://www.w3.org/1999/xlink">
    <title>编组 4备份</title>
    <g id="设计方案" stroke="none" stroke-width="1" fill="none" fill-rule="evenodd">
        <g id="画板" transform="translate(-127.000000, -1376.000000)" fill="#409EFF" fill-rule="nonzero">
            <g id="编组-4备份" transform="translate(127.000000, 1376.000000)">
                <path d="M30.1476835,0.13374428 C30.3445949,-0.0445814267 30.6638513,-0.0445814267 30.8607626,0.13374428 L30.8607626,0.13374428 L35.7752322,4.58250443 C35.8425611,4.62698028 35.8984994,4.68730636 35.9377312,4.75816675 C35.9835658,4.83273475 36.0039595,4.91682764 35.9993669,5 L35.9997058,4.98268394 C35.9999014,4.98843187 36,4.99420442 36,5 L35.9999597,5.01715506 C36.0010389,5.0946861 35.9804475,5.17241858 35.9381856,5.24226233 C35.8663798,5.37070789 35.7397682,5.46473805 35.5898756,5.49194433 L35.5,5.5 L0.5,5.5 C0.223857625,5.5 -8.34887715e-13,5.27614237 -8.34887715e-13,5 C-8.34887715e-13,4.75454011 0.176875161,4.55039163 0.410124368,4.50805567 L0.5,4.5 L34.256,4.5 L30.1476835,0.779518791 C29.9726512,0.621007051 29.9532032,0.374951695 30.0893394,0.196985819 Z" id="箭头备份"></path>
            </g>
        </g>
    </g>
</svg>