<?xml version="1.0" encoding="UTF-8"?>
<svg width="24px" height="24px" viewBox="0 0 24 24" version="1.1" xmlns="http://www.w3.org/2000/svg" xmlns:xlink="http://www.w3.org/1999/xlink">
    <title>编组 37</title>
    <g id="light" stroke="none" stroke-width="1" fill="none" fill-rule="evenodd">
        <g id="light-tab" transform="translate(-1088.000000, -1095.000000)" fill-rule="nonzero">
            <g id="编组-37" transform="translate(1088.000000, 1095.000000)">
                <g id="自定义属性" transform="translate(2.000000, 0.000000)">
                    <path d="M13.3333333,0 L20,6 L20,24 L0,24 L0,0 L13.3333333,0 Z M12.95,1 L1,1 L1,23 L19,23 L19,6.445 L12.95,1 Z" id="矩形" fill="#ACB5C1"></path>
                    <path d="M10.4225012,8 L9.57870594,8 C9.40849831,8 9.26122646,8.12071463 9.22863351,8.28730082 L9.01014003,9.37614679 C8.98478996,9.49927571 8.89787542,9.59946886 8.78078223,9.64292612 C8.68179623,9.67914051 8.58522453,9.71897634 8.48985997,9.7648479 C8.44157412,9.78657653 8.38966683,9.798648 8.33534524,9.798648 C8.26533076,9.798648 8.19531627,9.77812651 8.1385804,9.73829068 L7.21390633,9.12143892 C7.07146306,9.02728151 6.88314824,9.0453887 6.76364075,9.16610333 L6.16731048,9.76243361 C6.04659585,9.88314824 6.02728151,10.0714631 6.12264606,10.2126992 L6.73949783,11.1373732 C6.80830517,11.242395 6.81916948,11.3751811 6.7648479,11.4886528 C6.72018349,11.5840174 6.68034766,11.6805891 6.64292612,11.7795751 C6.600676,11.8966683 6.49927571,11.98479 6.37614679,12.0089329 L5.28730082,12.2286335 C5.12071463,12.2624336 5,12.4084983 5,12.5787059 L5,13.4225012 C5,13.5927088 5.12071463,13.7399807 5.28730082,13.7725736 L6.37614679,13.9910671 C6.49927571,14.0164172 6.59946886,14.1033317 6.64292612,14.2204249 C6.67914051,14.3194109 6.71897634,14.4171898 6.7648479,14.5113472 C6.81796234,14.6248189 6.80951231,14.757605 6.73949783,14.8626268 L6.12264606,15.7873008 C6.02848865,15.9285369 6.04659585,16.1180589 6.16731048,16.2375664 L6.76364075,16.8338967 C6.88435538,16.9546113 7.07267021,16.9739256 7.21390633,16.8785611 L8.1385804,16.2617093 C8.19773056,16.2230806 8.2665379,16.201352 8.33534524,16.201352 C8.38845968,16.201352 8.44157412,16.2134235 8.48985997,16.2351521 C8.58522453,16.2798165 8.68179623,16.3196523 8.78078223,16.3570739 C8.89787542,16.4005311 8.9859971,16.5007243 9.01014003,16.6238532 L9.22863351,17.7126992 C9.26243361,17.8792854 9.40849831,18 9.57870594,18 L10.4225012,18 C10.5927088,18 10.7399807,17.8792854 10.7725736,17.7126992 L10.9910671,16.6238532 C11.0164172,16.5007243 11.1033317,16.4005311 11.2204249,16.3570739 C11.3194109,16.3208595 11.4171898,16.2810237 11.5113472,16.2351521 C11.559633,16.2134235 11.6115403,16.201352 11.6658619,16.201352 C11.7358764,16.201352 11.8058909,16.2218735 11.8626268,16.2617093 L12.7873008,16.8785611 C12.9285369,16.9727185 13.1180589,16.9546113 13.2375664,16.8338967 L13.8338967,16.2375664 C13.9546113,16.1168518 13.9739256,15.9285369 13.8785611,15.7873008 L13.2617093,14.8626268 C13.192902,14.757605 13.1820377,14.6248189 13.2351521,14.5113472 C13.2798165,14.4159826 13.3196523,14.3194109 13.3570739,14.2204249 C13.4005311,14.1033317 13.5007243,14.01521 13.6238532,13.9910671 L14.7126992,13.7725736 C14.8792854,13.7387735 15,13.5927088 15,13.4225012 L15,12.5787059 C15,12.4084983 14.8792854,12.2612265 14.7126992,12.2286335 L13.6250604,12.01014 C13.5019314,11.98479 13.4017383,11.8978754 13.358281,11.7807822 C13.3220666,11.6817962 13.2822308,11.5852245 13.2363592,11.48986 C13.1832448,11.3763882 13.1916948,11.2436021 13.2629165,11.1385804 L13.8797682,10.2139063 C13.9739256,10.0714631 13.9558184,9.88314824 13.8351038,9.76364075 L13.2387735,9.16610333 C13.1180589,9.0453887 12.9297441,9.02607436 12.788508,9.12143892 L11.8638339,9.73829068 C11.8046837,9.77691936 11.7358764,9.798648 11.667069,9.798648 C11.6139546,9.798648 11.5608402,9.78657653 11.5125543,9.7648479 C11.4171898,9.72018349 11.3206181,9.68034766 11.2216321,9.64292612 C11.1045389,9.600676 11.0164172,9.49927571 10.9922743,9.37614679 L10.7737808,8.28730082 C10.7399807,8.12071463 10.5927088,8 10.4225012,8 Z M9.99927693,15.5 C8.80681991,15.5 7.78049032,14.6580737 7.54819349,13.4881137 C7.31589667,12.3181538 7.9409863,11.1481938 9.04334031,10.6906282 C10.1442865,10.2344705 11.4155836,10.6188256 12.0786855,11.609983 C12.7403794,12.6011405 12.6122642,13.923153 11.7675485,14.7664816 C11.2987313,15.2381261 10.6637866,15.5014023 9.99927693,15.5 L9.99927693,15.5 Z" id="形状" fill="#409EFF"></path>
                </g>
            </g>
        </g>
    </g>
</svg>