<?xml version="1.0" encoding="UTF-8"?>
<svg width="20px" height="20px" viewBox="0 0 20 20" version="1.1" xmlns="http://www.w3.org/2000/svg" xmlns:xlink="http://www.w3.org/1999/xlink">
    <title>形状结合</title>
    <g id="控件" stroke="none" stroke-width="1" fill="none" fill-rule="evenodd">
        <g id="Top" transform="translate(-1738.000000, -15.000000)" fill="#999999" fill-rule="nonzero">
            <g id="用户名称" transform="translate(1728.000000, 10.000000)">
                <path d="M20,5 C25.5228475,5 30,9.4771525 30,15 C30,20.5228475 25.5228475,25 20,25 C14.4771525,25 10,20.5228475 10,15 C10,9.4771525 14.4771525,5 20,5 Z M20,16 C16.7818663,16 14.1554792,18.5335689 14.0066546,21.7148909 C15.5986657,23.1360731 17.6984424,24 20,24 C22.3015576,24 24.4013343,23.1360731 25.9927316,21.7148179 C25.8445208,18.5335689 23.2181337,16 20,16 Z M20,6 C15.0294373,6 11,10.0294373 11,15 C11,17.2026507 11.7912697,19.2204904 13.1050635,20.7847737 C13.5534552,18.2251462 15.3913247,16.1445029 17.8122016,15.3486793 C16.7211938,14.635363 16,13.4019034 16,12 C16,9.790861 17.790861,8 20,8 C22.209139,8 24,9.790861 24,12 C24,13.4019034 23.2788062,14.635363 22.1871896,15.3496077 C24.6085939,16.144627 26.4465339,18.2251628 26.8947463,20.7839523 C28.2087303,19.2204904 29,17.2026507 29,15 C29,10.0294373 24.9705627,6 20,6 Z M20,9 C18.3431458,9 17,10.3431458 17,12 C17,13.6568542 18.3431458,15 20,15 C21.6568542,15 23,13.6568542 23,12 C23,10.3431458 21.6568542,9 20,9 Z" id="形状结合"></path>
            </g>
        </g>
    </g>
</svg>