<?xml version="1.0" encoding="UTF-8"?>
<svg width="24px" height="24px" viewBox="0 0 24 24" version="1.1" xmlns="http://www.w3.org/2000/svg" xmlns:xlink="http://www.w3.org/1999/xlink">
    <title>TOP 用户</title>
    <g id="dam-icon" stroke="none" stroke-width="1" fill="none" fill-rule="evenodd">
        <g id="资产icon" transform="translate(-1292.000000, -464.000000)" fill="#409EFF">
            <g id="TOP-用户" transform="translate(1292.000000, 464.000000)">
                <circle id="椭圆形" opacity="0.1" cx="12" cy="12" r="12"></circle>
                <path d="M8.0177948,17.9959668 L6.0719577,12.6056144 C5.90094939,12.6770623 5.71779388,12.713718 5.5328814,12.7135021 C4.92691331,12.7315628 4.37064956,12.3747387 4.1263297,11.8112475 C3.88200984,11.2477563 3.99840705,10.5900867 4.42064815,10.1482842 C4.84288926,9.70648168 5.48668298,9.56874248 6.04852546,9.80000103 C6.61036794,10.0312596 6.97809952,10.5853501 6.97836039,11.2010576 L6.97836039,11.2010576 C6.978528,11.4137929 6.93525871,11.6242521 6.85128531,11.8191433 C7.90064746,12.2799347 9.34314812,12.6701454 10.2833051,11.9199729 C11.0522994,11.0865894 11.5428428,10.0280628 11.6851021,8.8950838 C10.9802811,8.71354429 10.5174613,8.02911233 10.6036625,7.29581826 C10.6898637,6.56252419 11.2983278,6.0079941 12.025419,6 C12.7525102,5.99217703 13.372528,6.53334498 13.4741723,7.26459587 C13.5758166,7.99584675 13.1275355,8.69018871 12.4267043,8.88701743 C12.5799427,10.0249155 13.0778081,11.0862512 13.851335,11.9240061 C14.7875209,12.6701454 16.2002383,12.2849762 17.2327233,11.8292262 C17.1470933,11.6323171 17.1031246,11.4193416 17.1036627,11.2040825 C17.1260113,10.400424 17.779473,9.76384122 18.5710036,9.77464319 C19.3625342,9.78544515 19.9989191,10.4396303 20,11.2436086 C20.0010782,12.0475868 19.3664525,12.7035325 18.5749538,12.716527 L18.5491417,12.716527 C18.3642838,12.7161763 18.1812349,12.6795419 18.0100654,12.6086393 L16.0642283,18 L8.0177948,17.9959668 Z" id="联合_404" fill-rule="nonzero"></path>
            </g>
        </g>
    </g>
</svg>