<?xml version="1.0" encoding="UTF-8"?>
<svg width="14px" height="14px" viewBox="0 0 14 14" version="1.1" xmlns="http://www.w3.org/2000/svg" xmlns:xlink="http://www.w3.org/1999/xlink">
    <title>提示/叹号</title>
    <g id="元数据" stroke="none" stroke-width="1" fill="none" fill-rule="evenodd">
        <g id="1.4-数据集/全部元数据-详情（摘要）备份" transform="translate(-1745.000000, -122.000000)" fill-rule="nonzero">
            <g id="表" transform="translate(200.000000, 95.000000)">
                <g id="右边" transform="translate(773.000000, 25.000000)">
                    <g id="收藏次数备份" transform="translate(745.000000, 2.000000)">
                        <g id="路径" transform="translate(27.000000, 0.000000)">
                            <path d="M7,0 C10.86575,0 14,3.13425 14,7 C14,10.8663333 10.86575,14 7,14 C3.13366665,14 0,10.8663333 0,7 C0,3.13425 3.13366667,0 7,0 Z" fill="#EFEFEF"></path>
                            <path d="M5.00616667,6.24691666 C5.00616667,6.34958333 4.9875,6.60449999 5.00850001,6.75791667 L5.76975,5.84149999 C5.92725,5.66883333 6.10983334,5.54808332 6.20258333,5.58075 C6.29591666,5.61341667 6.34666666,5.72250001 6.31633333,5.82516666 L5.05633333,9.99833333 C4.91108333,10.4865833 5.18583333,10.9655 5.85433333,11.0745833 C6.83433333,11.0745833 7.41649999,10.4119167 7.98875,9.55266667 C7.98875,9.45058334 8.02316667,9.17991667 8.00216666,9.0265 L7.24091667,9.94291666 C7.08283334,10.1155833 6.88683334,10.2363333 6.7935,10.2036667 C6.70774999,10.1733333 6.65758333,10.0776667 6.67449999,9.98258333 L7.94325,5.789 C8.04883333,5.25641667 7.76241667,4.77225001 7.15575,4.70983334 C6.51816666,4.70983334 5.57841666,5.38825 5.00616667,6.24691666 Z" fill="#979797"></path>
                            <path d="M7.819,2.36658333 C7.33716667,2.36658333 6.94633333,2.71716667 6.94633333,3.234 C6.94633333,3.75141667 7.33716667,4.102 7.819,4.102 C8.30083333,4.102 8.69166667,3.75141667 8.69166667,3.234 C8.69166667,2.71716667 8.30083333,2.36658333 7.819,2.36658333 L7.819,2.36658333 Z" fill="#979797"></path>
                        </g>
                    </g>
                </g>
            </g>
        </g>
    </g>
</svg>