<svg xmlns="http://www.w3.org/2000/svg" viewBox="0 0 28 28"><defs><style>.cls-1{fill:#eaf1fb;}.cls-2{fill:#6ca3fe;}</style></defs><title>资源 8</title><g id="图层_2" data-name="图层 2"><g id="图层_1-2" data-name="图层 1"><circle class="cls-1" cx="14" cy="14" r="14"/><path class="cls-2" d="M22.25,14.35,19.67,8.64a.45.45,0,0,0-.46-.27H14.79l.11-.2a0,0,0,0,0,0,0,1.26,1.26,0,0,0,.31-.84,1.34,1.34,0,1,0-2.68,0,1.34,1.34,0,0,0,.26.79c0,.08.08.16.14.28H8.43a.39.39,0,0,0-.37.27l-2.3,5.81a.41.41,0,0,0,0,.19.59.59,0,0,0,0,.13,2.88,2.88,0,0,0,3,2.47,2.9,2.9,0,0,0,2.88-2.44c0-.05,0-.1,0-.15h0a.46.46,0,0,0,0-.19L9.17,9.29h3.77V19.45l-3,1.29c-.64.27-.55.46,0,.46h7.93c.55,0,.55-.19,0-.46l-3-1.29V9.29h3.87l-2.22,5.16a.46.46,0,0,0,0,.38l0,0a3,3,0,0,0,5.82-.18.06.06,0,0,0,0,0A.59.59,0,0,0,22.25,14.35Zm-11.6.29h-4L8.52,10Zm6.7,0,2-4.62,2,4.62Z"/></g></g></svg>