<svg xmlns="http://www.w3.org/2000/svg" viewBox="0 0 14 16"><title>资源 3</title><g id="图层_2" data-name="图层 2"><g id="图层_2-2" data-name="图层 2"><path d="M12.92,16H1.08A1.09,1.09,0,0,1,0,14.92V1.08A1.09,1.09,0,0,1,1.08,0H12.92A1.09,1.09,0,0,1,14,1.08V14.92A1.09,1.09,0,0,1,12.92,16Zm-9-11.69v-1a.5.5,0,0,0-.5-.5h-1a.51.51,0,0,0-.5.5v1a.5.5,0,0,0,.5.5h1A.5.5,0,0,0,3.91,4.31Zm0,4v-1a.5.5,0,0,0-.5-.5h-1a.51.51,0,0,0-.5.5v1a.5.5,0,0,0,.5.5h1A.5.5,0,0,0,3.91,8.31Zm0,4v-1a.5.5,0,0,0-.5-.5h-1a.51.51,0,0,0-.5.5v1a.5.5,0,0,0,.5.5h1A.5.5,0,0,0,3.91,12.31Zm8.38-8V3.28a.47.47,0,0,0-.47-.47H5.76a.47.47,0,0,0-.47.47V4.34a.47.47,0,0,0,.47.47h6.06A.47.47,0,0,0,12.29,4.34Zm0,4V7.28a.47.47,0,0,0-.47-.47H5.76a.47.47,0,0,0-.47.47V8.34a.47.47,0,0,0,.47.47h6.06A.47.47,0,0,0,12.29,8.34Zm0,4V11.28a.47.47,0,0,0-.47-.47H5.76a.47.47,0,0,0-.47.47v1.06a.47.47,0,0,0,.47.47h6.06A.47.47,0,0,0,12.29,12.34Z"/></g></g></svg>