<svg xmlns="http://www.w3.org/2000/svg" viewBox="0 0 16 16"><title>资源 7</title><g id="图层_2" data-name="图层 2"><g id="图层_6" data-name="图层 6"><path d="M14,16H2a2,2,0,0,1-2-2V2A2,2,0,0,1,2,0H14a2,2,0,0,1,2,2V14A2,2,0,0,1,14,16ZM4,3.17a2,2,0,1,0,2,2A2,2,0,0,0,4,3.17Zm1.77,9L4.71,11.07,5.77,10a.5.5,0,0,0-.71-.7L4,10.37,2.94,9.31a.51.51,0,0,0-.36-.15.5.5,0,0,0-.35.85l1.06,1.06L2.23,12.13a.54.54,0,0,0-.14.36.52.52,0,0,0,.14.35.5.5,0,0,0,.71,0L4,11.78l1.06,1.06a.51.51,0,0,0,.36.15.5.5,0,0,0,.35-.15A.51.51,0,0,0,5.77,12.13Zm8-7h0A.76.76,0,0,0,13,4.42H8.75A.76.76,0,0,0,8,5.17H8a.75.75,0,0,0,.75.75H13A.75.75,0,0,0,13.72,5.17Zm0,5.9h0a.76.76,0,0,0-.75-.75H8.75a.76.76,0,0,0-.75.75H8a.75.75,0,0,0,.75.75H13A.75.75,0,0,0,13.72,11.07Z"/></g></g></svg>