<svg xmlns="http://www.w3.org/2000/svg" viewBox="0 0 28 28"><defs><style>.cls-1{fill:#eaf1fb;}.cls-2{fill:#6ca3fe;}</style></defs><title>资源 9</title><g id="图层_2" data-name="图层 2"><g id="图层_1-2" data-name="图层 1"><circle class="cls-1" cx="14" cy="14" r="14"/><path class="cls-2" d="M18.05,15a1.11,1.11,0,1,1,0,2.21h-3v2.67A1.17,1.17,0,0,1,14,21.07a1.17,1.17,0,0,1-1.1-1.23V17.17H10A1.11,1.11,0,1,1,10,15h3V13.37H10a1.18,1.18,0,0,1-1.24-1.1A1.18,1.18,0,0,1,10,11.17h1.63L11,10h0l-.72-1.36A1.19,1.19,0,0,1,10.67,7a1.18,1.18,0,0,1,1.55.58l.57,1.1,0,0,.59,1.13h0L14,11l.6-1.14h0l.59-1.13,0,0,.58-1.1a1.11,1.11,0,1,1,1.95,1L17.06,10h0l-.61,1.16h1.6a1.18,1.18,0,0,1,1.24,1.1,1.18,1.18,0,0,1-1.24,1.1h-3V15Z"/></g></g></svg>