<svg xmlns="http://www.w3.org/2000/svg" viewBox="0 0 28 28"><defs><style>.cls-1{fill:#eaf1fb;}.cls-2{fill:#6ca3fe;}</style></defs><title>资源 7</title><g id="图层_2" data-name="图层 2"><g id="图层_1-2" data-name="图层 1"><circle class="cls-1" cx="14" cy="14" r="14"/><path class="cls-2" d="M6.76,13.14v3a1.32,1.32,0,0,0,2.64,0v-3A1.32,1.32,0,0,0,8.63,12,5.64,5.64,0,0,1,19.26,12a1.34,1.34,0,0,0-.66,1.14v3a1.33,1.33,0,0,0,.72,1.17c-.3,1.21-1.78,2.19-3.65,2.37a1.44,1.44,0,0,0-1.25-.53c-.73,0-1.32.34-1.32.77s.59.77,1.32.77a1.46,1.46,0,0,0,1.24-.51c2.22-.17,4-1.31,4.4-2.73a1.32,1.32,0,0,0,1.18-1.31v-3a1.32,1.32,0,0,0-1.11-1.3,6.51,6.51,0,0,0-12.4,0,1.32,1.32,0,0,0-1,1.27Z"/></g></g></svg>