<svg xmlns="http://www.w3.org/2000/svg" viewBox="0 0 28 28"><defs><style>.cls-1{fill:#eaf1fb;}.cls-2{fill:#6ca3fe;}</style></defs><title>资源 5</title><g id="图层_2" data-name="图层 2"><g id="图层_1-2" data-name="图层 1"><circle class="cls-1" cx="14" cy="14" r="14"/><path class="cls-2" d="M18,17.16a1.48,1.48,0,1,1-1.48,1.47A1.47,1.47,0,0,1,18,17.16Z"/><path class="cls-2" d="M10.79,17.16a1.48,1.48,0,1,1-1.48,1.47,1.47,1.47,0,0,1,1.48-1.47Z"/><path class="cls-2" d="M19.89,14.09l-1.24-2.31s-.13-.14-.23-.14H17v2.95h3.15a1.07,1.07,0,0,0-.23-.5Zm1.22.5v2.95a.59.59,0,0,1-.59.59h-.15a2.53,2.53,0,0,0-5,0h-2a2.53,2.53,0,0,0-5,0H7.48a.59.59,0,0,1-.59-.59V8.69a.6.6,0,0,1,.59-.59h8.31a.59.59,0,0,1,.59.59v1.77h2.07c.44,0,.62.27.89.59l1.32,2.35A2.51,2.51,0,0,1,21.11,14.59Z"/></g></g></svg>