<?xml version="1.0" encoding="UTF-8"?>
<svg width="64px" height="64px" viewBox="0 0 64 64" version="1.1" xmlns="http://www.w3.org/2000/svg" xmlns:xlink="http://www.w3.org/1999/xlink">
    <title>编组 5</title>
    <g id="7.0资产门户" stroke="none" stroke-width="1" fill="none" fill-rule="evenodd">
        <g id="资产门户：数据动态+目录空间设计说明" transform="translate(-280.000000, -1166.000000)">
            <g id="热门目录备份-5" transform="translate(104.000000, 1053.000000)">
                <g id="编组-5" transform="translate(176.000000, 113.000000)">
                    <circle id="椭圆形" fill="#E6EAF2" opacity="0.400902158" cx="32" cy="32" r="32"></circle>
                    <g id="编组-24" transform="translate(16.000000, 23.000000)">
                        <polygon id="路径-2" fill="#D0DAF8" points="7 6 2.1217041 12.8712769 29.9293213 13 25 6"></polygon>
                        <rect id="矩形备份-48" fill="#ABBCF6" x="7" y="0" width="18" height="6"></rect>
                        <polygon id="矩形备份-49" fill="#BDCAF7" points="0 10 7 -1.13686838e-13 7 6 0 16"></polygon>
                        <polygon id="矩形备份-49" fill="#BDCAF7" transform="translate(28.500000, 8.000000) scale(-1, 1) translate(-28.500000, -8.000000) " points="25 10 32 -1.13686838e-13 32 6 25 16"></polygon>
                        <path d="M32,10 L32,22 C32,23.1045695 31.1045695,24 30,24 L2,24 C0.8954305,24 6.76353751e-17,23.1045695 0,22 L0,10 L13,10 C13,11.6568542 14.3431458,13 16,13 C17.6568542,13 19,11.6568542 19,10 L32,10 Z" id="形状结合" fill="#7491F2" fill-rule="nonzero"></path>
                    </g>
                    <ellipse id="椭圆形" fill="#E6EAF2" cx="32" cy="52" rx="12" ry="3"></ellipse>
                    <path d="M22,15.0075587 L30.4541976,20.269717 L25.7829462,12 L22,15.0075587 Z M42,16.9121522 L36.8237355,19.653698 L39.9046513,14.9932408 L42,16.9121522 Z M31.3631861,16.8734359 L32.7275889,21 L33.8965472,15.9533758 L31.3631861,16.8734359 Z" id="形状结合" fill="#D6DCEA"></path>
                </g>
            </g>
        </g>
    </g>
</svg>