<svg xmlns="http://www.w3.org/2000/svg" xmlns:xlink="http://www.w3.org/1999/xlink" width="14" height="14" viewBox="0 0 14 14" fill="none"><g opacity="1"  transform="translate(0 0)  rotate(0)"><mask id="mask-0" fill="white"><path d="M0 14L14 14L14 2C14 0.9 13.1 0 12 0L0 0L0 14Z"  ></path></mask><g mask="url(#mask-0)"><path id="矩形 1" fill-rule="evenodd" style="fill:#DBDFEE" opacity="1" d="M0 14L14 14L14 2C14 0.9 13.1 0 12 0L0 0L0 14Z"></path></g><g mask="url(#mask-0)"><path id="矩形 3" fill-rule="evenodd" style="fill:#8B9EE0" opacity="1" d="M16 10.21L16 0.4C16 -0.93 14.93 -2 13.6 -2L3.79 -2C1.65 -2 0.59 0.59 2.1 2.1L11.9 11.9C13.41 13.41 16 12.35 16 10.21Z"></path></g></g></svg>