<?xml version="1.0" standalone="no"?><!DOCTYPE svg PUBLIC "-//W3C//DTD SVG 1.1//EN" "http://www.w3.org/Graphics/SVG/1.1/DTD/svg11.dtd"><svg class="icon" width="200px" height="200.00px" viewBox="0 0 1024 1024" version="1.1" xmlns="http://www.w3.org/2000/svg"><path d="M191.99976 896.00016m31.99996 0l575.99928 0q31.99996 0 31.99996 31.99996l0 63.99992q0 31.99996-31.99996 31.99996l-575.99928 0q-31.99996 0-31.99996-31.99996l0-63.99992q0-31.99996 31.99996-31.99996Z"  /><path d="M447.99944 768.00032h127.99984v191.99976H447.99944z"  /><path d="M855.422931 0.00128H168.575789A167.93579 167.93579 0 0 0 0 167.233071v433.535458A167.93579 167.93579 0 0 0 168.575789 768.00032h686.847142A167.93579 167.93579 0 0 0 1023.99872 600.768529V167.233071A167.93579 167.93579 0 0 0 855.422931 0.00128zM168.575789 86.721172h686.847142c44.799944 0 81.151899 36.031955 81.151898 80.511899v433.535458c0 44.479944-36.351955 80.511899-81.151898 80.511899H168.575789c-44.799944 0-81.151899-36.031955-81.151898-80.511899V167.233071c0-44.479944 36.351955-80.511899 81.151898-80.511899z"  /><path d="M754.559057 217.217008a36.543954 36.543954 0 0 1 61.823923 38.463952l-3.455996 5.567993L626.559217 507.776645a36.607954 36.607954 0 0 1-45.567943 10.687987l-5.631993-3.519996-212.095735-159.6798-113.343858 172.415784a36.607954 36.607954 0 0 1-44.799944 13.631983l-5.823993-3.199996a36.607954 36.607954 0 0 1-13.631983-44.799944l3.199996-5.759992 134.783831-204.991744a36.607954 36.607954 0 0 1 46.719942-12.735984l5.759993 3.647995L590.335262 434.560737l164.287795-217.343729z"  /></svg>