<?xml version="1.0" encoding="UTF-8"?>
<svg width="22px" height="22px" viewBox="0 0 22 22" version="1.1" xmlns="http://www.w3.org/2000/svg" xmlns:xlink="http://www.w3.org/1999/xlink">
    <title>形状结合</title>
    <g id="页面-1" stroke="none" stroke-width="1" fill="none" fill-rule="evenodd">
        <g id="提示" transform="translate(-97.000000, -1908.000000)" fill="#999999" fill-rule="nonzero">
            <g id="编组-5" transform="translate(77.000000, 1894.000000)">
                <path d="M29.716534,32.0526045 C30.3846396,31.6861689 31.207803,31.6861689 31.8759086,32.0526045 C32.5440143,32.4190401 32.9555462,33.0962329 32.9554656,33.8290598 C32.9555462,34.5618868 32.5440143,35.2390796 31.8759086,35.6055152 C31.207803,35.9719508 30.3846396,35.9719508 29.716534,35.6055152 C29.0484284,35.2390796 28.6368964,34.5618868 28.6369771,33.8290598 C28.6368964,33.0962329 29.0484284,32.4190401 29.716534,32.0526045 Z M36.734143,29.9555121 C37.2908701,29.6501569 37.9767862,29.6501569 38.5335133,29.9555121 C39.0902404,30.2608674 39.4331984,30.8251871 39.4331984,31.4358975 C39.4331984,32.3799739 38.6275929,33.1452991 37.6338282,33.1452991 C36.6400634,33.1452991 35.8344579,32.3799739 35.8344579,31.4358975 C35.8344579,30.8251871 36.1774159,30.2608674 36.734143,29.9555121 Z M24.3184885,29.042735 C25.5110062,29.042735 26.4777328,29.9611253 26.4777328,31.0940171 C26.4777328,31.8268696 26.0661832,32.5040532 25.3981107,32.8704795 C24.7300382,33.2369057 23.9069389,33.2369057 23.2388664,32.8704795 C22.5707939,32.5040532 22.1592443,31.8268696 22.1592443,31.0940171 C22.1592443,29.9611253 23.1259709,29.042735 24.3184885,29.042735 Z M22.1592443,22.8888889 C23.3517619,22.8888889 24.3184885,23.8072791 24.3184885,24.9401709 C24.3184885,25.6730234 23.9069389,26.3502071 23.2388664,26.7166333 C22.5707939,27.0830596 21.7476946,27.0830596 21.0796221,26.7166333 C20.4115496,26.3502071 20,25.6730234 20,24.9401709 C20,23.8072791 20.9667266,22.8888889 22.1592443,22.8888889 Z M39.4331476,23.7558682 C39.8785551,23.5115767 40.4273378,23.5115767 40.8727453,23.7558682 C41.3181527,24.0001596 41.5925054,24.4516225 41.5924426,24.9401709 C41.5925054,25.4287194 41.3181527,25.8801823 40.8727453,26.1244737 C40.4273378,26.3687652 39.8785551,26.3687652 39.4331476,26.1244737 C38.9877402,25.8801823 38.7133875,25.4287194 38.7134503,24.9401709 C38.7133875,24.4516225 38.9877402,24.0001596 39.4331476,23.7558682 Z M24.6783626,16.0512821 C26.0696332,16.0512821 27.1974809,17.1227373 27.1974809,18.4444444 C27.1974809,19.299439 26.7173397,20.0894866 25.9379217,20.5169839 C25.1585038,20.9444812 24.1982213,20.9444812 23.4188034,20.5169839 C22.6393855,20.0894866 22.1592443,19.299439 22.1592443,18.4444444 C22.1592443,17.1227373 23.2870919,16.0512821 24.6783626,16.0512821 Z M37.6338282,17.4188034 C38.230087,17.4188034 38.7134503,17.8779985 38.7134503,18.4444444 C38.7134503,19.0108903 38.230087,19.4700855 37.6338282,19.4700855 C37.0375693,19.4700855 36.554206,19.0108903 36.554206,18.4444444 C36.554206,17.8779985 37.0375693,17.4188034 37.6338282,17.4188034 Z M29.8965362,14.320623 C30.6759541,13.8931257 31.6362366,13.8931257 32.4156545,14.320623 C33.1950725,14.7481203 33.6752137,15.5381678 33.6752137,16.3931624 C33.6752137,17.7148695 32.547366,18.7863248 31.1560954,18.7863248 C29.7648247,18.7863248 28.6369771,17.7148695 28.6369771,16.3931624 C28.6369771,15.5381678 29.1171183,14.7481203 29.8965362,14.320623 Z" id="形状结合"></path>
            </g>
        </g>
    </g>
</svg>