<svg id="组件_73_3" data-name="组件 73 – 3" xmlns="http://www.w3.org/2000/svg" width="16" height="14" viewBox="0 0 16 14">
  <path id="矩形_17663" data-name="矩形 17663" d="M943,232h14a1,1,0,0,1,1,1h0a1,1,0,0,1-1,1H943a1,1,0,0,1-1-1h0A1,1,0,0,1,943,232Z" transform="translate(-942 -231.998)" fill="#888f9d"/>
  <path id="矩形_17664" data-name="矩形 17664" d="M942.857,236.331h4.286a.937.937,0,0,1,.857,1h0a.937.937,0,0,1-.857,1h-4.286a.937.937,0,0,1-.857-1h0A.937.937,0,0,1,942.857,236.331Z" transform="translate(-942 -232.33)" fill="#888f9d"/>
  <path id="矩形_17665" data-name="矩形 17665" d="M943,240.665h3a1,1,0,0,1,1,1h0a1,1,0,0,1-1,1h-3a1,1,0,0,1-1-1h0A1,1,0,0,1,943,240.665Z" transform="translate(-942 -232.664)" fill="#888f9d"/>
  <rect id="矩形_17666" data-name="矩形 17666" width="5" height="2" rx="0.913" transform="translate(0 12)" fill="#888f9d"/>
  <path id="路径_3390" data-name="路径 3390" d="M953,237a5,5,0,1,0,5,5A5,5,0,0,0,953,237Zm2.913,6.5h-3.26a.375.375,0,0,1-.11-.01.669.669,0,0,1-.44-.29c-.01,0-.01,0,0-.01a.8.8,0,0,1-.11-.25.41.41,0,0,1-.01-.11V239.2a.7.7,0,0,1,1.4,0v2.9h2.53a.67.67,0,0,1,.67.67v.06A.67.67,0,0,1,955.91,243.5Z" transform="translate(-942 -232.998)" fill="#888f9d"/>
</svg>
