<svg xmlns="http://www.w3.org/2000/svg" viewBox="0 0 28 32"><defs><style>.bed51918-6aa1-4777-a525-23ad7e4d9496{fill:#9e9fa5;}</style></defs><title>资源 89</title><g id="a4d71f8b-ecff-4f67-81b5-3afcde6ecee7" data-name="图层 2"><g id="eae0366c-0ad7-4847-a354-575e13d209a8" data-name="ddc图标"><path class="bed51918-6aa1-4777-a525-23ad7e4d9496" d="M27.71,8.29,26,6.58,21.42,2,19.71.29A1,1,0,0,0,19,0H2A2,2,0,0,0,0,2V30a2,2,0,0,0,2,2H26a2,2,0,0,0,2-2V9A1,1,0,0,0,27.71,8.29ZM20,3.41,24.59,8H21a1,1,0,0,1-1-1ZM26,30H2V2H18V7a3,3,0,0,0,3,3h5Z"/><rect class="bed51918-6aa1-4777-a525-23ad7e4d9496" x="6" y="12" width="12" height="2" rx="0.87"/><rect class="bed51918-6aa1-4777-a525-23ad7e4d9496" x="6" y="17" width="16" height="2" rx="1"/><rect class="bed51918-6aa1-4777-a525-23ad7e4d9496" x="6" y="22" width="16" height="2" rx="1"/></g></g></svg>