<?xml version="1.0" encoding="UTF-8"?>
<svg width="48px" height="48px" viewBox="0 0 48 48" version="1.1" xmlns="http://www.w3.org/2000/svg" xmlns:xlink="http://www.w3.org/1999/xlink">
    <title>编组</title>
    <g id="dam-icon" stroke="none" stroke-width="1" fill="none" fill-rule="evenodd">
        <g id="画板" transform="translate(-1220.000000, -498.000000)" fill="#3274B8">
            <g id="编组" transform="translate(1220.000000, 498.000000)">
                <rect id="矩形备份-31" fill-rule="nonzero" opacity="0.203380766" x="30" y="30.0000267" width="18" height="18" rx="2"></rect>
                <path d="M12,36 L3,36 L3,45 L0,45 L0,3 C-2.02906125e-16,1.34314575 1.34314575,3.04359188e-16 3,0 L45,0 C46.6568542,-3.04359188e-16 48,1.34314575 48,3 L48,25 L26,25 L26,45 C26,46.6568542 24.6568542,48 23,48 L3,48 C1.34314575,48 1.09108455e-15,46.6568542 0,45 L12,45 L12,36 Z M38,33 L38,42 L43,42 L43,45 L35,45 L35,33 L38,33 Z M12,25 L3,25 L3,33 L12,33 L12,25 Z M23,25 L15,25 L15,33 L23,33 L23,25 Z M12,14 L3,14 L3,22 L12,22 L12,14 Z M23,14 L15,14 L15,22 L23,22 L23,14 Z M45,14 L37,14 L37,22 L45,22 L45,14 Z M34,14 L26,14 L26,22 L34,22 L34,14 Z M23,45 L23,36 L15,36 L15,45 L23,45 Z" id="形状结合"></path>
            </g>
        </g>
    </g>
</svg>