<?xml version="1.0" encoding="UTF-8"?>
<svg width="48px" height="48px" viewBox="0 0 48 48" version="1.1" xmlns="http://www.w3.org/2000/svg" xmlns:xlink="http://www.w3.org/1999/xlink">
    <title>编组 2</title>
    <g id="dam-icon" stroke="none" stroke-width="1" fill="none" fill-rule="evenodd">
        <g id="画板" transform="translate(-1292.000000, -498.000000)" fill="#814F7C" fill-rule="nonzero">
            <g id="编组-2" transform="translate(1292.000000, 498.000000)">
                <path d="M45,0 C46.6568542,-3.04359188e-16 48,1.34314575 48,3 L48,27 L45,27 L45,14 L25,14 L25,48 L3,48 C1.34314575,48 2.02906125e-16,46.6568542 0,45 L0,3 C-2.02906125e-16,1.34314575 1.34314575,3.04359188e-16 3,0 L45,0 Z M22,14 L3,14 L3,45 L22,45 L22,14 Z M38,33 L38,42 L43,42 L43,45 L35,45 L35,33 L38,33 Z M18,30.0000248 L18,33.0000248 L7,33.0000248 L7,30.0000248 L18,30.0000248 Z M41,24.0000267 L41,27.0000267 L29,27.0000267 L29,24.0000267 L41,24.0000267 Z M18,24.0000257 L18,27.0000257 L7,27.0000257 L7,24.0000257 L18,24.0000257 Z M18,18.0000267 L18,21.0000267 L7,21.0000267 L7,18.0000267 L18,18.0000267 Z M41,18.0000267 L41,21.0000267 L29,21.0000267 L29,18.0000267 L41,18.0000267 Z" id="形状结合"></path>
                <rect id="矩形备份-30" opacity="0.203380766" x="30" y="30.0000267" width="18" height="18" rx="2"></rect>
            </g>
        </g>
    </g>
</svg>