<?xml version="1.0" standalone="no"?><!DOCTYPE svg PUBLIC "-//W3C//DTD SVG 1.1//EN" "http://www.w3.org/Graphics/SVG/1.1/DTD/svg11.dtd"><svg t="1642062332945" class="icon" viewBox="0 0 1024 1024" version="1.1" xmlns="http://www.w3.org/2000/svg" p-id="3084" xmlns:xlink="http://www.w3.org/1999/xlink" width="200" height="200"><defs><style type="text/css"></style></defs><path d="M875.136 204.586667L733.013333 62.464 679.957333 9.386667A31.082667 31.082667 0 0 0 657.92 0.384H130.410667a62.08 62.08 0 0 0-62.08 62.08v898.922667a62.08 62.08 0 0 0 62.08 62.08h744.725333a62.08 62.08 0 0 0 62.08-62.08V279.68a31.061333 31.061333 0 0 0-9.024-22.037333L875.136 204.586667z m-186.176-98.368l142.421333 142.421333h-111.402666a31.04 31.04 0 0 1-31.018667-31.018667V106.218667z m186.176 855.168H130.389333V62.464h496.490667V217.6a93.098667 93.098667 0 0 0 93.098667 93.077333h155.157333v650.688z" fill="#27C274" p-id="3085"></path><path d="M273.066667 310.613333h249.92c10.24 0 18.56 8.32 18.56 18.56v24.96c0 10.24-8.32 18.56-18.56 18.56H273.088a18.56 18.56 0 0 1-18.56-18.56v-24.96c0-10.24 8.32-18.56 18.56-18.56zM275.84 529.770667h347.178667a21.333333 21.333333 0 0 1 21.333333 21.333333v19.392a21.333333 21.333333 0 0 1-21.333333 21.333333H275.84a21.333333 21.333333 0 0 1-21.333333-21.333333v-19.413333a21.333333 21.333333 0 0 1 21.333333-21.333334z" fill="#27C274" p-id="3086"></path><path d="M254.528 748.906667m21.333333 0l453.824 0q21.333333 0 21.333334 21.333333l0 19.392q0 21.333333-21.333334 21.333333l-453.824 0q-21.333333 0-21.333333-21.333333l0-19.392q0-21.333333 21.333333-21.333333Z" fill="#27C274" p-id="3087"></path></svg>