<?xml version="1.0" encoding="UTF-8"?>
<svg width="48px" height="48px" viewBox="0 0 48 48" version="1.1" xmlns="http://www.w3.org/2000/svg" xmlns:xlink="http://www.w3.org/1999/xlink">
    <title>程序包-48</title>
    <g id="dam-icon" stroke="none" stroke-width="1" fill="none" fill-rule="evenodd">
        <g id="资产状态" transform="translate(-1552.000000, -626.000000)" fill="#5B7E91">
            <g id="编组-27" transform="translate(0.000000, 600.000000)">
                <g id="程序包-48" transform="translate(1552.000000, 26.000000)">
                    <path d="M45,2 C46.6568542,2 48,3.34314575 48,5 L48,15 C48,16.6568542 46.6568542,18 45,18 L44,18 L44,44 C44,45.1045695 43.1045695,46 42,46 L6,46 C4.8954305,46 4,45.1045695 4,44 L4,18 L3,18 C1.34314575,18 0,16.6568542 0,15 L0,5 C0,3.34314575 1.34314575,2 3,2 L45,2 Z M41,18 L30,18 L30,18 L30,21 C30,22.6568542 28.6568542,24 27,24 L20,24 C18.3431458,24 17,22.6568542 17,21 L17,18 L7,18 L7,43 L41,43 L41,18 Z M34.5,37 C35.3284271,37 36,37.6715729 36,38.5 C36,39.3284271 35.3284271,40 34.5,40 L13.5,40 C12.6715729,40 12,39.3284271 12,38.5 C12,37.6715729 12.6715729,37 13.5,37 L34.5,37 Z M27,18 L20,18 L20,21 L27,21 L27,18 Z M17,5 L3,5 L3,15 L17,15 L17,15 L17,5 Z M27,5 L20,5 L20,15 L27,15 L27,5 Z M45,5 L30,5 L30,5 L30,15 L45,15 L45,5 Z" id="形状结合" fill-rule="nonzero"></path>
                    <rect id="矩形" fill-opacity="0.2" x="20" y="5" width="7" height="10"></rect>
                    <rect id="矩形备份-5" fill-opacity="0.2" x="20" y="18" width="7" height="3"></rect>
                </g>
            </g>
        </g>
    </g>
</svg>