<?xml version="1.0" standalone="no"?><!DOCTYPE svg PUBLIC "-//W3C//DTD SVG 1.1//EN" "http://www.w3.org/Graphics/SVG/1.1/DTD/svg11.dtd"><svg t="1642062344698" class="icon" viewBox="0 0 1024 1024" version="1.1" xmlns="http://www.w3.org/2000/svg" p-id="3214" xmlns:xlink="http://www.w3.org/1999/xlink" width="200" height="200"><defs><style type="text/css"></style></defs><path d="M893.84063 204.612321l-142.187862-142.209189-53.083184-53.104511A31.073604 31.073604 0 0 0 676.538676 0.29858H147.839547A62.104553 62.104553 0 0 0 85.777648 62.403132v899.492315A62.083226 62.083226 0 0 0 147.860874 1024H893.861957a62.104553 62.104553 0 0 0 62.083226-62.104553V279.74774a31.073604 31.073604 0 0 0-9.000042-22.030907l-53.104511-53.104512z m-186.271004-98.424626l142.486441 142.507769h-111.434165a31.052276 31.052276 0 0 1-31.052276-31.052277V106.187695z m186.271004 855.707752H147.839547V62.403132h497.625526v155.261383a93.135502 93.135502 0 0 0 93.135502 93.135502h155.218728v651.116757z" fill="#9E9FA5" p-id="3215"></path><path d="M581.675678 434.497272m-77.545383 0a77.545383 77.545383 0 1 0 155.090766 0 77.545383 77.545383 0 1 0-155.090766 0Z" fill="#629FF9" p-id="3216"></path><path d="M625.09768 615.05261l-101.431749 175.564793a21.412421 21.412421 0 0 0 18.917149 31.03095h202.564919a21.412421 21.412421 0 0 0 18.917149-31.03095l-101.431749-175.564793a21.711001 21.711001 0 0 0-37.535719 0z" fill="#2066CC" p-id="3217"></path><path d="M376.935394 508.01183L213.740326 790.318824a21.711001 21.711001 0 0 0 18.917149 31.009622h326.027575a21.711001 21.711001 0 0 0 18.938476-31.009622l-163.173741-282.306994a21.711001 21.711001 0 0 0-37.535718 0z" fill="#629FF9" p-id="3218"></path></svg>