<svg xmlns="http://www.w3.org/2000/svg" viewBox="0 0 28 32"><defs><style>.b95eb20c-6bd8-483f-a116-cfeaad1155f6{fill:#9e9fa5;}.a2da1cf7-c4b1-4f56-8eed-fce088601d2e{fill:#6179aa;}</style></defs><title>资源 88</title><g id="bce0647b-769d-4d4a-9e4e-0cf1cb9b490d" data-name="图层 2"><g id="a031adbe-fa8d-4850-a523-aa468f15805f" data-name="ddc图标"><path class="b95eb20c-6bd8-483f-a116-cfeaad1155f6" d="M27.71,8.29,26,6.58,21.42,2,19.71.29A1,1,0,0,0,19,0H2A2,2,0,0,0,0,2V30a2,2,0,0,0,2,2H26a2,2,0,0,0,2-2V9A1,1,0,0,0,27.71,8.29ZM20,3.41,24.59,8H21a1,1,0,0,1-1-1ZM26,30H2V2H18V7a3,3,0,0,0,3,3h5Z"/><rect class="b95eb20c-6bd8-483f-a116-cfeaad1155f6" x="6" y="12" width="16" height="2" rx="1"/><rect class="b95eb20c-6bd8-483f-a116-cfeaad1155f6" x="6" y="8" width="8" height="2" rx="1"/><path class="a2da1cf7-c4b1-4f56-8eed-fce088601d2e" d="M2,16V28H26V16Zm7.9,3.74H7.79v5.78H6.31V19.77H4.2V18.51H9.9Zm7.29,5.78H15.51L14,23.16h-.08l-1.54,2.39H10.78L13,22,10.8,18.51h1.73L14,21h.09l1.48-2.46h1.65L14.9,22Zm6.61-5.78H21.69v5.78H20.21V19.77H18.1V18.51h5.7Z"/></g></g></svg>