<?xml version="1.0" encoding="UTF-8"?>
<svg width="69px" height="80px" viewBox="0 0 69 80" version="1.1" xmlns="http://www.w3.org/2000/svg" xmlns:xlink="http://www.w3.org/1999/xlink">
    <title>表、视图</title>
    <defs>
        <path d="M54,58 C54,61.3137085 51.7614237,64 49,64 C46.2385763,64 44,61.3137085 44,58 L10,58 L10,6 L10.0037839,5.76440136 C10.1068953,2.5598957 12.3043244,0 15,0 L59,0 C56.2385763,0 54,2.6862915 54,6 L54,58 Z" id="path-1"></path>
        <filter x="-26.5%" y="-17.2%" width="153.1%" height="140.6%" filterUnits="objectBoundingBox" id="filter-2">
            <feOffset dx="0" dy="2" in="SourceAlpha" result="shadowOffsetOuter1"></feOffset>
            <feGaussianBlur stdDeviation="4" in="shadowOffsetOuter1" result="shadowBlurOuter1"></feGaussianBlur>
            <feColorMatrix values="0 0 0 0 0   0 0 0 0 0   0 0 0 0 0  0 0 0 0.06 0" type="matrix" in="shadowBlurOuter1"></feColorMatrix>
        </filter>
        <circle id="path-3" cx="13" cy="13" r="13"></circle>
        <filter x="-26.9%" y="-19.2%" width="153.8%" height="153.8%" filterUnits="objectBoundingBox" id="filter-4">
            <feOffset dx="0" dy="2" in="SourceAlpha" result="shadowOffsetOuter1"></feOffset>
            <feGaussianBlur stdDeviation="2" in="shadowOffsetOuter1" result="shadowBlurOuter1"></feGaussianBlur>
            <feComposite in="shadowBlurOuter1" in2="SourceAlpha" operator="out" result="shadowBlurOuter1"></feComposite>
            <feColorMatrix values="0 0 0 0 0.250980392   0 0 0 0 0.619607843   0 0 0 0 1  0 0 0 0.5 0" type="matrix" in="shadowBlurOuter1"></feColorMatrix>
        </filter>
        <linearGradient x1="12.9208858%" y1="-7.80552455%" x2="132.739119%" y2="143.136161%" id="linearGradient-5">
            <stop stop-color="#FFFFFF" offset="0%"></stop>
            <stop stop-color="#ECF1FF" offset="100%"></stop>
        </linearGradient>
        <circle id="path-6" cx="13" cy="13" r="13"></circle>
        <filter x="-26.9%" y="-19.2%" width="153.8%" height="153.8%" filterUnits="objectBoundingBox" id="filter-7">
            <feOffset dx="0" dy="2" in="SourceAlpha" result="shadowOffsetOuter1"></feOffset>
            <feGaussianBlur stdDeviation="2" in="shadowOffsetOuter1" result="shadowBlurOuter1"></feGaussianBlur>
            <feColorMatrix values="0 0 0 0 0.282352941   0 0 0 0 0.37254902   0 0 0 0 0.776470588  0 0 0 0.3808184 0" type="matrix" in="shadowBlurOuter1"></feColorMatrix>
        </filter>
    </defs>
    <g id="icon、颜色" stroke="none" stroke-width="1" fill="none" fill-rule="evenodd">
        <g id="空状态" transform="translate(-971.000000, -633.000000)">
            <g id="表、视图" transform="translate(973.000000, 639.000000)">
                <circle id="椭圆形" fill="#409EFF" opacity="0.102864583" cx="32" cy="32" r="32"></circle>
                <g id="纸张">
                    <path d="M0,58 L49,58 L49,64 L5,64 C2.23857625,64 0,61.3137085 0,58 Z M54,6 L64,6 C64,2.6862915 61.7614237,0 59,0 C56.2385763,0 54,2.6862915 54,6 Z" id="形状结合" fill="#EEF1F9"></path>
                    <g id="路径">
                        <use fill="black" fill-opacity="1" filter="url(#filter-2)" xlink:href="#path-1"></use>
                        <use fill="#FFFFFF" fill-rule="evenodd" xlink:href="#path-1"></use>
                    </g>
                </g>
                <path d="M14,8 L49,8 L49,10 L14,10 Z M14,14 L40,14 L40,16 L14,16 Z M14,20 L48,20 L48,22 L14,22 Z M14,26 L40,26 L40,28 L14,28 Z M14,32 L30,32 L30,34 L14,34 Z M14,38 L41,38 L41,40 L14,40 Z M14,44 L31,44 L31,46 L14,46 Z M14,50 L35,50 L35,52 L14,52 Z" id="形状结合" fill="#E1EAFA"></path>
                <g id="表" transform="translate(36.000000, 28.000000)">
                    <g id="椭圆形" fill-rule="nonzero">
                        <use fill="black" fill-opacity="1" filter="url(#filter-4)" xlink:href="#path-3"></use>
                        <use fill="#55A9FF" xlink:href="#path-3"></use>
                    </g>
                    <path d="M19.125,6 L6.875,6 C6.39175084,6 6,6.39175084 6,6.875 L6,19.125 C6,19.6082492 6.39175084,20 6.875,20 L19.125,20 C19.6082492,20 20,19.6082492 20,19.125 L20,6.875 C20,6.39175084 19.6082492,6 19.125,6 Z M10.375,19.125 L6.875,19.125 L6.875,16.5 L10.375,16.5 L10.375,19.125 Z M10.375,15.625 L6.875,15.625 L6.875,13.2916667 L10.375,13.2916667 L10.375,15.625 Z M10.375,12.4166667 L6.875,12.4166667 L6.875,10.0833333 L10.375,10.0833333 L10.375,12.4166667 Z M14.75,19.125 L11.25,19.125 L11.25,16.5 L14.75,16.5 L14.75,19.125 Z M14.75,15.625 L11.25,15.625 L11.25,13.2916667 L14.75,13.2916667 L14.75,15.625 Z M14.75,12.4166667 L11.25,12.4166667 L11.25,10.0833333 L14.75,10.0833333 L14.75,12.4166667 Z M19.125,19.125 L15.625,19.125 L15.625,16.5 L19.125,16.5 L19.125,19.125 Z M19.125,15.625 L15.625,15.625 L15.625,13.2916667 L19.125,13.2916667 L19.125,15.625 Z M19.125,12.4166667 L15.625,12.4166667 L15.625,10.0833333 L19.125,10.0833333 L19.125,12.4166667 Z" id="表-48" fill="url(#linearGradient-5)"></path>
                </g>
                <g id="视图" transform="translate(2.000000, 5.000000)">
                    <g id="椭圆形备份-4">
                        <use fill="black" fill-opacity="1" filter="url(#filter-7)" xlink:href="#path-6"></use>
                        <use fill="#6377F6" fill-rule="evenodd" xlink:href="#path-6"></use>
                    </g>
                    <path d="M19.125,6 C19.6082492,6 20,6.39175084 20,6.875 L20,19.125 C20,19.6082492 19.6082492,20 19.125,20 L6.875,20 C6.39175084,20 6,19.6082492 6,19.125 L6,6.875 C6,6.39175084 6.39175084,6 6.875,6 Z M19.125,13.4375 L6.875,13.4375 L6.875,19.125 L19.125,19.125 L19.125,13.4375 Z M11.0948657,13.8751064 L11.1813742,13.8818466 C11.2964099,13.9024898 11.3984425,13.9685327 11.4647193,14.0652484 C11.5157672,14.1387414 11.5432381,14.2261603 11.5434492,14.3157859 C11.5432137,14.4596136 11.4729694,14.5942266 11.3553721,14.6762083 L10.4587255,15.2959591 C10.3716142,15.2390146 10.2793544,15.1904504 10.1831707,15.1509111 L10.289,15.2 L10.3681214,15.2430936 L10.4543516,15.3003545 C10.5585324,15.3638997 10.6540933,15.4407244 10.7386542,15.5289151 C10.9160625,15.7070268 11.0532952,15.9213832 11.1410517,16.1574566 C11.5825023,15.9979881 12.0456964,15.907562 12.5144519,15.8893375 C13.0150291,15.9101423 13.5100019,16.0034061 13.9840776,16.1662474 C14.1498471,15.70921 14.4966389,15.341617 14.9419586,15.1509111 C15.3780902,14.9652844 15.8704793,14.9652844 16.306611,15.1509111 C16.3983374,15.1863487 16.4850854,15.2336298 16.5646702,15.2915637 L16.5690441,15.3003545 L17.8505927,14.394903 C17.9460833,14.3272165 18.0645559,14.3007431 18.1795916,14.3213862 C18.2946274,14.3420293 18.3966599,14.4080723 18.4629367,14.5047879 C18.5139846,14.5782809 18.5414555,14.6656998 18.5416667,14.7553255 C18.5414311,14.8991532 18.4711868,15.0337662 18.3535896,15.1157479 L17.1901359,15.9552684 C17.5155209,16.5685274 17.4508858,17.3168499 17.0252209,17.8645987 C16.5995559,18.4123474 15.8927564,18.6567126 15.2218357,18.4880916 C14.5509149,18.3194706 14.0418017,17.7695128 13.9228431,17.0848851 C13.4810372,16.9058037 13.0122259,16.8032578 12.5363213,16.7816028 C12.0844062,16.7996155 11.6396318,16.9009268 11.2241555,17.0804897 C11.0824469,17.9114178 10.3737591,18.5243096 9.53501251,18.541305 C8.6962659,18.5583004 7.96356884,17.9746151 7.78864378,17.1501028 C7.61371873,16.3255906 8.04580733,15.4923527 8.8185183,15.1640972 C8.98729407,15.0889652 9.16793091,15.0443278 9.35213238,15.0322354 C9.37211891,15.0069311 9.39569835,14.9847167 9.42211455,14.9663044 L10.8523752,13.9553635 C10.9478659,13.8876769 11.0663384,13.8612035 11.1813742,13.8818466 Z M9.5008445,15.8893375 C9.0177184,15.8893375 8.62606732,16.2829146 8.62606732,16.7684166 C8.62606732,17.2539186 9.0177184,17.6474957 9.5008445,17.6474957 C9.9839706,17.6474957 10.3756217,17.2539186 10.3756217,16.7684166 C10.3756217,16.2829146 9.9839706,15.8893375 9.5008445,15.8893375 Z M15.6242848,15.8893375 C15.1411587,15.8893375 14.7495076,16.2829146 14.7495076,16.7684166 L14.7563233,16.8786864 C14.8103029,17.31214 15.1783222,17.6474957 15.6242848,17.6474957 C16.1074109,17.6474957 16.4990619,17.2539186 16.4990619,16.7684166 C16.4990619,16.2829146 16.1074109,15.8893375 15.6242848,15.8893375 Z M14.75,9.9375 L11.25,9.9375 L11.25,12.5625 L14.75,12.5625 L14.75,9.9375 Z M10.375,9.9375 L6.875,9.9375 L6.875,12.5625 L10.375,12.5625 L10.375,9.9375 Z M19.125,9.9375 L15.625,9.9375 L15.625,12.5625 L19.125,12.5625 L19.125,9.9375 Z" id="视图-48" fill="url(#linearGradient-5)"></path>
                </g>
            </g>
        </g>
    </g>
</svg>