<?xml version="1.0" encoding="utf-8"?>
<!-- Generator: Adobe Illustrator 23.1.1, SVG Export Plug-In . SVG Version: 6.00 Build 0)  -->
<svg version="1.1" id="图层_1" xmlns="http://www.w3.org/2000/svg" xmlns:xlink="http://www.w3.org/1999/xlink" x="0px" y="0px"
	 viewBox="0 0 16 12.6" style="enable-background:new 0 0 16 12.6;" xml:space="preserve">
<style type="text/css">
	.st0{fill:#7D8493;}
</style>
<path class="st0" d="M16,7.6c0,2.8-2.2,5-5,5H3c-0.6,0-1-0.4-1-1s0.4-1,1-1h8c1.7,0,3-1.3,3-3s-1.3-3-3-3H6v1.2C6,6.5,5.5,7,4.8,7
	c0,0,0,0,0,0C4.6,7,4.4,6.9,4.2,6.8L0.5,4.4C0,4.1-0.2,3.4,0.2,2.9c0,0,0,0,0,0c0.1-0.1,0.2-0.2,0.3-0.3l3.7-2.4
	C4.7-0.2,5.4,0,5.8,0.5C5.9,0.7,6,0.9,6,1.1v1.5h5C13.8,2.6,16,4.9,16,7.6z"/>
</svg>
