<?xml version="1.0" standalone="no"?><!DOCTYPE svg PUBLIC "-//W3C//DTD SVG 1.1//EN" "http://www.w3.org/Graphics/SVG/1.1/DTD/svg11.dtd"><svg t="1663143619781" class="icon" viewBox="0 0 1024 1024" version="1.1" xmlns="http://www.w3.org/2000/svg" p-id="5165" xmlns:xlink="http://www.w3.org/1999/xlink" width="200" height="200"><path d="M512 0C233.291294 0 6.535529 222.780235 0.150588 500.013176 6.023529 258.108235 189.982118 64.060235 415.984941 64.060235c229.737412 0 416.045176 200.583529 416.045177 447.939765a96.075294 96.075294 0 0 0 96.015058 96.045176A96.075294 96.075294 0 0 0 1024 512c0-282.774588-229.225412-512-512-512z m0 1024c278.799059 0 505.464471-222.780235 511.849412-500.013176-5.872941 241.904941-189.831529 436.013176-415.834353 436.013176-229.737412 0-416.045176-200.643765-416.045177-448a96.075294 96.075294 0 0 0-96.015058-95.954824A96.075294 96.075294 0 0 0 0 512c0 282.774588 229.225412 512 512 512z" p-id="5166" fill="#409eff"></path></svg>