<?xml version="1.0" encoding="utf-8"?>
<!-- Generator: Adobe Illustrator 21.1.0, SVG Export Plug-In . SVG Version: 6.00 Build 0)  -->
<svg version="1.1" id="图层_1" xmlns="http://www.w3.org/2000/svg" xmlns:xlink="http://www.w3.org/1999/xlink" x="0px" y="0px"
	 viewBox="0 0 400 400" style="enable-background:new 0 0 400 400;" xml:space="preserve">
<style type="text/css">
	.st0{enable-background:new    ;}
</style>
<path d="M364.1,43.3H35.9c-4.9,0-9.6,2-13,5.4c-3.5,3.5-5.4,8.2-5.4,13.1v276.5c0,4.9,1.9,9.6,5.4,13.1s8.1,5.4,13,5.4H364
	c4.9,0,9.6-2,13-5.4c3.5-3.5,5.4-8.2,5.4-13.1V61.7c0-4.9-1.9-9.6-5.4-13.1C373.6,45.2,369,43.3,364.1,43.3L364.1,43.3z M360.6,334
	h-322V65.1h322V334L360.6,334z"/>
<g class="st0">
	<path d="M121.8,137c22.1,0,33.5,10.8,33.5,29.8v3.7h-21.5v-4.9c0-8.5-4.1-11.7-11.4-11.7c-7.2,0-11.4,3.2-11.4,11.7
		c0,24.4,44.5,28.9,44.5,62.7c0,18.9-11.6,29.8-33.9,29.8s-33.9-10.8-33.9-29.8v-7.3h21.5v8.5c0,8.5,4.6,11.5,11.8,11.5
		c7.2,0,11.8-3,11.8-11.5c0-24.4-44.5-28.9-44.5-62.7C88.3,147.8,99.6,137,121.8,137z"/>
	<path d="M161.9,138.4h70.4v16.9h-23.8v101.5h-22.8V155.3h-23.8V138.4z"/>
	<path d="M289.8,256.7c-1.2-3-2.1-4.9-2.1-14.5v-18.6c0-11-4.6-15-14.9-15H265v48.2h-22.8V138.4h34.3c23.6,0,33.7,9,33.7,27.2v9.3
		c0,12.2-4.8,20.1-14.9,24c11.4,3.9,15.1,12.9,15.1,25.2v18.3c0,5.8,0.2,10,2.5,14.4H289.8z M265,155.3v36.4h8.9
		c8.5,0,13.7-3,13.7-12.5v-11.7c0-8.5-3.5-12.2-11.6-12.2H265z"/>
</g>
</svg>
