<?xml version="1.0" encoding="UTF-8"?>
<svg width="14px" height="14px" viewBox="0 0 14 14" version="1.1" xmlns="http://www.w3.org/2000/svg" xmlns:xlink="http://www.w3.org/1999/xlink">
    <title>形状结合</title>
    <g id="控件" stroke="none" stroke-width="1" fill="none" fill-rule="evenodd">
        <g id="模型菜单-基本信息" transform="translate(-20.000000, -370.000000)" fill="#409EFF" fill-rule="nonzero">
            <g id="编组" transform="translate(0.000000, 361.000000)">
                <path d="M25.6,16.4666667 C26.1154658,16.4666667 26.5333333,16.8845342 26.5333333,17.4 L26.5333333,22.0666667 C26.5333333,22.5821324 26.1154658,23 25.6,23 L20.9333333,23 C20.4178676,23 20,22.5821324 20,22.0666667 L20,17.4 C20,16.8845342 20.4178676,16.4666667 20.9333333,16.4666667 L25.6,16.4666667 Z M33.0666667,16.4666667 C33.5821324,16.4666667 34,16.8845342 34,17.4 L34,22.0666667 C34,22.5821324 33.5821324,23 33.0666667,23 L28.4,23 C27.8845342,23 27.4666667,22.5821324 27.4666667,22.0666667 L27.4666667,17.4 C27.4666667,16.8845342 27.8845342,16.4666667 28.4,16.4666667 L33.0666667,16.4666667 Z M25.6,17.4 L20.9333333,17.4 L20.9333333,22.0666667 L25.6,22.0666667 L25.6,17.4 Z M25.6,9 C26.1154658,9 26.5333333,9.41786757 26.5333333,9.93333333 L26.5333333,14.6 C26.5333333,15.1154658 26.1154658,15.5333333 25.6,15.5333333 L20.9333333,15.5333333 C20.4178676,15.5333333 20,15.1154658 20,14.6 L20,9.93333333 C20,9.41786757 20.4178676,9 20.9333333,9 L25.6,9 Z M33.0666667,9 C33.5821324,9 34,9.41786757 34,9.93333333 L34,14.6 C34,15.1154658 33.5821324,15.5333333 33.0666667,15.5333333 L28.4,15.5333333 C27.8845342,15.5333333 27.4666667,15.1154658 27.4666667,14.6 L27.4666667,9.93333333 C27.4666667,9.41786757 27.8845342,9 28.4,9 L33.0666667,9 Z M25.6,9.93333333 L20.9333333,9.93333333 L20.9333333,14.6 L25.6,14.6 L25.6,9.93333333 Z M33.0666667,9.93333333 L28.4,9.93333333 L28.4,14.6 L33.0666667,14.6 L33.0666667,9.93333333 Z" id="形状结合"></path>
            </g>
        </g>
    </g>
</svg>
