<?xml version="1.0" encoding="UTF-8"?>
<svg width="20px" height="20px" viewBox="0 0 20 20" version="1.1" xmlns="http://www.w3.org/2000/svg" xmlns:xlink="http://www.w3.org/1999/xlink">
    <title>版本备份</title>
    <g id="模型目录" stroke="none" stroke-width="1" fill="none" fill-rule="evenodd">
        <g id="模型/基本信息-版本记录" transform="translate(-274.000000, -382.000000)" fill-rule="nonzero">
            <g id="列表" transform="translate(220.000000, 172.000000)">
                <g id="列表1备份-3" transform="translate(0.000000, 200.000000)">
                    <g id="版本备份" transform="translate(54.000000, 10.000000)">
                        <path d="M4.4610488,7.96399059 L6.18698146,8.63745912 L9.9997903,10.0189185 C10.0076786,10.0221669 10.0245095,10.0216532 10.0502833,10.0173773 L10.2266283,9.97274183 L10.6495524,9.83422364 L11.6863611,9.45715166 L13.8199618,8.63837225 L15.5426793,7.96436162 C15.689924,7.90675234 15.8534685,7.90722163 16.000382,7.96567499 L19.636395,9.41235773 C19.9799456,9.60694107 20.1011341,10.0439401 19.907077,10.3884223 C19.8431521,10.5018992 19.7495651,10.59574 19.636395,10.6598383 L10.7089237,14.1556125 C10.1821264,14.3682439 9.81978706,14.3682439 9.30343796,14.1556125 L0.36318554,10.6598383 C0.01963495,10.465255 -0.101553483,10.028256 0.0925035976,9.68377373 C0.15642852,9.57029681 0.250015515,9.47645601 0.36318554,9.41235773 L4.0040919,7.96541275 C4.15077149,7.90712032 4.31401116,7.90661227 4.4610488,7.96399059 Z" id="路径" fill="#DDDDDD"></path>
                        <path d="M16.000382,13.6505889 L19.636395,15.0972716 C19.9799456,15.291855 20.1011341,15.728854 19.907077,16.0733361 C19.8431521,16.1868131 19.7495651,16.2806539 19.636395,16.3447522 L10.7089237,19.8405264 C10.1821264,20.0531579 9.81978706,20.0531579 9.30343796,19.8405264 L0.36318554,16.3447522 C0.01963495,16.1501688 -0.101553483,15.7131698 0.0925035976,15.3686876 C0.15642852,15.2552106 0.250015515,15.1613698 0.36318554,15.0972716 L4.0040919,13.6503265 C4.15077149,13.5920341 4.31401116,13.5915261 4.4610488,13.6489044 L6.18698146,14.322373 L9.9997903,15.7038324 L10.0183297,15.7058834 L10.0956509,15.6930558 L10.2266283,15.6576557 L10.5237002,15.5622318 L11.2871018,15.2903288 L12.9192558,14.672652 L15.5426793,13.6492755 C15.689924,13.5916661 15.8534685,13.5921354 16.000382,13.6505889 Z" id="路径" fill="#DDDDDD"></path>
                        <path d="M10.7089237,0.134893036 L19.636395,3.68960678 C19.9799456,3.88419011 20.1011341,4.32118912 19.907077,4.66567136 C19.8431521,4.77914829 19.7495651,4.87298907 19.636395,4.93708735 L10.7089237,8.43286157 C10.1821264,8.64549301 9.81978706,8.64549301 9.30343796,8.43286157 L0.36318554,4.93708735 C0.01963495,4.74250402 -0.101553483,4.30550502 0.0925035976,3.96102277 C0.15642852,3.84754584 0.250015515,3.75370506 0.36318554,3.68960678 L9.30343796,0.134893036 C9.80108034,-0.0449643452 10.2146997,-0.0449643452 10.7089237,0.134893036 Z" id="路径" fill-opacity="0.5" fill="#999999"></path>
                    </g>
                </g>
            </g>
        </g>
    </g>
</svg>