<?xml version="1.0" encoding="UTF-8"?>
<svg width="16px" height="16px" viewBox="0 0 16 16" version="1.1" xmlns="http://www.w3.org/2000/svg" xmlns:xlink="http://www.w3.org/1999/xlink">
    <title>编组 43</title>
    <g id="工作台、数据模型" stroke="none" stroke-width="1" fill="none" fill-rule="evenodd">
        <g id="单表编辑-基本信息-默认" transform="translate(-636.000000, -245.000000)">
            <g id="编组-14" transform="translate(628.000000, 237.000000)">
                <g id="编组-43" transform="translate(8.000000, 8.000000)">
                    <path d="M11.4127424,8 L12.6204986,8 L16,16 L14.4044321,16 L13.6731302,14.1694915 L10.2714681,14.1694915 L9.56232687,16 L8,16 L11.4127424,8 Z M13.1855956,12.9491525 L11.9778393,9.69491525 L10.7479224,12.9491525 L13.1855956,12.9491525 Z" id="形状" fill="#407EFF" fill-rule="nonzero"></path>
                    <path d="M4,10 L8,12.5 L4,15 L4,13 L0,13 L0,12 L4,12 L4,10 Z" id="形状结合" fill="#407EFF"></path>
                    <path d="M4,0 L4,1 L7,1 L7,5 L4,5 L4,8 L3,8 L3,5 L0,5 L0,1 L3,1 L3,0 L4,0 Z M3,2 L1,2 L1,4 L3,4 L3,2 Z M6,2 L4,2 L4,4 L6,4 L6,2 Z" id="形状结合" fill="#7F7F7F" fill-rule="nonzero"></path>
                </g>
            </g>
        </g>
    </g>
</svg>