<?xml version="1.0" encoding="UTF-8"?>
<svg width="64px" height="64px" viewBox="0 0 64 64" version="1.1" xmlns="http://www.w3.org/2000/svg" xmlns:xlink="http://www.w3.org/1999/xlink">
    <title>目录</title>
    <g id="元数据-知识图谱" stroke="none" stroke-width="1" fill="none" fill-rule="evenodd">
        <g id="列表详情" transform="translate(-1752.000000, -48.000000)">
            <g id="目录" transform="translate(1752.000000, 48.000000)">
                <circle id="椭圆形" fill="#F3F2F2" cx="32" cy="32" r="32"></circle>
                <path d="M28,39 L28,43 L24,43 L24,39 L28,39 Z M28,25 L28,29 L24,29 L24,25 L28,25 Z" id="形状结合" fill-opacity="0.4" fill="#888084"></path>
                <path d="M44,16 C44.5522847,16 45,16.4477153 45,17 L45,47 C45,47.5522847 44.5522847,48 44,48 L20,48 C19.4477153,48 19,47.5522847 19,47 L19,17 C19,16.4477153 19.4477153,16 20,16 L44,16 Z M21,22 L21,46 L43,46 L43,22 L21,22 Z M28.7,38.3 L28.7,43.7 L23.3,43.7 L23.3,38.3 L28.7,38.3 Z M27.3,39.7 L24.7,39.7 L24.7,42.3 L27.3,42.3 L27.3,39.7 Z M41,40 L41,42 L31,42 L31,40 L41,40 Z M28.7,31.3 L28.7,36.7 L23.3,36.7 L23.3,31.3 L28.7,31.3 Z M27.3,32.7 L24.7,32.7 L24.7,35.3 L27.3,35.3 L27.3,32.7 Z M41,33 L41,35 L31,35 L31,33 L41,33 Z M28.7,24.3 L28.7,29.7 L23.3,29.7 L23.3,24.3 L28.7,24.3 Z M27.3,25.7 L24.7,25.7 L24.7,28.3 L27.3,28.3 L27.3,25.7 Z M41,26 L41,28 L31,28 L31,26 L41,26 Z" id="形状结合" fill="#888084" fill-rule="nonzero"></path>
            </g>
        </g>
    </g>
</svg>