<?xml version="1.0" encoding="UTF-8"?>
<svg width="64px" height="64px" viewBox="0 0 64 64" version="1.1" xmlns="http://www.w3.org/2000/svg" xmlns:xlink="http://www.w3.org/1999/xlink">
    <title>用户</title>
    <g id="元数据-知识图谱" stroke="none" stroke-width="1" fill="none" fill-rule="evenodd">
        <g id="列表详情" transform="translate(-2176.000000, -48.000000)">
            <g id="用户" transform="translate(2176.000000, 48.000000)">
                <circle id="椭圆形" fill="#F6F2EF" cx="32" cy="32" r="32"></circle>
                <g transform="translate(15.000000, 20.000000)" fill="#A88462" fill-rule="nonzero">
                    <path d="M10,13 C12.9994331,13 16.8447266,13.6878662 19.2902832,17.2432861 C17.9076054,18.9571533 17.4143485,19.9793613 17.1919854,20.8817271 L17.1327848,21.1494134 L17.0861266,21.4133401 L17.0482997,21.676938 L17,22.0792236 C16.9390462,22.6137204 16.9319855,23.0507878 16.9493903,23.4081066 L16.9696139,23.695262 C16.9737543,23.7400036 16.9782224,23.7832208 16.9829325,23.8249651 L17.0134094,24.0581688 L17.0984945,24.5704269 L17.111014,24.6869762 C17.1216721,24.8788307 17.0577909,24.9548379 16.8051783,24.9836066 L16.6479861,24.9950262 L16.333,25 L1.667,25 C0.746341322,25 0,24.2536587 0,23.333 L0,23 C0,17.4771525 4.4771525,13 10,13 Z M10,15 C5.66508574,15 2.13545713,18.4478378 2.00380682,22.7508207 L2,23 L14.941,23 L14.9410628,22.9141545 C14.9446149,22.6934531 14.9560787,22.4642064 14.9761737,22.2232428 L15.0128795,21.8526133 C15.1993812,20.2172012 15.5417865,19.0928113 16.522433,17.6150532 L16.741,17.294 L16.7035329,17.2560521 C15.1400577,15.7278038 13.0098478,15.0567336 10.3499448,15.0034642 L10,15 Z M10,0 C13.3137085,0 16,2.6862915 16,6 C16,9.3137085 13.3137085,12 10,12 C6.6862915,12 4,9.3137085 4,6 C4,2.6862915 6.6862915,0 10,0 Z" id="形状结合" fill-opacity="0.5"></path>
                    <path d="M25,13 L25,13 C30.5228475,13 35,17.4771525 35,23 L35,23.333 C35,23.7751159 34.8243701,24.1991239 34.511747,24.511747 C34.1991239,24.8243701 33.7751159,25 33.333,25 L16.667,25 C15.7463413,25 15,24.2536587 15,23.333 L15,23 C15,17.4771525 19.4771525,13 25,13 Z" id="矩形_18059" fill-opacity="0.2"></path>
                    <path d="M25,13 C30.5228475,13 35,17.4771525 35,23 L35,23.333 C35,23.7751159 34.8243701,24.1991239 34.511747,24.511747 C34.1991239,24.8243701 33.7751159,25 33.333,25 L16.667,25 C15.7463413,25 15,24.2536587 15,23.333 L15,23 C15,17.5707601 19.3266708,13.1520683 24.7200952,13.0038418 L25,13 Z M25.0274482,14.9998116 L24.77504,15.0030869 C20.5360882,15.1195852 17.133128,18.5303032 17.0038126,22.7508191 L17,23 L33,23 C33,18.6650857 29.5521622,15.1354571 25.2491793,15.0038068 L25.0274482,14.9998116 Z M25,0 C28.3137085,0 31,2.6862915 31,6 C31,9.3137085 28.3137085,12 25,12 C21.6862915,12 19,9.3137085 19,6 C19,2.6862915 21.6862915,0 25,0 Z" id="形状结合"></path>
                </g>
            </g>
        </g>
    </g>
</svg>