<?xml version="1.0" encoding="UTF-8"?>
<svg width="14px" height="14px" viewBox="0 0 14 14" version="1.1" xmlns="http://www.w3.org/2000/svg" xmlns:xlink="http://www.w3.org/1999/xlink">
    <title>icon集合</title>
    <g id="项目管理-编辑" stroke="none" stroke-width="1" fill="none" fill-rule="evenodd">
        <g id="icon集合" transform="translate(-77.000000, -151.000000)" fill="#4AA6C8">
            <g id="模型-2" transform="translate(77.500000, 151.000000)">
                <polygon id="多边形" opacity="0.09765625" points="6.5 0.466666667 12.5666667 3.26666667 6.5 6.06666667 0.433333333 3.26666667"></polygon>
                <polygon id="矩形" opacity="0.3" points="0.433333333 3.26666667 6.5 6.06666667 6.5 13.5333333 0.433333333 10.7333333"></polygon>
                <polygon id="矩形" opacity="0.2" transform="translate(9.533333, 8.400000) scale(-1, 1) translate(-9.533333, -8.400000) " points="6.5 3.26666667 12.5666667 6.06666667 12.5666667 13.5333333 6.5 10.7333333"></polygon>
                <path d="M6.65297126,13.9701321 C6.61435228,13.9859513 6.57345948,13.9959376 6.53145365,13.9992666 L6.47333048,13.9995847 C6.44663909,13.9975304 6.42503456,13.9939835 6.40389743,13.9887428 C6.38450541,13.9839348 6.3655068,13.9777011 6.34702874,13.9701321 L6.32930164,13.9622677 L0.262634971,11.1622677 C0.103305303,11.0887309 0,10.9200131 0,10.7333333 L0,3.26666667 C0,3.20684038 0.010143135,3.15049452 0.0284350853,3.09904531 C0.0310295072,3.09073973 0.0341313588,3.08257144 0.0374543213,3.07449209 C0.0437780716,3.06051739 0.0503599509,3.04671983 0.0575322744,3.03337172 C0.0659804728,3.01590829 0.0759059601,2.99968007 0.0868691403,2.98408754 C0.0906362621,2.98049242 0.0937985253,2.97618049 0.097027535,2.9719337 C0.107356676,2.95658856 0.119327063,2.94265902 0.132243648,2.92944465 C0.140954675,2.92186116 0.150183319,2.91307975 0.15973148,2.90473491 C0.189140411,2.8782532 0.223726086,2.85569027 0.262634971,2.83773232 L0.19159465,2.87936281 C0.212049499,2.86456059 0.233655984,2.85160895 0.256165154,2.84068468 L6.32930164,0.0377323193 C6.43830612,-0.0125774398 6.56169388,-0.0125774398 6.67069836,0.0377323193 L12.737365,2.83773232 C12.766344,2.85160895 12.7879505,2.86456059 12.8084053,2.87936281 C12.8204007,2.88731405 12.831003,2.8956557 12.8411221,2.9043978 C12.8498167,2.91307975 12.8590453,2.92186116 12.8679236,2.9310572 C12.8806729,2.94265902 12.8926433,2.95658856 12.9036675,2.9711285 C12.9062015,2.97618049 12.9093637,2.98049242 12.9124571,2.98486797 C12.924094,2.99968007 12.9340195,3.01590829 12.9429073,3.03265187 C12.94964,3.04671983 12.9562219,3.06051739 12.9621671,3.07473155 C12.9658686,3.08257144 12.9689705,3.09073973 12.9718512,3.09898512 C12.9898569,3.15049452 13,3.20684038 13,3.26666667 L13,10.7333333 C13,10.9200131 12.8966947,11.0887309 12.737365,11.1622677 L6.67069836,13.9622677 Z M0.866,3.974 L0.866666667,10.4253333 L6.06666667,12.8258667 L6.066,6.374 L0.866,3.974 Z M12.133,3.974 L6.933,6.374 L6.93333333,12.8258667 L12.1333333,10.4253333 L12.133,3.974 Z M6.5,0.973466667 L1.533,3.266 L6.5,5.55893333 L11.4668667,3.26666667 L6.5,0.973466667 Z" id="形状结合" fill-rule="nonzero"></path>
            </g>
        </g>
    </g>
</svg>