<?xml version="1.0" encoding="UTF-8"?>
<svg width="32px" height="33px" viewBox="0 0 32 33" version="1.1" xmlns="http://www.w3.org/2000/svg" xmlns:xlink="http://www.w3.org/1999/xlink">
    <title>icon</title>
    <defs>
        <linearGradient x1="50%" y1="7.90642632%" x2="50%" y2="99.5028409%" id="linearGradient-1">
            <stop stop-color="#FFC39A" offset="0%"></stop>
            <stop stop-color="#F65C63" offset="100%"></stop>
        </linearGradient>
        <path d="M20.6664433,9.63635687 C20.3883027,9.42813878 20.0405931,9.4975177 19.8319673,9.63635687 C19.6233414,9.84454786 19.4842304,10.1916051 19.6233414,10.469175 C19.7624525,10.7468805 19.8319673,11.0938293 19.901482,11.4408595 C18.0239041,7.06836082 14.8944356,6.09656793 14.7554332,6.02721612 C14.5468074,5.9578372 14.2685853,6.02721612 14.1294743,6.1660553 C13.9208485,6.30489447 13.8513609,6.58246437 13.9208485,6.79068247 C14.1990977,8.66467243 13.3646217,10.8856112 11.4173388,13.5230675 C11.2783365,12.9678193 11.0697107,12.4125439 10.722001,11.7879167 C10.5133752,11.5796986 10.2351531,11.4408595 9.95701253,11.5103468 C9.60930286,11.5796986 9.40067705,11.7879167 9.40067705,12.134974 C9.33116228,13.1760103 8.84434158,14.1476947 8.28797894,15.1888394 C7.80123972,16.0910636 7.31439185,17.062748 7.10579321,18.1038927 C6.41042819,21.3659762 9.26156602,25.252714 12.1823001,26.3632376 C12.3909259,26.4325894 12.5996604,26.5019683 12.8777738,26.5714286 C12.3214383,26.1550195 11.9737015,25.460905 11.8346991,24.4892476 C11.2783365,20.2554526 15.8680226,19.144929 16.0767571,15.2582183 C19.4147428,17.5486445 20.9446654,22.5458787 19.067006,26.2243984 C19.1364936,26.2243984 19.206117,26.1550195 19.2756318,26.1550195 C19.2756318,26.1550195 19.3451194,26.1550195 19.3451194,26.0855321 C22.8918395,24.1421904 24.8389865,21.5741943 24.9780976,18.5896807 C25.3257258,14.008964 21.4314046,10.1221449 20.6664433,9.63635687 Z" id="path-2"></path>
        <filter x="-38.9%" y="-24.3%" width="177.8%" height="168.1%" filterUnits="objectBoundingBox" id="filter-3">
            <feOffset dx="0" dy="2" in="SourceAlpha" result="shadowOffsetOuter1"></feOffset>
            <feGaussianBlur stdDeviation="2" in="shadowOffsetOuter1" result="shadowBlurOuter1"></feGaussianBlur>
            <feColorMatrix values="0 0 0 0 1   0 0 0 0 0.75939956   0 0 0 0 0.748208841  0 0 0 1 0" type="matrix" in="shadowBlurOuter1"></feColorMatrix>
        </filter>
    </defs>
    <g id="数据资产" stroke="none" stroke-width="1" fill="none" fill-rule="evenodd">
        <g id="数据资产-首页" transform="translate(-386.000000, -896.000000)">
            <g id="热门资产推荐" transform="translate(370.000000, 880.000000)">
                <g id="icon" transform="translate(16.000000, 16.000000)">
                    <rect id="矩形" fill="#FEEFF0" x="0" y="0" width="32" height="32" rx="6"></rect>
                    <g id="hot">
                        <use fill="black" fill-opacity="1" filter="url(#filter-3)" xlink:href="#path-2"></use>
                        <use fill="url(#linearGradient-1)" fill-rule="evenodd" xlink:href="#path-2"></use>
                    </g>
                </g>
            </g>
        </g>
    </g>
</svg>