<?xml version="1.0" encoding="UTF-8"?>
<svg width="64px" height="64px" viewBox="0 0 64 64" version="1.1" xmlns="http://www.w3.org/2000/svg" xmlns:xlink="http://www.w3.org/1999/xlink">
    <title>存储过程</title>
    <g id="元数据-知识图谱" stroke="none" stroke-width="1" fill="none" fill-rule="evenodd">
        <g id="列表详情" transform="translate(-868.000000, -48.000000)">
            <g id="存储过程" transform="translate(868.000000, 48.000000)">
                <circle id="椭圆形" fill="#F2F1F6" cx="32" cy="32" r="32"></circle>
                <path d="M44,16 L24.33,16 C22.2147494,16 20.5,17.7147494 20.5,19.83 L20.5,40 L20,40 C17.790861,40 16,41.790861 16,44 C16,46.209139 17.790861,48 20,48 L39.7,48 C40.7130421,48 41.6841613,47.5955601 42.3976682,46.8764202 C43.1111752,46.1572803 43.5079977,45.1830105 43.5,44.17 L43.5,24 L44,24 C46.209139,24 48,22.209139 48,20 C48,17.790861 46.209139,16 44,16 Z M20.6666667,46 L20.1333333,46 C18.9551259,46 18,45.1045695 18,44 C18,42.8954305 18.9551259,42 20.1333333,42 L20.6666667,42 L20.6666667,46 Z M41.9695219,44.1700018 C41.9751725,45.1712942 41.1580396,45.9890121 40.140833,46 L22.6666667,46 L22.6666667,19.8300259 C22.6639734,19.3438639 22.8589754,18.8768388 23.2082285,18.5330652 C23.5574816,18.1892916 24.0319508,17.997349 24.5258618,18 L29.8798565,18 C30.6662642,19.7314065 30.3739446,21.7533168 29.1280622,23.2000225 C29.0074574,23.345269 28.9816829,23.5455433 29.0616832,23.7158032 C29.1416835,23.886063 29.3134165,23.9964232 29.5039593,24.0000217 L42,24.0000217 L42,44.1700018 L41.9695219,44.1700018 Z M43.900205,21.9979927 L32,21.9979927 C32.1976614,21.3510919 32.2965282,20.6768577 32.2931085,19.9991027 C32.2965282,19.3213477 32.1976614,18.6471135 32,18.0002127 L44.0174484,18.0002127 C44.5987445,17.9915455 45.1536285,18.2480983 45.5313486,18.7001704 C45.9090688,19.1522426 46.0703976,19.7528849 45.971505,20.338914 C45.7750442,21.3384906 44.8959605,22.0426228 43.900205,21.9979927 L43.900205,21.9979927 Z M31.3333333,30.2056247 C31.279369,30.5633519 31.0565241,30.8775036 30.7289596,31.0576302 C30.5911199,31.1184878 30.5168986,31.0576302 30.3472498,30.9156293 C30.0484183,30.4796985 29.5708411,30.1849549 29.0324718,30.1041955 C28.8196241,30.1038896 28.6160376,30.1874437 28.4695969,30.3352054 C28.3231563,30.4829671 28.2467862,30.6818952 28.2584493,30.8852006 C28.2584493,31.3619179 28.7143804,31.6966344 29.3929755,32.2037805 C30.5168986,33.0456432 30.8774023,33.4513601 30.8774023,34.1309359 C30.8774023,35.4799447 28.7567926,36.6666667 27.6964877,36.6666667 C26.8906561,36.6666667 26.0424122,36.1595205 26,35.4799447 C26.0475165,35.09185 26.3238548,34.764376 26.7104042,34.6380821 C26.8164347,34.6380821 26.8906561,34.6380821 26.9966865,34.7699401 C27.3592014,35.3560381 27.9784723,35.7546953 28.6825712,35.8552328 C28.908344,35.8662449 29.1291841,35.7894924 29.2949149,35.6424142 C29.4606457,35.4953361 29.5571943,35.2904211 29.5626243,35.0742278 C29.5626243,34.7395113 29.3505633,34.4047948 28.5765408,33.7962195 C27.8025182,33.1876441 26.9860835,32.7413555 26.9860835,31.8284924 C27.0222808,31.1373726 27.3901281,30.5009861 27.98277,30.1041955 C28.5193855,29.6631885 29.1866833,29.3936672 29.8913188,29.3333333 C30.7289596,29.3333333 31.3333333,29.7390503 31.3333333,30.2056247 Z M34.9552703,29.2058824 C35.4279586,29.0914031 35.9143026,29.038649 36.4014002,29.0490196 C38.0194477,29.0490196 38.6666667,29.8333333 38.6666667,31.1666667 C38.623284,32.3415831 38.1583326,33.4649917 37.3520031,34.3431373 C36.5417211,35.2200975 35.4887074,35.8530255 34.3181641,36.1666667 C34.0431339,36.1671267 33.769869,36.1240774 33.5091404,36.0392157 L33.0742902,38.3921569 C32.9023726,39.245098 32.9731622,39.372549 33.8125243,39.4705882 L34.1866978,39.4705882 L34.1159082,39.8039216 L30,40 L30.0707896,39.6666667 C31.1831972,39.4705882 31.2539868,39.3431373 31.4865811,38.3333333 C32.0225593,35.9411765 32.6697783,32.8039216 33.2057565,30.1960784 C32.7626734,30.3442135 32.3330813,30.5278543 31.9214313,30.745098 L31.8203034,30.3921569 C32.3008876,30.1137856 32.7971935,29.861756 33.3068845,29.6372549 L33.478802,28.9803922 C33.9600231,28.5563227 34.5191984,28.2237482 35.1271879,28 L35.2586542,28.0980392 L34.9552703,29.2058824 Z M33.3333333,35.47 C33.5137042,35.7922118 33.864357,35.9953607 34.2481598,36 C35.1945321,36 36.6666667,33.77 36.6666667,31.64 C36.6666667,30.3 36.0672976,30 35.1945321,30 C34.9455033,30.0009213 34.6978036,30.034573 34.4584648,30.1 C34.1009464,31.77 33.6487907,33.71 33.3333333,35.44 L33.3333333,35.47 Z" id="储存过程(48*48)" fill="#867BA9" fill-rule="nonzero"></path>
            </g>
        </g>
    </g>
</svg>