<?xml version="1.0" encoding="UTF-8"?>
<svg width="64px" height="64px" viewBox="0 0 64 64" version="1.1" xmlns="http://www.w3.org/2000/svg" xmlns:xlink="http://www.w3.org/1999/xlink">
    <title>业务规则</title>
    <g id="元数据-知识图谱" stroke="none" stroke-width="1" fill="none" fill-rule="evenodd">
        <g id="列表详情" transform="translate(-1876.000000, -48.000000)">
            <g id="业务规则" transform="translate(1876.000000, 48.000000)">
                <circle id="椭圆形" fill="#F8F1ED" cx="32" cy="32" r="32"></circle>
                <g id="编组-5" transform="translate(17.000000, 16.000000)" fill="#BF794E">
                    <rect id="矩形" fill-opacity="0.2" x="0" y="20" width="30" height="12" rx="2"></rect>
                    <path d="M24,0 C25.1045695,0 26,0.8954305 26,2 L26,20 L28,20 C29.1045695,20 30,20.8954305 30,22 L30,30 C30,31.1045695 29.1045695,32 28,32 L2,32 C0.8954305,32 0,31.1045695 0,30 L0,22 C0,20.8954305 0.8954305,20 2,20 L4,20 L4,20 L4,2 C4,0.8954305 4.8954305,0 6,0 L24,0 Z M22,26 L20,26 L20,22 L18,22 L18,26 L16,26 L16,22 L14,22 L14,28 L12,28 L12,22 L10,22 L10,26 L8,26 L8,22 L6,22 L6,26 L4,26 L4,22 L2,22 L2,30 L28,30 L28,22 L26,22 L26,28 L24,28 L24,22 L22,22 L22,26 Z M24,2 L6,2 L6,20 L24,20 L24,2 Z M21,13 C21.5522847,13 22,13.4477153 22,14 C22,14.5522847 21.5522847,15 21,15 L9,15 C8.44771525,15 8,14.5522847 8,14 C8,13.4477153 8.44771525,13 9,13 L21,13 Z M13,4 C13.5522847,4 14,4.44771525 14,5 L14,9 C14,9.55228475 13.5522847,10 13,10 L9,10 C8.44771525,10 8,9.55228475 8,9 L8,5 C8,4.44771525 8.44771525,4 9,4 L13,4 Z M21,8 C21.5522847,8 22,8.44771525 22,9 C22,9.55228475 21.5522847,10 21,10 L17,10 C16.4477153,10 16,9.55228475 16,9 C16,8.44771525 16.4477153,8 17,8 L21,8 Z M21,4 C21.5522847,4 22,4.44771525 22,5 C22,5.55228475 21.5522847,6 21,6 L17,6 C16.4477153,6 16,5.55228475 16,5 C16,4.44771525 16.4477153,4 17,4 L21,4 Z" id="形状结合" fill-rule="nonzero"></path>
                </g>
            </g>
        </g>
    </g>
</svg>