<svg xmlns="http://www.w3.org/2000/svg" width="15" height="18" viewBox="0 0 15 18">
  <g id="组件_24_2" data-name="组件 24 – 2" transform="translate(0 18) rotate(-90)">
    <path id="路径_2569" data-name="路径 2569" d="M712.542,336.344v3.2a.43.43,0,0,1-.4.4h-3.2a.43.43,0,0,1-.4-.4v-3.2a.43.43,0,0,1,.4-.4h1.1v-3h-6v3h1.1a.43.43,0,0,1,.4.4v3.2a.43.43,0,0,1-.4.4h-3.2a.43.43,0,0,1-.4-.4v-3.2a.43.43,0,0,1,.4-.4h1.1v-3h-6v3h1.1a.43.43,0,0,1,.4.4v3.2a.43.43,0,0,1-.4.4h-3.2a.43.43,0,0,1-.4-.4v-3.2a.43.43,0,0,1,.4-.4h1.1v-4h7v-3h-2.1a.43.43,0,0,1-.4-.4v-3.2a.43.43,0,0,1,.4-.4h5.2a.43.43,0,0,1,.4.4v3.2a.43.43,0,0,1-.4.4h-2.1v3h7v4h1.1A.43.43,0,0,1,712.542,336.344Z" transform="translate(-694.542 -324.944)" fill="#afb4bf"/>
  </g>
</svg>
