<?xml version="1.0" encoding="UTF-8"?>
<svg width="48px" height="48px" viewBox="0 0 48 48" version="1.1" xmlns="http://www.w3.org/2000/svg" xmlns:xlink="http://www.w3.org/1999/xlink">
    <title>字段-48</title>
    <g id="icon" stroke="none" stroke-width="1" fill="none" fill-rule="evenodd">
        <g id="资产状态" transform="translate(-279.000000, -842.000000)" fill="#EBC251" fill-rule="nonzero">
            <path d="M326.115,842.885015 L325.965,842.750015 C325.877577,842.661426 325.782174,842.581086 325.68,842.510015 C325.183388,842.176286 324.598328,841.998679 324,842.000007 L282,842.000007 C280.343146,842.000007 279,843.34316 279,845.000007 L279,887.000007 C279,888.656862 280.343146,890.000007 282,890.000007 L324,890.000007 C325.656854,890.000007 327,888.656862 327,887.000007 L327,845.000007 C326.996651,844.205649 326.678382,843.44504 326.115,842.885015 Z M301,887.000007 L282,887.000007 L282,856.000007 L301,856.000007 L301,887.000007 Z M324,887.000007 L305,887.000007 L305,856.000007 L324,856.000007 L324,887.000007 Z" id="字段-48"></path>
        </g>
    </g>
</svg>