<?xml version="1.0" encoding="UTF-8"?>
<svg width="64px" height="64px" viewBox="0 0 64 64" version="1.1" xmlns="http://www.w3.org/2000/svg" xmlns:xlink="http://www.w3.org/1999/xlink">
    <title>时间周期</title>
    <g id="控件" stroke="none" stroke-width="1" fill="none" fill-rule="evenodd">
        <g id="知识图谱" transform="translate(-2962.000000, -18.000000)">
            <g id="时间周期" transform="translate(2962.000000, 18.000000)">
                <circle id="椭圆形" fill="#E7F4FF" cx="32" cy="32" r="32"></circle>
                <path d="M46,19 C47.1045695,19 48,19.8954305 48,21 L48,46 C48,47.1045695 47.1045695,48 46,48 L18,48 C16.8954305,48 16,47.1045695 16,46 L16,21 C16,19.8954305 16.8954305,19 18,19 L46,19 Z M46,21 L18,21 L18,46 L46,46 L46,21 Z" id="矩形" fill="#1392FF" fill-rule="nonzero"></path>
                <rect id="矩形" fill="#1392FF" x="21" y="17" width="8" height="4" rx="1"></rect>
                <rect id="矩形备份-54" fill="#1392FF" x="35" y="17" width="8" height="4" rx="1"></rect>
                <polygon id="矩形备份-60" fill="#1392FF" points="18 25 46 25 46 27 18 27"></polygon>
                <polygon id="矩形备份-61" fill-opacity="0.2" fill="#1392FF" points="18 21 46 21 46 25 18 25"></polygon>
                <rect id="矩形" fill="#1392FF" x="22" y="31" width="4" height="4" rx="1"></rect>
                <rect id="矩形备份-57" fill="#1392FF" x="22" y="39" width="4" height="4" rx="1"></rect>
                <rect id="矩形备份-55" fill="#1392FF" x="30" y="31" width="4" height="4" rx="1"></rect>
                <rect id="矩形备份-58" fill="#1392FF" x="30" y="39" width="4" height="4" rx="1"></rect>
                <rect id="矩形备份-56" fill="#1392FF" x="38" y="31" width="4" height="4" rx="1"></rect>
                <rect id="矩形备份-59" fill="#1392FF" x="38" y="39" width="4" height="4" rx="1"></rect>
            </g>
        </g>
    </g>
</svg>