<?xml version="1.0" encoding="UTF-8"?>
<svg width="64px" height="64px" viewBox="0 0 64 64" version="1.1" xmlns="http://www.w3.org/2000/svg" xmlns:xlink="http://www.w3.org/1999/xlink">
    <title>技术规则</title>
    <g id="元数据-知识图谱" stroke="none" stroke-width="1" fill="none" fill-rule="evenodd">
        <g id="列表详情" transform="translate(-1964.000000, -48.000000)">
            <g id="技术规则" transform="translate(1964.000000, 48.000000)">
                <circle id="椭圆形" fill="#F2F5ED" cx="32" cy="32" r="32"></circle>
                <rect id="矩形" fill-opacity="0.2" fill="#85A452" x="16" y="36" width="32" height="12" rx="2"></rect>
                <path d="M41.8181818,16 C43.0231667,16 44,16.8954305 44,18 L44,36 L45.8666667,36 C47.0448741,36 48,36.8954305 48,38 L48,46 C48,47.1045695 47.0448741,48 45.8666667,48 L18.1333333,48 C16.9551259,48 16,47.1045695 16,46 L16,38 C16,36.8954305 16.9551259,36 18.1333333,36 L20,36 L20,18 C20,16.8954305 20.9768333,16 22.1818182,16 L41.8181818,16 Z M46,38 L18,38 L18,46 L46,46 L46,38 Z M26,40 C27.1045695,40 28,40.8954305 28,42 C28,43.1045695 27.1045695,44 26,44 C24.8954305,44 24,43.1045695 24,42 C24,40.8954305 24.8954305,40 26,40 Z M32,40 C33.1045695,40 34,40.8954305 34,42 C34,43.1045695 33.1045695,44 32,44 C30.8954305,44 30,43.1045695 30,42 C30,40.8954305 30.8954305,40 32,40 Z M38,40 C39.1045695,40 40,40.8954305 40,42 C40,43.1045695 39.1045695,44 38,44 C36.8954305,44 36,43.1045695 36,42 C36,40.8954305 36.8954305,40 38,40 Z M42,18 L22,18 L22,36 L42,36 L42,18 Z M32.1799308,22 C32.4659746,22 32.7497116,22.0507497 33.0311419,22.1522491 C33.3125721,22.2537486 33.5686275,22.4013841 33.799308,22.5951557 C34.0207612,22.7981546 34.200692,23.0519031 34.3391003,23.3564014 C34.4775087,23.6608997 34.5467128,24.011534 34.5467128,24.4083045 L34.5467128,29.6124567 C34.5467128,30 34.4775087,30.3367935 34.3391003,30.6228374 L35.2110727,31.3287197 L34.4913495,32.1868512 L33.6608997,31.5086505 C33.2364475,31.8500577 32.7427912,32.0207612 32.1799308,32.0207612 C31.893887,32.0207612 31.6101499,31.9700115 31.3287197,31.8685121 C31.0472895,31.7670127 30.7958478,31.6147636 30.5743945,31.4117647 C30.343714,31.2179931 30.1591696,30.9734717 30.0207612,30.6782007 C29.8823529,30.3829296 29.8131488,30.0276817 29.8131488,29.6124567 L29.8131488,24.4083045 C29.8131488,24.011534 29.8823529,23.6608997 30.0207612,23.3564014 C30.1591696,23.0519031 30.343714,22.7981546 30.5743945,22.5951557 C30.7958478,22.4013841 31.0472895,22.2537486 31.3287197,22.1522491 C31.6101499,22.0507497 31.893887,22 32.1799308,22 Z M26.4913495,22 C26.8419839,22 27.1626298,22.0645905 27.4532872,22.1937716 C27.7439446,22.3229527 27.9953864,22.4936563 28.2076125,22.7058824 C28.6320646,23.1487889 28.8442907,23.656286 28.8442907,24.2283737 L28.8442907,24.9204152 L27.432526,24.9204152 L27.432526,24.6020761 C27.432526,24.2791234 27.3564014,24 27.2041522,23.7647059 C27.0519031,23.5294118 26.7958478,23.4117647 26.4359862,23.4117647 C26.2422145,23.4117647 26.0853518,23.4486736 25.9653979,23.5224913 C25.8454441,23.5963091 25.7485582,23.6885813 25.6747405,23.799308 C25.6009227,23.9192618 25.550173,24.0553633 25.5224913,24.2076125 C25.4948097,24.3598616 25.4809689,24.5190311 25.4809689,24.6851211 C25.4809689,24.8788927 25.4878893,25.0403691 25.5017301,25.1695502 C25.5155709,25.2987313 25.550173,25.4140715 25.6055363,25.5155709 C25.6608997,25.6170704 25.7416378,25.704729 25.8477509,25.7785467 C25.9538639,25.8523645 26.0991926,25.9261822 26.283737,26 L27.3633218,26.4290657 C27.6770473,26.5490196 27.9307958,26.6897347 28.1245675,26.8512111 C28.3183391,27.0126874 28.4705882,27.1995386 28.5813149,27.4117647 C28.6828143,27.633218 28.7520185,27.8846597 28.7889273,28.16609 C28.8258362,28.4475202 28.8442907,28.7681661 28.8442907,29.1280277 C28.8442907,29.5432526 28.8027682,29.928489 28.7197232,30.283737 C28.6366782,30.638985 28.5028835,30.9411765 28.3183391,31.1903114 C28.1245675,31.4486736 27.8708189,31.6516724 27.5570934,31.799308 C27.2433679,31.9469435 26.8604383,32.0207612 26.4083045,32.0207612 C26.0668973,32.0207612 25.7485582,31.9607843 25.4532872,31.8408304 C25.1580161,31.7208766 24.9042676,31.5547866 24.6920415,31.3425606 C24.4798155,31.1303345 24.3114187,30.8835063 24.1868512,30.6020761 C24.0622837,30.3206459 24,30.0138408 24,29.6816609 L24,29.1557093 L25.4117647,29.1557093 L25.4117647,29.5986159 C25.4117647,29.8569781 25.4878893,30.0899654 25.6401384,30.2975779 C25.7923875,30.5051903 26.0484429,30.6089965 26.4083045,30.6089965 C26.6482122,30.6089965 26.8350634,30.5743945 26.9688581,30.5051903 C27.1026528,30.4359862 27.2064591,30.3367935 27.2802768,30.2076125 C27.3540946,30.0784314 27.3979239,29.9238754 27.4117647,29.7439446 C27.4256055,29.5640138 27.432526,29.3633218 27.432526,29.1418685 C27.432526,28.8835063 27.4232987,28.6712803 27.4048443,28.5051903 C27.3863899,28.3391003 27.349481,28.2053057 27.2941176,28.1038062 C27.2295271,28.0023068 27.1441753,27.9192618 27.0380623,27.8546713 C26.9319493,27.7900807 26.7912341,27.7208766 26.615917,27.6470588 L25.6055363,27.2318339 C24.9965398,26.982699 24.5882353,26.6528258 24.3806228,26.2422145 C24.1730104,25.8316032 24.0692042,25.3171857 24.0692042,24.6989619 C24.0692042,24.3298731 24.1199539,23.9792388 24.2214533,23.6470588 C24.3229527,23.3148789 24.4752018,23.0288351 24.6782007,22.7889273 C24.8719723,22.5490196 25.1188005,22.3575548 25.4186851,22.2145329 C25.7185698,22.071511 26.0761246,22 26.4913495,22 Z M37.2041522,22.083045 L37.2041522,30.5259516 L40,30.5259516 L40,31.9377163 L35.7923875,31.9377163 L35.7923875,22.083045 L37.2041522,22.083045 Z M32.1799308,23.4117647 C31.9215686,23.4117647 31.6978085,23.4925029 31.5086505,23.6539792 C31.3194925,23.8154556 31.2249135,24.0668973 31.2249135,24.4083045 L31.2249135,29.6124567 C31.2249135,29.9538639 31.3194925,30.2053057 31.5086505,30.366782 C31.6978085,30.5282584 31.9215686,30.6089965 32.1799308,30.6089965 C32.3091119,30.6089965 32.4106113,30.5905421 32.4844291,30.5536332 L31.8477509,30.0415225 L32.567474,29.183391 L33.1349481,29.6401384 L33.1349481,24.4083045 C33.1349481,24.0668973 33.0403691,23.8154556 32.8512111,23.6539792 C32.6620531,23.4925029 32.438293,23.4117647 32.1799308,23.4117647 Z" id="形状结合" fill="#85A452" fill-rule="nonzero"></path>
            </g>
        </g>
    </g>
</svg>