<?xml version="1.0" encoding="UTF-8"?>
<svg width="480px" height="180px" viewBox="0 0 480 180" version="1.1" xmlns="http://www.w3.org/2000/svg" xmlns:xlink="http://www.w3.org/1999/xlink">
    <title>插画</title>
    <defs>
        <path d="M1.09137149,22.9391285 C-0.188103829,17.0334159 -0.169522238,8.31253421 0.272564801,4.67249716 C1.00830735,-2.48598739 12.039579,-0.956813344 10.9607407,6.11889899 C10.5909891,5.93166251 10.7866488,18.7370395 11.9150381,22.1727148 C13.316621,27.3463785 -3.14633749,34.1437478 1.09137149,22.9391285" id="path-1"></path>
        <path d="M4.13800621,32.4229467 C8.22159335,36.5453987 14.5149645,37.7047535 19.540836,36.6118803 C21.1096537,36.2951774 22.6015744,35.7434861 23.9294086,34.9141778 L23.9315381,34.914414 C24.3804984,34.6344354 24.8054432,34.3287143 25.2111046,33.9918189 L25.2172564,33.9924093 C44.3099606,14.7212364 18.2479012,-16.6948211 6.45071393,10.7992921 C2.45963982,18.5428088 -4.50947876,22.7041106 4.13800621,32.4229467" id="path-3"></path>
        <path d="M18,5.28197466 C17.1423253,14.7507315 11.2998487,23.2223263 6.45073441,31 L0,31 C0.572831053,22.0324414 2.00908693,12.3075536 6.94282535,4.58293812 C9.24026981,-0.963909677 18.0141066,-2.31630031 18,5.28197466" id="path-5"></path>
        <path d="M14,22 L7.69914243,22 C-12.1267406,-4.70203018 12.4104552,-9.8518393 14,22" id="path-7"></path>
    </defs>
    <g id="分类分级工具6.5" stroke="none" stroke-width="1" fill="none" fill-rule="evenodd">
        <g id="机器学习算法-默认" transform="translate(-800.000000, -294.000000)">
            <g id="插画" transform="translate(800.000000, 294.000000)">
                <path d="M19.9170193,178 C8.76465748,152 11.9023437,130.333333 29.3300781,113 C55.4716797,87 44.8545193,44.8484633 88.8545193,28.9749607 C132.854519,13.1014581 166.854519,76.7726282 235.854519,42.5808201 C304.854519,8.389012 388.53536,-3.22557318 429.670926,28.9749607 C470.806491,61.1754946 475.2815,113.331289 467.854519,140.996536 C462.903199,159.440035 450.175334,171.774523 429.670926,178 L19.9170193,178 Z" id="路径-2" fill="#F0F5FF"></path>
                <g id="编组-15" transform="translate(54.000000, 49.000000)">
                    <path d="M84,86.1877872 L84,126.191875 C84,127.550495 83.738318,128.83951 83.2673601,130 L47.7336857,130 C47.2615658,128.83951 47,127.550495 47,126.191875 L47,86.1877872 C47,81.1157653 50.6570409,77 55.1668724,77 L75.8331276,77 C80.3452831,77 84,81.1157653 84,86.1877872" id="Fill-3" fill="#5A77B0"></path>
                    <path d="M118.43311,126 C116.510115,126 114.639374,125.007723 113.606471,123.231393 L85.7507062,75.3271109 C84.2089763,72.6758586 85.1179834,69.2823404 87.780692,67.7473119 C90.4434005,66.2126366 93.8517337,67.1172217 95.3935818,69.7684739 L123.249346,117.672756 C124.790958,120.324126 123.882069,123.717644 121.219361,125.252437 C120.3405,125.759052 119.380303,126 118.43311,126" id="Fill-5" fill="#F8FDFF"></path>
                    <path d="M99,72.0000701 C98.9500643,82.6671857 82.0482984,82.6662879 82,71.999509 C82.0498187,61.3329546 98.9515846,61.3338524 99,72.0000701" id="Fill-7" fill="#3A5B9E"></path>
                    <polygon id="Fill-9" fill="#F8FDFF" points="64 16 66 16 66 4 64 4"></polygon>
                    <path d="M60.0188932,17.3383357 C60.086758,15.9744768 59.5662763,12.9589262 61.410843,13.000424 C61.410732,13.0002914 68.5892922,13.0002914 68.5892922,13.0002914 C69.3547979,13.0002914 69.9811309,13.7479146 69.9811309,14.6616616 C69.9132661,16.025653 70.4336368,19.0412037 68.5891811,18.9995733 C68.5892922,18.9997059 61.410732,18.9997059 61.410732,18.9997059 C60.6452262,18.9997059 60.0188932,18.2520827 60.0188932,17.3383357" id="Fill-11" fill="#3F6ED3"></path>
                    <path d="M39.9861013,47.9749044 C38.3535154,47.9151187 34.9549563,48.5343018 35.0006994,45.9650757 C35.0004593,45.9651955 35.0004593,35.0387959 35.0004593,35.0387959 C34.9545961,32.4805924 38.3549562,33.0750943 39.9862213,33.0292067 C41.0937816,33.0290869 42,33.93342 42,35.0387959 L42,45.9651955 C42,47.0705713 41.0937816,47.9749044 39.9861013,47.9749044" id="Fill-12" fill="#3F6ED3"></path>
                    <path d="M93.9861013,47.9749044 C92.3535154,47.9151187 88.9548362,48.5343018 89.0006994,45.9650757 C89.0004593,45.9651955 89.0004593,35.0387959 89.0004593,35.0387959 C88.9545961,32.4805924 92.3549562,33.0750943 93.9862213,33.0292067 C95.0937816,33.0290869 96,33.93342 96,35.0387959 L96,45.9651955 C96,47.0705713 95.0937816,47.9749044 93.9861013,47.9749044" id="Fill-13" fill="#3F6ED3"></path>
                    <path d="M57.0302012,21.7847655 C57.1387822,19.9662098 56.3062504,15.9454027 59.2566938,16.0008125 C59.2565773,16.0005807 70.7391323,16.0005807 70.7391323,16.0005807 C73.677343,15.9444753 72.8725389,19.9684123 72.9653919,21.7849973 C72.9655084,23.0032024 71.9636974,24 70.7391323,24 L59.2565773,24 C58.0320122,24 57.0302012,23.0032024 57.0302012,21.7847655" id="Fill-14" fill="#F8FDFF"></path>
                    <path d="M63.2152345,53.0302012 C65.0337902,53.1387819 69.0545973,52.3062521 68.9993034,55.2566882 C68.9994193,55.2565717 68.9994193,66.7392147 68.9994193,66.7392147 C69.0555247,69.6773015 65.0317036,68.8724994 63.2150027,68.9654687 C61.9967976,68.9655852 61,67.9636602 61,66.7392147 L61,55.2565717 C61,54.0320097 61.9967976,53.0302012 63.2152345,53.0302012" id="Fill-15" fill="#3F6ED3"></path>
                    <path d="M80.3845685,61 L49.6155318,61 C43.3170141,61 38.1637236,55.8585671 38.1637236,49.574658 C38.6658063,39.8211222 34.5174946,21.3196151 49.6158804,21 C49.6155318,21 80.3845685,21 80.3845685,21 C86.6829701,21 91.8362605,26.1414329 91.8362605,32.4254579 C91.3341778,42.1788778 95.4824895,60.6803849 80.3845685,61" id="Fill-16" fill="#F8FDFF"></path>
                    <path d="M77.3221759,54 L52.6778764,54 C48.5145201,54 45.1080958,50.5294987 45.1080958,46.2878271 C45.440708,39.7040043 42.6969737,27.2164442 52.6781068,27 C52.6778764,27 77.3221759,27 77.3221759,27 C81.4855321,27 84.8918412,30.4705013 84.8918412,34.7121729 C84.5593442,41.2959957 87.3029634,53.7835558 77.3221759,54" id="Fill-17" fill="#404857"></path>
                    <path d="M68,3.50002725 C67.9794712,8.16691194 61.0198873,8.16647589 61,3.49980923 C61.0205288,-1.16685744 67.9801127,-1.16642138 68,3.50002725" id="Fill-18" fill="#3F6ED3"></path>
                    <path d="M60,41.0000143 C59.9823902,45.0001858 54.0169368,44.9998428 54,40.9998999 C54.0174976,36.9998428 59.982951,37.0001858 60,41.0000143" id="Fill-19" fill="#FFDE00"></path>
                    <path d="M76,41.0000143 C75.9823905,45.0001858 70.0170486,44.9998428 70,40.9998999 C70.0176095,36.9998428 75.9829514,37.0001858 76,41.0000143" id="Fill-20" fill="#FFDE00"></path>
                    <path d="M84,84.6499289 L84,109 L47,109 L47,84.6499289 C47,80.4263081 50.6578084,77 55.1671184,77 L75.8328816,77 C80.3448642,77 84,80.4263081 84,84.6499289" id="Fill-21" fill="#3A5B9E"></path>
                    <path d="M95,74.8147691 L95,94.1851147 C95,99.0533798 91.017,103 86.1035974,103 L42.8964026,103 C37.983,103 34,99.0533798 34,94.1851147 L34,74.8147691 C34,69.946504 37.983,66 42.8964026,66 L86.1035974,66 C91.017,66 95,69.946504 95,74.8147691" id="Fill-22" fill="#F8FDFF"></path>
                    <path d="M45,69.0000701 C44.9500647,79.6671857 28.0484151,79.6662879 28,68.999509 C28.0499353,58.3329546 44.9515849,58.3338524 45,69.0000701" id="Fill-23" fill="#3A5B9E"></path>
                    <path d="M8.57204001,122.998575 C4.43085912,123.095461 1.55826612,118.231972 3.76238592,114.670264 C3.76226785,114.670382 31.5806469,66.7597261 31.5806469,66.7597261 C35.3377686,60.5251181 44.7736067,65.9318983 41.2104627,72.319193 C41.2105808,72.3190753 13.3922017,120.229613 13.3922017,120.229613 C12.3608026,122.005817 10.4923361,122.998575 8.57204001,122.998575" id="Fill-24" fill="#F8FDFF"></path>
                    <path d="M17,118.00007 C16.9500647,128.667186 0.048415057,128.666288 0,117.999509 C0.0499353365,107.332955 16.9515849,107.333852 17,118.00007" id="Fill-25" fill="#3A5B9E"></path>
                    <path d="M58.5334992,111.696342 L50.0224562,111.710983 L51.8093528,109.713776 C54.2526507,107.061507 50.11326,103.208153 47.7462932,105.932439 C47.7465266,105.932201 42.5646434,111.72372 42.5646434,111.72372 L8.5001632,111.780739 C5.46255583,111.780739 3,114.292306 3,117.39037 C3,120.488314 5.46255583,123 8.5001632,123 L58.5521735,122.988453 C65.8290791,122.849656 65.8090042,111.809189 58.5334992,111.696342" id="Fill-26" fill="#F8FDFF"></path>
                    <polygon id="Fill-27" fill="#253550" points="159.025438 119 97 119 109.349309 74 171 74"></polygon>
                    <polygon id="Fill-28" fill="#253550" points="97 123 159 123 159 120 97 120"></polygon>
                    <polygon id="Fill-29" fill="#162744" points="111 74 108.768314 74 96.6035055 118.933509 67 118.933509 67 122 98.6813513 122 98.6813513 119.257013"></polygon>
                </g>
                <g id="编组-20" transform="translate(280.000000, 49.000000)">
                    <path d="M82.8849194,50 C82.8849194,50 71.550344,50 60.5451025,61.0887576 C51.328135,70.3755806 43,85.2587336 43,85.2587336 L72.786384,90 C72.786384,90 84.2644087,56.8485726 82.8849194,50" id="Fill-30" fill="#409EFF"></path>
                    <path d="M133.833565,122.541166 C133.682405,125.001191 133.423578,127.488636 133.05212,130 L57.1956409,130 C56.9876336,127.917309 56.9513505,125.377359 57.0590179,122.541166 C57.5609537,109.357439 61.1704712,89.7776922 65.0702534,80.0618505 C70.2486896,66.8875749 79.6305277,56.19141 87.0030863,49.7822051 C87.0055682,49.7797549 98.5659282,49.0024502 98.5694738,49 C117.93188,60.1500399 135.927466,88.7100942 133.833565,122.541166" id="Fill-31" fill="#409EFF"></path>
                    <path d="M63.4599262,83 C63.6673427,83 63.8553182,82.8778847 63.9054628,82.6959677 C65.1904533,77.2975928 69.6821546,72.725945 68.9117503,72.0055677 C67.7872495,71.7992331 64.7505478,77.3650595 63.0133169,82.5119677 C62.94172,82.7567224 63.1685776,83.0029815 63.4599262,83" id="Fill-32" fill="#3277BF"></path>
                    <path d="M109.124741,78.0576131 C98.836085,70.5160334 110.21379,55.3793132 120.338373,63.1669928 C132.401694,72.0520283 144.540651,84.2046266 145.943766,100.050241 C146.429119,106.637993 143.7403,113.598572 139.132177,118.221726 C135.671401,121.575173 130.740251,122.581861 126.221146,122.908944 C116.227007,123.429966 106.362264,121.666892 96.8694202,118.852438 L97.371,118.999 L80,118.990821 C80,118.990821 84.0750119,110.163962 96.9945198,113.376048 L97.4143519,113.483865 C107.487735,112.047641 120.847232,112.231195 128.321047,107.953444 C134.186016,97.4391776 116.834309,84.2810588 109.124741,78.0576131 Z" id="形状结合" fill="#F1B099"></path>
                    <path d="M105.63261,76.504523 C124.699882,100.1373 127.051787,103.813925 99.6363156,113.481216 C102.605257,117.030165 100.586945,120.500228 100.586945,120.500228 C177.334021,143.24127 152.384834,47.6635958 98,49.0141879 C98.3802517,55.0251931 101.125324,70.2123012 105.63261,76.504523" id="Fill-34" fill="#409EFF"></path>
                    <path d="M91.8673357,117 C91.9097601,117.195182 91.9763267,117.592056 92,117.790869 C89.3202276,118.337228 88.989856,118.559328 85.3672528,119.999969 C84.9173426,120.005477 84.8628471,119.285845 85.3038505,119.19345 C89.0531411,117.621853 89.0531411,117.621853 91.8673357,117 Z M81.3986993,118.999917 C79.0531359,119.026526 87.7260355,112.649429 89.9980626,114.261113 C90.0187771,114.485698 89.8710142,114.686092 89.668243,114.709009 C84.9532946,115.252009 81.7902019,118.987185 81.3986993,118.999917 Z" id="形状结合" fill="#E59F8D"></path>
                    <path d="M103.560719,121 C102.381068,120.690402 101.090205,120.319022 100.06492,120.048167 C100.06492,120.048167 102.326309,116.665745 99,113.20538 C99,113.20538 100.659439,112.731641 103.019393,112 C103.019393,112 107.089373,116.587802 103.560719,121" id="Fill-38" fill="#3277BF"></path>
                    <path d="M103.300807,111.99919 C102.733537,112.080243 121.233216,106.065589 120.997771,98.2204425 C121.001831,89.0551936 106.033472,75.6655458 105.396148,75.099804 C105.018509,74.7654756 104.477914,75.3498235 104.870399,75.6955481 C104.837924,75.8720735 126.572008,94.5905086 118.264411,102.643229 C112.077554,108.722191 101.038684,111.129472 103.300807,111.99919" id="Fill-39" fill="#3277BF"></path>
                    <path d="M109.626503,121.999879 C110.071643,122.009532 110.146858,121.439556 109.699594,121.376859 C106.475762,120.857078 103.555248,120.008458 103.526078,120 C101.370561,120.464714 106.323098,121.426961 109.626503,121.999879" id="Fill-40" fill="#3277BF"></path>
                    <path d="M82.629354,57.1654577 C85.8113735,64.8945322 101.527277,60.2476225 104,49.402779 C104,49.402779 103.997213,49.402779 103.997213,49.3999883 C100.496724,48.9291812 98.304026,49.0044126 98.304026,49.0044126 C98.3012385,49.0072033 86.9399526,49.7816107 86.9371652,49.7844014 C85.5542288,49.7147512 84.210201,49.7259138 82.8996229,49.8067266 C81.5138991,51.7065829 81.9811497,55.5909455 82.629354,57.1654577" id="Fill-41" fill="#3277BF"></path>
                    <g id="Fill-43" transform="translate(86.000000, 27.000000)">
                        <mask id="mask-2" fill="white">
                            <use xlink:href="#path-1"></use>
                        </mask>
                        <use id="蒙版" fill="#F1B099" xlink:href="#path-1"></use>
                        <path d="M11.7588565,4.75468244 C11.751771,4.95535413 11.7379543,5.15977232 11.7122102,5.35821953 C11.4265461,5.21105248 11.4483931,12.4655567 12,17.674474 C7.30195316,20.4199531 1.69353649,20.0208342 0.664366285,19.9219033 C-0.150585359,13.3359145 -0.183532976,7.26143952 0.38944853,3.3839332 C1.83111346,-3.24326705 11.9592583,-2.0104357 11.7588565,4.75468244" fill="#E59F8D" mask="url(#mask-2)"></path>
                    </g>
                    <path d="M78,23 C78,23 78.099666,17.083129 80.1752505,13 L84,14.6509048 L78,23 Z" id="Fill-44" fill="#223248"></path>
                    <g id="Fill-49" transform="translate(74.000000, 8.000000)">
                        <mask id="mask-4" fill="white">
                            <use xlink:href="#path-3"></use>
                        </mask>
                        <use id="蒙版" fill="#F1B099" xlink:href="#path-3"></use>
                        <path d="M7,9.27334255 C11.1768125,7.01490385 18.7648034,9.04552132 22.4878935,9.00694456 C22.4878935,9.00694456 21.7107292,15.5059152 28.1478322,20.1197198 C28.7042572,26.0926878 29.6729191,28.6986813 23.67361,36 L23.6756308,36 C24.1268568,35.7122514 24.5537147,35.3981783 24.9613159,35.0520793 L24.9674971,35.0528071 C43.4418507,16.1750643 19.2575146,-15.9220117 7,9.27334255" fill="#E59F8D" mask="url(#mask-4)"></path>
                    </g>
                    <path d="M78.0640947,4.79672957 C80.4193038,0.113202419 87.4292897,-2.44550864 93.4988788,3.32475382 C98.1719294,7.76771136 103.207996,7.72164233 103.115807,12.4118683 C112.480885,16.6528038 107.860078,27 107.860078,27 L103.169808,26.453518 C97.803291,22.1168013 97.9521755,15.7247245 97.9521755,15.7247245 L97.953464,15.7237843 C96.7588742,15.7852489 95.501029,15.7365944 94.3865628,15.4535989 C90.9332869,14.5765247 85.8252969,14.1597881 81.9363789,15.6055562 C78.0474608,17.0512068 75.4317333,10.0310871 78.0640947,4.79672957" id="Fill-50" fill="#223248"></path>
                    <path d="M108.887751,30.2436774 C108.404001,32.694351 106.495093,34.3481951 104.624134,33.9373858 C102.753175,33.5266957 101.628567,31.2069996 102.112204,28.756326 C102.596066,26.3055332 104.504975,24.6518082 106.375934,25.0626176 C108.246893,25.4733077 109.371501,27.7930038 108.887751,30.2436774" id="Fill-51" fill="#F1B099"></path>
                    <polygon id="Fill-53" fill="#253550" points="11.9745351 119 74 119 61.6506817 74 0 74"></polygon>
                    <polygon id="Fill-54" fill="#253550" points="12 123 74 123 74 120 12 120"></polygon>
                    <polygon id="Fill-55" fill="#0B274F" points="60 74 62.2316802 74 74.3965116 118.933481 104 118.933481 104 122 72.3186029 122 72.3186029 119.256997"></polygon>
                    <path d="M86.1100691,25.4554352 C85.8584229,24.963883 86.0528978,24.3615541 86.5443246,24.1099152 C87.0357513,23.8584305 87.6382846,24.0531383 87.8899309,24.5445362 C88.1415771,25.0362427 87.9471022,25.6385715 87.4556754,25.8900562 C86.9642487,26.1415408 86.3617154,25.9469874 86.1100691,25.4554352 M83.7181489,25.0016274 L83.7902646,25.0163226 C83.9533764,25.0668329 84.0389973,25.2260033 83.9827212,25.3721755 C83.9338131,25.4993065 82.7576045,28.5030197 80.9923388,29.3660286 C80.791879,29.4636288 80.5685531,29.6120813 80.6403274,29.761332 C80.8451063,30.1853682 82.32734,30.6507933 83.3715602,30.3483012 C83.5327665,30.3023516 83.7113764,30.3802265 83.7640956,30.528337 C83.8169417,30.6746232 83.7275097,30.8328814 83.5632547,30.8800852 C83.147218,31.0008312 82.6543258,31.0258014 82.1713422,30.975519 C81.224049,30.8767787 80.3120713,30.4913949 80.0674036,29.9824146 C79.9739066,29.7871003 79.8468725,29.2886098 80.6936817,28.8744932 C82.2473086,28.1148995 83.381977,25.2176799 83.3932831,25.1888331 C83.4495592,25.0434591 83.6216904,24.9635318 83.7902646,25.0163226 Z M81.8899325,23.544557 C82.1415751,24.0361022 81.947103,24.6384224 81.4556832,24.8900578 C80.9642635,25.1415388 80.3617388,24.9469881 80.1100962,24.455443 C79.8584535,23.9638978 80.0527716,23.3614233 80.5443454,23.1099422 C81.0357651,22.8584612 81.6382898,23.0530119 81.8899325,23.544557 Z M89.674606,24 C89.5697365,24 89.4668526,23.9592715 89.4040549,23.8838187 C89.3577634,23.8289803 88.25111,22.5561893 85.3214632,22.5250675 C85.1416335,22.5231662 84.9976705,22.4040829 85,22.2590814 C85.0023866,22.1152807 85.1477147,22 85.3255587,22 C85.3270479,22 85.3284131,22 85.3299024,22 C88.6231798,22.0349244 89.8930326,23.5284699 89.9454054,23.5919143 C90.0450625,23.7126989 90.0044799,23.875713 89.8546839,23.9560692 C89.7993326,23.9857901 89.7366591,24 89.674606,24 M82.6853828,21 C82.6463252,21 82.6065487,20.9920401 82.5679704,20.9754816 C82.5459256,20.9659829 80.9709215,20.3081339 79.4323393,20.9753532 C79.2714363,21.0450531 79.0883687,20.9618753 79.0229532,20.7894868 C78.9580169,20.6170983 79.0355331,20.4207063 79.1965559,20.350878 C80.9793081,19.5776327 82.7298318,20.3189162 82.8033943,20.350878 C82.9644171,20.4207063 83.0420531,20.6170983 82.976997,20.7894868 C82.9273962,20.9205432 82.8096243,21 82.6853828,21 M82.4557078,33 C82.0885786,33 81.7013876,32.9748166 81.2948037,32.9178651 C81.1035488,32.8910644 80.9735489,32.735343 81.0045777,32.570149 C81.0357402,32.404955 81.2161618,32.2925538 81.4071493,32.31947 C84.5061479,32.7533642 86.3776377,31.109626 86.3962282,31.0928756 C86.5305079,30.9722724 86.7527916,30.9686913 86.8924211,31.0846736 C87.0320505,31.2007715 87.0363304,31.3925352 86.9019169,31.5132539 C86.8259499,31.5815264 85.2097789,33 82.4557078,33 M104.199097,27.2968636 C104.281259,27.265289 106.227986,26.5211397 107.325748,27.5161173 C107.605484,27.7690927 107.792275,28.1118662 107.898187,28.531429 C107.898572,28.5324394 107.898444,28.5333235 107.898829,28.5342076 C107.908714,28.57336 107.922707,28.6084709 107.931052,28.649139 C107.93118,28.6497705 107.931565,28.650402 107.931565,28.6507808 C107.931437,28.6510334 107.93118,28.651286 107.931437,28.651286 C108.091011,29.432567 107.972261,30.4773062 107.572876,31.7798201 C107.527559,31.9249368 107.38339,32.0149875 107.234343,31.9979372 C107.216113,31.9959164 107.198269,31.9920012 107.179525,31.9869492 C107.013019,31.9374403 106.918276,31.7640328 106.968472,31.6003503 C107.29314,30.5446232 107.415741,29.6864265 107.348856,29.0387691 C105.532946,29.3624715 104.626468,31.3654355 104.617738,31.3870325 C104.561765,31.5166145 104.426326,31.5896149 104.29063,31.5742065 C104.262002,31.5709228 104.232988,31.5628397 104.20436,31.5509677 C104.04363,31.48504 103.969171,31.3034231 104.036185,31.1455503 C104.079962,31.0456483 105.065521,28.8071381 107.19737,28.4152346 C107.121755,28.2398063 107.026627,28.0874906 106.900046,27.9726855 C106.093702,27.2412923 104.446481,27.8673528 104.431204,27.8732888 C104.267009,27.9353012 104.086509,27.8567437 104.021935,27.6981131 C103.958387,27.5394825 104.037597,27.3602653 104.199097,27.2968636" id="形状结合" fill="#B2624D"></path>
                </g>
                <rect id="矩形" fill="#4E5164" x="0" y="172" width="480" height="8" rx="4"></rect>
                <g id="编组-14" transform="translate(232.000000, 110.000000)">
                    <path d="M25.7392267,39 L20.032563,39 C3.93722896,-18.7344734 42.344095,-6.93172726 25.7392267,39" id="Fill-60" fill="#7CD1B4"></path>
                    <path d="M25.4393367,39.5540274 C25.4393367,39.5540274 20.8177821,40.5574658 21.0055717,39.5540274 C25.7877765,14.0117767 21.26822,0.0195236681 21.26822,0.0195236681 C38.081953,-1.01687826 25.4393367,39.5540274 25.4393367,39.5540274" id="Fill-61" fill="#1FBC86"></path>
                    <g id="Fill-63-+-Fill-64-+-Fill-65-+-Fill-66-+-Fill-67蒙版" transform="translate(23.000000, 9.000000)">
                        <mask id="mask-6" fill="white">
                            <use xlink:href="#path-5"></use>
                        </mask>
                        <use id="蒙版" fill="#2EC993" xlink:href="#path-5"></use>
                        <path d="M2.34289318,16 C4.12640244,18.055725 6.87685056,20.5696144 12,20.9425623 C11.8248468,21.3013493 11.6540087,21.650612 11.4831707,22 C6.61085662,21.593968 3.62960012,19.2632942 2,17.238147 C2.05200381,16.7615606 2.25116732,16.4107941 2.34289318,16 Z M3.49333007,10 C4.7584139,11.7409036 8.58976869,14.8455535 15,15.0517753 C14.843226,15.3664944 14.6819239,15.6852809 14.5204993,16 C8.03426753,15.7349676 4.54901481,12.9440475 3,11.1097065 C3.15677396,10.7370562 3.31807612,10.3644058 3.49333007,10 Z M6.59673906,4 C7.16784386,5.1852843 9.91114925,9.2950408 16,9.98944395 C15.9005435,10.3205141 15.7928356,10.660257 15.6768764,11 C9.54544854,10.2166716 6.8560521,6.52991707 6,5.00627746 C6.18637094,4.66653451 6.38946465,4.33107014 6.59673906,4 Z M10.8190659,1 C12.1667667,2.76030454 14.7171329,5.03688632 19,5.79837228 C19,6.18403781 18.8951855,7 18.8951855,7 C14.2144315,6.18403781 11.4743667,3.72158047 10,1.79312155 C10.261616,1.45248097 10.5251531,1.22249934 10.8190659,1 Z M9,27.0276949 C8.77371715,27.3561562 8.55219024,27.6802579 8.33053817,28 C4.21952441,27.3864439 1.57008761,25.735533 0,24.3266945 C0.0660826033,23.8859162 0.132165207,23.4451379 0.212265332,23 C1.64543179,24.3829104 4.73817272,26.4529163 9,27.0276949" id="形状结合" fill="#7CD1B4" mask="url(#mask-6)"></path>
                    </g>
                    <g id="Fill-69" transform="translate(0.000000, 18.000000)">
                        <mask id="mask-8" fill="white">
                            <use xlink:href="#path-7"></use>
                        </mask>
                        <use id="蒙版" fill="#1FBC86" xlink:href="#path-7"></use>
                        <path d="M14,21 L10.2425713,21 C3.47849989,11.3456718 2.00741474,3.41983551 2,-0.408657345 C10.8253701,-5.22671183 14.0198699,20.9793282 14,21" fill="#7CD1B4" mask="url(#mask-8)"></path>
                    </g>
                    <path d="M20.913559,38.9840831 L13.3625745,38.9840831 C13.4973447,39.3154255 10.9556571,34.3901003 9.99105234,31.9986319 L9.98674151,31.9986319 C7.88963656,26.9127835 5.16666729,20.0588397 6.24324015,14.5679393 C6.84346639,10.2293664 12.8506068,8.51836664 15.7001784,11.4830153 C21.3218399,16.6201094 21.1445287,33.6475049 20.913559,38.9840831" id="Fill-70" fill="#1FBC86"></path>
                    <path d="M21,30.3395156 C20.9668068,29.8050098 20.9376335,29.2370686 20.8874417,28.6891887 L16.6778766,34.5478836 L14.9947856,27.8249404 L19.7453196,20.6719484 C19.6364367,20.177104 19.5127375,19.7030126 19.3775527,19.225693 L14.6487263,26.4482076 L12.6455333,18.4396144 L16.4788322,13.1108135 C16.2538304,12.8414853 16.0116004,12.5895666 15.7606414,12.3680857 L12.3123378,17.1063477 L10.837135,11 C10.4694829,11.0656026 10.1018308,11.1599136 9.76852043,11.2737094 L11.3173455,17.4581115 L6.17320194,15.4776962 C6.0957894,15.7885305 6.04031424,16.1179271 6,16.4591991 L11.6330829,18.7219709 L13.6623481,26.8304092 L6.83511359,23.9118418 C6.94755703,24.3515754 7.07573565,24.7900408 7.20713022,25.2278143 L13.9824501,28.1115628 L15.6784049,34.8910003 L9.97617899,32.5848778 C10.171548,33.0766093 10.3981577,33.5151899 10.5947902,33.9529635 L15.9985069,36.1548597 C16.270025,36.6156922 16.5725542,40.0842148 17.3655158,39.9984356 C18.6284658,40.0527394 16.9360715,36.3928277 17.0109572,35.8812656 L21,30.3481626 L21,30.3395156 Z" id="Fill-71" fill="#7CD1B4"></path>
                    <polygon id="Fill-72" fill="#312C27" points="8 61 30 61 30 39 8 39"></polygon>
                </g>
                <g id="编组-12" transform="translate(193.000000, 44.000000)">
                    <path d="M53.6596143,39.6560705 C44.0963909,42.3752452 39.8382459,28.1643017 49.3407094,25.3438921 C58.9034294,22.6248821 63.1616583,36.8357433 53.6596143,39.6560705 L53.6596143,39.6560705 Z M73,31.8818451 L71.1719803,23.8556641 L66.5357649,24.898715 C65.8448828,23.5490553 64.9804244,22.3171433 63.9773722,21.2243878 L66.5404404,17.186445 L59.5376095,12.7957569 L57.0709726,16.6818474 C55.4368173,16.1103684 53.70406,15.7844253 51.9274702,15.7394505 L50.8480244,11 L42.7725103,12.8167506 L43.8518727,17.5562012 C42.3806904,18.3001943 41.048603,19.2467402 39.8829952,20.3513617 L36.2045803,18.0449497 L31.786859,25.0050116 L35.4652739,27.3113406 C34.9641652,28.8326016 34.6782945,30.4350995 34.6362989,32.0751041 L30,33.1181549 L31.8279362,41.1442529 L36.4642351,40.101285 C37.2700833,41.6754869 38.3122925,43.0894556 39.5350077,44.3091696 L37.0683708,48.1951772 L44.0712017,52.5858653 L46.6342698,48.5479225 C48.0584471,48.9770919 49.5494165,49.2219641 51.0725298,49.2604665 L52.1518921,54 L60.2274897,52.1832494 L59.1480438,47.4437159 C60.6192261,46.6998057 61.9513135,45.7532598 63.1169213,44.6486383 L67.4042308,47.3366724 L71.8219521,40.3766936 L67.5347261,37.6886594 C68.0358348,36.1673984 68.3217055,34.5649005 68.3637011,32.924813 L73,31.8818451 Z" id="Fill-74" fill="#BAC8F2"></path>
                    <path d="M12.9508796,39.9097728 C4.49260493,41.6730518 1.65705485,29.1397565 10.0494012,27.090157 C18.5073249,25.3269482 21.3429451,37.8602435 12.9508796,39.9097728 L12.9508796,39.9097728 Z M23,31.7807433 L22.619385,30.09926 L21.1333647,30.4356409 C20.7644047,29.2713319 20.1987832,28.2146564 19.4822076,27.2941902 L20.5996892,26.2611055 L19.4293385,24.9952012 L18.3107335,26.0292688 C17.4296529,25.2274592 16.4125733,24.5858009 15.3094849,24.1358888 L15.7610835,22.6811169 L14.1145603,22.1699808 L13.663383,23.6234187 C12.5240657,23.3730463 11.326824,23.3176498 10.1170848,23.486086 L9.78070291,22 L8.09921455,22.3806138 L8.43559647,23.8666998 C7.27128392,24.2356586 6.21460515,24.8012082 5.29420635,25.5177817 L4.26104834,24.4003736 L2.99514016,25.5707208 L4.02928113,26.6892522 C3.22739886,27.5703301 2.58580879,28.5874066 2.13589533,29.6905618 L0.681048772,29.2388945 L0.169911137,30.8854828 L1.62335347,31.3366587 C1.37298028,32.4759024 1.31765385,33.6731403 1.48602034,34.8828758 L0,35.2192567 L0.380614989,36.90074 L1.86663533,36.5643591 C2.23559525,37.7286681 2.80121679,38.7854138 3.51779244,39.7058098 L2.40031076,40.7388945 L3.57073169,42.0047988 L4.68919633,40.9707312 C5.57034706,41.7725408 6.58735649,42.4141991 7.69051508,42.8641112 L7.23891655,44.3188831 L8.88543972,44.8300192 L9.33661698,43.3765813 C10.4759343,43.6269537 11.673176,43.6823502 12.882845,43.513914 L13.2192269,45 L14.9007152,44.6193862 L14.5643333,43.1333002 C15.7287161,42.7643414 16.7853948,42.1987918 17.7057936,41.4822183 L18.7389517,42.5996264 L20.0048598,41.4292792 L18.9707189,40.3107478 C19.7726011,39.4296699 20.4141912,38.4125934 20.8641047,37.3094382 L22.3189512,37.7611055 L22.8300889,36.1145874 L21.3765763,35.6634115 C21.6269495,34.5240976 21.6823462,33.3268597 21.5139095,32.1171242 L23,31.7807433 Z" id="Fill-75" fill="#A4DCF8"></path>
                    <path d="M25.7861181,12.472806 C21.2034484,13.4281377 19.6671009,6.63763552 24.2140858,5.52712607 C28.7966196,4.57186229 30.3328991,11.3623645 25.7861181,12.472806 L25.7861181,12.472806 Z M34,8.25758726 L33.4424343,5.79425192 L31.5557645,6.22131343 C31.3996352,5.85175535 31.2154339,5.49973378 31.0042482,5.16878321 L32.4230059,3.85707974 L30.7085066,2.00249227 L29.2877777,3.31596298 C28.971101,3.07731696 28.6351886,2.8654515 28.2834389,2.68240572 L28.8570458,0.83454737 L26.4449605,0.0857793436 L25.8721013,1.93119074 C25.4824238,1.8830673 25.0854055,1.86845355 24.6846488,1.88666976 L24.2575873,0 L21.7942519,0.557565734 L22.2213134,2.4442355 C21.8517553,2.60043275 21.4998018,2.78456606 21.1687832,2.99575182 L19.8570797,1.5769941 L18.0025602,3.29156141 L19.315963,4.71222231 C19.0773849,5.02889898 18.8654515,5.36481144 18.6824057,5.71656112 L16.8345474,5.14295424 L16.0857793,7.55503948 L17.9311907,8.12789868 C17.8830673,8.51757616 17.8684535,8.9145945 17.8866698,9.31535124 L16,9.74241274 L16.5576337,12.2057481 L18.4443035,11.7786866 C18.6004327,12.1482447 18.7845661,12.5001982 18.9958198,12.8312168 L17.5769941,14.1429203 L19.2915614,15.9975077 L20.7122223,14.684037 C21.028899,14.922683 21.3648114,15.1345485 21.7165611,15.3175943 L21.1429542,17.1654526 L23.5551075,17.9142207 L24.1279666,16.0688093 C24.5176441,16.1169327 24.9145945,16.1315465 25.3153512,16.1133302 L25.7424127,18 L28.205816,17.4424343 L27.7786866,15.5556965 C28.1482447,15.3995673 28.5002662,15.2154339 28.8312168,15.0041802 L30.1429882,16.4230059 L31.9975077,14.7084386 L30.684037,13.2877777 C30.922683,12.971101 31.1346165,12.6351886 31.3175943,12.2834389 L33.1654526,12.8570458 L33.9142207,10.4449605 L32.0688093,9.87203335 C32.1169327,9.48242384 32.1315465,9.0854055 32.1133302,8.68464876 L34,8.25758726 Z" id="Fill-76" fill="#B9D2EE"></path>
                    <path d="M87.7861181,48.472806 C83.2034484,49.4281377 81.6671009,42.6376355 86.2140858,41.5271261 C90.7966196,40.5718623 92.3328991,47.3623645 87.7861181,48.472806 L87.7861181,48.472806 Z M96,44.2575873 L95.4424343,41.7942519 L93.5557645,42.2213134 C93.3996352,41.8517553 93.2154339,41.4997338 93.0042482,41.1687832 L94.4230059,39.8570797 L92.7085066,38.0024923 L91.2877777,39.315963 C90.971101,39.077317 90.6351886,38.8654515 90.2834389,38.6824057 L90.8570458,36.8345474 L88.4449605,36.0857793 L87.8721013,37.9311907 C87.4824238,37.8830673 87.0854055,37.8684535 86.6846488,37.8866698 L86.2575873,36 L83.7942519,36.5575657 L84.2213134,38.4442355 C83.8517553,38.6004327 83.4998018,38.7845661 83.1687832,38.9957518 L81.8570797,37.5769941 L80.0025602,39.2915614 L81.315963,40.7122223 C81.0773849,41.028899 80.8654515,41.3648114 80.6824057,41.7165611 L78.8345474,41.1429542 L78.0857793,43.5550395 L79.9311907,44.1278987 C79.8830673,44.5175762 79.8684535,44.9145945 79.8866698,45.3153512 L78,45.7424127 L78.5576337,48.2057481 L80.4443035,47.7786866 C80.6004327,48.1482447 80.7845661,48.5001982 80.9958198,48.8312168 L79.5769941,50.1429203 L81.2915614,51.9975077 L82.7122223,50.684037 C83.028899,50.922683 83.3648114,51.1345485 83.7165611,51.3175943 L83.1429542,53.1654526 L85.5551075,53.9142207 L86.1279666,52.0688093 C86.5176441,52.1169327 86.9145945,52.1315465 87.3153512,52.1133302 L87.7424127,54 L90.205816,53.4424343 L89.7786866,51.5556965 C90.1482447,51.3995673 90.5002662,51.2154339 90.8312168,51.0041802 L92.1429882,52.4230059 L93.9975077,50.7084386 L92.684037,49.2877777 C92.922683,48.971101 93.1346165,48.6351886 93.3175943,48.2834389 L95.1654526,48.8570458 L95.9142207,46.4449605 L94.0688093,45.8720334 C94.1169327,45.4824238 94.1315465,45.0854055 94.1133302,44.6846488 L96,44.2575873 Z" id="Fill-76备份" fill="#B9D2EE"></path>
                </g>
                <g id="编组-11" transform="translate(133.000000, 7.000000)">
                    <path d="M0,6.19675566 C0,2.77522918 2.7833338,0 6.21485231,0 L55.7851477,0 C59.1521678,0 61.8951405,2.67188383 61.9970642,6.00452289 L62,26.809965 C62,30.2667899 59.2166662,33.0679098 55.7851477,33.0679098 L20.7287343,33.0679098 L8.75176496,42 L8.75176496,33.0679098 L6.21485231,33.0679098 C2.7833338,33.0679098 0,30.2667899 0,26.809965 L0,6.19675566 Z" id="形状结合" fill="#72B7F2"></path>
                    <path d="M40.2860067,10 L6.74829785,10 C5.78274809,10 5,9.3284424 5,8.49994964 C5,7.6715576 5.78274809,7 6.74829785,7 L40.2860067,7 C42.5618113,7.00695027 42.5808311,9.99123661 40.2860067,10" id="Fill-79" fill="#FFFFFF"></path>
                    <path d="M19.2813032,18 L5.71863796,18 C3.43075104,17.991942 3.4234539,15.0086624 5.71875565,15 L19.2813032,15 C21.5693078,15.0081587 21.5764872,17.9913376 19.2813032,18" id="Fill-80" fill="#FFFFFF"></path>
                    <path d="M56.2871392,18 L27.7471725,18 C26.7821917,18 26,17.3284649 26,16.5 C26,15.6716358 26.7821917,15 27.7471725,15 L56.2871392,15 C58.5629687,15.0072522 58.5789246,17.9912369 56.2871392,18" id="Fill-81" fill="#FFFFFF"></path>
                    <path d="M34.2906223,26 L6.70930441,26 C4.43792656,25.9927475 4.42247182,23.0086627 6.70953858,23 C6.70930441,23 34.2906223,23 34.2906223,23 C36.5621173,23.0072525 36.5774549,25.9913373 34.2906223,26" id="Fill-82" fill="#FFFFFF"></path>
                </g>
                <g id="编组-10" transform="translate(297.000000, 0.000000)">
                    <path d="M62,26.8100323 C62,30.2668684 59.2166662,33.0679973 55.7851477,33.0679973 L53.248235,33.0679973 L53.248235,42 L41.2711501,33.0679973 L6.21485231,33.0679973 C2.7833338,33.0679973 0,30.2668684 0,26.8100323 L0,6 C0.105406799,2.67136004 2.84816817,0 6.21485231,0 L55.7851477,0 C59.2166662,0 62,2.77523887 62,6.1967773 L62,26.8100323 Z" id="形状结合" fill="#8996D7"></path>
                    <path d="M21.7139933,10 L55.2517021,10 C56.2172519,10 57,9.32846495 57,8.5 C57,7.67163578 56.2172519,7 55.2517021,7 L21.7139933,7 C19.4381887,7.00705077 19.4191689,9.99123691 21.7139933,10" id="Fill-86" fill="#FFFFFF"></path>
                    <path d="M41.7186923,18 L55.2813224,18 C57.5693211,17.9919417 57.5765005,15.0085619 55.2812047,15 C55.2813224,15 41.7186923,15 41.7186923,15 C39.4306937,15.0080583 39.4235142,17.9914381 41.7186923,18" id="Fill-87" fill="#FFFFFF"></path>
                    <path d="M5.71286079,18 L34.2528275,18 C35.2178083,18 36,17.3284424 36,16.4999496 C36,15.6715576 35.2178083,15 34.2528275,15 L5.71286079,15 C3.43703133,15.0072525 3.42107541,17.9913373 5.71286079,18" id="Fill-88" fill="#FFFFFF"></path>
                    <path d="M28.7093744,26 L56.2906403,26 C58.5621309,25.9927475 58.5774685,23.0086627 56.2905232,23 L28.7093744,23 C26.4378838,23.0072525 26.4225462,25.9913373 28.7093744,26" id="Fill-89" fill="#FFFFFF"></path>
                </g>
            </g>
        </g>
    </g>
</svg>