<?xml version="1.0" encoding="UTF-8"?>
<svg width="64px" height="64px" viewBox="0 0 64 64" version="1.1" xmlns="http://www.w3.org/2000/svg" xmlns:xlink="http://www.w3.org/1999/xlink">
    <title>技术指标</title>
    <g id="控件" stroke="none" stroke-width="1" fill="none" fill-rule="evenodd">
        <g id="知识图谱" transform="translate(-2766.000000, -18.000000)">
            <g id="技术指标" transform="translate(2766.000000, 18.000000)">
                <circle id="椭圆形" fill="#F9F2E9" cx="32" cy="32" r="32"></circle>
                <path d="M44.6666667,16 C45.4030463,16 46,16.6007708 46,17.3418591 L46,46.6578675 C46,47.3989558 45.4030463,48 44.6666667,48 C44.4511701,48 44.2388844,47.9471599 44.0479907,47.8465286 L32.618676,41.8214633 C32.2311951,41.6171993 31.7688049,41.6171993 31.381324,41.8214633 L19.9520093,47.8465286 C19.299701,48.1903988 18.4939099,47.9369789 18.1522246,47.2804995 C18.0522327,47.0883852 18,46.8747421 18,46.6578675 L18,17.3418591 C18,16.6007708 18.5969537,16 19.3333333,16 L44.6666667,16 Z M20,32 L20,45.5484081 L30.45331,40.0384717 C31.3710278,39.5546885 32.456825,39.5292263 33.3922353,39.9620849 L33.54669,40.0384717 L44,45.5484081 L44,32 L20,32 Z M39.3329604,22.7049947 L35.58862,24.1606294 C35.4302461,24.2225858 35.31752,24.3650424 35.293632,24.5334177 C35.2697441,24.7017931 35.3383978,24.8699826 35.473289,24.9735454 L36.3668248,25.6778487 L34.3222178,28.0852446 L29.1944646,25.0306511 C28.8899436,24.8369736 28.4957318,24.8595129 28.2152703,25.0866371 L24.3259263,28.0292586 C24.1484236,28.1643385 24.0330676,28.3654394 24.0060759,28.5868558 C23.9790842,28.8082722 24.0427495,29.0311966 24.1826023,29.2049636 C24.323552,29.3851193 24.5307804,29.5013232 24.7580056,29.5276224 C24.9852307,29.5539216 25.213524,29.4881254 25.3918988,29.3449285 L28.8199186,26.7695747 L34.0909959,29.9075873 C34.2324377,29.9838138 34.3911104,30.0223734 34.5517602,30.0195592 C34.807141,30.0189058 35.0494071,29.9063667 35.2146339,29.7116365 L37.7782306,26.7130289 L38.6420938,27.3848603 C38.7781914,27.4890405 38.9589909,27.5141217 39.118308,27.4509224 C39.2776251,27.3877232 39.3920662,27.2455236 39.4197387,27.0763778 L39.9958341,23.2088683 C40.0184481,23.0382204 39.9478026,22.8685533 39.8107604,22.7643827 C39.6737182,22.6602121 39.4913344,22.6375428 39.3329604,22.7049947 Z M20,21.3333333 L44,21.3333333 L44,18.0127886 L20,18.0127886 L20,21.3333333 Z" id="形状结合" fill="#C38328" fill-rule="nonzero"></path>
                <rect id="矩形备份-6" fill="#C38328" opacity="0.7" x="20" y="34.6666667" width="24" height="2.66666667"></rect>
                <circle id="椭圆形备份-3" fill="#C38328" cx="49" cy="32" r="9"></circle>
                <path d="M49,22 C43.4771525,22 39,26.4771525 39,32 C39,37.5228475 43.4771525,42 49,42 C54.5228475,42 59,37.5228475 59,32 C59,26.4771525 54.5228475,22 49,22 Z M49,24 C53.418278,24 57,27.581722 57,32 C57,36.418278 53.418278,40 49,40 C44.581722,40 41,36.418278 41,32 C41,27.581722 44.581722,24 49,24 Z" id="椭圆形备份-3" fill="#FAF7EB" fill-rule="nonzero"></path>
                <path d="M47.38,31.2 C46.936,31.332 46.48,31.464 46.048,31.584 L46.048,29.208 L47.38,29.208 L47.38,28.368 L46.048,28.368 L46.048,25.968 L45.172,25.968 L45.172,28.368 L43.636,28.368 L43.636,29.208 L45.172,29.208 L45.172,31.824 C44.536,32.004 43.96,32.148 43.48,32.256 L43.732,33.132 L45.172,32.712 L45.172,35.844 C45.172,36.012 45.112,36.072 44.932,36.072 C44.788,36.084 44.272,36.084 43.696,36.072 C43.816,36.312 43.948,36.66 43.984,36.888 C44.8,36.9 45.304,36.876 45.604,36.732 C45.916,36.588 46.048,36.348 46.048,35.844 L46.048,32.448 C46.516,32.304 47.008,32.16 47.488,32.016 L47.38,31.2 Z M52.72,31.284 C52.288,32.376 51.616,33.3 50.788,34.044 C50.032,33.276 49.432,32.328 49.024,31.284 L52.72,31.284 Z M53.284,30.42 L53.14,30.456 L51.232,30.456 L51.232,28.668 L54.1,28.668 L54.1,27.84 L51.232,27.84 L51.232,25.956 L50.356,25.956 L50.356,27.84 L47.548,27.84 L47.548,28.668 L50.356,28.668 L50.356,30.456 L47.788,30.456 L47.788,31.284 L48.184,31.284 L48.148,31.296 C48.616,32.58 49.276,33.684 50.116,34.584 C49.144,35.292 48.028,35.796 46.864,36.108 C47.032,36.3 47.248,36.672 47.344,36.912 C48.568,36.528 49.732,35.976 50.752,35.196 C51.64,35.976 52.708,36.552 53.956,36.936 C54.088,36.696 54.34,36.348 54.532,36.168 C53.332,35.844 52.3,35.328 51.436,34.62 C52.516,33.624 53.368,32.316 53.872,30.672 L53.284,30.42 Z" id="形状" fill="#FFFFFF" fill-rule="nonzero"></path>
            </g>
        </g>
    </g>
</svg>