<?xml version="1.0" encoding="UTF-8"?>
<svg width="80px" height="80px" viewBox="0 0 80 80" version="1.1" xmlns="http://www.w3.org/2000/svg" xmlns:xlink="http://www.w3.org/1999/xlink">
    <title>未发现问题-颜色</title>
    <g id="检核任务" stroke="none" stroke-width="1" fill="none" fill-rule="evenodd">
        <g id="检核任务-列表备份" transform="translate(-648.000000, -186.000000)" fill="#66BF16">
            <g id="任务统计" transform="translate(402.000000, 156.000000)">
                <g id="未发现问题-颜色" transform="translate(246.000000, 30.000000)">
                    <circle id="椭圆形" opacity="0.1" cx="40" cy="40" r="40"></circle>
                    <circle id="椭圆形" opacity="0.197614397" cx="40" cy="42" r="7"></circle>
                    <path d="M51.714,24 C52.976,24 54,25.024 54,26.286 L54,53.714 C54,54.976 52.976,56 51.714,56 L28.286,56 C27.0234771,56 26,54.9765229 26,53.714 L26,26.286 C26,25.024 27.024,24 28.286,24 L51.714,24 Z M31.332,26.284 L28.286,26.284 L28.286,53.714 L51.714,53.714 L51.714,26.286 L48.666,26.284 L47.664,29.294 C47.3532344,30.2275836 46.4799478,30.8575744 45.496,30.858 L34.504,30.858 C33.52,30.858 32.648,30.228 32.336,29.294 L31.332,26.284 Z M45.3480231,36.2627417 L47.0450793,37.959798 L38.559798,46.4450793 L36.8627417,44.7480231 L36.8635902,44.7471745 L33.4686292,41.3539105 L35.1656854,39.6568542 L38.5606465,43.0501183 L45.3480231,36.2627417 Z M46.256,26.286 L33.742,26.286 L34.504,28.572 L45.496,28.572 L46.256,26.286 Z" id="形状结合" fill-rule="nonzero"></path>
                </g>
            </g>
        </g>
    </g>
</svg>