<?xml version="1.0" encoding="UTF-8"?>
<svg width="14px" height="12px" viewBox="0 0 14 12" version="1.1" xmlns="http://www.w3.org/2000/svg" xmlns:xlink="http://www.w3.org/1999/xlink">
    <title>形状结合</title>
    <g id="元数据" stroke="none" stroke-width="1" fill="none" fill-rule="evenodd">
        <g id="1.4-数据集/全部元数据-详情（摘要）备份" transform="translate(-1663.000000, -122.000000)" fill="#FF932B">
            <g id="表" transform="translate(200.000000, 95.000000)">
                <g id="右边" transform="translate(773.000000, 25.000000)">
                    <g id="收藏次数" transform="translate(656.000000, 1.000000)">
                        <path d="M44.3333333,1 C46.3583774,1 48,2.63830417 48,4.65925479 C48,5.74240705 47.5284357,6.7156422 46.7790168,7.38564206 C46.7236682,7.46708994 46.6595754,7.54437247 46.5880545,7.61559306 L41.3528086,12.8288517 C41.1577181,13.0231229 40.8422819,13.0231229 40.6471914,12.8288517 L35.4119455,7.61559306 C35.3382806,7.54223746 35.2732525,7.46349031 35.2168641,7.38061594 L35.1389399,7.31002815 C34.4373105,6.64346448 34,5.70232607 34,4.65925479 C34,2.63830417 35.6416226,1 37.6666667,1 C39.1466882,1 40.4219033,1.87510797 41.0011207,3.13512547 C41.5780967,1.87510797 42.8533118,1 44.3333333,1 Z" id="形状结合"></path>
                    </g>
                </g>
            </g>
        </g>
    </g>
</svg>