<?xml version="1.0" encoding="UTF-8"?>
<svg width="14px" height="14px" viewBox="0 0 14 14" version="1.1" xmlns="http://www.w3.org/2000/svg" xmlns:xlink="http://www.w3.org/1999/xlink">
    <title>形状结合</title>
    <g id="设计方案" stroke="none" stroke-width="1" fill="none" fill-rule="evenodd">
        <g id="查看/资产目录-摘要信息" transform="translate(-796.000000, -609.000000)" fill="#409EFF" fill-rule="nonzero">
            <g id="Content" transform="translate(420.000000, 65.500000)">
                <g id="摘要信息" transform="translate(0.000000, 125.500000)">
                    <g id="下一级" transform="translate(0.000000, 379.000000)">
                        <g transform="translate(224.000000, 26.000000)" id="已发布">
                            <g transform="translate(150.000000, 12.000000)">
                                <path d="M9,1 C12.8659932,1 16,4.13400675 16,8 C16,11.8659932 12.8659932,15 9,15 C5.13400675,15 2,11.8659932 2,8 C2,4.13400675 5.13400675,1 9,1 Z M6,9 C6.55228475,9 7,8.55228475 7,8 C7,7.44771525 6.55228475,7 6,7 C5.44771525,7 5,7.44771525 5,8 C5,8.55228475 5.44771525,9 6,9 Z M9,9 C9.55228475,9 10,8.55228475 10,8 C10,7.44771525 9.55228475,7 9,7 C8.44771525,7 8,7.44771525 8,8 C8,8.55228475 8.44771525,9 9,9 Z M12,9 C12.5522847,9 13,8.55228475 13,8 C13,7.44771525 12.5522847,7 12,7 C11.4477153,7 11,7.44771525 11,8 C11,8.55228475 11.4477153,9 12,9 Z" id="形状结合"></path>
                            </g>
                        </g>
                    </g>
                </g>
            </g>
        </g>
    </g>
</svg>