<?xml version="1.0" encoding="UTF-8"?>
<svg width="44px" height="40px" viewBox="0 0 44 40" version="1.1" xmlns="http://www.w3.org/2000/svg" xmlns:xlink="http://www.w3.org/1999/xlink">
    <title>编组 16</title>
    <g id="设计方案" stroke="none" stroke-width="1" fill="none" fill-rule="evenodd">
        <g id="编组-16" fill-rule="nonzero">
            <g id="组件_91_1备份-2" transform="translate(0.000000, 2.000000)">
                <ellipse id="椭圆_1699-4" fill="#F7F7F7" cx="21.2223133" cy="17.5" rx="17.3637109" ry="17.5"></ellipse>
                <path d="M4.51456484,1.82777778 L3.58850026,1.82777778 L3.58850026,0.894444444 C3.58850021,0.615233854 3.36391805,0.388888974 3.08688194,0.388888974 C2.80984583,0.388888974 2.58526367,0.615233854 2.58526363,0.894444444 L2.58526363,1.82777778 L1.65919904,1.82777778 C1.3821629,1.82777778 1.15758073,2.05412271 1.15758073,2.33333333 C1.15758073,2.61254396 1.3821629,2.83888889 1.65919904,2.83888889 L2.58526363,2.83888889 L2.58526363,3.77222222 C2.58526363,4.05143285 2.80984579,4.27777778 3.08688194,4.27777778 C3.36391809,4.27777778 3.58850026,4.05143285 3.58850026,3.77222222 L3.58850026,2.83888889 L4.51456484,2.83888889 C4.79160098,2.83888889 5.01618315,2.61254396 5.01618315,2.33333333 C5.01618315,2.05412271 4.79160098,1.82777778 4.51456484,1.82777778 Z" id="路径_3390-4" fill="#EFEFEF"></path>
                <path d="M43.6870967,17.1966667 L43.1326155,17.1966667 L43.1326155,16.6358889 C43.1326155,16.4683625 42.9978662,16.3325556 42.8316445,16.3325556 C42.6654228,16.3325556 42.5306735,16.4683625 42.5306735,16.6358889 L42.5306735,17.1962778 L41.9750348,17.1962778 C41.8650078,17.1923053 41.7616091,17.2491988 41.7054262,17.3446254 C41.6492433,17.440052 41.6492433,17.5587813 41.7054262,17.6542079 C41.7616091,17.7496346 41.8650078,17.806528 41.9750348,17.8025556 L42.5306735,17.8025556 L42.5306735,18.3625556 C42.5306735,18.5300819 42.6654228,18.6658889 42.8316445,18.6658889 C42.9978662,18.6658889 43.1326155,18.5300819 43.1326155,18.3625556 L43.1326155,17.8025556 L43.6882542,17.8025556 C43.7982812,17.806528 43.9016799,17.7496346 43.9578628,17.6542079 C44.0140457,17.5587813 44.0140457,17.440052 43.9578628,17.3446254 C43.9016799,17.2491988 43.7982812,17.1923053 43.6882542,17.1962778 L43.6870967,17.1966667 Z" id="路径_3391-4" fill="#E0E0E0"></path>
                <ellipse id="椭圆_1700-4" fill="#EFEFEF" cx="1.15758073" cy="16.3333333" rx="1.15758073" ry="1.16666667"></ellipse>
                <ellipse id="椭圆_1701-4" fill="#E0E0E0" cx="38.7789544" cy="7.19444444" rx="1" ry="1"></ellipse>
                <g id="组_3760" transform="translate(10.804087, 9.333333)">
                    <g id="组_3759">
                        <rect id="矩形_17788" fill="#E0E0E0" x="0" y="0" width="16.9778507" height="13.2222222" rx="0.75"></rect>
                        <rect id="矩形_17789" fill="#FFFFFF" x="1.15758073" y="1.16666667" width="14.6626892" height="11.2777778" rx="0.75"></rect>
                        <rect id="矩形_17790" fill="#E0E0E0" x="5.01618315" y="1.16666667" width="1.15758073" height="11.2777778"></rect>
                        <polygon id="矩形_17792" fill="#E0E0E0" transform="translate(8.295995, 4.861111) rotate(90.000000) translate(-8.295995, -4.861111) " points="7.71266188 -2.66316362 8.87932855 -2.66316362 8.87932855 12.3853858 7.71266188 12.3853858"></polygon>
                        <polygon id="矩形_17793" fill="#E0E0E0" transform="translate(8.295995, 9.138889) rotate(90.000000) translate(-8.295995, -9.138889) " points="7.71266188 1.61461416 8.87932855 1.61461416 8.87932855 16.6631636 7.71266188 16.6631636"></polygon>
                        <rect id="矩形_17791" fill="#E0E0E0" x="11.189947" y="1.16666667" width="1.15758073" height="11.2777778"></rect>
                    </g>
                    <g id="组_3758" transform="translate(3.858602, 3.111111)">
                        <rect id="矩形_17788-2" fill="#999999" x="0" y="0" width="16.9778507" height="13.2222222" rx="0.75"></rect>
                        <rect id="矩形_17789-2" fill="#FFFFFF" x="1.15758073" y="1.16666667" width="14.6626892" height="11.2777778" rx="0.75"></rect>
                        <path d="M11.189947,12.4444444 L11.189947,9.72222222 L6.17376388,9.72222222 L6.17376388,12.4444444 L5.01618315,12.4444444 L5.01618315,9.72222222 L0.771720485,9.72222222 L0.771720485,8.55555556 L5.01618315,8.55555556 L5.01618315,5.44444444 L0.771720485,5.44444444 L0.771720485,4.27777778 L5.01618315,4.27777778 L5.01618315,1.16666667 L6.17376388,1.16666667 L6.17376388,4.27777778 L11.189947,4.27777778 L11.189947,1.16666667 L12.3475278,1.16666667 L12.3475278,4.27777778 L15.8202699,4.27777778 L15.8202699,5.44444444 L12.3475278,5.44444444 L12.3475278,8.55555556 L15.8202699,8.55555556 L15.8202699,9.72222222 L12.3475278,9.72222222 L12.3475278,12.4444444 L11.189947,12.4444444 Z M11.189947,8.55555556 L11.189947,5.44444444 L6.17376388,5.44444444 L6.17376388,8.55555556 L11.189947,8.55555556 Z" id="联合_417" fill="#999999"></path>
                    </g>
                </g>
            </g>
        </g>
    </g>
</svg>