<?xml version="1.0" encoding="UTF-8"?>
<svg width="16px" height="16px" viewBox="0 0 16 16" version="1.1" xmlns="http://www.w3.org/2000/svg" xmlns:xlink="http://www.w3.org/1999/xlink">
    <title>hive</title>
    <g id="dark" stroke="none" stroke-width="1" fill="none" fill-rule="evenodd">
        <g id="icon集合" transform="translate(-947.000000, -335.000000)" fill="#D77083" fill-rule="nonzero">
            <g id="flinkjar" transform="translate(947.000000, 335.000000)">
                <path d="M4.57501556,0 C5.94757146,0 7.10412981,0.508565676 7.9052636,1.5016973 C8.51439957,2.25597448 8.83782448,3.2102494 8.83782448,4.01938311 C8.83782448,4.70051826 8.68125482,5.21022678 8.23897411,5.93936139 L8.09726143,6.1645017 L7.96812003,6.35878522 L8.21497438,6.21707254 C8.43554332,6.09364536 8.67439776,5.96907534 8.94296615,5.83764826 L9.22182014,5.70279264 L9.52124532,5.56107996 C10.1779098,5.25096717 10.7319607,4.75918249 11.1177987,4.14395313 C11.1943693,4.0216688 11.2617971,3.89595593 11.3200821,3.76910023 L11.4000812,3.5771024 L12.7383518,0.909703996 L13.8514821,3.48110348 L14.0960507,3.64910158 C14.2286206,3.74395765 14.365762,3.85024216 14.4994747,3.9622409 L14.6960439,4.13252469 L14.8446137,4.27195168 C15.5851767,5.00565767 16.0514572,5.80679146 15.9954578,6.78163758 C15.9588868,7.42734456 15.6834613,7.96105281 15.1497531,8.26390653 C15.04804,8.32104874 14.9554696,8.36104829 14.8777562,8.38961939 C14.5966165,8.49247537 14.3177625,8.53133207 14.0000518,8.5370463 C13.9074814,8.53818914 13.822911,8.5370463 13.7246264,8.53361776 L13.5634853,8.5267607 L13.3794874,8.51876079 C13.3324381,8.51671826 13.2853059,8.51978376 13.2389176,8.52790354 L13.1966323,8.53933198 L13.1669184,8.54847474 L13.1920609,8.62047392 L13.2126321,8.66275916 L13.8514821,10.6101657 L11.9475036,10.6101657 L11.9303609,10.6513081 L11.9235039,10.710736 C11.9292181,10.7724496 11.9612177,10.8421631 12.0492167,10.9335906 L12.1257873,11.0067326 L12.2492145,11.1233028 C12.6092104,11.4832987 12.8457791,11.9484363 12.8263508,12.5472867 C12.8005367,13.076373 12.5633702,13.5729402 12.1680725,13.9255568 L12.0160742,14.0535553 L12.0995019,13.982699 L13.6343417,15.999819 L10.2858081,15.9986762 L10.2858081,14.8569748 L11.0412281,14.8569748 C10.9338274,14.7162438 10.857836,14.5541287 10.8183735,14.3815516 L10.7955166,14.2512674 C10.7549145,13.8695918 10.8993449,13.4915241 11.1840837,13.234136 L11.2983681,13.1369943 L11.4000812,13.0467096 C11.5160819,12.9332387 11.5864293,12.7811582 11.5977933,12.6192858 C11.5963531,12.4504744 11.5262001,12.2895354 11.4035097,12.1735766 L11.3417962,12.1152915 L11.1966549,11.9770074 C10.8789443,11.6490111 10.7040891,11.2844438 10.6732323,10.8890197 C10.6473947,10.4648586 10.7866326,10.0471449 11.0617993,9.72331859 C11.2675113,9.47189286 11.6355071,9.31189467 12.0057886,9.31189467 C12.054931,9.31189467 12.1040733,9.31646605 12.1543584,9.32218027 C12.0965701,9.21442124 12.0498556,9.10108111 12.0149314,8.98389838 C11.9134528,8.66582578 11.9296769,8.32187461 12.0606452,8.01476649 C12.2766427,7.52562916 12.7863512,7.22277545 13.3943444,7.19191865 L13.5623425,7.18963296 L14.086908,7.18963296 C14.2663345,7.18963296 14.4457611,7.18963296 14.5897594,7.13706213 C14.6903297,7.09934827 14.8354709,7.03306331 14.8548993,6.67192453 C14.8891846,6.07193132 14.4469039,5.50622343 14.0743367,5.13708475 L13.8983387,4.97480087 L13.726912,4.82965966 L13.5120573,4.66623293 L13.3292023,4.53937723 L13.0194915,4.34166518 C12.9381376,4.27863713 12.8724323,4.19767884 12.8274936,4.10509642 L12.7897798,4.00795467 L12.7680657,3.93824117 C12.6640669,4.21252378 12.5280685,4.48909208 12.3600704,4.75880332 C11.824193,5.61495198 11.0533668,6.29889658 10.139524,6.72906675 C9.29267648,7.123348 8.61154133,7.47305833 8.03669069,7.90162491 C7.44812591,8.34161993 6.98527401,8.85704268 6.58185,9.5244637 C6.34642409,9.91303073 6.25956793,10.395311 6.24471096,10.8570201 L4.2893045,10.8570201 C4.29044735,10.5507378 4.32587552,10.2353128 4.39558901,9.91531642 C4.56472996,9.12675391 4.93501148,8.30390608 5.52357625,7.41248759 L5.75443079,7.0742057 L6.32585289,6.28564319 L6.62870661,5.86164799 C7.11555825,5.16222732 7.49726822,4.50166337 7.49726822,3.90967006 C7.49726822,3.4868177 7.32812727,2.78053998 6.84356132,2.17940392 C6.28928188,1.49255455 5.49500515,1.14284422 4.48015949,1.14284422 C3.00589045,1.14284422 2.27789868,1.72798045 1.94990239,2.134833 C2.39675448,2.60339912 2.61275204,3.1016792 2.62189479,3.675387 C2.63103754,4.22738076 2.44246825,4.76794607 2.20132812,5.37251066 L2.09504361,5.63536483 L1.92018844,6.07307417 C1.56362105,6.98163532 1.19219668,8.10390834 1.14534006,9.64446234 C1.13162593,10.0730289 1.1567685,10.4775958 1.21733925,10.8570201 L0.0699236549,10.8570201 C0.0111811279,10.4273001 -0.0106127107,9.99333503 0.00478153457,9.55989187 C0.0504953032,8.06619448 0.297349654,7.06049157 0.861914697,5.60907941 L1.02419858,5.20108403 L1.17162548,4.83194535 L1.28133852,4.53709154 C1.31219532,4.45023538 1.33848073,4.37252197 1.35905193,4.30166563 L1.38648019,4.20223818 L1.42419405,4.02966871 C1.43676534,3.94966961 1.44133671,3.88109896 1.44019387,3.81252831 C1.43853427,3.62813553 1.36989011,3.45063554 1.2470532,3.31310538 L1.15333997,3.20567803 L0.351063332,2.36454468 L1.08134079,1.45826922 C1.8001898,0.566850731 2.97160512,0 4.57501556,0 Z M2.15675719,12.457002 L2.15675719,14.5906921 L2.15447151,14.7506903 C2.15254917,14.9146479 2.12871937,15.077613 2.08361516,15.2352562 C2.01990763,15.4281657 1.89361218,15.5942804 1.72476208,15.7072509 C1.55104976,15.8261067 1.32362376,15.8855346 1.03905555,15.8855346 C0.707630728,15.8855346 0.450490779,15.7929642 0.271064237,15.6066806 C0.091637695,15.420397 0.00135300192,15.1461144 0.000210157702,14.7861185 L0.641345763,14.7129764 L0.651631361,14.8466892 C0.657064157,14.9427905 0.682769697,15.0366546 0.727059079,15.1221147 C0.796012777,15.2410117 0.925808612,15.3112074 1.06305528,15.3038269 C1.21391072,15.3038269 1.32133807,15.2603988 1.3841945,15.1735427 C1.44705094,15.0866865 1.47905057,14.90726 1.47905057,14.6341202 L1.47905057,12.457002 L2.15675719,12.457002 L2.15675719,12.457002 Z M4.57158702,12.457002 L5.92128604,15.8283924 L5.18072299,15.8283924 L4.88701203,15.0626868 L3.53845585,15.0626868 L3.26074471,15.8283924 L2.53846716,15.8283924 L3.85273801,12.457002 L4.57158702,12.457002 L4.57158702,12.457002 Z M7.71783715,12.457002 L7.88926378,12.4592876 C8.16240355,12.4684304 8.36697266,12.4970015 8.50297113,12.5472867 C8.66627999,12.6079614 8.80437631,12.721901 8.89496669,12.8707116 C8.99401482,13.030013 9.0448217,13.2145849 9.04125075,13.4021341 C9.04966775,13.6316926 8.96993158,13.8557717 8.81839613,14.0284128 C8.66982638,14.1929823 8.4481146,14.2969811 8.15211795,14.3404092 C8.29954486,14.4261225 8.42068634,14.5198358 8.51668526,14.6226917 C8.61268417,14.7255477 8.74182557,14.9084028 8.90410945,15.171257 L9.31553336,15.8283924 L8.50182828,15.8283924 L8.00926243,15.0946864 L7.92697764,14.9712592 C7.84283884,14.8412916 7.75046022,14.7168476 7.65040934,14.598692 C7.59437919,14.5364932 7.52421859,14.4886742 7.44584023,14.459265 C7.33424212,14.4287165 7.21859111,14.4156094 7.10298696,14.4204083 L6.96584566,14.4204083 L6.96584566,15.8283924 L6.2847105,15.8283924 L6.2847105,12.457002 L7.71783715,12.457002 L7.71783715,12.457002 Z M4.20359119,13.2432788 L3.74873919,14.4946932 L4.66872878,14.4946932 L4.20359119,13.2432788 Z M6.96584566,13.0272812 L6.96584566,13.8821287 L7.46869711,13.8821287 C7.79555056,13.8821287 7.99897683,13.8684146 8.08011877,13.8409863 C8.15774281,13.8163198 8.22491117,13.7664463 8.27097375,13.6992736 C8.31921181,13.6236937 8.34314206,13.5351518 8.3395444,13.4455622 C8.3395444,13.3312778 8.30983045,13.2398502 8.24925971,13.1712796 C8.1823944,13.09807 8.09163843,13.0510714 7.99326261,13.0387097 C7.87083113,13.0293771 7.74804142,13.0255637 7.62526677,13.0272812 L6.96584566,13.0272812 L6.96584566,13.0272812 Z M13.1029191,5.2856545 C13.4709149,5.2856545 13.7451975,5.59765097 13.7611974,5.96564681 C13.77834,6.33135696 13.4469152,6.64563912 13.1029191,6.64563912 C12.7337804,6.64563912 12.4606406,6.33478549 12.4446408,5.96564681 C12.4274982,5.59993666 12.758923,5.2856545 13.1029191,5.2856545 Z" id="形状"></path>
            </g>
        </g>
    </g>
</svg>