<?xml version="1.0" encoding="UTF-8"?>
<svg width="16px" height="16px" viewBox="0 0 16 16" version="1.1" xmlns="http://www.w3.org/2000/svg" xmlns:xlink="http://www.w3.org/1999/xlink">
    <title>hive</title>
    <g id="dark" stroke="none" stroke-width="1" fill="none" fill-rule="evenodd">
        <g id="icon集合" transform="translate(-946.000000, -66.000000)">
            <g id="编组-3" transform="translate(946.000000, 66.000000)">
                <g id="hive" transform="translate(0.000000, 0.000000)">
                    <g id="编组" transform="translate(0.153018, 0.107906)" fill="#FDEE21">
                        <path d="M9.00313547,2.07061322 C8.86280777,1.68630462 4.03578984,-0.190282549 3.97408934,0.0157498139 C3.08771336,0.246808193 2.72697472,1.26843386 2.11724997,1.91554293 L0.763242409,1.83798958 C0.166785999,2.60500511 -0.146193905,3.38867432 0.0669185455,4.20317558 C0.831385975,5.23890682 1.7188176,6.1202594 2.27193805,7.4212482 C2.31565622,8.03446749 4.92596977,7.48555141 5.48546048,7.36416341 C4.72117506,7.91125941 4.05559225,8.75926823 4.34161686,11.2016072 C4.60272465,12.3485085 4.7813285,13.6290397 7.0972087,14.9262063 C7.40207108,15.0969584 8.03285408,15.2939887 8.42291411,15.4376107 C8.79593826,15.6087195 9.23213716,15.6790253 10.4626709,15.3027014 C11.1747566,14.9957823 11.943574,14.810881 12.6403893,14.5047082 L11.8028459,14.5440127 C10.6494833,14.569106 9.75908495,14.6551409 9.4844358,14.3328841 L8.42296872,12.5004337 L9.04179383,11.2984569 C9.8982478,11.3862992 10.1825251,12.0808339 10.9374008,12.345327 L11.8271439,11.6861873 C14.4114668,13.2117004 15.4396265,10.719364 15.7342965,8.77825524 C15.7028529,7.98848879 14.0243007,9.0259855 14.1260428,8.65669433 C14.1654692,7.80773907 13.4734735,6.69702079 13.0263542,5.83157566 L13.5438012,3.82931239 C13.7785907,3.6201859 12.4568531,1.39296149 11.3775492,1.11521822 C10.4305648,0.871492128 9.00308086,2.0706114 9.00308086,2.0706114 L9.00313547,2.07061322 Z" id="路径"></path>
                    </g>
                    <g id="编组" fill-rule="nonzero">
                        <g transform="translate(10.596250, 6.433801)" fill="#C8C037" id="路径">
                            <path d="M2.80540778,1.03459222e-15 C2.81467687,0.21507449 2.81363742,0.476637307 2.83442158,0.639770528 C2.83084277,0.76423082 2.7375445,0.768791925 2.66034061,0.794862663 L3.16324522,0.979035939 C3.26308538,1.14705242 3.34332515,1.31507618 3.42437122,1.4830872 C3.51838168,1.89638957 3.44822329,1.90820185 3.38568737,1.93866989 C3.20318856,1.94052855 3.02121758,1.94087 2.85135008,1.90474371 C2.92744737,1.94490546 2.94418477,1.97418317 2.95223678,2.02563302 C2.96708057,2.12048981 2.90599416,2.25002993 2.80541324,2.3748688 C2.95414604,2.45739095 3.22532248,2.53812578 3.42678646,2.61477273 L3.65647978,2.10345938 C3.55246074,1.35229669 3.23704376,0.659976988 2.80541324,1.03459222e-15 L2.80540778,1.03459222e-15 Z"></path>
                            <path d="M3.74401988,2.51954283 C4.022928,2.63579459 4.40825584,2.60171188 4.94250212,2.32637839 C5.02195381,2.26987783 5.09595437,2.30365477 4.95377511,2.39659138 C4.25306487,3.0253723 3.91766166,2.71082713 3.74401988,2.51954101 L3.74401988,2.51954283 Z"></path>
                            <path d="M4.9960487,2.24398364 C5.07890392,2.40263038 5.02870446,2.53164632 5.00088427,2.66564016 C4.91436888,3.34723962 4.70197354,3.8861089 4.28521302,4.44920335 C2.9296584,6.62855981 1.56110845,5.26490586 0.46997416,4.37739234 L0.01863224,5.50833164 C-0.00532357236,5.60746015 -0.104956236,5.6846604 0.599909234,5.994983 L1.31796478,5.48778301 C4.05644793,7.57140358 5.9970107,2.57129663 4.99597007,2.24404735 L4.9960487,2.24398364 Z"></path>
                            <path d="M0.800232389,4.19146269 C0.61547669,4.20464767 0.0656323717,4.39161622 0.0411523781,4.49989241 L0.294179048,4.12291871 L0.800232389,4.19146269 Z"></path>
                            <path d="M0.440949806,1.88051489 C0.47479954,1.88051489 0.637299376,1.92414388 0.619866708,1.91444107 C0.594935336,1.90056191 0.617087091,2.14229612 0.668222431,2.26824523 L0.469961783,2.69960274 C0.849720198,2.26163836 1.45021717,2.29077774 2.0076694,2.23431905 L1.7417202,2.06953502 C1.78792096,1.91544029 1.73351913,1.79352082 1.70787047,1.6624209 L0.440949806,1.88051489 Z"></path>
                            <path d="M1.37410168,0.581710172 C0.966641744,0.706625482 0.576618113,0.910688525 0.314764084,1.34570438 C0.514535393,0.628686278 0.555250445,0.655914584 0.619753863,0.620477745 C0.899153404,0.495527853 1.12795489,0.573403354 1.37410168,0.581704711 L1.37410168,0.581710172 Z"></path>
                        </g>
                        <g transform="translate(3.229265, 0.132429)" fill="#FCF6A0" id="路径">
                            <path d="M6.56518848,15.2870917 C6.07249448,15.8307478 4.97316986,15.245958 4.0602208,14.9478299 C1.74035464,13.4726601 1.28715625,12.0839437 1.25566897,10.7216184 C1.13639043,8.77013518 1.73562245,7.63622915 2.49357401,7.36776826 C1.99194345,8.33475531 1.75808216,10.070578 1.9906694,11.3613744 C2.17841002,12.0794845 2.18230498,13.2906527 3.38384495,13.938963 C3.97222023,14.2701982 3.81285456,14.5280845 4.21072271,14.8383161 C4.64672141,15.1782877 5.86238515,15.5014964 6.56518848,15.2871099 L6.56518848,15.2870917 Z"></path>
                            <path d="M7.30122636,6.26844364 C6.4670683,5.08555942 5.29386688,4.6415342 3.97085518,4.59301103 C4.23600354,4.50657936 4.5011519,4.46157257 4.76630026,4.33372331 C4.8312314,4.26549966 4.81000388,4.14545486 4.78564219,4.02354632 C3.5121365,3.69101882 2.70839187,3.28004614 1.69097058,2.89908647 L4.43764406,3.55822623 C6.29248135,3.62870677 6.13318849,4.08663008 7.3013483,6.26849824 L7.30122636,6.26844364 Z"></path>
                            <path d="M8.19433661,5.69803248 C7.57787759,4.81802676 6.97998332,3.75000741 6.16841238,3.07075584 C4.20928485,2.18649115 2.27127019,1.52977209 0,0.932169037 L0.724880823,1.29324027e-16 C3.13502265,0.550153731 5.39883054,1.4707653 7.42657484,2.9883793 C7.76964057,3.85582651 7.99842386,4.72442036 8.1941546,5.69792328 L8.19433661,5.69803248 Z"></path>
                            <path d="M9.43708305,4.14296136 C9.43708305,4.14296136 9.09148742,3.36762809 8.92322159,3.07155667 C8.53288855,2.63899792 8.33551974,1.8329236 7.53608869,1.45311058 C7.78893335,1.52139065 7.96196778,1.44003699 8.47814073,1.90798344 L9.29114953,3.45020484 L9.43708305,4.14296136 Z"></path>
                            <path d="M9.8669845,5.48617588 C9.94668918,4.81442302 10.0980429,3.73690288 9.92434777,3.3111876 C9.44111815,2.66280448 8.9544304,1.99261688 8.46756064,1.37044283 C8.38693136,1.29540118 8.32887101,1.19355713 8.26535043,1.11410362 C8.94988021,1.29145162 9.66425921,1.76740094 10.6276243,3.64637241 L9.8669845,5.48617588 Z"></path>
                        </g>
                        <g transform="translate(6.990362, 2.037919)" fill="#000000" id="路径">
                            <path d="M3.22799202,3.66004116 C2.9553395,3.44545445 2.71235963,2.68648364 2.29920286,2.52868324 C1.91678714,2.4966918 1.77656865,2.37637582 1.27370044,2.4788387 C1.45609004,2.38744733 1.62828723,2.27051304 1.8221615,2.2079207 C1.95348347,2.1769212 2.07666243,2.21126636 2.20195632,2.22854942 C2.23289575,2.21392385 2.25317138,2.1957353 2.24560715,2.16824491 C1.7394082,1.85542881 0.700983253,1.85096963 -2.06918443e-15,1.67240218 C0.813554822,1.69963413 1.71370876,1.65453816 2.32514438,1.85060926 C2.81680093,2.28693557 2.97651242,3.10862612 3.22799202,3.66004116 L3.22799202,3.66004116 Z"></path>
                            <path d="M4.71880908,3.87972081e-16 C4.83167368,0.0102535682 5.43908511,0.971064015 5.46762387,1.1309393 C5.51813274,1.48042989 5.6427077,1.87221899 5.67620434,2.23789004 C5.57615852,1.88718 5.46715065,1.53648817 5.33086352,1.18577813 C5.29100754,1.08920137 5.19027919,0.870868948 4.91029905,0.562057014 C4.7799308,0.344394379 4.75178517,0.173307435 4.71882728,3.87972081e-16 L4.71880908,3.87972081e-16 Z"></path>
                            <polygon points="6.77713062 5.23313101 6.51726047 5.23313101 6.80448633 5.33313101"></polygon>
                            <path d="M5.00401465,4.97358848 C4.74268845,4.94146235 4.47453696,4.93720338 4.21322895,4.99463763 C4.10671459,5.13771 4.09937605,5.28322855 4.05282584,5.4177138 C4.37050154,5.06760439 4.49655985,5.04620032 5.00401465,4.97359758 L5.00401465,4.97358848 Z"></path>
                            <path d="M8.56808332,6.78055782 C8.42265941,6.89662575 8.40812795,7.00586477 7.97814277,7.13678268 C7.66458044,7.21093249 7.48743265,7.08524911 7.33984286,6.91626253 C7.56360275,6.98036007 7.5993672,7.14941399 8.19937275,6.95988242 L8.56808332,6.78055782 Z"></path>
                            <path d="M7.26491042,6.85317877 C7.16024889,7.14096885 7.04742979,7.43179846 6.93367518,7.7013332 C6.66279358,8.01900889 6.77823723,7.83798252 6.37274661,8.33138817 C6.50249058,8.13121645 6.67123872,7.93887104 6.75958511,7.73039978 C6.82163325,7.59312616 6.898879,7.44750569 6.93308001,7.32554254 C6.82556097,7.27185036 6.60548492,7.26760231 6.5756357,7.28687143 C6.21511547,7.49951066 6.15006603,7.7245446 5.937536,7.94366329 C6.0915816,7.6974073 6.2231602,7.42861879 6.40174585,7.20697019 C6.42209609,7.1782021 6.55431536,7.17263814 6.63560714,7.15566413 C6.50928673,7.13399069 6.27548732,7.08859805 6.25666776,7.09065109 C6.02147781,7.14716984 5.88968626,7.3520319 5.71508657,7.48808242 C5.84238072,7.30429136 5.9596317,7.11292879 6.12127246,6.95494638 C6.13726181,6.93636707 6.57416144,6.97464322 6.80059684,7.06499897 L6.80508878,7.15507624 L6.93364606,7.20697019 L7.0303575,6.96464555 L7.26491042,6.85317877 Z"></path>
                            <path d="M4.41194462,8.5882552 C4.35391703,8.56842549 3.84135146,8.50250788 3.84135146,8.51798032 C3.64454687,8.65804775 3.61469766,8.79206525 3.61892023,8.90813136 C3.94633332,8.58603289 3.93413883,8.58512285 4.41196282,8.58825338 L4.41194462,8.5882552 Z"></path>
                            <path d="M4.02263082,6.27166517 C4.02263082,6.27166517 4.39250623,6.21774366 4.38529874,6.25227774 C4.35850361,6.38060023 4.4305749,6.69333624 4.4384904,6.64970907 L4.23056516,6.81933996 C4.66603603,6.60040327 5.12445804,6.64439992 5.58935951,6.6109415 C5.58935951,6.6109415 5.19791622,6.50286369 5.22185019,6.49946925 C5.30917188,6.48708729 5.19860421,6.09122668 5.16865854,6.08265413 C5.24312686,6.05745157 5.31585337,6.03845364 5.39108976,6.01964864 C4.83130784,5.87316363 4.5076077,5.95947881 4.02261262,6.27167427 L4.02263082,6.27166517 Z"></path>
                            <path d="M7.22377675,6.54777037 L7.1415713,6.58896593 C7.12990826,6.34815195 6.87127212,6.36582487 6.65317267,6.36360438 L6.47425577,6.31998449 C6.52865596,6.37033501 6.6968326,6.36638727 6.62899481,6.47507662 C6.57190455,6.50559016 6.54563907,6.63651718 6.51294144,6.74648604 L6.41622999,6.75133253 C6.58707487,6.81810012 6.74557236,6.87661914 6.9336406,6.95488959 L7.04485803,6.97185268 L7.31080722,6.82887678 L7.22377675,6.54777037 Z"></path>
                        </g>
                        <g transform="translate(11.450873, 8.363762)" fill="#FFFFFF" id="路径">
                            <path d="M0.311625742,0.124236091 C0.269997013,-0.0475006288 0.0605647519,-0.0231186298 0.015408719,0.0879955745 C-0.0212803302,0.178281843 0.0131310786,0.757589636 0.060173436,0.659894641 C0.128185957,0.53521776 0.217020122,0.483072012 0.323720133,0.493129966 C0.337171207,0.386098152 0.33240953,0.270534157 0.311631021,0.124234573 L0.311625742,0.124236091 Z"></path>
                            <path d="M2.32007727,0.987322417 C2.33976318,0.957295439 2.38139373,0.666857022 2.36794703,0.579956299 C2.34043297,0.374880307 2.14567961,0.41804601 2.14567961,0.41804601 C2.09816112,0.476355576 2.05651601,0.796058085 2.07388133,0.901548944 C2.08217049,0.990840803 2.28881386,1.01930292 2.32006452,0.987307235 L2.32007727,0.987322417 Z"></path>
                        </g>
                        <g transform="translate(0.000000, -0.000000)" fill="#000000">
                            <path d="M5.44283856,13.6429462 L5.56586828,13.654979 C6.29519008,14.0130786 7.49605662,14.5440305 9.23459119,14.2587157 L9.50738386,14.687962 C8.74173339,15.0600215 7.91824096,14.9744052 7.14656604,15.0005051 L5.44283856,13.6429462 Z" id="路径"></path>
                            <path d="M4.39575006,10.8120033 L4.76109349,12.3457431 C5.73920119,12.9571605 7.41002901,13.6574704 8.80274954,13.6009571 L8.49497505,12.8947684 C5.58777105,12.2773993 5.34187907,11.4969517 4.39580466,10.8118759 L4.39575006,10.8120033 Z" id="路径"></path>
                            <path d="M5.30487696,7.67037374 C5.48343713,8.85891838 5.72180129,9.76000056 6.75529384,10.5147852 C7.38875235,10.9703497 8.01753327,11.4239849 8.78231011,11.7983741 C8.78231011,11.7983741 8.71526587,12.1473005 8.6592167,12.1410758 C6.38321431,11.8882675 4.71693668,10.0010329 4.51509049,9.13904595 C4.71058462,8.47783131 4.9910216,8.06482015 5.30480234,7.67037374 L5.30487696,7.67037374 Z" id="路径"></path>
                            <path d="M6.39892337,6.99694641 C6.70222048,8.31424307 7.42539043,9.64843003 8.14417401,10.8587792 C8.40766611,11.1931085 8.4766287,11.3406437 8.88274179,11.5442008 C9.43165787,11.7180033 9.81982502,11.6736426 10.2182574,11.6475009 C10.1090857,11.4454363 10.0120612,11.2342349 9.88669454,11.0443284 C8.99453073,10.3387768 9.40685026,9.6963817 9.64382388,9.28966799 C9.14774455,9.1643195 8.49044307,8.89789708 8.39989439,8.54747826 C8.25430304,7.41410006 8.32823262,7.05456266 8.4739441,6.47241203 C7.80217303,6.61405382 7.1214654,6.75441428 6.39887787,6.99695733 L6.39892337,6.99694641 Z" id="路径"></path>
                            <path d="M3.93454334,0 C3.71375018,0.144237215 3.50103815,0.350473426 3.27220026,0.58488074 C2.89284226,0.977561679 2.64065282,1.36061443 2.25450595,1.64460055 C2.17727657,1.71119342 1.96054582,1.81843763 1.68808076,1.83434326 C1.55972915,1.84074992 1.47611495,1.86199018 1.24026978,1.83237758 C1.03227174,1.7197514 0.834666318,1.79299118 0.64181129,2.02366734 C0.430336906,2.32778348 0.162513035,2.90525652 0.0511427149,3.26877988 C-0.178386802,4.19587091 0.406803351,4.95971951 0.96798673,5.54842241 C1.46721479,6.03612941 1.75504128,6.34091898 1.960018,6.78802013 C2.1152157,7.0780125 2.23018976,7.47598985 2.35466461,7.75502538 C2.39954946,7.84349007 2.39021794,7.84302959 2.51103262,7.86969003 C2.77190381,7.92536245 3.1337709,7.92579927 3.45592397,7.95348805 C3.59531069,7.95543389 3.7867224,7.95024595 3.96809276,7.93134139 C4.21800711,7.88415052 4.51162143,7.83791154 4.75771361,7.75279579 C4.99819998,7.69357968 5.21245907,7.61157261 5.40560531,7.53607959 C5.38069578,7.62060746 5.19669723,7.70198478 5.12771643,7.80912707 C4.47303586,8.74628311 4.29370398,9.58020456 4.40767701,10.8959724 C4.47215312,11.4791604 4.60599226,11.9626267 4.80794765,12.5157835 C4.9003619,12.7689194 5.09701179,13.1698089 5.28546224,13.4361039 C5.84586298,14.2279452 7.09956627,15.2447841 8.84479871,15.6362092 C9.14927887,15.677827 9.49483809,15.6556294 9.81983048,15.5690812 C10.6811986,15.3079734 12.4367327,14.6904405 12.4367327,14.6904405 C12.4367327,14.6904405 10.8784037,14.8193527 10.1647345,14.7487885 C9.99951182,14.7229525 9.81744619,14.714187 9.70234472,14.6015955 C9.68303737,14.5766714 9.61289901,14.43539 9.65819336,14.4341214 C9.71998851,14.4323923 9.89738747,14.3587703 10.1712904,14.3343431 C9.58651885,14.2713849 9.59485479,14.272133 9.55217406,14.1656113 C9.48579415,14.0002631 9.3841958,13.774259 9.2795816,13.576508 C9.53653963,13.5981869 10.1054583,13.6301183 10.2985318,13.4308566 C10.2985318,13.4308566 9.96187269,13.4697261 9.66436341,13.4348316 C9.56412831,13.4230749 9.39333621,13.362127 9.34202833,13.3432874 C9.20846585,13.2912697 9.09850245,13.2751147 9.07287581,13.2411976 C9.02649486,13.1231549 8.99506583,13.0834482 8.93908946,12.9253056 C8.863267,12.7159243 8.85725165,12.4823542 8.84281665,12.2685683 C9.03743715,12.5084541 9.28542221,12.7103913 9.61372714,12.8135167 C9.61793897,12.8046391 10.0396244,12.9968345 10.3458701,12.8980045 L10.4093652,12.8775214 C10.4093652,12.883188 10.2064633,12.895298 10.1320405,12.8584579 C9.50922942,12.5937282 9.41547741,12.3620146 9.31491833,12.2469313 L9.04596601,11.8440944 C9.12776559,11.6810012 9.17401003,11.6748038 9.28237541,11.673295 C9.61018892,11.7097074 9.75282811,11.7377238 9.95229,11.6896005 C10.0870719,11.9669797 10.1234898,12.2460153 10.4303324,12.4478797 C11.4525951,12.7513224 11.6746987,12.3577678 11.9223016,12.0100245 C12.6578298,12.549822 13.85522,12.7162677 14.6868118,12.0193939 C15.7440199,10.7960858 16.0787315,8.86757192 15.9849795,8.75745745 C15.852944,8.53346096 15.6797167,8.30245719 15.530962,8.33438128 C15.0007745,8.47911356 14.8052804,8.74808407 14.2799343,8.68672938 C14.3425029,8.6831928 14.4477214,8.68149958 14.4485241,8.67553447 C14.4889989,8.23069022 14.4452692,8.01544828 14.4257404,7.97850078 C14.2663201,7.62691711 14.0569752,7.25691429 13.9110599,6.97962604 C13.8734426,6.92209896 13.7629659,6.48520297 13.5778408,6.31260536 C13.4984437,6.24481671 13.3041199,6.06605815 13.3041199,6.06605815 L13.2876511,6.25605567 C13.2876511,6.25605567 13.3636192,6.26752796 13.392531,6.38523177 C13.5021395,6.83145928 14.0602615,7.88651971 14.1012314,7.93708136 C14.299037,8.25641332 14.1213341,8.65420867 14.2717232,8.87738613 C14.2861709,8.90573924 14.578533,8.87490173 14.8051322,8.88882438 C15.177756,8.80867925 15.1620305,8.64446126 15.4839106,8.61978106 C15.700736,8.60315523 15.7224859,9.01036891 15.7196283,9.0419654 C15.6792227,9.49159645 15.5424442,10.0143763 15.3331175,10.4917998 C14.8979014,11.3302897 14.4105038,12.0833816 13.719258,12.1883999 C12.8760905,12.3357385 12.4379441,11.9671153 11.980869,11.7323804 L11.8060181,11.8815063 C11.2120006,12.4730485 10.5066856,12.420503 10.2182039,11.6476086 C10.0745982,11.3477879 9.88746006,11.1640332 9.72722076,10.9068386 L8.87746467,11.5188748 C8.8067275,11.6639493 8.71975162,11.892718 8.61409998,12.1482564 C8.54064726,12.3259138 8.47905231,12.631031 8.48306376,12.8845854 C8.3741378,13.070142 8.86034687,13.8226879 9.16757534,14.2804365 C9.25823504,14.4155078 9.42746369,14.6514586 9.43312412,14.6661648 C9.49405291,14.8242036 9.62748981,14.9637286 9.63558914,14.9807463 C10.2059457,15.7246469 8.91609573,15.5533416 8.64970972,15.5084039 C8.12414519,15.4246623 7.61006532,15.205125 7.12685391,14.9115653 C7.09881385,14.8945292 7.0708739,14.8772515 7.04304497,14.8597296 C6.46879346,14.4981537 5.94042601,14.0355456 5.49117718,13.577979 C5.2232987,13.2746455 4.96823355,12.65289 4.7798377,12.2121046 C4.49748964,11.1523483 4.0922866,9.31545698 5.18993675,7.92346448 C5.25951453,7.84389631 5.33459258,7.71142587 5.39851722,7.68521681 C5.72463805,7.46464205 6.07876983,7.31430395 6.45958388,7.23081716 L6.42114028,6.98396054 C6.23096077,7.02717092 5.59058597,7.2613944 5.40952502,7.35942358 C4.99776971,7.47878767 4.65623285,7.60342269 4.13146915,7.73481382 C3.96088454,7.75568643 3.79308101,7.75606136 3.62951097,7.73384008 C3.25200945,7.68255404 2.60855873,7.72836712 2.56751607,7.69023839 C2.31190489,7.33377692 2.24192305,6.6950948 2.00869878,6.35328492 L2.00594683,6.34987774 L2.00299267,6.3466331 C1.86703315,6.16389768 1.70855932,6.01483363 1.55248798,5.85976334 C0.993579698,5.3044588 0.515209681,4.767537 0.381306846,4.19858191 C0.34763548,4.03058909 0.26092716,3.85659003 0.307011431,3.35952785 L0.307861223,3.35709441 L0.30867061,3.35466079 C0.443137668,2.89030535 0.661892347,2.51178458 1.03316922,2.13242658 C1.4195345,2.13866343 1.80196842,2.14715098 2.09985991,2.20405559 C2.23652744,2.22691936 2.5207338,2.26404341 2.81427531,2.37339526 C3.55726587,2.6501739 4.53897732,3.10522877 4.53897732,3.10522877 C3.80206581,2.70051714 2.97806376,2.17489801 2.45772284,2.0688241 C2.38030418,2.05786416 2.33272199,2.0225469 2.30973081,1.96089372 C3.09234438,1.50107026 3.23551139,0.959689282 3.75026468,0.474148174 C3.98550923,0.371747177 4.07724096,0.319471015 4.27712147,0.297752074 C6.12577051,0.590055938 7.28952574,1.32636683 8.21011911,1.81871501 C8.58376208,2.02190806 8.92342426,2.17555869 9.24783423,2.3606056 C9.53220257,2.45414102 10.3903128,3.1019945 10.6414466,3.45128488 C10.8965664,3.98993574 11.0828327,4.57177696 11.2527184,5.13323335 C11.3745378,5.70428152 11.4813925,5.93592233 11.4813925,5.93592233 C11.4813925,5.93592233 11.3778612,5.45828034 11.3951155,5.37246386 C11.5024562,5.41257464 11.7562364,5.49181338 11.8614367,5.4795024 C11.8614367,5.4795024 11.39153,5.23659534 11.3299569,5.02191763 C11.1323697,4.33307427 10.9342,3.26072314 10.8807627,3.20481047 C10.7301697,3.01532258 10.1021896,2.53473207 9.71698921,2.31242825 C9.5712741,2.22833174 9.4925195,2.17616842 9.48636765,2.13919544 C9.60942285,2.01488439 9.76139902,1.85044072 9.89766795,1.74595028 C10.0282874,1.64578979 10.1472183,1.53283783 10.3292621,1.46524028 C11.1294211,1.10486565 11.5869513,1.60388623 11.6955187,1.50283573 C11.6955187,1.50283573 11.5233761,1.30552152 11.5998374,1.33800256 C11.6781388,1.38041574 11.9333296,1.43043319 11.9613405,1.45647845 C12.2529709,1.68460651 13.0153999,2.51838235 13.4749321,3.39813326 C13.5852996,3.61363 13.6301626,3.75552296 13.5789749,4.0150109 C13.5276506,4.27473544 13.4879402,4.41755664 13.4319547,4.59100968 C13.3813858,4.70696658 13.0952775,5.50082821 13.0963877,5.60748454 C13.0387533,6.04306462 13.2832001,6.58837695 13.2832001,6.58837695 C13.2855121,6.44035762 13.2740943,6.36148654 13.2875095,6.25563104 L13.3039637,6.06647077 C13.3039637,6.06647077 13.2935347,6.01615664 13.2954272,5.99621591 C13.3078419,5.86541266 13.339928,5.75543834 13.3493469,5.6805241 C13.4412169,5.11166001 13.6009175,4.70214339 13.7820694,4.20295173 C13.8359036,4.07697349 13.9063386,4.00691157 13.9027458,3.91099367 C13.9057078,3.74078401 13.7534124,3.51232469 13.6433489,3.28920184 C13.5323244,3.06369468 13.399641,2.81230608 13.2254599,2.54733972 C12.8283198,1.97627334 12.489786,1.52946341 11.8698689,1.24982726 C11.6964158,1.17370995 11.0138881,1.09929077 10.7781886,1.14351128 C10.492255,1.20308048 10.246363,1.26182337 10.050341,1.38736478 C9.7418385,1.5849156 9.49940466,1.89077901 9.21510912,2.07100273 C8.58609159,1.75645756 8.28250327,1.52104921 8.22589897,1.48859729 C7.85205579,1.28827996 7.40322558,1.05582012 6.92035998,0.835372776 C6.68884658,0.619475612 5.25117022,0.103102453 3.93471079,0 L3.93454334,0 Z M11.9807259,11.7320142 C11.5930502,11.4289719 11.266711,11.1170112 11.0515782,10.7957682 C10.9813561,11.1735791 10.7264402,11.4426589 10.5294354,11.7073158 C10.4902201,11.7693876 10.4619507,11.854021 10.6550606,12.1237305 C10.707111,12.195587 10.8954377,12.2078671 11.0225699,12.2012766 C10.8932263,12.103504 10.696449,12.0001038 10.6647434,11.9104834 C10.8922708,12.065388 11.1029443,12.1099089 11.2933605,12.0849611 C11.3368657,12.0800711 11.3909164,12.0339317 11.4326926,11.9629106 C11.5175754,11.7805392 11.5840408,11.7366208 11.6511925,11.6875334 L11.8059315,11.8813895 L11.9807259,11.7320142 Z" id="形状" stroke="#000000" stroke-width="0.11397"></path>
                        </g>
                    </g>
                </g>
            </g>
        </g>
    </g>
</svg>