<?xml version="1.0" encoding="UTF-8"?>
<svg width="16px" height="16px" viewBox="0 0 16 16" version="1.1" xmlns="http://www.w3.org/2000/svg" xmlns:xlink="http://www.w3.org/1999/xlink">
    <title>hive</title>
    <g id="dark" stroke="none" stroke-width="1" fill="none" fill-rule="evenodd">
        <g id="icon集合" transform="translate(-947.000000, -373.000000)" fill-rule="nonzero">
            <g id="Java-horz-wht备份" transform="translate(949.000000, 373.000000)">
                <path d="M8.32094844,13.5219471 C7.90906407,13.4094105 6.98129076,13.2259015 5.65459264,13.2259015 C4.3525997,13.2259015 3.2887346,13.4409398 3.28542089,13.6941867 C3.28322268,13.8626276 3.49431588,13.9360692 3.49431588,13.9360692 L3.45674956,13.9570887 C2.83327986,13.8507566 2.25410232,13.6863994 2.25743441,13.4403383 C2.26322323,12.9938007 4.03297428,12.6584701 5.65203353,12.6584701 C7.02847012,12.6584701 8.35044374,12.8812957 8.94674758,13.1732261 L8.32094844,13.5219471 Z M3.92096431,12.1414665 C3.63181846,12.0859421 3.00165572,11.9463397 3.00165572,11.6506739 C3.00165572,11.2411103 4.34990936,10.9274007 5.65150859,10.9274007 C7.44255269,10.9274007 8.17612945,11.3720706 8.20933217,11.3950844 L7.46460035,11.8107893 C7.14789493,11.7379808 6.61425631,11.6235765 5.65331308,11.6235765 C4.58085202,11.6235765 3.88211843,11.800786 3.88211843,11.9948048 C3.88211843,12.0359891 3.90879216,12.0848341 3.95849782,12.1205419 L3.92096431,12.1414665 Z M11.2398024,14.8972362 C11.1897031,13.9698143 10.3016615,13.392348 9.41404638,12.9044045 L9.49452689,12.8596431 C10.4416247,13.1167204 12.1315514,13.86535 11.9918506,15.0160724 C11.9222627,15.5899616 11.3786174,16 10.669877,16 C10.4491708,16 10.2528416,15.9624245 10.0936523,15.9156688 L10.0931602,15.9141809 L10.0595637,15.8325721 C10.6934667,15.952263 11.2727427,15.5056303 11.2398024,14.8972362 L11.2398024,14.8972362 Z M5.62703306,9.4546748 C8.1184512,9.47556767 10.9060691,9.94606881 10.8988978,10.736864 C10.8976044,10.8801701 10.8008506,10.978335 10.7167939,11.0376897 L10.6759139,11.0150874 C10.4455946,10.4024831 8.49883892,9.94989917 5.6228007,9.92568243 C3.76702441,9.91007609 1.19640531,10.3390447 1.19191048,10.8347756 C1.18741564,11.3317727 2.40968267,11.6048995 2.40968267,11.6048995 L2.32332934,11.6525099 C1.50425229,11.5437087 -0.00496237467,11.1651995 1.22673691e-05,10.618756 C0.00720976973,9.82872051 3.47574598,9.43647267 5.62703306,9.4546748 L5.62703306,9.4546748 Z M5.36787466,8.89006076 C4.37760017,8.8816403 3.16839113,8.96077997 2.15118044,9.12573869 L2.05698576,9.0734432 C3.07022656,8.78679933 4.48088295,8.61367339 6.03097765,8.6266523 C9.07519487,8.65238852 11.5432858,9.38072669 11.5921056,10.2573093 L11.5568687,10.2770942 C11.3528295,10.0368262 10.0361381,8.92937735 5.36787466,8.89006076 Z M1.55422042,15.1086974 C1.55422042,15.5517529 3.29605101,15.8003148 4.10705704,15.8605243 L4.1844535,15.8173773 C3.8728991,15.7627076 2.62294126,15.5500119 2.62294126,15.2725482 C2.62294126,14.9704563 4.54010322,14.7724805 5.65291938,14.7724805 C7.54301389,14.7724805 8.8278149,15.048488 9.17335945,15.1394986 L9.65676747,14.8680495 C9.32572451,14.7116379 7.904438,14.3017261 5.65305061,14.3017261 C3.15083831,14.3017261 1.55422042,14.7740949 1.55422042,15.1086974" id="形状" fill="#0F6FAE" transform="translate(6.000000, 12.312985) scale(-1, 1) rotate(-180.000000) translate(-6.000000, -12.312985) "></path>
                <path d="M9.1156812,5.95019492 L9.07378409,5.9733037 C8.31274619,5.72736927 5.9703794,4.83530696 5.9703794,3.17201278 C5.9703794,2.23126374 6.92246419,1.71030315 6.92246419,0.828117464 C6.92246419,0.513426496 6.73830719,0.218393822 6.58837,0.0420389905 L6.6637323,0 C7.05999958,0.248561863 7.76165317,0.78671159 7.76165317,1.4815262 C7.76165317,2.06988213 6.91760846,2.77682094 6.91760846,3.53311124 C6.91760846,4.72476468 8.54614951,5.65972069 9.1156812,5.95019492 L9.1156812,5.95019492 Z M7.96582367,8.13023946 C7.96582367,5.66852102 4.46936698,4.72650575 4.46936698,2.97628455 C4.46936698,1.74762541 5.3138054,0.977121626 5.78094015,0.490064467 L5.74301293,0.468918348 C5.15320527,0.824920221 3.60133889,1.71954666 3.60133889,3.19736912 C3.60133889,5.27206295 7.61735912,6.26342971 7.61735912,8.62005068 C7.61735912,8.91001842 7.5728701,9.1322426 7.54173434,9.25218668 L7.58238471,9.27478897 C7.70961807,9.12046662 7.96582367,8.73467658 7.96582367,8.13023946" id="形状" fill="#EA2D2F" transform="translate(6.358510, 4.637394) scale(-1, 1) rotate(-180.000000) translate(-6.358510, -4.637394) "></path>
            </g>
        </g>
    </g>
</svg>