<?xml version="1.0" encoding="UTF-8"?>
<svg width="14px" height="14px" viewBox="0 0 14 14" version="1.1" xmlns="http://www.w3.org/2000/svg" xmlns:xlink="http://www.w3.org/1999/xlink">
    <title>编组 6</title>
    <g id="dark" stroke="none" stroke-width="1" fill="none" fill-rule="evenodd">
        <g id="icon集合" transform="translate(-590.000000, -481.000000)">
            <g id="编组-6" transform="translate(590.000000, 481.000000)">
                <path d="M12,0 L12,5 L7,5 C5.8954305,5 5,5.8954305 5,7 L5,14 L0,14 L0,5 L5,5 L5,0 L12,0 Z M4,0 L4,4 L0,4 L4,0 Z" id="形状结合" fill="#87939A"></path>
                <path d="M13,6 C13.5522847,6 14,6.44771525 14,7 L14,13 C14,13.5522847 13.5522847,14 13,14 L7,14 C6.44771525,14 6,13.5522847 6,13 L6,7 C6,6.44771525 6.44771525,6 7,6 L13,6 Z M12.5,10.2 L7.5,10.2 C7.22385763,10.2 7,10.4238576 7,10.7 C7,10.9761424 7.22385763,11.2 7.5,11.2 L11.292,11.2 L10.1464466,12.3464466 C9.95118446,12.5417088 9.95118446,12.8582912 10.1464466,13.0535534 C10.3417088,13.2488155 10.6582912,13.2488155 10.8535534,13.0535534 L12.8654113,11.0412864 C12.8770608,11.0288187 12.8880797,11.0157542 12.8984974,11.0020925 C12.9072255,10.9906092 12.9153907,10.9788346 12.922812,10.9670103 C12.9299807,10.9556825 12.9367067,10.9440467 12.943195,10.9317582 C12.9502504,10.9182757 12.9566485,10.9045389 12.9622078,10.8910366 L12.9767587,10.8510116 C12.981552,10.8358347 12.9856039,10.8204743 12.9889078,10.8052277 C12.9961748,10.7713007 13,10.736097 13,10.7 L12.997,10.746 L12.996,10.753 L13,10.7 L12.9999012,10.6898955 C12.9989382,10.6629328 12.9973429,10.645461 12.9948142,10.6277219 C12.9932062,10.6166163 12.9912332,10.605629 12.9889143,10.5950129 C12.9856039,10.5795257 12.981552,10.5641653 12.9767316,10.5488008 C12.9724419,10.5352631 12.9675915,10.5219749 12.9623894,10.5094049 C12.9566485,10.4954611 12.9502504,10.4817243 12.9429657,10.4678728 C12.9367067,10.4559533 12.9299807,10.4443175 12.922993,10.4331935 L12.894,10.393 L12.864,10.358 L12.891,10.388 L12.8824063,10.3778564 L12.8654113,10.3587136 L12.8412864,10.3345887 C12.8288187,10.3229392 12.8157542,10.3119203 12.8020925,10.3015026 C12.7906092,10.2927745 12.7788346,10.2846093 12.7670103,10.277188 C12.7556825,10.2700193 12.7440467,10.2632933 12.7317582,10.256805 C12.7182757,10.2497496 12.7045389,10.2433515 12.6910366,10.2377922 L12.6510116,10.2232413 C12.6358347,10.218448 12.6204743,10.2143961 12.6052277,10.2110922 L12.568,10.205 L12.513,10.2 L12.5,10.2 Z M9.85355339,6.84644661 C9.65829124,6.65118446 9.34170876,6.65118446 9.14644661,6.84644661 L7.13458875,8.85871357 C7.1229392,8.87118132 7.11192025,8.88424576 7.10150261,8.89790749 C7.09277454,8.90939085 7.08460935,8.92116536 7.07718801,8.93298968 C7.07001934,8.94431753 7.06329334,8.95595333 7.05680497,8.96824181 C7.04974961,8.98172431 7.04335147,8.99546114 7.03779224,9.00896344 L7.02324135,9.04898836 C7.01844802,9.06416529 7.01439613,9.07952575 7.01109223,9.09477235 C7.00382515,9.12869933 7,9.16390296 7,9.2 L7.002,9.153 L7.00042065,9.17943052 L7.00038061,9.21956651 C7.00106176,9.23706725 7.00265711,9.25453902 7.00518575,9.27227812 C7.00679375,9.28338366 7.00876677,9.29437102 7.01108568,9.30498705 C7.01439613,9.32047425 7.01844802,9.33583471 7.02326842,9.35119917 C7.0275581,9.36473685 7.03240845,9.37802507 7.03761056,9.3905951 C7.04335147,9.40453886 7.04974961,9.41827569 7.05703434,9.43212724 C7.06329334,9.44404667 7.07001934,9.45568247 7.07700705,9.46680652 L7.105,9.506 L7.135,9.541 L7.10896102,9.51166225 L7.11759373,9.52214364 L7.13458875,9.54128643 L7.15871357,9.56541125 C7.17118132,9.5770608 7.18424576,9.58807975 7.19790749,9.59849739 C7.20939085,9.60722546 7.22116536,9.61539065 7.23298968,9.62281199 C7.24431753,9.62998066 7.25595333,9.63670666 7.26824181,9.64319503 C7.28172431,9.65025039 7.29546114,9.65664853 7.30896344,9.66220776 L7.34898836,9.67675865 C7.36416529,9.68155198 7.37952575,9.68560387 7.39477235,9.68890777 L7.43,9.694 L7.5,9.7 L12.5,9.7 C12.7761424,9.7 13,9.47614237 13,9.2 C13,8.92385763 12.7761424,8.7 12.5,8.7 L8.708,8.7 L9.85355339,7.55355339 C10.0488155,7.35829124 10.0488155,7.04170876 9.85355339,6.84644661 Z" id="形状结合" fill="#40CBDA"></path>
            </g>
        </g>
    </g>
</svg>