<?xml version="1.0" encoding="UTF-8"?>
<svg width="14px" height="14px" viewBox="0 0 14 14" version="1.1" xmlns="http://www.w3.org/2000/svg" xmlns:xlink="http://www.w3.org/1999/xlink">
    <title>模型</title>
    <g id="深色" stroke="none" stroke-width="1" fill="none" fill-rule="evenodd">
        <g id="模型" fill="#3E86A0" fill-rule="nonzero">
            <path d="M7,0 L14,3.5 L14,10.5 L7,14 L0,10.5 L0,3.5 L7,0 Z M1.009,4.758 L1.00955794,9.884 L6.5,12.63 L6.5,7.319 L1.009,4.758 Z M12.989,4.788 L7.5,7.348 L7.5,12.628 L12.9894317,9.884 L12.989,4.788 Z M7,1.12 L1.486,3.877 L7.032,6.463 L12.544,3.892 L7,1.12 Z" id="形状"></path>
            <polygon id="路径" opacity="0.3" points="1.009 4.758 1.00955794 9.884 6.5 12.63 6.5 7.319"></polygon>
            <polygon id="路径" opacity="0.2" points="12.989 4.788 7.5 7.348 7.5 12.628 12.9894317 9.884"></polygon>
            <polygon id="路径" opacity="0.1" points="7 1.12 1.486 3.877 7.032 6.463 12.544 3.892"></polygon>
        </g>
    </g>
</svg>