<?xml version="1.0" encoding="UTF-8"?>
<svg width="16px" height="16px" viewBox="0 0 16 16" version="1.1" xmlns="http://www.w3.org/2000/svg" xmlns:xlink="http://www.w3.org/1999/xlink">
    <title>hive</title>
    <defs>
        <linearGradient x1="13.3605962%" y1="11.7065%" x2="79.126086%" y2="78.5311043%" id="linearGradient-1">
            <stop stop-color="#387EB8" offset="0%"></stop>
            <stop stop-color="#366994" offset="100%"></stop>
        </linearGradient>
        <linearGradient x1="19.5259352%" y1="20.2494686%" x2="90.1436745%" y2="88.7812708%" id="linearGradient-2">
            <stop stop-color="#FFE052" offset="0%"></stop>
            <stop stop-color="#FFC331" offset="100%"></stop>
        </linearGradient>
    </defs>
    <g id="dark" stroke="none" stroke-width="1" fill="none" fill-rule="evenodd">
        <g id="icon集合" transform="translate(-947.000000, -413.000000)" fill-rule="nonzero">
            <g id="python-logo" transform="translate(947.000000, 413.000000)">
                <path d="M7.94932127,0 C3.89502262,0 4.14117647,1.76320583 4.14117647,1.76320583 L4.14117647,3.5992714 L8.02171946,3.5992714 L8.02171946,4.15300546 L2.60633484,4.15300546 C2.60633484,4.15300546 -8.8817842e-16,3.86156648 -8.8817842e-16,7.98542805 C-8.8817842e-16,12.1092896 2.27330317,11.9489982 2.27330317,11.9489982 L3.6199095,11.9489982 L3.6199095,10.0546448 C3.6199095,10.0546448 3.54751131,7.76684882 5.84977376,7.76684882 L9.7158371,7.76684882 C9.7158371,7.76684882 11.8733032,7.79599271 11.8733032,5.65391621 L11.8733032,2.12750455 C11.8733032,2.12750455 12.1918552,0 7.9638009,0 L7.94932127,0 Z M5.80633484,1.22404372 C6.19418368,1.22404372 6.50859729,1.54046178 6.50859729,1.93078324 C6.50859729,2.3211047 6.19418368,2.63752277 5.80633484,2.63752277 C5.418486,2.63752277 5.1040724,2.3211047 5.1040724,1.93078324 C5.1040724,1.54046178 5.418486,1.22404372 5.80633484,1.22404372 Z" id="形状" fill="url(#linearGradient-1)"></path>
                <path d="M8.05067873,16 C12.1049774,16 11.8588235,14.2367942 11.8588235,14.2367942 L11.8588235,12.4007286 L7.97828054,12.4007286 L7.97828054,11.8469945 L13.3936652,11.8469945 C13.3936652,11.8469945 16,12.1384335 16,8.01457195 C16,3.89071038 13.7266968,4.05100182 13.7266968,4.05100182 L12.3800905,4.05100182 L12.3800905,5.94535519 C12.3800905,5.94535519 12.4524887,8.23315118 10.1502262,8.23315118 L6.29864253,8.23315118 C6.29864253,8.23315118 4.14117647,8.20400729 4.14117647,10.3315118 L4.14117647,13.8724954 C4.14117647,13.8724954 3.82262443,16 8.05067873,16 Z M10.1936652,14.7613843 C9.80981476,14.7613843 9.49864253,14.4482283 9.49864253,14.0619308 C9.49864253,13.6756333 9.80981476,13.3624772 10.1936652,13.3624772 C10.5775156,13.3624772 10.8886878,13.6756333 10.8886878,14.0619308 C10.8886878,14.4482283 10.5775156,14.7613843 10.1936652,14.7613843 L10.1936652,14.7613843 Z" id="形状" fill="url(#linearGradient-2)"></path>
            </g>
        </g>
    </g>
</svg>