<?xml version="1.0" encoding="UTF-8"?>
<svg width="24px" height="24px" viewBox="0 0 24 24" version="1.1" xmlns="http://www.w3.org/2000/svg" xmlns:xlink="http://www.w3.org/1999/xlink">
    <title>安全等级</title>
    <g id="dam-icon" stroke="none" stroke-width="1" fill="none" fill-rule="evenodd">
        <g id="资产icon" transform="translate(-1489.000000, -498.000000)">
            <g id="安全等级" transform="translate(1489.000000, 498.000000)">
                <circle id="椭圆形" fill="#409EFF" opacity="0.1" cx="12" cy="12" r="12"></circle>
                <path d="M11.9803917,5.00885146 L17.9002664,6.92988908 C17.9284194,6.94030406 17.9520692,6.95869782 17.9687856,6.98209652 C17.9834664,7.00264583 17.99274,7.02706712 17.9949322,7.05313094 L17.6397562,14.7878106 C17.6441924,14.8407521 17.6190077,14.8916835 17.5741784,14.9199966 L12.1046123,18.977558 C12.0811788,18.9925193 12.0544476,19 12.0277164,19 C12.0000593,19 11.9724022,18.9919921 11.9483975,18.9759764 L6.35161981,14.9191376 C6.30905984,14.8907448 6.284791,14.8416956 6.28832837,14.7903335 L6.00032787,7.05532179 C6.00213939,7.02830904 6.01139615,7.00292264 6.02656571,6.98168918 C6.04300269,6.95868166 6.06628108,6.94066645 6.09394389,6.93032406 L11.9803917,5.00885146 Z" id="路径" stroke="#409EFF" stroke-width="2" opacity="0.8" fill-rule="nonzero"></path>
                <path d="M14.0619564,12.3260822 C14.4341509,12.0880002 14.9288778,12.1967199 15.1669598,12.5689144 C15.4050418,12.9411089 15.2963221,13.4358358 14.9241276,13.6739178 L12.4310856,15.2686443 C12.1669725,15.4375899 11.8285151,15.4366834 11.5653107,15.2663255 L9.1014435,13.671599 C8.73052962,13.4315267 8.62446155,12.9362246 8.86453383,12.5653107 C9.10460611,12.1943968 9.59990825,12.0883287 9.97082213,12.328401 L12.0011328,13.643 L14.0619564,12.3260822 Z" id="路径-14" fill="#409EFF" fill-rule="nonzero" opacity="0.5"></path>
                <path d="M14.5937065,8.40199654 C14.96456,8.16183111 15.4598888,8.26777478 15.7000542,8.63862835 C15.9402197,9.00948192 15.834276,9.50481069 15.4634224,9.74497612 L12.434858,11.7062798 C12.1714038,11.8768932 11.8325186,11.8776821 11.568273,11.7082971 L8.50858059,9.7469934 C8.1366129,9.50855714 8.02836429,9.01372698 8.26680055,8.6417593 C8.50523681,8.26979161 9.00006697,8.161543 9.37203465,8.39997926 L11.9973076,10.0824863 L14.5937065,8.40199654 Z" id="路径-14" fill="#409EFF" fill-rule="nonzero"></path>
            </g>
        </g>
    </g>
</svg>