<?xml version="1.0" encoding="UTF-8"?>
<svg width="24px" height="24px" viewBox="0 0 24 24" version="1.1" xmlns="http://www.w3.org/2000/svg" xmlns:xlink="http://www.w3.org/1999/xlink">
    <title>资产安全分类</title>
    <g id="dam-icon" stroke="none" stroke-width="1" fill="none" fill-rule="evenodd">
        <g id="资产icon" transform="translate(-1062.000000, -784.000000)" fill="#409EFF">
            <g id="资产安全分类" transform="translate(1062.000000, 784.000000)">
                <circle id="椭圆形" opacity="0.1" cx="12" cy="12" r="12"></circle>
                <path d="M12.3977015,4.06224749 L18.2224664,5.98316995 C18.6844477,6.14216353 18.9954352,6.57614601 18.9954352,7.06512628 L18.6402588,14.7998141 C18.6402588,15.1717991 18.4592661,15.520785 18.1542784,15.7347763 L12.6856898,19.7916126 C12.2910399,20.0694625 11.7643929,20.0694625 11.369743,19.7916126 L5.77296887,15.7347763 C5.46878631,15.5206193 5.28785964,15.1718225 5.28798844,14.7998141 L5,7.06512628 C5,6.57614601 5.30998756,6.14216353 5.77296887,5.98316995 L11.6577313,4.06224749 C11.8977217,3.97925084 12.1577112,3.97925084 12.3977015,4.06224749 Z M12.027,5.624 L6.612,7.391 L6.878,14.56 L12.024,18.29 L17.049,14.563 L17.38,7.39 L12.027,5.624 Z" id="路径" fill-rule="nonzero" opacity="0.7"></path>
                <g id="编组-43" transform="translate(8.000000, 9.000000)">
                    <path d="M4,1.11022302e-16 L7,1.11022302e-16 C7.55228475,9.5692398e-18 8,0.44771525 8,1 C8,1.55228475 7.55228475,2 7,2 L4,2 C3.44771525,2 3,1.55228475 3,1 C3,0.44771525 3.44771525,2.12475365e-16 4,1.11022302e-16 Z M4,3 L7,3 C7.55228475,3 8,3.44771525 8,4 C8,4.55228475 7.55228475,5 7,5 L4,5 C3.44771525,5 3,4.55228475 3,4 C3,3.44771525 3.44771525,3 4,3 Z M1,2 C1.55228475,2 2,1.55228475 2,1 C2,0.44771525 1.55228475,0 1,0 C0.44771525,0 0,0.44771525 0,1 C0,1.55228475 0.44771525,2 1,2 Z M1,5 C1.55228475,5 2,4.55228475 2,4 C2,3.44771525 1.55228475,3 1,3 C0.44771525,3 0,3.44771525 0,4 C0,4.55228475 0.44771525,5 1,5 Z" id="形状结合"></path>
                </g>
            </g>
        </g>
    </g>
</svg>