<?xml version="1.0" encoding="UTF-8"?>
<svg width="24px" height="24px" viewBox="0 0 24 24" version="1.1" xmlns="http://www.w3.org/2000/svg" xmlns:xlink="http://www.w3.org/1999/xlink">
    <title>所有扩展属性</title>
    <g id="dam-icon" stroke="none" stroke-width="1" fill="none" fill-rule="evenodd">
        <g id="资产icon" transform="translate(-1292.000000, -1054.000000)" fill="#409EFF">
            <g id="所有扩展属性" transform="translate(1292.000000, 1054.000000)">
                <circle id="椭圆形" opacity="0.1" cx="12" cy="12" r="12"></circle>
                <path d="M17,5 C17.5522847,5 18,5.46044844 18,6.02844039 L18,17.9712806 C18,18.5392725 17.5522847,18.999721 17,18.999721 C16.8925179,18.999721 16.7857387,18.9819003 16.6837722,18.9469448 L12.3162278,17.4496918 C12.110961,17.3793235 11.889039,17.3793235 11.6837722,17.4496918 L7.31622777,18.9469448 C6.79228445,19.1265596 6.22596447,18.8353465 6.0513167,18.296502 C6.01732788,18.1916356 6,18.0818195 6,17.9712806 L6,6.02844039 C6,5.46044844 6.44771525,5 7,5 L17,5 Z M15.3,11 L8.7,11 C8.31340068,11 8,11.3134007 8,11.7 C8,12.0865993 8.31340068,12.4 8.7,12.4 L15.3,12.4 C15.6865993,12.4 16,12.0865993 16,11.7 C16,11.3134007 15.6865993,11 15.3,11 Z M12.3,8 L8.7,8 C8.31340068,8 8,8.31340068 8,8.7 C8,9.08659932 8.31340068,9.4 8.7,9.4 L12.3,9.4 C12.6865993,9.4 13,9.08659932 13,8.7 C13,8.31340068 12.6865993,8 12.3,8 Z" id="形状结合"></path>
            </g>
        </g>
    </g>
</svg>