<?xml version="1.0" encoding="UTF-8"?>
<svg width="76px" height="76px" viewBox="0 0 76 76" version="1.1" xmlns="http://www.w3.org/2000/svg" xmlns:xlink="http://www.w3.org/1999/xlink">
    <title>发现问题</title>
    <defs>
        <rect id="path-1" x="0" y="0" width="35.7647059" height="47.0588235" rx="1"></rect>
        <filter x="-25.2%" y="-19.1%" width="150.3%" height="138.2%" filterUnits="objectBoundingBox" id="filter-2">
            <feOffset dx="0" dy="0" in="SourceAlpha" result="shadowOffsetOuter1"></feOffset>
            <feGaussianBlur stdDeviation="3" in="shadowOffsetOuter1" result="shadowBlurOuter1"></feGaussianBlur>
            <feColorMatrix values="0 0 0 0 0.733827871   0 0 0 0 0.78061045   0 0 0 0 0.882699275  0 0 0 0.4 0" type="matrix" in="shadowBlurOuter1"></feColorMatrix>
        </filter>
        <rect id="path-3" x="0" y="0" width="35.7647059" height="47.0588235" rx="1"></rect>
        <filter x="-25.2%" y="-19.1%" width="150.3%" height="138.2%" filterUnits="objectBoundingBox" id="filter-4">
            <feOffset dx="0" dy="0" in="SourceAlpha" result="shadowOffsetOuter1"></feOffset>
            <feGaussianBlur stdDeviation="3" in="shadowOffsetOuter1" result="shadowBlurOuter1"></feGaussianBlur>
            <feColorMatrix values="0 0 0 0 0.733827871   0 0 0 0 0.78061045   0 0 0 0 0.882699275  0 0 0 0.4 0" type="matrix" in="shadowBlurOuter1"></feColorMatrix>
        </filter>
        <rect id="path-5" x="0" y="0" width="37.6470588" height="47.0588235" rx="1"></rect>
        <filter x="-23.9%" y="-19.1%" width="147.8%" height="138.2%" filterUnits="objectBoundingBox" id="filter-6">
            <feOffset dx="0" dy="0" in="SourceAlpha" result="shadowOffsetOuter1"></feOffset>
            <feGaussianBlur stdDeviation="3" in="shadowOffsetOuter1" result="shadowBlurOuter1"></feGaussianBlur>
            <feColorMatrix values="0 0 0 0 0.733827871   0 0 0 0 0.78061045   0 0 0 0 0.882699275  0 0 0 0.4 0" type="matrix" in="shadowBlurOuter1"></feColorMatrix>
        </filter>
        <linearGradient x1="50%" y1="0%" x2="50%" y2="100%" id="linearGradient-7">
            <stop stop-color="#74CDFF" offset="0%"></stop>
            <stop stop-color="#409EFF" offset="100%"></stop>
        </linearGradient>
    </defs>
    <g id="检核任务6.5.3" stroke="none" stroke-width="1" fill="none" fill-rule="evenodd">
        <g id="检核任务-列表备份" transform="translate(-798.000000, -563.000000)">
            <g id="发现问题" transform="translate(804.000000, 569.000000)">
                <circle id="椭圆形" fill="#F2F3F5" cx="32" cy="32" r="32"></circle>
                <g id="编组-2" transform="translate(0.000000, 16.941176)">
                    <g id="矩形">
                        <use fill="black" fill-opacity="1" filter="url(#filter-2)" xlink:href="#path-1"></use>
                        <use fill="#FFFFFF" fill-rule="evenodd" xlink:href="#path-1"></use>
                    </g>
                    <path d="M3.76470588,4.70588235 L6.58823529,4.70588235 L6.58823529,7.52941176 L3.76470588,7.52941176 Z M8.47058824,4.70588235 L13.1764706,4.70588235 L13.1764706,7.52941176 L8.47058824,7.52941176 Z M3.76470588,14.1176471 L6.58823529,14.1176471 L6.58823529,16.9411765 L3.76470588,16.9411765 Z M8.47058824,14.1176471 L19.7647059,14.1176471 L19.7647059,16.9411765 L8.47058824,16.9411765 Z M3.76470588,18.8235294 L13.1764706,18.8235294 L13.1764706,28.2352941 L3.76470588,28.2352941 Z M3.76470588,40.4705882 L28.2352941,40.4705882 L28.2352941,42.3529412 L3.76470588,42.3529412 Z M3.76470588,32.9411765 L28.2352941,32.9411765 L28.2352941,34.8235294 L3.76470588,34.8235294 Z" id="形状结合" fill="#F2F3F5"></path>
                    <path d="M8.47058824,9.41176471 L13.1764706,9.41176471 L13.1764706,12.2352941 L8.47058824,12.2352941 Z M3.76470588,9.41176471 L6.58823529,9.41176471 L6.58823529,12.2352941 L3.76470588,12.2352941 Z M3.76470588,36.7058824 L28.2352941,36.7058824 L28.2352941,38.5882353 L3.76470588,38.5882353 Z" id="形状结合" fill="#DCE0E7"></path>
                </g>
                <g id="编组-2" transform="translate(28.235294, 0.000000)">
                    <g id="矩形">
                        <use fill="black" fill-opacity="1" filter="url(#filter-4)" xlink:href="#path-3"></use>
                        <use fill="#FFFFFF" fill-rule="evenodd" xlink:href="#path-3"></use>
                    </g>
                    <rect id="矩形" fill="#F2F3F5" x="3.76470588" y="4.70588235" width="2.82352941" height="2.82352941"></rect>
                    <rect id="矩形备份-23" fill="#F2F3F5" x="8.47058824" y="4.70588235" width="23.5294118" height="2.82352941"></rect>
                    <rect id="矩形备份-24" fill="#DCE0E7" x="8.47058824" y="9.41176471" width="23.5294118" height="2.82352941"></rect>
                    <rect id="矩形备份-15" fill="#F2F3F5" x="8.47058824" y="14.1176471" width="23.5294118" height="2.82352941"></rect>
                    <rect id="矩形备份-21" fill="#F2F3F5" x="22.5882353" y="18.8235294" width="9.41176471" height="9.41176471"></rect>
                    <rect id="矩形备份-26" fill="#F2F3F5" x="7.52941176" y="40.4705882" width="24.4705882" height="1.88235294"></rect>
                    <rect id="矩形备份-28" fill="#DCE0E7" x="7.52941176" y="36.7058824" width="24.4705882" height="1.88235294"></rect>
                    <rect id="矩形备份-27" fill="#F2F3F5" x="7.52941176" y="32.9411765" width="24.4705882" height="1.88235294"></rect>
                </g>
                <g id="编组-9" transform="translate(13.176471, 8.470588)">
                    <g id="矩形备份-7">
                        <use fill="black" fill-opacity="1" filter="url(#filter-6)" xlink:href="#path-5"></use>
                        <use fill="#FFFFFF" fill-rule="evenodd" xlink:href="#path-5"></use>
                    </g>
                    <rect id="矩形" fill="#409EFF" opacity="0.14" x="4.70588235" y="6.58823529" width="2.82352941" height="2.82352941"></rect>
                    <rect id="矩形" fill="#409EFF" opacity="0.14" x="9.41176471" y="6.58823529" width="23.5294118" height="2.82352941"></rect>
                    <rect id="矩形备份-8" fill="#409EFF" opacity="0.3" x="4.70588235" y="12.2352941" width="28.2352941" height="2.82352941"></rect>
                    <rect id="矩形备份-14" fill="#409EFF" opacity="0.14" x="4.70588235" y="17.8823529" width="12.2352941" height="2.82352941"></rect>
                    <rect id="矩形备份-41" fill="#409EFF" opacity="0.14" x="4.70588235" y="22.5882353" width="7.52941176" height="7.52941176"></rect>
                    <rect id="矩形备份-29" fill="#409EFF" opacity="0.14" x="4.70588235" y="33.8823529" width="29.1764706" height="1.88235294"></rect>
                    <rect id="矩形备份-30" fill="#409EFF" opacity="0.3" x="4.70588235" y="37.6470588" width="9.41176471" height="1.88235294"></rect>
                </g>
                <g id="blue" transform="translate(20.605313, 13.385605)">
                    <polygon id="矩形" fill="#1E6ED2" points="23.0280566 27.3040658 25.9119887 24.8841595 28.9368715 28.4890746 26.0529395 30.9089809"></polygon>
                    <path d="M26.0529395,30.9089809 L28.9368715,28.4890746 C29.3350594,28.1549552 29.9287118,28.2068931 30.2628311,28.605081 L38.7325031,38.6988431 C39.0666225,39.097031 39.0146846,39.6906833 38.6164967,40.0248026 L35.7325647,42.4447089 C35.3343768,42.7788283 34.7407244,42.7268904 34.4066051,42.3287025 L25.9369331,32.2349404 C25.6028137,31.8367525 25.6547516,31.2431002 26.0529395,30.9089809 Z" id="矩形备份-10" fill="#409EFF"></path>
                    <path d="M6.34373037,4.67251272 C9.21192772,2.26580938 12.7841023,1.24951511 16.2409035,1.55194602 C19.6977046,1.85437693 23.0391322,3.47553302 25.4458356,6.34373037 C27.8525389,9.21192772 28.8688332,12.7841023 28.5664022,16.2409035 C28.2639713,19.6977046 26.6428153,23.0391322 23.7746179,25.4458356 C20.9064206,27.8525389 17.3342459,28.8688332 13.8774448,28.5664022 C10.4206437,28.2639713 7.07921606,26.6428153 4.67251272,23.7746179 C2.26580938,20.9064206 1.24951511,17.3342459 1.55194602,13.8774448 C1.85437693,10.4206437 3.47553302,7.07921606 6.34373037,4.67251272 Z" id="椭圆形" stroke="url(#linearGradient-7)" stroke-width="3" fill="#F1F8FF"></path>
                    <path d="M15.3854395,7.32027739 C13.8647614,7.32027739 12.6728785,7.75182119 11.7892412,8.61490878 C10.8850542,9.47799638 10.4535104,10.6698792 10.4535104,12.1905574 L12.7961767,12.1905574 C12.7961767,11.3274698 12.9605744,10.6493295 13.3099194,10.1766863 C13.7003637,9.6012946 14.3374046,9.33414844 15.2415916,9.33414844 C15.9402815,9.33414844 16.4951236,9.51909578 16.885568,9.90954017 C17.2554626,10.2999846 17.4609597,10.8342769 17.4609597,11.5124171 C17.4609597,12.0261597 17.2760123,12.5193527 16.9061177,12.9714462 L16.6595212,13.259142 C15.3237904,14.4510249 14.5223519,15.3141125 14.2552058,15.8689545 C13.9675099,16.4237965 13.8442117,17.1019368 13.8442117,17.8828256 L13.8442117,18.1705214 L16.2074277,18.1705214 L16.2074277,17.8828256 C16.2074277,17.3896326 16.3101762,16.9580888 16.5156733,16.5470948 C16.7006206,16.1772001 16.9677668,15.8278551 17.3376615,15.5196095 C18.3240473,14.6565219 18.9199887,14.1016799 19.104936,13.8961829 C19.598129,13.2385923 19.8652751,12.3960544 19.8652751,11.3685692 C19.8652751,10.1150372 19.454281,9.1286514 18.6322928,8.40941174 C17.8103047,7.66962237 16.7211703,7.32027739 15.3854395,7.32027739 Z M15.0155448,19.1774569 C14.5634513,19.1774569 14.1935566,19.3213049 13.8853111,19.6090007 C13.5770655,19.8966966 13.4332176,20.2665913 13.4332176,20.7186848 C13.4332176,21.1707783 13.5770655,21.540673 13.8853111,21.8283688 C14.1935566,22.1160647 14.5634513,22.2804623 15.0155448,22.2804623 C15.4676383,22.2804623 15.837533,22.1366144 16.1457786,21.8489185 C16.4540242,21.5612227 16.6184218,21.1707783 16.6184218,20.7186848 C16.6184218,20.2665913 16.4540242,19.8966966 16.1663283,19.6090007 C15.8580827,19.3213049 15.4676383,19.1774569 15.0155448,19.1774569 Z" id="形状" fill="#409EFF" fill-rule="nonzero"></path>
                </g>
            </g>
        </g>
    </g>
</svg>