<?xml version="1.0" encoding="UTF-8"?>
<svg width="16px" height="16px" viewBox="0 0 16 16" version="1.1" xmlns="http://www.w3.org/2000/svg" xmlns:xlink="http://www.w3.org/1999/xlink">
    <title>编组 32</title>
    <g id="数据源icon" stroke="none" stroke-width="1" fill="none" fill-rule="evenodd">
        <g id="画板" transform="translate(-1448.000000, -1074.000000)" fill="#4A4A4A" fill-rule="nonzero">
            <g id="编组-32" transform="translate(1448.000000, 1074.000000)">
                <path d="M10.31,5.712 C10.126,5.488 9.9,5.316 9.632,5.196 C9.364,5.076 9.054,5.016 8.702,5.016 C8.35,5.016 8.024,5.084 7.724,5.22 C7.424,5.356 7.164,5.546 6.944,5.79 C6.724,6.034 6.552,6.324 6.428,6.66 C6.304,6.996 6.242,7.36 6.242,7.752 C6.242,8.152 6.304,8.518 6.428,8.85 C6.552,9.182 6.722,9.47 6.938,9.714 C7.154,9.958 7.408,10.148 7.7,10.284 C7.992,10.42 8.306,10.488 8.642,10.488 C9.026,10.488 9.366,10.408 9.662,10.248 C9.958,10.088 10.202,9.864 10.394,9.576 L11.954,10.74 C11.594,11.244 11.138,11.616 10.586,11.856 C10.034,12.096 9.466,12.216 8.882,12.216 C8.218,12.216 7.606,12.112 7.046,11.904 C6.486,11.696 6.002,11.398 5.594,11.01 C5.186,10.622 4.868,10.152 4.64,9.6 C4.412,9.048 4.298,8.432 4.298,7.752 C4.298,7.072 4.412,6.456 4.64,5.904 C4.868,5.352 5.186,4.882 5.594,4.494 C6.002,4.106 6.486,3.808 7.046,3.6 C7.606,3.392 8.218,3.288 8.882,3.288 C9.122,3.288 9.372,3.31 9.632,3.354 C9.892,3.398 10.148,3.468 10.4,3.564 C10.652,3.66 10.894,3.788 11.126,3.948 C11.358,4.108 11.566,4.304 11.75,4.536 L10.31,5.712 Z" id="路径"></path>
            </g>
        </g>
    </g>
</svg>