<?xml version="1.0" encoding="UTF-8"?>
<svg width="16px" height="16px" viewBox="0 0 16 16" version="1.1" xmlns="http://www.w3.org/2000/svg" xmlns:xlink="http://www.w3.org/1999/xlink">
    <title>形状结合</title>
    <g id="页面-1" stroke="none" stroke-width="1" fill="none" fill-rule="evenodd">
        <path d="M0.474698868,9.68244921 L4.831428,10.596487 C4.93953144,10.619167 5.00878083,10.725188 4.98610082,10.8332914 C4.97812492,10.8713083 4.9592508,10.9061798 4.93178357,10.933647 L3.60730788,12.2591486 L6.50095844,15.1524599 C6.5790633,15.2305647 6.5790633,15.3571977 6.50095844,15.4353026 L5.99074788,15.9455132 C5.91264302,16.023618 5.78601002,16.023618 5.70790516,15.9455132 L2.81393408,13.0525224 L1.48909227,14.3763383 C1.41098741,14.4544432 1.28435442,14.4544432 1.20624956,14.3763383 C1.17878233,14.3488711 1.15990821,14.3139996 1.15193231,14.2759827 L0.237894477,9.9192536 C0.215214471,9.81115015 0.284463854,9.70512921 0.392567302,9.68244921 C0.419649688,9.67676735 0.447616483,9.67676735 0.474698868,9.68244921 Z M15.4353026,9.49904156 L15.9455132,10.0092521 C16.023618,10.087357 16.023618,10.21399 15.9455132,10.2920948 L13.0525224,13.1860659 L14.3763383,14.5109077 C14.4544432,14.5890126 14.4544432,14.7156456 14.3763383,14.7937504 C14.3488711,14.8212177 14.3139996,14.8400918 14.2759827,14.8480677 L9.9192536,15.7621055 C9.81115015,15.7847855 9.70512921,15.7155361 9.68244921,15.6074327 C9.67676735,15.5803503 9.67676735,15.5523835 9.68244921,15.5253011 L10.596487,11.168572 C10.619167,11.0604686 10.725188,10.9912192 10.8332914,11.0138992 C10.8713083,11.0218751 10.9061798,11.0407492 10.933647,11.0682164 L12.2591486,12.3926921 L15.1524599,9.49904156 C15.2305647,9.4209367 15.3571977,9.4209367 15.4353026,9.49904156 Z M6.31755079,0.392567302 C6.32323265,0.419649688 6.32323265,0.447616483 6.31755079,0.474698868 L5.40351296,4.831428 C5.38083296,4.93953144 5.27481202,5.00878083 5.16670857,4.98610082 C5.1286917,4.97812492 5.09382023,4.9592508 5.066353,4.93178357 L3.74085144,3.60730788 L0.847540111,6.50095844 C0.769435252,6.5790633 0.642802254,6.5790633 0.564697395,6.50095844 L0.0544868267,5.99074788 C-0.0236180328,5.91264302 -0.0236180328,5.78601002 0.0544868267,5.70790516 L2.94747764,2.81393408 L1.6236617,1.48909227 C1.54555684,1.41098741 1.54555684,1.28435442 1.6236617,1.20624956 C1.65112893,1.17878233 1.68600041,1.15990821 1.72401728,1.15193231 L6.0807464,0.237894477 C6.18884985,0.215214471 6.29487079,0.284463854 6.31755079,0.392567302 Z M10.2920948,0.0544868267 L13.1860659,2.94747764 L14.5109077,1.6236617 C14.5890126,1.54555684 14.7156456,1.54555684 14.7937504,1.6236617 C14.8212177,1.65112893 14.8400918,1.68600041 14.8480677,1.72401728 L15.7621055,6.0807464 C15.7847855,6.18884985 15.7155361,6.29487079 15.6074327,6.31755079 C15.5803503,6.32323265 15.5523835,6.32323265 15.5253011,6.31755079 L11.168572,5.40351296 C11.0604686,5.38083296 10.9912192,5.27481202 11.0138992,5.16670857 C11.0218751,5.1286917 11.0407492,5.09382023 11.0682164,5.066353 L12.3926921,3.74085144 L9.49904156,0.847540111 C9.4209367,0.769435252 9.4209367,0.642802254 9.49904156,0.564697395 L10.0092521,0.0544868267 C10.087357,-0.0236180328 10.21399,-0.0236180328 10.2920948,0.0544868267 Z" id="形状结合" fill="#F0950A"></path>
    </g>
</svg>