<?xml version="1.0" encoding="UTF-8"?>
<svg width="16px" height="16px" viewBox="0 0 16 16" version="1.1" xmlns="http://www.w3.org/2000/svg" xmlns:xlink="http://www.w3.org/1999/xlink">
    <title>hive</title>
    <g id="dark" stroke="none" stroke-width="1" fill="none" fill-rule="evenodd">
        <g id="icon集合" transform="translate(-947.000000, -450.000000)" fill="#E11D2C" fill-rule="nonzero">
            <path d="M962,458.806559 L961.999142,458.806559 C961.988172,457.977807 961.315084,457.310728 960.486266,457.307192 L954.042706,457.307192 L954.049033,459.920329 L959.388148,459.92248 L959.388148,461.622721 L951.609139,461.622721 C951.603974,461.622721 951.599802,461.623796 951.59262,461.623796 C951.074955,461.623456 950.655321,461.204019 950.654736,460.686354 L950.654736,460.684223 L950.650552,460.684223 L950.650552,456.566166 L950.654736,456.566166 L950.654736,456.563476 C950.655845,456.045944 951.075088,455.626664 951.59262,455.625508 C951.603977,455.625508 951.616431,455.629462 951.628006,455.629462 L960.472755,455.629462 L961.993676,453.000575 C961.993676,453.000575 951.234479,452.999281 951.208209,453.000575 C949.409773,453.095266 948,454.581064 948,456.381991 C948,456.447538 948.001934,456.509528 948.006656,456.572702 L948.006656,460.647968 C948.004919,460.709534 948,460.769606 948,460.833518 C948.000149,461.733217 948.357721,462.596002 948.994044,463.232045 C949.630368,463.868088 950.49331,464.22528 951.393009,464.225033 C951.463589,464.225033 951.755325,464.222462 951.843278,464.222462 L960.492151,464.223538 L960.492151,464.222244 C961.325256,464.214977 961.99731,463.538525 961.999142,462.70539 L961.999142,462.701556 L962,462.701556 L962,458.806559 Z" id="路径"></path>
        </g>
    </g>
</svg>