<?xml version="1.0" encoding="UTF-8"?>
<svg width="24px" height="24px" viewBox="0 0 24 24" version="1.1" xmlns="http://www.w3.org/2000/svg" xmlns:xlink="http://www.w3.org/1999/xlink">
    <title>资产状态</title>
    <g id="dam-icon" stroke="none" stroke-width="1" fill="none" fill-rule="evenodd">
        <g id="资产icon" transform="translate(-1292.000000, -604.000000)">
            <g id="资产状态" transform="translate(1292.000000, 604.000000)">
                <circle id="椭圆形" fill="#409EFF" opacity="0.1" cx="12" cy="12" r="12"></circle>
                <path d="M10.3240639,14.7424398 L10.3243857,18.7984094 C10.3243857,18.955975 10.1900712,19.0837374 10.0243857,19.0837374 C9.92407979,19.0837374 9.83041039,19.0360336 9.77477066,18.9566641 L8.32438575,16.8877067 L6.87400084,18.9566641 C6.7820951,19.0877666 6.5958343,19.1231931 6.45797569,19.0357915 C6.37451609,18.9828785 6.32438575,18.8937996 6.32438575,18.7984094 L6.3243936,14.7423288 C6.94994923,14.96343 7.62311783,15.0837374 8.32438575,15.0837374 C9.02553634,15.0837374 9.69859703,14.9634703 10.3240639,14.7424398 Z" id="形状结合" fill="#409EFF" opacity="0.5" transform="translate(8.324729, 16.912911) rotate(28.000000) translate(-8.324729, -16.912911) "></path>
                <path d="M17.5580935,14.8048696 L17.5584154,18.8608392 C17.5584154,19.0184048 17.4241008,19.1461673 17.2584154,19.1461673 C17.1581094,19.1461673 17.06444,19.0984634 17.0088003,19.0190939 L15.5584154,16.9501366 L14.1080304,19.0190939 C14.0161247,19.1501964 13.8298639,19.1856229 13.6920053,19.0982213 C13.6085457,19.0453083 13.5584154,18.9562294 13.5584154,18.8608392 L13.5584232,14.8047586 C14.1839788,15.0258598 14.8571474,15.1461673 15.5584154,15.1461673 C16.259566,15.1461673 16.9326266,15.0259001 17.5580935,14.8048696 Z" id="形状结合" fill="#409EFF" opacity="0.5" transform="translate(15.558758, 16.975340) rotate(-27.000000) translate(-15.558758, -16.975340) "></path>
                <circle id="椭圆形" stroke="#409EFF" stroke-width="1.6" cx="12" cy="10" r="5.2"></circle>
                <circle id="椭圆形" fill="#409EFF" cx="12" cy="10" r="3"></circle>
            </g>
        </g>
    </g>
</svg>