<?xml version="1.0" encoding="UTF-8"?>
<svg width="24px" height="24px" viewBox="0 0 24 24" version="1.1" xmlns="http://www.w3.org/2000/svg" xmlns:xlink="http://www.w3.org/1999/xlink">
    <title>数据连接</title>
    <g id="dam-icon" stroke="none" stroke-width="1" fill="none" fill-rule="evenodd">
        <g id="资产icon" transform="translate(-1292.000000, -842.000000)" fill="#409EFF">
            <g id="数据连接" transform="translate(1292.000000, 842.000000)">
                <circle id="椭圆形" opacity="0.1" cx="12" cy="12" r="12"></circle>
                <g id="编组-9" transform="translate(5.000000, 4.000000)">
                    <circle id="椭圆形" cx="2.5" cy="2.5" r="2.5"></circle>
                    <circle id="椭圆形备份-4" cx="11.5" cy="13.5" r="2.5"></circle>
                    <path d="M10.5,1.5 C12.4329966,1.5 14,3.06700338 14,5 C14,6.93299662 12.4329966,8.5 10.5,8.5 L4.5,8.5 C3.3954305,8.5 2.5,9.3954305 2.5,10.5 C2.5,11.6045695 3.3954305,12.5 4.5,12.5 L8.67102423,12.4990993 C8.56026977,12.8121327 8.5,13.149028 8.5,13.5 C8.5,13.8506022 8.56014282,14.1871573 8.67067428,14.4999111 L4.5,14.5 C2.290861,14.5 0.5,12.709139 0.5,10.5 C0.5,8.290861 2.290861,6.5 4.5,6.5 L10.5,6.5 C11.3284271,6.5 12,5.82842712 12,5 C12,4.17157288 11.3284271,3.5 10.5,3.5 L5.32932572,3.49991107 C5.43985718,3.18715728 5.5,2.85060219 5.5,2.5 C5.5,2.1486814 5.43961114,1.81146737 5.32864752,1.49817202 L10.5,1.5 Z" id="形状结合" fill-rule="nonzero" opacity="0.5"></path>
                </g>
            </g>
        </g>
    </g>
</svg>