<svg xmlns="http://www.w3.org/2000/svg" viewBox="0 0 28 28"><defs><style>.cls-1{fill:#eaf1fb;}.cls-2{fill:#6ca3fe;}.cls-3{fill:#5193f4;}.cls-4{fill:none;stroke:#6ca3fe;stroke-miterlimit:10;stroke-width:0.83px;}</style></defs><title>资源 1</title><g id="图层_2" data-name="图层 2"><g id="图层_1-2" data-name="图层 1"><circle class="cls-1" cx="14" cy="14" r="14"/><path class="cls-2" d="M18.05,15a1.11,1.11,0,1,1,0,2.21h-3v2.67A1.17,1.17,0,0,1,14,21.07a1.17,1.17,0,0,1-1.1-1.23V17.17H10A1.11,1.11,0,1,1,10,15h3V13.37H10a1.18,1.18,0,0,1-1.24-1.1A1.18,1.18,0,0,1,10,11.17h1.63L11,10h0l-.72-1.36A1.19,1.19,0,0,1,10.67,7a1.18,1.18,0,0,1,1.55.58l.57,1.1,0,0,.59,1.13h0L14,11l.6-1.14h0l.59-1.13,0,0,.58-1.1a1.11,1.11,0,1,1,1.95,1L17.06,10h0l-.61,1.16h1.6a1.18,1.18,0,0,1,1.24,1.1,1.18,1.18,0,0,1-1.24,1.1h-3V15Z"/><circle class="cls-1" cx="14" cy="14" r="14"/><path class="cls-2" d="M22.25,14.35,19.67,8.64a.45.45,0,0,0-.46-.27H14.79l.11-.2a0,0,0,0,0,0,0,1.26,1.26,0,0,0,.31-.84,1.34,1.34,0,1,0-2.68,0,1.34,1.34,0,0,0,.26.79c0,.08.08.16.14.28H8.43a.39.39,0,0,0-.37.27l-2.3,5.81a.41.41,0,0,0,0,.19.59.59,0,0,0,0,.13,2.88,2.88,0,0,0,3,2.47,2.9,2.9,0,0,0,2.88-2.44c0-.05,0-.1,0-.15h0a.46.46,0,0,0,0-.19L9.17,9.29h3.77V19.45l-3,1.29c-.64.27-.55.46,0,.46h7.93c.55,0,.55-.19,0-.46l-3-1.29V9.29h3.87l-2.22,5.16a.46.46,0,0,0,0,.38l0,0a3,3,0,0,0,5.82-.18.06.06,0,0,0,0,0A.59.59,0,0,0,22.25,14.35Zm-11.6.29h-4L8.52,10Zm6.7,0,2-4.62,2,4.62Z"/><circle class="cls-1" cx="14" cy="14" r="14"/><path class="cls-2" d="M6.76,13.14v3a1.32,1.32,0,0,0,2.64,0v-3A1.32,1.32,0,0,0,8.63,12,5.64,5.64,0,0,1,19.26,12a1.34,1.34,0,0,0-.66,1.14v3a1.33,1.33,0,0,0,.72,1.17c-.3,1.21-1.78,2.19-3.65,2.37a1.44,1.44,0,0,0-1.25-.53c-.73,0-1.32.34-1.32.77s.59.77,1.32.77a1.46,1.46,0,0,0,1.24-.51c2.22-.17,4-1.31,4.4-2.73a1.32,1.32,0,0,0,1.18-1.31v-3a1.32,1.32,0,0,0-1.11-1.3,6.51,6.51,0,0,0-12.4,0,1.32,1.32,0,0,0-1,1.27Z"/><circle class="cls-1" cx="14" cy="14" r="14"/><path class="cls-2" d="M20.78,19.37H7.2V8.63h6.42l1.06,1.73H20.8v9Z"/><path class="cls-3" d="M14.67,10.36,13.6,8.63H7.2v1.73Z"/><circle class="cls-1" cx="14" cy="14" r="14"/><path class="cls-2" d="M18,17.16a1.48,1.48,0,1,1-1.48,1.47A1.47,1.47,0,0,1,18,17.16Z"/><path class="cls-2" d="M10.79,17.16a1.48,1.48,0,1,1-1.48,1.47,1.47,1.47,0,0,1,1.48-1.47Z"/><path class="cls-2" d="M19.89,14.09l-1.24-2.31s-.13-.14-.23-.14H17v2.95h3.15a1.07,1.07,0,0,0-.23-.5Zm1.22.5v2.95a.59.59,0,0,1-.59.59h-.15a2.53,2.53,0,0,0-5,0h-2a2.53,2.53,0,0,0-5,0H7.48a.59.59,0,0,1-.59-.59V8.69a.6.6,0,0,1,.59-.59h8.31a.59.59,0,0,1,.59.59v1.77h2.07c.44,0,.62.27.89.59l1.32,2.35A2.51,2.51,0,0,1,21.11,14.59Z"/><circle class="cls-1" cx="14" cy="14" r="14"/><circle class="cls-4" cx="13.91" cy="14.53" r="7"/><circle class="cls-2" cx="13.91" cy="7.82" r="2.5"/><circle class="cls-2" cx="7.83" cy="17.71" r="2.5"/><circle class="cls-2" cx="20.17" cy="17.71" r="2.5"/><g id="计划"><circle class="cls-1" cx="14" cy="14" r="14"/><path class="cls-2" d="M17.91,14.62a3.29,3.29,0,0,1,1.26.25,3.45,3.45,0,0,1,1,.69,3.25,3.25,0,0,1,0,4.56,3.24,3.24,0,0,1-3.53.69,3,3,0,0,1-1-.69,3.31,3.31,0,0,1-.7-1,3.3,3.3,0,0,1,0-2.52,3.31,3.31,0,0,1,1.72-1.71,3.27,3.27,0,0,1,1.24-.25Zm1.45,4.23a.3.3,0,0,0,.24-.15.66.66,0,0,0,0-.7.3.3,0,0,0-.24-.15H18V16.57a.26.26,0,0,0-.12-.21.57.57,0,0,0-.34-.09.5.5,0,0,0-.33.09.25.25,0,0,0-.11.21v1.88a.31.31,0,0,0,.07.25.29.29,0,0,0,.23.15Z"/><path class="cls-2" d="M13.49,17.84a4.77,4.77,0,0,1,.15-1.08H10.32a.89.89,0,0,1-.65-.27.85.85,0,0,1-.27-.64.92.92,0,0,1,.92-.92h4.29a4.4,4.4,0,0,1,3.3-1.51,4.48,4.48,0,0,1,.64.07V8.94a2,2,0,0,0-2-2h-7a2,2,0,0,0-2,2v9.75a2,2,0,0,0,2,2h5A4.37,4.37,0,0,1,13.49,17.84ZM9.67,11.22a.89.89,0,0,1,.65-.27h5.49a.87.87,0,0,1,.64.27.88.88,0,0,1,.26.65.89.89,0,0,1-.9.91H10.32a.92.92,0,0,1-.65-.26.88.88,0,0,1-.27-.65A.89.89,0,0,1,9.67,11.22Z"/></g><circle class="cls-1" cx="14" cy="14" r="14"/><path class="cls-2" d="M19.81,18.39c0,3.27-3,3.18-5.81,3.18s-5.81.09-5.81-3.18,3-5,5.81-5,5.81,1.75,5.81,5Z"/><path class="cls-2" d="M10.54,8.89A3.46,3.46,0,1,0,14,5.43a3.46,3.46,0,0,0-3.46,3.46Z"/></g></g></svg>