<svg xmlns="http://www.w3.org/2000/svg" viewBox="0 0 16 16"><defs><style>.ee1b4008-1dc0-4b89-a4b5-ef6f20d939b6{fill:#eaeaea;}.b946c4af-3e28-430b-bb85-d13c2602eb69{fill:#b2d1ff;}.af994a26-7e0d-498a-bab5-cf234d12b16b{fill:#4386f5;}</style></defs><title>资源 129</title><g id="b2348928-a0cf-412a-9ded-c393af63f397" data-name="图层 2"><g id="f65f8c52-c34e-489f-a4f9-5fab44c217fa" data-name="dam 图标"><path class="ee1b4008-1dc0-4b89-a4b5-ef6f20d939b6" d="M1.22,3H4.78A.22.22,0,0,1,5,3.22V10a0,0,0,0,1,0,0H1a0,0,0,0,1,0,0V3.22A.22.22,0,0,1,1.22,3Z"/><path class="b946c4af-3e28-430b-bb85-d13c2602eb69" d="M14.79,0H4.21A.21.21,0,0,0,4,.21V13H15V.21A.21.21,0,0,0,14.79,0ZM13,6.61a.69.69,0,0,1-.69.69H6.69A.69.69,0,0,1,6,6.61V6.39a.69.69,0,0,1,.69-.69h5.62a.69.69,0,0,1,.69.69Zm0-3.24a.69.69,0,0,1-.69.69H6.69A.69.69,0,0,1,6,3.37V3.15a.69.69,0,0,1,.69-.69h5.62a.69.69,0,0,1,.69.69Z"/><path class="af994a26-7e0d-498a-bab5-cf234d12b16b" d="M15.82,16H.18A.17.17,0,0,1,0,15.85v-5.7A.17.17,0,0,1,.18,10H5.86a.17.17,0,0,1,.18.15v1.41a.16.16,0,0,0,.18.15H10a.16.16,0,0,0,.18-.15V10.15a.17.17,0,0,1,.18-.15h5.43a.17.17,0,0,1,.18.15v5.7A.17.17,0,0,1,15.82,16Z"/></g></g></svg>