<?xml version="1.0" encoding="UTF-8"?>
<svg width="64px" height="64px" viewBox="0 0 64 64" version="1.1" xmlns="http://www.w3.org/2000/svg" xmlns:xlink="http://www.w3.org/1999/xlink">
    <title>数据源</title>
    <g id="元数据-知识图谱" stroke="none" stroke-width="1" fill="none" fill-rule="evenodd">
        <g id="列表详情" transform="translate(-268.000000, -48.000000)">
            <g id="数据源" transform="translate(268.000000, 48.000000)">
                <circle id="椭圆形" fill="#F1EEF5" cx="32" cy="32" r="32"></circle>
                <g id="编组-6" transform="translate(16.000000, 15.000000)" fill="#745399">
                    <path d="M16,0 C24.7705466,0 32,3.37374494 32,8 C32,9.51373787 31.225988,10.8933774 29.877238,12.0646077 C31.2406226,13.2485916 32,14.6328672 32,16.128952 C32,17.6199161 31.2491025,18.9807864 29.9377219,20.1405559 C31.2632643,21.3113664 32,22.6765031 32,24.1501153 C32,28.7763704 24.7705466,32.1501153 16,32.1501153 C7.22945345,32.1501153 0,28.7763704 0,24.1501153 C0,22.6163789 0.701068312,21.2950898 2.0609427,20.1411574 C0.750897514,18.9807864 0,17.6199161 0,16.128952 C0,14.5713616 0.723045122,13.2328782 2.12487041,12.0662745 C0.775146735,10.8953993 0,9.5148471 0,8 C0,3.37374494 7.22945345,0 16,0 Z M28.266,21.3501153 L28.0849249,21.4439101 C25.1405317,23.1179455 20.8011747,24.128952 16,24.128952 C11.1102891,24.128952 6.69958533,23.0803147 3.75361563,21.3506256 L3.57076591,21.4888749 C2.48626072,22.333766 2,23.1937436 2,24.1501153 C2,26.5033943 5.56082876,28.7352637 10.6786896,29.6785973 L11.0146501,29.7382802 L11.6848896,29.8443007 C13.0412083,30.0416932 14.4907105,30.1501153 16,30.1501153 C17.2936767,30.1501153 18.543428,30.0704583 19.7282232,29.9233936 L20.3151104,29.8443007 L20.9853499,29.7382802 C26.2826698,28.8322441 30,26.5545526 30,24.1501153 C30,23.3248552 29.549238,22.4783752 28.6578235,21.6766333 L28.4600651,21.5055403 L28.266,21.3501153 Z M4.45084485,13.6051748 C4.26394101,13.5248884 4.08002619,13.4427211 3.89922813,13.3587302 L3.89922813,13.3587302 L3.787,13.3048007 C2.62142547,14.1527743 2.06694573,15.006102 2.00572571,15.9507421 L2.00572571,15.9507421 L2,16.128952 C2,17.3094557 2.8960638,18.4594073 4.43524098,19.4314739 L4.18966365,19.2984231 C9.73036058,22.3708587 19.7170077,23.4668974 27.2252332,19.6375863 C28.9713131,18.6235807 30,17.3938033 30,16.128952 C30,15.1857976 29.4112496,14.2149274 28.2488395,13.3147977 L28.2488395,13.3147977 L28.23,13.2998007 L27.8701895,13.4561635 C27.8097462,13.4816595 27.7492315,13.5069287 27.6886473,13.5319718 C24.7588044,15.0757764 20.5904903,16 16,16 C11.6147267,16 7.61472672,15.1565638 4.71104504,13.7348456 Z M16,2 C14.7063233,2 13.456572,2.07965708 12.2717768,2.22672175 L11.6848896,2.30581468 L11.0146501,2.4118351 C5.71733022,3.31787121 2,5.59556276 2,8 C2,9.38081772 3.22596184,10.7198352 5.27308371,11.7812726 C10.8465304,14.1645869 19.4510066,14.7534276 26.8759559,11.7036119 C28.8334577,10.6541049 30,9.3469396 30,8 C30,5.646721 26.4391712,3.41485164 21.3213104,2.47151802 L20.9853499,2.4118351 L20.3151104,2.30581468 C18.9587917,2.10842213 17.5092895,2 16,2 Z" id="形状结合" fill-rule="nonzero"></path>
                    <path d="M16,2 C17.5092895,2 18.9587917,2.10842213 20.3151104,2.30581468 L20.9853499,2.4118351 C26.2826698,3.31787121 30,5.59556276 30,8 C30,10.4044372 27.0239258,12.3807373 21.3873291,13.2998007 L20.3151104,13.4787312 C18.9587917,13.6761238 17.5092895,13.7845459 16,13.7845459 C14.4907105,13.7845459 13.0412083,13.6761238 11.6848896,13.4787312 C14.9906663,14.0147203 14.7223307,13.9857788 10.8798828,13.3919067 C5.11621094,12.5010986 2,10.4044372 2,8 C2,5.59556276 5.71733022,3.31787121 11.0146501,2.4118351 L11.6848896,2.30581468 C13.0412083,2.10842213 14.4907105,2 16,2 Z" id="路径" fill-opacity="0.4" fill-rule="nonzero"></path>
                    <path d="M3.787,13.2997551 C13.4075417,16.1663193 21.5552083,16.1663193 28.23,13.2997551 C28.5192584,13.3568527 30.1006928,14.8335213 30,16.4124756 C29.93506,17.4307944 28.8610229,18.6188965 27.5174561,19.4713135 C25.6008911,20.4377441 22.8931627,21.7733908 18.2485046,22.0003052 C16.8942261,22.0664683 15.1232241,22.0664683 15.0429688,22.0604248 C10.0397644,21.7596741 5.64731772,20.4887661 3.787,19 C1.57376099,17.302124 1.82421875,15.7666016 2.34741211,14.7883911 C2.67451986,14.262797 3.15438249,13.766585 3.787,13.2997551 Z" id="路径-7" fill-opacity="0.2"></path>
                </g>
            </g>
        </g>
    </g>
</svg>