<?xml version="1.0" standalone="no"?><!DOCTYPE svg PUBLIC "-//W3C//DTD SVG 1.1//EN" "http://www.w3.org/Graphics/SVG/1.1/DTD/svg11.dtd"><svg t="1672193109939" class="icon" viewBox="0 0 1024 1024" version="1.1" xmlns="http://www.w3.org/2000/svg" p-id="6624" xmlns:xlink="http://www.w3.org/1999/xlink" width="200" height="200"><path d="M960 42.666667a64 64 0 0 1 64 64v213.333333a64 64 0 0 1-64 64h-21.333333v554.666667a42.666667 42.666667 0 0 1-42.666667 42.666666H128a42.666667 42.666667 0 0 1-42.666667-42.666666V384H64a64 64 0 0 1-64-64V106.666667a64 64 0 0 1 64-64h896z m-85.333333 341.333333H640v64a64 64 0 0 1-64 64h-149.333333a64 64 0 0 1-64-64v-64H149.333333v533.333333h725.333334V384z m-138.666667 405.333333a32 32 0 0 1 0 64h-448a32 32 0 0 1 0-64h448zM576 384h-149.333333v64h149.333333v-64zM362.666667 106.666667H64v213.333333h298.666667V106.666667z m213.333333 0h-149.333333v213.333333h149.333333V106.666667z m384 0H640v213.333333h320V106.666667z" fill="#5B7E91" p-id="6625"></path><path d="M426.666667 106.666667h149.333333v213.333333h-149.333333zM426.666667 384h149.333333v64h-149.333333z" fill="#5B7E91" fill-opacity=".2" p-id="6626"></path></svg>