<?xml version="1.0" encoding="UTF-8"?>
<svg width="32px" height="32px" viewBox="0 0 32 32" version="1.1" xmlns="http://www.w3.org/2000/svg" xmlns:xlink="http://www.w3.org/1999/xlink">
    <title>数据表-24 3</title>
    <g id="全局搜索2.0-7月19日" stroke="none" stroke-width="1" fill="none" fill-rule="evenodd">
        <g id="数据表-24">
            <path d="M10.2555408,-2.76224082e-16 L21.7444592,4.14336123e-16 C25.3105342,-2.4074122e-16 26.6036791,0.371302445 27.9073828,1.06853082 C29.2110865,1.76575919 30.2342408,2.78891348 30.9314692,4.09261719 C31.6286976,5.39632089 32,6.68946584 32,10.2555408 L32,21.7444592 C32,25.3105342 31.6286976,26.6036791 30.9314692,27.9073828 C30.2342408,29.2110865 29.2110865,30.2342408 27.9073828,30.9314692 C26.6036791,31.6286976 25.3105342,32 21.7444592,32 L10.2555408,32 C6.68946584,32 5.39632089,31.6286976 4.09261719,30.9314692 C2.78891348,30.2342408 1.76575919,29.2110865 1.06853082,27.9073828 C0.371302445,26.6036791 8.02470732e-17,25.3105342 -1.38112041e-16,21.7444592 L2.76224082e-16,10.2555408 C-1.60494146e-16,6.68946584 0.371302445,5.39632089 1.06853082,4.09261719 C1.76575919,2.78891348 2.78891348,1.76575919 4.09261719,1.06853082 C5.39632089,0.371302445 6.68946584,1.60494146e-16 10.2555408,-2.76224082e-16 Z" id="矩形" fill="#F5EEF3"></path>
            <g id="编组-6" transform="translate(8.000000, 7.000000)" fill="#9D5B8B">
                <path d="M15.2380952,0 C15.6588836,0 16,0.337933563 16,0.754795739 L16,17.2450505 C16,17.6619126 15.6588836,18 15.2380952,18 C15.1149543,18 14.9936482,17.9702775 14.8845661,17.9136723 L8.35352914,14.5245731 C8.13211151,14.4096746 7.86788849,14.4096746 7.64647086,14.5245731 L1.1154339,17.9136723 C0.742686283,18.1070993 0.282234249,17.9645506 0.0869854969,17.595281 C0.0298472479,17.4872167 0,17.3670424 0,17.2450505 L0,0.754795739 C0,0.337933563 0.341116381,0 0.761904762,0 L15.2380952,0 Z M1.14285714,9 L1.14285714,16.6209796 L7.11617715,13.5216403 C7.64058733,13.2495123 8.26104284,13.2351898 8.79556305,13.4786727 L8.88382285,13.5216403 L14.8571429,16.6209796 L14.8571429,9 L1.14285714,9 Z M11.0509673,4.125 C10.8461062,4.125 10.6603423,4.15148926 10.4936756,4.20446777 C10.3270089,4.25744629 10.1842138,4.33349609 10.0652902,4.43261719 C9.94636657,4.53173828 9.85348462,4.65179443 9.78664435,4.79278564 C9.71980407,4.93377686 9.68291171,5.09143066 9.67596726,5.26574707 L10.4025298,5.26574707 C10.4077381,5.1854248 10.4264013,5.11322021 10.4585193,5.0491333 C10.4906374,4.98504639 10.5336062,4.93035889 10.5874256,4.8850708 C10.641245,4.83978271 10.7054812,4.80474854 10.7801339,4.77996826 C10.8547867,4.75518799 10.93812,4.74279785 11.0301339,4.74279785 C11.1221478,4.74279785 11.2050471,4.7543335 11.2788318,4.77740479 C11.3526166,4.80047607 11.4155506,4.83294678 11.4676339,4.87481689 C11.5197173,4.91668701 11.5600818,4.96795654 11.5887277,5.02862549 C11.6173735,5.08929443 11.6316964,5.15637207 11.6316964,5.2298584 C11.6316964,5.30505371 11.6173735,5.37384033 11.5887277,5.43621826 C11.5600818,5.49859619 11.5192832,5.55200195 11.4663318,5.59643555 C11.4133805,5.64086914 11.3500124,5.67547607 11.2762277,5.70025635 C11.202443,5.72503662 11.1212798,5.73742676 11.0327381,5.73742676 L10.5744048,5.73742676 L10.5744048,6.31420898 L11.0405506,6.31420898 C11.2523562,6.31420898 11.4185888,6.36077881 11.5392485,6.45391846 C11.6599082,6.54705811 11.7202381,6.67480469 11.7202381,6.8371582 C11.7202381,6.91577148 11.703745,6.98797607 11.6707589,7.05377197 C11.6377728,7.11956787 11.5921999,7.17596436 11.5340402,7.22296143 C11.4758805,7.2699585 11.406002,7.30627441 11.3244048,7.33190918 C11.2428075,7.35754395 11.1525298,7.37036133 11.0535714,7.37036133 C10.952877,7.37036133 10.8608631,7.35839844 10.7775298,7.33447266 C10.6941964,7.31054687 10.6225818,7.27636719 10.562686,7.23193359 C10.5027902,7.1875 10.4550471,7.13409424 10.4194568,7.07171631 C10.3838666,7.00933838 10.3634673,6.93884277 10.3582589,6.86022949 L9.60565476,6.86022949 C9.61433532,7.0345459 9.6546999,7.19262695 9.72674851,7.33447266 C9.79879712,7.47631836 9.89775546,7.59765625 10.0236235,7.69848633 C10.1494916,7.79931641 10.2987971,7.8770752 10.4715402,7.9317627 C10.6442832,7.9864502 10.8356895,8.01379395 11.0457589,8.01379395 C11.2593006,8.01379395 11.4563492,7.98602295 11.6369048,7.93048096 C11.8174603,7.87493896 11.9732763,7.79760742 12.1043527,7.69848633 C12.2354291,7.59936523 12.3378596,7.48144531 12.4116443,7.34472656 C12.4854291,7.20800781 12.5223214,7.05847168 12.5223214,6.89611816 C12.5223214,6.77478027 12.5027902,6.66326904 12.4637277,6.56158447 C12.4246652,6.4598999 12.3686756,6.37060547 12.2957589,6.29370117 C12.2228423,6.21679688 12.1347346,6.15441895 12.031436,6.10656738 C11.9281374,6.05871582 11.812252,6.0279541 11.6837798,6.01428223 L11.6837798,5.96813965 C11.7879464,5.94763184 11.8829985,5.91174316 11.968936,5.86047363 C12.0548735,5.8092041 12.1277902,5.74682617 12.187686,5.67333984 C12.2475818,5.59985352 12.2940228,5.51654053 12.3270089,5.42340088 C12.359995,5.33026123 12.3764881,5.2298584 12.3764881,5.12219238 C12.3764881,4.97692871 12.343502,4.84320068 12.2775298,4.7210083 C12.2115575,4.59881592 12.1199777,4.49371338 12.0027902,4.40570068 C11.8856027,4.31768799 11.7458457,4.24890137 11.5835193,4.19934082 C11.421193,4.14978027 11.2436756,4.125 11.0509673,4.125 Z M5.18377976,4.21984863 L4.3999256,4.21984863 L3.42857143,4.87866211 L3.42857143,5.59899902 L4.35044643,4.97351074 L4.39732143,4.97351074 L4.39732143,7.91894531 L5.18377976,7.91894531 L5.18377976,4.21984863 Z M7.55096726,4.125 C7.34784226,4.125 7.16207837,4.15405273 6.9936756,4.2121582 C6.82527282,4.27026367 6.6811756,4.35229492 6.56138393,4.45825195 C6.44159226,4.56420898 6.34827629,4.69067383 6.28143601,4.83764648 C6.21459573,4.98461914 6.1811756,5.14782715 6.1811756,5.32727051 L6.1811756,5.34008789 L6.91034226,5.34008789 L6.91034226,5.32470703 C6.91034226,5.23925781 6.92509921,5.16107178 6.9546131,5.09014893 C6.98412698,5.01922607 7.02622768,4.95855713 7.08091518,4.90814209 C7.13560268,4.85772705 7.20027282,4.81842041 7.2749256,4.79022217 C7.34957837,4.76202393 7.43291171,4.7479248 7.5249256,4.7479248 C7.60999504,4.7479248 7.68855407,4.76031494 7.76060268,4.78509521 C7.83265129,4.80987549 7.89471726,4.84490967 7.9468006,4.89019775 C7.99888393,4.93548584 8.03968254,4.98931885 8.06919643,5.05169678 C8.09871032,5.11407471 8.11346726,5.18200684 8.11346726,5.25549316 C8.11346726,5.31530762 8.10391865,5.37426758 8.08482143,5.43237305 C8.06572421,5.49047852 8.03143601,5.55499268 7.98195685,5.62591553 C7.93247768,5.69683838 7.86476935,5.77801514 7.77883185,5.8694458 C7.69289435,5.96087646 7.58395337,6.06982422 7.45200893,6.19628906 L6.22544643,7.37805176 L6.22544643,7.91894531 L8.93638393,7.91894531 L8.93638393,7.2755127 L7.2905506,7.2755127 L7.2905506,7.22937012 L8.0093006,6.55517578 C8.17249504,6.40478516 8.30964782,6.26849365 8.42075893,6.14630127 C8.53187004,6.02410889 8.62171379,5.91003418 8.69029018,5.80407715 C8.75886657,5.69812012 8.80791171,5.59686279 8.8374256,5.50030518 C8.86693948,5.40374756 8.88169643,5.30505371 8.88169643,5.20422363 C8.88169643,5.04528809 8.84914435,4.89959717 8.78404018,4.76715088 C8.71893601,4.63470459 8.62779018,4.52105713 8.51060268,4.4262085 C8.39341518,4.33135986 8.25322421,4.25744629 8.09002976,4.20446777 C7.92683532,4.15148926 7.74714782,4.125 7.55096726,4.125 Z M1.14285714,3 L14.8571429,3 L14.8571429,1.13219361 L1.14285714,1.13219361 L1.14285714,3 Z" id="形状结合" fill-rule="nonzero"></path>
                <rect id="矩形备份-9" opacity="0.7" x="1.14285714" y="10.5" width="13.7142857" height="1.5"></rect>
            </g>
        </g>
    </g>
</svg>