<?xml version="1.0" standalone="no"?><!DOCTYPE svg PUBLIC "-//W3C//DTD SVG 1.1//EN" "http://www.w3.org/Graphics/SVG/1.1/DTD/svg11.dtd"><svg t="1701241358347" class="icon" viewBox="0 0 1024 1024" version="1.1" xmlns="http://www.w3.org/2000/svg" p-id="8137" xmlns:xlink="http://www.w3.org/1999/xlink" width="200" height="200"><path d="M987.428571 219.428571a36.571429 36.571429 0 0 1 36.571429 36.571429v658.285714a36.571429 36.571429 0 0 1-29.988571 35.986286L987.428571 950.857143h-804.571428a36.571429 36.571429 0 1 1 0-73.142857H950.857143V256a36.571429 36.571429 0 0 1 36.571428-36.571429zM804.571429 73.142857a73.142857 73.142857 0 0 1 73.142857 73.142857v585.142857a73.142857 73.142857 0 0 1-73.142857 73.142858H73.142857a73.142857 73.142857 0 0 1-73.142857-73.142858V146.285714a73.142857 73.142857 0 0 1 73.142857-73.142857h731.428572z m0 73.142857H73.142857v585.142857h731.428572V146.285714zM314.88 301.787429a31.524571 31.524571 0 0 1 0 44.617142L222.427429 438.857143l92.452571 92.452571a31.524571 31.524571 0 1 1-44.617143 44.617143L155.501714 461.165714a31.524571 31.524571 0 0 1 0-44.617143l114.761143-114.761142a31.524571 31.524571 0 0 1 44.617143 0z m247.808 0a31.524571 31.524571 0 0 1 44.617143 0l114.761143 114.761142a31.524571 31.524571 0 0 1 0 44.617143L607.305143 575.926857a31.524571 31.524571 0 1 1-44.617143-44.617143L655.140571 438.857143 562.688 346.404571a31.524571 31.524571 0 0 1 0-44.617142z m-48.713143 4.461714a34.157714 34.157714 0 0 1 16.457143 45.348571l-94.793143 203.337143a34.157714 34.157714 0 0 1-61.805714-28.891428l94.793143-203.264a34.157714 34.157714 0 0 1 45.348571-16.530286z" fill="#999999" p-id="8138"></path></svg>