<?xml version="1.0" encoding="UTF-8"?>
<svg width="32px" height="32px" viewBox="0 0 32 32" version="1.1" xmlns="http://www.w3.org/2000/svg" xmlns:xlink="http://www.w3.org/1999/xlink">
    <title>数据项</title>
    <g id="全局搜索2.0-7月19日" stroke="none" stroke-width="1" fill="none" fill-rule="evenodd">
        <g id="数据项">
            <path d="M10.2555408,-2.76224082e-16 L21.7444592,4.14336123e-16 C25.3105342,-2.4074122e-16 26.6036791,0.371302445 27.9073828,1.06853082 C29.2110865,1.76575919 30.2342408,2.78891348 30.9314692,4.09261719 C31.6286976,5.39632089 32,6.68946584 32,10.2555408 L32,21.7444592 C32,25.3105342 31.6286976,26.6036791 30.9314692,27.9073828 C30.2342408,29.2110865 29.2110865,30.2342408 27.9073828,30.9314692 C26.6036791,31.6286976 25.3105342,32 21.7444592,32 L10.2555408,32 C6.68946584,32 5.39632089,31.6286976 4.09261719,30.9314692 C2.78891348,30.2342408 1.76575919,29.2110865 1.06853082,27.9073828 C0.371302445,26.6036791 8.02470732e-17,25.3105342 -1.38112041e-16,21.7444592 L2.76224082e-16,10.2555408 C-1.60494146e-16,6.68946584 0.371302445,5.39632089 1.06853082,4.09261719 C1.76575919,2.78891348 2.78891348,1.76575919 4.09261719,1.06853082 C5.39632089,0.371302445 6.68946584,1.60494146e-16 10.2555408,-2.76224082e-16 Z" id="矩形" fill="#F7EDF4"></path>
            <path d="M24.6681223,7.33188048 L24.6118723,7.28125549 C24.5790888,7.24803485 24.5433124,7.21790737 24.5049973,7.19125552 C24.3187678,7.06610735 24.0993704,6.99950458 23.8749974,7.00000277 L8.12499983,7.00000277 C7.50367958,7.00000277 7,7.50368508 7,8.12500523 L7,23.8750003 C7,24.4963205 7.50367958,25.0000028 8.12499983,25.0000028 L23.8749974,25.0000028 C24.4963176,25.0000028 25,24.4963205 25,23.8750003 L25,8.12500523 C24.9987413,7.82711835 24.8793904,7.54188995 24.6681223,7.33188048 Z M15.2499987,23.8750002 L8.12499983,23.8750002 L8.12499983,12.250002 L15.2499987,12.250002 L15.2499987,23.8750002 Z M23.8749974,23.8750002 L16.7499985,23.8750002 L16.7499985,12.250002 L23.8749974,12.250002 L23.8749974,23.8750002 Z" id="字段(48*48)" fill="#B44C97" fill-rule="nonzero"></path>
            <rect id="矩形" fill="#B44C97" opacity="0.20031157" x="8.12499983" y="12.0624992" width="7.31249887" height="11.8124982"></rect>
        </g>
    </g>
</svg>