<?xml version="1.0" standalone="no"?><!DOCTYPE svg PUBLIC "-//W3C//DTD SVG 1.1//EN" "http://www.w3.org/Graphics/SVG/1.1/DTD/svg11.dtd"><svg t="1701240243608" class="icon" viewBox="0 0 1024 1024" version="1.1" xmlns="http://www.w3.org/2000/svg" p-id="7779" xmlns:xlink="http://www.w3.org/1999/xlink" width="200" height="200"><path d="M73.152 768c0 87.232 191.296 182.848 438.848 182.848 247.552 0 438.848-95.616 438.848-182.848H1024c0 141.44-229.248 256-512 256s-512-114.56-512-256h73.152zM512 0c276.608 0 502.016 125.376 511.68 282.048l0.32 10.496V768h-73.152l0.128-87.552c-89.6 74.368-252.672 124.16-438.976 124.16s-349.44-49.792-438.976-124.16L73.152 768H0V292.544C0 131.008 229.248 0 512 0z m0 585.152c-186.24 0-349.376-56.896-438.912-141.888v105.28c0 87.232 191.36 182.912 438.912 182.912 247.552 0 438.848-95.68 438.848-182.912l0.064-105.28C861.312 528.256 698.304 585.152 512 585.152z m0-512c-247.68 0-438.848 109.184-438.848 219.392S264.256 512 512 512c247.68 0 438.848-109.248 438.848-219.456 0-110.208-191.104-219.392-438.848-219.392z" fill="#999999" p-id="7780"></path></svg>