<?xml version="1.0" encoding="utf-8"?>
<!-- Generator: Adobe Illustrator 22.1.0, SVG Export Plug-In . SVG Version: 6.00 Build 0)  -->
<svg version="1.1" id="图层_1" xmlns="http://www.w3.org/2000/svg" xmlns:xlink="http://www.w3.org/1999/xlink" x="0px" y="0px"
	 viewBox="0 0 96 96" style="enable-background:new 0 0 96 96;" xml:space="preserve">
<style type="text/css">
	.st0{fill:#231815;}
</style>
<path class="st0" d="M84,66c-1.6,0-3.1,0.3-4.5,0.9L65,47.3L79.2,29c1.5,0.7,3.1,1,4.8,1c6.6,0,12-5.4,12-12c0-6.6-5.4-12-12-12
	s-12,5.4-12,12c0,2.8,0.9,5.3,2.5,7.3l-13.3,17L50.4,27.7c-1.1-1.5-3.7-1.5-4.8,0L34.7,42.3l-13.3-17c1.6-2,2.5-4.6,2.5-7.3
	c0-6.6-5.4-12-12-12S0,11.4,0,18c0,6.6,5.4,12,12,12c1.7,0,3.3-0.4,4.8-1L31,47.3L16.5,66.9C15.1,66.3,13.6,66,12,66
	C5.4,66,0,71.4,0,78c0,6.6,5.4,12,12,12s12-5.4,12-12c0-2.9-1-5.5-2.7-7.5l13.5-18.2l5.4,7c-0.8,1.3-1.3,2.9-1.3,4.6c0,5,4,9,9,9
	s9-4,9-9c0-1.7-0.5-3.2-1.3-4.6l5.4-7l13.5,18.2C73,72.5,72,75.1,72,78c0,6.6,5.4,12,12,12s12-5.4,12-12C96,71.4,90.6,66,84,66z
	 M51.1,55.3c-1-0.4-2-0.6-3.1-0.6s-2.2,0.2-3.1,0.6l-6.3-8.1L48,34.5l9.5,12.7L51.1,55.3z"/>
</svg>
