<?xml version="1.0" standalone="no"?><!DOCTYPE svg PUBLIC "-//W3C//DTD SVG 1.1//EN" "http://www.w3.org/Graphics/SVG/1.1/DTD/svg11.dtd"><svg t="1702464945257" class="icon" viewBox="0 0 1024 1024" version="1.1" xmlns="http://www.w3.org/2000/svg" p-id="8369" xmlns:xlink="http://www.w3.org/1999/xlink" width="200" height="200"><path d="M740.704 0l-0.064 0.128 219.456 219.136-0.256 0.128h0.256v731.52c0 40.32-32.768 73.088-73.152 73.088H137.056A73.152 73.152 0 0 1 63.904 950.848V73.152C63.904 32.768 96.672 0 137.056 0h603.648zM667.424 73.088H137.056v877.76H886.944V292.544h-146.24A73.152 73.152 0 0 1 667.552 219.52L667.424 73.088z m41.216 585.216a32 32 0 0 1 32 32v9.152a32 32 0 0 1-32 32H315.36a32 32 0 0 1-32-32v-9.152a32 32 0 0 1 32-32h393.344z m0-146.304a32 32 0 0 1 32 32v9.152a32 32 0 0 1-32 32H315.36a32 32 0 0 1-32-32V544a32 32 0 0 1 32-32h393.344zM562.4 365.696a32 32 0 0 1 32 32v9.152a32 32 0 0 1-32 32h-247.04a32 32 0 0 1-32-32v-9.152a32 32 0 0 1 32-32h247.04z m294.336-146.304l-116.096-115.84v115.84h116.096z" fill="#999999" p-id="8370"></path></svg>