<?xml version="1.0" encoding="UTF-8"?>
<svg width="32px" height="32px" viewBox="0 0 32 32" version="1.1" xmlns="http://www.w3.org/2000/svg" xmlns:xlink="http://www.w3.org/1999/xlink">
    <title>数据表-24 2</title>
    <g id="全局搜索2.0-7月19日" stroke="none" stroke-width="1" fill="none" fill-rule="evenodd">
        <g id="数据表-24">
            <path d="M10.2555408,-2.76224082e-16 L21.7444592,4.14336123e-16 C25.3105342,-2.4074122e-16 26.6036791,0.371302445 27.9073828,1.06853082 C29.2110865,1.76575919 30.2342408,2.78891348 30.9314692,4.09261719 C31.6286976,5.39632089 32,6.68946584 32,10.2555408 L32,21.7444592 C32,25.3105342 31.6286976,26.6036791 30.9314692,27.9073828 C30.2342408,29.2110865 29.2110865,30.2342408 27.9073828,30.9314692 C26.6036791,31.6286976 25.3105342,32 21.7444592,32 L10.2555408,32 C6.68946584,32 5.39632089,31.6286976 4.09261719,30.9314692 C2.78891348,30.2342408 1.76575919,29.2110865 1.06853082,27.9073828 C0.371302445,26.6036791 8.02470732e-17,25.3105342 -1.38112041e-16,21.7444592 L2.76224082e-16,10.2555408 C-1.60494146e-16,6.68946584 0.371302445,5.39632089 1.06853082,4.09261719 C1.76575919,2.78891348 2.78891348,1.76575919 4.09261719,1.06853082 C5.39632089,0.371302445 6.68946584,1.60494146e-16 10.2555408,-2.76224082e-16 Z" id="矩形" fill="#FAF7EB"></path>
            <g id="编组" transform="translate(8.000000, 7.000000)" fill="#D1AF3E">
                <path d="M15.2380952,0 C15.6588836,0 16,0.337933563 16,0.754795739 L16,17.2450505 C16,17.6619126 15.6588836,18 15.2380952,18 C15.1149543,18 14.9936482,17.9702775 14.8845661,17.9136723 L8.35352914,14.5245731 C8.13211151,14.4096746 7.86788849,14.4096746 7.64647086,14.5245731 L1.1154339,17.9136723 C0.742686283,18.1070993 0.282234249,17.9645506 0.0869854969,17.595281 C0.0298472479,17.4872167 0,17.3670424 0,17.2450505 L0,0.754795739 C0,0.337933563 0.341116381,0 0.761904762,0 L15.2380952,0 Z M1.14285714,9 L1.14285714,16.6209796 L7.11617715,13.5216403 C7.64058733,13.2495123 8.26104284,13.2351898 8.79556305,13.4786727 L8.88382285,13.5216403 L14.8571429,16.6209796 L14.8571429,9 L1.14285714,9 Z M12.1902631,3.77155952 L10.05064,4.59035405 C9.96014063,4.62520452 9.89572571,4.70533632 9.88207545,4.80004746 C9.86842518,4.8947586 9.90765589,4.9893652 9.98473656,5.04761931 L10.4953284,5.44378989 L9.32698162,6.79795008 L6.39683691,5.07974125 C6.22282489,4.97079765 5.99756102,4.98347599 5.83729732,5.11123334 L3.61481503,6.76645798 C3.51338493,6.84244041 3.44746719,6.95555965 3.43204336,7.08010637 C3.41661952,7.20465309 3.45299972,7.33004808 3.53291558,7.42779203 C3.61345829,7.52912963 3.73187454,7.59449429 3.86171748,7.60928759 C3.99156042,7.62408089 4.12201371,7.58707051 4.22394217,7.50652227 L6.18281061,6.05788579 L9.19485477,7.82301785 C9.2756787,7.86589526 9.36634881,7.88758502 9.4581487,7.88600204 C9.60408055,7.88563454 9.74251835,7.82233125 9.83693365,7.71279551 L11.301846,6.02607877 L11.7954822,6.40398394 C11.8732522,6.4625853 11.9765662,6.47669344 12.0676046,6.44114388 C12.1586429,6.40559431 12.2240379,6.32560702 12.2398507,6.23046248 L12.5690481,4.0549884 C12.5819704,3.95899899 12.5416015,3.86356122 12.4632916,3.80496526 C12.3849818,3.7463693 12.2807625,3.7336178 12.1902631,3.77155952 Z M1.14285714,3 L14.8571429,3 L14.8571429,1.13219361 L1.14285714,1.13219361 L1.14285714,3 Z" id="形状结合" fill-rule="nonzero"></path>
                <rect id="矩形备份-6" opacity="0.7" x="1.14285714" y="10.5" width="13.7142857" height="1.5"></rect>
            </g>
        </g>
    </g>
</svg>