<?xml version="1.0" encoding="UTF-8"?>
<svg width="32px" height="32px" viewBox="0 0 32 32" version="1.1" xmlns="http://www.w3.org/2000/svg" xmlns:xlink="http://www.w3.org/1999/xlink">
    <title>数据表-24 5</title>
    <g id="全局搜索2.0-7月19日" stroke="none" stroke-width="1" fill="none" fill-rule="evenodd">
        <g id="数据表-24">
            <path d="M10.2555408,-2.76224082e-16 L21.7444592,4.14336123e-16 C25.3105342,-2.4074122e-16 26.6036791,0.371302445 27.9073828,1.06853082 C29.2110865,1.76575919 30.2342408,2.78891348 30.9314692,4.09261719 C31.6286976,5.39632089 32,6.68946584 32,10.2555408 L32,21.7444592 C32,25.3105342 31.6286976,26.6036791 30.9314692,27.9073828 C30.2342408,29.2110865 29.2110865,30.2342408 27.9073828,30.9314692 C26.6036791,31.6286976 25.3105342,32 21.7444592,32 L10.2555408,32 C6.68946584,32 5.39632089,31.6286976 4.09261719,30.9314692 C2.78891348,30.2342408 1.76575919,29.2110865 1.06853082,27.9073828 C0.371302445,26.6036791 8.02470732e-17,25.3105342 -1.38112041e-16,21.7444592 L2.76224082e-16,10.2555408 C-1.60494146e-16,6.68946584 0.371302445,5.39632089 1.06853082,4.09261719 C1.76575919,2.78891348 2.78891348,1.76575919 4.09261719,1.06853082 C5.39632089,0.371302445 6.68946584,1.60494146e-16 10.2555408,-2.76224082e-16 Z" id="矩形" fill="#EBF7F3"></path>
            <g id="编组-5" transform="translate(8.000000, 7.000000)" fill="#38B48B">
                <path d="M15.2380952,0 C15.6588836,0 16,0.337933563 16,0.754795739 L16,17.2450505 C16,17.6619126 15.6588836,18 15.2380952,18 C15.1149543,18 14.9936482,17.9702775 14.8845661,17.9136723 L8.35352914,14.5245731 C8.13211151,14.4096746 7.86788849,14.4096746 7.64647086,14.5245731 L1.1154339,17.9136723 C0.742686283,18.1070993 0.282234249,17.9645506 0.0869854969,17.595281 C0.0298472479,17.4872167 0,17.3670424 0,17.2450505 L0,0.754795739 C0,0.337933563 0.341116381,0 0.761904762,0 L15.2380952,0 Z M1.14285714,9 L1.14285714,16.6209796 L7.11617715,13.5216403 C7.64058733,13.2495123 8.26104284,13.2351898 8.79556305,13.4786727 L8.88382285,13.5216403 L14.8571429,16.6209796 L14.8571429,9 L1.14285714,9 Z M12.9021351,4.12556243 L10.4820836,4.12556243 L10.4820836,4.63905633 L12.1816094,4.63905633 L10.4552068,6.79876782 L10.4552068,7.31226172 L12.9290119,7.31226172 L12.9290119,6.79876782 L11.1597209,6.79876782 L12.9021351,4.63905633 L12.9021351,4.12556243 Z M4.57663174,4.125 L4.07741032,4.125 L2.66666667,7.31226172 L3.31456799,7.31226172 L3.60449383,6.5811094 L5.01123456,6.5811094 L5.31259731,7.31226172 L5.9713637,7.31226172 L4.57663174,4.125 Z M9.52881659,5.43769964 L6.47916279,5.43769964 L6.47916279,6.18741199 L9.52881659,6.18741199 L9.52881659,5.43769964 Z M4.30957972,4.80047226 L4.80937299,6.097424 L3.80235248,6.097424 L4.30957972,4.80047226 Z M1.14285714,3 L14.8571429,3 L14.8571429,1.13219361 L1.14285714,1.13219361 L1.14285714,3 Z" id="形状结合" fill-rule="nonzero"></path>
                <rect id="矩形备份" opacity="0.7" x="1.14285714" y="10.5" width="13.7142857" height="1.5"></rect>
            </g>
        </g>
    </g>
</svg>