<?xml version="1.0" standalone="no"?><!DOCTYPE svg PUBLIC "-//W3C//DTD SVG 1.1//EN" "http://www.w3.org/Graphics/SVG/1.1/DTD/svg11.dtd"><svg t="1701243323918" class="icon" viewBox="0 0 1024 1024" version="1.1" xmlns="http://www.w3.org/2000/svg" p-id="8701" xmlns:xlink="http://www.w3.org/1999/xlink" width="200" height="200"><path d="M658.56 0c40.32 0 73.152 32.768 73.152 73.152l-0.064 0.256h155.2c37.504 0 68.48 28.288 72.64 64.64L960 146.56v804.288c0 37.504-28.224 68.48-64.64 72.64l-8.512 0.512H137.152c-37.504 0-68.48-28.224-72.64-64.64L64 950.848V146.56c0-37.504 28.224-68.416 64.64-72.64l8.512-0.448 155.648-0.064v-0.256C292.8 32.768 325.568 0 365.952 0h292.608zM292.8 146.56H137.152v804.288h749.696V146.56h-155.2l-0.384 7.68A73.152 73.152 0 0 1 658.56 219.52H365.952c-40.32 0-72.96-32.64-73.152-72.832z m219.456 108.864a292.544 292.544 0 0 1 216.128 489.792l78.848 78.848a36.544 36.544 0 1 1-51.712 51.712l-82.048-81.984-0.896-1.024a292.544 292.544 0 1 1-160.32-537.344z m0 73.152a219.456 219.456 0 1 0 0 438.848 219.456 219.456 0 0 0 0-438.848z m-18.688 121.792a43.904 43.904 0 0 1 12.16 9.152l4.608 6.016 48.96 75.2 23.808-62.464a36.608 36.608 0 0 1 40.832-22.976l6.336 1.792c16.768 6.4 26.112 23.808 22.976 40.832l-1.792 6.4-44.288 116.352a43.904 43.904 0 0 1-73.472 13.952l-4.352-5.632-52.864-81.28-46.08 90.112a36.608 36.608 0 0 1-43.136 18.368l-6.144-2.496a36.608 36.608 0 0 1-18.304-43.136l2.496-6.08 69.184-135.04a43.904 43.904 0 0 1 59.072-19.072z m164.992-377.216H365.952v73.152h292.608V73.152z" fill="#999999" p-id="8702"></path></svg>