<?xml version="1.0" encoding="UTF-8"?>
<svg width="32px" height="32px" viewBox="0 0 32 32" version="1.1" xmlns="http://www.w3.org/2000/svg" xmlns:xlink="http://www.w3.org/1999/xlink">
    <title>XLS</title>
    <g id="全局搜索2.0-7月19日" stroke="none" stroke-width="1" fill="none" fill-rule="evenodd">
        <g id="XLS">
            <path d="M10.2555408,-2.76224082e-16 L21.7444592,4.14336123e-16 C25.3105342,-2.4074122e-16 26.6036791,0.371302445 27.9073828,1.06853082 C29.2110865,1.76575919 30.2342408,2.78891348 30.9314692,4.09261719 C31.6286976,5.39632089 32,6.68946584 32,10.2555408 L32,21.7444592 C32,25.3105342 31.6286976,26.6036791 30.9314692,27.9073828 C30.2342408,29.2110865 29.2110865,30.2342408 27.9073828,30.9314692 C26.6036791,31.6286976 25.3105342,32 21.7444592,32 L10.2555408,32 C6.68946584,32 5.39632089,31.6286976 4.09261719,30.9314692 C2.78891348,30.2342408 1.76575919,29.2110865 1.06853082,27.9073828 C0.371302445,26.6036791 8.02470732e-17,25.3105342 -1.38112041e-16,21.7444592 L2.76224082e-16,10.2555408 C-1.60494146e-16,6.68946584 0.371302445,5.39632089 1.06853082,4.09261719 C1.76575919,2.78891348 2.78891348,1.76575919 4.09261719,1.06853082 C5.39632089,0.371302445 6.68946584,1.60494146e-16 10.2555408,-2.76224082e-16 Z" id="矩形" fill="#F5F7FA"></path>
            <g id="编组-17备份-10" transform="translate(7.000000, 6.000000)">
                <path d="M16.6666667,0 C17.5871412,0 18.3333333,0.746192084 18.3333333,1.66666667 L18.3333333,18.3333333 C18.3333333,19.2538079 17.5871412,20 16.6666667,20 L1.66666667,20 C0.746192084,20 0,19.2538079 0,18.3333333 L0,1.66666667 C0,0.746192084 0.746192084,0 1.66666667,0 L16.6666667,0 Z M16.6666667,1.25 L1.66666667,1.25 C1.43654802,1.25 1.25,1.43654802 1.25,1.66666667 L1.25,18.3333333 C1.25,18.563452 1.43654802,18.75 1.66666667,18.75 L16.6666667,18.75 C16.8967853,18.75 17.0833333,18.563452 17.0833333,18.3333333 L17.0833333,1.66666667 C17.0833333,1.43654802 16.8967853,1.25 16.6666667,1.25 Z M5.83333333,8.33333333 C6.29357062,8.33333333 6.66666667,8.70642938 6.66666667,9.16666667 C6.66666667,9.62690396 6.29357062,10 5.83333333,10 L5,10 C4.53976271,10 4.16666667,9.62690396 4.16666667,9.16666667 C4.16666667,8.70642938 4.53976271,8.33333333 5,8.33333333 L5.83333333,8.33333333 Z M9.58333333,8.33333333 C10.0435706,8.33333333 10.4166667,8.70642938 10.4166667,9.16666667 C10.4166667,9.62690396 10.0435706,10 9.58333333,10 L8.75,10 C8.28976271,10 7.91666667,9.62690396 7.91666667,9.16666667 C7.91666667,8.70642938 8.28976271,8.33333333 8.75,8.33333333 L9.58333333,8.33333333 Z M13.3333333,8.33333333 C13.7935706,8.33333333 14.1666667,8.70642938 14.1666667,9.16666667 C14.1666667,9.62690396 13.7935706,10 13.3333333,10 L12.5,10 C12.0397627,10 11.6666667,9.62690396 11.6666667,9.16666667 C11.6666667,8.70642938 12.0397627,8.33333333 12.5,8.33333333 L13.3333333,8.33333333 Z M5.83333333,5.83333333 C6.29357062,5.83333333 6.66666667,6.20642938 6.66666667,6.66666667 C6.66666667,7.12690396 6.29357062,7.5 5.83333333,7.5 L5,7.5 C4.53976271,7.5 4.16666667,7.12690396 4.16666667,6.66666667 C4.16666667,6.20642938 4.53976271,5.83333333 5,5.83333333 L5.83333333,5.83333333 Z M9.58333333,5.83333333 C10.0435706,5.83333333 10.4166667,6.20642938 10.4166667,6.66666667 C10.4166667,7.12690396 10.0435706,7.5 9.58333333,7.5 L8.75,7.5 C8.28976271,7.5 7.91666667,7.12690396 7.91666667,6.66666667 C7.91666667,6.20642938 8.28976271,5.83333333 8.75,5.83333333 L9.58333333,5.83333333 Z M13.3333333,5.83333333 C13.7935706,5.83333333 14.1666667,6.20642938 14.1666667,6.66666667 C14.1666667,7.12690396 13.7935706,7.5 13.3333333,7.5 L12.5,7.5 C12.0397627,7.5 11.6666667,7.12690396 11.6666667,6.66666667 C11.6666667,6.20642938 12.0397627,5.83333333 12.5,5.83333333 L13.3333333,5.83333333 Z M5.83333333,3.33333333 C6.29357062,3.33333333 6.66666667,3.70642938 6.66666667,4.16666667 C6.66666667,4.62690396 6.29357062,5 5.83333333,5 L5,5 C4.53976271,5 4.16666667,4.62690396 4.16666667,4.16666667 C4.16666667,3.70642938 4.53976271,3.33333333 5,3.33333333 L5.83333333,3.33333333 Z M9.58333333,3.33333333 C10.0435706,3.33333333 10.4166667,3.70642938 10.4166667,4.16666667 C10.4166667,4.62690396 10.0435706,5 9.58333333,5 L8.75,5 C8.28976271,5 7.91666667,4.62690396 7.91666667,4.16666667 C7.91666667,3.70642938 8.28976271,3.33333333 8.75,3.33333333 L9.58333333,3.33333333 Z M13.3333333,3.33333333 C13.7935706,3.33333333 14.1666667,3.70642938 14.1666667,4.16666667 C14.1666667,4.62690396 13.7935706,5 13.3333333,5 L12.5,5 C12.0397627,5 11.6666667,4.62690396 11.6666667,4.16666667 C11.6666667,3.70642938 12.0397627,3.33333333 12.5,3.33333333 L13.3333333,3.33333333 Z" id="形状结合" fill="#C6CAD4" fill-rule="nonzero"></path>
                <path d="M0,11.6666667 L18.3333333,11.6666667 L18.3333333,18.3333333 C18.3333333,19.2538079 17.5871412,20 16.6666667,20 L1.66666667,20 C0.746192084,20 0,19.2538079 0,18.3333333 L0,11.6666667 Z" id="矩形" fill="#30B96F"></path>
                <path d="M5.12378558,15.7437276 L3.82755241,13.8508065 L4.91328618,13.8508065 L5.74974433,15.2396953 L6.55296574,13.8508065 L7.5999233,13.8508065 L6.33138742,15.7269265 L7.74948867,17.8158602 L6.6637549,17.8158602 L5.70542867,16.2197581 L4.77479973,17.8158602 L3.75,17.8158602 L5.12378558,15.7437276 Z M8.64318789,13.8508065 L9.50734333,13.8508065 L9.50734333,17.0094086 L11.1082467,17.0094086 L11.1082467,17.8158602 L8.64318789,17.8158602 L8.64318789,13.8508065 Z M13.9850719,14.8196685 C13.9149054,14.7300627 13.8198114,14.6637918 13.6997898,14.6208557 C13.5797682,14.5779197 13.4662093,14.5564516 13.3591131,14.5564516 C13.2963326,14.5564516 13.2317056,14.5639188 13.1652321,14.578853 C13.0987586,14.5937873 13.0359781,14.6171222 12.9768905,14.6488575 C12.917803,14.6805929 12.8697943,14.7225956 12.8328646,14.7748656 C12.7959349,14.8271356 12.77747,14.8906063 12.77747,14.9652778 C12.77747,15.0847521 12.8217857,15.1762246 12.910417,15.2396953 C12.9990483,15.3031661 13.1107608,15.3573029 13.2455542,15.4021057 C13.3803477,15.4469086 13.5252969,15.4917115 13.6804017,15.5365143 C13.8355065,15.5813172 13.9804557,15.6447879 14.1152491,15.7269265 C14.2500426,15.8090651 14.361755,15.9192055 14.4503863,16.0573477 C14.5390177,16.1954898 14.5833333,16.3803017 14.5833333,16.6117832 C14.5833333,16.8320639 14.5427106,17.0243429 14.4614653,17.1886201 C14.3802199,17.3528973 14.270354,17.4891726 14.1318675,17.5974462 C13.9933811,17.7057198 13.8327368,17.7859916 13.6499347,17.8382616 C13.4671325,17.8905317 13.2741748,17.9166667 13.0710613,17.9166667 C12.8162462,17.9166667 12.579896,17.8774642 12.3620107,17.7990591 C12.1441253,17.7206541 11.9410119,17.5937127 11.7526703,17.4182348 L12.3675501,16.734991 C12.4561815,16.8544654 12.5678939,16.9468713 12.7026873,17.0122088 C12.8374808,17.0775463 12.9768905,17.1102151 13.1209164,17.1102151 C13.1910829,17.1102151 13.2621726,17.1018145 13.3341856,17.0850134 C13.4061985,17.0682124 13.4708255,17.0430108 13.5280666,17.0094086 C13.5853077,16.9758065 13.6314698,16.9328704 13.666553,16.8806004 C13.7016363,16.8283303 13.7191779,16.7667264 13.7191779,16.6957885 C13.7191779,16.5763142 13.673939,16.4820415 13.5834612,16.4129704 C13.4929834,16.3438993 13.3794245,16.2850956 13.2427845,16.2365591 C13.1061445,16.1880227 12.9584257,16.1394863 12.7996279,16.0909498 C12.6408301,16.0424134 12.4931112,15.9770759 12.3564712,15.8949373 C12.2198313,15.8127987 12.1062724,15.7045251 12.0157946,15.5701165 C11.9253167,15.4357079 11.8800778,15.2583632 11.8800778,15.0380824 C11.8800778,14.8252688 11.9216238,14.6385902 12.0047156,14.4780466 C12.0878075,14.317503 12.1985967,14.1830944 12.3370831,14.0748208 C12.4755696,13.9665472 12.6352906,13.885342 12.8162462,13.8312052 C12.9972019,13.7770684 13.1836969,13.75 13.3757315,13.75 C13.5973098,13.75 13.8115022,13.7817354 14.0183086,13.8452061 C14.2251151,13.9086768 14.4116101,14.0150836 14.5777939,14.1644265 L13.9850719,14.8196685 Z" id="形状结合" fill="#FFFFFF" fill-rule="nonzero"></path>
            </g>
        </g>
    </g>
</svg>