<?xml version="1.0" encoding="UTF-8"?>
<svg width="32px" height="32px" viewBox="0 0 32 32" version="1.1" xmlns="http://www.w3.org/2000/svg" xmlns:xlink="http://www.w3.org/1999/xlink">
    <title>通用-40</title>
    <g id="全局搜索2.0-7月19日" stroke="none" stroke-width="1" fill="none" fill-rule="evenodd">
        <g id="通用-40">
            <path d="M10.2555408,-2.76224082e-16 L21.7444592,4.14336123e-16 C25.3105342,-2.4074122e-16 26.6036791,0.371302445 27.9073828,1.06853082 C29.2110865,1.76575919 30.2342408,2.78891348 30.9314692,4.09261719 C31.6286976,5.39632089 32,6.68946584 32,10.2555408 L32,21.7444592 C32,25.3105342 31.6286976,26.6036791 30.9314692,27.9073828 C30.2342408,29.2110865 29.2110865,30.2342408 27.9073828,30.9314692 C26.6036791,31.6286976 25.3105342,32 21.7444592,32 L10.2555408,32 C6.68946584,32 5.39632089,31.6286976 4.09261719,30.9314692 C2.78891348,30.2342408 1.76575919,29.2110865 1.06853082,27.9073828 C0.371302445,26.6036791 8.02470732e-17,25.3105342 -1.38112041e-16,21.7444592 L2.76224082e-16,10.2555408 C-1.60494146e-16,6.68946584 0.371302445,5.39632089 1.06853082,4.09261719 C1.76575919,2.78891348 2.78891348,1.76575919 4.09261719,1.06853082 C5.39632089,0.371302445 6.68946584,1.60494146e-16 10.2555408,-2.76224082e-16 Z" id="矩形" fill="#F5F7FA"></path>
            <g id="编组-17备份-5" transform="translate(7.000000, 6.000000)" fill="#7C89A8" fill-rule="nonzero">
                <path d="M16.6666667,0 C17.5871412,0 18.3333333,0.746192084 18.3333333,1.66666667 L18.3333333,18.3333333 C18.3333333,19.2538079 17.5871412,20 16.6666667,20 L1.66666667,20 C0.746192084,20 0,19.2538079 0,18.3333333 L0,1.66666667 C0,0.746192084 0.746192084,0 1.66666667,0 L16.6666667,0 Z M16.6666667,1.25 L1.66666667,1.25 C1.43654802,1.25 1.25,1.43654802 1.25,1.66666667 L1.25,18.3333333 C1.25,18.563452 1.43654802,18.75 1.66666667,18.75 L16.6666667,18.75 C16.8967853,18.75 17.0833333,18.563452 17.0833333,18.3333333 L17.0833333,1.66666667 C17.0833333,1.43654802 16.8967853,1.25 16.6666667,1.25 Z M7.95454545,10 C8.33110324,10 8.63636364,10.3052604 8.63636364,10.6818182 C8.63636364,11.058376 8.33110324,11.3636364 7.95454545,11.3636364 L3.86363636,11.3636364 C3.48707858,11.3636364 3.18181818,11.058376 3.18181818,10.6818182 C3.18181818,10.3052604 3.48707858,10 3.86363636,10 L7.95454545,10 Z M14.3181818,6.81818182 C14.6947396,6.81818182 15,7.12344222 15,7.5 C15,7.87655778 14.6947396,8.18181818 14.3181818,8.18181818 L3.86363636,8.18181818 C3.48707858,8.18181818 3.18181818,7.87655778 3.18181818,7.5 C3.18181818,7.12344222 3.48707858,6.81818182 3.86363636,6.81818182 L14.3181818,6.81818182 Z M10.2272727,3.63636364 C10.6038305,3.63636364 10.9090909,3.94162403 10.9090909,4.31818182 C10.9090909,4.6947396 10.6038305,5 10.2272727,5 L3.86363636,5 C3.48707858,5 3.18181818,4.6947396 3.18181818,4.31818182 C3.18181818,3.94162403 3.48707858,3.63636364 3.86363636,3.63636364 L10.2272727,3.63636364 Z" id="形状结合"></path>
            </g>
        </g>
    </g>
</svg>