<?xml version="1.0" encoding="UTF-8"?>
<svg width="48px" height="48px" viewBox="0 0 48 48" version="1.1" xmlns="http://www.w3.org/2000/svg" xmlns:xlink="http://www.w3.org/1999/xlink">
    <title>函数-48</title>
    <g id="dam-icon" stroke="none" stroke-width="1" fill="none" fill-rule="evenodd">
        <g id="资产状态" transform="translate(-1004.000000, -626.000000)" fill="#C97586" fill-rule="nonzero">
            <g id="编组-27" transform="translate(0.000000, 600.000000)">
                <path d="M1045.69168,26.0016749 L1016.51015,26.0016749 C1013.34145,26.0016749 1010.77271,28.5737048 1010.77271,31.7464644 L1010.77271,62.0003562 L1010.30832,62.0003562 C1007.14985,61.9273539 1004.44384,64.2488469 1004.0316,67.3851589 C1003.85716,69.0799625 1004.41058,70.7691011 1005.55378,72.0310902 C1006.69698,73.2930793 1008.32212,74.0088928 1010.0237,74 L1039.53479,74 C1041.05236,74 1042.50712,73.3932789 1043.57597,72.3146086 C1044.64482,71.2359383 1045.23927,69.7745872 1045.22729,68.255127 L1045.22729,38.0012353 L1045.9763,38.0012353 C1047.67788,38.0102115 1049.30302,37.294398 1050.44622,36.0324089 C1051.58942,34.7704199 1052.14284,33.0812813 1051.9684,31.3864776 C1051.55616,28.2501656 1048.85015,25.9286726 1045.69168,26.0016749 Z M1011,70.996989 L1010.39901,70.996989 C1008.78715,71.0639342 1007.36414,70.0077359 1007.04613,68.508371 C1006.88604,67.6293274 1007.14719,66.7283639 1007.75862,66.0502556 C1008.37005,65.3721474 1009.26826,64.9873182 1010.20923,65.0003191 L1011,65.0003191 L1011,70.996989 Z M1042.95428,68.2550027 C1042.96276,69.7569412 1041.73706,70.9835181 1040.21125,71 L1014,71 L1014,31.7450388 C1013.99596,31.0157959 1014.28846,30.3152582 1014.81234,29.7995978 C1015.33622,29.2839373 1016.04793,28.9960235 1016.78879,29 L1024.81978,29 C1025.93643,31.4757605 1025.58546,34.3546489 1023.90544,36.5000341 C1023.67648,36.7710029 1023.62598,37.1473251 1023.77561,37.4675161 C1023.92525,37.787707 1024.24842,37.9948404 1024.60644,38.0000326 L1043,38.0000326 L1043,68.2550027 L1042.95428,68.2550027 Z M1028,34.996989 C1028.29649,34.0266379 1028.44479,33.0152865 1028.43966,31.9986541 C1028.44479,30.9820216 1028.29649,29.9706703 1028,29.0003191 L1046.02617,29.0003191 C1046.89812,28.9873182 1047.73044,29.3721474 1048.29702,30.0502556 C1048.8636,30.7283639 1049.1056,31.6293274 1048.95726,32.508371 C1048.66257,34.0077359 1047.34394,35.0639342 1045.85031,34.996989 L1028,34.996989 Z M1030.99896,44.4866385 C1031.01182,44.7675442 1030.90468,45.0403699 1030.70518,45.2347491 C1030.53138,45.426991 1030.28603,45.535645 1030.02947,45.5339934 C1029.79083,45.5484058 1029.55695,45.461777 1029.38314,45.294598 C1029.2241,45.0104222 1029.09604,44.7093902 1029.00122,44.3968653 C1029.00122,44.2472431 1028.8984,44.097621 1028.79557,44.0377722 C1028.70868,43.9416512 1028.586,43.8873242 1028.45772,43.88815 C1028.29931,43.8854298 1028.15021,43.9641775 1028.06111,44.097621 C1027.97298,44.2472431 1027.91422,44.4417519 1027.82608,44.6362606 L1026.65094,48.6311712 L1028.31083,48.6311712 L1028.01704,49.5737906 L1026.35716,49.5737906 L1024.63852,55.3192799 C1024.19784,56.8155011 1023.75716,58.0124781 1023.41931,58.8503619 C1023.05689,59.6901771 1022.52076,60.4404108 1021.84756,61.0498071 C1021.14383,61.6728982 1020.23862,62.0086692 1019.30632,61.9924264 C1018.69418,62.0396722 1018.08536,61.8647653 1017.58768,61.4986734 C1017.24529,61.2388705 1017.03082,60.8401879 1017,60.406432 C1016.99618,60.1093043 1017.1009,59.8213115 1017.29389,59.5984725 C1017.50597,59.3584112 1017.81492,59.2314313 1018.13118,59.2543416 C1018.5131,59.2543416 1018.80688,59.3590771 1018.90971,59.5984725 C1019.05112,59.86161 1019.13623,60.1522677 1019.15943,60.4513186 C1019.15943,60.900185 1019.39445,61.1545426 1019.747,61.1545426 C1020.10076,61.1396368 1020.41738,60.9265553 1020.56959,60.6009407 C1020.8501,60.0393591 1021.08114,59.4535363 1021.25999,58.8503619 L1024.00688,49.678526 L1022.24417,49.678526 L1022.53795,48.7359067 L1024.30066,48.7359067 L1024.49162,48.0326827 C1024.72059,47.2174167 1025.00025,46.4178166 1025.32891,45.6387288 C1025.6542,44.9355083 1026.1194,44.3088102 1026.69501,43.7983768 C1027.33446,43.2407681 1028.16082,42.9566212 1029.00122,43.0053795 C1029.3348,42.9930171 1029.66665,43.0595964 1029.97071,43.1998883 C1030.2483,43.3072664 1030.49912,43.4758816 1030.70518,43.6936413 C1030.90307,43.8891254 1031.00991,44.1611784 1030.99896,44.4417519 L1030.99896,44.4866385 Z M1038.99953,50.4670587 C1039.00637,50.8905942 1038.93857,51.3118162 1038.79954,51.7095676 L1037.95672,51.7095676 C1038.08057,51.3082042 1038.14324,50.8888837 1038.14243,50.4670587 C1038.13564,50.3617864 1038.10635,50.2594616 1038.05672,50.1676589 C1037.99948,50.061419 1037.88646,50.0021977 1037.77102,50.0179591 C1037.68244,50.0165903 1037.59631,50.0484465 1037.52817,50.107779 C1037.34047,50.2799313 1037.1639,50.464969 1036.99962,50.6616685 L1035.19971,52.6526767 L1035.99967,55.3472743 C1036.09967,55.646674 1036.19966,55.9011638 1036.28537,56.0957736 C1036.37108,56.2903834 1036.48536,56.3951733 1036.62821,56.3951733 C1036.77106,56.3951733 1037.05676,56.2005635 1037.24247,55.8562538 C1037.38957,55.5454391 1037.51837,55.2254813 1037.62817,54.8981747 L1038.48527,54.8981747 C1038.34436,55.5446559 1038.08214,56.1553048 1037.71388,56.6945731 C1037.45972,57.1060192 1037.11729,57.4494913 1036.71392,57.6975622 C1036.41136,57.8873713 1036.06655,57.9906125 1035.71397,57.9969619 C1035.26794,58.0280216 1034.83742,57.8193612 1034.57117,57.4430724 C1034.2482,56.9937369 1034.00616,56.486435 1033.85691,55.9460737 L1033.4855,54.7035649 L1031.3856,56.9939728 C1031.02096,57.5250132 1030.47221,57.8851012 1029.8571,57.9969619 C1029.2857,57.9969619 1029,57.5927722 1029,56.799363 C1029.00083,56.2166499 1029.1176,55.6405206 1029.34284,55.1077545 L1030.38565,55.1077545 C1030.21239,55.5370847 1030.10163,55.9912492 1030.05709,56.4550533 C1030.05709,56.6496631 1030.05709,56.754453 1030.2428,56.754453 C1030.4285,56.754453 1030.5285,56.6047531 1030.77135,56.3502634 L1033.24266,53.6107558 L1032.77125,52.0089673 C1032.67126,51.7095676 1032.57126,51.4550778 1032.52841,51.3053779 C1032.47785,51.170174 1032.39407,51.0513877 1032.28556,50.9610682 C1032.20468,50.8596841 1032.08292,50.8042047 1031.957,50.8113684 C1031.57131,50.8113684 1031.28561,51.3053779 1031.05705,52.308367 L1030.09995,52.308367 C1030.25618,51.691494 1030.49676,51.1015536 1030.8142,50.5568786 C1031.0542,50.1382941 1031.36384,49.7681734 1031.72844,49.4640696 C1032.03226,49.2360016 1032.39755,49.1153905 1032.77125,49.1197599 C1033.22585,49.0910661 1033.66626,49.291247 1033.95691,49.6586794 C1034.29852,50.1045408 1034.55991,50.6117945 1034.7283,51.1556781 L1034.87115,51.6496876 L1036.29966,49.9580791 C1036.67332,49.4233973 1037.24279,49.0761842 1037.87101,49 C1038.33766,49 1038.62336,49.1496999 1038.72811,49.4490996 C1038.88785,49.7406079 1038.97161,50.0710249 1038.97096,50.4071787 L1038.99953,50.4670587 Z" id="函数-48"></path>
            </g>
        </g>
    </g>
</svg>