<?xml version="1.0" encoding="UTF-8"?>
<svg width="16px" height="16px" viewBox="0 0 16 16" version="1.1" xmlns="http://www.w3.org/2000/svg" xmlns:xlink="http://www.w3.org/1999/xlink">
    <title>形状结合</title>
    <g id="icon" stroke="none" stroke-width="1" fill="none" fill-rule="evenodd">
        <g id="icon-备用" transform="translate(-562.000000, -584.000000)" fill="#409EFF" fill-rule="nonzero">
            <path d="M569.106173,584.248866 C569.655279,583.917045 570.344721,583.917045 570.893827,584.248866 L577.173292,588.043508 C577.74454,588.388711 578.041508,589.011752 577.995315,589.631763 L577.994525,594.36113 C578.022344,594.707168 577.944691,595.064809 577.749313,595.384083 C577.606192,595.617962 577.408646,595.814268 577.173292,595.956492 L570.893827,599.751134 C570.344721,600.082955 569.655279,600.082955 569.106173,599.751134 L562.826708,595.956492 C562.25546,595.611289 561.958492,594.988248 562.004685,594.368237 L562.005475,589.63887 C561.977656,589.292832 562.055309,588.935191 562.250687,588.615917 C562.393808,588.382038 562.591354,588.185732 562.826708,588.043508 Z M565.643,592.666 L563.422593,594.008986 C563.344141,594.056394 563.278293,594.121829 563.230586,594.199789 C563.066037,594.468683 563.152001,594.819222 563.422593,594.982739 L569.426,598.61 L569.425997,594.91036 C569.365031,594.888913 569.305,594.863944 569.246211,594.835451 L569.106173,594.759409 L565.643,592.666 Z M574.356,592.666 L570.893827,594.759409 C570.791488,594.821252 570.684274,594.871569 570.574003,594.91036 L570.573,598.61 L576.577407,594.982739 C576.629708,594.951134 576.676408,594.911516 576.715865,594.865517 L576.769414,594.791936 C576.933963,594.523042 576.847999,594.172503 576.577407,594.008986 L574.356,592.666 Z M570.297942,590.214344 C570.114907,590.103737 569.885093,590.103737 569.702058,590.214344 L566.747,591.999 L569.702058,593.785656 C569.854587,593.877829 570.039602,593.893191 570.20296,593.831743 L570.297942,593.785656 L573.252,591.999 Z M563.153,591.162 L563.153,592.838 L564.54,592 L563.153,591.162 Z M576.846,591.161 L575.459,591.999 L576.846,592.837 L576.846,591.161 Z M569.426,585.389 L563.422593,589.017261 C563.344141,589.064669 563.278293,589.130104 563.230586,589.208064 C563.186743,589.279708 563.160685,589.357148 563.151164,589.435303 L563.153855,589.591385 C563.178919,589.751606 563.272264,589.900171 563.422593,589.991014 L565.643,591.333 L569.106173,589.240591 C569.208512,589.178748 569.315726,589.128431 569.425997,589.08964 L569.426,585.389 Z M570.573,585.389 L570.574003,589.08964 C570.684274,589.128431 570.791488,589.178748 570.893827,589.240591 L574.356,591.333 L576.577407,589.991014 C576.629708,589.959409 576.676408,589.919791 576.715865,589.873792 L576.769414,589.800211 C576.813332,589.728444 576.839404,589.650862 576.848884,589.572571 L576.846145,589.41689 C576.821081,589.256669 576.727736,589.108104 576.577407,589.017261 L570.573,585.389 Z" id="形状结合"></path>
        </g>
    </g>
</svg>