<?xml version="1.0" encoding="UTF-8"?>
<svg width="32px" height="32px" viewBox="0 0 32 32" version="1.1" xmlns="http://www.w3.org/2000/svg" xmlns:xlink="http://www.w3.org/1999/xlink">
    <title>music</title>
    <g id="全局搜索2.0-7月19日" stroke="none" stroke-width="1" fill="none" fill-rule="evenodd">
        <g id="music">
            <path d="M10.2555408,-2.76224082e-16 L21.7444592,4.14336123e-16 C25.3105342,-2.4074122e-16 26.6036791,0.371302445 27.9073828,1.06853082 C29.2110865,1.76575919 30.2342408,2.78891348 30.9314692,4.09261719 C31.6286976,5.39632089 32,6.68946584 32,10.2555408 L32,21.7444592 C32,25.3105342 31.6286976,26.6036791 30.9314692,27.9073828 C30.2342408,29.2110865 29.2110865,30.2342408 27.9073828,30.9314692 C26.6036791,31.6286976 25.3105342,32 21.7444592,32 L10.2555408,32 C6.68946584,32 5.39632089,31.6286976 4.09261719,30.9314692 C2.78891348,30.2342408 1.76575919,29.2110865 1.06853082,27.9073828 C0.371302445,26.6036791 8.02470732e-17,25.3105342 -1.38112041e-16,21.7444592 L2.76224082e-16,10.2555408 C-1.60494146e-16,6.68946584 0.371302445,5.39632089 1.06853082,4.09261719 C1.76575919,2.78891348 2.78891348,1.76575919 4.09261719,1.06853082 C5.39632089,0.371302445 6.68946584,1.60494146e-16 10.2555408,-2.76224082e-16 Z" id="矩形" fill="#F5F7FA"></path>
            <path d="M23.6666667,6 C24.5871412,6 25.3333333,6.74619208 25.3333333,7.66666667 L25.3333333,24.3333333 C25.3333333,25.2538079 24.5871412,26 23.6666667,26 L8.66666667,26 C7.74619208,26 7,25.2538079 7,24.3333333 L7,7.66666667 C7,6.74619208 7.74619208,6 8.66666667,6 L23.6666667,6 Z M23.6666667,7.25 L8.66666667,7.25 C8.43654802,7.25 8.25,7.43654802 8.25,7.66666667 L8.25,24.3333333 C8.25,24.563452 8.43654802,24.75 8.66666667,24.75 L23.6666667,24.75 C23.8967853,24.75 24.0833333,24.563452 24.0833333,24.3333333 L24.0833333,7.66666667 C24.0833333,7.43654802 23.8967853,7.25 23.6666667,7.25 Z M20.5,12.0050167 L20.5,17.9727322 C20.5021739,18.3459308 20.3278289,18.7377553 20.0008242,19.0641738 C19.5543538,19.509844 18.8911382,19.7658773 18.2610156,19.7358241 C17.6308929,19.7057709 17.129599,19.3941973 16.9459748,18.9184753 C16.7623027,18.4427718 16.9241949,17.8751763 17.3706653,17.4295061 C17.8171357,16.983836 18.4803513,16.7278027 19.1104739,16.7578559 C19.3263033,16.7681497 19.5270186,16.8114714 19.7050313,16.8831045 L19.7043046,13.0990979 C19.7043046,12.9697974 19.5948965,12.8852548 19.4904615,12.8852548 C19.4705691,12.8852548 19.4506767,12.8902279 19.4307843,12.895201 L15.2832221,14.2180445 C15.1887332,14.24291 15.1290561,14.3274527 15.1290561,14.4219415 L15.1290561,19.1065981 C15.1263102,19.4751744 14.952276,19.860902 14.6296353,20.1829574 C14.1831703,20.6286123 13.5199738,20.8846383 12.8898654,20.8545927 C12.259757,20.8245471 11.7584652,20.5129947 11.5748218,20.0372941 C11.2909337,19.3019248 11.8397184,18.4050889 12.8005668,18.0341549 C13.3424853,17.8249482 13.8997391,17.8277101 14.3335793,18.0018177 L14.3333605,13.3278603 C14.3330665,12.8834907 14.6240636,12.491453 15.0494865,12.3630797 L19.1920757,11.0452092 C19.8435513,10.8462853 20.5,11.3286756 20.5,12.0050167 Z" id="形状结合" fill="#7C89A8" fill-rule="nonzero"></path>
        </g>
    </g>
</svg>