<?xml version="1.0" encoding="UTF-8"?>
<svg width="32px" height="32px" viewBox="0 0 32 32" version="1.1" xmlns="http://www.w3.org/2000/svg" xmlns:xlink="http://www.w3.org/1999/xlink">
    <title>PDF</title>
    <g id="全局搜索2.0-7月19日" stroke="none" stroke-width="1" fill="none" fill-rule="evenodd">
        <g id="PDF">
            <path d="M10.2555408,-2.76224082e-16 L21.7444592,4.14336123e-16 C25.3105342,-2.4074122e-16 26.6036791,0.371302445 27.9073828,1.06853082 C29.2110865,1.76575919 30.2342408,2.78891348 30.9314692,4.09261719 C31.6286976,5.39632089 32,6.68946584 32,10.2555408 L32,21.7444592 C32,25.3105342 31.6286976,26.6036791 30.9314692,27.9073828 C30.2342408,29.2110865 29.2110865,30.2342408 27.9073828,30.9314692 C26.6036791,31.6286976 25.3105342,32 21.7444592,32 L10.2555408,32 C6.68946584,32 5.39632089,31.6286976 4.09261719,30.9314692 C2.78891348,30.2342408 1.76575919,29.2110865 1.06853082,27.9073828 C0.371302445,26.6036791 8.02470732e-17,25.3105342 -1.38112041e-16,21.7444592 L2.76224082e-16,10.2555408 C-1.60494146e-16,6.68946584 0.371302445,5.39632089 1.06853082,4.09261719 C1.76575919,2.78891348 2.78891348,1.76575919 4.09261719,1.06853082 C5.39632089,0.371302445 6.68946584,1.60494146e-16 10.2555408,-2.76224082e-16 Z" id="矩形" fill="#F5F7FA"></path>
            <g id="编组-17备份-9" transform="translate(7.000000, 6.000000)">
                <path d="M16.6666667,0 C17.5871412,0 18.3333333,0.746192084 18.3333333,1.66666667 L18.3333333,18.3333333 C18.3333333,19.2538079 17.5871412,20 16.6666667,20 L1.66666667,20 C0.746192084,20 0,19.2538079 0,18.3333333 L0,1.66666667 C0,0.746192084 0.746192084,0 1.66666667,0 L16.6666667,0 Z M16.6666667,1.25 L1.66666667,1.25 C1.43654802,1.25 1.25,1.43654802 1.25,1.66666667 L1.25,18.3333333 C1.25,18.563452 1.43654802,18.75 1.66666667,18.75 L16.6666667,18.75 C16.8967853,18.75 17.0833333,18.563452 17.0833333,18.3333333 L17.0833333,1.66666667 C17.0833333,1.43654802 16.8967853,1.25 16.6666667,1.25 Z M8.76963025,2.5 C9.02345067,2.54947293 9.22670818,2.74353624 9.29188808,2.99863388 C9.35921968,3.23834879 9.39081946,3.48703305 9.38562666,3.7363388 C9.38925226,4.26385227 9.31476044,4.78889908 9.16467143,5.29371585 C9.1382194,5.34983911 9.1382194,5.41518821 9.16467143,5.47131148 C9.3715477,5.8994956 9.63762399,6.29515472 9.95475379,6.64617486 C10.1963234,6.92535452 10.4706767,7.17312106 10.7716186,7.38387978 C10.796799,7.39724442 10.8267855,7.39724442 10.851966,7.38387978 C11.2732304,7.32097396 11.6983797,7.28901561 12.1241325,7.28825137 C12.384642,7.28628309 12.6440392,7.32310073 12.894128,7.39754098 C13.0648864,7.4610812 13.2059263,7.58789371 13.2891692,7.75273224 C13.3892762,8.03984256 13.3160169,8.36014063 13.101692,8.57240437 C12.9597267,8.66368117 12.7939813,8.70892978 12.6263035,8.70218579 C12.3003703,8.69087882 11.9778056,8.6310483 11.6688308,8.52459016 C11.2763766,8.39705052 10.8973258,8.23001757 10.5372721,8.02595628 C10.5107293,8.0207875 10.4834676,8.0207875 10.4569248,8.02595628 C9.81424054,8.12541479 9.17724362,8.2599429 8.54867501,8.42896175 L7.67154968,8.66803279 C7.62468039,8.66803279 7.59120232,8.66803279 7.59120232,8.75 C7.35374876,9.20009138 7.08054658,9.62957909 6.77433751,10.034153 C6.57084907,10.3074364 6.31871425,10.5391643 6.03112444,10.7172131 C5.93210183,10.7708259 5.82615979,10.8099179 5.71643062,10.8333333 L5.56243151,10.8333333 C5.32431278,10.808394 5.12128606,10.6464157 5.04017368,10.4166667 L5,10.2800546 C5.03884286,10.0999708 5.11409895,9.93013895 5.22095524,9.78142077 C5.40439261,9.51650432 5.63083545,9.28549624 5.89051656,9.09836066 C6.2480998,8.83845522 6.62664201,8.60994998 7.02207519,8.41530055 C7.05812045,8.3994255 7.08686123,8.37010528 7.10242255,8.33333333 C7.61431037,7.45756518 8.06190907,6.54432003 8.4415452,5.6010929 C8.45589787,5.57573215 8.45589787,5.54448643 8.4415452,5.51912568 C8.28830499,5.01023653 8.17633431,4.48935649 8.10676454,3.96174863 C8.05767742,3.63690212 8.06903494,3.30552828 8.1402426,2.98497268 C8.16454742,2.81213448 8.26932743,2.66197604 8.42145836,2.58196721 L8.5955443,2.5 L8.76963025,2.5 Z M11.7357869,7.95081967 L11.7357869,7.98497268 L12.1107412,8.1284153 C12.3109762,8.20756408 12.5259755,8.24023082 12.7401289,8.22404372 L12.8383604,8.20497618 L12.9343017,8.17622951 C12.5576664,8.0062025 12.1470944,7.92898447 11.7357869,7.95081967 Z M8.77632586,6.35928962 C8.52189256,6.97404372 8.2406768,7.54781421 7.92598298,8.1420765 C8.5419794,7.93715847 9.17136704,7.77322404 9.81414591,7.62978142 C9.40791177,7.26157466 9.05808382,6.8333178 8.77632586,6.35928962 Z M8.74284779,2.99180328 C8.66270754,3.38138016 8.67164447,3.78364272 8.76783639,4.16760867 L8.823,4.356 L8.82319515,4.28961749 C8.8687392,4.042042 8.88447877,3.78971931 8.87006445,3.53825137 C8.85166217,3.39781651 8.82482929,3.25866609 8.78971709,3.1215847 C8.77137287,3.07939814 8.75571722,3.03604753 8.74284779,2.99180328 Z" id="形状结合" fill="#C6CAD4" fill-rule="nonzero"></path>
                <path d="M0,11.6666667 L18.3333333,11.6666667 L18.3333333,18.3333333 C18.3333333,19.2538079 17.5871412,20 16.6666667,20 L1.66666667,20 C0.746192084,20 0,19.2538079 0,18.3333333 L0,11.6666667 Z" id="矩形" fill="#F35454"></path>
                <path d="M3.75,13.75 L5.27361854,13.75 C5.48603684,13.75 5.68686869,13.7696171 5.87611408,13.8088512 C6.06535948,13.8480854 6.23046643,13.9157643 6.37143494,14.0118879 C6.51240345,14.1080116 6.62440582,14.2374843 6.70744207,14.400306 C6.79047831,14.5631277 6.83199643,14.7681262 6.83199643,15.0153013 C6.83199643,15.258553 6.79337493,15.4625706 6.71613191,15.627354 C6.63888889,15.7921375 6.53267974,15.9235719 6.39750446,16.0216573 C6.26232917,16.1197426 6.10204991,16.1893832 5.91666667,16.2305791 C5.73128342,16.271775 5.53045157,16.2923729 5.31417112,16.2923729 L4.65374332,16.2923729 L4.65374332,17.9166667 L3.75,17.9166667 L3.75,13.75 Z M4.65374332,15.5155367 L5.25623886,15.5155367 C5.33734403,15.5155367 5.41555258,15.5076899 5.49086453,15.4919962 C5.56617647,15.4763026 5.63376411,15.4498195 5.69362745,15.4125471 C5.75349079,15.3752746 5.80176768,15.3242702 5.83845811,15.2595339 C5.87514854,15.1947976 5.89349376,15.1133867 5.89349376,15.0153013 C5.89349376,14.9093691 5.86935532,14.8240348 5.82107843,14.7592985 C5.77280154,14.6945621 5.71100713,14.6445386 5.63569519,14.6092279 C5.56038324,14.5739171 5.47638146,14.5513575 5.38368984,14.541549 C5.29099822,14.5317404 5.20216875,14.5268362 5.11720143,14.5268362 L4.65374332,14.5268362 L4.65374332,15.5155367 Z M7.39973262,13.75 L8.75534759,13.75 C9.08363042,13.75 9.39549911,13.7872724 9.69095365,13.8618173 C9.9864082,13.9363622 10.2442068,14.0570072 10.4643494,14.2237524 C10.684492,14.3904975 10.8592543,14.6072662 10.9886364,14.8740584 C11.1180184,15.1408506 11.1827094,15.4645323 11.1827094,15.8451036 C11.1827094,16.1825173 11.1199495,16.4797159 10.9944296,16.7366996 C10.8689097,16.9936833 10.6999406,17.2094711 10.4875223,17.3840631 C10.275104,17.5586551 10.0298574,17.6910703 9.75178253,17.7813089 C9.47370766,17.8715474 9.18211527,17.9166667 8.87700535,17.9166667 L7.39973262,17.9166667 L7.39973262,13.75 Z M8.30347594,17.069209 L8.77272727,17.069209 C8.98128342,17.069209 9.17535651,17.0476303 9.35494652,17.0044727 C9.53453654,16.9613151 9.68998812,16.8897128 9.82130125,16.7896657 C9.95261438,16.6896186 10.0559269,16.5581842 10.1312389,16.3953625 C10.2065508,16.2325408 10.2442068,16.0334275 10.2442068,15.7980226 C10.2442068,15.594005 10.2065508,15.4164705 10.1312389,15.265419 C10.0559269,15.1143675 9.95454545,14.9897991 9.82709447,14.8917137 C9.69964349,14.7936284 9.54998515,14.7200643 9.37811943,14.6710217 C9.20625371,14.621979 9.02569816,14.5974576 8.83645276,14.5974576 L8.30347594,14.5974576 L8.30347594,17.069209 Z M11.8315508,13.75 L14.5833333,13.75 L14.5833333,14.5974576 L12.7352941,14.5974576 L12.7352941,15.4449153 L14.4442959,15.4449153 L14.4442959,16.2923729 L12.7352941,16.2923729 L12.7352941,17.9166667 L11.8315508,17.9166667 L11.8315508,13.75 Z" id="形状结合" fill="#FFFFFF" fill-rule="nonzero"></path>
            </g>
        </g>
    </g>
</svg>