<?xml version="1.0" encoding="UTF-8"?>
<svg width="32px" height="32px" viewBox="0 0 32 32" version="1.1" xmlns="http://www.w3.org/2000/svg" xmlns:xlink="http://www.w3.org/1999/xlink">
    <title>图片</title>
    <g id="全局搜索2.0-7月19日" stroke="none" stroke-width="1" fill="none" fill-rule="evenodd">
        <g id="图片">
            <path d="M10.2555408,-2.76224082e-16 L21.7444592,4.14336123e-16 C25.3105342,-2.4074122e-16 26.6036791,0.371302445 27.9073828,1.06853082 C29.2110865,1.76575919 30.2342408,2.78891348 30.9314692,4.09261719 C31.6286976,5.39632089 32,6.68946584 32,10.2555408 L32,21.7444592 C32,25.3105342 31.6286976,26.6036791 30.9314692,27.9073828 C30.2342408,29.2110865 29.2110865,30.2342408 27.9073828,30.9314692 C26.6036791,31.6286976 25.3105342,32 21.7444592,32 L10.2555408,32 C6.68946584,32 5.39632089,31.6286976 4.09261719,30.9314692 C2.78891348,30.2342408 1.76575919,29.2110865 1.06853082,27.9073828 C0.371302445,26.6036791 8.02470732e-17,25.3105342 -1.38112041e-16,21.7444592 L2.76224082e-16,10.2555408 C-1.60494146e-16,6.68946584 0.371302445,5.39632089 1.06853082,4.09261719 C1.76575919,2.78891348 2.78891348,1.76575919 4.09261719,1.06853082 C5.39632089,0.371302445 6.68946584,1.60494146e-16 10.2555408,-2.76224082e-16 Z" id="矩形" fill="#F5F7FA"></path>
            <g id="编组-17备份-6" transform="translate(7.000000, 6.000000)" fill="#7C89A8" fill-rule="nonzero">
                <path d="M16.6666667,0 C17.5871412,0 18.3333333,0.746192084 18.3333333,1.66666667 L18.3333333,18.3333333 C18.3333333,19.2538079 17.5871412,20 16.6666667,20 L1.66666667,20 C0.746192084,20 0,19.2538079 0,18.3333333 L0,1.66666667 C0,0.746192084 0.746192084,0 1.66666667,0 L16.6666667,0 Z M16.6666667,1.25 L1.66666667,1.25 C1.43654802,1.25 1.25,1.43654802 1.25,1.66666667 L1.25,18.3333333 C1.25,18.563452 1.43654802,18.75 1.66666667,18.75 L16.6666667,18.75 C16.8967853,18.75 17.0833333,18.563452 17.0833333,18.3333333 L17.0833333,1.66666667 C17.0833333,1.43654802 16.8967853,1.25 16.6666667,1.25 Z" id="矩形"></path>
                <g id="编组-13" transform="translate(3.181818, 5.000000)">
                    <circle id="椭圆形" cx="7.95454545" cy="1.59090909" r="1.59090909"></circle>
                    <path d="M8.67303674,5.68019936 L6.41445396,9.35138129 C6.34050391,9.48945698 6.34765106,9.65359188 6.43335896,9.78553667 C6.51906686,9.91748146 6.67120434,9.99856054 6.8357798,10 L11.3460384,10 C11.5106138,9.99856054 11.6627513,9.91748146 11.7484592,9.78553667 C11.8341671,9.65359188 11.8413143,9.48945698 11.7673642,9.35138129 L9.50878144,5.68019936 C9.42219743,5.54048945 9.26304389,5.45454545 9.09090909,5.45454545 C8.91877429,5.45454545 8.75962075,5.54048945 8.67303674,5.68019936 Z" id="路径" opacity="0.39827474"></path>
                    <path d="M3.6737307,3.40885327 L0.0466921375,9.34741122 C-0.0231738223,9.48660454 -0.0141783576,9.649753 0.0706157985,9.78130858 C0.155409955,9.91286415 0.304572878,9.99509367 0.467318283,10 L7.7144999,10 C7.8772453,9.99509367 8.02640823,9.91286415 8.11120238,9.78130858 C8.19599654,9.649753 8.204992,9.48660454 8.13512604,9.34741122 L4.50808748,3.40885327 C4.42164726,3.26828822 4.26275802,3.18181818 4.09090909,3.18181818 C3.91906016,3.18181818 3.76017092,3.26828822 3.6737307,3.40885327 L3.6737307,3.40885327 Z" id="路径"></path>
                </g>
            </g>
        </g>
    </g>
</svg>