<svg xmlns="http://www.w3.org/2000/svg" viewBox="0 0 28 32"><defs><style>.a0bf2ae3-4166-439f-b1f0-6cdc81709c69{fill:#9e9fa5;}.be89837f-4abf-4f0d-bfc8-93031fef9c05,.f934f13b-257b-48a4-b8ef-864ad13f0111{fill:#9fa0a6;}.f934f13b-257b-48a4-b8ef-864ad13f0111{opacity:0.5;}</style></defs><title>资源 82</title><g id="fbb31b73-d825-4c30-abd9-bbb342ee158f" data-name="图层 2"><g id="a0ec7aca-7f80-4d77-bb48-c31f790d54b1" data-name="ddc图标"><path class="a0bf2ae3-4166-439f-b1f0-6cdc81709c69" d="M27.71,8.29,26,6.58,21.42,2,19.71.29A1,1,0,0,0,19,0H2A2,2,0,0,0,0,2V30a2,2,0,0,0,2,2H26a2,2,0,0,0,2-2V9A1,1,0,0,0,27.71,8.29ZM20,3.41,24.59,8H21a1,1,0,0,1-1-1ZM26,30H2V2H18V7a3,3,0,0,0,3,3h5Z"/><circle class="be89837f-4abf-4f0d-bfc8-93031fef9c05" cx="17" cy="13.26" r="2.5"/><path class="f934f13b-257b-48a4-b8ef-864ad13f0111" d="M18.39,19.08l-3.27,5.66a.69.69,0,0,0,.61,1h6.53a.69.69,0,0,0,.61-1L19.6,19.08A.7.7,0,0,0,18.39,19.08Z"/><path class="be89837f-4abf-4f0d-bfc8-93031fef9c05" d="M10.39,15.63l-5.26,9.1a.7.7,0,0,0,.61,1.05H16.25a.7.7,0,0,0,.61-1.05l-5.26-9.1A.7.7,0,0,0,10.39,15.63Z"/></g></g></svg>