<?xml version="1.0" encoding="UTF-8"?>
<svg width="32px" height="32px" viewBox="0 0 32 32" version="1.1" xmlns="http://www.w3.org/2000/svg" xmlns:xlink="http://www.w3.org/1999/xlink">
    <title>PPT</title>
    <g id="全局搜索2.0-7月19日" stroke="none" stroke-width="1" fill="none" fill-rule="evenodd">
        <g id="PPT">
            <path d="M10.2555408,-2.76224082e-16 L21.7444592,4.14336123e-16 C25.3105342,-2.4074122e-16 26.6036791,0.371302445 27.9073828,1.06853082 C29.2110865,1.76575919 30.2342408,2.78891348 30.9314692,4.09261719 C31.6286976,5.39632089 32,6.68946584 32,10.2555408 L32,21.7444592 C32,25.3105342 31.6286976,26.6036791 30.9314692,27.9073828 C30.2342408,29.2110865 29.2110865,30.2342408 27.9073828,30.9314692 C26.6036791,31.6286976 25.3105342,32 21.7444592,32 L10.2555408,32 C6.68946584,32 5.39632089,31.6286976 4.09261719,30.9314692 C2.78891348,30.2342408 1.76575919,29.2110865 1.06853082,27.9073828 C0.371302445,26.6036791 8.02470732e-17,25.3105342 -1.38112041e-16,21.7444592 L2.76224082e-16,10.2555408 C-1.60494146e-16,6.68946584 0.371302445,5.39632089 1.06853082,4.09261719 C1.76575919,2.78891348 2.78891348,1.76575919 4.09261719,1.06853082 C5.39632089,0.371302445 6.68946584,1.60494146e-16 10.2555408,-2.76224082e-16 Z" id="矩形" fill="#F5F7FA"></path>
            <g id="编组-17备份-8" transform="translate(7.000000, 6.000000)">
                <path d="M16.6666667,0 C17.5871412,0 18.3333333,0.746192084 18.3333333,1.66666667 L18.3333333,18.3333333 C18.3333333,19.2538079 17.5871412,20 16.6666667,20 L1.66666667,20 C0.746192084,20 0,19.2538079 0,18.3333333 L0,1.66666667 C0,0.746192084 0.746192084,0 1.66666667,0 L16.6666667,0 Z M16.6666667,1.25 L1.66666667,1.25 C1.43654802,1.25 1.25,1.43654802 1.25,1.66666667 L1.25,18.3333333 C1.25,18.563452 1.43654802,18.75 1.66666667,18.75 L16.6666667,18.75 C16.8967853,18.75 17.0833333,18.563452 17.0833333,18.3333333 L17.0833333,1.66666667 C17.0833333,1.43654802 16.8967853,1.25 16.6666667,1.25 Z M8.82575758,3.59848485 L8.82575758,7.00757576 L12.2348485,7.00757576 C12.2348485,8.89036468 10.7085465,10.4166667 8.82575758,10.4166667 C6.94296866,10.4166667 5.41666667,8.89036468 5.41666667,7.00757576 C5.41666667,5.12478684 6.94296866,3.59848485 8.82575758,3.59848485 Z M9.50757576,2.91666667 C11.3903647,2.91666667 12.9166667,4.44296866 12.9166667,6.32575758 L9.50757576,6.32575758 L9.50757576,2.91666667 Z" id="形状结合" fill="#C6CAD4" fill-rule="nonzero"></path>
                <path d="M0,11.6666667 L18.3333333,11.6666667 L18.3333333,18.3333333 C18.3333333,19.2538079 17.5871412,20 16.6666667,20 L1.66666667,20 C0.746192084,20 0,19.2538079 0,18.3333333 L0,11.6666667 Z" id="矩形" fill="#FF7743"></path>
                <g id="编组-9" transform="translate(5.416667, 2.916667)"></g>
                <path d="M3.75,13.75 L5.31404392,13.75 C5.5320982,13.75 5.73825862,13.7696171 5.93252516,13.8088512 C6.1267917,13.8480854 6.29627935,13.9157643 6.44098811,14.0118879 C6.58569686,14.1080116 6.70067094,14.2374843 6.78591034,14.400306 C6.87114974,14.5631277 6.91376944,14.7681262 6.91376944,15.0153013 C6.91376944,15.258553 6.87412321,15.4625706 6.79483074,15.627354 C6.71553827,15.7921375 6.60651113,15.9235719 6.46774931,16.0216573 C6.3289875,16.1197426 6.16445563,16.1893832 5.97415371,16.2305791 C5.78385178,16.271775 5.57769137,16.2923729 5.35567246,16.2923729 L4.67772187,16.2923729 L4.67772187,17.9166667 L3.75,17.9166667 L3.75,13.75 Z M4.67772187,15.5155367 L5.29620311,15.5155367 C5.3794602,15.5155367 5.45974382,15.5076899 5.53705398,15.4919962 C5.61436414,15.4763026 5.68374504,15.4498195 5.74519671,15.4125471 C5.80664837,15.3752746 5.85620616,15.3242702 5.89387008,15.2595339 C5.931534,15.1947976 5.95036597,15.1133867 5.95036597,15.0153013 C5.95036597,14.9093691 5.92558707,14.8240348 5.87602928,14.7592985 C5.82647149,14.6945621 5.76303751,14.6445386 5.68572736,14.6092279 C5.6084172,14.5739171 5.52218664,14.5513575 5.42703568,14.541549 C5.33188472,14.5317404 5.24069838,14.5268362 5.15347667,14.5268362 L4.67772187,14.5268362 L4.67772187,15.5155367 Z M7.69480024,13.75 L9.25884416,13.75 C9.47689844,13.75 9.68305886,13.7696171 9.8773254,13.8088512 C10.0715919,13.8480854 10.2410796,13.9157643 10.3857884,14.0118879 C10.5304971,14.1080116 10.6454712,14.2374843 10.7307106,14.400306 C10.81595,14.5631277 10.8585697,14.7681262 10.8585697,15.0153013 C10.8585697,15.258553 10.8189235,15.4625706 10.739631,15.627354 C10.6603385,15.7921375 10.5513114,15.9235719 10.4125496,16.0216573 C10.2737877,16.1197426 10.1092559,16.1893832 9.91895395,16.2305791 C9.72865203,16.271775 9.52249161,16.2923729 9.30047271,16.2923729 L8.62252211,16.2923729 L8.62252211,17.9166667 L7.69480024,17.9166667 L7.69480024,13.75 Z M8.62252211,15.5155367 L9.24100335,15.5155367 C9.32426045,15.5155367 9.40454407,15.5076899 9.48185422,15.4919962 C9.55916438,15.4763026 9.62854529,15.4498195 9.68999695,15.4125471 C9.75144861,15.3752746 9.8010064,15.3242702 9.83867033,15.2595339 C9.87633425,15.1947976 9.89516621,15.1133867 9.89516621,15.0153013 C9.89516621,14.9093691 9.87038731,14.8240348 9.82082952,14.7592985 C9.77127173,14.6945621 9.70783776,14.6445386 9.6305276,14.6092279 C9.55321744,14.5739171 9.46698689,14.5513575 9.37183593,14.541549 C9.27668496,14.5317404 9.18549863,14.5268362 9.09827691,14.5268362 L8.62252211,14.5268362 L8.62252211,15.5155367 Z M12.4543306,14.5621469 L11.2530497,14.5621469 L11.2530497,13.75 L14.5833333,13.75 L14.5833333,14.5621469 L13.3820525,14.5621469 L13.3820525,17.9166667 L12.4543306,17.9166667 L12.4543306,14.5621469 Z" id="形状结合" fill="#FFFFFF" fill-rule="nonzero"></path>
            </g>
        </g>
    </g>
</svg>