<?xml version="1.0" standalone="no"?><!DOCTYPE svg PUBLIC "-//W3C//DTD SVG 1.1//EN" "http://www.w3.org/Graphics/SVG/1.1/DTD/svg11.dtd"><svg t="1701244121199" class="icon" viewBox="0 0 1024 1024" version="1.1" xmlns="http://www.w3.org/2000/svg" p-id="9265" xmlns:xlink="http://www.w3.org/1999/xlink" width="200" height="200"><path d="M411.456 439.488C184.512 439.488 0 618.368 0 839.68c1.664 98.944 67.008 149.12 183.296 166.4l24.832 3.136 26.752 2.368 14.272 0.96 27.584 1.344 28.992 0.896 59.968 0.64h104.32l44.864-0.384 29.056-0.64 28.096-1.152 27.2-1.792c145.92-11.776 223.744-59.52 223.616-171.776 0-221.312-184.448-400.192-411.392-400.192z m0 82.24c182.016 0 329.088 142.656 329.088 317.952 0.064 56.768-39.36 81.024-147.328 89.728l-25.6 1.664-26.368 1.088-27.712 0.64-43.84 0.384H366.144l-58.752-0.64-27.456-0.832-38.4-2.112-24.64-2.24-22.464-2.816c-80.192-11.904-111.36-35.84-112.128-85.568 0-174.592 147.072-317.248 329.152-317.248z" fill="#999999" p-id="9266"></path><path d="M740.672 487.232c156.224 0 283.328 123.264 283.328 275.84 0.064 81.408-56.384 116.096-158.016 124.288l-18.304 1.152-18.816 0.768-19.392 0.512-9.408 0.128c3.648-12.032 5.504-25.472 5.504-40.512 0-11.712-0.576-23.232-1.664-34.688h4.352l18.176-0.448 17.28-0.704 16.832-1.152c67.008-5.376 88.384-18.56 88.32-49.28 0-110.656-92.928-200.768-208.192-200.768-22.08 0-43.328 3.264-63.296 9.408a382.144 382.144 0 0 0-73.472-50.176 286.912 286.912 0 0 1 136.768-34.368zM406.272 0a256 256 0 1 0-0.064 512.064A256 256 0 0 0 406.272 0z m0 85.376a170.688 170.688 0 1 1 0.128 341.376 170.688 170.688 0 0 1-0.128-341.376z" fill="#999999" p-id="9267"></path><path d="M740.672 214.208a174.08 174.08 0 1 0 0 348.096 174.08 174.08 0 0 0 0-348.16z m0 75.072a98.944 98.944 0 1 1 0.064 197.888 98.944 98.944 0 0 1 0-197.888z" fill="#999999" p-id="9268"></path></svg>