<?xml version="1.0" encoding="UTF-8"?>
<svg width="32px" height="32px" viewBox="0 0 32 32" version="1.1" xmlns="http://www.w3.org/2000/svg" xmlns:xlink="http://www.w3.org/1999/xlink">
    <title>数据表-24</title>
    <g id="全局搜索2.0-7月19日" stroke="none" stroke-width="1" fill="none" fill-rule="evenodd">
        <g id="数据表-24">
            <path d="M10.2555408,-2.76224082e-16 L21.7444592,4.14336123e-16 C25.3105342,-2.4074122e-16 26.6036791,0.371302445 27.9073828,1.06853082 C29.2110865,1.76575919 30.2342408,2.78891348 30.9314692,4.09261719 C31.6286976,5.39632089 32,6.68946584 32,10.2555408 L32,21.7444592 C32,25.3105342 31.6286976,26.6036791 30.9314692,27.9073828 C30.2342408,29.2110865 29.2110865,30.2342408 27.9073828,30.9314692 C26.6036791,31.6286976 25.3105342,32 21.7444592,32 L10.2555408,32 C6.68946584,32 5.39632089,31.6286976 4.09261719,30.9314692 C2.78891348,30.2342408 1.76575919,29.2110865 1.06853082,27.9073828 C0.371302445,26.6036791 8.02470732e-17,25.3105342 -1.38112041e-16,21.7444592 L2.76224082e-16,10.2555408 C-1.60494146e-16,6.68946584 0.371302445,5.39632089 1.06853082,4.09261719 C1.76575919,2.78891348 2.78891348,1.76575919 4.09261719,1.06853082 C5.39632089,0.371302445 6.68946584,1.60494146e-16 10.2555408,-2.76224082e-16 Z" id="矩形" fill="#F2F5ED"></path>
            <g id="编组" transform="translate(7.000000, 7.000000)" fill="#85A452">
                <rect id="矩形" fill-opacity="0.2" x="0" y="11.25" width="18" height="6.75" rx="2"></rect>
                <path d="M14.5227273,0 C15.2005313,0 15.75,0.503679656 15.75,1.125 L15.75,11.25 L16.8,11.25 C17.4627417,11.25 18,11.7536797 18,12.375 L18,16.875 C18,17.4963203 17.4627417,18 16.8,18 L1.2,18 C0.5372583,18 0,17.4963203 0,16.875 L0,12.375 C0,11.7536797 0.5372583,11.25 1.2,11.25 L2.25,11.25 L2.25,1.125 C2.25,0.503679656 2.79946872,0 3.47727273,0 L14.5227273,0 Z M16.875,12.375 L1.125,12.375 L1.125,16.875 L16.875,16.875 L16.875,12.375 Z M5.625,13.5 C6.24632034,13.5 6.75,14.0036797 6.75,14.625 C6.75,15.2463203 6.24632034,15.75 5.625,15.75 C5.00367966,15.75 4.5,15.2463203 4.5,14.625 C4.5,14.0036797 5.00367966,13.5 5.625,13.5 Z M9,13.5 C9.62132034,13.5 10.125,14.0036797 10.125,14.625 C10.125,15.2463203 9.62132034,15.75 9,15.75 C8.37867966,15.75 7.875,15.2463203 7.875,14.625 C7.875,14.0036797 8.37867966,13.5 9,13.5 Z M12.375,13.5 C12.9963203,13.5 13.5,14.0036797 13.5,14.625 C13.5,15.2463203 12.9963203,15.75 12.375,15.75 C11.7536797,15.75 11.25,15.2463203 11.25,14.625 C11.25,14.0036797 11.7536797,13.5 12.375,13.5 Z M14.625,1.125 L3.375,1.125 L3.375,11.25 L14.625,11.25 L14.625,1.125 Z M9.10121107,3.375 C9.26211073,3.375 9.4217128,3.40354671 9.5800173,3.46064014 C9.7383218,3.51773356 9.88235294,3.60077855 10.0121107,3.70977509 C10.1366782,3.82396194 10.2378893,3.9666955 10.3157439,4.13797578 C10.3935986,4.30925606 10.432526,4.50648789 10.432526,4.72967128 L10.432526,7.65700692 C10.432526,7.875 10.3935986,8.06444637 10.3157439,8.22534602 L10.8062284,8.62240484 L10.4013841,9.10510381 L9.93425606,8.72361592 C9.69550173,8.91565744 9.41782007,9.0116782 9.10121107,9.0116782 C8.94031142,9.0116782 8.78070934,8.98313149 8.62240484,8.92603806 C8.46410035,8.86894464 8.32266436,8.7833045 8.19809689,8.66911765 C8.0683391,8.56012111 7.96453287,8.42257785 7.8866782,8.25648789 C7.80882353,8.09039792 7.76989619,7.89057093 7.76989619,7.65700692 L7.76989619,4.72967128 C7.76989619,4.50648789 7.80882353,4.30925606 7.8866782,4.13797578 C7.96453287,3.9666955 8.0683391,3.82396194 8.19809689,3.70977509 C8.32266436,3.60077855 8.46410035,3.51773356 8.62240484,3.46064014 C8.78070934,3.40354671 8.94031142,3.375 9.10121107,3.375 Z M5.90138408,3.375 C6.09861592,3.375 6.27897924,3.41133218 6.44247405,3.48399654 C6.60596886,3.5566609 6.74740484,3.65268166 6.86678201,3.77205882 C7.10553633,4.02119377 7.22491349,4.3066609 7.22491349,4.62846021 L7.22491349,5.01773356 L6.43079585,5.01773356 L6.43079585,4.83866782 C6.43079585,4.65700692 6.38797578,4.5 6.30233564,4.36764706 C6.2166955,4.23529412 6.07266436,4.16911765 5.87024221,4.16911765 C5.76124567,4.16911765 5.67301038,4.18987889 5.60553633,4.23140138 C5.53806228,4.27292388 5.48356401,4.32482699 5.44204152,4.38711073 C5.40051903,4.45458478 5.37197232,4.53114187 5.35640138,4.61678201 C5.34083045,4.70242215 5.33304498,4.79195502 5.33304498,4.88538062 C5.33304498,4.99437716 5.33693772,5.08520761 5.34472318,5.15787197 C5.35250865,5.23053633 5.37197232,5.29541522 5.40311419,5.35250865 C5.43425606,5.40960208 5.47967128,5.45891003 5.53935986,5.50043253 C5.59904844,5.54195502 5.68079585,5.58347751 5.78460208,5.625 L6.39186851,5.86634948 C6.5683391,5.93382353 6.71107266,6.01297578 6.8200692,6.10380623 C6.92906574,6.19463668 7.01470588,6.29974048 7.07698962,6.41911765 C7.13408304,6.54368512 7.17301038,6.68512111 7.19377163,6.84342561 C7.21453287,7.0017301 7.22491349,7.18209343 7.22491349,7.38451557 C7.22491349,7.61807958 7.20155709,7.83477509 7.15484429,8.03460208 C7.10813149,8.23442907 7.03287197,8.40441176 6.92906574,8.54455017 C6.8200692,8.68987889 6.67733564,8.80406574 6.50086505,8.88711073 C6.32439446,8.97015571 6.10899654,9.0116782 5.85467128,9.0116782 C5.66262976,9.0116782 5.48356401,8.97794118 5.31747405,8.91046713 C5.15138408,8.84299308 5.00865052,8.74956747 4.88927336,8.63019031 C4.76989619,8.51081315 4.67517301,8.37197232 4.60510381,8.21366782 C4.5350346,8.05536332 4.5,7.88278547 4.5,7.69593426 L4.5,7.40008651 L5.29411765,7.40008651 L5.29411765,7.64922145 C5.29411765,7.79455017 5.33693772,7.92560554 5.42257785,8.04238754 C5.50821799,8.15916955 5.65224913,8.21756055 5.85467128,8.21756055 C5.98961938,8.21756055 6.09472318,8.19809689 6.1699827,8.15916955 C6.24524221,8.12024221 6.30363322,8.06444637 6.34515571,7.99178201 C6.3866782,7.91911765 6.41133218,7.83217993 6.41911765,7.73096886 C6.42690311,7.62975779 6.43079585,7.51686851 6.43079585,7.39230104 C6.43079585,7.24697232 6.42560554,7.12759516 6.41522491,7.03416955 C6.40484429,6.94074394 6.38408304,6.86548443 6.35294118,6.808391 C6.316609,6.75129758 6.26859862,6.70458478 6.20891003,6.6682526 C6.14922145,6.63192042 6.0700692,6.59299308 5.97145329,6.55147059 L5.40311419,6.31790657 C5.06055363,6.17776817 4.83088235,5.99221453 4.71410035,5.76124567 C4.59731834,5.53027682 4.53892734,5.24091696 4.53892734,4.89316609 C4.53892734,4.68555363 4.56747405,4.4883218 4.62456747,4.30147059 C4.6816609,4.11461938 4.76730104,3.95371972 4.88148789,3.81877163 C4.99048443,3.68382353 5.12932526,3.57612457 5.29801038,3.49567474 C5.4666955,3.41522491 5.66782007,3.375 5.90138408,3.375 Z M11.9273356,3.4217128 L11.9273356,8.17084775 L13.5,8.17084775 L13.5,8.9649654 L11.133218,8.9649654 L11.133218,3.4217128 L11.9273356,3.4217128 Z M9.10121107,4.16911765 C8.95588235,4.16911765 8.8300173,4.21453287 8.72361592,4.30536332 C8.61721453,4.39619377 8.56401384,4.53762976 8.56401384,4.72967128 L8.56401384,7.65700692 C8.56401384,7.84904844 8.61721453,7.99048443 8.72361592,8.08131488 C8.8300173,8.17214533 8.95588235,8.21756055 9.10121107,8.21756055 C9.17387543,8.21756055 9.23096886,8.20717993 9.27249135,8.18641869 L8.91435986,7.8983564 L9.31920415,7.41565744 L9.6384083,7.67257785 L9.6384083,4.72967128 C9.6384083,4.53762976 9.58520761,4.39619377 9.47880623,4.30536332 C9.37240484,4.21453287 9.24653979,4.16911765 9.10121107,4.16911765 Z" id="形状结合" fill-rule="nonzero"></path>
            </g>
        </g>
    </g>
</svg>