<?xml version="1.0" encoding="UTF-8"?>
<svg width="32px" height="32px" viewBox="0 0 32 32" version="1.1" xmlns="http://www.w3.org/2000/svg" xmlns:xlink="http://www.w3.org/1999/xlink">
    <title>报表</title>
    <g id="全局搜索2.0-7月19日" stroke="none" stroke-width="1" fill="none" fill-rule="evenodd">
        <g id="报表">
            <path d="M10.2555408,-2.76224082e-16 L21.7444592,4.14336123e-16 C25.3105342,-2.4074122e-16 26.6036791,0.371302445 27.9073828,1.06853082 C29.2110865,1.76575919 30.2342408,2.78891348 30.9314692,4.09261719 C31.6286976,5.39632089 32,6.68946584 32,10.2555408 L32,21.7444592 C32,25.3105342 31.6286976,26.6036791 30.9314692,27.9073828 C30.2342408,29.2110865 29.2110865,30.2342408 27.9073828,30.9314692 C26.6036791,31.6286976 25.3105342,32 21.7444592,32 L10.2555408,32 C6.68946584,32 5.39632089,31.6286976 4.09261719,30.9314692 C2.78891348,30.2342408 1.76575919,29.2110865 1.06853082,27.9073828 C0.371302445,26.6036791 8.02470732e-17,25.3105342 -1.38112041e-16,21.7444592 L2.76224082e-16,10.2555408 C-1.60494146e-16,6.68946584 0.371302445,5.39632089 1.06853082,4.09261719 C1.76575919,2.78891348 2.78891348,1.76575919 4.09261719,1.06853082 C5.39632089,0.371302445 6.68946584,1.60494146e-16 10.2555408,-2.76224082e-16 Z" id="矩形" fill="#E5F3F4"></path>
            <g id="报表-48" transform="translate(7.000000, 7.000000)" fill="#008899" fill-rule="nonzero">
                <path d="M16.875,0 L1.125,0 C0.503679656,0 0,0.503679656 0,1.125 L0,16.875 C0,17.4963203 0.503679656,18 1.125,18 L16.875,18 C17.4963203,18 18,17.4963203 18,16.875 L18,1.125 C18,0.503679656 17.4963203,0 16.875,0 Z M16.875,16.875 L1.125,16.875 L1.125,1.125 L16.875,1.125 L16.875,16.875 Z" id="形状"></path>
                <path d="M3.9375,12.375 C4.40349026,12.375 4.78125,12.7527597 4.78125,13.21875 L4.78125,14.90625 C4.78125,15.3722403 4.40349026,15.75 3.9375,15.75 C3.47150974,15.75 3.09375,15.3722403 3.09375,14.90625 L3.09375,13.21875 C3.09375,12.7527597 3.47150974,12.375 3.9375,12.375 Z M14.0625,7.875 C14.5284903,7.875 14.90625,8.25275974 14.90625,8.71875 L14.90625,14.90625 C14.90625,15.3722403 14.5284903,15.75 14.0625,15.75 C13.5965097,15.75 13.21875,15.3722403 13.21875,14.90625 L13.21875,8.71875 C13.21875,8.25275974 13.5965097,7.875 14.0625,7.875 Z M7.3125,9 C7.77849026,9 8.15625,9.37775974 8.15625,9.84375 L8.15625,14.90625 C8.15625,15.3722403 7.77849026,15.75 7.3125,15.75 C6.84650974,15.75 6.46875,15.3722403 6.46875,14.90625 L6.46875,9.84375 C6.46875,9.37775974 6.84650974,9 7.3125,9 Z M10.6875,11.25 C11.1534903,11.25 11.53125,11.6277597 11.53125,12.09375 L11.53125,14.90625 C11.53125,15.3722403 11.1534903,15.75 10.6875,15.75 C10.2215097,15.75 9.84375,15.3722403 9.84375,14.90625 L9.84375,12.09375 C9.84375,11.6277597 10.2215097,11.25 10.6875,11.25 Z M14.2358977,3.04347669 C14.4950129,3.10040168 14.7040761,3.29123886 14.7843352,3.54410169 C14.8645943,3.79696453 14.8038561,4.07343715 14.625,4.269375 L11.25,7.875 C11.102439,8.02510919 10.8977267,8.10494698 10.6875,8.094375 C10.5440083,8.09435269 10.4035042,8.05337233 10.2825,7.97625 L7.3125,6.001875 L4.15125,7.936875 C3.9281823,8.07553871 3.64808303,8.08466405 3.41646289,7.96081361 C3.18484274,7.83696317 3.03689033,7.59895276 3.02833789,7.33643861 C3.01978545,7.07392446 3.1519323,6.82678871 3.375,6.688125 L6.93,4.5 C7.17048765,4.3479705 7.47701235,4.3479705 7.7175,4.5 L10.575,6.4125 L13.528125,3.268125 C13.7069811,3.07218715 13.9767825,2.9865517 14.2358977,3.04347669 Z" id="形状结合"></path>
            </g>
        </g>
    </g>
</svg>