<?xml version="1.0" encoding="UTF-8"?>
<svg width="32px" height="32px" viewBox="0 0 32 32" version="1.1" xmlns="http://www.w3.org/2000/svg" xmlns:xlink="http://www.w3.org/1999/xlink">
    <title>业务规则</title>
    <g id="全局搜索2.0-7月19日" stroke="none" stroke-width="1" fill="none" fill-rule="evenodd">
        <g id="业务规则">
            <path d="M10.2555408,-2.76224082e-16 L21.7444592,4.14336123e-16 C25.3105342,-2.4074122e-16 26.6036791,0.371302445 27.9073828,1.06853082 C29.2110865,1.76575919 30.2342408,2.78891348 30.9314692,4.09261719 C31.6286976,5.39632089 32,6.68946584 32,10.2555408 L32,21.7444592 C32,25.3105342 31.6286976,26.6036791 30.9314692,27.9073828 C30.2342408,29.2110865 29.2110865,30.2342408 27.9073828,30.9314692 C26.6036791,31.6286976 25.3105342,32 21.7444592,32 L10.2555408,32 C6.68946584,32 5.39632089,31.6286976 4.09261719,30.9314692 C2.78891348,30.2342408 1.76575919,29.2110865 1.06853082,27.9073828 C0.371302445,26.6036791 8.02470732e-17,25.3105342 -1.38112041e-16,21.7444592 L2.76224082e-16,10.2555408 C-1.60494146e-16,6.68946584 0.371302445,5.39632089 1.06853082,4.09261719 C1.76575919,2.78891348 2.78891348,1.76575919 4.09261719,1.06853082 C5.39632089,0.371302445 6.68946584,1.60494146e-16 10.2555408,-2.76224082e-16 Z" id="矩形" fill="#F8F1ED"></path>
            <g id="编组-5" transform="translate(7.000000, 7.000000)" fill="#BF794E">
                <rect id="矩形" fill-opacity="0.2" x="0.5625" y="11.25" width="16.875" height="6.75" rx="2"></rect>
                <path d="M14.625,0 C15.2463203,0 15.75,0.503679656 15.75,1.125 L15.75,11.25 L16.875,11.25 C17.4963203,11.25 18,11.7536797 18,12.375 L18,16.875 C18,17.4963203 17.4963203,18 16.875,18 L1.125,18 C0.503679656,18 0,17.4963203 0,16.875 L0,12.375 C0,11.7536797 0.503679656,11.25 1.125,11.25 L2.25,11.25 L2.25,1.125 C2.25,0.503679656 2.75367966,0 3.375,0 L14.625,0 Z M12.9375,14.625 L11.8125,14.625 L11.8125,12.375 L10.6875,12.375 L10.6875,14.625 L9.5625,14.625 L9.5625,12.375 L8.4375,12.375 L8.4375,15.75 L7.3125,15.75 L7.3125,12.375 L6.1875,12.375 L6.1875,14.625 L5.0625,14.625 L5.0625,12.375 L3.375,12.375 L3.375,14.625 L2.25,14.625 L2.25,12.375 L1.125,12.375 L1.125,16.875 L16.875,16.875 L16.875,12.375 L15.75,12.375 L15.75,15.75 L14.625,15.75 L14.625,12.375 L12.9375,12.375 L12.9375,14.625 Z M14.625,1.125 L3.375,1.125 L3.375,11.25 L14.625,11.25 L14.625,1.125 Z M12.375,7.3125 C12.6856602,7.3125 12.9375,7.56433983 12.9375,7.875 C12.9375,8.18566017 12.6856602,8.4375 12.375,8.4375 L5.625,8.4375 C5.31433983,8.4375 5.0625,8.18566017 5.0625,7.875 C5.0625,7.56433983 5.31433983,7.3125 5.625,7.3125 L12.375,7.3125 Z M7.4375,2.25 C7.98978475,2.25 8.4375,2.69771525 8.4375,3.25 L8.4375,4.625 C8.4375,5.17728475 7.98978475,5.625 7.4375,5.625 L6.0625,5.625 C5.51021525,5.625 5.0625,5.17728475 5.0625,4.625 L5.0625,3.25 C5.0625,2.69771525 5.51021525,2.25 6.0625,2.25 L7.4375,2.25 Z M12.375,4.5 C12.6856602,4.5 12.9375,4.75183983 12.9375,5.0625 C12.9375,5.37316017 12.6856602,5.625 12.375,5.625 L10.125,5.625 C9.81433983,5.625 9.5625,5.37316017 9.5625,5.0625 C9.5625,4.75183983 9.81433983,4.5 10.125,4.5 L12.375,4.5 Z M12.375,2.25 C12.6856602,2.25 12.9375,2.50183983 12.9375,2.8125 C12.9375,3.12316017 12.6856602,3.375 12.375,3.375 L10.125,3.375 C9.81433983,3.375 9.5625,3.12316017 9.5625,2.8125 C9.5625,2.50183983 9.81433983,2.25 10.125,2.25 L12.375,2.25 Z" id="形状结合" fill-rule="nonzero"></path>
            </g>
        </g>
    </g>
</svg>