<?xml version="1.0" standalone="no"?><!DOCTYPE svg PUBLIC "-//W3C//DTD SVG 1.1//EN" "http://www.w3.org/Graphics/SVG/1.1/DTD/svg11.dtd"><svg t="1701243954990" class="icon" viewBox="0 0 1024 1024" version="1.1" xmlns="http://www.w3.org/2000/svg" p-id="9124" xmlns:xlink="http://www.w3.org/1999/xlink" width="200" height="200"><path d="M887.464533 34.141866V481.28192a170.741329 170.741329 0 0 1 0 334.507093v174.069121a34.109868 34.109868 0 0 1-68.283732 0l-0.063996-174.069121a170.741329 170.741329 0 0 1 0-334.507093V34.141866a34.109868 34.109868 0 0 1 68.347728 0zM204.819199 34.141866V481.28192a170.741329 170.741329 0 0 1 0 334.507093v174.069121a34.109868 34.109868 0 0 1-68.283732 0v-174.069121a170.741329 170.741329 0 0 1 0-334.507093V34.141866a34.109868 34.109868 0 0 1 68.283732 0z m341.290669 0v174.069121a170.741329 170.741329 0 0 1 0 334.507093v447.140054a34.109868 34.109868 0 0 1-68.219736 0V542.71808a170.741329 170.741329 0 0 1 0-334.507093V34.141866a34.109868 34.109868 0 0 1 68.219736 0z m-375.400537 511.968002a102.3936 102.3936 0 1 0 0 204.787201 102.3936 102.3936 0 0 0 0-204.787201z m682.581338 0a102.3936 102.3936 0 1 0 0 204.787201 102.3936 102.3936 0 0 0 0-204.787201zM512 273.102931a102.3936 102.3936 0 1 0 0 204.787201 102.3936 102.3936 0 0 0 0-204.787201z" fill="#999999" p-id="9125"></path></svg>