<?xml version="1.0" encoding="UTF-8"?>
<svg width="20px" height="20px" viewBox="0 0 20 20" version="1.1" xmlns="http://www.w3.org/2000/svg" xmlns:xlink="http://www.w3.org/1999/xlink">
    <title>索引</title>
    <g id="light" stroke="none" stroke-width="1" fill="none" fill-rule="evenodd">
        <g id="er图" transform="translate(-1171.000000, -402.000000)" fill="#D69840" fill-rule="nonzero">
            <g id="索引" transform="translate(1171.000000, 402.000000)">
                <path d="M12.7713302,0.74762158 C15.4189034,2.28670012 16.3260317,5.69536663 14.7974637,8.36111294 C13.893512,9.93750898 12.3082262,10.9413678 10.5616882,11.1199761 L10.3676054,11.1347432 L6.38886249,18.0708253 L2.1813557,19.205955 L1,14.5599601 L2.64556925,14.1555505 L2.19925714,12.4788292 L3.87972908,12.0255568 L3.42936471,10.3336086 L5.10983665,9.88033622 L4.75274322,8.53886705 L5.04001803,8.03776465 L4.95519623,7.86183711 C4.27284958,6.33421908 4.30027902,4.56215721 5.07386439,3.03910939 L5.20969661,2.78765043 C6.73829209,0.121919965 10.123741,-0.791429472 12.7713302,0.74762158 Z M12.1562746,1.82023494 C10.0970386,0.623195238 7.46391167,1.33357813 6.27500408,3.40692405 C5.49744208,4.76296205 5.5121993,6.41050214 6.27472433,7.74297783 L6.45178167,8.05237698 L6.07227433,8.71219297 L6.61629084,10.7560527 L4.93581889,11.2093251 L5.38618327,12.9012734 L3.70571132,13.3545457 L4.15979617,15.0604742 L2.50016174,15.4668473 L3.06343393,17.6849373 L5.57893014,17.0062897 L9.6494138,9.91052281 L10.0039703,9.910109 C11.530898,9.90832686 12.9547918,9.0974833 13.7321562,7.74183934 C14.9210425,5.66848109 14.2154983,3.01729603 12.1562746,1.82023494 Z M18.0601607,4.1865921 C18.1833577,4.12752983 18.3310283,4.18000617 18.3894866,4.30362158 C19.2754397,6.17705058 19.1954538,8.36144318 18.1605842,10.1662183 C17.1970008,11.8466039 15.5279708,12.9789361 13.6132981,13.2551948 L13.5430273,13.2626107 L9.75193482,19.8760107 C9.69523259,19.9748798 9.58063585,20.0195664 9.47563131,19.9919652 L9.41431954,19.9665851 L8.58834209,19.4864363 C8.47094942,19.4181948 8.43071336,19.2677758 8.49832393,19.1499113 L12.6030766,11.994157 C12.6437558,11.9232427 12.7168603,11.8770984 12.7982971,11.8709323 L13.2247491,11.8387286 C14.7643496,11.6812825 16.1313225,10.7927633 16.90693,9.44015873 C17.7036915,8.05066301 17.7651246,6.37093615 17.0826627,4.92780798 C17.024554,4.80493184 17.076577,4.65813511 17.1990372,4.59942605 L18.0601607,4.1865921 Z M8.58181497,9.78424257 C8.80990167,9.91683317 8.88805017,10.2104876 8.75636386,10.4401392 L6.84885061,13.7667074 C6.7171643,13.996359 6.4255101,14.0750435 6.19742204,13.9424552 C5.96933534,13.8098646 5.89118683,13.5162102 6.02287314,13.2865586 L7.9303864,9.9599904 C8.06207271,9.73033878 8.35372691,9.65165433 8.58181497,9.78424257 Z M11.2336904,3.42915652 C12.1162148,3.9421827 12.4185909,5.07840487 11.9090683,5.966987 C11.3995365,6.85556382 10.2710535,7.16001363 9.38852378,6.64699661 C8.50599935,6.13397043 8.20362325,4.99774826 8.7131459,4.10916614 C9.22267773,3.22058931 10.3511607,2.9161395 11.2336904,3.42915652 Z" id="形状"></path>
            </g>
        </g>
    </g>
</svg>