<?xml version="1.0" encoding="UTF-8"?>
<svg width="32px" height="32px" viewBox="0 0 32 32" version="1.1" xmlns="http://www.w3.org/2000/svg" xmlns:xlink="http://www.w3.org/1999/xlink">
    <title>数据表-24 4</title>
    <g id="全局搜索2.0-7月19日" stroke="none" stroke-width="1" fill="none" fill-rule="evenodd">
        <g id="数据表-24">
            <path d="M10.2555408,-2.76224082e-16 L21.7444592,4.14336123e-16 C25.3105342,-2.4074122e-16 26.6036791,0.371302445 27.9073828,1.06853082 C29.2110865,1.76575919 30.2342408,2.78891348 30.9314692,4.09261719 C31.6286976,5.39632089 32,6.68946584 32,10.2555408 L32,21.7444592 C32,25.3105342 31.6286976,26.6036791 30.9314692,27.9073828 C30.2342408,29.2110865 29.2110865,30.2342408 27.9073828,30.9314692 C26.6036791,31.6286976 25.3105342,32 21.7444592,32 L10.2555408,32 C6.68946584,32 5.39632089,31.6286976 4.09261719,30.9314692 C2.78891348,30.2342408 1.76575919,29.2110865 1.06853082,27.9073828 C0.371302445,26.6036791 8.02470732e-17,25.3105342 -1.38112041e-16,21.7444592 L2.76224082e-16,10.2555408 C-1.60494146e-16,6.68946584 0.371302445,5.39632089 1.06853082,4.09261719 C1.76575919,2.78891348 2.78891348,1.76575919 4.09261719,1.06853082 C5.39632089,0.371302445 6.68946584,1.60494146e-16 10.2555408,-2.76224082e-16 Z" id="矩形" fill="#E5F4FB"></path>
            <path d="M23.875,7 L8.125,7 C7.50367966,7 7,7.50367966 7,8.125 L7,23.875 C7,24.4963203 7.50367966,25 8.125,25 L23.875,25 C24.4963203,25 25,24.4963203 25,23.875 L25,8.125 C25,7.50367966 24.4963203,7 23.875,7 Z M12.625,23.875 L8.125,23.875 L8.125,20.5 L12.625,20.5 L12.625,23.875 Z M12.625,19.375 L8.125,19.375 L8.125,16.5625 L12.625,16.5625 L12.625,19.375 Z M12.625,15.4375 L8.125,15.4375 L8.125,12.0625 L12.625,12.0625 L12.625,15.4375 Z M18.25,23.875 L13.75,23.875 L13.75,20.5 L18.25,20.5 L18.25,23.875 Z M18.25,19.375 L13.75,19.375 L13.75,16.5625 L18.25,16.5625 L18.25,19.375 Z M18.25,15.4375 L13.75,15.4375 L13.75,12.0625 L18.25,12.0625 L18.25,15.4375 Z M23.875,23.875 L19.375,23.875 L19.375,20.5 L23.875,20.5 L23.875,23.875 Z M23.875,19.375 L19.375,19.375 L19.375,16.5625 L23.875,16.5625 L23.875,19.375 Z M23.875,15.4375 L19.375,15.4375 L19.375,12.0625 L23.875,12.0625 L23.875,15.4375 Z" id="表" fill="#0095D9" fill-rule="nonzero"></path>
        </g>
    </g>
</svg>