<?xml version="1.0" encoding="UTF-8"?>
<svg width="32px" height="32px" viewBox="0 0 32 32" version="1.1" xmlns="http://www.w3.org/2000/svg" xmlns:xlink="http://www.w3.org/1999/xlink">
    <title>TXT</title>
    <g id="全局搜索2.0-7月19日" stroke="none" stroke-width="1" fill="none" fill-rule="evenodd">
        <g id="TXT">
            <path d="M10.2555408,-2.76224082e-16 L21.7444592,4.14336123e-16 C25.3105342,-2.4074122e-16 26.6036791,0.371302445 27.9073828,1.06853082 C29.2110865,1.76575919 30.2342408,2.78891348 30.9314692,4.09261719 C31.6286976,5.39632089 32,6.68946584 32,10.2555408 L32,21.7444592 C32,25.3105342 31.6286976,26.6036791 30.9314692,27.9073828 C30.2342408,29.2110865 29.2110865,30.2342408 27.9073828,30.9314692 C26.6036791,31.6286976 25.3105342,32 21.7444592,32 L10.2555408,32 C6.68946584,32 5.39632089,31.6286976 4.09261719,30.9314692 C2.78891348,30.2342408 1.76575919,29.2110865 1.06853082,27.9073828 C0.371302445,26.6036791 8.02470732e-17,25.3105342 -1.38112041e-16,21.7444592 L2.76224082e-16,10.2555408 C-1.60494146e-16,6.68946584 0.371302445,5.39632089 1.06853082,4.09261719 C1.76575919,2.78891348 2.78891348,1.76575919 4.09261719,1.06853082 C5.39632089,0.371302445 6.68946584,1.60494146e-16 10.2555408,-2.76224082e-16 Z" id="矩形" fill="#F5F7FA"></path>
            <g id="编组-17备份-10" transform="translate(7.000000, 6.000000)">
                <path d="M16.6666667,0 C17.5871412,0 18.3333333,0.746192084 18.3333333,1.66666667 L18.3333333,18.3333333 C18.3333333,19.2538079 17.5871412,20 16.6666667,20 L1.66666667,20 C0.746192084,20 0,19.2538079 0,18.3333333 L0,1.66666667 C0,0.746192084 0.746192084,0 1.66666667,0 L16.6666667,0 Z M16.6666667,1.25 L1.66666667,1.25 C1.43654802,1.25 1.25,1.43654802 1.25,1.66666667 L1.25,18.3333333 C1.25,18.563452 1.43654802,18.75 1.66666667,18.75 L16.6666667,18.75 C16.8967853,18.75 17.0833333,18.563452 17.0833333,18.3333333 L17.0833333,1.66666667 C17.0833333,1.43654802 16.8967853,1.25 16.6666667,1.25 Z" id="矩形" fill="#C6CAD4" fill-rule="nonzero"></path>
                <path d="M4.79166667,3.33333333 L6.04166667,3.33333333 C6.38684464,3.33333333 6.66666667,3.61315536 6.66666667,3.95833333 C6.66666667,4.3035113 6.38684464,4.58333333 6.04166667,4.58333333 L4.79166667,4.58333333 C4.4464887,4.58333333 4.16666667,4.3035113 4.16666667,3.95833333 C4.16666667,3.61315536 4.4464887,3.33333333 4.79166667,3.33333333 Z M8.54166667,3.33333333 L13.5416667,3.33333333 C13.8868446,3.33333333 14.1666667,3.61315536 14.1666667,3.95833333 C14.1666667,4.3035113 13.8868446,4.58333333 13.5416667,4.58333333 L8.54166667,4.58333333 C8.1964887,4.58333333 7.91666667,4.3035113 7.91666667,3.95833333 C7.91666667,3.61315536 8.1964887,3.33333333 8.54166667,3.33333333 Z" id="形状结合" fill="#C6CAD4"></path>
                <path d="M4.79166667,5.83333333 L13.5416667,5.83333333 C13.8868446,5.83333333 14.1666667,6.11315536 14.1666667,6.45833333 C14.1666667,6.8035113 13.8868446,7.08333333 13.5416667,7.08333333 L4.79166667,7.08333333 C4.4464887,7.08333333 4.16666667,6.8035113 4.16666667,6.45833333 C4.16666667,6.11315536 4.4464887,5.83333333 4.79166667,5.83333333 Z" id="矩形备份-29" fill="#C6CAD4"></path>
                <path d="M4.79166667,8.33333333 L13.5416667,8.33333333 C13.8868446,8.33333333 14.1666667,8.61315536 14.1666667,8.95833333 C14.1666667,9.3035113 13.8868446,9.58333333 13.5416667,9.58333333 L4.79166667,9.58333333 C4.4464887,9.58333333 4.16666667,9.3035113 4.16666667,8.95833333 C4.16666667,8.61315536 4.4464887,8.33333333 4.79166667,8.33333333 Z" id="矩形备份-37" fill="#C6CAD4"></path>
                <path d="M0,11.6666667 L18.3333333,11.6666667 L18.3333333,18.3333333 C18.3333333,19.2538079 17.5871412,20 16.6666667,20 L1.66666667,20 C0.746192084,20 0,19.2538079 0,18.3333333 L0,11.6666667 Z" id="矩形" fill="#6179AA"></path>
                <g id="TXT" transform="translate(3.432000, 13.752000)" fill="#FFFFFF" fill-rule="nonzero">
                    <polygon id="路径" points="1.212 0.828 0 0.828 0 0 3.36 0 3.36 0.828 2.148 0.828 2.148 4.248 1.212 4.248"></polygon>
                    <polygon id="路径" points="4.89 2.028 3.486 0 4.662 0 5.568 1.488 6.438 0 7.572 0 6.198 2.01 7.734 4.248 6.558 4.248 5.52 2.538 4.512 4.248 3.402 4.248"></polygon>
                    <polygon id="路径" points="8.988 0.828 7.776 0.828 7.776 0 11.136 0 11.136 0.828 9.924 0.828 9.924 4.248 8.988 4.248"></polygon>
                </g>
            </g>
        </g>
    </g>
</svg>