<?xml version="1.0" encoding="UTF-8"?>
<svg width="32px" height="32px" viewBox="0 0 32 32" version="1.1" xmlns="http://www.w3.org/2000/svg" xmlns:xlink="http://www.w3.org/1999/xlink">
    <title>music备份</title>
    <g id="全局搜索2.0-7月19日" stroke="none" stroke-width="1" fill="none" fill-rule="evenodd">
        <g id="music备份">
            <path d="M10.2555408,-2.76224082e-16 L21.7444592,4.14336123e-16 C25.3105342,-2.4074122e-16 26.6036791,0.371302445 27.9073828,1.06853082 C29.2110865,1.76575919 30.2342408,2.78891348 30.9314692,4.09261719 C31.6286976,5.39632089 32,6.68946584 32,10.2555408 L32,21.7444592 C32,25.3105342 31.6286976,26.6036791 30.9314692,27.9073828 C30.2342408,29.2110865 29.2110865,30.2342408 27.9073828,30.9314692 C26.6036791,31.6286976 25.3105342,32 21.7444592,32 L10.2555408,32 C6.68946584,32 5.39632089,31.6286976 4.09261719,30.9314692 C2.78891348,30.2342408 1.76575919,29.2110865 1.06853082,27.9073828 C0.371302445,26.6036791 8.02470732e-17,25.3105342 -1.38112041e-16,21.7444592 L2.76224082e-16,10.2555408 C-1.60494146e-16,6.68946584 0.371302445,5.39632089 1.06853082,4.09261719 C1.76575919,2.78891348 2.78891348,1.76575919 4.09261719,1.06853082 C5.39632089,0.371302445 6.68946584,1.60494146e-16 10.2555408,-2.76224082e-16 Z" id="矩形" fill="#F5F7FA"></path>
            <path d="M24.3333333,7 C25.2538079,7 26,7.74619208 26,8.66666667 L26,23.6666667 C26,24.5871412 25.2538079,25.3333333 24.3333333,25.3333333 L7.66666667,25.3333333 C6.74619208,25.3333333 6,24.5871412 6,23.6666667 L6,8.66666667 C6,7.74619208 6.74619208,7 7.66666667,7 L24.3333333,7 Z M24.75,12.833 L7.25,12.833 L7.25,23.6666667 C7.25,23.8967853 7.43654802,24.0833333 7.66666667,24.0833333 L24.3333333,24.0833333 C24.563452,24.0833333 24.75,23.8967853 24.75,23.6666667 L24.75,12.833 Z M14.7232018,15.3333333 C14.8693814,15.3333333 15.0128128,15.3730615 15.1381607,15.4482703 L18.5249685,17.480355 C18.9069277,17.7095305 19.0307833,18.2049529 18.8016078,18.5869121 C18.7334961,18.7004316 18.638488,18.7954397 18.5249685,18.8635514 L15.1381607,20.895636 C14.7562016,21.1248115 14.2607791,21.0009559 14.0316036,20.6189968 C13.9563948,20.4936488 13.9166667,20.3502175 13.9166667,20.2040378 L13.9166667,16.1398685 C13.9166667,15.6944314 14.2777648,15.3333333 14.7232018,15.3333333 Z M7.66666667,8.25 C7.43654802,8.25 7.25,8.43654802 7.25,8.66666667 L7.25,11.5833333 L10.5833333,11.5833333 L8.91666667,8.25 L7.66666667,8.25 Z M23.0833333,11.5833333 L24.75,11.5833333 L24.75,8.66666667 C24.75,8.61470984 24.7404902,8.56497415 24.7231162,8.51910526 C24.7193365,8.50911966 24.7151449,8.49923402 24.7105915,8.48955214 L24.7231162,8.51910526 C24.714095,8.49528853 24.7029536,8.47251431 24.6899224,8.45101297 L24.7105915,8.48955214 C24.7012061,8.46959552 24.6902837,8.45050465 24.6779769,8.43243209 L24.6899224,8.45101297 C24.6773029,8.43019091 24.662911,8.41056257 24.646956,8.39233718 L24.6779769,8.43243209 C24.6628167,8.4101691 24.6455556,8.38945138 24.626479,8.37056407 L24.646956,8.39233718 C24.631369,8.37453204 24.6142901,8.35806589 24.5959144,8.34313381 L24.626479,8.37056407 C24.6089736,8.35323238 24.5899393,8.33744201 24.5695966,8.32341328 L24.5959144,8.34313381 C24.576684,8.32750722 24.5560335,8.31356072 24.5341863,8.30151789 L24.5695966,8.32341328 C24.5476142,8.30825383 24.5241038,8.29515146 24.4993436,8.28438417 L24.5341863,8.30151789 C24.5146611,8.29075498 24.4941801,8.28151261 24.4729029,8.27395037 L24.4993436,8.28438417 C24.4774473,8.27486232 24.4545735,8.26716661 24.4309145,8.26148931 L24.4729029,8.27395037 C24.4483055,8.26520808 24.422644,8.2587112 24.3961652,8.25470632 L24.4309145,8.26148931 C24.3996134,8.25397819 24.366938,8.25 24.3333333,8.25 L21.4166667,8.25 L23.0833333,11.5833333 Z M17.6666667,8.25 L19.3333333,11.5833333 L21.8333333,11.5833333 L20.1666667,8.25 L17.6666667,8.25 Z M13.9166667,8.25 L15.5833333,11.5833333 L18.0833333,11.5833333 L16.4166667,8.25 L13.9166667,8.25 Z M10.1666667,8.25 L11.8333333,11.5833333 L14.3333333,11.5833333 L12.6666667,8.25 L10.1666667,8.25 Z" id="形状结合" fill="#7C89A8" fill-rule="nonzero"></path>
        </g>
    </g>
</svg>