<?xml version="1.0" encoding="UTF-8"?>
<svg width="32px" height="32px" viewBox="0 0 32 32" version="1.1" xmlns="http://www.w3.org/2000/svg" xmlns:xlink="http://www.w3.org/1999/xlink">
    <title>视图</title>
    <g id="全局搜索2.0-7月19日" stroke="none" stroke-width="1" fill="none" fill-rule="evenodd">
        <g id="视图">
            <path d="M10.2555408,-2.76224082e-16 L21.7444592,4.14336123e-16 C25.3105342,-2.4074122e-16 26.6036791,0.371302445 27.9073828,1.06853082 C29.2110865,1.76575919 30.2342408,2.78891348 30.9314692,4.09261719 C31.6286976,5.39632089 32,6.68946584 32,10.2555408 L32,21.7444592 C32,25.3105342 31.6286976,26.6036791 30.9314692,27.9073828 C30.2342408,29.2110865 29.2110865,30.2342408 27.9073828,30.9314692 C26.6036791,31.6286976 25.3105342,32 21.7444592,32 L10.2555408,32 C6.68946584,32 5.39632089,31.6286976 4.09261719,30.9314692 C2.78891348,30.2342408 1.76575919,29.2110865 1.06853082,27.9073828 C0.371302445,26.6036791 8.02470732e-17,25.3105342 -1.38112041e-16,21.7444592 L2.76224082e-16,10.2555408 C-1.60494146e-16,6.68946584 0.371302445,5.39632089 1.06853082,4.09261719 C1.76575919,2.78891348 2.78891348,1.76575919 4.09261719,1.06853082 C5.39632089,0.371302445 6.68946584,1.60494146e-16 10.2555408,-2.76224082e-16 Z" id="矩形" fill="#EDEEF9"></path>
            <path d="M23.875,7 C24.4963203,7 25,7.50367966 25,8.125 L25,23.875 C25,24.4963203 24.4963203,25 23.875,25 L8.125,25 C7.50367966,25 7,24.4963203 7,23.875 L7,8.125 C7,7.50367966 7.50367966,7 8.125,7 Z M23.875,16.5625 L8.125,16.5625 L8.125,23.875 L23.875,23.875 L23.875,16.5625 Z M13.5727664,17.1250868 L13.6617668,17.1338028 C13.8096699,17.160344 13.9408546,17.2452564 14.0260676,17.369605 C14.0917007,17.464096 14.1270204,17.5764918 14.1272918,17.6917247 C14.126989,17.8766461 14.0366749,18.0497199 13.8854784,18.155125 L12.7326471,18.9519474 C12.6953137,18.9275426 12.6572448,18.904335 12.6184987,18.8823553 L12.521,18.831 L12.6161561,18.8839775 L12.7270235,18.9575986 C12.8609703,19.0392996 12.9838342,19.1380742 13.0925554,19.2514622 C13.3206518,19.480463 13.4970939,19.7560641 13.6099236,20.0595871 C14.177503,19.8545561 14.7730383,19.738294 15.3757239,19.7148625 C16.0193231,19.7416115 16.6557167,19.8615221 17.2652426,20.0708895 C17.4783748,19.48327 17.92425,19.0106505 18.4968039,18.7654571 C19.0575446,18.5267942 19.6906163,18.5267942 20.251357,18.7654571 C20.369291,18.8110197 20.4808241,18.8718097 20.5831474,18.9462962 L20.588771,18.9575986 L22.2364763,17.7934468 C22.35925,17.7064212 22.5115718,17.6723839 22.6594749,17.6989251 C22.807378,17.7254662 22.9385628,17.8103786 23.0237758,17.9347273 C23.0894088,18.0292183 23.1247285,18.141614 23.125,18.256847 C23.1246972,18.4417684 23.0343831,18.6148422 22.8831866,18.7202473 L21.3873176,19.7996308 C21.8056697,20.5881067 21.7225675,21.5502356 21.175284,22.254484 C20.6280005,22.9587324 19.7192582,23.2729162 18.8566459,23.0561177 C17.9940335,22.8393193 17.3394593,22.1322308 17.1865126,21.2519951 C16.6184764,21.0217476 16.015719,20.8899029 15.4038417,20.8620607 C14.822808,20.8852199 14.2509552,21.0154773 13.7167714,21.2463439 C13.5345746,22.31468 12.6234046,23.1026838 11.5450161,23.124535 C10.4666276,23.1463862 9.52458851,22.3959337 9.29968486,21.3358465 C9.07478122,20.2757593 9.63032371,19.2044535 10.6238092,18.7824107 C10.8408067,18.6858123 11.073054,18.6284215 11.3098845,18.6128741 C11.3355815,18.58034 11.3658979,18.5517786 11.3998616,18.5281057 L13.2387682,17.2283245 C13.3615419,17.1412989 13.5138637,17.1072617 13.6617668,17.1338028 Z M11.5010858,19.7148625 C10.8799237,19.7148625 10.3763723,20.2208902 10.3763723,20.845107 C10.3763723,21.4693239 10.8799237,21.9753516 11.5010858,21.9753516 C12.1222479,21.9753516 12.6257993,21.4693239 12.6257993,20.845107 C12.6257993,20.2208902 12.1222479,19.7148625 11.5010858,19.7148625 Z M19.3740804,19.7148625 C18.7529183,19.7148625 18.2493669,20.2208902 18.2493669,20.845107 L18.2559666,20.9682596 C18.3170298,21.5345452 18.7943291,21.9753516 19.3740804,21.9753516 C19.9952425,21.9753516 20.4987939,21.4693239 20.4987939,20.845107 C20.4987939,20.2208902 19.9952425,19.7148625 19.3740804,19.7148625 Z M18.25,12.0625 L13.75,12.0625 L13.75,15.4375 L18.25,15.4375 L18.25,12.0625 Z M12.625,12.0625 L8.125,12.0625 L8.125,15.4375 L12.625,15.4375 L12.625,12.0625 Z M23.875,12.0625 L19.375,12.0625 L19.375,15.4375 L23.875,15.4375 L23.875,12.0625 Z" id="视图-48" fill="#4B5CC4" fill-rule="nonzero"></path>
        </g>
    </g>
</svg>