<?xml version="1.0" encoding="UTF-8"?>
<svg width="32px" height="32px" viewBox="0 0 32 32" version="1.1" xmlns="http://www.w3.org/2000/svg" xmlns:xlink="http://www.w3.org/1999/xlink">
    <title>word</title>
    <g id="全局搜索2.0-7月19日" stroke="none" stroke-width="1" fill="none" fill-rule="evenodd">
        <g id="word">
            <path d="M10.2555408,-2.76224082e-16 L21.7444592,4.14336123e-16 C25.3105342,-2.4074122e-16 26.6036791,0.371302445 27.9073828,1.06853082 C29.2110865,1.76575919 30.2342408,2.78891348 30.9314692,4.09261719 C31.6286976,5.39632089 32,6.68946584 32,10.2555408 L32,21.7444592 C32,25.3105342 31.6286976,26.6036791 30.9314692,27.9073828 C30.2342408,29.2110865 29.2110865,30.2342408 27.9073828,30.9314692 C26.6036791,31.6286976 25.3105342,32 21.7444592,32 L10.2555408,32 C6.68946584,32 5.39632089,31.6286976 4.09261719,30.9314692 C2.78891348,30.2342408 1.76575919,29.2110865 1.06853082,27.9073828 C0.371302445,26.6036791 8.02470732e-17,25.3105342 -1.38112041e-16,21.7444592 L2.76224082e-16,10.2555408 C-1.60494146e-16,6.68946584 0.371302445,5.39632089 1.06853082,4.09261719 C1.76575919,2.78891348 2.78891348,1.76575919 4.09261719,1.06853082 C5.39632089,0.371302445 6.68946584,1.60494146e-16 10.2555408,-2.76224082e-16 Z" id="矩形" fill="#F5F7FA"></path>
            <g id="编组-17备份-11" transform="translate(7.000000, 6.000000)">
                <path d="M16.6666667,0 C17.5871412,0 18.3333333,0.746192084 18.3333333,1.66666667 L18.3333333,18.3333333 C18.3333333,19.2538079 17.5871412,20 16.6666667,20 L1.66666667,20 C0.746192084,20 0,19.2538079 0,18.3333333 L0,1.66666667 C0,0.746192084 0.746192084,0 1.66666667,0 L16.6666667,0 Z M16.6666667,1.25 L1.66666667,1.25 C1.43654802,1.25 1.25,1.43654802 1.25,1.66666667 L1.25,18.3333333 C1.25,18.563452 1.43654802,18.75 1.66666667,18.75 L16.6666667,18.75 C16.8967853,18.75 17.0833333,18.563452 17.0833333,18.3333333 L17.0833333,1.66666667 C17.0833333,1.43654802 16.8967853,1.25 16.6666667,1.25 Z M6.875,8.33333333 C7.22017797,8.33333333 7.5,8.61315536 7.5,8.95833333 C7.5,9.3035113 7.22017797,9.58333333 6.875,9.58333333 L3.95833333,9.58333333 C3.61315536,9.58333333 3.33333333,9.3035113 3.33333333,8.95833333 C3.33333333,8.61315536 3.61315536,8.33333333 3.95833333,8.33333333 L6.875,8.33333333 Z M14.375,5.83333333 C14.720178,5.83333333 15,6.11315536 15,6.45833333 C15,6.8035113 14.720178,7.08333333 14.375,7.08333333 L3.95833333,7.08333333 C3.61315536,7.08333333 3.33333333,6.8035113 3.33333333,6.45833333 C3.33333333,6.11315536 3.61315536,5.83333333 3.95833333,5.83333333 L14.375,5.83333333 Z M10.2083333,3.33333333 C10.5535113,3.33333333 10.8333333,3.61315536 10.8333333,3.95833333 C10.8333333,4.3035113 10.5535113,4.58333333 10.2083333,4.58333333 L3.95833333,4.58333333 C3.61315536,4.58333333 3.33333333,4.3035113 3.33333333,3.95833333 C3.33333333,3.61315536 3.61315536,3.33333333 3.95833333,3.33333333 L10.2083333,3.33333333 Z" id="形状结合" fill="#C6CAD4" fill-rule="nonzero"></path>
                <path d="M0,11.6666667 L18.3333333,11.6666667 L18.3333333,18.3333333 C18.3333333,19.2538079 17.5871412,20 16.6666667,20 L1.66666667,20 C0.746192084,20 0,19.2538079 0,18.3333333 L0,11.6666667 Z" id="矩形" fill="#2D92FF"></path>
                <path d="M9.34473517,15.1497396 C9.54824203,15.1497396 9.73993822,15.1822917 9.91982375,15.2473958 C10.0997093,15.3125 10.2559735,15.4056351 10.3886163,15.5268012 C10.5212592,15.6479673 10.6257382,15.7935475 10.7020532,15.9635417 C10.7783683,16.1335359 10.8165258,16.323423 10.8165258,16.5332031 C10.8165258,16.7429832 10.7783683,16.9328704 10.7020532,17.1028646 C10.6257382,17.2728588 10.5212592,17.4184389 10.3886163,17.539605 C10.2559735,17.6607711 10.0997093,17.7539063 9.91982375,17.8190104 C9.73993822,17.8841146 9.54824203,17.9166667 9.34473517,17.9166667 C9.14122831,17.9166667 8.94953212,17.8841146 8.76964659,17.8190104 C8.58976106,17.7539063 8.43349687,17.6607711 8.300854,17.539605 C8.16821114,17.4184389 8.06373217,17.2728588 7.9874171,17.1028646 C7.91110203,16.9328704 7.87294449,16.7429832 7.87294449,16.5332031 C7.87294449,16.323423 7.91110203,16.1335359 7.9874171,15.9635417 C8.06373217,15.7935475 8.16821114,15.6479673 8.300854,15.5268012 C8.43349687,15.4056351 8.58976106,15.3125 8.76964659,15.2473958 C8.94953212,15.1822917 9.14122831,15.1497396 9.34473517,15.1497396 Z M3.42668302,14.0104167 L4.04265467,16.4735243 L4.05355683,16.4735243 L4.86031616,14.0104167 L5.65072227,14.0104167 L6.45203053,16.5386285 L6.46293268,16.5386285 L7.11161079,14.0104167 L7.97288089,14.0104167 L6.84450804,17.8515625 L6.08680839,17.8515625 L5.23644045,15.1931424 L5.22553829,15.1931424 L4.37517035,17.8515625 L3.64472608,17.8515625 L2.5,14.0104167 L3.42668302,14.0104167 Z M9.34473517,15.8658854 C9.13759426,15.8658854 8.9767875,15.9273727 8.86231489,16.0503472 C8.74784228,16.1733218 8.69060598,16.3342737 8.69060598,16.5332031 C8.69060598,16.7321325 8.74784228,16.8930845 8.86231489,17.016059 C8.9767875,17.1390336 9.13759426,17.2005208 9.34473517,17.2005208 C9.55187608,17.2005208 9.71268284,17.1390336 9.82715545,17.016059 C9.94162805,16.8930845 9.99886436,16.7321325 9.99886436,16.5332031 C9.99886436,16.3342737 9.94162805,16.1733218 9.82715545,16.0503472 C9.71268284,15.9273727 9.55187608,15.8658854 9.34473517,15.8658854 Z M15.8333333,13.75 L15.8333333,17.8515625 L15.0810848,17.8515625 L15.0810848,17.5043403 L15.0701826,17.5043403 C15.0374762,17.55136 14.9947761,17.5992839 14.9420823,17.648112 C14.8893886,17.6969401 14.8276097,17.7412471 14.7567457,17.781033 C14.6858817,17.8208189 14.6077496,17.8533709 14.5223494,17.8786892 C14.4369492,17.9040075 14.3488235,17.9166667 14.2579722,17.9166667 C14.0617334,17.9166667 13.8836649,17.8832104 13.7237667,17.8162977 C13.5638684,17.7493851 13.426683,17.6553458 13.3122104,17.5341797 C13.1977378,17.4130136 13.1096121,17.2692419 13.0478332,17.1028646 C12.9860543,16.9364873 12.9551649,16.7538339 12.9551649,16.5549045 C12.9551649,16.3704427 12.9833288,16.1941189 13.0396566,16.0259332 C13.0959844,15.8577474 13.1759335,15.7085503 13.279504,15.578342 C13.3830744,15.4481337 13.5093577,15.3441479 13.6583538,15.2663845 C13.8073499,15.1886212 13.9763332,15.1497396 14.1653039,15.1497396 C14.3361043,15.1497396 14.495094,15.1759621 14.6422731,15.2284071 C14.7894522,15.2808521 14.9102844,15.3703704 15.0047697,15.4969618 L15.0156718,15.4969618 L15.0156718,13.75 L15.8333333,13.75 Z M12.7062324,15.1497396 C12.7534751,15.1497396 12.8007177,15.151548 12.8479604,15.1551649 C12.8952031,15.1587818 12.9388117,15.1660156 12.9787862,15.1768663 L12.9787862,15.9201389 C12.9206414,15.9020544 12.8634051,15.888491 12.8070773,15.8794488 C12.7507495,15.8704065 12.6916962,15.8658854 12.6299173,15.8658854 C12.4736531,15.8658854 12.3500954,15.8875868 12.2592441,15.9309896 C12.1683928,15.9743924 12.0984374,16.0349754 12.0493777,16.1127387 C12.000318,16.190502 11.96852,16.2836372 11.9539838,16.3921441 C11.9394476,16.500651 11.9321795,16.6200087 11.9321795,16.750217 L11.9321795,17.8515625 L11.114518,17.8515625 L11.114518,15.2148437 L11.9321795,15.2148437 L11.9321795,15.6380208 L11.9430817,15.6380208 C12.0302989,15.4752604 12.1338694,15.3531901 12.253793,15.2718099 C12.3737167,15.1904297 12.5245298,15.1497396 12.7062324,15.1497396 Z M14.4269556,15.8658854 C14.2198147,15.8658854 14.0590079,15.9273727 13.9445353,16.0503472 C13.8300627,16.1733218 13.7728264,16.3342737 13.7728264,16.5332031 C13.7728264,16.7321325 13.8300627,16.8930845 13.9445353,17.016059 C14.0590079,17.1390336 14.2198147,17.2005208 14.4269556,17.2005208 C14.6340965,17.2005208 14.7949032,17.1390336 14.9093759,17.016059 C15.0238485,16.8930845 15.0810848,16.7321325 15.0810848,16.5332031 C15.0810848,16.3342737 15.0238485,16.1733218 14.9093759,16.0503472 C14.7949032,15.9273727 14.6340965,15.8658854 14.4269556,15.8658854 Z" id="形状结合" fill="#FFFFFF" fill-rule="nonzero"></path>
            </g>
        </g>
    </g>
</svg>