<svg xmlns="http://www.w3.org/2000/svg" viewBox="0 0 28 32"><defs><style>.b7f30035-8c1f-44f3-8f2f-1093b037df27{fill:#9e9fa5;}.ab0083e3-4a03-4b59-8399-5aecc9865559{fill:#f7b93e;}.a018cf5a-4727-407a-85d4-2bb8704d32f4{fill:#9fa0a6;}</style></defs><title>资源 85</title><g id="b88cc01f-07a3-4ac5-b82f-97a0be88c2dd" data-name="图层 2"><g id="e3ced4c2-4209-4ed6-b03c-f0b617a08697" data-name="ddc图标"><path class="b7f30035-8c1f-44f3-8f2f-1093b037df27" d="M27.71,8.29,26,6.58,21.42,2,19.71.29A1,1,0,0,0,19,0H2A2,2,0,0,0,0,2V30a2,2,0,0,0,2,2H26a2,2,0,0,0,2-2V9A1,1,0,0,0,27.71,8.29ZM20,3.41,24.59,8H21a1,1,0,0,1-1-1ZM26,30H2V2H18V7a3,3,0,0,0,3,3h5Z"/><path class="ab0083e3-4a03-4b59-8399-5aecc9865559" d="M19,19.75H17.93V22.2H19a1.42,1.42,0,0,0,1-.32,1.15,1.15,0,0,0,.35-.9,1.18,1.18,0,0,0-.35-.92A1.42,1.42,0,0,0,19,19.75Z"/><path class="ab0083e3-4a03-4b59-8399-5aecc9865559" d="M2,16V28H26V16Zm9.76,9.58H6.32v-1l3.54-4.7v-.09H6.4V18.54h5.26v1l-3.53,4.7v.09h3.63Zm3,0H13.27v-7h1.48ZM21.65,22a2.25,2.25,0,0,1-.51.77,2.5,2.5,0,0,1-.8.49,2.8,2.8,0,0,1-1,.17H17.93v2.19H16.46v-7H19.4a2.64,2.64,0,0,1,1,.17,2.36,2.36,0,0,1,.77.49,2.38,2.38,0,0,1,.5.77,2.7,2.7,0,0,1,.18,1A2.46,2.46,0,0,1,21.65,22Z"/><path class="a018cf5a-4727-407a-85d4-2bb8704d32f4" d="M16.62,5.55A.61.61,0,0,0,16,4.94H14v2h2a.61.61,0,0,0,.61-.61Z"/><path class="a018cf5a-4727-407a-85d4-2bb8704d32f4" d="M11.4,8.44a.61.61,0,0,0,.61.61h2v-2H12a.61.61,0,0,0-.61.61Z"/><path class="a018cf5a-4727-407a-85d4-2bb8704d32f4" d="M11.43,4.22a.6.6,0,0,0,.61.6h2v-2H12a.61.61,0,0,0-.61.61Z"/><path class="a018cf5a-4727-407a-85d4-2bb8704d32f4" d="M16.22,10.08a.84.84,0,0,0-.85-.79H12.64a.86.86,0,0,0-.86.79l-.31,4.29a.85.85,0,0,0,.85.92h3.36a.86.86,0,0,0,.86-.92ZM15,14H13.05a.49.49,0,0,1-.49-.52L12.74,11a.49.49,0,0,1,.48-.45h1.56a.49.49,0,0,1,.49.45l.18,2.44A.49.49,0,0,1,15,14Z"/></g></g></svg>