<?xml version="1.0" encoding="UTF-8"?>
<svg width="32px" height="32px" viewBox="0 0 32 32" version="1.1" xmlns="http://www.w3.org/2000/svg" xmlns:xlink="http://www.w3.org/1999/xlink">
    <title>压缩包</title>
    <g id="全局搜索2.0-7月19日" stroke="none" stroke-width="1" fill="none" fill-rule="evenodd">
        <g id="压缩包">
            <path d="M10.2555408,-2.76224082e-16 L21.7444592,4.14336123e-16 C25.3105342,-2.4074122e-16 26.6036791,0.371302445 27.9073828,1.06853082 C29.2110865,1.76575919 30.2342408,2.78891348 30.9314692,4.09261719 C31.6286976,5.39632089 32,6.68946584 32,10.2555408 L32,21.7444592 C32,25.3105342 31.6286976,26.6036791 30.9314692,27.9073828 C30.2342408,29.2110865 29.2110865,30.2342408 27.9073828,30.9314692 C26.6036791,31.6286976 25.3105342,32 21.7444592,32 L10.2555408,32 C6.68946584,32 5.39632089,31.6286976 4.09261719,30.9314692 C2.78891348,30.2342408 1.76575919,29.2110865 1.06853082,27.9073828 C0.371302445,26.6036791 8.02470732e-17,25.3105342 -1.38112041e-16,21.7444592 L2.76224082e-16,10.2555408 C-1.60494146e-16,6.68946584 0.371302445,5.39632089 1.06853082,4.09261719 C1.76575919,2.78891348 2.78891348,1.76575919 4.09261719,1.06853082 C5.39632089,0.371302445 6.68946584,1.60494146e-16 10.2555408,-2.76224082e-16 Z" id="矩形" fill="#F5F7FA"></path>
            <g id="编组-17备份-7" transform="translate(7.000000, 6.000000)">
                <path d="M16.6666667,0 C17.5871412,0 18.3333333,0.746192084 18.3333333,1.66666667 L18.3333333,18.3333333 C18.3333333,19.2538079 17.5871412,20 16.6666667,20 L1.66666667,20 C0.746192084,20 0,19.2538079 0,18.3333333 L0,1.66666667 C0,0.746192084 0.746192084,0 1.66666667,0 L16.6666667,0 Z M9.16666667,3.33333333 L6.83333333,3.33333333 C6.28104858,3.33333333 5.83333333,2.88561808 5.83333333,2.33333333 L5.83333333,1.25 L1.66666667,1.25 C1.43654802,1.25 1.25,1.43654802 1.25,1.66666667 L1.25,18.3333333 C1.25,18.563452 1.43654802,18.75 1.66666667,18.75 L16.6666667,18.75 C16.8967853,18.75 17.0833333,18.563452 17.0833333,18.3333333 L17.0833333,1.66666667 C17.0833333,1.43654802 16.8967853,1.25 16.6666667,1.25 L9.16666667,1.25 L9.16666667,3.33333333 Z M9.16666667,9.58333333 L9.16666667,11.6666667 L6.83333333,11.6666667 C6.28104858,11.6666667 5.83333333,11.2189514 5.83333333,10.6666667 L5.83333333,10.5833333 C5.83333333,10.0310486 6.28104858,9.58333333 6.83333333,9.58333333 L9.16666667,9.58333333 Z M11.5,7.5 C12.0522847,7.5 12.5,7.94771525 12.5,8.5 L12.5,8.58333333 C12.5,9.13561808 12.0522847,9.58333333 11.5,9.58333333 L9.16666667,9.58333333 L9.16666667,7.5 L11.5,7.5 Z M9.16666667,5.41666667 L9.16666667,7.5 L6.83333333,7.5 C6.28104858,7.5 5.83333333,7.05228475 5.83333333,6.5 L5.83333333,6.41666667 C5.83333333,5.86438192 6.28104858,5.41666667 6.83333333,5.41666667 L9.16666667,5.41666667 Z M11.5,3.33333333 C12.0522847,3.33333333 12.5,3.78104858 12.5,4.33333333 L12.5,4.41666667 C12.5,4.96895142 12.0522847,5.41666667 11.5,5.41666667 L9.16666667,5.41666667 L9.16666667,3.33333333 L11.5,3.33333333 Z" id="形状结合" fill="#C6CAD4" fill-rule="nonzero"></path>
                <path d="M0,11.6666667 L18.3333333,11.6666667 L18.3333333,18.3333333 C18.3333333,19.2538079 17.5871412,20 16.6666667,20 L1.66666667,20 C0.746192084,20 0,19.2538079 0,18.3333333 L0,11.6666667 Z" id="矩形" fill="#FFB963"></path>
                <path d="M4.58333333,17.069209 L6.65379472,14.5621469 L4.65830826,14.5621469 L4.65830826,13.75 L7.74381478,13.75 L7.74381478,14.5621469 L5.71372451,17.069209 L7.8130224,17.069209 L7.8130224,17.9166667 L4.58333333,17.9166667 L4.58333333,17.069209 Z M8.89919759,13.75 L9.79889669,13.75 L9.79889669,17.9166667 L8.89919759,17.9166667 L8.89919759,13.75 Z M11.0984621,13.75 L12.6152625,13.75 C12.8267302,13.75 13.0266633,13.7696171 13.2150619,13.8088512 C13.4034604,13.8480854 13.5678285,13.9157643 13.7081662,14.0118879 C13.8485038,14.1080116 13.960005,14.2374843 14.0426697,14.400306 C14.1253343,14.5631277 14.1666667,14.7681262 14.1666667,15.0153013 C14.1666667,15.258553 14.128218,15.4625706 14.0513206,15.627354 C13.9744233,15.7921375 13.8686894,15.9235719 13.734119,16.0216573 C13.5995486,16.1197426 13.4399866,16.1893832 13.255433,16.2305791 C13.0708793,16.271775 12.8709462,16.2923729 12.6556336,16.2923729 L11.9981612,16.2923729 L11.9981612,17.9166667 L11.0984621,17.9166667 L11.0984621,13.75 Z M11.9981612,15.5155367 L12.5979605,15.5155367 C12.6787028,15.5155367 12.7565614,15.5076899 12.8315363,15.4919962 C12.9065112,15.4763026 12.9737964,15.4498195 13.0333918,15.4125471 C13.0929873,15.3752746 13.1410481,15.3242702 13.1775744,15.2595339 C13.2141006,15.1947976 13.2323638,15.1133867 13.2323638,15.0153013 C13.2323638,14.9093691 13.2083333,14.8240348 13.1602725,14.7592985 C13.1122116,14.6945621 13.0506937,14.6445386 12.9757188,14.6092279 C12.9007439,14.5739171 12.817118,14.5513575 12.7248412,14.541549 C12.6325644,14.5317404 12.5441324,14.5268362 12.4595453,14.5268362 L11.9981612,14.5268362 L11.9981612,15.5155367 Z" id="形状结合" fill="#FFFFFF" fill-rule="nonzero"></path>
            </g>
        </g>
    </g>
</svg>