<svg xmlns="http://www.w3.org/2000/svg" viewBox="0 0 15.32 15.99"><defs><style>.af6bf82a-8942-459c-88a8-ccb68427e01f{fill:#d6e7ff;}.bc7a9263-0cda-44a0-8c6d-e92b9403db0c{fill:#b2d1ff;}.af690f0c-74c7-448f-93dd-8f2fb25d2cd0{fill:#4386f5;}</style></defs><title>资源 131</title><g id="a8133ec8-27be-4113-8303-2fb8876f798c" data-name="图层 2"><g id="be03c264-467b-4c64-9ced-fad95b941824" data-name="dam 图标"><rect class="af6bf82a-8942-459c-88a8-ccb68427e01f" y="1.99" width="12" height="14"/><path class="bc7a9263-0cda-44a0-8c6d-e92b9403db0c" d="M10,2V3.66A.33.33,0,0,1,9.67,4H2.33A.33.33,0,0,1,2,3.66V2H3.9A2.1,2.1,0,0,1,8.1,2Z"/><path class="af690f0c-74c7-448f-93dd-8f2fb25d2cd0" d="M15.08,14.34,13,12a4.51,4.51,0,1,0-3.63,1.84,4.4,4.4,0,0,0,2.11-.53l2.09,2.4a1,1,0,0,0,1.37.09l0,0A1,1,0,0,0,15.08,14.34Zm-7.6-3.41A2.49,2.49,0,0,1,9.36,6.8a2.5,2.5,0,1,1-1.88,4.13Z"/></g></g></svg>