<?xml version="1.0" encoding="UTF-8"?>
<svg width="20px" height="20px" viewBox="0 0 20 20" version="1.1" xmlns="http://www.w3.org/2000/svg" xmlns:xlink="http://www.w3.org/1999/xlink">
    <title>选中</title>
    <g id="安全策略管理" stroke="none" stroke-width="1" fill="none" fill-rule="evenodd">
        <g id="安全策略管理-新建-第二步" transform="translate(-796.000000, -945.000000)" fill="#409EFF">
            <g id="编组-6" transform="translate(366.000000, 843.000000)">
                <g id="选中" transform="translate(430.000000, 102.000000)">
                    <path d="M10,0 C15.5228475,0 20,4.4771525 20,10 C20,15.5228475 15.5228475,20 10,20 C4.4771525,20 0,15.5228475 0,10 C0,4.4771525 4.4771525,0 10,0 Z M10,1.42875 C5.26622934,1.42875 1.42875,5.26622934 1.42875,10 C1.42875,14.7337707 5.26622934,18.57125 10,18.57125 C14.7337707,18.57125 18.57125,14.7337707 18.57125,10 C18.57125,5.26622934 14.7337707,1.42875 10,1.42875 Z M14.4825,6.9925 L14.60875,7.11875 C14.7263021,7.23600533 14.7923672,7.39521592 14.7923672,7.56125 C14.7923672,7.72728408 14.7263021,7.88649467 14.60875,8.00375 L9.43125,13.18 C9.21802609,13.3929796 8.883183,13.4234676 8.635,13.2525 L8.5475,13.18 L5.39125,10.025 C5.14726129,9.78093759 5.14726129,9.38531241 5.39125,9.14125 L5.5175,9.015 C5.76156241,8.77101129 6.15718759,8.77101129 6.40125,9.015 L8.98875,11.6025 L13.59875,6.99375 C13.8428124,6.74976129 14.2384376,6.74976129 14.4825,6.99375 L14.4825,6.9925 Z" id="形状" fill-rule="nonzero"></path>
                    <circle id="椭圆形" opacity="0.100981213" cx="10" cy="10" r="9"></circle>
                </g>
            </g>
        </g>
    </g>
</svg>