<?xml version="1.0" encoding="UTF-8"?>
<svg width="16px" height="16px" viewBox="0 0 16 16" version="1.1" xmlns="http://www.w3.org/2000/svg" xmlns:xlink="http://www.w3.org/1999/xlink">
    <title>新建-点击</title>
    <g id="6.1-设计方案" stroke="none" stroke-width="1" fill="none" fill-rule="evenodd">
        <g id="菜单样式" transform="translate(-1086.000000, -210.000000)" fill="#409EFF" fill-rule="nonzero">
            <g id="左侧菜单-数据模型" transform="translate(42.000000, 41.000000)">
                <g id="数据模型-点击悬浮新建图标" transform="translate(834.000000, 118.000000)">
                    <g id="编组" transform="translate(0.000000, 44.000000)">
                        <path d="M224.857143,7 C225.443241,7 225.926294,7.44118879 225.992311,8.00957586 L226,8.14285714 L226,12.1428571 C226,12.4584484 225.744163,12.7142857 225.428571,12.7142857 C225.148046,12.7142857 224.914733,12.5121427 224.866349,12.2455722 L224.857143,12.1428571 L224.857143,8.14285714 L211.142857,8.14285714 L211.142857,21.8571429 L215.142857,21.8571429 C215.458448,21.8571429 215.714286,22.1129801 215.714286,22.4285714 C215.714286,22.709097 215.512143,22.9424096 215.245572,22.9907935 L215.142857,23 L211.142857,23 C210.556759,23 210.073706,22.5588112 210.007689,21.9904241 L210,21.8571429 L210,8.14285714 C210,7.55675904 210.441189,7.0737061 211.009576,7.00768884 L211.142857,7 L224.857143,7 Z M222.071429,15 C222.347571,15 222.571429,15.2238576 222.571429,15.5 L222.571,18.428 L225.5,18.4285714 C225.776142,18.4285714 226,18.6524291 226,18.9285714 L226,19.0714286 C226,19.3475709 225.776142,19.5714286 225.5,19.5714286 L222.571,19.571 L222.571429,22.5 C222.571429,22.7761424 222.347571,23 222.071429,23 L221.928571,23 C221.652429,23 221.428571,22.7761424 221.428571,22.5 L221.428,19.571 L218.5,19.5714286 C218.223858,19.5714286 218,19.3475709 218,19.0714286 L218,18.9285714 C218,18.6524291 218.223858,18.4285714 218.5,18.4285714 L221.428,18.428 L221.428571,15.5 C221.428571,15.2238576 221.652429,15 221.928571,15 L222.071429,15 Z" id="新建-点击"></path>
                    </g>
                </g>
            </g>
        </g>
    </g>
</svg>