<?xml version="1.0" encoding="UTF-8"?>
<svg width="14px" height="14px" viewBox="0 0 14 14" version="1.1" xmlns="http://www.w3.org/2000/svg" xmlns:xlink="http://www.w3.org/1999/xlink">
    <title>应用</title>
    <g id="6.1-设计方案" stroke="none" stroke-width="1" fill="none" fill-rule="evenodd">
        <g id="IOCN" transform="translate(-120.000000, -202.000000)" fill="#979797" fill-rule="nonzero">
            <g id="应用" transform="translate(120.000000, 202.000000)">
                <path d="M12,0 C12.5522847,0 13,0.44771525 13,1 L13,10 L12.999,10 L9,13.998 L9.00097656,14 L2,14 C1.44771525,14 1,13.5522847 1,13 L1,1 C1,0.44771525 1.44771525,0 2,0 L12,0 Z M12,1 L2,1 L2,13 L8,13 L8.00084229,9.54999998 C8.00105073,9.24629585 8.24727239,9.00013429 8.55097656,9 L12,9 L12,1 Z M11.51,10 L9.00097656,10 L9,12.568 L11.51,10 Z M10.3617901,3.61701622 C10.5570522,3.81227836 10.5570522,4.12886085 10.3617901,4.324123 L6.82625618,7.85965691 C6.63099403,8.05491905 6.31441154,8.05491905 6.1191494,7.85965691 L6.11278544,7.85187873 L3.99782905,5.73833656 C3.80256691,5.54307442 3.80256691,5.22649193 3.99782905,5.03122978 C4.1930912,4.83596764 4.50967369,4.83596764 4.70493584,5.03122978 L6.4734099,6.79828963 L9.6546833,3.61701622 C9.84994545,3.42175407 10.1665279,3.42175407 10.3617901,3.61701622 Z" id="形状结合"></path>
            </g>
        </g>
    </g>
</svg>