<?xml version="1.0" encoding="UTF-8"?>
<svg width="17px" height="17px" viewBox="0 0 17 17" version="1.1" xmlns="http://www.w3.org/2000/svg" xmlns:xlink="http://www.w3.org/1999/xlink">
    <title>编组 11</title>
    <g id="6.1-设计方案" stroke="none" stroke-width="1" fill="none" fill-rule="evenodd">
        <g id="IOCN" transform="translate(-1235.000000, -307.000000)" fill="#539FFD">
            <g id="编组-11" transform="translate(1235.000000, 307.982323)">
                <path d="M16,15.0315656 L16,16.0037875 L0,16.0037875 L0,15.0315656 L16,15.0315656 Z M13.2117012,3.78364007e-13 L16.0401283,2.82842712 L5.6664954,13.2020601 L2.01931305,14.0208153 L2.83806827,10.3736329 L13.2117012,3.78364007e-13 Z M4.45,10.174 L3.7494349,10.8752949 L3.34002007,12.7003375 L5.16294135,12.2902156 L5.864,11.588 L4.45,10.174 Z M11.45,3.174 L5.157,9.467 L6.571,10.881 L12.864,4.588 L11.45,3.174 Z M13.2105236,1.41420621 L12.157,2.467 L13.571,3.881 L14.6247372,2.82841977 L13.2105236,1.41420621 Z" id="形状结合" fill-rule="nonzero"></path>
                <rect id="矩形备份-45" fill-opacity="0.2" transform="translate(9.903806, 6.113871) rotate(-315.000000) translate(-9.903806, -6.113871) " x="8.40380592" y="0.113870624" width="3" height="12"></rect>
            </g>
        </g>
    </g>
</svg>