<?xml version="1.0" encoding="UTF-8"?>
<svg width="16px" height="16px" viewBox="0 0 16 16" version="1.1" xmlns="http://www.w3.org/2000/svg" xmlns:xlink="http://www.w3.org/1999/xlink">
    <title>展开</title>
    <g id="设计方案" stroke="none" stroke-width="1" fill="none" fill-rule="evenodd">
        <g id="展开" fill="#999999" fill-rule="nonzero">
            <path d="M15.4285714,7.41996112 C15.7441627,7.41996112 16,7.67579841 16,7.9913897 C16,8.30698098 15.7441627,8.56281827 15.4285714,8.56281827 L7.57142857,8.56281827 C7.25583729,8.56281827 7,8.30698098 7,7.9913897 C7,7.67579841 7.25583729,7.41996112 7.57142857,7.41996112 L15.4285714,7.41996112 Z M15.4285714,1.5 C15.7441627,1.5 16,1.75583729 16,2.07142857 C16,2.38701986 15.7441627,2.64285714 15.4285714,2.64285714 L0.571428571,2.64285714 C0.255837286,2.64285714 0,2.38701986 0,2.07142857 C0,1.75583729 0.255837286,1.5 0.571428571,1.5 L15.4285714,1.5 Z M15.4285714,13.3571429 C15.7441627,13.3571429 16,13.6129801 16,13.9285714 C16,14.2441627 15.7441627,14.5 15.4285714,14.5 L0.571428571,14.5 C0.255837286,14.5 0,14.2441627 0,13.9285714 C0,13.6129801 0.255837286,13.3571429 0.571428571,13.3571429 L15.4285714,13.3571429 Z M0.171309708,6.43583362 C0.394466446,6.21267688 0.756275005,6.21267688 0.979431744,6.43583362 L0.979431744,6.43583362 L2.59494215,8.05146607 L4.21059161,6.43631284 C4.43374835,6.21315611 4.79555691,6.21315611 5.01871365,6.43631284 C5.24187039,6.65946958 5.24187039,7.02127814 5.01871365,7.24443488 L5.01871365,7.24443488 L2.99840856,9.26473997 C2.96306828,9.30008024 2.92425068,9.32982385 2.88338832,9.35407466 C2.856519,9.36975155 2.82864447,9.38305171 2.79973338,9.39407404 C2.59541042,9.47261938 2.35505458,9.42950803 2.19028652,9.26473997 C2.18652017,9.26097361 2.18281737,9.25716776 2.17917815,9.25332374 L2.17917815,9.25332374 L0.171309708,7.24395566 C-0.0518470303,7.02079892 -0.0518470303,6.65899036 0.171309708,6.43583362 Z" id="收起" transform="translate(8.000000, 8.000000) scale(-1, 1) translate(-8.000000, -8.000000) "></path>
        </g>
    </g>
</svg>