<?xml version="1.0" encoding="UTF-8"?>
<svg width="16px" height="14px" viewBox="0 0 16 14" version="1.1" xmlns="http://www.w3.org/2000/svg" xmlns:xlink="http://www.w3.org/1999/xlink">
    <title>icon/文件夹/打开</title>
    <g id="设计方案" stroke="none" stroke-width="1" fill="none" fill-rule="evenodd">
        <g id="资产目录管理" transform="translate(-198.000000, -113.000000)" fill="#409EFF" fill-rule="nonzero">
            <g id="工作区域" transform="translate(160.000000, 0.000000)">
                <g id="部门" transform="translate(0.000000, 100.000000)">
                    <g id="形状结合" transform="translate(38.000000, 12.000000)">
                        <path d="M1.06666667,15 C0.477562934,15 -1.36424205e-12,14.5224371 -1.36424205e-12,13.9333333 L-1.36424205e-12,2.06666667 C-1.36424205e-12,1.47756293 0.477562934,1 1.06666667,1 L5.14953483,1 C5.26334829,1 5.36859677,1.06045161 5.42594408,1.15876127 L6.4,2.82857143 L12.8,2.82857143 C13.3891037,2.82857143 13.8666667,3.30613436 13.8666667,3.8952381 L13.866,5.934 L14.9333333,5.93453873 C15.5224371,5.93453873 16,6.41210166 16,7.0012054 C16,7.08841799 15.9893042,7.17530142 15.968152,7.25991006 L13.7373143,14.192038 C13.6265336,14.6351611 13.2475842,14.9548601 12.7996757,14.9955971 L12.8,15 L1.06666667,15 Z M3.29778569,7 L1.06666667,13.9333333 L12.7020187,13.9333333 L14.9333333,7.0012054 L3.29778569,7 Z M4.72,2.0656 L1.06666667,2.06666667 L1.066,10.458 L2.26268567,6.74250073 C2.38139687,6.26765593 2.80804552,5.93453873 3.29750433,5.93453873 L12.799,5.934 L12.8,3.8952381 L5.78733831,3.8952381 L4.72,2.0656 Z"></path>
                    </g>
                </g>
            </g>
        </g>
    </g>
</svg>