<?xml version="1.0" encoding="UTF-8"?>
<svg width="16px" height="14px" viewBox="0 0 16 14" version="1.1" xmlns="http://www.w3.org/2000/svg" xmlns:xlink="http://www.w3.org/1999/xlink">
    <title>icon/文件夹/关闭</title>
    <g id="设计方案" stroke="none" stroke-width="1" fill="none" fill-rule="evenodd">
        <g id="资产目录管理" transform="translate(-198.000000, -234.000000)" fill="#409EFF" fill-rule="nonzero">
            <g id="工作区域" transform="translate(160.000000, 0.000000)">
                <g id="部门" transform="translate(0.000000, 100.000000)">
                    <g id="信用卡中心" transform="translate(0.000000, 120.000000)">
                        <g id="形状结合备份-3" transform="translate(38.000000, 13.000000)">
                            <path d="M16,13.8571429 C16,14.4883254 15.4883254,15 14.8571429,15 L1.14285714,15 C0.511674572,15 0,14.4883254 0,13.8571429 L0,2.14285714 C0,1.51167457 0.511674572,1 1.14285714,1 L5.51735874,1 C5.63930174,1 5.75206797,1.06476958 5.81351151,1.17010136 L6.85714286,2.95918367 L14.8571429,2.95918367 C15.4883254,2.95918367 16,3.47085825 16,4.10204082 L16,13.8571429 Z M14.857,7.142 L1.142,7.142 L1.14285714,13.8571429 L14.8571429,13.8571429 L14.857,7.142 Z M5.05714286,2.14171429 L1.14285714,2.14285714 L1.142,5.999 L14.857,5.999 L14.8571429,4.10204082 L6.20071962,4.10204082 L5.05714286,2.14171429 Z"></path>
                        </g>
                    </g>
                </g>
            </g>
        </g>
    </g>
</svg>