<?xml version="1.0" encoding="UTF-8"?>
<svg width="14px" height="14px" viewBox="0 0 14 14" version="1.1" xmlns="http://www.w3.org/2000/svg" xmlns:xlink="http://www.w3.org/1999/xlink">
    <title>放大备份</title>
    <g id="页面-1" stroke="none" stroke-width="1" fill="none" fill-rule="evenodd">
        <g id="Icon(16*16)备份" transform="translate(-523.000000, -151.000000)" fill="#999999" fill-rule="nonzero">
            <path d="M523.5,160.625 C523.776142,160.625 524,160.848858 524,161.125 L524,164 L526.8745,164 C527.150642,164 527.3745,164.223858 527.3745,164.5 C527.3745,164.776142 527.150642,165 526.8745,165 L524,165 C523.447715,165 523,164.552285 523,164 L523,161.125 C523,160.848858 523.223858,160.625 523.5,160.625 Z M536.5,160.625 C536.776142,160.625 537,160.848858 537,161.125 L537,164 C537,164.552285 536.552285,165 536,165 L533.1245,165 C532.848358,165 532.6245,164.776142 532.6245,164.5 C532.6245,164.223858 532.848358,164 533.1245,164 L536,164 L536,161.125 C536,160.848858 536.223858,160.625 536.5,160.625 Z M536,151 C536.552285,151 537,151.447715 537,152 L537,154.875 C537,155.151142 536.776142,155.375 536.5,155.375 C536.223858,155.375 536,155.151142 536,154.875 L536,152 L533.125,152 C532.848858,152 532.625,151.776142 532.625,151.5 C532.625,151.223858 532.848858,151 533.125,151 L536,151 Z M528.169394,159.699326 L528.238665,159.757444 L528.238665,159.757444 C528.433724,159.952796 528.43379,160.269265 528.238811,160.464697 L523.997923,164.70909 C523.824558,164.882858 523.555156,164.902269 523.360234,164.767355 L523.290962,164.709236 L523.290962,164.709236 C523.095903,164.513885 523.095838,164.197415 523.290816,164.001983 L527.531705,159.75759 C527.705069,159.583823 527.974471,159.564412 528.169394,159.699326 Z M532.465979,159.758198 L536.710372,163.999087 C536.88414,164.172452 536.903551,164.441854 536.768637,164.636776 L536.710518,164.706047 L536.710518,164.706047 C536.515167,164.901107 536.198697,164.901172 536.003265,164.706193 L531.758872,160.465305 C531.585105,160.29194 531.565694,160.022538 531.700608,159.827616 L531.758727,159.758344 L531.758727,159.758344 C531.954078,159.563285 532.270548,159.56322 532.465979,159.758198 Z M526.875,151 C527.151142,151 527.375,151.223858 527.375,151.5 C527.375,151.776142 527.151142,152 526.875,152 L524.705,152 L528.243509,155.535855 C528.417276,155.709219 528.436687,155.978621 528.301773,156.173544 L528.243655,156.242815 L528.243655,156.242815 C528.048303,156.437874 527.731834,156.43794 527.536402,156.242961 L524,152.709 L524,154.875 C524,155.151142 523.776142,155.375 523.5,155.375 C523.223858,155.375 523,155.151142 523,154.875 L523,152 C523,151.447715 523.447715,151 524,151 L526.875,151 Z M536.632626,151.232462 L536.701897,151.290581 L536.701897,151.290581 C536.896957,151.485932 536.897022,151.802402 536.702043,151.997834 L532.461155,156.242227 C532.28779,156.415994 532.018388,156.435405 531.823466,156.300491 L531.754194,156.242373 L531.754194,156.242373 C531.559135,156.047021 531.55907,155.730551 531.754048,155.53512 L535.994937,151.290727 C536.168302,151.116959 536.437704,151.097548 536.632626,151.232462 Z" id="放大备份"></path>
        </g>
    </g>
</svg>