<?xml version="1.0" encoding="UTF-8"?>
<svg width="20px" height="20px" viewBox="0 0 20 20" version="1.1" xmlns="http://www.w3.org/2000/svg" xmlns:xlink="http://www.w3.org/1999/xlink">
    <title>历史</title>
    <g id="页面-1" stroke="none" stroke-width="1" fill="none" fill-rule="evenodd">
        <g id="light-tab" transform="translate(-211.000000, -70.000000)" fill="#A0AAB9" fill-rule="nonzero">
            <g id="历史" transform="translate(211.000000, 70.000000)">
                <path d="M3.67769829,1.03702628 C3.76861789,1.07444004 3.8464896,1.13782809 3.9015753,1.21926352 L4.86974736,2.6507692 C6.3553661,1.62100798 8.13302616,1.05123677 10,1.05123677 C14.9705627,1.05123677 19,5.06920428 19,10.0256184 C19,14.9820325 14.9705627,19 10,19 C5.02943725,19 1,14.9820325 1,10.0256184 C1,9.75026205 1.22385763,9.52704163 1.5,9.52704163 C1.77614237,9.52704163 2,9.75026205 2,10.0256184 C2,14.4313198 5.581722,18.0028465 10,18.0028465 C14.418278,18.0028465 18,14.4313198 18,10.0256184 C18,5.61991696 14.418278,2.04839028 10,2.04839028 C8.33547645,2.04839028 6.75219401,2.55711933 5.42963944,3.47709486 L6.58323577,5.18367183 C6.73795519,5.41239986 6.67795935,5.72324544 6.44923131,5.87796485 C6.36727929,5.93339998 6.27072288,5.96327516 6.17178399,5.96380883 L1.84915989,5.98712506 C1.57302153,5.98861454 1.34795969,5.76596765 1.3464702,5.48982929 C1.34611324,5.42365117 1.35889739,5.35806056 1.38408141,5.2968606 L3.02504504,1.30913607 C3.13012921,1.05376981 3.42233203,0.931942109 3.67769829,1.03702628 Z M9.5,6.03700433 C9.77614237,6.03700433 10,6.26086196 10,6.53700433 L10,11.0220043 L14.5014232,11.0227719 C14.7767796,11.0227719 15,11.2459923 15,11.5213487 C15,11.796705 14.7767796,12.0199254 14.5014232,12.0199254 L9.49857676,12.0199254 C9.22322042,12.0199254 9,11.796705 9,11.5213487 L9,6.53700433 C9,6.26086196 9.22385763,6.03700433 9.5,6.03700433 Z" id="形状结合"></path>
            </g>
        </g>
    </g>
</svg>