<?xml version="1.0" encoding="UTF-8"?>
<svg width="16px" height="16px" viewBox="0 0 16 16" version="1.1" xmlns="http://www.w3.org/2000/svg" xmlns:xlink="http://www.w3.org/1999/xlink">
    <title>收起</title>
    <g id="设计方案" stroke="none" stroke-width="1" fill="none" fill-rule="evenodd">
        <g id="收起" fill="#999999" fill-rule="nonzero">
            <path d="M15.4285714,7.41996112 C15.7441627,7.41996112 16,7.67579841 16,7.9913897 C16,8.30698098 15.7441627,8.56281827 15.4285714,8.56281827 L7.57142857,8.56281827 C7.25583729,8.56281827 7,8.30698098 7,7.9913897 C7,7.67579841 7.25583729,7.41996112 7.57142857,7.41996112 L15.4285714,7.41996112 Z M15.4285714,1.5 C15.7441627,1.5 16,1.75583729 16,2.07142857 C16,2.38701986 15.7441627,2.64285714 15.4285714,2.64285714 L0.571428571,2.64285714 C0.255837286,2.64285714 0,2.38701986 0,2.07142857 C0,1.75583729 0.255837286,1.5 0.571428571,1.5 L15.4285714,1.5 Z M15.4285714,13.3571429 C15.7441627,13.3571429 16,13.6129801 16,13.9285714 C16,14.2441627 15.7441627,14.5 15.4285714,14.5 L0.571428571,14.5 C0.255837286,14.5 0,14.2441627 0,13.9285714 C0,13.6129801 0.255837286,13.3571429 0.571428571,13.3571429 L15.4285714,13.3571429 Z M2.79973338,6.30649955 C2.82864447,6.31752188 2.856519,6.33082204 2.88338832,6.34649893 C2.92425068,6.37074974 2.96306828,6.40049335 2.99840856,6.43583362 L5.01871365,8.45613871 C5.24187039,8.67929545 5.24187039,9.04110401 5.01871365,9.26426075 C4.79555691,9.48741748 4.43374835,9.48741748 4.21059161,9.26426075 L2.59494215,7.64910752 L0.979431744,9.26473997 C0.756275005,9.48789671 0.394466446,9.48789671 0.171309708,9.26473997 C-0.0518470303,9.04158323 -0.0518470303,8.67977467 0.171309708,8.45661793 L2.17917815,6.44724985 C2.18281737,6.44340583 2.18652017,6.43959998 2.19028652,6.43583362 C2.35505458,6.27106556 2.59541042,6.22795421 2.79973338,6.30649955 Z" transform="translate(8.000000, 8.000000) scale(-1, 1) translate(-8.000000, -8.000000) "></path>
        </g>
    </g>
</svg>