<?xml version="1.0" encoding="UTF-8"?>
<svg width="16px" height="16px" viewBox="0 0 16 16" version="1.1" xmlns="http://www.w3.org/2000/svg" xmlns:xlink="http://www.w3.org/1999/xlink">
    <title>icon/搜索</title>
    <g id="设计方案" stroke="none" stroke-width="1" fill="none" fill-rule="evenodd">
        <g id="菜单样式" transform="translate(-228.000000, -173.000000)" fill="#999999" fill-rule="nonzero">
            <g id="左侧菜单-数据模型" transform="translate(42.000000, 41.000000)">
                <g id="数据模型-默认状态" transform="translate(0.000000, 118.000000)">
                    <g id="搜索" transform="translate(182.000000, 10.000000)">
                        <path d="M10.8566378,4 C14.6434542,4 17.7132755,7.06990582 17.7132755,10.8568266 C17.7132755,12.5448034 17.1033544,14.0903217 16.0918801,15.2850078 L19.8326334,19.0245693 C20.0557737,19.2476942 20.0557911,19.6094686 19.8326723,19.8326151 C19.6095094,20.0557841 19.2477251,20.0557928 19.0245709,19.832654 L15.2846971,16.092213 C14.0900439,17.1037152 12.5445682,17.7136531 10.8566378,17.7136531 C7.06982129,17.7136531 4,14.6437473 4,10.8568266 C4,7.06990582 7.06982129,4 10.8566378,4 Z M10.8566378,5.14280443 C7.70095737,5.14280443 5.14277296,7.70105928 5.14277296,10.8568266 C5.14277296,14.0125938 7.70095737,16.5708487 10.8566378,16.5708487 C14.0123182,16.5708487 16.5705026,14.0125938 16.5705026,10.8568266 C16.5705026,7.70105928 14.0123182,5.14280443 10.8566378,5.14280443 Z" id="icon/搜索"></path>
                    </g>
                </g>
            </g>
        </g>
    </g>
</svg>