<?xml version="1.0" encoding="UTF-8"?>
<svg width="14px" height="14px" viewBox="0 0 14 14" version="1.1" xmlns="http://www.w3.org/2000/svg" xmlns:xlink="http://www.w3.org/1999/xlink">
    <title>创建时间-2</title>
    <g id="设计方案（6.4）" stroke="none" stroke-width="1" fill="none" fill-rule="evenodd">
        <g id="详情信息展示适配" transform="translate(-476.000000, -367.000000)" fill-rule="nonzero">
            <g id="Content" transform="translate(400.000000, 70.000000)">
                <g id="权限设置" transform="translate(0.000000, 125.500000)">
                    <g id="编组" transform="translate(0.000000, 76.500000)">
                        <g id="列表备份" transform="translate(22.000000, 42.000000)">
                            <g id="列表1备份" transform="translate(0.000000, 40.000000)">
                                <g id="创建时间-2" transform="translate(54.000000, 13.000000)">
                                    <path d="M12.386172,2.45238517 C13.046273,3.22015651 13.5334974,4.12132829 13.8099934,5.09726524 C13.8802731,5.34532863 13.7350955,5.60309924 13.4857303,5.67301201 C13.2363651,5.74292478 12.9772417,5.59850517 12.906962,5.35044177 C12.6675341,4.50534252 12.2454232,3.72460485 11.6731717,3.05901227 C11.5047771,2.86315054 11.5278769,2.56857513 11.7247665,2.40105968 C11.9216561,2.23354424 12.2177775,2.25652344 12.386172,2.45238517 Z M12.0288536,10.520832 L12.0653554,10.4643129 C12.0782276,10.425396 12.096505,10.3875334 12.120396,10.3517528 C12.5471743,9.71258231 12.8483743,8.99921334 13.0064958,8.24481785 L13.0590504,7.9600612 C13.0618018,7.94429353 13.0641389,7.92836121 13.0664142,7.91240667 C13.1028046,7.65723463 13.3402483,7.4797231 13.5967595,7.51592357 C13.8247694,7.54810176 13.9910959,7.7383075 13.9996843,7.95939366 L13.9953233,8.04350016 C13.5044963,11.4852095 10.5263867,14.0326192 7.03657708,13.9996843 C6.40146309,13.9996843 5.78600175,13.9159806 5.20073257,13.7590578 L4.90333013,13.6720984 C4.78127534,13.6335134 4.66049865,13.5916538 4.5411172,13.5465983 L4.25198841,13.4301929 L3.95137061,13.2926211 C3.7580164,13.1986905 3.56993284,13.0963456 3.38740052,12.9860107 L3.04347759,12.764178 L2.8015093,12.5903794 L2.68218213,12.4988017 L2.51932689,12.3670539 L2.41143238,12.2752552 L2.29284184,12.1699195 C1.44568565,11.3996432 0.789520124,10.4286359 0.400163544,9.33247047 L0.288597424,8.99004848 L0.248530191,8.85038816 L0.200087433,8.66369183 L0.132033817,8.35629426 L0.0692995014,7.98570204 L0.0524283188,7.85857483 L0.0177217111,7.5004562 L0.00634741976,7.29966635 C0.00213544729,7.20064611 0,7.1004922 0,6.99984214 C0,5.97064388 0.223284635,4.99332427 0.624293945,4.11320544 L0.743403307,3.86517185 C0.798111316,3.75668139 0.855599955,3.64974365 0.915785231,3.54445615 C1.0144107,3.37175004 1.12055678,3.20326529 1.23350212,3.03979148 L1.27557807,2.97964102 C1.45915066,2.71974165 1.65994135,2.4729971 1.87636411,2.24087943 L1.93721785,2.17642416 L2.14465407,1.96832496 L2.39897434,1.73527695 C3.1754858,1.05782889 4.10309041,0.54769377 5.12496695,0.26139651 L5.46347594,0.175585867 C5.55608853,0.154546793 5.64939699,0.135325425 5.74336139,0.117961501 L5.44223055,0.180553446 C5.55494168,0.154572994 5.6683606,0.131360407 5.78241184,0.110939035 L6.05876362,0.0670901152 L6.41984719,0.0265420483 L6.74810605,0.0057822477 C6.84352971,0.00194248893 6.93982536,0 7.03657708,0 C8.06695122,0 9.06685489,0.22075345 9.98272998,0.641348924 C10.2179548,0.749370764 10.3206137,1.02663169 10.212025,1.26062854 C10.1034362,1.49462539 9.82472023,1.59674831 9.58949537,1.48872647 C8.79628458,1.12446188 7.93047172,0.933312285 7.03657708,0.933312285 L6.79805792,0.937867257 L6.51083467,0.955513906 L6.24998049,0.983257548 L6.10079921,1.00422091 L5.86127579,1.04587608 C4.9693345,1.21910643 4.1469527,1.58573872 3.44004751,2.10009551 L3.22694699,2.26238011 C3.00462605,2.43954517 2.7953931,2.63158086 2.60067868,2.83681872 L2.35843508,3.10787011 L2.2263075,3.27041608 L2.1398082,3.38334307 L2.05596556,3.49826272 L1.90588494,3.71921705 C1.79323263,3.8931754 1.68940045,4.07303821 1.59495181,4.25814837 C1.20609075,5.02042287 0.97417389,5.87605044 0.942059778,6.78225519 L0.938210158,6.99984214 L0.945467405,7.29841742 L0.968161854,7.60488703 L1.00409484,7.89469114 L1.04078038,8.11421376 L1.0595514,8.20992519 C1.07956998,8.30829381 1.10198151,8.40579914 1.1267231,8.50237848 L1.21092057,8.79907245 L1.26523625,8.96528296 L1.29608257,9.05221396 C1.70824867,10.192667 2.4542231,11.1748128 3.4171316,11.8821405 L3.56108747,11.9854977 L3.7816963,12.1302174 L3.92581655,12.2181049 L4.15565085,12.3473243 L4.28924612,12.4165748 L4.42475308,12.4826199 L4.56656295,12.547371 L4.71029959,12.6085981 L4.84752575,12.6639449 C4.95083742,12.7034857 5.05536177,12.7402539 5.16099667,12.7741813 L4.93333595,12.695152 C5.59013981,12.9352828 6.30008419,13.0663884 7.04102443,13.066393 C7.26046232,13.0684626 7.47754781,13.0587719 7.69162893,13.0378786 L7.72119502,13.0299251 L7.75195001,13.0251189 C8.63368678,12.9227156 9.47274865,12.6313518 10.2207727,12.1748346 C10.259915,12.1509461 10.3011942,12.1334543 10.3433775,12.1220653 L10.5232229,12.0048316 C11.0237787,11.6607169 11.4705393,11.2425463 11.8467216,10.7646758 L12.0288536,10.520832 Z" id="形状" fill="#2E69F0"></path>
                                    <path d="M7.14483212,6.24601299 C8.10143379,6.24601299 8.87691266,5.47458257 8.87691266,4.52297492 C8.87691266,3.57136727 8.10143379,2.79993686 7.14483212,2.79993686 C6.18823044,2.79993686 5.41275157,3.57136727 5.41275157,4.52297492 L5.41275157,4.52297492 C5.41275157,5.47458257 6.18823044,6.24601299 7.14483212,6.24601299 L7.14483212,6.24601299 Z" id="路径_4228" fill="#A0BBF9"></path>
                                    <path d="M5.99011175,6.82035901 L8.29955248,6.82035901 C9.25615415,6.82035901 10.031633,7.59178943 10.031633,8.54339707 L10.031633,9.69208912 C10.031633,10.0092917 9.77314007,10.2664351 9.45427284,10.2664351 L4.83539139,10.2664351 C4.51652416,10.2664351 4.2580312,10.0092917 4.2580312,9.69208912 L4.2580312,8.54339707 C4.2580312,7.59178943 5.03351008,6.82035901 5.99011175,6.82035901 Z" id="矩形_18010" fill="#2E69F0"></path>
                                </g>
                            </g>
                        </g>
                    </g>
                </g>
            </g>
        </g>
    </g>
</svg>