<?xml version="1.0" standalone="no"?><!DOCTYPE svg PUBLIC "-//W3C//DTD SVG 1.1//EN" "http://www.w3.org/Graphics/SVG/1.1/DTD/svg11.dtd"><svg t="1655888320645" class="icon" viewBox="0 0 1024 1024" version="1.1" xmlns="http://www.w3.org/2000/svg" p-id="5732" xmlns:xlink="http://www.w3.org/1999/xlink" width="200" height="200"><defs><style type="text/css"></style></defs><path d="M1005.119791 18.880209l-3.2-2.879999a43.199991 43.199991 0 0 0-6.079998-5.119999A63.999987 63.999987 0 0 0 959.9998 0.000213H63.999987a63.999987 63.999987 0 0 0-63.999987 63.999987v895.999813a63.999987 63.999987 0 0 0 63.999987 63.999987h895.999813a63.999987 63.999987 0 0 0 63.999987-63.999987V64.0002a63.999987 63.999987 0 0 0-18.879996-45.119991zM469.333236 960.000013H63.999987V298.666818h405.333249v661.333195z m490.666564 0H554.666551V298.666818h405.333249v661.333195z" fill="#B44C97" p-id="5733"></path></svg>