<svg xmlns="http://www.w3.org/2000/svg" width="16.5" height="17.001" viewBox="0 0 16.5 17.001"><g transform="translate(0.5 0.5)"><rect width="2" height="4" transform="translate(12)" fill="#7d8493" stroke="rgba(0,0,0,0)" stroke-miterlimit="10" stroke-width="1"/><rect width="2" height="16" fill="#7d8493" stroke="rgba(0,0,0,0)" stroke-miterlimit="10" stroke-width="1"/><rect width="7" height="2" transform="translate(0 14.001)" fill="#7d8493" stroke="rgba(0,0,0,0)" stroke-miterlimit="10" stroke-width="1"/><rect width="14" height="2" fill="#7d8493" stroke="rgba(0,0,0,0)" stroke-miterlimit="10" stroke-width="1"/><rect width="3" height="2" transform="translate(3 4)" fill="#7d8493" stroke="rgba(0,0,0,0)" stroke-miterlimit="10" stroke-width="1"/><path d="M147.056,329.555l-1.991-2.348a4.537,4.537,0,0,0-.23-5.512,4.236,4.236,0,0,0-6.078-.432,4.509,4.509,0,0,0-.421,6.239,4.255,4.255,0,0,0,3.254,1.513,4.13,4.13,0,0,0,2.02-.521l2,2.358a.91.91,0,0,0,1.311.088l.038-.029A.99.99,0,0,0,147.056,329.555Zm-7.274-3.35a2.482,2.482,0,0,1,.239-3.458,2.327,2.327,0,0,1,1.56-.6,2.376,2.376,0,0,1,1.809.835,2.5,2.5,0,0,1-.239,3.468A2.341,2.341,0,0,1,139.781,326.2Z" transform="translate(-131.28 -315.178)" fill="#7d8493"/></g></svg>