<svg xmlns="http://www.w3.org/2000/svg" viewBox="0 0 16 16"><defs><style>.fecacb4d-ba3b-4903-8917-86a27f0a080f{fill:#b2d1ff;}.a5064462-c15a-45a6-b8e7-a1390522195e{fill:#4386f5;}</style></defs><title>资源 130</title><g id="aa5ca3c0-5041-4a7f-ab5a-9e5a21e1895a" data-name="图层 2"><g id="ee52c85f-ee5d-426c-b2ca-37ea8808fcaf" data-name="dam 图标"><path class="fecacb4d-ba3b-4903-8917-86a27f0a080f" d="M11,15.4a7.51,7.51,0,0,1-8.13-1.48A2.06,2.06,0,0,1,2,14.1a2,2,0,1,1,2-2,2,2,0,0,1-.39,1.19A6.51,6.51,0,0,0,8,15a6.4,6.4,0,0,0,2.56-.52.5.5,0,1,1,.4.92Z"/><path class="fecacb4d-ba3b-4903-8917-86a27f0a080f" d="M.72,8.18A7.56,7.56,0,0,1,1.65,5.3,7.47,7.47,0,0,1,6,1.83,2,2,0,0,1,6.26,1,2,2,0,0,1,9.74,3a2,2,0,0,1-3.57-.16,6.5,6.5,0,0,0-3.65,3,6.4,6.4,0,0,0-.8,2.48.5.5,0,1,1-1-.1Z"/><path class="fecacb4d-ba3b-4903-8917-86a27f0a080f" d="M12.32,2.7a7.39,7.39,0,0,1,2,2.25,7.47,7.47,0,0,1,.81,5.51,2.07,2.07,0,0,1,.58.63A2,2,0,1,1,13,10.37a2.06,2.06,0,0,1,1.23-.27,6.51,6.51,0,0,0-.75-4.65,6.35,6.35,0,0,0-1.74-1.94.52.52,0,0,1-.11-.71A.51.51,0,0,1,12.32,2.7Z"/><circle class="a5064462-c15a-45a6-b8e7-a1390522195e" cx="8" cy="8.41" r="3"/></g></g></svg>