<svg xmlns="http://www.w3.org/2000/svg" width="187.353" height="147.97" viewBox="0 0 187.353 147.97"><circle cx="72.88" cy="72.88" r="72.88" transform="translate(18.23 2.21)" fill="#f7f7f7"/><rect width="77.04" height="88.59" rx="3.71" transform="translate(52.59 35.14)" fill="#e0e0e0"/><path d="M106.51,31.29H96.84a5.311,5.311,0,0,0-5.27-4.84h-.93a5.29,5.29,0,0,0-5.26,4.84H75.7a3.85,3.85,0,0,0,0,7.7h30.81a3.85,3.85,0,0,0,0-7.7Z" fill="#7d8493"/><circle cx="2.5" cy="2.5" r="2.5" transform="translate(88.61 30.22)" fill="#eee"/><rect width="65.48" height="75.3" rx="3.15" transform="translate(58.37 43.57)" fill="#fdfdfd"/><path d="M20.6,6.17h-4v-4a2.17,2.17,0,1,0-4.34,0v4h-4a2.17,2.17,0,0,0,0,4.33h4v4a2.17,2.17,0,0,0,4.34,0v-4h4a2.17,2.17,0,0,0,0-4.33Z" fill="#efefef"/><path d="M186.1,72h-2.52V69.49a1.37,1.37,0,0,0-2.73-.234,1.306,1.306,0,0,0,0,.234V72h-2.52a1.37,1.37,0,0,0-.234,2.73,1.307,1.307,0,0,0,.234,0h2.52v2.52a1.37,1.37,0,0,0,2.73,0V74.74h2.52a1.37,1.37,0,0,0,0-2.73Z" fill="#d8d8d8"/><circle cx="4.78" cy="4.78" r="4.78" transform="translate(0 62.95)" fill="#efefef"/><circle cx="2.39" cy="2.39" r="2.39" transform="translate(162 27.44)" fill="#e5e5e5"/><rect width="25.62" height="6" rx="3" transform="translate(68.11 57.73)" fill="#ccc"/><rect width="46" height="6" rx="2.965" transform="translate(68.11 73.497)" fill="#ccc"/><rect width="46" height="6" rx="2.965" transform="translate(68.11 89.265)" fill="#ccc"/><path d="M113.487,67.2a2.161,2.161,0,0,1-3.03,0l-3.44-3.44-3.44,3.44a2.155,2.155,0,0,1-3.03,0,2.161,2.161,0,0,1,0-3.03l3.44-3.44-3.44-3.44a2.155,2.155,0,0,1,0-3.03,2.161,2.161,0,0,1,3.03,0l3.44,3.44,3.44-3.44a2.155,2.155,0,0,1,3.03,0,2.161,2.161,0,0,1,0,3.03l-3.44,3.44,3.44,3.44A2.153,2.153,0,0,1,113.487,67.2Z" fill="#fa5555"/></svg>