<?xml version="1.0" encoding="UTF-8"?>
<svg width="120px" height="120px" viewBox="0 0 120 120" version="1.1" xmlns="http://www.w3.org/2000/svg" xmlns:xlink="http://www.w3.org/1999/xlink">
    <title>approved</title>
    <g id="英文" stroke="none" stroke-width="1" fill="none" fill-rule="evenodd">
        <g id="运营管理---运营报告备份" transform="translate(-1253.000000, -113.000000)" fill="#80DB6B" fill-rule="nonzero">
            <g id="approved" transform="translate(1253.000000, 113.000000)">
                <path d="M30.7612546,106.818556 C40.0720169,112.6221 50.948572,115.536464 61.9137006,115.165829 L30.7612546,106.818556 Z M23.0736386,101.033692 C24.5509268,102.363643 26.0917999,103.60519 27.687854,104.756081 L65.6081352,114.916216 C67.5649397,114.717573 69.5192838,114.412923 71.462775,114.000016 L23.0736386,101.033692 Z M10.947,91.58 L14.0487006,96.951578 C15.8803377,100.124067 19.8203117,101.320398 23.0769755,99.7925538 L73.9230424,113.417641 C75.3758089,113.038132 76.820438,112.596925 78.2533658,112.093065 L26.049,98.105 L23.8732544,99.3622729 C20.3802998,101.378931 15.913876,100.182157 13.8972177,96.6892019 L10.947,91.58 Z M30.459,95.559 L27.52,97.256 L80.1930274,111.36972 C81.3805657,110.90124 82.5588121,110.388739 83.7256892,109.831658 L30.459,95.559 Z M34.869,93.013 L31.928,94.711 L85.3477046,109.024622 C86.1025833,108.633608 86.8522,108.223469 87.595976,107.794049 L88.3551467,107.34627 L34.869,93.013 Z M39.277,90.468 L36.338,92.165 L89.7580115,106.480059 C90.6535608,105.90771 91.527344,105.313288 92.3790583,104.697921 L39.277,90.468 Z M43.684,87.924 L40.746,89.62 L93.6057175,103.785599 C94.3949886,103.181449 95.1641792,102.558866 95.913029,101.91882 L43.684,87.924 Z M47.673,85.621 L45.154,87.075 L96.9979906,100.966539 C97.6972787,100.336297 98.3777265,99.6904196 99.0391044,99.0297641 L64.2296838,89.7024079 L64.4629134,89.6672366 C58.1223079,90.6190258 51.6617577,89.4954456 46.0536462,86.5570452 L47.673,85.621 Z M71.2672286,87.8005843 C69.7566538,88.4149164 68.2173428,88.897302 66.6638766,89.2516481 L66.9433356,89.1873442 L99.99991,98.0455955 C100.621601,97.3925783 101.225336,96.7261232 101.810907,96.0470068 L71.1768009,87.8376311 L71.2672286,87.8005843 Z M99.4191553,23.225447 L99.2362251,23.3251645 L9.78896336,74.9675652 C7.85347334,76.0850209 7.15176966,78.5187876 8.16177671,80.4852274 L8.26149423,80.6681576 L16.6077408,95.1242807 C17.7251965,97.0597707 20.1589632,97.7614744 22.125403,96.7514674 L22.3083332,96.6517498 L111.755595,45.0093492 C113.691085,43.8918935 114.392789,41.4581267 113.382782,39.491687 L113.283064,39.3087568 L104.936818,24.8526337 C103.819362,22.9171436 101.385595,22.21544 99.4191553,23.225447 Z M76.1789754,85.2566361 C75.7928576,85.5035242 75.3992917,85.7428607 74.9983601,85.9743387 C74.4727297,86.2778115 73.941732,86.5635668 73.4060586,86.8317897 L72.872,87.092 L72.9295669,87.0654273 L102.663792,95.03334 C103.216591,94.3599676 103.752065,93.6749494 104.270021,92.9790029 L75.9633942,85.3930813 L76.1789754,85.2566361 Z M79.689953,82.6336073 C79.1177104,83.1302603 78.5232335,83.6080093 77.9069248,84.0653525 L77.2941334,84.5080335 L105.026249,91.9376271 C105.515672,91.2467675 105.988258,90.5458004 106.443827,89.8353963 L79.6606956,82.6582352 L79.689953,82.6336073 Z M82.6086932,79.7214105 L82.4441713,79.9098097 C81.9230175,80.4970562 81.3764032,81.0661787 80.8047993,81.6154198 L80.7168927,81.6985892 L107.109335,88.7710987 C107.541154,88.0626832 107.956394,87.3454445 108.354883,86.6200225 L82.6086932,79.7214105 Z M48.5574364,85.1108528 C56.3933842,88.6737101 65.7755844,88.5283538 73.7985871,83.896271 C81.8215899,79.2641882 86.6385723,71.2116426 87.4710212,62.6440841 L89.975382,61.1981913 C89.9669528,61.4039199 89.9564105,61.6094695 89.9437642,61.8148069 L114.548534,68.4063117 C114.671923,67.6091112 114.777972,66.8088634 114.866519,66.0061689 L92.175421,59.9271798 L48.5574364,85.1108528 Z M84.9713442,76.6282984 C84.5541674,77.2557392 84.1121805,77.8690166 83.6458152,78.4665199 L83.4556625,78.7058531 L108.935936,85.5337056 C109.312866,84.8097028 109.67339,84.0780345 110.017341,83.3393163 L84.9713442,76.6282984 Z M86.8387802,73.400009 C86.5017371,74.0765289 86.1386661,74.7413279 85.7500116,75.3927477 L85.6440728,75.5662108 L110.518294,82.2317784 C110.842824,81.4927884 111.150993,80.7471734 111.442641,79.9955328 L86.8387802,73.400009 Z M46.2038094,36.1007139 C37.89633,40.8970394 33.0262575,49.3606911 32.4578886,58.2660698 L30.0038453,59.6821177 C30.0132893,58.8603098 30.0565101,58.0405845 30.13294,57.2250601 L30.1553044,56.9724354 C30.1139882,57.3763627 30.0808222,57.7813769 30.0558757,58.1872197 L5.45308229,51.5957163 C5.32983606,52.3924798 5.22391076,53.1922858 5.135467,53.9945349 L28.8499905,60.3483167 L27.3803454,61.1968167 L5.01546912,55.2049265 C4.94401416,56.0163993 4.89042487,56.8300512 4.85486607,57.645267 L24.4410552,62.8938167 L22.97141,63.7423167 L4.81489628,58.877389 C4.79729755,59.7049752 4.79830135,60.5338496 4.8180792,61.3633722 L20.0321198,65.4393167 L18.5642068,66.2868167 L4.86219783,62.6155749 C4.90156334,63.4596733 4.96043478,64.304109 5.03899254,65.1482085 L15.6240505,67.9843167 L14.1544054,68.8328167 L5.17308624,66.4266234 C5.27363919,67.2879151 5.39480838,68.1485021 5.53678581,69.0076676 L11.2159812,70.5293167 L9.74720213,71.3773167 L5.76847401,70.3115304 C5.93600624,71.1923869 6.1255961,72.0713609 6.33745169,72.9476758 L6.95434571,73.1134149 C4.46881357,75.1996356 3.71489472,78.7893689 5.26845592,81.7334508 L5.39948827,81.9707028 L5.532,82.201 L5.42660354,82.0088352 C3.58627889,78.5511726 4.80540567,74.2307928 8.22404213,72.2570421 L72.271,35.279 L71.8573602,35.0777471 C63.9397793,31.3195474 54.3680565,31.3870837 46.2038094,36.1007139 Z M88.2599171,70.0553062 C87.9901903,70.8143625 87.6898899,71.5630652 87.3595593,72.2993869 L111.866674,78.8664548 C112.140468,78.1126218 112.397821,77.3531176 112.638574,76.5885331 L88.2599171,70.0553062 Z M89.2601713,66.6000707 C89.0841075,67.3795121 88.8771358,68.151732 88.6397871,68.9147486 L112.98636,75.4409222 C113.210237,74.6723809 113.417477,73.8990659 113.607923,73.1215656 L89.2601713,66.6000707 Z M89.8443042,63.02847 C89.7621117,63.8313722 89.6477164,64.6299777 89.5016617,65.4222584 L113.880636,71.9537812 C114.054499,71.1712126 114.211445,70.3847424 114.351314,69.5949615 L89.8443042,63.02847 Z M96.585,57.381 L93.646,59.078 L114.986539,64.7964667 C115.058085,63.9847082 115.111752,63.1707679 115.147376,62.3552617 L96.585,57.381 Z M100.993,54.836 L98.055,56.532 L115.187433,61.1227543 C115.205061,60.2960144 115.204125,59.4679881 115.184453,58.6393136 L100.993,54.836 Z M105.401,52.291 L102.462071,53.9881798 L115.140355,57.3847697 C115.10109,56.5417224 115.042368,55.6983377 114.96401,54.8552866 L105.401,52.291 Z M8.13438272,41.1342205 C7.86080424,41.8876253 7.60364785,42.6466937 7.36307157,43.4108359 L31.7399429,49.9431432 C31.6057271,50.3208487 31.4790814,50.7011179 31.3600729,51.0837008 L7.01487629,44.5600448 C6.79105685,45.3286026 6.5838745,46.1019331 6.39348695,46.8794478 L30.7387882,53.4023668 C30.6505612,53.7931976 30.5701049,54.1858432 30.4974865,54.5800536 L6.12052867,48.048752 C5.9468721,48.8307665 5.79010917,49.6166755 5.65039788,50.4058894 L30.1553044,56.9724354 L30.13294,57.2250601 C30.4386596,53.9629623 31.2757251,50.7680773 32.6078127,47.7759685 L32.749,47.461 L32.6397954,47.7001888 L8.13438272,41.1342205 Z M110.015,49.627 L106.871006,51.4426798 L114.829883,53.5752677 C114.7294,52.7139025 114.608298,51.8532409 114.466384,50.9939995 L109.80943,49.7461798 L110.015,49.627 Z M9.48209679,37.7697742 C9.15778925,38.5084383 8.84982741,39.2537198 8.55837166,40.0050202 L33.1610798,46.5984404 L32.8947622,47.1468674 L32.818,47.311 L32.9790564,46.9740038 C33.4261155,46.0443442 33.9218618,45.1359673 34.4651636,44.2530965 L34.3532506,44.433703 L9.48209679,37.7697742 Z M11.064823,34.4664257 C10.6878514,35.1906207 10.3272949,35.922484 9.9833184,36.6613994 L35.0273713,43.3718727 L34.9318161,43.5163476 L35.326045,42.9326641 C35.6006374,42.5354134 35.885248,42.1440914 36.1798155,41.7591338 L36.6154725,41.2025261 L36.5423308,41.2932203 L11.064823,34.4664257 Z M12.8912808,31.2288078 C12.4594283,31.9373781 12.0441607,32.6547739 11.6456497,33.3803551 L37.3890028,40.2780763 L37.34,40.335 L37.7329157,39.8920667 C38.2997129,39.2645992 38.8959222,38.6583378 39.5209571,38.0754714 L39.2811747,38.3006155 L12.8912808,31.2288078 Z M14.9748556,28.061182 C14.4848089,28.752981 14.0116448,29.4549139 13.5555438,30.1663074 L40.3360412,37.3421866 L40.299,37.374 L40.7674387,36.9763941 C41.4178251,36.4343366 42.0956682,35.9162235 42.8004119,35.4241306 L42.7037538,35.4915834 L14.9748556,28.061182 Z M17.3355091,24.9674155 C16.7827737,25.6408325 16.2473643,26.3258941 15.7294731,27.0218827 L44.0347776,34.6063 L43.892,34.696 L44.4425382,34.3548575 C44.6280652,34.2423991 44.8152341,34.1316513 45.0040365,34.0226462 C45.6972336,33.6224287 46.3997656,33.2530258 47.1100463,32.9140125 L47.0677566,32.9344866 L17.3355091,24.9674155 Z M39.8027706,8.62986837 C38.615374,9.09846887 37.4372714,9.61108458 36.2705397,10.168272 L90.5664249,24.7163167 L89.0967798,25.5648167 L34.6502516,10.9746632 C33.8968736,11.3649854 33.1487382,11.7743581 32.4064206,12.2029354 L31.6385496,12.6542428 L86.1583556,27.2613167 L84.6878444,28.1103167 L30.2393281,13.5201583 C29.3434578,14.0928475 28.4693736,14.6876286 27.6173789,15.3033698 L81.7494202,29.8068167 L80.2815072,30.6543167 L26.3902585,16.2163013 C25.6016054,16.8201613 24.8330076,17.4424286 24.0847249,18.0821337 L77.3413509,32.3518167 L75.8708398,33.2008167 L68.1118155,31.1217924 L68.687044,31.2892385 C70.7808893,31.9222681 72.8072544,32.7833561 74.7254826,33.8616084 L73.592,34.516 L93.5057151,23.0193167 L39.8027706,8.62986837 Z M19.9980379,21.9560628 C19.3766963,22.6088674 18.7732955,23.2750967 18.1880435,23.9539751 L48.8214579,32.1619058 L48.7538628,32.188805 C50.1650057,31.6160172 51.601166,31.158327 53.0504622,30.8125508 L19.9980379,21.9560628 Z M22.9998318,19.0345689 C22.3010594,19.664488 21.6211044,20.3100217 20.9601961,20.9703137 L55.7648596,30.2967976 C59.7115945,29.7351747 63.7003031,29.9757709 67.4967765,30.9558302 L22.9998318,19.0345689 Z M54.3827056,5.08194331 C52.4273464,5.28085723 50.4744605,5.58562791 48.532422,5.99849918 L96.9342279,18.9682183 C95.4589575,17.6397246 93.9202521,16.3994095 92.3264836,15.2495164 L54.3827056,5.08194331 Z M58.0751364,4.83161628 L89.2516955,13.1850089 C79.9347617,7.37469496 69.0490008,4.45797787 58.0751364,4.83161628 Z M91.609306,110.98464 L91.567,111.01 L91.5004312,111.052244 L91.0706252,111.314693 L91.0706252,111.314693 C90.958258,111.382736 90.8450236,111.450733 90.7314861,111.518412 L90.370505,111.731896 L90.0076686,111.94317 L89.9930802,111.951255 L89.1323873,112.439236 C88.5853071,112.743376 88.0354525,113.03805 87.4830152,113.323311 L87.4840313,113.322941 L87.3962431,113.367401 L87.2979803,113.417205 L87.0110333,113.564605 C86.8531604,113.644396 86.6950821,113.723423 86.5368029,113.801688 L86.4249404,113.85664 C86.2375026,113.949061 86.0495756,114.040297 85.8613753,114.130465 C84.7000113,114.686515 83.5302589,115.201341 82.3518645,115.676102 L82.3482207,115.677969 L82.2589483,115.713345 L82.101456,115.776561 L81.8361035,115.881595 C81.6629757,115.949498 81.4896676,116.016541 81.3161845,116.082726 C81.251691,116.106831 81.1873196,116.131258 81.1229244,116.155568 C80.8983246,116.240874 80.6732861,116.324292 80.4479696,116.406276 C79.0516048,116.913684 77.6468263,117.365917 76.2342053,117.763992 L76.2391824,117.763339 L76.2303876,117.765572 L75.457589,117.97797 C74.9360172,118.117387 74.4134497,118.249468 73.8900265,118.374251 C72.0862051,118.803284 70.2737486,119.146291 68.4568624,119.404301 L68.4619071,119.404688 C67.5537997,119.533764 66.6445837,119.641606 65.7349724,119.728404 C65.6524782,119.735051 65.5696665,119.742775 65.486852,119.750325 L65.2088536,119.77626 L65.2088536,119.77626 C62.2398152,120.031281 59.2765588,120.064356 56.335183,119.881559 L56.34457,119.883763 C48.3060526,119.385798 40.4307025,117.275522 33.2202254,113.687368 L33.2345275,113.691757 C30.5953691,112.379151 28.0452284,110.868585 25.608699,109.16665 L25.5971068,109.161788 C24.7044702,108.538028 23.8270897,107.888579 22.966175,107.213764 C21.5296481,106.084563 20.1318308,104.881486 18.7860404,103.608573 L18.7804811,103.607178 C18.194275,103.052638 17.617942,102.484847 17.0519542,101.903931 C16.0356462,100.85704 15.0449294,99.7626973 14.0909,98.6261002 L14.0851027,98.6236796 C13.6486536,98.1036199 13.2198848,97.5747154 12.7990642,97.0370382 C12.0222892,96.0400301 11.2673355,95.0101899 10.5415729,93.9504891 L10.5356409,93.9469951 C10.1953281,93.4499914 9.86143577,92.9464208 9.53414154,92.4363308 C9.02631676,91.6396096 8.52946497,90.8241296 8.04950586,89.9928161 L7.75701046,89.4762036 L7.75026527,89.4745271 C7.47752252,88.9912764 7.21220532,88.5058202 6.954278,88.0182914 C6.45752095,87.073261 5.98382817,86.1174297 5.53781655,85.154738 L5.53401364,85.1534689 C5.31674499,84.684445 5.10604663,84.213793 4.90188825,83.7416259 C4.50652488,82.8200463 4.13241021,81.8913645 3.78305555,80.9577382 L3.77945211,80.9563513 C3.60845454,80.4993012 3.44339057,80.0410663 3.28423367,79.5817459 C2.97525648,78.6814139 2.68551145,77.7754775 2.41833359,76.8661056 L2.41492885,76.8646148 C2.28368632,76.4178297 2.15789108,75.9702155 2.03751929,75.5218613 C1.8038286,74.6407557 1.58759282,73.7542326 1.39224178,72.8655142 L1.38902777,72.8638962 C1.29274712,72.425772 1.20154206,71.9871144 1.11539073,71.5480051 C0.948404312,70.6827338 0.797969428,69.8140552 0.667064741,68.9442427 L0.664208323,68.9435815 C0.599551788,68.5138576 0.539662078,68.0838572 0.484518914,67.6536557 C0.37812564,66.8026162 0.287525708,65.9501051 0.215373639,65.097393 L0.212650658,65.0966536 C0.176920099,64.6741942 0.145717553,64.2516856 0.119023883,63.8291993 C0.068756522,62.9927384 0.0334952108,62.1544991 0.0158374566,61.3169045 L0.013252877,61.3160884 C0.00451667492,60.9009365 0.000105059913,60.4859431 -1.72621654e-07,60.0711761 C0.00229612445,59.2474098 0.0190766565,58.4237014 0.052735544,57.6014215 L0.0502957245,57.6005241 C0.0670560002,57.1914681 0.0879931921,56.7827656 0.113089689,56.3744826 C0.165350401,55.5635527 0.231666721,54.7533599 0.314290188,53.9453415 L0.312004502,53.9443532 C0.353190293,53.5417386 0.398424782,53.1396641 0.447690839,52.7381934 C0.54807748,51.939072 0.662244354,51.141341 0.79228908,50.3465142 L0.790169598,50.3454299 C0.855021542,49.9491647 0.923820074,49.5536214 0.996548388,49.1588628 C1.14374488,48.3720138 1.30453623,47.5871801 1.48085101,46.8059711 L1.4789146,46.8047767 C1.56704054,46.4143936 1.65904297,46.0249158 1.75490523,45.6364055 C1.9485929,44.8600914 2.15586619,44.0864306 2.37846538,43.3171432 L2.3763133,43.3172791 C2.48754929,42.9328882 2.60261175,42.5495893 2.721484,42.1674446 C2.9614914,41.4025097 3.21462532,40.6423604 3.48288385,39.8873324 L3.48078564,39.8875632 C3.61518035,39.5093281 3.75337072,39.1323783 3.89533993,38.7567765 C4.18203255,38.0034839 4.48183423,37.255866 4.79668955,36.5141714 L4.79470806,36.5143284 C4.95291048,36.1416805 5.11491299,35.770528 5.28069843,35.400935 C5.61515575,34.6594638 5.96279232,33.9246026 6.32550166,33.1965286 L6.32349784,33.1969238 C6.50590517,32.830792 6.69212424,32.4663768 6.88213744,32.1037437 C7.26552955,31.3753609 7.66281544,30.6535507 8.0752915,29.9394763 L8.07390591,29.9389484 C8.28138054,29.5798022 8.49269783,29.2226132 8.70783957,28.8674492 C9.1436569,28.1506778 9.59308368,27.4426315 10.0579162,26.7433785 L10.0559953,26.7439169 C10.2903559,26.3913798 10.5286324,26.0410778 10.7708057,25.6930826 C11.2608863,24.9909774 11.765571,24.297919 12.2859758,23.6148458 L12.2845832,23.614809 C12.5476343,23.2695559 12.8147015,22.9268539 13.0857646,22.586779 C13.635007,21.8993769 14.199139,21.2227836 14.7794248,20.5575462 L14.7782773,20.5574184 C15.0724412,20.2202142 15.3707559,19.8859281 15.6731995,19.5546417 C16.2873499,18.8831886 16.9173474,18.2239707 17.5641279,17.5777565 L17.5630585,17.5777551 L17.5904544,17.5502281 L17.6956684,17.4467403 L17.7169108,17.425257 L17.9632768,17.1816788 C18.0973883,17.0502046 18.2322046,16.9192837 18.3677242,16.7889218 L18.4132395,16.7461558 L18.4132395,16.7461558 C18.4621129,16.6982694 18.5120167,16.650531 18.5620151,16.6028684 C19.2495978,15.9483383 19.9532016,15.3088124 20.6744191,14.6842837 L20.6734207,14.6844162 C21.0409149,14.3662115 21.4129819,14.0519005 21.7895952,13.7415822 C22.5598831,13.1074695 23.3481728,12.490192 24.155208,11.8904206 L24.1542907,11.8906817 L24.226737,11.8366067 L24.5474709,11.6009704 L24.9435891,11.3140299 L24.9435891,11.3140299 C25.0279702,11.2537781 25.1124378,11.1934367 25.1971028,11.1332845 C25.2672589,11.0831087 25.3373865,11.0335157 25.4076489,10.9840525 C26.2758296,10.3731496 27.1636469,9.7823237 28.0717333,9.21224377 L28.0700451,9.21317565 C28.4097208,8.9999413 28.7522324,8.78960964 29.0975663,8.58223183 C29.1253716,8.56559141 29.1531251,8.54895323 29.1808968,8.53233414 C29.4536124,8.36910074 29.7281011,8.20775001 30.0043381,8.0482645 L30.0068747,8.04680002 C30.8361471,7.56801934 31.6720994,7.11128863 32.5140524,6.67642598 L32.5522464,6.6567162 C32.7201524,6.57014449 32.8882965,6.484442 33.0566734,6.39960727 L32.978,6.439 L33.3691536,6.24350053 C33.5185822,6.16908816 33.667343,6.09597342 33.8162782,6.02353045 L34.1359482,5.86944904 C35.0065839,5.45213403 35.8816158,5.05839802 36.7613876,4.68742853 L37.6420881,4.32472753 C37.9773939,4.18959524 38.3133997,4.05770695 38.6500657,3.929052 C38.7265814,3.8993123 38.8035133,3.87009046 38.8804792,3.84103719 C39.1032432,3.75746729 39.3260692,3.67488332 39.5491678,3.5937055 C40.6652048,3.18716382 41.7870334,2.81644592 42.9140346,2.48059651 L43.7577092,2.23669685 L44.0026582,2.16743722 C44.1494372,2.12672204 44.2962992,2.0865904 44.4432408,2.04704147 L44.323015,2.08038131 L44.832022,1.94460968 C44.9842111,1.90394895 45.1365252,1.86470076 45.2889182,1.82607508 C45.366964,1.8071187 45.4450995,1.7874868 45.5232552,1.76801835 C48.5713387,1.00777453 51.6502333,0.496961212 54.7322637,0.227300012 L54.7880573,0.223689731 L54.7880573,0.223689731 C58.2342552,-0.0757378649 61.6827199,-0.072605088 65.0961653,0.221343217 C65.1326236,0.226167423 65.168931,0.229328922 65.2052344,0.232523317 L65.5573836,0.262850147 L65.8973415,0.295737612 C65.9496693,0.302669175 66.0019757,0.307950666 66.054273,0.313300469 C67.5593665,0.465479053 69.0568405,0.675947948 70.543432,0.942096308 C70.5786136,0.950314887 70.6142481,0.956729046 70.6498764,0.963175196 C83.8766685,3.35428859 96.234746,10.1554727 105.370122,20.735011 C103.293664,19.3253887 100.534297,19.091216 98.1838942,20.3253033 L97.9336799,20.4631586 L97.9163825,20.4728167 L46.0696884,6.58186941 C44.6182333,6.96131902 43.1749092,7.40236027 41.7432707,7.90594559 L94.9762262,22.1703167 L93.575,22.979 L97.6713039,20.6146415 C101.164259,18.5979831 105.630682,19.7947578 107.647341,23.2877124 L108.279424,24.3826035 C109.592096,26.1665674 110.819586,28.0412279 111.952891,30.0041689 C113.086868,31.9682753 114.097153,33.9698528 114.986162,35.9998812 L114.943,35.924 L115.993587,37.7438355 C118.010245,41.2367902 116.813471,45.703214 113.320516,47.7198723 L111.279075,48.8976798 L114.234711,49.6896021 C114.093245,48.9454864 113.936039,48.2027132 113.762967,47.4617507 C115.891039,46.1480786 117.079667,43.8624992 117.084049,41.5127151 C122.53587,58.292018 120.189987,76.405285 111.32626,91.0744053 C111.312986,91.0936422 111.300945,91.1135444 111.288893,91.1334402 L111.016974,91.5805797 C110.461847,92.479054 109.882056,93.3642565 109.277899,94.2350709 C109.259978,94.2587123 109.243101,94.2830027 109.226204,94.3072819 L108.962837,94.6847633 C108.603683,95.1924025 108.236172,95.6950294 107.860362,96.192419 L107.71274,96.3851049 L107.476492,96.6949135 C107.319774,96.897821 107.161658,97.0998313 107.002149,97.300929 C106.971448,97.3379047 106.941528,97.3755358 106.911559,97.4131349 L106.7081,97.668651 C106.224163,98.2689567 105.727694,98.8609522 105.218805,99.4442154 L105.218352,99.4432916 L105.21565,99.4455188 L105.107476,99.5714497 C105.002207,99.6914143 104.89641,99.8110065 104.790087,99.9302228 L104.91,99.792 L104.774338,99.9464976 C104.625299,100.113498 104.475227,100.279759 104.324124,100.445272 C103.87742,100.935838 103.421286,101.418982 102.956199,101.895307 L102.432798,102.423625 C102.212028,102.64417 101.989304,102.863201 101.764631,103.080689 C101.68699,103.156831 101.608515,103.232375 101.529803,103.307731 C101.497583,103.337617 101.466,103.367789 101.43438,103.397931 C100.748237,104.052876 100.043946,104.692884 99.3220104,105.317868 L99.3225472,105.316671 L98.834519,105.73533 L98.6785058,105.867028 L98.6785058,105.867028 C98.5220541,105.997984 98.3649936,106.128753 98.2071345,106.258821 C97.652703,106.716206 97.0890414,107.163838 96.5156344,107.602521 L95.8421155,108.109914 C95.5966683,108.292305 95.3494875,108.473077 95.1005792,108.652206 L94.7989105,108.868235 L94.7989105,108.868235 L94.5892285,109.016175 C94.0105844,109.423663 93.4235319,109.821751 92.8276847,110.210573 L91.9272784,110.786738 L91.898,110.804 L91.8279219,110.849098 L91.656,110.955 L91.609306,110.98464 Z" id="形状结合" opacity="0.20203218"></path>
                <path d="M37.42,55.28 C38.1533333,55.28 38.8133333,55.41 39.4,55.67 C39.9866667,55.93 40.4866667,56.2866667 40.9,56.74 C41.3133333,57.1933333 41.6266667,57.7266667 41.84,58.34 C42.0533333,58.9533333 42.16,59.6133333 42.16,60.32 C42.16,61.0266667 42.0466667,61.6866667 41.82,62.3 C41.5933333,62.9133333 41.2766667,63.4466667 40.87,63.9 C40.4633333,64.3533333 39.9733333,64.71 39.4,64.97 C38.8266667,65.23 38.2,65.36 37.52,65.36 C37.0666667,65.36 36.6666667,65.3133333 36.32,65.22 C35.9733333,65.1266667 35.6666667,65.0066667 35.4,64.86 C35.1333333,64.7133333 34.9066667,64.5566667 34.72,64.39 C34.5333333,64.2233333 34.38,64.06 34.26,63.9 L34.2,63.9 L34.2,69.68 L31.8,69.68 L31.8,55.52 L34.08,55.52 L34.08,56.96 L34.12,56.96 C34.4666667,56.3733333 34.9333333,55.9466667 35.52,55.68 C36.1066667,55.4133333 36.74,55.28 37.42,55.28 Z M49.02,55.28 C49.7533333,55.28 50.4133333,55.41 51,55.67 C51.5866667,55.93 52.0866667,56.2866667 52.5,56.74 C52.9133333,57.1933333 53.2266667,57.7266667 53.44,58.34 C53.6533333,58.9533333 53.76,59.6133333 53.76,60.32 C53.76,61.0266667 53.6466667,61.6866667 53.42,62.3 C53.1933333,62.9133333 52.8766667,63.4466667 52.47,63.9 C52.0633333,64.3533333 51.5733333,64.71 51,64.97 C50.4266667,65.23 49.8,65.36 49.12,65.36 C48.6666667,65.36 48.2666667,65.3133333 47.92,65.22 C47.5733333,65.1266667 47.2666667,65.0066667 47,64.86 C46.7333333,64.7133333 46.5066667,64.5566667 46.32,64.39 C46.1333333,64.2233333 45.98,64.06 45.86,63.9 L45.8,63.9 L45.8,69.68 L43.4,69.68 L43.4,55.52 L45.68,55.52 L45.68,56.96 L45.72,56.96 C46.0666667,56.3733333 46.5333333,55.9466667 47.12,55.68 C47.7066667,55.4133333 48.34,55.28 49.02,55.28 Z M86.74,55.28 C87.4066667,55.28 88.0166667,55.3966667 88.57,55.63 C89.1233333,55.8633333 89.5966667,56.2 89.99,56.64 C90.3833333,57.08 90.69,57.6233333 90.91,58.27 C91.13,58.9166667 91.24,59.66 91.24,60.5 L91.24,61.16 L83.92,61.16 C84,61.88 84.28,62.44 84.76,62.84 C85.24,63.24 85.82,63.44 86.5,63.44 C87.1,63.44 87.6033333,63.3166667 88.01,63.07 C88.4166667,62.8233333 88.7733333,62.5133333 89.08,62.14 L90.8,63.44 C90.24,64.1333333 89.6133333,64.6266667 88.92,64.92 C88.2266667,65.2133333 87.5,65.36 86.74,65.36 C86.02,65.36 85.34,65.24 84.7,65 C84.06,64.76 83.5066667,64.42 83.04,63.98 C82.5733333,63.54 82.2033333,63.01 81.93,62.39 C81.6566667,61.77 81.52,61.08 81.52,60.32 C81.52,59.56 81.6566667,58.87 81.93,58.25 C82.2033333,57.63 82.5733333,57.1 83.04,56.66 C83.5066667,56.22 84.06,55.88 84.7,55.64 C85.34,55.4 86.02,55.28 86.74,55.28 Z M102.36,50 L102.36,65.12 L100.08,65.12 L100.08,63.68 L100.04,63.68 C99.6933333,64.2666667 99.2266667,64.6933333 98.64,64.96 C98.0533333,65.2266667 97.42,65.36 96.74,65.36 C95.9933333,65.36 95.33,65.23 94.75,64.97 C94.17,64.71 93.6733333,64.3533333 93.26,63.9 C92.8466667,63.4466667 92.5333333,62.9133333 92.32,62.3 C92.1066667,61.6866667 92,61.0266667 92,60.32 C92,59.6133333 92.1133333,58.9533333 92.34,58.34 C92.5666667,57.7266667 92.8833333,57.1933333 93.29,56.74 C93.6966667,56.2866667 94.1866667,55.93 94.76,55.67 C95.3333333,55.41 95.96,55.28 96.64,55.28 C97.0933333,55.28 97.4933333,55.3266667 97.84,55.42 C98.1866667,55.5133333 98.4933333,55.6333333 98.76,55.78 C99.0266667,55.9266667 99.2533333,56.0833333 99.44,56.25 C99.6266667,56.4166667 99.78,56.58 99.9,56.74 L99.96,56.74 L99.96,50 L102.36,50 Z M66.16,55.28 C66.88,55.28 67.56,55.4 68.2,55.64 C68.84,55.88 69.3933333,56.22 69.86,56.66 C70.3266667,57.1 70.6966667,57.63 70.97,58.25 C71.2433333,58.87 71.38,59.56 71.38,60.32 C71.38,61.08 71.2433333,61.77 70.97,62.39 C70.6966667,63.01 70.3266667,63.54 69.86,63.98 C69.3933333,64.42 68.84,64.76 68.2,65 C67.56,65.24 66.88,65.36 66.16,65.36 C65.44,65.36 64.76,65.24 64.12,65 C63.48,64.76 62.9266667,64.42 62.46,63.98 C61.9933333,63.54 61.6233333,63.01 61.35,62.39 C61.0766667,61.77 60.94,61.08 60.94,60.32 C60.94,59.56 61.0766667,58.87 61.35,58.25 C61.6233333,57.63 61.9933333,57.1 62.46,56.66 C62.9266667,56.22 63.48,55.88 64.12,55.64 C64.76,55.4 65.44,55.28 66.16,55.28 Z M25.34,50.96 L31.44,65.12 L28.56,65.12 L27.24,61.88 L21.1,61.88 L19.82,65.12 L17,65.12 L23.16,50.96 L25.34,50.96 Z M60.28,55.28 C60.4266667,55.28 60.57,55.2933333 60.71,55.32 C60.85,55.3466667 60.9933333,55.38 61.14,55.42 L61.14,57.74 C60.94,57.6866667 60.7433333,57.6433333 60.55,57.61 C60.3566667,57.5766667 60.1666667,57.56 59.98,57.56 C59.42,57.56 58.97,57.6633333 58.63,57.87 C58.29,58.0766667 58.03,58.3133333 57.85,58.58 C57.67,58.8466667 57.55,59.1133333 57.49,59.38 C57.43,59.6466667 57.4,59.8466667 57.4,59.98 L57.4,65.12 L55,65.12 L55,55.52 L57.4,55.52 L57.4,57.04 L57.44,57.04 C57.7066667,56.48 58.0866667,56.0466667 58.58,55.74 C59.0733333,55.4333333 59.64,55.28 60.28,55.28 Z M73.94,55.52 L76.5,62.24 L76.54,62.24 L79.12,55.52 L81.58,55.52 L77.8,65.12 L75.24,65.12 L71.32,55.52 L73.94,55.52 Z M36.94,57.44 C36.5,57.44 36.1066667,57.52 35.76,57.68 C35.4133333,57.84 35.1166667,58.0533333 34.87,58.32 C34.6233333,58.5866667 34.4366667,58.8933333 34.31,59.24 C34.1833333,59.5866667 34.12,59.9466667 34.12,60.32 C34.12,60.6933333 34.1833333,61.0533333 34.31,61.4 C34.4366667,61.7466667 34.6233333,62.0533333 34.87,62.32 C35.1166667,62.5866667 35.4133333,62.8 35.76,62.96 C36.1066667,63.12 36.5,63.2 36.94,63.2 C37.38,63.2 37.7733333,63.12 38.12,62.96 C38.4666667,62.8 38.7633333,62.5866667 39.01,62.32 C39.2566667,62.0533333 39.4433333,61.7466667 39.57,61.4 C39.6966667,61.0533333 39.76,60.6933333 39.76,60.32 C39.76,59.9466667 39.6966667,59.5866667 39.57,59.24 C39.4433333,58.8933333 39.2566667,58.5866667 39.01,58.32 C38.7633333,58.0533333 38.4666667,57.84 38.12,57.68 C37.7733333,57.52 37.38,57.44 36.94,57.44 Z M48.54,57.44 C48.1,57.44 47.7066667,57.52 47.36,57.68 C47.0133333,57.84 46.7166667,58.0533333 46.47,58.32 C46.2233333,58.5866667 46.0366667,58.8933333 45.91,59.24 C45.7833333,59.5866667 45.72,59.9466667 45.72,60.32 C45.72,60.6933333 45.7833333,61.0533333 45.91,61.4 C46.0366667,61.7466667 46.2233333,62.0533333 46.47,62.32 C46.7166667,62.5866667 47.0133333,62.8 47.36,62.96 C47.7066667,63.12 48.1,63.2 48.54,63.2 C48.98,63.2 49.3733333,63.12 49.72,62.96 C50.0666667,62.8 50.3633333,62.5866667 50.61,62.32 C50.8566667,62.0533333 51.0433333,61.7466667 51.17,61.4 C51.2966667,61.0533333 51.36,60.6933333 51.36,60.32 C51.36,59.9466667 51.2966667,59.5866667 51.17,59.24 C51.0433333,58.8933333 50.8566667,58.5866667 50.61,58.32 C50.3633333,58.0533333 50.0666667,57.84 49.72,57.68 C49.3733333,57.52 48.98,57.44 48.54,57.44 Z M97.22,57.44 C96.78,57.44 96.3866667,57.52 96.04,57.68 C95.6933333,57.84 95.3966667,58.0533333 95.15,58.32 C94.9033333,58.5866667 94.7166667,58.8933333 94.59,59.24 C94.4633333,59.5866667 94.4,59.9466667 94.4,60.32 C94.4,60.6933333 94.4633333,61.0533333 94.59,61.4 C94.7166667,61.7466667 94.9033333,62.0533333 95.15,62.32 C95.3966667,62.5866667 95.6933333,62.8 96.04,62.96 C96.3866667,63.12 96.78,63.2 97.22,63.2 C97.66,63.2 98.0533333,63.12 98.4,62.96 C98.7466667,62.8 99.0433333,62.5866667 99.29,62.32 C99.5366667,62.0533333 99.7233333,61.7466667 99.85,61.4 C99.9766667,61.0533333 100.04,60.6933333 100.04,60.32 C100.04,59.9466667 99.9766667,59.5866667 99.85,59.24 C99.7233333,58.8933333 99.5366667,58.5866667 99.29,58.32 C99.0433333,58.0533333 98.7466667,57.84 98.4,57.68 C98.0533333,57.52 97.66,57.44 97.22,57.44 Z M66.16,57.44 C65.72,57.44 65.3266667,57.52 64.98,57.68 C64.6333333,57.84 64.3366667,58.0533333 64.09,58.32 C63.8433333,58.5866667 63.6566667,58.8933333 63.53,59.24 C63.4033333,59.5866667 63.34,59.9466667 63.34,60.32 C63.34,60.6933333 63.4033333,61.0533333 63.53,61.4 C63.6566667,61.7466667 63.8433333,62.0533333 64.09,62.32 C64.3366667,62.5866667 64.6333333,62.8 64.98,62.96 C65.3266667,63.12 65.72,63.2 66.16,63.2 C66.6,63.2 66.9933333,63.12 67.34,62.96 C67.6866667,62.8 67.9833333,62.5866667 68.23,62.32 C68.4766667,62.0533333 68.6633333,61.7466667 68.79,61.4 C68.9166667,61.0533333 68.98,60.6933333 68.98,60.32 C68.98,59.9466667 68.9166667,59.5866667 68.79,59.24 C68.6633333,58.8933333 68.4766667,58.5866667 68.23,58.32 C67.9833333,58.0533333 67.6866667,57.84 67.34,57.68 C66.9933333,57.52 66.6,57.44 66.16,57.44 Z M24.18,53.96 L21.96,59.72 L26.36,59.72 L24.18,53.96 Z M86.4,57.08 C85.68,57.08 85.11,57.2866667 84.69,57.7 C84.27,58.1133333 84.0133333,58.6666667 83.92,59.36 L88.84,59.36 C88.8266667,58.6533333 88.6066667,58.0966667 88.18,57.69 C87.7533333,57.2833333 87.16,57.08 86.4,57.08 Z" id="形状结合" transform="translate(59.680000, 59.840000) rotate(-30.000000) translate(-59.680000, -59.840000) "></path>
            </g>
        </g>
    </g>
</svg>