<?xml version="1.0" encoding="UTF-8"?>
<svg width="120px" height="120px" viewBox="0 0 120 120" version="1.1" xmlns="http://www.w3.org/2000/svg" xmlns:xlink="http://www.w3.org/1999/xlink">
    <title>rejected</title>
    <g id="英文" stroke="none" stroke-width="1" fill="none" fill-rule="evenodd">
        <g id="运营管理---运营报告备份" transform="translate(-1396.000000, -113.000000)" fill="#FF8900" fill-rule="nonzero">
            <g id="rejected" transform="translate(1396.000000, 113.000000)">
                <path d="M30.7612546,106.818556 C40.0720169,112.6221 50.948572,115.536464 61.9137006,115.165829 L30.7612546,106.818556 Z M23.0736386,101.033692 C24.5509268,102.363643 26.0917999,103.60519 27.687854,104.756081 L65.6081352,114.916216 C67.5649397,114.717573 69.5192838,114.412923 71.462775,114.000016 L23.0736386,101.033692 Z M10.947,91.58 L14.0487006,96.951578 C15.8803377,100.124067 19.8203117,101.320398 23.0769755,99.7925538 L73.9230424,113.417641 C75.3758089,113.038132 76.820438,112.596925 78.2533658,112.093065 L26.049,98.105 L23.8732544,99.3622729 C20.3802998,101.378931 15.913876,100.182157 13.8972177,96.6892019 L10.947,91.58 Z M30.459,95.559 L27.52,97.256 L80.1930274,111.36972 C81.3805657,110.90124 82.5588121,110.388739 83.7256892,109.831658 L30.459,95.559 Z M34.869,93.013 L31.928,94.711 L85.3477046,109.024622 C86.1025833,108.633608 86.8522,108.223469 87.595976,107.794049 L88.3551467,107.34627 L34.869,93.013 Z M39.277,90.468 L36.338,92.165 L89.7580115,106.480059 C90.6535608,105.90771 91.527344,105.313288 92.3790583,104.697921 L39.277,90.468 Z M43.684,87.924 L40.746,89.62 L93.6057175,103.785599 C94.3949886,103.181449 95.1641792,102.558866 95.913029,101.91882 L43.684,87.924 Z M47.673,85.621 L45.154,87.075 L96.9979906,100.966539 C97.6972787,100.336297 98.3777265,99.6904196 99.0391044,99.0297641 L64.2296838,89.7024079 L64.4629134,89.6672366 C58.1223079,90.6190258 51.6617577,89.4954456 46.0536462,86.5570452 L47.673,85.621 Z M71.2672286,87.8005843 C69.7566538,88.4149164 68.2173428,88.897302 66.6638766,89.2516481 L66.9433356,89.1873442 L99.99991,98.0455955 C100.621601,97.3925783 101.225336,96.7261232 101.810907,96.0470068 L71.1768009,87.8376311 L71.2672286,87.8005843 Z M99.4191553,23.225447 L99.2362251,23.3251645 L9.78896336,74.9675652 C7.85347334,76.0850209 7.15176966,78.5187876 8.16177671,80.4852274 L8.26149423,80.6681576 L16.6077408,95.1242807 C17.7251965,97.0597707 20.1589632,97.7614744 22.125403,96.7514674 L22.3083332,96.6517498 L111.755595,45.0093492 C113.691085,43.8918935 114.392789,41.4581267 113.382782,39.491687 L113.283064,39.3087568 L104.936818,24.8526337 C103.819362,22.9171436 101.385595,22.21544 99.4191553,23.225447 Z M76.1789754,85.2566361 C75.7928576,85.5035242 75.3992917,85.7428607 74.9983601,85.9743387 C74.4727297,86.2778115 73.941732,86.5635668 73.4060586,86.8317897 L72.872,87.092 L72.9295669,87.0654273 L102.663792,95.03334 C103.216591,94.3599676 103.752065,93.6749494 104.270021,92.9790029 L75.9633942,85.3930813 L76.1789754,85.2566361 Z M79.689953,82.6336073 C79.1177104,83.1302603 78.5232335,83.6080093 77.9069248,84.0653525 L77.2941334,84.5080335 L105.026249,91.9376271 C105.515672,91.2467675 105.988258,90.5458004 106.443827,89.8353963 L79.6606956,82.6582352 L79.689953,82.6336073 Z M82.6086932,79.7214105 L82.4441713,79.9098097 C81.9230175,80.4970562 81.3764032,81.0661787 80.8047993,81.6154198 L80.7168927,81.6985892 L107.109335,88.7710987 C107.541154,88.0626832 107.956394,87.3454445 108.354883,86.6200225 L82.6086932,79.7214105 Z M48.5574364,85.1108528 C56.3933842,88.6737101 65.7755844,88.5283538 73.7985871,83.896271 C81.8215899,79.2641882 86.6385723,71.2116426 87.4710212,62.6440841 L89.975382,61.1981913 C89.9669528,61.4039199 89.9564105,61.6094695 89.9437642,61.8148069 L114.548534,68.4063117 C114.671923,67.6091112 114.777972,66.8088634 114.866519,66.0061689 L92.175421,59.9271798 L48.5574364,85.1108528 Z M84.9713442,76.6282984 C84.5541674,77.2557392 84.1121805,77.8690166 83.6458152,78.4665199 L83.4556625,78.7058531 L108.935936,85.5337056 C109.312866,84.8097028 109.67339,84.0780345 110.017341,83.3393163 L84.9713442,76.6282984 Z M86.8387802,73.400009 C86.5017371,74.0765289 86.1386661,74.7413279 85.7500116,75.3927477 L85.6440728,75.5662108 L110.518294,82.2317784 C110.842824,81.4927884 111.150993,80.7471734 111.442641,79.9955328 L86.8387802,73.400009 Z M46.2038094,36.1007139 C37.89633,40.8970394 33.0262575,49.3606911 32.4578886,58.2660698 L30.0038453,59.6821177 C30.0132893,58.8603098 30.0565101,58.0405845 30.13294,57.2250601 L30.1553044,56.9724354 C30.1139882,57.3763627 30.0808222,57.7813769 30.0558757,58.1872197 L5.45308229,51.5957163 C5.32983606,52.3924798 5.22391076,53.1922858 5.135467,53.9945349 L28.8499905,60.3483167 L27.3803454,61.1968167 L5.01546912,55.2049265 C4.94401416,56.0163993 4.89042487,56.8300512 4.85486607,57.645267 L24.4410552,62.8938167 L22.97141,63.7423167 L4.81489628,58.877389 C4.79729755,59.7049752 4.79830135,60.5338496 4.8180792,61.3633722 L20.0321198,65.4393167 L18.5642068,66.2868167 L4.86219783,62.6155749 C4.90156334,63.4596733 4.96043478,64.304109 5.03899254,65.1482085 L15.6240505,67.9843167 L14.1544054,68.8328167 L5.17308624,66.4266234 C5.27363919,67.2879151 5.39480838,68.1485021 5.53678581,69.0076676 L11.2159812,70.5293167 L9.74720213,71.3773167 L5.76847401,70.3115304 C5.93600624,71.1923869 6.1255961,72.0713609 6.33745169,72.9476758 L6.95434571,73.1134149 C4.46881357,75.1996356 3.71489472,78.7893689 5.26845592,81.7334508 L5.39948827,81.9707028 L5.532,82.201 L5.42660354,82.0088352 C3.58627889,78.5511726 4.80540567,74.2307928 8.22404213,72.2570421 L72.271,35.279 L71.8573602,35.0777471 C63.9397793,31.3195474 54.3680565,31.3870837 46.2038094,36.1007139 Z M88.2599171,70.0553062 C87.9901903,70.8143625 87.6898899,71.5630652 87.3595593,72.2993869 L111.866674,78.8664548 C112.140468,78.1126218 112.397821,77.3531176 112.638574,76.5885331 L88.2599171,70.0553062 Z M89.2601713,66.6000707 C89.0841075,67.3795121 88.8771358,68.151732 88.6397871,68.9147486 L112.98636,75.4409222 C113.210237,74.6723809 113.417477,73.8990659 113.607923,73.1215656 L89.2601713,66.6000707 Z M89.8443042,63.02847 C89.7621117,63.8313722 89.6477164,64.6299777 89.5016617,65.4222584 L113.880636,71.9537812 C114.054499,71.1712126 114.211445,70.3847424 114.351314,69.5949615 L89.8443042,63.02847 Z M96.585,57.381 L93.646,59.078 L114.986539,64.7964667 C115.058085,63.9847082 115.111752,63.1707679 115.147376,62.3552617 L96.585,57.381 Z M100.993,54.836 L98.055,56.532 L115.187433,61.1227543 C115.205061,60.2960144 115.204125,59.4679881 115.184453,58.6393136 L100.993,54.836 Z M105.401,52.291 L102.462071,53.9881798 L115.140355,57.3847697 C115.10109,56.5417224 115.042368,55.6983377 114.96401,54.8552866 L105.401,52.291 Z M8.13438272,41.1342205 C7.86080424,41.8876253 7.60364785,42.6466937 7.36307157,43.4108359 L31.7399429,49.9431432 C31.6057271,50.3208487 31.4790814,50.7011179 31.3600729,51.0837008 L7.01487629,44.5600448 C6.79105685,45.3286026 6.5838745,46.1019331 6.39348695,46.8794478 L30.7387882,53.4023668 C30.6505612,53.7931976 30.5701049,54.1858432 30.4974865,54.5800536 L6.12052867,48.048752 C5.9468721,48.8307665 5.79010917,49.6166755 5.65039788,50.4058894 L30.1553044,56.9724354 L30.13294,57.2250601 C30.4386596,53.9629623 31.2757251,50.7680773 32.6078127,47.7759685 L32.749,47.461 L32.6397954,47.7001888 L8.13438272,41.1342205 Z M110.015,49.627 L106.871006,51.4426798 L114.829883,53.5752677 C114.7294,52.7139025 114.608298,51.8532409 114.466384,50.9939995 L109.80943,49.7461798 L110.015,49.627 Z M9.48209679,37.7697742 C9.15778925,38.5084383 8.84982741,39.2537198 8.55837166,40.0050202 L33.1610798,46.5984404 L32.8947622,47.1468674 L32.818,47.311 L32.9790564,46.9740038 C33.4261155,46.0443442 33.9218618,45.1359673 34.4651636,44.2530965 L34.3532506,44.433703 L9.48209679,37.7697742 Z M11.064823,34.4664257 C10.6878514,35.1906207 10.3272949,35.922484 9.9833184,36.6613994 L35.0273713,43.3718727 L34.9318161,43.5163476 L35.326045,42.9326641 C35.6006374,42.5354134 35.885248,42.1440914 36.1798155,41.7591338 L36.6154725,41.2025261 L36.5423308,41.2932203 L11.064823,34.4664257 Z M12.8912808,31.2288078 C12.4594283,31.9373781 12.0441607,32.6547739 11.6456497,33.3803551 L37.3890028,40.2780763 L37.34,40.335 L37.7329157,39.8920667 C38.2997129,39.2645992 38.8959222,38.6583378 39.5209571,38.0754714 L39.2811747,38.3006155 L12.8912808,31.2288078 Z M14.9748556,28.061182 C14.4848089,28.752981 14.0116448,29.4549139 13.5555438,30.1663074 L40.3360412,37.3421866 L40.299,37.374 L40.7674387,36.9763941 C41.4178251,36.4343366 42.0956682,35.9162235 42.8004119,35.4241306 L42.7037538,35.4915834 L14.9748556,28.061182 Z M17.3355091,24.9674155 C16.7827737,25.6408325 16.2473643,26.3258941 15.7294731,27.0218827 L44.0347776,34.6063 L43.892,34.696 L44.4425382,34.3548575 C44.6280652,34.2423991 44.8152341,34.1316513 45.0040365,34.0226462 C45.6972336,33.6224287 46.3997656,33.2530258 47.1100463,32.9140125 L47.0677566,32.9344866 L17.3355091,24.9674155 Z M39.8027706,8.62986837 C38.615374,9.09846887 37.4372714,9.61108458 36.2705397,10.168272 L90.5664249,24.7163167 L89.0967798,25.5648167 L34.6502516,10.9746632 C33.8968736,11.3649854 33.1487382,11.7743581 32.4064206,12.2029354 L31.6385496,12.6542428 L86.1583556,27.2613167 L84.6878444,28.1103167 L30.2393281,13.5201583 C29.3434578,14.0928475 28.4693736,14.6876286 27.6173789,15.3033698 L81.7494202,29.8068167 L80.2815072,30.6543167 L26.3902585,16.2163013 C25.6016054,16.8201613 24.8330076,17.4424286 24.0847249,18.0821337 L77.3413509,32.3518167 L75.8708398,33.2008167 L68.1118155,31.1217924 L68.687044,31.2892385 C70.7808893,31.9222681 72.8072544,32.7833561 74.7254826,33.8616084 L73.592,34.516 L93.5057151,23.0193167 L39.8027706,8.62986837 Z M19.9980379,21.9560628 C19.3766963,22.6088674 18.7732955,23.2750967 18.1880435,23.9539751 L48.8214579,32.1619058 L48.7538628,32.188805 C50.1650057,31.6160172 51.601166,31.158327 53.0504622,30.8125508 L19.9980379,21.9560628 Z M22.9998318,19.0345689 C22.3010594,19.664488 21.6211044,20.3100217 20.9601961,20.9703137 L55.7648596,30.2967976 C59.7115945,29.7351747 63.7003031,29.9757709 67.4967765,30.9558302 L22.9998318,19.0345689 Z M54.3827056,5.08194331 C52.4273464,5.28085723 50.4744605,5.58562791 48.532422,5.99849918 L96.9342279,18.9682183 C95.4589575,17.6397246 93.9202521,16.3994095 92.3264836,15.2495164 L54.3827056,5.08194331 Z M58.0751364,4.83161628 L89.2516955,13.1850089 C79.9347617,7.37469496 69.0490008,4.45797787 58.0751364,4.83161628 Z M91.609306,110.98464 L91.567,111.01 L91.5004312,111.052244 L91.0706252,111.314693 L91.0706252,111.314693 C90.958258,111.382736 90.8450236,111.450733 90.7314861,111.518412 L90.370505,111.731896 L90.0076686,111.94317 L89.9930802,111.951255 L89.1323873,112.439236 C88.5853071,112.743376 88.0354525,113.03805 87.4830152,113.323311 L87.4840313,113.322941 L87.3962431,113.367401 L87.2979803,113.417205 L87.0110333,113.564605 C86.8531604,113.644396 86.6950821,113.723423 86.5368029,113.801688 L86.4249404,113.85664 C86.2375026,113.949061 86.0495756,114.040297 85.8613753,114.130465 C84.7000113,114.686515 83.5302589,115.201341 82.3518645,115.676102 L82.3482207,115.677969 L82.2589483,115.713345 L82.101456,115.776561 L81.8361035,115.881595 C81.6629757,115.949498 81.4896676,116.016541 81.3161845,116.082726 C81.251691,116.106831 81.1873196,116.131258 81.1229244,116.155568 C80.8983246,116.240874 80.6732861,116.324292 80.4479696,116.406276 C79.0516048,116.913684 77.6468263,117.365917 76.2342053,117.763992 L76.2391824,117.763339 L76.2303876,117.765572 L75.457589,117.97797 C74.9360172,118.117387 74.4134497,118.249468 73.8900265,118.374251 C72.0862051,118.803284 70.2737486,119.146291 68.4568624,119.404301 L68.4619071,119.404688 C67.5537997,119.533764 66.6445837,119.641606 65.7349724,119.728404 C65.6524782,119.735051 65.5696665,119.742775 65.486852,119.750325 L65.2088536,119.77626 L65.2088536,119.77626 C62.2398152,120.031281 59.2765588,120.064356 56.335183,119.881559 L56.34457,119.883763 C48.3060526,119.385798 40.4307025,117.275522 33.2202254,113.687368 L33.2345275,113.691757 C30.5953691,112.379151 28.0452284,110.868585 25.608699,109.16665 L25.5971068,109.161788 C24.7044702,108.538028 23.8270897,107.888579 22.966175,107.213764 C21.5296481,106.084563 20.1318308,104.881486 18.7860404,103.608573 L18.7804811,103.607178 C18.194275,103.052638 17.617942,102.484847 17.0519542,101.903931 C16.0356462,100.85704 15.0449294,99.7626973 14.0909,98.6261002 L14.0851027,98.6236796 C13.6486536,98.1036199 13.2198848,97.5747154 12.7990642,97.0370382 C12.0222892,96.0400301 11.2673355,95.0101899 10.5415729,93.9504891 L10.5356409,93.9469951 C10.1953281,93.4499914 9.86143577,92.9464208 9.53414154,92.4363308 C9.02631676,91.6396096 8.52946497,90.8241296 8.04950586,89.9928161 L7.75701046,89.4762036 L7.75026527,89.4745271 C7.47752252,88.9912764 7.21220532,88.5058202 6.954278,88.0182914 C6.45752095,87.073261 5.98382817,86.1174297 5.53781655,85.154738 L5.53401364,85.1534689 C5.31674499,84.684445 5.10604663,84.213793 4.90188825,83.7416259 C4.50652488,82.8200463 4.13241021,81.8913645 3.78305555,80.9577382 L3.77945211,80.9563513 C3.60845454,80.4993012 3.44339057,80.0410663 3.28423367,79.5817459 C2.97525648,78.6814139 2.68551145,77.7754775 2.41833359,76.8661056 L2.41492885,76.8646148 C2.28368632,76.4178297 2.15789108,75.9702155 2.03751929,75.5218613 C1.8038286,74.6407557 1.58759282,73.7542326 1.39224178,72.8655142 L1.38902777,72.8638962 C1.29274712,72.425772 1.20154206,71.9871144 1.11539073,71.5480051 C0.948404312,70.6827338 0.797969428,69.8140552 0.667064741,68.9442427 L0.664208323,68.9435815 C0.599551788,68.5138576 0.539662078,68.0838572 0.484518914,67.6536557 C0.37812564,66.8026162 0.287525708,65.9501051 0.215373639,65.097393 L0.212650658,65.0966536 C0.176920099,64.6741942 0.145717553,64.2516856 0.119023883,63.8291993 C0.068756522,62.9927384 0.0334952108,62.1544991 0.0158374566,61.3169045 L0.013252877,61.3160884 C0.00451667492,60.9009365 0.000105059913,60.4859431 -1.72621654e-07,60.0711761 C0.00229612445,59.2474098 0.0190766565,58.4237014 0.052735544,57.6014215 L0.0502957245,57.6005241 C0.0670560002,57.1914681 0.0879931921,56.7827656 0.113089689,56.3744826 C0.165350401,55.5635527 0.231666721,54.7533599 0.314290188,53.9453415 L0.312004502,53.9443532 C0.353190293,53.5417386 0.398424782,53.1396641 0.447690839,52.7381934 C0.54807748,51.939072 0.662244354,51.141341 0.79228908,50.3465142 L0.790169598,50.3454299 C0.855021542,49.9491647 0.923820074,49.5536214 0.996548388,49.1588628 C1.14374488,48.3720138 1.30453623,47.5871801 1.48085101,46.8059711 L1.4789146,46.8047767 C1.56704054,46.4143936 1.65904297,46.0249158 1.75490523,45.6364055 C1.9485929,44.8600914 2.15586619,44.0864306 2.37846538,43.3171432 L2.3763133,43.3172791 C2.48754929,42.9328882 2.60261175,42.5495893 2.721484,42.1674446 C2.9614914,41.4025097 3.21462532,40.6423604 3.48288385,39.8873324 L3.48078564,39.8875632 C3.61518035,39.5093281 3.75337072,39.1323783 3.89533993,38.7567765 C4.18203255,38.0034839 4.48183423,37.255866 4.79668955,36.5141714 L4.79470806,36.5143284 C4.95291048,36.1416805 5.11491299,35.770528 5.28069843,35.400935 C5.61515575,34.6594638 5.96279232,33.9246026 6.32550166,33.1965286 L6.32349784,33.1969238 C6.50590517,32.830792 6.69212424,32.4663768 6.88213744,32.1037437 C7.26552955,31.3753609 7.66281544,30.6535507 8.0752915,29.9394763 L8.07390591,29.9389484 C8.28138054,29.5798022 8.49269783,29.2226132 8.70783957,28.8674492 C9.1436569,28.1506778 9.59308368,27.4426315 10.0579162,26.7433785 L10.0559953,26.7439169 C10.2903559,26.3913798 10.5286324,26.0410778 10.7708057,25.6930826 C11.2608863,24.9909774 11.765571,24.297919 12.2859758,23.6148458 L12.2845832,23.614809 C12.5476343,23.2695559 12.8147015,22.9268539 13.0857646,22.586779 C13.635007,21.8993769 14.199139,21.2227836 14.7794248,20.5575462 L14.7782773,20.5574184 C15.0724412,20.2202142 15.3707559,19.8859281 15.6731995,19.5546417 C16.2873499,18.8831886 16.9173474,18.2239707 17.5641279,17.5777565 L17.5630585,17.5777551 L17.5904544,17.5502281 L17.6956684,17.4467403 L17.7169108,17.425257 L17.9632768,17.1816788 C18.0973883,17.0502046 18.2322046,16.9192837 18.3677242,16.7889218 L18.4132395,16.7461558 L18.4132395,16.7461558 C18.4621129,16.6982694 18.5120167,16.650531 18.5620151,16.6028684 C19.2495978,15.9483383 19.9532016,15.3088124 20.6744191,14.6842837 L20.6734207,14.6844162 C21.0409149,14.3662115 21.4129819,14.0519005 21.7895952,13.7415822 C22.5598831,13.1074695 23.3481728,12.490192 24.155208,11.8904206 L24.1542907,11.8906817 L24.226737,11.8366067 L24.5474709,11.6009704 L24.9435891,11.3140299 L24.9435891,11.3140299 C25.0279702,11.2537781 25.1124378,11.1934367 25.1971028,11.1332845 C25.2672589,11.0831087 25.3373865,11.0335157 25.4076489,10.9840525 C26.2758296,10.3731496 27.1636469,9.7823237 28.0717333,9.21224377 L28.0700451,9.21317565 C28.4097208,8.9999413 28.7522324,8.78960964 29.0975663,8.58223183 C29.1253716,8.56559141 29.1531251,8.54895323 29.1808968,8.53233414 C29.4536124,8.36910074 29.7281011,8.20775001 30.0043381,8.0482645 L30.0068747,8.04680002 C30.8361471,7.56801934 31.6720994,7.11128863 32.5140524,6.67642598 L32.5522464,6.6567162 C32.7201524,6.57014449 32.8882965,6.484442 33.0566734,6.39960727 L32.978,6.439 L33.3691536,6.24350053 C33.5185822,6.16908816 33.667343,6.09597342 33.8162782,6.02353045 L34.1359482,5.86944904 C35.0065839,5.45213403 35.8816158,5.05839802 36.7613876,4.68742853 L37.6420881,4.32472753 C37.9773939,4.18959524 38.3133997,4.05770695 38.6500657,3.929052 C38.7265814,3.8993123 38.8035133,3.87009046 38.8804792,3.84103719 C39.1032432,3.75746729 39.3260692,3.67488332 39.5491678,3.5937055 C40.6652048,3.18716382 41.7870334,2.81644592 42.9140346,2.48059651 L43.7577092,2.23669685 L44.0026582,2.16743722 C44.1494372,2.12672204 44.2962992,2.0865904 44.4432408,2.04704147 L44.323015,2.08038131 L44.832022,1.94460968 C44.9842111,1.90394895 45.1365252,1.86470076 45.2889182,1.82607508 C45.366964,1.8071187 45.4450995,1.7874868 45.5232552,1.76801835 C48.5713387,1.00777453 51.6502333,0.496961212 54.7322637,0.227300012 L54.7880573,0.223689731 L54.7880573,0.223689731 C58.2342552,-0.0757378649 61.6827199,-0.072605088 65.0961653,0.221343217 C65.1326236,0.226167423 65.168931,0.229328922 65.2052344,0.232523317 L65.5573836,0.262850147 L65.8973415,0.295737612 C65.9496693,0.302669175 66.0019757,0.307950666 66.054273,0.313300469 C67.5593665,0.465479053 69.0568405,0.675947948 70.543432,0.942096308 C70.5786136,0.950314887 70.6142481,0.956729046 70.6498764,0.963175196 C83.8766685,3.35428859 96.234746,10.1554727 105.370122,20.735011 C103.293664,19.3253887 100.534297,19.091216 98.1838942,20.3253033 L97.9336799,20.4631586 L97.9163825,20.4728167 L46.0696884,6.58186941 C44.6182333,6.96131902 43.1749092,7.40236027 41.7432707,7.90594559 L94.9762262,22.1703167 L93.575,22.979 L97.6713039,20.6146415 C101.164259,18.5979831 105.630682,19.7947578 107.647341,23.2877124 L108.279424,24.3826035 C109.592096,26.1665674 110.819586,28.0412279 111.952891,30.0041689 C113.086868,31.9682753 114.097153,33.9698528 114.986162,35.9998812 L114.943,35.924 L115.993587,37.7438355 C118.010245,41.2367902 116.813471,45.703214 113.320516,47.7198723 L111.279075,48.8976798 L114.234711,49.6896021 C114.093245,48.9454864 113.936039,48.2027132 113.762967,47.4617507 C115.891039,46.1480786 117.079667,43.8624992 117.084049,41.5127151 C122.53587,58.292018 120.189987,76.405285 111.32626,91.0744053 C111.312986,91.0936422 111.300945,91.1135444 111.288893,91.1334402 L111.016974,91.5805797 C110.461847,92.479054 109.882056,93.3642565 109.277899,94.2350709 C109.259978,94.2587123 109.243101,94.2830027 109.226204,94.3072819 L108.962837,94.6847633 C108.603683,95.1924025 108.236172,95.6950294 107.860362,96.192419 L107.71274,96.3851049 L107.476492,96.6949135 C107.319774,96.897821 107.161658,97.0998313 107.002149,97.300929 C106.971448,97.3379047 106.941528,97.3755358 106.911559,97.4131349 L106.7081,97.668651 C106.224163,98.2689567 105.727694,98.8609522 105.218805,99.4442154 L105.218352,99.4432916 L105.21565,99.4455188 L105.107476,99.5714497 C105.002207,99.6914143 104.89641,99.8110065 104.790087,99.9302228 L104.91,99.792 L104.774338,99.9464976 C104.625299,100.113498 104.475227,100.279759 104.324124,100.445272 C103.87742,100.935838 103.421286,101.418982 102.956199,101.895307 L102.432798,102.423625 C102.212028,102.64417 101.989304,102.863201 101.764631,103.080689 C101.68699,103.156831 101.608515,103.232375 101.529803,103.307731 C101.497583,103.337617 101.466,103.367789 101.43438,103.397931 C100.748237,104.052876 100.043946,104.692884 99.3220104,105.317868 L99.3225472,105.316671 L98.834519,105.73533 L98.6785058,105.867028 L98.6785058,105.867028 C98.5220541,105.997984 98.3649936,106.128753 98.2071345,106.258821 C97.652703,106.716206 97.0890414,107.163838 96.5156344,107.602521 L95.8421155,108.109914 C95.5966683,108.292305 95.3494875,108.473077 95.1005792,108.652206 L94.7989105,108.868235 L94.7989105,108.868235 L94.5892285,109.016175 C94.0105844,109.423663 93.4235319,109.821751 92.8276847,110.210573 L91.9272784,110.786738 L91.898,110.804 L91.8279219,110.849098 L91.656,110.955 L91.609306,110.98464 Z" id="形状结合" opacity="0.20203218"></path>
                <path d="M47.6516393,55.0879677 L47.6516393,65.7476536 C47.6516393,66.3759258 47.6106557,66.9588228 47.5286885,67.4963447 C47.4467213,68.0338665 47.2862022,68.5015803 47.0471311,68.899486 C46.8080601,69.2973918 46.4699454,69.6080375 46.0327869,69.8314232 C45.5956284,70.0548089 45.0286885,70.1665017 44.3319672,70.1665017 C44.0997268,70.1665017 43.8743169,70.1525401 43.6557377,70.1246169 C43.4371585,70.0966937 43.2185792,70.0478281 43,69.97802 L43.1844262,67.8000096 C43.3210383,67.8279328 43.4508197,67.8523656 43.5737705,67.873308 C43.6967213,67.8942504 43.8265027,67.9047216 43.9631148,67.9047216 C44.2636612,67.9047216 44.4993169,67.838404 44.670082,67.7057687 C44.840847,67.5731335 44.9637978,67.4021038 45.0389344,67.1926797 C45.114071,66.9832557 45.1584699,66.7528892 45.1721311,66.5015803 C45.1857923,66.2502714 45.192623,66.0059433 45.192623,65.768596 L45.192623,55.0879677 L47.6516393,55.0879677 Z M26.0674157,50.9177904 C26.7677903,50.9177904 27.4441323,50.9848808 28.0964419,51.1190616 C28.7487516,51.2532424 29.3289638,51.4827622 29.8370787,51.8076209 C30.3451935,52.1324797 30.7503121,52.5703328 31.0524345,53.1211802 C31.3545568,53.6720277 31.505618,54.3711802 31.505618,55.2186379 C31.505618,56.3062085 31.2137953,57.2172254 30.6301498,57.9516887 C30.0465044,58.686152 29.2122347,59.1310673 28.1273408,59.2864345 L32,65.9177904 L28.8689139,65.9177904 L25.4906367,59.5618582 L23.5955056,59.5618582 L23.5955056,65.9177904 L21,65.9177904 L21,50.9177904 L26.0674157,50.9177904 Z M38.3703704,54.9177904 C39.0562414,54.9177904 39.6838134,55.0451052 40.2530864,55.2997349 C40.8223594,55.5543645 41.3093278,55.9217587 41.7139918,56.4019174 C42.1186557,56.8820761 42.4341564,57.4749994 42.6604938,58.1806872 C42.8868313,58.8863751 43,59.6975523 43,60.614219 L43,61.3344571 L35.4691358,61.3344571 C35.5514403,62.1201714 35.8395062,62.7312825 36.3333333,63.1677904 C36.8271605,63.6042984 37.4238683,63.8225523 38.1234568,63.8225523 C38.7407407,63.8225523 39.2585734,63.6879624 39.6769547,63.4187825 C40.0953361,63.1496026 40.4622771,62.8113089 40.7777778,62.4039015 L42.5473251,63.8225523 C41.9711934,64.5791661 41.3264746,65.1175259 40.6131687,65.4376317 C39.8998628,65.7577375 39.1522634,65.9177904 38.3703704,65.9177904 C37.6296296,65.9177904 36.9300412,65.786838 36.2716049,65.5249333 C35.6131687,65.2630285 35.0438957,64.8919968 34.563786,64.411838 C34.0836763,63.9316793 33.7030178,63.3533063 33.4218107,62.676719 C33.1406036,62.0001317 33,61.2471555 33,60.4177904 C33,59.5884253 33.1406036,58.8354491 33.4218107,58.1588618 C33.7030178,57.4822745 34.0836763,56.9039015 34.563786,56.4237428 C35.0438957,55.9435841 35.6131687,55.5725523 36.2716049,55.3106476 C36.9300412,55.0487428 37.6296296,54.9177904 38.3703704,54.9177904 Z M55.3703704,54.9177904 C56.0562414,54.9177904 56.6838134,55.0451052 57.2530864,55.2997349 C57.8223594,55.5543645 58.3093278,55.9217587 58.7139918,56.4019174 C59.1186557,56.8820761 59.4341564,57.4749994 59.6604938,58.1806872 C59.8868313,58.8863751 60,59.6975523 60,60.614219 L60,61.3344571 L52.4691358,61.3344571 C52.5514403,62.1201714 52.8395062,62.7312825 53.3333333,63.1677904 C53.8271605,63.6042984 54.4238683,63.8225523 55.1234568,63.8225523 C55.7407407,63.8225523 56.2585734,63.6879624 56.6769547,63.4187825 C57.0953361,63.1496026 57.4622771,62.8113089 57.7777778,62.4039015 L59.5473251,63.8225523 C58.9711934,64.5791661 58.3264746,65.1175259 57.6131687,65.4376317 C56.8998628,65.7577375 56.1522634,65.9177904 55.3703704,65.9177904 C54.6296296,65.9177904 53.9300412,65.786838 53.2716049,65.5249333 C52.6131687,65.2630285 52.0438957,64.8919968 51.563786,64.411838 C51.0836763,63.9316793 50.7030178,63.3533063 50.4218107,62.676719 C50.1406036,62.0001317 50,61.2471555 50,60.4177904 C50,59.5884253 50.1406036,58.8354491 50.4218107,58.1588618 C50.7030178,57.4822745 51.0836763,56.9039015 51.563786,56.4237428 C52.0438957,55.9435841 52.6131687,55.5725523 53.2716049,55.3106476 C53.9300412,55.0487428 54.6296296,54.9177904 55.3703704,54.9177904 Z M66.4,54.9177904 C67.0344828,54.9177904 67.6724138,55.0451052 68.3137931,55.2997349 C68.9551724,55.5543645 69.5172414,55.9581343 70,56.5110444 L68.2827586,58.3225523 C67.9931034,58.0024465 67.6896552,57.7478169 67.3724138,57.5586634 C67.0551724,57.36951 66.7310345,57.2749333 66.4,57.2749333 C65.9448276,57.2749333 65.537931,57.3622349 65.1793103,57.536838 C64.8206897,57.7114412 64.5137931,57.9442454 64.2586207,58.2352507 C64.0034483,58.526256 63.8103448,58.8609121 63.6793103,59.239219 C63.5482759,59.6175259 63.4827586,60.010383 63.4827586,60.4177904 C63.4827586,60.8251978 63.5482759,61.218055 63.6793103,61.5963618 C63.8103448,61.9746687 64.0034483,62.3093248 64.2586207,62.6003301 C64.5137931,62.8913354 64.8206897,63.1241396 65.1793103,63.2987428 C65.537931,63.473346 65.9448276,63.5606476 66.4,63.5606476 C66.7862069,63.5606476 67.1448276,63.4769835 67.4758621,63.3096555 C67.8068966,63.1423275 68.0896552,62.8986105 68.3241379,62.5785047 L69.9793103,64.4554888 C69.7310345,64.7173936 69.4448276,64.9429227 69.1206897,65.1320761 C68.7965517,65.3212296 68.4689655,65.4740073 68.137931,65.5904095 C67.8068966,65.7068116 67.4896552,65.7904756 67.1862069,65.8414015 C66.8827586,65.8923275 66.6206897,65.9177904 66.4,65.9177904 C65.6551724,65.9177904 64.9517241,65.786838 64.2896552,65.5249333 C63.6275862,65.2630285 63.0551724,64.8919968 62.5724138,64.411838 C62.0896552,63.9316793 61.7068966,63.3533063 61.4241379,62.676719 C61.1413793,62.0001317 61,61.2471555 61,60.4177904 C61,59.5884253 61.1413793,58.8354491 61.4241379,58.1588618 C61.7068966,57.4822745 62.0896552,56.9039015 62.5724138,56.4237428 C63.0551724,55.9435841 63.6275862,55.5725523 64.2896552,55.3106476 C64.9517241,55.0487428 65.6551724,54.9177904 66.4,54.9177904 Z M75.3675214,52.9177904 L75.3675214,55.7814988 L78,55.7814988 L78,57.8829251 L75.3675214,57.8829251 L75.3675214,62.2093911 C75.3675214,62.7038443 75.457265,63.0952865 75.6367521,63.3837175 C75.8162393,63.6721486 76.1718898,63.8163641 76.7037037,63.8163641 C76.9164292,63.8163641 77.1490978,63.7923282 77.4017094,63.7442563 C77.654321,63.6961845 77.8537512,63.6172093 78,63.5073308 L78,65.5881549 C77.7473884,65.7117682 77.4382716,65.7976108 77.0726496,65.8456827 C76.7070275,65.8937545 76.3846154,65.9177904 76.1054131,65.9177904 C75.4672365,65.9177904 74.9453941,65.8456827 74.539886,65.7014671 C74.134378,65.5572516 73.8152896,65.3374946 73.5826211,65.0421961 C73.3499525,64.7468977 73.1904084,64.3794914 73.1039886,63.9399774 C73.0175689,63.5004634 72.974359,62.9922754 72.974359,62.4154132 L72.974359,57.8829251 L71,57.8829251 L71,55.7814988 L72.974359,55.7814988 L72.974359,52.9177904 L75.3675214,52.9177904 Z M84.3703704,54.9177904 C85.0562414,54.9177904 85.6838134,55.0451052 86.2530864,55.2997349 C86.8223594,55.5543645 87.3093278,55.9217587 87.7139918,56.4019174 C88.1186557,56.8820761 88.4341564,57.4749994 88.6604938,58.1806872 C88.8868313,58.8863751 89,59.6975523 89,60.614219 L89,61.3344571 L81.4691358,61.3344571 C81.5514403,62.1201714 81.8395062,62.7312825 82.3333333,63.1677904 C82.8271605,63.6042984 83.4238683,63.8225523 84.1234568,63.8225523 C84.7407407,63.8225523 85.2585734,63.6879624 85.6769547,63.4187825 C86.0953361,63.1496026 86.4622771,62.8113089 86.7777778,62.4039015 L88.5473251,63.8225523 C87.9711934,64.5791661 87.3264746,65.1175259 86.6131687,65.4376317 C85.8998628,65.7577375 85.1522634,65.9177904 84.3703704,65.9177904 C83.6296296,65.9177904 82.9300412,65.786838 82.2716049,65.5249333 C81.6131687,65.2630285 81.0438957,64.8919968 80.563786,64.411838 C80.0836763,63.9316793 79.7030178,63.3533063 79.4218107,62.676719 C79.1406036,62.0001317 79,61.2471555 79,60.4177904 C79,59.5884253 79.1406036,58.8354491 79.4218107,58.1588618 C79.7030178,57.4822745 80.0836763,56.9039015 80.563786,56.4237428 C81.0438957,55.9435841 81.6131687,55.5725523 82.2716049,55.3106476 C82.9300412,55.0487428 83.6296296,54.9177904 84.3703704,54.9177904 Z M101,49.9177904 L101,65.6677904 L98.5791506,65.6677904 L98.5791506,64.1677904 L98.5366795,64.1677904 C98.1685972,64.7789015 97.6731017,65.223346 97.0501931,65.5011238 C96.4272844,65.7789015 95.7548263,65.9177904 95.0328185,65.9177904 C94.2400257,65.9177904 93.5357143,65.7823738 92.9198842,65.5115404 C92.3040541,65.2407071 91.7767053,64.8691793 91.3378378,64.3969571 C90.8989704,63.9247349 90.5662806,63.3691793 90.3397683,62.7302904 C90.1132561,62.0914015 90,61.4039015 90,60.6677904 C90,59.9316793 90.1203346,59.2441793 90.3610039,58.6052904 C90.6016731,57.9664015 90.9379022,57.410846 91.3696911,56.9386238 C91.8014801,56.4664015 92.3217503,56.0948738 92.9305019,55.8240404 C93.5392535,55.5532071 94.2046332,55.4177904 94.9266409,55.4177904 C95.4079794,55.4177904 95.8326898,55.4664015 96.2007722,55.5636238 C96.5688546,55.660846 96.8944659,55.785846 97.1776062,55.9386238 C97.4607465,56.0914015 97.7014157,56.254596 97.8996139,56.4282071 C98.0978121,56.6018182 98.2606178,56.7719571 98.3880309,56.9386238 L98.4517375,56.9386238 L98.4517375,49.9177904 L101,49.9177904 Z M95.542471,57.6677904 C95.0752896,57.6677904 94.6576577,57.7511238 94.2895753,57.9177904 C93.9214929,58.0844571 93.6064994,58.3066793 93.3445946,58.5844571 C93.0826898,58.8622349 92.8844916,59.1816793 92.75,59.5427904 C92.6155084,59.9039015 92.5482625,60.2789015 92.5482625,60.6677904 C92.5482625,61.0566793 92.6155084,61.4316793 92.75,61.7927904 C92.8844916,62.1539015 93.0826898,62.473346 93.3445946,62.7511238 C93.6064994,63.0289015 93.9214929,63.2511238 94.2895753,63.4177904 C94.6576577,63.5844571 95.0752896,63.6677904 95.542471,63.6677904 C96.0096525,63.6677904 96.4272844,63.5844571 96.7953668,63.4177904 C97.1634492,63.2511238 97.4784427,63.0289015 97.7403475,62.7511238 C98.0022523,62.473346 98.2004505,62.1539015 98.3349421,61.7927904 C98.4694337,61.4316793 98.5366795,61.0566793 98.5366795,60.6677904 C98.5366795,60.2789015 98.4694337,59.9039015 98.3349421,59.5427904 C98.2004505,59.1816793 98.0022523,58.8622349 97.7403475,58.5844571 C97.4784427,58.3066793 97.1634492,58.0844571 96.7953668,57.9177904 C96.4272844,57.7511238 96.0096525,57.6677904 95.542471,57.6677904 Z M38.0205761,56.8820761 C37.2798354,56.8820761 36.6934156,57.1076052 36.2613169,57.5586634 C35.8292181,58.0097216 35.5651578,58.6135576 35.4691358,59.3701714 L40.5308642,59.3701714 C40.5171468,58.5990073 40.2908093,57.9915338 39.8518519,57.5477507 C39.4128944,57.1039677 38.8024691,56.8820761 38.0205761,56.8820761 Z M55.0205761,56.8820761 C54.2798354,56.8820761 53.6934156,57.1076052 53.2613169,57.5586634 C52.8292181,58.0097216 52.5651578,58.6135576 52.4691358,59.3701714 L57.5308642,59.3701714 C57.5171468,58.5990073 57.2908093,57.9915338 56.8518519,57.5477507 C56.4128944,57.1039677 55.8024691,56.8820761 55.0205761,56.8820761 Z M84.0205761,56.8820761 C83.2798354,56.8820761 82.6934156,57.1076052 82.2613169,57.5586634 C81.8292181,58.0097216 81.5651578,58.6135576 81.4691358,59.3701714 L86.5308642,59.3701714 C86.5171468,58.5990073 86.2908093,57.9915338 85.8518519,57.5477507 C85.4128944,57.1039677 84.8024691,56.8820761 84.0205761,56.8820761 Z M25.840824,53.205926 L23.5955056,53.205926 L23.5955056,57.2737226 L25.6142322,57.2737226 C25.9850187,57.2737226 26.3558052,57.2560673 26.7265918,57.2207565 C27.0973783,57.1854458 27.4372659,57.1007 27.7462547,56.9665192 C28.0552434,56.8323384 28.3058677,56.6275362 28.4981273,56.3521125 C28.690387,56.0766887 28.7865169,55.6918017 28.7865169,55.1974514 C28.7865169,54.7595983 28.6972534,54.406491 28.5187266,54.1381294 C28.3401998,53.8697678 28.1067416,53.6684966 27.8183521,53.5343158 C27.5299625,53.4001351 27.2106742,53.3118582 26.8604869,53.2694853 C26.5102996,53.2271125 26.170412,53.205926 25.840824,53.205926 Z M46.4016393,50.1665017 C46.852459,50.1665017 47.2315574,50.3096082 47.5389344,50.5958211 C47.8463115,50.882034 48,51.2415454 48,51.6743551 C48,52.1071649 47.8463115,52.4666762 47.5389344,52.7528892 C47.2315574,53.0391021 46.852459,53.1822085 46.4016393,53.1822085 C45.9508197,53.1822085 45.5785519,53.0321213 45.2848361,52.7319468 C44.9911202,52.4317722 44.8442623,52.0792417 44.8442623,51.6743551 C44.8442623,51.2694686 44.9911202,50.916938 45.2848361,50.6167635 C45.5785519,50.316589 45.9508197,50.1665017 46.4016393,50.1665017 Z" id="Rejected" transform="translate(61.000000, 60.042146) rotate(-30.000000) translate(-61.000000, -60.042146) "></path>
            </g>
        </g>
    </g>
</svg>