<svg xmlns="http://www.w3.org/2000/svg" width="96" height="96" viewBox="0 0 96 96">
  <g id="通过-章" transform="translate(-705.74 -3.017)">
    <g id="椭圆_1593" data-name="椭圆 1593" transform="translate(705.74 3.017)" fill="none" stroke="#ffe4cc" stroke-width="2">
      <circle cx="48" cy="48" r="48" stroke="none"/>
      <circle cx="48" cy="48" r="47" fill="none"/>
    </g>
    <path id="路径_2626" data-name="路径 2626" d="M756.549,12.14a43.809,43.809,0,1,0,43.809,43.809A43.858,43.858,0,0,0,756.549,12.14Zm41.375,37.38L778.155,69.289a25.321,25.321,0,0,0,2.778-6.21l16.439-16.439Q797.7,48.059,797.924,49.521Zm-.684-3.427L781.189,62.139a25.349,25.349,0,0,0,.674-4.1l0,0L796.5,43.4C796.775,44.285,797.027,45.182,797.24,46.093Zm-.911-3.2L781.912,57.306c.029-.451.039-.9.039-1.357,0-.684-.029-1.362-.078-2.031l13.54-13.54Q795.914,41.614,796.329,42.889Zm-1.115-3-13.4,13.4a25.5,25.5,0,0,0-.48-2.943l12.812-12.817C794.525,38.3,794.884,39.093,795.214,39.893Zm-1.3-2.817L781.194,49.8a23.052,23.052,0,0,0-.81-2.618L792.7,34.861C793.129,35.583,793.536,36.325,793.914,37.076Zm-1.464-2.652L780.2,46.68a25.868,25.868,0,0,0-1.071-2.361L791.108,32.34C791.573,33.019,792.024,33.717,792.451,34.425Zm-1.624-2.487L778.891,43.873q-.6-1.1-1.294-2.133l11.765-11.765C789.872,30.615,790.356,31.269,790.827,31.938Zm-13.1,24.011c0,.247,0,.5-.015.747s-.019.49-.039.732c-.01.155-.019.31-.039.465,0,.024,0,.048,0,.073s0,.073-.01.111,0,.068-.01.1c-.01.073-.015.145-.024.218-.015.116-.029.233-.044.344-.048.373-.111.747-.179,1.115-.034.179-.073.364-.112.548-.073.364-.16.722-.262,1.081s-.2.708-.315,1.057l0,0c-.053.179-.116.359-.184.538s-.126.344-.189.514c0,0,0,0,0,.01l0,0a3.807,3.807,0,0,1-.155.388c-.048.131-.1.257-.16.383-.082.189-.165.378-.257.567-.175.373-.359.742-.562,1.105-.1.179-.2.359-.305.538a20.515,20.515,0,0,1-2.259,3.166c-.335.393-.688.771-1.057,1.139-.179.184-.368.368-.557.538q-.342.327-.7.625c-.121.1-.238.2-.359.3s-.247.2-.368.291c-.165.136-.33.262-.5.378q-.2.16-.407.291c-.136.1-.271.194-.412.281a5.615,5.615,0,0,1-.475.305A20.729,20.729,0,0,1,764.2,75.7c-.349.136-.7.262-1.057.373l0,0a20.557,20.557,0,0,1-3.8.863c-.184.024-.373.048-.562.068l0,0c-.247.024-.494.048-.747.063s-.49.034-.732.039-.5.015-.747.015c-.16,0-.32,0-.485,0s-.32-.01-.48-.019-.315-.015-.475-.029-.32-.019-.48-.034c-.208-.019-.417-.039-.621-.063a21.587,21.587,0,0,1-2.88-.553c-.179-.048-.359-.1-.533-.15s-.32-.092-.48-.15c-.32-.1-.635-.208-.95-.33-.155-.053-.31-.112-.465-.179-.208-.078-.412-.165-.616-.257-.16-.063-.315-.136-.47-.213-.194-.087-.383-.184-.572-.276-.141-.073-.281-.141-.422-.218s-.276-.145-.412-.228-.276-.155-.412-.238-.271-.16-.4-.247-.271-.17-.407-.257c0,0-.01,0-.015-.01-.17-.111-.339-.228-.509-.344-.334-.233-.664-.475-.984-.727-.16-.126-.32-.252-.475-.388-.126-.1-.247-.208-.373-.31-.078-.068-.15-.136-.223-.208s-.15-.136-.223-.2c-.15-.131-.3-.271-.441-.417-.082-.078-.165-.155-.242-.238-.1-.092-.189-.189-.276-.286-.111-.111-.218-.228-.325-.344-.053-.063-.112-.121-.16-.184s-.111-.121-.165-.179q-.4-.465-.771-.945c-.131-.16-.252-.325-.368-.49s-.242-.33-.354-.5c-.1-.136-.189-.271-.276-.412-.034-.048-.063-.1-.1-.145-.048-.068-.092-.141-.136-.213-.01-.019-.019-.034-.029-.053-.029-.039-.048-.078-.073-.116-.116-.175-.218-.354-.32-.538-.213-.364-.412-.732-.591-1.11-.082-.155-.155-.305-.228-.461-.141-.3-.271-.606-.393-.911-.068-.15-.131-.305-.184-.461s-.121-.31-.17-.465c-.078-.208-.15-.417-.213-.63a2.731,2.731,0,0,1-.082-.262c-.029-.087-.058-.175-.082-.262a20.8,20.8,0,0,1-.616-2.807c-.029-.2-.058-.407-.078-.611-.078-.616-.121-1.241-.141-1.871,0-.213-.01-.422-.01-.635,0-.131,0-.267.01-.4s0-.257,0-.388c.01-.242.019-.48.039-.722a21.231,21.231,0,0,1,.713-4.145c.092-.33.189-.659.3-.984a20.229,20.229,0,0,1,1.648-3.713,1.859,1.859,0,0,1,.107-.189v0c.1-.175.2-.349.31-.519.116-.2.242-.393.373-.587q.247-.385.524-.756c.175-.247.359-.49.557-.732.121-.16.252-.32.388-.475.257-.31.528-.616.814-.911.136-.15.276-.3.427-.441s.286-.291.441-.427.3-.286.451-.417.31-.276.465-.4c.126-.111.257-.218.388-.32.019-.019.044-.034.063-.053a.435.435,0,0,0,.092-.073c.3-.233.6-.461.911-.674.17-.121.334-.238.509-.349.514-.339,1.042-.659,1.585-.95.179-.1.364-.2.548-.286s.373-.189.557-.271c.373-.175.751-.339,1.139-.494.213-.082.427-.165.64-.242.174-.068.354-.131.533-.184l0,0c.16-.053.32-.107.485-.15s.33-.1.495-.145l.543-.145c.247-.063.5-.121.747-.17l.436-.087c.582-.111,1.173-.2,1.774-.257a.726.726,0,0,0,.107-.01l.533-.044c.242-.019.49-.034.732-.044.131,0,.262-.01.393-.01s.267,0,.4,0c.213,0,.422,0,.635.01s.441.015.664.034h.058a.865.865,0,0,1,.112.01c.136,0,.276.019.412.034.208.015.417.034.62.063s.4.048.606.078q.72.1,1.425.262c.47.1.936.218,1.391.354.121.034.247.073.368.111.053.019.1.034.155.048s.078.024.116.039c.01,0,.024,0,.034.01l.378.131q.393.131.785.291c.184.073.368.145.548.228.2.082.4.17.6.267.155.068.31.145.465.218.175.087.349.179.519.271.223.116.441.242.659.368.078.044.155.092.233.136s.16.092.238.141c.179.107.359.223.533.334q.211.138.407.276c.17.111.335.228.5.354.111.082.228.165.339.247.024.019.044.039.068.058.107.078.213.16.32.252.237.184.47.378.7.587.121.107.247.213.364.32.17.155.339.315.5.475l.029.029c.121.116.242.238.359.359l.019.019s.015.015.015.019c.131.131.247.252.364.383.141.145.276.3.407.446.053.063.107.126.155.189s.107.121.16.184c.136.155.262.315.388.475s.247.325.373.49.242.33.354.5.238.334.344.509c.087.136.179.276.267.417.112.175.223.354.325.538a.462.462,0,0,0,.048.082c.194.334.383.679.553,1.028.1.189.189.378.281.567.073.16.145.315.213.475.087.194.17.393.242.591.039.1.078.2.116.3s.078.2.116.3c.01.029.019.058.029.082.078.2.145.4.208.606s.141.427.2.64c.024.087.048.179.073.271s.048.175.073.267c.063.233.121.47.175.708s.107.475.15.713c.092.48.17.965.228,1.454.01.092.019.184.024.276l.029.276a.372.372,0,0,1,.01.073c0,.024,0,.044,0,.068q.022.2.029.407c.015.155.024.315.029.475s.015.32.019.48S777.728,55.789,777.728,55.949ZM789.052,29.6,777.316,41.338a24.159,24.159,0,0,0-1.508-1.925l11.659-11.659Q788.3,28.649,789.052,29.6Zm-1.91-2.2L775.488,39.045a22.849,22.849,0,0,0-1.7-1.731L785.441,25.67C786.022,26.232,786.59,26.8,787.142,27.4Zm-2.06-2.055L773.433,36.989c-.606-.538-1.236-1.052-1.9-1.532l11.722-11.722C783.885,24.25,784.491,24.788,785.082,25.34Zm-2.2-1.91L771.14,35.171a24.766,24.766,0,0,0-2.1-1.333l11.9-11.9Q781.938,22.655,782.881,23.43Zm-2.341-1.774L768.6,33.6a23.628,23.628,0,0,0-2.317-1.11l12.192-12.192C779.177,20.73,779.866,21.181,780.54,21.656Zm-2.492-1.624L765.793,32.287a25.815,25.815,0,0,0-2.574-.853l12.628-12.628C776.594,19.189,777.331,19.6,778.048,20.032ZM775.4,18.573l-12.72,12.72a25.662,25.662,0,0,0-2.884-.543l13.273-13.273C773.855,17.817,774.635,18.18,775.4,18.573Zm-2.817-1.3L759.171,30.682a24.673,24.673,0,0,0-2.623-.136c-.228,0-.456,0-.679.01l14.223-14.223C770.936,16.619,771.765,16.93,772.58,17.274Zm-3-1.115L755.157,30.585a25.3,25.3,0,0,0-3.956.528l15.731-15.731C767.829,15.611,768.711,15.873,769.584,16.159Zm-3.2-.911L750.31,31.322a25.134,25.134,0,0,0-5.575,2.143l18.8-18.8Q764.979,14.906,766.385,15.247Zm-27.37,2.686L718.533,38.414A42.118,42.118,0,0,1,739.014,17.933ZM717.985,39.651l22.27-22.27.01,0a41.038,41.038,0,0,1,5.24-1.818L716.158,44.906A40.544,40.544,0,0,1,717.985,39.651Zm-2.07,6.186L746.431,15.32a39.591,39.591,0,0,1,4.247-.824L715.091,50.088A39.894,39.894,0,0,1,715.915,45.836Zm-.931,5.042,36.489-36.489c1.222-.15,2.463-.247,3.713-.286L714.7,54.586Q714.761,52.71,714.984,50.878Zm-.305,5.071c0-.223,0-.441.01-.664l41.2-41.2c.218-.01.441-.01.659-.01.9,0,1.8.029,2.686.087L714.766,58.639Q714.679,57.3,714.679,55.949Zm.131,3.326L759.879,14.21q1.556.124,3.069.359L743.12,34.4a25.5,25.5,0,0,0-8.13,8.134l-.01.01L715.169,62.347C715.009,61.334,714.892,60.307,714.81,59.274Zm.456,3.66L734.06,44.14a25.081,25.081,0,0,0-2.138,5.57L715.847,65.784C715.62,64.849,715.426,63.894,715.266,62.934Zm.717,3.4L731.714,50.6a25.3,25.3,0,0,0-.528,3.956L716.759,68.984Q716.322,67.675,715.983,66.332Zm.945,3.17L731.156,55.27c0,.223-.01.451-.01.679a24.765,24.765,0,0,0,.136,2.627L717.874,71.985C717.53,71.17,717.219,70.341,716.928,69.5Zm1.149,2.962L731.35,59.192a25.667,25.667,0,0,0,.543,2.884L719.168,74.8C718.78,74.035,718.412,73.26,718.077,72.465Zm1.323,2.787,12.638-12.633a23.533,23.533,0,0,0,.848,2.574l-12.255,12.26C720.2,76.735,719.789,76,719.4,75.252Zm1.493,2.623,12.192-12.192A24.844,24.844,0,0,0,734.191,68l-11.94,11.94C721.776,79.271,721.32,78.578,720.894,77.875Zm1.643,2.467,11.9-11.9a23.5,23.5,0,0,0,1.328,2.094L724.025,82.286Q723.247,81.341,722.537,80.342Zm1.794,2.322,11.722-11.722c.48.654.994,1.289,1.532,1.9L725.935,84.487C725.383,83.9,724.845,83.289,724.331,82.664Zm1.934,2.181L737.914,73.2q.822.887,1.726,1.7L727.991,86.542Q727.111,85.721,726.265,84.846Zm2.085,2.031,11.659-11.664c.616.533,1.26,1.033,1.924,1.5L730.192,88.457Q729.246,87.7,728.35,86.877Zm2.22,1.886L742.34,77a24.486,24.486,0,0,0,2.133,1.294l-11.94,11.94Q731.53,89.526,730.57,88.763Zm2.37,1.745,11.979-11.979a24.536,24.536,0,0,0,2.356,1.071l-12.25,12.25C734.317,91.429,733.619,90.983,732.94,90.508Zm2.516,1.6,12.313-12.318a24.885,24.885,0,0,0,2.623.8l-12.72,12.72C736.92,92.936,736.179,92.534,735.456,92.107Zm2.676,1.44L750.949,80.73a25.508,25.508,0,0,0,2.943.485l-13.4,13.4Q739.293,94.119,738.132,93.547Zm2.841,1.265,13.544-13.54c.669.048,1.348.078,2.031.078.456,0,.907-.01,1.357-.039L743.489,95.729Q742.209,95.314,740.973,94.812ZM744,95.9l14.635-14.63,0,0a24.82,24.82,0,0,0,4.1-.674L746.683,96.645C745.777,96.427,744.885,96.175,744,95.9Zm3.238.877,16.438-16.443,0,0a25,25,0,0,0,6.2-2.763L750.12,97.324C749.151,97.173,748.186,96.994,747.241,96.776Zm3.476.635,21.432-21.427.01-.01a25.468,25.468,0,0,0,4.436-4.44l.01-.01,21.407-21.4q.218,1.534.315,3.107l-44.5,44.5Q752.254,97.629,750.717,97.411Zm24.621-4.053,18.615-18.615A42.1,42.1,0,0,1,775.338,93.358ZM794.593,73.42,774.01,94a40.843,40.843,0,0,1-5.507,2.08L796.678,67.9A41.4,41.4,0,0,1,794.593,73.42Zm2.356-6.472-29.4,29.4a39.493,39.493,0,0,1-4.368.94L797.89,62.58A39.517,39.517,0,0,1,796.949,66.948Zm1.057-5.172L762.371,97.411c-1.246.179-2.506.3-3.781.359l39.78-39.785C798.307,59.264,798.19,60.53,798.006,61.775ZM757.877,97.794c-.441.019-.882.024-1.328.024-.693,0-1.386-.019-2.075-.048l43.9-43.9c.029.688.048,1.382.048,2.075,0,.446,0,.887-.024,1.328Z" transform="translate(-3 -5.123)" fill="#ffe4cc"/>
    <text id="评审_驳回" data-name="评审
驳回" transform="translate(729.24 61.936) rotate(-30)" fill="#ff8900" font-size="26" font-family="SourceHanSansCN-Medium, Source Han Sans CN" font-weight="500"><tspan x="0" y="0">评审</tspan><tspan x="0" y="26">驳回</tspan></text>
  </g>
</svg>
