<?xml version="1.0" encoding="UTF-8"?>
<svg width="20px" height="18px" viewBox="0 0 20 18" version="1.1" xmlns="http://www.w3.org/2000/svg" xmlns:xlink="http://www.w3.org/1999/xlink">
    <title>编组 2</title>
    <g id="元数据" stroke="none" stroke-width="1" fill="none" fill-rule="evenodd">
        <g id="1.4-数据集/全部元数据-详情（摘要）" transform="translate(-237.000000, -108.000000)" fill-rule="nonzero">
            <g id="表" transform="translate(200.000000, 96.000000)">
                <g id="标题" transform="translate(0.000000, 13.000000)">
                    <g id="编组-3" transform="translate(38.000000, 0.000000)">
                        <path d="M9.00447269,-0.500072764 L9.13180456,-0.492436355 L18.3291879,14.5062732 C18.493345,14.7725984 18.535774,15.0811725 18.4712128,15.3648506 C18.3952785,15.6985016 18.1716557,15.9970345 17.8272044,16.1537752 L17.8272044,16.1537752 L0.633989474,16.2521994 C0.320061385,16.2521994 0.035528924,16.1237174 -0.170309007,15.9150004 C-0.405353542,15.6766683 -0.537526451,15.3334529 -0.49059921,14.9600955 L-0.49059921,14.9600955 L8.03177481,0.0479295264 C8.27105209,-0.347359187 8.7079711,-0.542205321 9.13180456,-0.492436355 Z" id="路径" stroke="#FFFFFF" fill="#F2220A"></path>
                        <path d="M9.14285714,8.75892857 C9.41899952,8.75892857 9.64285714,8.9827862 9.64285714,9.25892857 L9.64285714,13.4017857 C9.64285714,13.6779281 9.41899952,13.9017857 9.14285714,13.9017857 L8.85714286,13.9017857 C8.58100048,13.9017857 8.35714286,13.6779281 8.35714286,13.4017857 L8.35714286,9.25892857 C8.35714286,8.9827862 8.58100048,8.75892857 8.85714286,8.75892857 L9.14285714,8.75892857 Z M9,6.1875 C9.3550402,6.1875 9.64285714,6.47531695 9.64285714,6.83035714 C9.64285714,7.18539734 9.3550402,7.47321429 9,7.47321429 C8.6449598,7.47321429 8.35714286,7.18539734 8.35714286,6.83035714 C8.35714286,6.47531695 8.6449598,6.1875 9,6.1875 Z" id="形状结合" fill="#FFFFFF" transform="translate(9.000000, 10.044643) rotate(-180.000000) translate(-9.000000, -10.044643) "></path>
                    </g>
                </g>
            </g>
        </g>
    </g>
</svg>