<?xml version="1.0" standalone="no"?><!DOCTYPE svg PUBLIC "-//W3C//DTD SVG 1.1//EN" "http://www.w3.org/Graphics/SVG/1.1/DTD/svg11.dtd"><svg t="1701246758552" class="icon" viewBox="0 0 1170 1024" version="1.1" xmlns="http://www.w3.org/2000/svg" p-id="9408" xmlns:xlink="http://www.w3.org/1999/xlink" width="228.515625" height="200"><path d="M877.696 740.544c0 40.448-32.704 73.152-73.152 73.152H73.152A73.152 73.152 0 0 1 0 740.544V137.152C0 96.768 32.768 64 73.152 64h279.936c7.808 0 15.04 4.16 19.008 10.88l66.752 114.56h365.696c40.448 0 73.152 32.64 73.152 73.088v478.08z m-73.152-310.848H73.088v310.848h731.52l-0.064-310.848zM323.648 137.088H73.152l-0.064 219.456h731.456V262.528h-407.68l-73.216-125.44zM987.52 384.192c17.92 0 32.832 12.928 35.968 30.016l0.576 6.592v466.048c0 37.504-28.224 68.48-64.64 72.64l-8.512 0.512H256a36.544 36.544 0 0 1-6.592-72.576L256 886.848h694.848V420.8c0-20.224 16.384-36.608 36.608-36.608z" fill="#999999" p-id="9409"></path></svg>