<?xml version="1.0" standalone="no"?><!DOCTYPE svg PUBLIC "-//W3C//DTD SVG 1.1//EN" "http://www.w3.org/Graphics/SVG/1.1/DTD/svg11.dtd"><svg t="1701247177417" class="icon" viewBox="0 0 1024 1024" version="1.1" xmlns="http://www.w3.org/2000/svg" p-id="9730" xmlns:xlink="http://www.w3.org/1999/xlink" width="200" height="200"><path d="M367.4048 83.2h304.768a41.6 41.6 0 0 1 0 83.2H367.4048a41.6 41.6 0 1 1 0-83.2z m0 166.4h615.04a41.6 41.6 0 1 1 0 83.2H367.4048a41.6 41.6 0 1 1 0-83.2zM108.6528 0c-13.632 15.168-30.72 28.544-51.2 41.344C37.0368 52.992 18.2848 61.184 0.0448 65.92v62.912c37.504-11.072 68.736-28.544 93.184-52.48V416h61.952V0h-46.592z m273.152 691.2h296.768a41.6 41.6 0 0 1 0 83.2H381.7408a41.6 41.6 0 1 1 0-83.2z m0 166.4h600.704a41.6 41.6 0 1 1 0 83.2H381.7408a41.6 41.6 0 1 1 0-83.2zM134.1888 608c-39.68 0-72.064 14.272-96 44.032-23.552 27.392-35.52 64-36.032 109.696H58.9248c1.088-33.152 7.36-57.728 19.84-74.88 12.032-17.728 29.76-26.24 53.248-26.24 21.952 0 39.168 5.696 50.624 17.088 11.52 11.456 17.28 28.608 17.28 51.456 0 24-8.96 46.272-25.6 66.816-10.432 12.032-28.16 27.52-53.248 46.912-42.24 32-70.464 56.576-84.032 74.24A163.84 163.84 0 0 0 0.0448 1024h256.768v-54.848H70.5088c7.808-22.272 31.808-48 72-77.184 37.12-27.392 62.656-49.088 77.248-65.664 24-29.184 36.48-61.184 36.48-96.64 0-35.968-11.456-65.088-33.92-87.936C199.4688 618.88 169.6448 608 134.2528 608z" fill="#999999" p-id="9731"></path></svg>