<?xml version="1.0" encoding="UTF-8"?>
<svg width="160px" height="160px" viewBox="0 0 160 160" version="1.1" xmlns="http://www.w3.org/2000/svg" xmlns:xlink="http://www.w3.org/1999/xlink">
    <title>结果错误</title>
    <defs>
        <linearGradient x1="80.9165737%" y1="88.9655413%" x2="16.4892578%" y2="12.9778181%" id="linearGradient-1">
            <stop stop-color="#F8F8F8" stop-opacity="0.226535184" offset="0%"></stop>
            <stop stop-color="#F1F1F1" offset="100%"></stop>
        </linearGradient>
    </defs>
    <g id="dam-icon" stroke="none" stroke-width="1" fill="none" fill-rule="evenodd">
        <g id="类型" transform="translate(-321.000000, -428.000000)">
            <g id="结果错误" transform="translate(321.000000, 428.000000)">
                <circle id="椭圆_1699" fill="url(#linearGradient-1)" fill-rule="nonzero" cx="80" cy="80" r="60"></circle>
                <rect id="矩形_17690" fill="#DDDDDD" fill-rule="nonzero" x="46" y="39" width="68" height="82" rx="2"></rect>
                <rect id="矩形_17691" fill="#FDFDFD" fill-rule="nonzero" x="52" y="44" width="56" height="71" rx="2"></rect>
                <circle id="椭圆_1700" fill="#E9E9E9" fill-rule="nonzero" cx="5" cy="68" r="5"></circle>
                <circle id="椭圆_1701" fill="#EFEFEF" fill-rule="nonzero" cx="129" cy="16" r="4"></circle>
                <path d="M80,33 C83.2383969,33 85.8775718,35.5655749 85.9958615,38.7750617 L86,39 L97,39 C98.6568542,39 100,40.3431458 100,42 L100,46 L60,46 L60,42 C60,40.3431458 61.3431458,39 63,39 L74,39 C74,35.6862915 76.6862915,33 80,33 Z M80,36 C78.8954305,36 78,36.8954305 78,38 C78,39.1045695 78.8954305,40 80,40 C81.1045695,40 82,39.1045695 82,38 C82,36.8954305 81.1045695,36 80,36 Z" id="形状结合" fill="#B0B0B0"></path>
                <path d="M87.9183673,98 C89.0229368,98 89.9183673,98.8954305 89.9183673,100 C89.9183673,101.104569 89.0229368,102 87.9183673,102 L60,102 C58.8954305,102 58,101.104569 58,100 C58,98.8954305 58.8954305,98 60,98 L87.9183673,98 Z M100,88 C101.104569,88 102,88.8954305 102,90 C102,91.1045695 101.104569,92 100,92 L60,92 C58.8954305,92 58,91.1045695 58,90 C58,88.8954305 58.8954305,88 60,88 L100,88 Z M100,78 C101.104569,78 102,78.8954305 102,80 C102,81.1045695 101.104569,82 100,82 L60,82 C58.8954305,82 58,81.1045695 58,80 C58,78.8954305 58.8954305,78 60,78 L100,78 Z M100,68 C101.104569,68 102,68.8954305 102,70 C102,71.1045695 101.104569,72 100,72 L80,72 C78.8954305,72 78,71.1045695 78,70 C78,68.8954305 78.8954305,68 80,68 L100,68 Z M100,58 C101.104569,58 102,58.8954305 102,60 C102,61.1045695 101.104569,62 100,62 L80,62 C78.8954305,62 78,61.1045695 78,60 C78,58.8954305 78.8954305,58 80,58 L100,58 Z" id="形状结合" fill="#E7E7E7" fill-rule="nonzero"></path>
                <path d="M71.3762951,71.3782951 C70.5472663,72.1941547 69.2170571,72.1941547 68.3880283,71.3782951 L64.9951854,67.9854522 L61.6023424,71.3782951 C60.7771553,72.2034821 59.4392628,72.2034821 58.6140757,71.378295 C57.7888887,70.5531079 57.7888886,69.2152154 58.6140756,68.3900283 L62.0069185,64.9971853 L58.6140756,61.6043424 C57.7888886,60.7791553 57.7888887,59.4412628 58.6140757,58.6160757 C59.4392628,57.7908887 60.7771553,57.7908886 61.6023424,58.6160756 L64.9951854,62.0089186 L68.3880283,58.6160756 C69.2132154,57.7908885 70.551108,57.7908885 71.3762951,58.6160756 C72.2014822,59.4412627 72.2014822,60.7791554 71.3762951,61.6043424 L67.9834522,64.9971853 L71.3762951,68.3900283 C72.1959348,69.2175054 72.1959348,70.5508179 71.3762951,71.3782951 Z" id="路径_3392" fill="#FF4B53" fill-rule="nonzero"></path>
                <path d="M20,0 C21.1045695,-2.02906125e-16 22,0.8954305 22,2 L22,5 L25,5 C26.1045695,5 27,5.8954305 27,7 C27,8.1045695 26.1045695,9 25,9 L22,9 L22,12 C22,13.1045695 21.1045695,14 20,14 C18.8954305,14 18,13.1045695 18,12 L18,9 L15,9 C13.8954305,9 13,8.1045695 13,7 C13,5.8954305 13.8954305,5 15,5 L18,5 L18,2 C18,0.8954305 18.8954305,2.02906125e-16 20,0 Z" id="形状结合" fill="#EFEFEF"></path>
                <path d="M153,39 C154.104569,39 155,39.8954305 155,41 L155,44 L158,44 C159.104569,44 160,44.8954305 160,46 C160,47.1045695 159.104569,48 158,48 L155,48 L155,51 C155,52.1045695 154.104569,53 153,53 C151.895431,53 151,52.1045695 151,51 L151,48 L148,48 C146.895431,48 146,47.1045695 146,46 C146,44.8954305 146.895431,44 148,44 L151,44 L151,41 C151,39.8954305 151.895431,39 153,39 Z" id="形状结合备份-2" fill="#DDDDDD"></path>
            </g>
        </g>
    </g>
</svg>