<?xml version="1.0" standalone="no"?><!DOCTYPE svg PUBLIC "-//W3C//DTD SVG 1.1//EN" "http://www.w3.org/Graphics/SVG/1.1/DTD/svg11.dtd"><svg t="1701325171544" class="icon" viewBox="0 0 1024 1024" version="1.1" xmlns="http://www.w3.org/2000/svg" p-id="7871" xmlns:xlink="http://www.w3.org/1999/xlink" width="200" height="200"><path d="M950.455018 0C990.886845 0 1023.590564 32.754898 1023.590564 73.135546v292.439824a36.542183 36.542183 0 0 1-73.135546 0V73.135546H73.186725V950.403838H438.608557a36.542183 36.542183 0 1 1 0 73.135546H73.186725C32.703719 1023.590564 0 990.835666 0 950.455018V73.186725C0 32.703719 32.754898 0 73.135546 0H950.403838z m-127.692923 584.930828c7.472211 0 13.972011 5.271491 15.456218 12.590164l9.570571 47.750499c1.023591 5.42503 4.913235 9.877649 10.031188 11.720112 4.35026 1.637745 8.598161 3.377849 12.794882 5.322671a15.865654 15.865654 0 0 0 15.405038-1.177129l40.534186-27.022791a15.558577 15.558577 0 0 1 19.755298 1.944822l26.203919 26.203919a15.609756 15.609756 0 0 1 1.944822 19.755298l-27.073971 40.585365a15.609756 15.609756 0 0 0-1.177129 15.353859c2.047181 4.247901 3.787285 8.444622 5.373851 12.794882a15.865654 15.865654 0 0 0 11.668932 10.082367l47.7505 9.570572a15.660936 15.660936 0 0 1 12.590164 15.353858v37.002799a15.712115 15.712115 0 0 1-12.590164 15.353859l-47.801679 9.621751a15.814474 15.814474 0 0 0-11.668933 10.031187 180.151939 180.151939 0 0 1-5.37385 12.794882 15.865654 15.865654 0 0 0 1.177129 15.353859l27.07397 40.585366a15.558577 15.558577 0 0 1-1.996001 19.755298l-26.10156 26.152739a15.660936 15.660936 0 0 1-19.806477 1.996001l-40.534187-27.07397a15.097961 15.097961 0 0 0-8.64934-2.661336 16.428629 16.428629 0 0 0-6.755698 1.535386 135.113954 135.113954 0 0 1-12.794882 5.322671 15.865654 15.865654 0 0 0-10.031187 11.668933l-9.621751 47.801679a15.660936 15.660936 0 0 1-15.353859 12.590164h-37.002799a15.712115 15.712115 0 0 1-15.353858-12.590164l-9.570572-47.801679a15.814474 15.814474 0 0 0-10.082367-11.668933 180.151939 180.151939 0 0 1-12.794882-5.37385 15.865654 15.865654 0 0 0-15.405038 1.177129l-40.534186 27.07397A15.558577 15.558577 0 0 1 662.263095 972.411036l-26.10156-26.10156a15.660936 15.660936 0 0 1-2.047181-19.806477l27.12515-40.534187a15.712115 15.712115 0 0 0 1.07477-15.405038 135.113954 135.113954 0 0 1-5.322671-12.794882 15.865654 15.865654 0 0 0-11.720112-10.031187l-47.750499-9.621751a15.660936 15.660936 0 0 1-12.590164-15.353859v-37.002799c0-7.472211 5.271491-13.818473 12.590164-15.353858l47.750499-9.621751a15.712115 15.712115 0 0 0 11.720112-10.082368 180.151939 180.151939 0 0 1 5.322671-12.794882 15.712115 15.712115 0 0 0-1.07477-15.353858l-27.12515-40.585366a15.558577 15.558577 0 0 1 2.047181-19.755298l26.10156-26.101559a15.609756 15.609756 0 0 1 19.755298-2.047181l40.585365 27.12515a15.097961 15.097961 0 0 0 8.598161 2.610156c2.405438 0 4.657337-0.511795 6.806877-1.484207a141.255498 141.255498 0 0 1 12.794883-5.322671 15.865654 15.865654 0 0 0 10.031187-11.720112l9.570572-47.750499a15.660936 15.660936 0 0 1 15.353858-12.590164z m72.67493 158.34946a109.728908 109.728908 0 1 0-91.201919 170.632547 109.626549 109.626549 0 0 0 91.201919-170.632547zM430.471012 219.355458l154.459816 365.57537h-72.930828l-33.420232-83.678529H323.147541L290.69972 584.982007H219.355458l155.944022-365.57537H430.419832z m-29.37705 77.434626L344.95002 445.517793h111.417833L401.093962 296.790084z" fill="#999999" p-id="7872"></path></svg>