<svg xmlns="http://www.w3.org/2000/svg" viewBox="0 0 28 32"><defs><style>.afa6db2f-854b-41bf-93bc-12040047f036{fill:#9e9fa5;}.e8db34a9-0cc1-4e4d-a0ba-76e18ddb1f5d{fill:#9fa0a6;}</style></defs><title>资源 81</title><g id="f0a47fd1-b3d3-44ed-8a5a-36f3d581b8b7" data-name="图层 2"><g id="fcd5b4f2-cf3f-4866-bad6-03a147c26840" data-name="ddc图标"><path class="afa6db2f-854b-41bf-93bc-12040047f036" d="M27.71,8.29,26,6.58,21.42,2,19.71.29A1,1,0,0,0,19,0H2A2,2,0,0,0,0,2V30a2,2,0,0,0,2,2H26a2,2,0,0,0,2-2V9A1,1,0,0,0,27.71,8.29ZM20,3.41,24.59,8H21a1,1,0,0,1-1-1ZM26,30H2V2H18V7a3,3,0,0,0,3,3h5Z"/><path class="e8db34a9-0cc1-4e4d-a0ba-76e18ddb1f5d" d="M19.41,11a.28.28,0,0,0-.2-.06l-8.06,1a.25.25,0,0,0-.23.25v9.25A2.6,2.6,0,0,0,9,20.64,2.34,2.34,0,0,0,6.5,22.8,2.33,2.33,0,0,0,9,25a2.33,2.33,0,0,0,2.47-2.15,2,2,0,0,0,0-.25.29.29,0,0,0,0-.09v-7.4l7.54-1v4.83A2.6,2.6,0,0,0,17,18.09a2.34,2.34,0,0,0-2.47,2.16A2.33,2.33,0,0,0,17,22.4a2.33,2.33,0,0,0,2.47-2.15v-9A.25.25,0,0,0,19.41,11Z"/></g></g></svg>