<svg xmlns="http://www.w3.org/2000/svg" xmlns:xlink="http://www.w3.org/1999/xlink" viewBox="0 0 187.46 147.97"><defs><style>.cls-1{fill:none;}.cls-2{fill:#f7f7f7;}.cls-3{fill:#e5e5e5;}.cls-4{fill:#d8d8d8;}.cls-5{fill:#eee;}.cls-6{fill:#fdfdfd;}.cls-7{clip-path:url(#clip-path);}.cls-8{fill:#efefef;}</style><clipPath id="clip-path"><circle class="cls-1" cx="91.11" cy="75.09" r="72.88"/></clipPath></defs><title>资源 20</title><g id="图层_2" data-name="图层 2"><g id="图层_1-2" data-name="图层 1"><circle class="cls-2" cx="91.11" cy="75.09" r="72.88"/><rect class="cls-3" x="52.59" y="35.14" width="77.04" height="88.59" rx="3.71" ry="3.71"/><path class="cls-4" d="M106.51,31.29H96.84a5.31,5.31,0,0,0-5.27-4.84h-.93a5.29,5.29,0,0,0-5.26,4.84H75.7a3.85,3.85,0,0,0,0,7.7h30.81a3.85,3.85,0,1,0,0-7.7Z"/><circle class="cls-5" cx="91.11" cy="32.72" r="2.5"/><rect class="cls-6" x="58.37" y="43.57" width="65.48" height="75.3" rx="3.15" ry="3.15"/><rect class="cls-4" x="68.11" y="57.73" width="46" height="5" rx="2.5" ry="2.5"/><rect class="cls-4" x="68.11" y="71.73" width="23" height="5" rx="1.77" ry="1.77"/><rect class="cls-4" x="68.11" y="85.73" width="23" height="5" rx="1.77" ry="1.77"/><rect class="cls-4" x="68.11" y="99.73" width="29.67" height="5" rx="2.01" ry="2.01"/><g class="cls-7"><path class="cls-3" d="M132.83,96.72h0a2.5,2.5,0,0,1,2.5,2.5V103a0,0,0,0,1,0,0h-5a0,0,0,0,1,0,0V99.21A2.5,2.5,0,0,1,132.83,96.72Z" transform="translate(-31.69 123.17) rotate(-45)"/><circle class="cls-4" cx="118.12" cy="85.12" r="18.72"/><circle class="cls-5" cx="118.12" cy="85.12" r="14.98"/><rect class="cls-4" x="140.53" y="97.55" width="7.49" height="27.46" rx="1.25" ry="1.25" transform="translate(-36.43 134.61) rotate(-45)"/></g><path class="cls-8" d="M20.6,6.17h-4v-4a2.17,2.17,0,0,0-4.34,0v4h-4a2.17,2.17,0,0,0,0,4.33h4v4a2.17,2.17,0,0,0,4.34,0v-4h4a2.17,2.17,0,0,0,0-4.33Z"/><path class="cls-4" d="M186.1,72h-2.52V69.49a1.37,1.37,0,1,0-2.73,0V72h-2.52a1.37,1.37,0,1,0,0,2.73h2.52v2.52a1.37,1.37,0,0,0,2.73,0V74.74h2.52a1.37,1.37,0,0,0,0-2.73Z"/><circle class="cls-8" cx="4.78" cy="67.73" r="4.78"/><circle class="cls-3" cx="164.39" cy="29.83" r="2.39"/></g></g></svg>