<?xml version="1.0" encoding="UTF-8"?>
<svg width="64px" height="64px" viewBox="0 0 64 64" version="1.1" xmlns="http://www.w3.org/2000/svg" xmlns:xlink="http://www.w3.org/1999/xlink">
    <title>业务对象主题目录</title>
    <g id="icon、颜色" stroke="none" stroke-width="1" fill="none" fill-rule="evenodd">
        <g id="资产状态" transform="translate(-1072.000000, -838.000000)">
            <g id="业务对象主题目录" transform="translate(1072.000000, 838.000000)">
                <circle id="椭圆形" fill="#EBFBF3" cx="32" cy="32" r="32"></circle>
                <g id="编组-11" transform="translate(16.000000, 16.000000)" fill="#3FD88B">
                    <path d="M28,0 C29.1045695,0 30,0.8954305 30,2 L30,12 C30,12.5522847 29.5522847,13 29,13 C28.4477153,13 28,12.5522847 28,12 L28,2 L2,2 L2,28 L9,28 C9.55228475,28 10,28.4477153 10,29 C10,29.5522847 9.55228475,30 9,30 L2,30 C0.8954305,30 0,29.1045695 0,28 L0,2 C0,0.8954305 0.8954305,0 2,0 L28,0 Z" id="路径" fill-rule="nonzero"></path>
                    <g id="编组-16" transform="translate(12.000000, 14.000000)">
                        <path d="M1.9534579,2.21718347 L8.98127812,2.17310634 C9.533552,2.16964258 9.98406638,2.6145411 9.98753013,3.16681498 C9.98755633,3.17099145 9.98755636,3.17516804 9.98753022,3.17934451 L9.96041185,7.51276065 C9.95698632,8.06014788 9.5140903,8.50305003 8.96670311,8.50648313 L1.9388829,8.55056027 C1.38660901,8.55402403 0.936094635,8.10912551 0.932630879,7.55685162 C0.932604685,7.55267515 0.932604656,7.54849856 0.932630792,7.54432209 L0.959749165,3.21090596 C0.963174696,2.66351872 1.40607071,2.22061658 1.9534579,2.21718347 Z" id="矩形" transform="translate(5.460081, 5.361833) rotate(-40.000000) translate(-5.460081, -5.361833) "></path>
                        <path d="M4.03533754,10.2942868 L11.0631578,10.2502097 C11.6154316,10.2467459 12.065946,10.6916444 12.0694098,11.2439183 C12.069436,11.2480948 12.069436,11.2522714 12.0694099,11.2564479 L12.0479536,14.6850734 C12.0445281,15.2324607 11.6016321,15.6753628 11.0542449,15.6787959 L4.02642469,15.7228731 C3.4741508,15.7263368 3.02363643,15.2814383 3.02017267,14.7291644 C3.02014648,14.7249879 3.02014645,14.7208113 3.02017258,14.7166349 L3.04162881,11.2880093 C3.04505434,10.7406221 3.48795035,10.2977199 4.03533754,10.2942868 Z" id="矩形备份-14" opacity="0.5" transform="translate(7.544791, 12.986541) rotate(-40.000000) translate(-7.544791, -12.986541) "></path>
                        <path d="M12.2625949,5.36293404 L18.4055922,5.40137671 C18.9529794,5.40480224 19.3958816,5.84769825 19.3993147,6.39508544 L19.4207432,9.81173051 C19.424207,10.3640044 18.9793085,10.8145188 18.4270346,10.8179825 C18.4228581,10.8180087 18.4186815,10.8180087 18.4145051,10.8179826 L12.2715078,10.7795399 C11.7241205,10.7761144 11.2812184,10.3332184 11.2777853,9.78583121 L11.2563568,6.36918614 C11.252893,5.81691225 11.6977915,5.36639788 12.2500654,5.36293413 C12.2542419,5.36290793 12.2584185,5.3629079 12.2625949,5.36293404 Z" id="矩形备份-11" opacity="0.7" transform="translate(15.338550, 8.090458) rotate(50.000000) translate(-15.338550, -8.090458) "></path>
                    </g>
                    <path d="M6,5 L7,5 C7.55228475,5 8,5.44771525 8,6 L8,7 C8,7.55228475 7.55228475,8 7,8 L6,8 C5.44771525,8 5,7.55228475 5,7 L5,6 C5,5.44771525 5.44771525,5 6,5 Z M11,5.5 L23,5.5 C23.5522847,5.5 24,5.94771525 24,6.5 C24,7.05228475 23.5522847,7.5 23,7.5 L11,7.5 C10.4477153,7.5 10,7.05228475 10,6.5 C10,5.94771525 10.4477153,5.5 11,5.5 Z" id="形状结合"></path>
                    <path d="M6,10 L7,10 C7.55228475,10 8,10.4477153 8,11 L8,12 C8,12.5522847 7.55228475,13 7,13 L6,13 C5.44771525,13 5,12.5522847 5,12 L5,11 C5,10.4477153 5.44771525,10 6,10 Z M11,10.5 L23,10.5 C23.5522847,10.5 24,10.9477153 24,11.5 C24,12.0522847 23.5522847,12.5 23,12.5 L11,12.5 C10.4477153,12.5 10,12.0522847 10,11.5 C10,10.9477153 10.4477153,10.5 11,10.5 Z" id="形状结合备份-2"></path>
                    <rect id="矩形" x="5" y="15" width="3" height="3" rx="1"></rect>
                </g>
            </g>
        </g>
    </g>
</svg>