<?xml version="1.0" encoding="UTF-8"?>
<svg width="64px" height="64px" viewBox="0 0 64 64" version="1.1" xmlns="http://www.w3.org/2000/svg" xmlns:xlink="http://www.w3.org/1999/xlink">
    <title>标签</title>
    <g id="元数据-知识图谱" stroke="none" stroke-width="1" fill="none" fill-rule="evenodd">
        <g id="列表详情" transform="translate(-2300.000000, -48.000000)">
            <g id="标签" transform="translate(2300.000000, 48.000000)">
                <circle id="椭圆形" fill="#EDF2FB" cx="32" cy="32" r="32"></circle>
                <g transform="translate(16.000000, 16.000001)" fill="#4D86E0">
                    <path d="M14.5424656,0.000886106614 C15.5048929,0.041456359 16.4176885,0.427370743 17.1016521,1.0681269 L17.2677719,1.23357277 L27.234,11.222 L28.3556912,12.314573 L28.34,12.329 L30.7457447,14.7401289 C32.2630187,16.1602857 32.4174512,18.5023903 31.0990866,20.1441849 L30.9574458,20.311461 L20.2705019,31.0229196 L20.1852502,31.0991121 C18.6227036,32.3425072 16.4082153,32.2887677 14.8943551,30.9852445 L14.7291003,30.8352678 L1.09187741,17.1628675 C0.48560154,16.5194934 0.108202915,15.6913363 0.0175659035,14.7814236 L0,14.531316 L0,3.63439589 L0.0088233922,3.50184804 C0.267652171,1.56635808 1.86847505,0.103447451 3.7972868,0.0052532496 L3.99794747,0 L14.5424656,0.000886106614 Z M26.932,13.748 L13.754,27.026 L16.1280717,29.4061732 C16.8594405,30.1052588 17.9700194,30.192743 18.7970521,29.6385926 L18.9399208,29.5341346 L18.904,29.5589988 L29.502884,18.9399426 C30.1739133,18.1867792 30.1597843,17.0545962 29.4749096,16.2989237 L29.3545557,16.1765941 L26.932,13.748 Z M22.192,9.1 L9.138,22.254 L12.46,25.491 L25.514,12.337 L22.192,9.1 Z M14.5003489,1.99999761 L4.00103944,1.99999761 C3.03879676,2.00148522 2.217222,2.67865678 2.01845503,3.60952275 L2,3.7139988 L1.99912078,14.4893915 C2.0162475,14.8975459 2.1561923,15.2879193 2.40556555,15.6199982 L2.51910047,15.7586305 L2.64580057,15.889416 L7.654,20.911 L20.83,7.634 L15.833123,2.62678499 C15.513418,2.28846945 15.0882501,2.07305304 14.6606231,2.01452507 L14.5003489,1.99999761 Z M9.00392821,6.00274953 C10.6607825,6.00274953 12.0039282,7.34589528 12.0039282,9.00274953 C12.0039282,10.6596038 10.6607825,12.0027495 9.00392821,12.0027495 C7.34707396,12.0027495 6.00392821,10.6596038 6.00392821,9.00274953 C6.00392821,7.34589528 7.34707396,6.00274953 9.00392821,6.00274953 Z" id="形状结合" fill-rule="nonzero"></path>
                    <polygon id="路径-6" fill-opacity="0.3" points="22.192 9.1 25.514 12.337 12.46 25.491 9.138 22.254"></polygon>
                </g>
            </g>
        </g>
    </g>
</svg>