<?xml version="1.0" encoding="UTF-8"?>
<svg width="64px" height="64px" viewBox="0 0 64 64" version="1.1" xmlns="http://www.w3.org/2000/svg" xmlns:xlink="http://www.w3.org/1999/xlink">
    <title>模型</title>
    <g id="icon、颜色" stroke="none" stroke-width="1" fill="none" fill-rule="evenodd">
        <g id="资产状态" transform="translate(-903.000000, -838.000000)">
            <g id="模型" transform="translate(903.000000, 838.000000)">
                <g id="业务对象备份" fill="#EDF6F9">
                    <circle id="椭圆形" cx="32" cy="32" r="32"></circle>
                </g>
                <g id="模型-2" transform="translate(17.000000, 16.000000)" fill="#4AA6C8">
                    <polygon id="多边形" opacity="0.09765625" points="15 1.06662837 29 7.4663986 15 13.8661688 1 7.4663986"></polygon>
                    <polygon id="矩形" opacity="0.3" points="1 7.4663986 15 13.8661688 15 30.9322228 1 24.5324526"></polygon>
                    <polygon id="矩形" opacity="0.2" transform="translate(22.000000, 19.199311) scale(-1, 1) translate(-22.000000, -19.199311) " points="15 7.4663986 29 13.8661688 29 30.9322228 15 24.5324526"></polygon>
                    <path d="M14.6060807,0.086242205 C14.8576295,-0.0287474017 15.1423705,-0.0287474017 15.3939193,0.086242205 L29.3939193,6.48601244 C29.4250377,6.50017908 29.4525163,6.51455558 29.4793176,6.53021501 C29.7164411,6.6658894 29.8724932,6.88091077 29.9476438,7.1210179 C29.9813425,7.2285762 30,7.34431701 30,7.4663986 L30,24.5324526 C30,24.9591339 29.7616031,25.3447607 29.3939193,25.5128387 L15.422826,31.8990058 C15.4162275,31.9023073 15.409594,31.9055335 15.4029268,31.9086836 L15.3870049,31.9160325 C15.358791,31.928749 15.329999,31.9401117 15.3007178,31.9500579 L15.3939193,31.912609 C15.3509204,31.9322649 15.3076064,31.9484478 15.2642011,31.9613149 C15.245609,31.9671626 15.2259588,31.9723102 15.2061388,31.9768199 C15.1901056,31.9802059 15.1751448,31.9832272 15.1601943,31.9858701 C15.1398003,31.9896694 15.1183479,31.9926906 15.0967557,31.9949577 C15.0831121,31.9962912 15.0694677,31.9974331 15.05585,31.9982696 C15.0371757,31.9994534 15.0187447,32.0000058 15.0002459,32 C14.9819184,32.0000255 14.9631543,31.9994731 14.9444791,31.9983553 C14.9305323,31.9974331 14.9168879,31.9962912 14.903224,31.9948387 C14.8816521,31.9926906 14.8601997,31.9896694 14.8389171,31.9859153 C14.8248552,31.9832272 14.8098944,31.9802059 14.7949324,31.9767997 C14.7740412,31.9723102 14.754391,31.9671626 14.7349358,31.9613946 C14.6923936,31.9484478 14.6490796,31.9322649 14.6060807,31.912609 L14.6992822,31.9500579 C14.670001,31.9401117 14.641209,31.928749 14.6129951,31.9160325 L14.5970732,31.9086836 C14.590406,31.9055335 14.5837725,31.9023073 14.577174,31.8990058 L0.606080701,25.5128387 C0.238396854,25.3447607 0,24.9591339 0,24.5324526 L0,7.4663986 C0,7.34431701 0.0186575107,7.2285762 0.0526974056,7.12147968 C0.136208751,6.85310776 0.320783583,6.61642929 0.606080701,6.48601244 L0.520682412,6.53021501 C0.547483697,6.51455558 0.574962299,6.50017908 0.603029213,6.48714814 Z M1.999,9.083 L2,23.8284778 L14,29.3152142 L13.999,14.569 L1.999,9.083 Z M27.999,9.083 L16,14.569 L16,29.315 L28,23.8284778 L27.999,9.083 Z M15,2.22498678 L3.536,7.466 L15,12.7056772 L26.462,7.4663986 L15,2.22498678 Z" id="形状结合" fill-rule="nonzero"></path>
                </g>
            </g>
        </g>
    </g>
</svg>