<?xml version="1.0" encoding="UTF-8"?>
<svg width="64px" height="64px" viewBox="0 0 64 64" version="1.1" xmlns="http://www.w3.org/2000/svg" xmlns:xlink="http://www.w3.org/1999/xlink">
    <title>系统域</title>
    <g id="icon、颜色" stroke="none" stroke-width="1" fill="none" fill-rule="evenodd">
        <g id="资产状态" transform="translate(-997.000000, -838.000000)">
            <g id="系统域" transform="translate(997.000000, 838.000000)">
                <circle id="椭圆形" fill="#E8F2FF" cx="32" cy="32" r="32"></circle>
                <path d="M46,17 C47.104,17 48,17.896 48,19 L48,46.1111111 C48,46.6020309 47.6020309,47 47.1111111,47 L16.8888889,47 C16.3979691,47 16,46.6020309 16,46.1111111 L16,19 C16,17.896 16.896,17 18,17 L46,17 Z M46,27 L18,27 L18,45 L46,45 L46,27 Z M24,36.5 C24.5522847,36.5 25,36.9477153 25,37.5 L25,38.5 C25,39.0522847 24.5522847,39.5 24,39.5 L23,39.5 C22.4477153,39.5 22,39.0522847 22,38.5 L22,37.5 C22,36.9477153 22.4477153,36.5 23,36.5 L24,36.5 Z M40,37 C40.5522847,37 41,37.4477153 41,38 C41,38.5522847 40.5522847,39 40,39 L28,39 C27.4477153,39 27,38.5522847 27,38 C27,37.4477153 27.4477153,37 28,37 L40,37 Z M24,30.5 C24.5522847,30.5 25,30.9477153 25,31.5 L25,32.5 C25,33.0522847 24.5522847,33.5 24,33.5 L23,33.5 C22.4477153,33.5 22,33.0522847 22,32.5 L22,31.5 C22,30.9477153 22.4477153,30.5 23,30.5 L24,30.5 Z M40,31 C40.5522847,31 41,31.4477153 41,32 C41,32.5522847 40.5522847,33 40,33 L28,33 C27.4477153,33 27,32.5522847 27,32 C27,31.4477153 27.4477153,31 28,31 L40,31 Z M46,19 L18,19 L18,25 L46,25 L46,19 Z M22,20.5 C22.5522847,20.5 23,20.9477153 23,21.5 L23,22.5 C23,23.0522847 22.5522847,23.5 22,23.5 L21,23.5 C20.4477153,23.5 20,23.0522847 20,22.5 L20,21.5 C20,20.9477153 20.4477153,20.5 21,20.5 L22,20.5 Z M27,20.5 C27.5522847,20.5 28,20.9477153 28,21.5 L28,22.5 C28,23.0522847 27.5522847,23.5 27,23.5 L26,23.5 C25.4477153,23.5 25,23.0522847 25,22.5 L25,21.5 C25,20.9477153 25.4477153,20.5 26,20.5 L27,20.5 Z" id="形状结合" fill="#197FFF" fill-rule="nonzero"></path>
            </g>
        </g>
    </g>
</svg>