<?xml version="1.0" encoding="UTF-8"?>
<svg width="64px" height="64px" viewBox="0 0 64 64" version="1.1" xmlns="http://www.w3.org/2000/svg" xmlns:xlink="http://www.w3.org/1999/xlink">
    <title>业务对象</title>
    <g id="icon、颜色" stroke="none" stroke-width="1" fill="none" fill-rule="evenodd">
        <g id="资产状态" transform="translate(-819.000000, -838.000000)">
            <g id="业务对象" transform="translate(819.000000, 838.000000)">
                <circle id="椭圆形" fill="#EBEFFE" cx="32" cy="32" r="32"></circle>
                <g id="编组-11" transform="translate(16.000000, 17.000000)" fill="#3C64F0">
                    <path d="M2,8 L2,28 L30,28 L30,8 L2,8 Z M30,2 L2,2 L2,6 L30,6 L30,2 Z M0,29.1111111 L0,2 C0,0.896 0.896,0 2,0 L30,0 C31.104,0 32,0.896 32,2 L32,29.1111111 C32,29.6020309 31.6020309,30 31.1111111,30 L0.888888875,30 C0.397969105,30 0,29.6020309 0,29.1111111 Z" id="形状" fill-rule="nonzero"></path>
                    <g id="编组-15" transform="translate(6.000000, 9.000000)">
                        <path d="M1.9698671,2.15089628 L8.95029391,2.15089628 C9.50257866,2.15089628 9.95029391,2.59861153 9.95029391,3.15089628 L9.95029391,7.43719504 C9.95029391,7.98947979 9.50257866,8.43719504 8.95029391,8.43719504 L1.9698671,8.43719504 C1.41758235,8.43719504 0.969867101,7.98947979 0.969867101,7.43719504 L0.969867101,3.15089628 C0.969867101,2.59861153 1.41758235,2.15089628 1.9698671,2.15089628 Z" id="矩形" transform="translate(5.460081, 5.294046) rotate(-40.000000) translate(-5.460081, -5.294046) "></path>
                        <path d="M4.05457782,10.1282294 L11.0350046,10.1282294 C11.5872894,10.1282294 12.0350046,10.5759446 12.0350046,11.1282294 L12.0350046,14.5164855 C12.0350046,15.0687702 11.5872894,15.5164855 11.0350046,15.5164855 L4.05457782,15.5164855 C3.50229307,15.5164855 3.05457782,15.0687702 3.05457782,14.5164855 L3.05457782,11.1282294 C3.05457782,10.5759446 3.50229307,10.1282294 4.05457782,10.1282294 Z" id="矩形备份-14" opacity="0.5" transform="translate(7.544791, 12.822357) rotate(-40.000000) translate(-7.544791, -12.822357) "></path>
                        <path d="M12.2973579,5.29404566 L18.3797421,5.29404566 C18.9320268,5.29404566 19.3797421,5.74176091 19.3797421,6.29404566 L19.3797421,9.68230175 C19.3797421,10.2345865 18.9320268,10.6823017 18.3797421,10.6823017 L12.2973579,10.6823017 C11.7450732,10.6823017 11.2973579,10.2345865 11.2973579,9.68230175 L11.2973579,6.29404566 C11.2973579,5.74176091 11.7450732,5.29404566 12.2973579,5.29404566 Z" id="矩形备份-11" opacity="0.7" transform="translate(15.338550, 7.988174) rotate(50.000000) translate(-15.338550, -7.988174) "></path>
                    </g>
                </g>
            </g>
        </g>
    </g>
</svg>