<?xml version="1.0" encoding="UTF-8"?>
<svg width="64px" height="64px" viewBox="0 0 64 64" version="1.1" xmlns="http://www.w3.org/2000/svg" xmlns:xlink="http://www.w3.org/1999/xlink">
    <title>视图</title>
    <g id="元数据-知识图谱" stroke="none" stroke-width="1" fill="none" fill-rule="evenodd">
        <g id="列表详情" transform="translate(-568.000000, -48.000000)">
            <g id="视图" transform="translate(568.000000, 48.000000)">
                <circle id="椭圆形" fill="#EDEEF9" cx="32" cy="32" r="32"></circle>
                <path d="M46,16 C47.1045695,16 48,16.8954305 48,18 L48,18 L48,46 C48,47.1045695 47.1045695,48 46,48 L46,48 L18,48 C16.8954305,48 16,47.1045695 16,46 L16,46 L16,18 C16,16.8954305 16.8954305,16 18,16 L18,16 Z M46,33 L18,33 L18,46 L46,46 L46,33 Z M27.7112964,34.0009694 L27.8431409,34.0156495 C28.1060798,34.0628337 28.3392971,34.2137891 28.4907869,34.4348534 C28.6074679,34.6028374 28.6702584,34.802652 28.6707411,35.0075107 C28.6702027,35.3362597 28.5096443,35.6439466 28.2408506,35.8313333 L28.2408506,35.8313333 L26.1913726,37.2479065 C25.9922611,37.1177477 25.7813814,37.0067437 25.561533,36.9163681 L25.628,36.946 L25.7773124,37.013016 C25.8478283,37.0481654 25.9168752,37.086216 25.9842775,37.1270711 L26.1813751,37.2579531 C26.4195027,37.4031994 26.6379275,37.5787986 26.8312096,37.7803773 C27.2367143,38.1874897 27.5503891,38.6774473 27.7509753,39.2170437 C28.7600053,38.8525442 29.8187347,38.645856 30.8901757,38.6042 C32.0343522,38.6517537 33.1657186,38.8649281 34.2493201,39.2371369 C34.6282219,38.19248 35.4208889,37.3522675 36.4387624,36.9163681 C37.4356348,36.4920786 38.5610956,36.4920786 39.5579679,36.9163681 C39.7676284,36.9973684 39.9659096,37.1054396 40.1478177,37.2378599 L40.1478177,37.2378599 L40.1578151,37.2579531 L43.087069,35.1883498 C43.3053334,35.0336377 43.5761277,34.973127 43.8390665,35.0203113 C44.1020054,35.0674955 44.3352227,35.2184509 44.4867125,35.4395152 C44.6033935,35.6074992 44.666184,35.8073138 44.6666667,36.0121725 C44.6661283,36.3409216 44.5055699,36.6486084 44.2367762,36.8359952 L44.2367762,36.8359952 L41.5774535,38.7548993 C42.3211905,40.1566341 42.1734533,41.8670855 41.2005048,43.1190826 C40.2275564,44.3710798 38.6120146,44.9296287 37.0784815,44.5442093 C35.5449484,44.1587899 34.381261,42.9017436 34.1093558,41.3368801 C33.0995136,40.9275514 32.0279448,40.6931607 30.940163,40.6436635 C29.9072142,40.6848353 28.890587,40.916404 27.940927,41.3268335 C27.6170214,43.2260979 25.9971637,44.6269934 24.0800286,44.66584 C22.1628935,44.7046866 20.4881573,43.3705487 20.0883286,41.4859493 C19.6884999,39.6013498 20.676131,37.6968063 22.4423275,36.946508 C22.8281007,36.7747775 23.2409849,36.6727493 23.6620169,36.6451094 C23.7077004,36.5872711 23.7615962,36.5364952 23.8219761,36.4944102 L23.8219761,36.4944102 L27.0911434,34.183688 C27.3094078,34.0289758 27.5802021,33.9684652 27.8431409,34.0156495 Z M24.0019303,38.6042 C22.8976421,38.6042 22.0024396,39.5038048 22.0024396,40.6135236 C22.0024396,41.7232424 22.8976421,42.6228473 24.0019303,42.6228473 C25.1062185,42.6228473 26.001421,41.7232424 26.001421,40.6135236 C26.001421,39.5038048 25.1062185,38.6042 24.0019303,38.6042 Z M37.9983652,38.6042 C36.894077,38.6042 35.9988745,39.5038048 35.9988745,40.6135236 L35.9988745,40.6135236 L36.0043588,40.7634818 C36.0806885,41.803166 36.9442719,42.6228473 37.9983652,42.6228473 C39.1026534,42.6228473 39.9978559,41.7232424 39.9978559,40.6135236 C39.9978559,39.5038048 39.1026534,38.6042 37.9983652,38.6042 Z M36,25 L28,25 L28,31 L36,31 L36,25 Z M26,25 L18,25 L18,31 L26,31 L26,25 Z M46,25 L38,25 L38,31 L46,31 L46,25 Z" id="视图(48*48)" fill="#4B5CC4" fill-rule="nonzero"></path>
            </g>
        </g>
    </g>
</svg>