<?xml version="1.0" encoding="UTF-8"?>
<svg width="64px" height="64px" viewBox="0 0 64 64" version="1.1" xmlns="http://www.w3.org/2000/svg" xmlns:xlink="http://www.w3.org/1999/xlink">
    <title>应用系统</title>
    <g id="元数据-知识图谱" stroke="none" stroke-width="1" fill="none" fill-rule="evenodd">
        <g id="列表详情" transform="translate(-180.000000, -48.000000)">
            <g id="应用系统" transform="translate(180.000000, 48.000000)">
                <circle id="椭圆形" fill="#EDF0F7" cx="32" cy="32" r="32"></circle>
                <g id="数据源" transform="translate(18.000000, 17.000000)" fill="#4C6CB3">
                    <rect id="矩形备份-37" opacity="0.2" x="2" y="2" width="24" height="9"></rect>
                    <rect id="矩形备份-38" opacity="0.2" x="2" y="21" width="24" height="9"></rect>
                    <path d="M26,0 C27.1045695,0 28,0.8954305 28,2 L28,11 C28,12.1045695 27.1045695,13 26,13 L25,13 L25,19 L26,19 C27.1045695,19 28,19.8954305 28,21 L28,30 C28,31.1045695 27.1045695,32 26,32 L2,32 C0.8954305,32 0,31.1045695 0,30 L0,21 C0,19.8954305 0.8954305,19 2,19 L3,19 L3,13 L2,13 C0.8954305,13 0,12.1045695 0,11 L0,2 C0,0.8954305 0.8954305,0 2,0 L26,0 Z M26,21 L2,21 L2,30 L26,30 L26,21 Z M6,23 C7.1045695,23 8,23.8954305 8,25 C8,26.1045695 7.1045695,27 6,27 C4.8954305,27 4,26.1045695 4,25 C4,23.8954305 4.8954305,23 6,23 Z M11,23 C12.1045695,23 13,23.8954305 13,25 C13,26.1045695 12.1045695,27 11,27 C9.8954305,27 9,26.1045695 9,25 C9,23.8954305 9.8954305,23 11,23 Z M23,19 L23,13 L5,13 L5,19 L23,19 Z M26,2 L2,2 L2,11 L26,11 L26,2 Z M6,4 C7.1045695,4 8,4.8954305 8,6 C8,7.1045695 7.1045695,8 6,8 C4.8954305,8 4,7.1045695 4,6 C4,4.8954305 4.8954305,4 6,4 Z M11,4 C12.1045695,4 13,4.8954305 13,6 C13,7.1045695 12.1045695,8 11,8 C9.8954305,8 9,7.1045695 9,6 C9,4.8954305 9.8954305,4 11,4 Z" id="形状结合" fill-rule="nonzero"></path>
                </g>
            </g>
        </g>
    </g>
</svg>