<?xml version="1.0" encoding="UTF-8"?>
<svg width="64px" height="64px" viewBox="0 0 64 64" version="1.1" xmlns="http://www.w3.org/2000/svg" xmlns:xlink="http://www.w3.org/1999/xlink">
    <title>编组 11</title>
    <g id="dam-icon" stroke="none" stroke-width="1" fill="none" fill-rule="evenodd">
        <g id="资产状态" transform="translate(-1491.000000, -88.000000)">
            <g id="编组-11" transform="translate(1491.000000, 88.000000)">
                <circle id="椭圆形备份-11" fill="#F3FBFE" cx="32" cy="32" r="32"></circle>
                <g id="编组-33" transform="translate(16.000000, 16.000000)">
                    <g id="编组-26">
                        <path d="M3,0 C3.55228475,-1.01453063e-16 4,0.44771525 4,1 L4,28 L31,28 C31.5522847,28 32,28.4477153 32,29 C32,29.5522847 31.5522847,30 31,30 L4,30 L4,31 C4,31.5522847 3.55228475,32 3,32 C2.44771525,32 2,31.5522847 2,31 L2,30 L1,30 C0.44771525,30 6.76353751e-17,29.5522847 0,29 C-6.76353751e-17,28.4477153 0.44771525,28 1,28 L2,28 L2,1 C2,0.44771525 2.44771525,1.01453063e-16 3,0 Z" id="形状结合" fill="#81D3F0"></path>
                        <circle id="椭圆形备份-12" fill="#5EBDDE" cx="3" cy="3" r="3"></circle>
                        <circle id="椭圆形备份-15" fill="#5EBDDE" cx="29" cy="29" r="3"></circle>
                        <circle id="椭圆形备份-16" fill="#5EBDDE" cx="3" cy="29" r="3"></circle>
                    </g>
                    <path d="M19.16,0.836046545 L19.1602448,12.6160465 L29.0607817,6.69435224 L29.5742281,7.55247393 L19.6382448,13.4970465 L29.2545547,19.1856159 L28.7454453,20.0463177 L19.16,14.377 L19.16,26.0000132 L18.16,26.0000132 L18.1602448,14.3810465 L8.71110931,20.0448572 L8.19709382,19.1870763 L17.6902448,13.4970465 L7.84224476,7.55142798 L8.35917126,6.69539819 L18.1592448,12.6130465 L18.16,0.836046545 L19.16,0.836046545 Z" id="形状结合" fill="#5EBDDE" fill-rule="nonzero" opacity="0.887718564"></path>
                    <path d="M18.6603299,0 L30,6.74982993 L30,20.2501701 L18.6603299,27 L7.32,20.2501701 L7.32,6.74982993 L18.6603299,0 Z M18.66,2.327 L9.319,7.887 L9.319,19.112 L18.66,24.672 L27.999,19.113 L27.999,7.886 L18.66,2.327 Z" id="路径" fill="#81D3F0" fill-rule="nonzero"></path>
                    <polygon id="路径-3" fill-opacity="0.609702797" fill="#81D3F0" points="11.8383789 10.263916 18.66 5.65087891 25.2329102 9.14916992 26.9052734 16.2446289 18.66 21.3728027 11.4291992 17.7558594"></polygon>
                </g>
            </g>
        </g>
    </g>
</svg>