<?xml version="1.0" encoding="UTF-8"?>
<svg width="64px" height="64px" viewBox="0 0 64 64" version="1.1" xmlns="http://www.w3.org/2000/svg" xmlns:xlink="http://www.w3.org/1999/xlink">
    <title>指标标准</title>
    <g id="元数据-知识图谱" stroke="none" stroke-width="1" fill="none" fill-rule="evenodd">
        <g id="列表详情" transform="translate(-1168.000000, -48.000000)">
            <g id="指标标准" transform="translate(1168.000000, 48.000000)">
                <circle id="椭圆形" fill="#FAF7EB" cx="32" cy="32" r="32"></circle>
                <g id="编组" transform="translate(18.000000, 16.000000)" fill="#D1AF3E">
                    <path d="M26.6666667,0 C27.4030463,0 28,0.600770779 28,1.34185909 L28,30.6578675 C28,31.3989558 27.4030463,32 26.6666667,32 C26.4511701,32 26.2388844,31.9471599 26.0479907,31.8465286 L14.618676,25.8214633 C14.2311951,25.6171993 13.7688049,25.6171993 13.381324,25.8214633 L1.95200933,31.8465286 C1.299701,32.1903988 0.493909936,31.9369789 0.15222462,31.2804995 C0.0522326839,31.0883852 0,30.8747421 0,30.6578675 L0,1.34185909 C0,0.600770779 0.596953667,0 1.33333333,0 L26.6666667,0 Z M2,16 L2,29.5484081 L12.45331,24.0384717 C13.3710278,23.5546885 14.456825,23.5292263 15.3922353,23.9620849 L15.54669,24.0384717 L26,29.5484081 L26,16 L2,16 Z M21.4138272,6.67873893 L21.3329604,6.70499471 L17.58862,8.16062943 C17.4302461,8.22258581 17.31752,8.36504236 17.293632,8.53341772 C17.2737254,8.67373052 17.3180838,8.81391424 17.411485,8.91667679 L17.473289,8.97354544 L18.3668248,9.6778487 L16.3222178,12.0852446 L11.1944646,9.03065111 C10.9237792,8.85849333 10.5822271,8.85717349 10.3126914,9.01852217 L10.2152703,9.08663706 L6.3259263,12.0292586 C6.14842363,12.1643385 6.03306759,12.3654394 6.00607588,12.5868558 C5.97908416,12.8082722 6.0427495,13.0311966 6.18260227,13.2049636 C6.323552,13.3851193 6.53078044,13.5013232 6.75800559,13.5276224 C6.94735988,13.5495384 7.13745591,13.5074992 7.29878758,13.4100088 L7.3918988,13.3449285 L10.8199186,10.7695747 L16.0909959,13.9075873 C16.2324377,13.9838138 16.3911104,14.0223734 16.5517602,14.0195592 C16.770658,14.0189992 16.9799206,13.9362373 17.1392921,13.7899736 L17.2146339,13.7116365 L19.7782306,10.7130289 L20.6420938,11.3848603 C20.7781914,11.4890405 20.9589909,11.5141217 21.118308,11.4509224 C21.2510722,11.3982564 21.3526726,11.290729 21.3988657,11.1584642 L21.4197387,11.0763778 L21.9958341,7.20886827 C22.0184481,7.03822043 21.9478026,6.86855328 21.8107604,6.76438268 C21.6965585,6.67757385 21.5508695,6.64736313 21.4138272,6.67873893 Z M2,5.33333333 L26,5.33333333 L26,2.01278864 L2,2.01278864 L2,5.33333333 Z" id="形状结合" fill-rule="nonzero"></path>
                    <rect id="矩形备份-6" opacity="0.7" x="2" y="18.6666667" width="24" height="2.66666667"></rect>
                </g>
            </g>
        </g>
    </g>
</svg>