<?xml version="1.0" encoding="UTF-8"?>
<svg width="64px" height="64px" viewBox="0 0 64 64" version="1.1" xmlns="http://www.w3.org/2000/svg" xmlns:xlink="http://www.w3.org/1999/xlink">
    <title>修饰词</title>
    <g id="控件" stroke="none" stroke-width="1" fill="none" fill-rule="evenodd">
        <g id="知识图谱" transform="translate(-3153.000000, -18.000000)">
            <g id="修饰词" transform="translate(3153.000000, 18.000000)">
                <circle id="椭圆形" fill="#EBF8EE" cx="32" cy="32" r="32"></circle>
                <polygon id="矩形备份-10" fill-opacity="0.2" fill="#3CBC5B" points="18.8333333 18.6666667 47.8333333 18.6666667 47.8333333 47.6666667 18.8333333 47.6666667"></polygon>
                <path d="M46.6666667,17 L19.3333333,17 C18.0446689,17 17,18.0446689 17,19.3333333 L17,46.6666667 C17,47.9553311 18.0446689,49 19.3333333,49 L46.6666667,49 C47.9553311,49 49,47.9553311 49,46.6666667 L49,19.3333333 C49,18.0446689 47.9553311,17 46.6666667,17 Z M19.3333333,19 L46.6666667,19 C46.8507616,19 47,19.1492384 47,19.3333333 L47,46.6666667 C47,46.8507616 46.8507616,47 46.6666667,47 L19.3333333,47 C19.1492384,47 19,46.8507616 19,46.6666667 L19,19.3333333 C19,19.1492384 19.1492384,19 19.3333333,19 Z" id="形状结合" fill="#3CBC5B" fill-rule="nonzero"></path>
                <path d="M30.992,32.776 L31.712,30.4 C32.288,28.48 32.84,26.536 33.344,24.52 L33.44,24.52 C33.992,26.512 34.52,28.48 35.12,30.4 L35.816,32.776 L30.992,32.776 Z M37.976,40 L40.928,40 L35.072,22.336 L31.856,22.336 L26,40 L28.832,40 L30.344,34.96 L36.488,34.96 L37.976,40 Z" id="形状" fill="#3CBC5B" fill-rule="nonzero"></path>
                <rect id="矩形" fill="#3CBC5B" x="22" y="42" width="22" height="2" rx="1"></rect>
            </g>
        </g>
    </g>
</svg>