<?xml version="1.0" encoding="UTF-8"?>
<svg width="64px" height="64px" viewBox="0 0 64 64" version="1.1" xmlns="http://www.w3.org/2000/svg" xmlns:xlink="http://www.w3.org/1999/xlink">
    <title>程序包</title>
    <g id="dam-icon" stroke="none" stroke-width="1" fill="none" fill-rule="evenodd">
        <g id="资产状态" transform="translate(-1544.000000, -408.000000)">
            <g id="编组-20" transform="translate(0.000000, 390.000000)">
                <g id="程序包" transform="translate(1544.000000, 18.000000)">
                    <circle id="椭圆形" fill="#EEF2F4" cx="32" cy="32" r="32"></circle>
                    <g id="编组-30" transform="translate(16.000000, 17.333333)" fill="#5B7E91">
                        <path d="M30,0 C31.1045695,0 32,0.8954305 32,2 L32,8.66666667 C32,9.77123617 31.1045695,10.6666667 30,10.6666667 L29.333,10.666 L29.3333333,28 C29.3333333,28.7363797 28.7363797,29.3333333 28,29.3333333 L4,29.3333333 C3.26362033,29.3333333 2.66666667,28.7363797 2.66666667,28 L2.666,10.666 L2,10.6666667 C0.8954305,10.6666667 0,9.77123617 0,8.66666667 L0,2 C0,0.8954305 0.8954305,0 2,0 L30,0 Z M27.3333333,10.6666667 L20,10.6666667 L20,10.6666667 L20,12.6666667 C20,13.7712362 19.1045695,14.6666667 18,14.6666667 L13.3333333,14.6666667 C12.2287638,14.6666667 11.3333333,13.7712362 11.3333333,12.6666667 L11.3333333,10.6666667 L4.66666667,10.6666667 L4.66666667,27.3333333 L27.3333333,27.3333333 L27.3333333,10.6666667 Z M23,23.3333333 C23.5522847,23.3333333 24,23.7810486 24,24.3333333 C24,24.8856181 23.5522847,25.3333333 23,25.3333333 L9,25.3333333 C8.44771525,25.3333333 8,24.8856181 8,24.3333333 C8,23.7810486 8.44771525,23.3333333 9,23.3333333 L23,23.3333333 Z M18,10.6666667 L13.3333333,10.6666667 L13.3333333,12.6666667 L18,12.6666667 L18,10.6666667 Z M11.3333333,2 L2,2 L2,8.66666667 L11.3333333,8.66666667 L11.3333333,8.66666667 L11.3333333,2 Z M18,2 L13.3333333,2 L13.3333333,8.66666667 L18,8.66666667 L18,2 Z M30,2 L20,2 L20,2 L20,8.66666667 L30,8.66666667 L30,2 Z" id="形状结合" fill-rule="nonzero"></path>
                        <path d="M18,10.6666667 L18,12.6666667 L13,12.6666667 L13,10.6666667 L18,10.6666667 Z M18,1.66666667 L18,8.66666667 L13,8.66666667 L13,1.66666667 L18,1.66666667 Z" id="形状结合" fill-opacity="0.2"></path>
                    </g>
                </g>
            </g>
        </g>
    </g>
</svg>