<?xml version="1.0" encoding="UTF-8"?>
<svg width="64px" height="64px" viewBox="0 0 64 64" version="1.1" xmlns="http://www.w3.org/2000/svg" xmlns:xlink="http://www.w3.org/1999/xlink">
    <title>业务指标</title>
    <g id="控件" stroke="none" stroke-width="1" fill="none" fill-rule="evenodd">
        <g id="知识图谱" transform="translate(-2850.000000, -18.000000)">
            <g id="业务指标" transform="translate(2850.000000, 18.000000)">
                <circle id="椭圆形" fill="#F8F9E8" cx="32" cy="32" r="32"></circle>
                <path d="M44.6666667,16 C45.4030463,16 46,16.6007708 46,17.3418591 L46,46.6578675 C46,47.3989558 45.4030463,48 44.6666667,48 C44.4511701,48 44.2388844,47.9471599 44.0479907,47.8465286 L32.618676,41.8214633 C32.2311951,41.6171993 31.7688049,41.6171993 31.381324,41.8214633 L19.9520093,47.8465286 C19.299701,48.1903988 18.4939099,47.9369789 18.1522246,47.2804995 C18.0522327,47.0883852 18,46.8747421 18,46.6578675 L18,17.3418591 C18,16.6007708 18.5969537,16 19.3333333,16 L44.6666667,16 Z M20,32 L20,45.5484081 L30.45331,40.0384717 C31.3710278,39.5546885 32.456825,39.5292263 33.3922353,39.9620849 L33.54669,40.0384717 L44,45.5484081 L44,32 L20,32 Z M39.3329604,22.7049947 L35.58862,24.1606294 C35.4302461,24.2225858 35.31752,24.3650424 35.293632,24.5334177 C35.2697441,24.7017931 35.3383978,24.8699826 35.473289,24.9735454 L36.3668248,25.6778487 L34.3222178,28.0852446 L29.1944646,25.0306511 C28.8899436,24.8369736 28.4957318,24.8595129 28.2152703,25.0866371 L24.3259263,28.0292586 C24.1484236,28.1643385 24.0330676,28.3654394 24.0060759,28.5868558 C23.9790842,28.8082722 24.0427495,29.0311966 24.1826023,29.2049636 C24.323552,29.3851193 24.5307804,29.5013232 24.7580056,29.5276224 C24.9852307,29.5539216 25.213524,29.4881254 25.3918988,29.3449285 L28.8199186,26.7695747 L34.0909959,29.9075873 C34.2324377,29.9838138 34.3911104,30.0223734 34.5517602,30.0195592 C34.807141,30.0189058 35.0494071,29.9063667 35.2146339,29.7116365 L37.7782306,26.7130289 L38.6420938,27.3848603 C38.7781914,27.4890405 38.9589909,27.5141217 39.118308,27.4509224 C39.2776251,27.3877232 39.3920662,27.2455236 39.4197387,27.0763778 L39.9958341,23.2088683 C40.0184481,23.0382204 39.9478026,22.8685533 39.8107604,22.7643827 C39.6737182,22.6602121 39.4913344,22.6375428 39.3329604,22.7049947 Z M20,21.3333333 L44,21.3333333 L44,18.0127886 L20,18.0127886 L20,21.3333333 Z" id="形状结合" fill="#BDC419" fill-rule="nonzero"></path>
                <rect id="矩形备份-6" fill="#BDC419" opacity="0.7" x="20" y="34.6666667" width="24" height="2.66666667"></rect>
                <circle id="椭圆形备份-4" fill="#BDC419" cx="49" cy="32" r="9"></circle>
                <path d="M49,22 C43.4771525,22 39,26.4771525 39,32 C39,37.5228475 43.4771525,42 49,42 C54.5228475,42 59,37.5228475 59,32 C59,26.4771525 54.5228475,22 49,22 Z M49,24 C53.418278,24 57,27.581722 57,32 C57,36.418278 53.418278,40 49,40 C44.581722,40 41,36.418278 41,32 C41,27.581722 44.581722,24 49,24 Z" id="椭圆形备份-4" fill="#FAF7EB" fill-rule="nonzero"></path>
                <path d="M53.212,28.728 C52.744,30.048 51.88,31.776 51.22,32.856 L51.952,33.252 C52.636,32.148 53.44,30.492 54.016,29.124 L53.212,28.728 Z M46.54,32.82 C46.216,31.776 45.484,30.024 44.848,28.692 L44.02,28.944 C44.644,30.3 45.364,32.1 45.652,33.156 L46.54,32.82 Z M50.908,35.412 L50.908,26.124 L50.02,26.124 L50.02,35.412 L47.992,35.412 L47.992,26.112 L47.104,26.112 L47.104,35.412 L43.768,35.412 L43.768,36.288 L54.256,36.288 L54.256,35.412 L50.908,35.412 Z" id="形状" fill="#FFFFFF" fill-rule="nonzero"></path>
            </g>
        </g>
    </g>
</svg>