<?xml version="1.0" encoding="UTF-8"?>
<svg width="64px" height="64px" viewBox="0 0 64 64" version="1.1" xmlns="http://www.w3.org/2000/svg" xmlns:xlink="http://www.w3.org/1999/xlink">
    <title>衍生指标</title>
    <g id="控件" stroke="none" stroke-width="1" fill="none" fill-rule="evenodd">
        <g id="知识图谱" transform="translate(-2598.000000, -18.000000)">
            <g id="衍生指标" transform="translate(2598.000000, 18.000000)">
                <circle id="椭圆形" fill="#F8F5EA" cx="32" cy="32" r="32"></circle>
                <path d="M44.6666667,16 C45.4030463,16 46,16.6007708 46,17.3418591 L46,46.6578675 C46,47.3989558 45.4030463,48 44.6666667,48 C44.4511701,48 44.2388844,47.9471599 44.0479907,47.8465286 L32.618676,41.8214633 C32.2311951,41.6171993 31.7688049,41.6171993 31.381324,41.8214633 L19.9520093,47.8465286 C19.299701,48.1903988 18.4939099,47.9369789 18.1522246,47.2804995 C18.0522327,47.0883852 18,46.8747421 18,46.6578675 L18,17.3418591 C18,16.6007708 18.5969537,16 19.3333333,16 L44.6666667,16 Z M20,32 L20,45.5484081 L30.45331,40.0384717 C31.3710278,39.5546885 32.456825,39.5292263 33.3922353,39.9620849 L33.54669,40.0384717 L44,45.5484081 L44,32 L20,32 Z M39.3329604,22.7049947 L35.58862,24.1606294 C35.4302461,24.2225858 35.31752,24.3650424 35.293632,24.5334177 C35.2697441,24.7017931 35.3383978,24.8699826 35.473289,24.9735454 L36.3668248,25.6778487 L34.3222178,28.0852446 L29.1944646,25.0306511 C28.8899436,24.8369736 28.4957318,24.8595129 28.2152703,25.0866371 L24.3259263,28.0292586 C24.1484236,28.1643385 24.0330676,28.3654394 24.0060759,28.5868558 C23.9790842,28.8082722 24.0427495,29.0311966 24.1826023,29.2049636 C24.323552,29.3851193 24.5307804,29.5013232 24.7580056,29.5276224 C24.9852307,29.5539216 25.213524,29.4881254 25.3918988,29.3449285 L28.8199186,26.7695747 L34.0909959,29.9075873 C34.2324377,29.9838138 34.3911104,30.0223734 34.5517602,30.0195592 C34.807141,30.0189058 35.0494071,29.9063667 35.2146339,29.7116365 L37.7782306,26.7130289 L38.6420938,27.3848603 C38.7781914,27.4890405 38.9589909,27.5141217 39.118308,27.4509224 C39.2776251,27.3877232 39.3920662,27.2455236 39.4197387,27.0763778 L39.9958341,23.2088683 C40.0184481,23.0382204 39.9478026,22.8685533 39.8107604,22.7643827 C39.6737182,22.6602121 39.4913344,22.6375428 39.3329604,22.7049947 Z M20,21.3333333 L44,21.3333333 L44,18.0127886 L20,18.0127886 L20,21.3333333 Z" id="形状结合" fill="#BF9E30" fill-rule="nonzero"></path>
                <rect id="矩形备份-6" fill="#BF9E30" opacity="0.7" x="20" y="34.6666667" width="24" height="2.66666667"></rect>
                <circle id="椭圆形备份" fill="#D1AF3E" cx="49" cy="32" r="9"></circle>
                <path d="M49,22 C43.4771525,22 39,26.4771525 39,32 C39,37.5228475 43.4771525,42 49,42 C54.5228475,42 59,37.5228475 59,32 C59,26.4771525 54.5228475,22 49,22 Z M49,24 C53.418278,24 57,27.581722 57,32 C57,36.418278 53.418278,40 49,40 C44.581722,40 41,36.418278 41,32 C41,27.581722 44.581722,24 49,24 Z" id="椭圆形备份" fill="#FAF7EB" fill-rule="nonzero"></path>
                <path d="M54.292,26.556 L50.332,26.556 L50.332,27.384 L54.292,27.384 L54.292,26.556 Z M49.72,27.624 C49.324,27.216 48.508,26.664 47.872,26.304 L47.332,26.904 C47.98,27.276 48.784,27.864 49.168,28.284 L49.72,27.624 Z M45.844,25.968 C45.34,26.82 44.32,27.84 43.42,28.464 C43.564,28.632 43.792,28.932 43.912,29.112 C44.884,28.392 45.976,27.276 46.648,26.256 L45.844,25.968 Z M46.204,28.308 C45.52,29.556 44.416,30.828 43.36,31.632 C43.528,31.824 43.78,32.232 43.876,32.412 C44.26,32.088 44.656,31.704 45.04,31.296 L45.04,36.936 L45.916,36.936 L45.916,30.24 C46.312,29.7 46.684,29.148 46.984,28.584 L46.204,28.308 Z M49.372,30.672 C48.94,30.3 48.052,29.82 47.368,29.52 L46.888,30.156 C47.572,30.48 48.448,31.008 48.88,31.392 L49.372,30.672 Z M47.704,36.648 C48.412,35.508 49.276,33.912 49.924,32.58 L49.3,32.028 C48.604,33.456 47.644,35.124 46.984,36.096 L47.704,36.648 Z M54.472,29.844 L50.068,29.844 L50.068,30.672 L52.156,30.672 L52.156,35.82 C52.156,35.988 52.108,36.024 51.928,36.036 C51.76,36.048 51.184,36.048 50.524,36.036 C50.644,36.288 50.752,36.66 50.788,36.9 C51.64,36.9 52.228,36.9 52.576,36.756 C52.924,36.6 53.02,36.348 53.02,35.832 L53.02,30.672 L54.472,30.672 L54.472,29.844 Z" id="形状" fill="#FFFFFF" fill-rule="nonzero"></path>
            </g>
        </g>
    </g>
</svg>