<?xml version="1.0" encoding="UTF-8"?>
<svg width="24px" height="24px" viewBox="0 0 24 24" version="1.1" xmlns="http://www.w3.org/2000/svg" xmlns:xlink="http://www.w3.org/1999/xlink">
    <title>json</title>
    <g id="数据集-表" stroke="none" stroke-width="1" fill="none" fill-rule="evenodd">
        <g id="数据集-表-字段信息tab备份" transform="translate(-752.000000, -412.000000)" fill="#EB8449">
            <g id="json" transform="translate(752.000000, 412.000000)">
                <rect id="矩形" fill-opacity="0.1" x="0" y="0" width="24" height="24" rx="2"></rect>
                <path d="M9,5 L9,6.30406852 L8.04530744,6.30406852 C7.46278317,6.30406852 7.17152104,6.60385439 7.17152104,7.23340471 L7.17152104,7.23340471 L7.17152104,10.111349 C7.17152104,11.0556745 6.70226537,11.6852248 5.76375405,12 C6.70226537,12.359743 7.17152104,12.9892934 7.17152104,13.888651 L7.17152104,13.888651 L7.17152104,16.7815846 C7.17152104,17.3811563 7.46278317,17.6959315 8.04530744,17.6959315 L8.04530744,17.6959315 L9,17.6959315 L9,19 L7.72168285,19 C6.97734628,19 6.41100324,18.7751606 6.02265372,18.3404711 C5.66666667,17.9357602 5.48867314,17.3961456 5.48867314,16.7216274 L5.48867314,16.7216274 L5.48867314,13.9785867 C5.48867314,13.5438972 5.39158576,13.2291221 5.197411,13.0492505 C4.97087379,12.8094218 4.56634304,12.6745182 4,12.6445396 L4,12.6445396 L4,11.3554604 C4.56634304,11.3104925 4.97087379,11.1755889 5.197411,10.9657388 C5.39158576,10.7558887 5.48867314,10.4411135 5.48867314,10.0214133 L5.48867314,10.0214133 L5.48867314,7.29336188 C5.48867314,6.60385439 5.66666667,6.06423983 6.02265372,5.65952891 C6.41100324,5.20985011 6.97734628,5 7.72168285,5 L7.72168285,5 L9,5 Z M16.2783172,5 C17.0226537,5 17.5889968,5.20985011 17.9773463,5.65952891 C18.3333333,6.06423983 18.5113269,6.60385439 18.5113269,7.29336188 L18.5113269,10.0214133 C18.5113269,10.4411135 18.6084142,10.7558887 18.802589,10.9657388 C19.0291262,11.1755889 19.433657,11.3104925 20,11.3554604 L20,12.6445396 C19.433657,12.6745182 19.0291262,12.8094218 18.802589,13.0492505 C18.6084142,13.2291221 18.5113269,13.5438972 18.5113269,13.9785867 L18.5113269,16.7216274 C18.5113269,17.3961456 18.3333333,17.9357602 17.9773463,18.3404711 C17.5889968,18.7751606 17.0226537,19 16.2783172,19 L15,19 L15,17.6959315 L15.9546926,17.6959315 C16.5372168,17.6959315 16.828479,17.3811563 16.828479,16.7815846 L16.828479,13.888651 C16.828479,12.9892934 17.2977346,12.359743 18.236246,12 C17.2977346,11.6852248 16.828479,11.0556745 16.828479,10.111349 L16.828479,7.23340471 C16.828479,6.60385439 16.5372168,6.30406852 15.9546926,6.30406852 L15,6.30406852 L15,5 L16.2783172,5 Z M12,12 C12.5522847,12 13,12.4477153 13,13 L13,16 C13,16.5522847 12.5522847,17 12,17 C11.4477153,17 11,16.5522847 11,16 L11,13 C11,12.4477153 11.4477153,12 12,12 Z M12,8 C12.5522847,8 13,8.44771525 13,9 C13,9.55228475 12.5522847,10 12,10 C11.4477153,10 11,9.55228475 11,9 C11,8.44771525 11.4477153,8 12,8 Z" id="形状结合"></path>
            </g>
        </g>
    </g>
</svg>