<?xml version="1.0" encoding="utf-8"?>
<!-- Generator: Adobe Illustrator 24.2.1, SVG Export Plug-In . SVG Version: 6.00 Build 0)  -->
<svg version="1.1" id="图层_1" xmlns="http://www.w3.org/2000/svg" xmlns:xlink="http://www.w3.org/1999/xlink" x="0px" y="0px"
	 viewBox="0 0 194.8 36.4" style="enable-background:new 0 0 194.8 36.4;" xml:space="preserve">
<style type="text/css">
	.st0{fill:#FFFFFF;}
</style>
<circle id="椭圆_1" class="st0" cx="18.2" cy="18.2" r="6.1"/>
<path id="路径_8" class="st0" d="M30.3,4.6v13.5c0,6.7-5.4,12.1-12.1,12.1S6.1,24.8,6.1,18.1s5.4-12,12.1-12l0,0
	c2.1,0,4.2,0.6,6.1,1.7V1c-1.9-0.7-4-1-6.1-1C8.2,0,0,8.2,0,18.2s8.2,18.2,18.2,18.2s18.2-8.2,18.2-18.2C36.4,13,34.2,8.1,30.3,4.6z
	"/>
<path id="路径_9" class="st0" d="M18.2,24.3c-3.4,0-6.1-2.7-6.1-6.1s2.7-6.1,6.1-6.1s6.1,2.7,6.1,6.1
	C24.3,21.5,21.6,24.3,18.2,24.3L18.2,24.3z"/>
<g id="组_7">
	<path id="路径_10" class="st0" d="M63,19.5c0,5.1-4.1,9.2-9.2,9.2s-9.2-4.1-9.2-9.2s4.1-9.2,9.2-9.2c2,0,3.9,0.6,5.5,1.8V3H63
		V19.5z M53.9,14c-1.5,0-2.9,0.6-3.9,1.6c-1.1,1-1.6,2.4-1.6,3.9s0.6,2.9,1.6,3.9c1,1.1,2.4,1.6,3.9,1.6s2.9-0.6,3.9-1.6
		c1.1-1,1.6-2.4,1.6-3.9s-0.6-2.9-1.6-3.9C56.7,14.6,55.3,14,53.9,14z"/>
	<path id="路径_11" class="st0" d="M81.3,26.9c-4.1,3-9.8,2.2-12.8-1.9c-1.2-1.6-1.8-3.5-1.8-5.5c0-5.1,4.1-9.2,9.2-9.2
		s9.2,4.1,9.2,9.2v9.2h-3.7L81.3,26.9z M75.8,14c-1.5,0-2.9,0.6-3.9,1.6c-1.1,1-1.6,2.4-1.6,3.9s0.6,2.9,1.6,3.9
		c1,1.1,2.4,1.6,3.9,1.6s2.9-0.6,3.9-1.6c1.1-1,1.6-2.4,1.6-3.9s-0.6-2.9-1.6-3.9C78.7,14.6,77.3,14,75.8,14z"/>
	<path id="路径_12" class="st0" d="M88.7,3h3.7v7.3h5.5V14h-5.5v5.5c0,1.5,0.6,2.9,1.6,3.9c1,1.1,2.4,1.6,3.9,1.6v3.7
		c-5.1,0-9.2-4.1-9.2-9.2V3z"/>
	<path id="路径_13" class="st0" d="M147.1,19.5c0,1.5,0.6,2.9,1.6,3.9c1,1.1,2.4,1.6,3.9,1.6v3.7c-5.1,0-9.2-4.1-9.2-9.2V3h3.7
		V19.5z"/>
	<path id="路径_14" class="st0" d="M114.3,26.9c-4.1,3-9.8,2.2-12.8-1.9c-1.2-1.6-1.8-3.5-1.8-5.5c0-5.1,4.1-9.2,9.2-9.2
		s9.2,4.1,9.2,9.2v9.2h-3.7L114.3,26.9L114.3,26.9z M108.8,14c-1.5,0-2.9,0.6-3.9,1.6c-1.1,1-1.6,2.4-1.6,3.9s0.6,2.9,1.6,3.9
		c1,1.1,2.4,1.6,3.9,1.6s2.9-0.6,3.9-1.6c1.1-1,1.6-2.4,1.6-3.9C114.3,16.5,111.8,14.1,108.8,14L108.8,14z"/>
	<path id="路径_15" class="st0" d="M121.6,3h3.7v9.1c4.1-3,9.8-2.2,12.9,1.9c1.2,1.6,1.8,3.5,1.8,5.5c0,5.1-4.1,9.2-9.2,9.2
		c-5.1,0-9.2-4.1-9.2-9.2C121.6,19.5,121.6,3,121.6,3z M126.9,15.6c-1.1,1-1.6,2.4-1.6,3.9s0.6,2.9,1.6,3.9c1,1.1,2.4,1.6,3.9,1.6
		s2.9-0.6,3.9-1.6c1.1-1,1.6-2.4,1.6-3.9s-0.6-2.9-1.6-3.9c-1-1.1-2.4-1.6-3.9-1.6S127.9,14.6,126.9,15.6z"/>
	<path id="路径_16" class="st0" d="M169.1,26.9c-4.1,3-9.8,2.2-12.9-1.9c-1.2-1.6-1.8-3.5-1.8-5.5c0-5.1,4.1-9.2,9.2-9.2
		c5.1,0,9.2,4.1,9.2,9.2v9.2h-3.7V26.9z M163.6,14c-1.5,0-2.9,0.6-3.9,1.6c-1.1,1-1.6,2.4-1.6,3.9s0.6,2.9,1.6,3.9
		c1,1.1,2.4,1.6,3.9,1.6s2.9-0.6,3.9-1.6c1.1-1,1.6-2.4,1.6-3.9s-0.6-2.9-1.6-3.9C166.6,14.6,165.1,14,163.6,14z"/>
	<path id="路径_17" class="st0" d="M181.8,23.4c1,1.1,2.4,1.6,3.9,1.6s2.9-0.6,3.9-1.6c1.1-1,1.6-2.4,1.6-3.9v-9.2h3.7v9.2
		c0,5.1-4.1,9.2-9.2,9.2c-5.1,0-9.2-4.1-9.2-9.2v-9.2h3.7v9.2C180.1,21,180.6,22.4,181.8,23.4z"/>
</g>
</svg>
