<?xml version="1.0" encoding="UTF-8"?>
<svg width="14px" height="16px" viewBox="0 0 14 16" version="1.1" xmlns="http://www.w3.org/2000/svg" xmlns:xlink="http://www.w3.org/1999/xlink">
    <title>Icon/通过备份</title>
    <g id="设计图" stroke="none" stroke-width="1" fill="none" fill-rule="evenodd">
        <g id="Icon" transform="translate(-183.000000, -87.000000)" fill="#97A1A9" fill-rule="nonzero">
            <path d="M196,89 C196.552285,89 197,89.4477153 197,90 L197,102 C197,102.552285 196.552285,103 196,103 L184,103 C183.447715,103 183,102.552285 183,102 L183,90 C183,89.4477153 183.447715,89 184,89 L196,89 Z M196,90 L184,90 L184,102 L196,102 L196,90 Z M191.974874,94.0251263 C192.170136,94.2203884 192.170136,94.5369709 191.974874,94.732233 L188.732233,97.9748737 C188.536971,98.1701359 188.220388,98.1701359 188.025126,97.9748737 C187.829864,97.7796116 187.829864,97.4630291 188.025126,97.267767 L191.267767,94.0251263 C191.463029,93.8298641 191.779612,93.8298641 191.974874,94.0251263 Z M190,92.5 C191.932997,92.5 193.5,94.0670034 193.5,96 C193.5,97.9329966 191.932997,99.5 190,99.5 C188.067003,99.5 186.5,97.9329966 186.5,96 C186.5,94.0670034 188.067003,92.5 190,92.5 Z M190,93.5 C188.619288,93.5 187.5,94.6192881 187.5,96 C187.5,97.3807119 188.619288,98.5 190,98.5 C191.380712,98.5 192.5,97.3807119 192.5,96 C192.5,94.6192881 191.380712,93.5 190,93.5 Z M192.279241,87 C192.709671,87 193.09181,87.2754301 193.227924,87.6837722 L193.227924,87.6837722 L194,90 L186,90 L186.772076,87.6837722 C186.90819,87.2754301 187.290329,87 187.720759,87 L187.720759,87 Z M192.279241,88 L187.720759,88 L187.387,89 L192.612,89 L192.279241,88 Z" id="Icon/通过备份"></path>
        </g>
    </g>
</svg>