<?xml version="1.0" encoding="utf-8"?>
<!-- Generator: Adobe Illustrator 21.1.0, SVG Export Plug-In . SVG Version: 6.00 Build 0)  -->
<svg version="1.1" id="图层_1" xmlns="http://www.w3.org/2000/svg" xmlns:xlink="http://www.w3.org/1999/xlink" x="0px" y="0px"
	 viewBox="0 0 400 400" style="enable-background:new 0 0 400 400;" xml:space="preserve">
<style type="text/css">
	.st0{fill-rule:evenodd;clip-rule:evenodd;}
</style>
<g>
	<path class="st0" d="M329.8,71.3C295.4,36.9,249.7,18,201,18c-48.6,0-94.3,18.9-128.7,53.3C37.9,105.7,19,151.4,19,200
		c0,48.6,18.9,94.3,53.3,128.7C106.7,363.1,152.4,382,201,382c48.6,0,94.4-18.9,128.8-53.3C400.7,257.7,400.7,142.3,329.8,71.3
		L329.8,71.3L329.8,71.3L329.8,71.3 M313,311.9c-29.9,29.9-69.7,46.4-112,46.4c-42.3,0-82-16.5-111.9-46.3
		C59.2,282,42.7,242.3,42.7,200c0-42.3,16.5-82.1,46.4-111.9C119,58.2,158.7,41.7,201,41.7c42.3,0,82.1,16.5,112,46.3
		C374.7,149.8,374.7,250.2,313,311.9L313,311.9L313,311.9L313,311.9 M279.7,244.6l-62.9-36.4V109c0-8.4-6.8-15.2-15.2-15.2
		c-8.4,0-15.2,6.8-15.2,15.2v106.2c0,5.6,7,10.3,11.5,13c1.3,1.9,4.7,3.6,6.8,4.8l62.6,37.9c7.2,4.2,15.1,1.7,19.3-5.6
		C290.9,258,287,248.8,279.7,244.6L279.7,244.6L279.7,244.6L279.7,244.6 M279.7,244.6L279.7,244.6z"/>
</g>
</svg>
