<?xml version="1.0" encoding="UTF-8"?>
<svg width="24px" height="8px" viewBox="0 0 24 8" version="1.1" xmlns="http://www.w3.org/2000/svg" xmlns:xlink="http://www.w3.org/1999/xlink">
    <title>形状结合</title>
    <g id="6.5dashboard" stroke="none" stroke-width="1" fill="none" fill-rule="evenodd">
        <g id="dashboard-全局筛选" transform="translate(-1763.000000, -1357.000000)" fill="#FBC372">
            <g id="历史问题数据的逾期时间分布" transform="translate(197.000000, 1310.000000)">
                <g id="注释" transform="translate(1488.000000, 28.000000)">
                    <g id="编组-12" transform="translate(78.000000, 0.000000)">
                        <path d="M12,19 C13.8639271,19 15.4300871,20.2748927 15.8740452,22.0002435 L24,22 L24,24 L15.8737865,24.0007613 C15.429479,25.7256022 13.8635652,27 12,27 C10.1364348,27 8.57052105,25.7256022 8.12621352,24.0007613 L0,24 L0,22 L8.12595483,22.0002435 C8.56991294,20.2748927 10.1360729,19 12,19 Z M12,21 C10.8954305,21 10,21.8954305 10,23 C10,24.1045695 10.8954305,25 12,25 C13.1045695,25 14,24.1045695 14,23 C14,21.8954305 13.1045695,21 12,21 Z" id="形状结合"></path>
                    </g>
                </g>
            </g>
        </g>
    </g>
</svg>