<?xml version="1.0" encoding="UTF-8"?>
<svg width="24px" height="24px" viewBox="0 0 24 24" version="1.1" xmlns="http://www.w3.org/2000/svg" xmlns:xlink="http://www.w3.org/1999/xlink">
    <title>二进制</title>
    <g id="数据集-表" stroke="none" stroke-width="1" fill="none" fill-rule="evenodd">
        <g id="数据集-表-字段信息tab备份" transform="translate(-424.000000, -412.000000)" fill="#7DC26A">
            <g id="二进制" transform="translate(424.000000, 412.000000)">
                <path d="M20,4 C21.1045695,4 22,4.8954305 22,6 L22,18 C22,19.1045695 21.1045695,20 20,20 L4,20 C2.8954305,20 2,19.1045695 2,18 L2,6 C2,4.8954305 2.8954305,4 4,4 L20,4 Z M20,5.2 L4,5.2 C3.59215895,5.2 3.25559842,5.50518815 3.20623314,5.8996497 L3.2,6 L3.2,18 C3.2,18.407841 3.50518815,18.7444016 3.8996497,18.7937669 L4,18.8 L20,18.8 C20.407841,18.8 20.7444016,18.4948119 20.7937669,18.1003503 L20.8,18 L20.8,6 C20.8,5.59215895 20.4948119,5.25559842 20.1003503,5.20623314 L20,5.2 Z M7.81896552,9 C8.43103448,9 8.9137931,9.16666667 9.25862069,9.5 C9.57758621,9.81372549 9.74137931,10.2352941 9.74137931,10.7647059 C9.74137931,11.1568627 9.65517241,11.4901961 9.49137931,11.7647059 C9.32758621,12.0196078 9.09482759,12.2058824 8.78448276,12.3431373 C9.18965517,12.4313725 9.49137931,12.6176471 9.69827586,12.9019608 C9.89655172,13.1764706 10,13.5588235 10,14.0294118 C10,14.7352941 9.78448276,15.254902 9.36206897,15.5882353 C9.04022989,15.832244 8.59578544,15.9678044 8.0408448,15.9949165 L7.82758621,16 L5,16 L5,9 L7.81896552,9 Z M11.8654971,9 L11.8654971,16 L10.7251462,16 L10.7251462,9 L11.8654971,9 Z M14.3703704,9 L17.8109162,14.0490196 L17.8499025,14.0490196 L17.8499025,9 L19,9 L19,16 L17.8888889,16 L14.4093567,10.8823529 L14.3703704,10.8823529 L14.3703704,16 L13.2300195,16 L13.2300195,9 L14.3703704,9 Z M7.70689655,12.8823529 L6.00862069,12.8823529 L6.00862069,15.0588235 L7.68103448,15.0588235 C8.06034483,15.0588235 8.36206897,14.9901961 8.57758621,14.8529412 C8.85344828,14.6764706 8.99137931,14.4019608 8.99137931,14.0098039 C8.99137931,13.6078431 8.88793103,13.3235294 8.68965517,13.1470588 C8.48275862,12.9705882 8.15517241,12.8823529 7.70689655,12.8823529 Z M7.56896552,9.94117647 L6.00862069,9.94117647 L6.00862069,11.9411765 L7.55172414,11.9411765 C7.98275862,11.9411765 8.28448276,11.8529412 8.46551724,11.6960784 C8.63793103,11.5294118 8.73275862,11.2647059 8.73275862,10.9019608 C8.73275862,10.5686275 8.63793103,10.3235294 8.46551724,10.1764706 C8.27586207,10.0196078 7.98275862,9.94117647 7.56896552,9.94117647 Z" id="ic-data-binary" fill-rule="nonzero"></path>
                <rect id="矩形备份-3" fill-opacity="0.1" x="0" y="0" width="24" height="24" rx="2"></rect>
            </g>
        </g>
    </g>
</svg>