<?xml version="1.0" encoding="UTF-8"?>
<svg width="24px" height="24px" viewBox="0 0 24 24" version="1.1" xmlns="http://www.w3.org/2000/svg" xmlns:xlink="http://www.w3.org/1999/xlink">
    <title>数值</title>
    <g id="数据集-表" stroke="none" stroke-width="1" fill="none" fill-rule="evenodd">
        <g id="数据集-表-字段信息tab备份" transform="translate(-670.000000, -412.000000)" fill="#8C5CFF">
            <g id="数值" transform="translate(670.000000, 412.000000)">
                <path d="M20,4 C21.1045695,4 22,4.8954305 22,6 L22,18 C22,19.1045695 21.1045695,20 20,20 L4,20 C2.8954305,20 2,19.1045695 2,18 L2,6 C2,4.8954305 2.8954305,4 4,4 L20,4 Z M20,5.2 L4,5.2 C3.59215895,5.2 3.25559842,5.50518815 3.20623314,5.8996497 L3.2,6 L3.2,18 C3.2,18.407841 3.50518815,18.7444016 3.8996497,18.7937669 L4,18.8 L20,18.8 C20.407841,18.8 20.7444016,18.4948119 20.7937669,18.1003503 L20.8,18 L20.8,6 C20.8,5.59215895 20.4948119,5.25559842 20.1003503,5.20623314 L20,5.2 Z M7.4,9 L7.4,16 L6.23557951,16 L6.23557951,10.6610169 L5.08733154,11.8968927 L4.4,10.9279661 L6.26792453,9 L7.4,9 Z M10.9017836,9 C11.4027745,9 11.8149822,9.10678506 12.1384067,9.32035519 C12.4618312,9.53392532 12.7170828,9.80965392 12.9041617,10.147541 C13.0912406,10.4854281 13.2212446,10.8615665 13.2941736,11.2759563 C13.3671027,11.6903461 13.4035672,12.0983607 13.4035672,12.5 C13.4035672,12.9016393 13.3671027,13.3096539 13.2941736,13.7240437 C13.2212446,14.1384335 13.0912406,14.5145719 12.9041617,14.852459 C12.7170828,15.1903461 12.4618312,15.4660747 12.1384067,15.6796448 C11.8149822,15.8932149 11.4027745,16 10.9017836,16 C10.4007927,16 9.98858502,15.8932149 9.66516052,15.6796448 C9.34173603,15.4660747 9.08648434,15.1903461 8.89940547,14.852459 C8.7123266,14.5145719 8.58232263,14.1384335 8.50939358,13.7240437 C8.43646453,13.3096539 8.4,12.9016393 8.4,12.5 C8.4,12.0983607 8.43646453,11.6903461 8.50939358,11.2759563 C8.58232263,10.8615665 8.7123266,10.4854281 8.89940547,10.147541 C9.08648434,9.80965392 9.34173603,9.53392532 9.66516052,9.32035519 C9.98858502,9.10678506 10.4007927,9 10.9017836,9 Z M16.4982164,9 C16.9992073,9 17.411415,9.10678506 17.7348395,9.32035519 C18.058264,9.53392532 18.3135157,9.80965392 18.5005945,10.147541 C18.6876734,10.4854281 18.8176774,10.8615665 18.8906064,11.2759563 C18.9635355,11.6903461 19,12.0983607 19,12.5 C19,12.9016393 18.9635355,13.3096539 18.8906064,13.7240437 C18.8176774,14.1384335 18.6876734,14.5145719 18.5005945,14.852459 C18.3135157,15.1903461 18.058264,15.4660747 17.7348395,15.6796448 C17.411415,15.8932149 16.9992073,16 16.4982164,16 C15.9972255,16 15.5850178,15.8932149 15.2615933,15.6796448 C14.9381688,15.4660747 14.6829172,15.1903461 14.4958383,14.852459 C14.3087594,14.5145719 14.1787554,14.1384335 14.1058264,13.7240437 C14.0328973,13.3096539 13.9964328,12.9016393 13.9964328,12.5 C13.9964328,12.0983607 14.0328973,11.6903461 14.1058264,11.2759563 C14.1787554,10.8615665 14.3087594,10.4854281 14.4958383,10.147541 C14.6829172,9.80965392 14.9381688,9.53392532 15.2615933,9.32035519 C15.5850178,9.10678506 15.9972255,9 16.4982164,9 Z M10.9017836,10.3196721 C10.6417757,10.3196721 10.4404281,10.3993625 10.2977408,10.5587432 C10.1550535,10.7181239 10.0488308,10.9125683 9.97907253,11.1420765 C9.90931431,11.3715847 9.86650813,11.6106557 9.85065398,11.8592896 C9.83479984,12.1079235 9.82687277,12.3214936 9.82687277,12.5 C9.82687277,12.6785064 9.83479984,12.8920765 9.85065398,13.1407104 C9.86650813,13.3893443 9.90931431,13.6284153 9.97907253,13.8579235 C10.0488308,14.0874317 10.1550535,14.2818761 10.2977408,14.4412568 C10.4404281,14.6006375 10.6417757,14.6803279 10.9017836,14.6803279 C11.1554499,14.6803279 11.355212,14.6006375 11.5010702,14.4412568 C11.6469283,14.2818761 11.7547364,14.0874317 11.8244946,13.8579235 C11.8942529,13.6284153 11.9370591,13.3893443 11.9529132,13.1407104 C11.9687673,12.8920765 11.9766944,12.6785064 11.9766944,12.5 C11.9766944,12.3214936 11.9687673,12.1079235 11.9529132,11.8592896 C11.9370591,11.6106557 11.8942529,11.3715847 11.8244946,11.1420765 C11.7547364,10.9125683 11.6469283,10.7181239 11.5010702,10.5587432 C11.355212,10.3993625 11.1554499,10.3196721 10.9017836,10.3196721 Z M16.4982164,10.3196721 C16.2382085,10.3196721 16.0368609,10.3993625 15.8941736,10.5587432 C15.7514863,10.7181239 15.6452636,10.9125683 15.5755054,11.1420765 C15.5057471,11.3715847 15.4629409,11.6106557 15.4470868,11.8592896 C15.4312327,12.1079235 15.4233056,12.3214936 15.4233056,12.5 C15.4233056,12.6785064 15.4312327,12.8920765 15.4470868,13.1407104 C15.4629409,13.3893443 15.5057471,13.6284153 15.5755054,13.8579235 C15.6452636,14.0874317 15.7514863,14.2818761 15.8941736,14.4412568 C16.0368609,14.6006375 16.2382085,14.6803279 16.4982164,14.6803279 C16.7518827,14.6803279 16.9516449,14.6006375 17.097503,14.4412568 C17.2433611,14.2818761 17.3511692,14.0874317 17.4209275,13.8579235 C17.4906857,13.6284153 17.5334919,13.3893443 17.549346,13.1407104 C17.5652002,12.8920765 17.5731272,12.6785064 17.5731272,12.5 C17.5731272,12.3214936 17.5652002,12.1079235 17.549346,11.8592896 C17.5334919,11.6106557 17.4906857,11.3715847 17.4209275,11.1420765 C17.3511692,10.9125683 17.2433611,10.7181239 17.097503,10.5587432 C16.9516449,10.3993625 16.7518827,10.3196721 16.4982164,10.3196721 Z" id="ic-data-int" fill-rule="nonzero"></path>
                <rect id="矩形" fill-opacity="0.1" x="0" y="0" width="24" height="24" rx="2"></rect>
            </g>
        </g>
    </g>
</svg>