<?xml version="1.0" encoding="UTF-8"?>
<svg width="19px" height="20px" viewBox="0 0 19 20" version="1.1" xmlns="http://www.w3.org/2000/svg" xmlns:xlink="http://www.w3.org/1999/xlink">
    <title>菜单-主题目录备份 2 2</title>
    <g id="设计方案（6.4）" stroke="none" stroke-width="1" fill="none" fill-rule="evenodd">
        <g id="管理/目录空间设计" transform="translate(-189.000000, -352.000000)" fill-rule="nonzero">
            <g id="列表备份" transform="translate(180.000000, 142.000000)">
                <g id="列表1备份-2" transform="translate(0.000000, 200.000000)">
                    <g id="菜单-主题目录备份-2" transform="translate(9.000000, 10.000000)">
                        <path d="M16.66625,0 C17.7708195,0 18.66625,0.8954305 18.66625,2 L18.66625,18 C18.66625,19.1045695 17.7708195,20 16.66625,20 L2,20 C0.8954305,20 0,19.1045695 0,18 L0,2 C0,0.8954305 0.8954305,0 2,0 L16.66625,0 Z M16.66625,1.33374883 L2,1.33374883 C1.63204029,1.33374883 1.33375,1.63204029 1.33375,2 L1.33375,18 C1.33375,18.36875 1.63125,18.6662512 2,18.6662512 L16.66625,18.6662512 C16.843167,18.6665819 17.0129516,18.5965345 17.1381682,18.4715524 C17.2633848,18.3465703 17.33375,18.1769173 17.33375,18 L17.33375,2 C17.33375,1.82308272 17.2633848,1.65342972 17.1381682,1.52844761 C17.0129516,1.40346551 16.843167,1.33341807 16.66625,1.33374883 Z" id="形状结合" fill="#409EFF"></path>
                        <path d="M16.66625,1.33374883 L2,1.33374883 C1.63204029,1.33374883 1.33375,1.63204029 1.33375,2 L1.33375,18 C1.33375,18.36875 1.63125,18.6662512 2,18.6662512 L16.66625,18.6662512 C16.843167,18.6665819 17.0129516,18.5965345 17.1381682,18.4715524 C17.2633848,18.3465703 17.33375,18.1769173 17.33375,18 L17.33375,2 C17.33375,1.82308272 17.2633848,1.65342972 17.1381682,1.52844761 C17.0129516,1.40346551 16.843167,1.33341807 16.66625,1.33374883 Z" id="路径"></path>
                        <path d="M4.66625,13.33375 C5.7708195,13.33375 6.66625,14.2291805 6.66625,15.33375 C6.66625,16.4383195 5.7708195,17.33375 4.66625,17.33375 C3.5616805,17.33375 2.66625,16.4383195 2.66625,15.33375 C2.66625,14.2291805 3.5616805,13.33375 4.66625,13.33375 Z M4.66625,14.66625 C4.29794511,14.66625 3.999375,14.9648201 3.999375,15.333125 C3.999375,15.7014299 4.29794511,16 4.66625,16 C5.03455489,16 5.333125,15.7014299 5.333125,15.333125 C5.333125,14.9648201 5.03455489,14.66625 4.66625,14.66625 Z" id="形状结合" fill="#409EFF"></path>
                        <path d="M15.375,14.66625 C15.720178,14.66625 16,14.946072 16,15.29125 L16,15.375 C16,15.720178 15.720178,16 15.375,16 L8.625,16 C8.27982203,16 8,15.720178 8,15.375 L8,15.29125 C8,14.946072 8.27982203,14.66625 8.625,14.66625 L15.375,14.66625 Z" id="路径" fill="#409EFF"></path>
                        <path d="M4.66625,8 C5.7708195,8 6.66625,8.8954305 6.66625,10 C6.66625,11.1045695 5.7708195,12 4.66625,12 C3.5616805,12 2.66625,11.1045695 2.66625,10 C2.66625,8.8954305 3.5616805,8 4.66625,8 Z M4.66625,9.33375 C4.29829029,9.33375 4,9.63204029 4,10 C4,10.3679597 4.29829029,10.66625 4.66625,10.66625 C5.03420971,10.66625 5.3325,10.3679597 5.3325,10 C5.3325,9.63204029 5.03420971,9.33375 4.66625,9.33375 Z" id="形状结合" fill="#409EFF"></path>
                        <path d="M15.375,9.33375 C15.720178,9.33375 16,9.61357203 16,9.95875 L16,10.04125 C16,10.386428 15.720178,10.66625 15.375,10.66625 L8.625,10.66625 C8.27982203,10.66625 8,10.386428 8,10.04125 L8,9.95875 C8,9.61357203 8.27982203,9.33375 8.625,9.33375 L15.375,9.33375 L15.375,9.33375 Z" id="路径" fill="#409EFF"></path>
                        <path d="M4.66625,2.66625 C5.7708195,2.66625 6.66625,3.5616805 6.66625,4.66625 C6.66625,5.7708195 5.7708195,6.66625 4.66625,6.66625 C3.5616805,6.66625 2.66625,5.7708195 2.66625,4.66625 C2.66625,3.5616805 3.5616805,2.66625 4.66625,2.66625 Z M4.66625,4 C4.29794511,4 3.999375,4.29857011 3.999375,4.666875 C3.999375,5.03517989 4.29794511,5.33375 4.66625,5.33375 C5.03455489,5.33375 5.333125,5.03517989 5.333125,4.666875 C5.333125,4.29857011 5.03455489,4 4.66625,4 Z" id="形状结合" fill="#409EFF"></path>
                        <path d="M15.375,4 C15.720178,4 16,4.27982203 16,4.625 L16,4.70875 C16,5.05392797 15.720178,5.33375 15.375,5.33375 L8.625,5.33375 C8.27982203,5.33375 8,5.05392797 8,4.70875 L8,4.625 C8,4.27982203 8.27982203,4 8.625,4 L15.375,4 Z" id="路径" fill="#409EFF"></path>
                    </g>
                </g>
            </g>
        </g>
    </g>
</svg>