<?xml version="1.0" standalone="no"?><!DOCTYPE svg PUBLIC "-//W3C//DTD SVG 1.1//EN" "http://www.w3.org/Graphics/SVG/1.1/DTD/svg11.dtd"><svg t="1655888303348" class="icon" viewBox="0 0 1024 1024" version="1.1" xmlns="http://www.w3.org/2000/svg" p-id="5446" xmlns:xlink="http://www.w3.org/1999/xlink" width="200" height="200"><defs><style type="text/css"></style></defs><path d="M960 0H64a64 64 0 0 0-64 64v896a64 64 0 0 0 64 64h896a64 64 0 0 0 64-64V64a64 64 0 0 0-64-64z m0 960H64V64h896v896z" fill="#008899" p-id="5447"></path><path d="M176 704m21.333333 0l53.333334 0q21.333333 0 21.333333 21.333333l0 149.333334q0 21.333333-21.333333 21.333333l-53.333334 0q-21.333333 0-21.333333-21.333333l0-149.333334q0-21.333333 21.333333-21.333333Z" fill="#008899" p-id="5448"></path><path d="M368 512m21.333333 0l53.333334 0q21.333333 0 21.333333 21.333333l0 341.333334q0 21.333333-21.333333 21.333333l-53.333334 0q-21.333333 0-21.333333-21.333333l0-341.333334q0-21.333333 21.333333-21.333333Z" fill="#008899" p-id="5449"></path><path d="M560 640m21.333333 0l53.333334 0q21.333333 0 21.333333 21.333333l0 213.333334q0 21.333333-21.333333 21.333333l-53.333334 0q-21.333333 0-21.333333-21.333333l0-213.333334q0-21.333333 21.333333-21.333333Z" fill="#008899" p-id="5450"></path><path d="M752 448m21.333333 0l53.333334 0q21.333333 0 21.333333 21.333333l0 405.333334q0 21.333333-21.333333 21.333333l-53.333334 0q-21.333333 0-21.333333-21.333333l0-405.333334q0-21.333333 21.333333-21.333333Z" fill="#008899" p-id="5451"></path><path d="M608 460.48a42.88 42.88 0 0 1-23.04-6.72l-168.96-112.32-179.84 110.08A41.813333 41.813333 0 0 1 192 380.48L394.24 256a41.92 41.92 0 0 1 44.8 0l162.56 108.8 168-178.88A42.24 42.24 0 0 1 832 242.88L640 448c-8.384 8.533333-20.053333 13.077333-32 12.48z" fill="#008899" p-id="5452"></path></svg>