<?xml version="1.0" standalone="no"?><!DOCTYPE svg PUBLIC "-//W3C//DTD SVG 1.1//EN" "http://www.w3.org/Graphics/SVG/1.1/DTD/svg11.dtd"><svg t="1655888330806" class="icon" viewBox="0 0 1024 1024" version="1.1" xmlns="http://www.w3.org/2000/svg" p-id="5872" xmlns:xlink="http://www.w3.org/1999/xlink" width="200" height="200"><defs><style type="text/css"></style></defs><path d="M917.333227 0c23.573333 0 42.666667 19.221333 42.666666 42.944v938.112A42.816 42.816 0 0 1 917.333227 1024a42.453333 42.453333 0 0 1-19.797334-4.906667l-365.738666-192.810666a42.432 42.432 0 0 0-39.594667 0L126.463893 1019.093333a42.538667 42.538667 0 0 1-57.6-18.133333A43.157333 43.157333 0 0 1 63.999893 981.077333V42.944C63.999893 19.2 83.093227 0 106.66656 0h810.666667zM127.999893 512v433.557333l334.506667-176.32a106.069333 106.069333 0 0 1 94.037333-2.453333l4.949334 2.453333L895.999893 945.557333V512H127.999893z m658.517334-277.312h-135.530667v29.226667h95.189333l-96.682666 122.858666v29.226667h138.538666v-29.226667h-99.093333l97.578667-122.88v-29.205333zM320.29856 234.666667h-27.946667L213.333227 416h36.266666l16.256-41.6h78.762667l16.896 41.6h36.885333L320.29856 234.666667z m277.333333 74.666666h-170.794666v42.666667h170.773333v-42.666667z m-292.288-36.245333l27.989334 73.792H276.90656l28.416-73.792zM127.999893 170.666667h768V64.426667H127.999893V170.666667z" fill="#38B48B" p-id="5873"></path><path d="M127.999893 597.333333h768v85.333334H127.999893z" fill="#38B48B" p-id="5874"></path></svg>