<?xml version="1.0" encoding="UTF-8"?>
<svg width="14px" height="14px" viewBox="0 0 14 14" version="1.1" xmlns="http://www.w3.org/2000/svg" xmlns:xlink="http://www.w3.org/1999/xlink">
    <title>形状结合</title>
    <g id="设计方案" stroke="none" stroke-width="1" fill="none" fill-rule="evenodd">
        <g id="查看/资产目录-摘要信息" transform="translate(-1020.000000, -609.000000)" fill="#5DC4C0" fill-rule="nonzero">
            <g id="Content" transform="translate(420.000000, 65.500000)">
                <g id="摘要信息" transform="translate(0.000000, 125.500000)">
                    <g id="下一级" transform="translate(0.000000, 379.000000)">
                        <g transform="translate(448.000000, 26.000000)" id="已发布">
                            <g transform="translate(150.000000, 12.000000)">
                                <path d="M9,1 C12.8659932,1 16,4.13400675 16,8 C16,11.8659932 12.8659932,15 9,15 C5.13400675,15 2,11.8659932 2,8 C2,4.13400675 5.13400675,1 9,1 Z M12.0598508,4.95901923 C11.8645945,4.7658792 11.549737,4.76759482 11.356597,4.96285119 L11.356597,4.96285119 L8.97,7.374 L6.56022376,4.9909178 C6.38638624,4.81896446 6.11810492,4.80053683 5.92402224,4.93517544 L5.85504867,4.992839 C5.65807665,5.19193779 5.65979228,5.50679528 5.85504864,5.69993531 L5.85504864,5.69993531 L8.267,8.085 L5.88311525,10.4963085 C5.71116192,10.670146 5.69273428,10.9384273 5.82737289,11.13251 L5.88503645,11.2014836 L5.88695768,11.2034048 C6.08413524,11.3984556 6.39899273,11.39674 6.59213276,11.2014836 L6.59213276,11.2014836 L8.978,8.789 L11.388506,11.173417 C11.5623435,11.3453703 11.8306248,11.363798 12.0247075,11.2291594 L12.093681,11.1714958 C12.2906531,10.972397 12.2889374,10.6575395 12.0936811,10.4643995 L12.0936811,10.4643995 L9.681,8.078 L12.0656145,5.6680263 C12.2375678,5.49418879 12.2559954,5.22590747 12.1213568,5.03182478 L12.0636933,4.96285122 L12.0608127,4.9599733 Z" id="形状结合"></path>
                            </g>
                        </g>
                    </g>
                </g>
            </g>
        </g>
    </g>
</svg>