<?xml version="1.0" encoding="UTF-8"?>
<svg width="64px" height="64px" viewBox="0 0 64 64" version="1.1" xmlns="http://www.w3.org/2000/svg" xmlns:xlink="http://www.w3.org/1999/xlink">
    <title>标准代码</title>
    <g id="元数据-知识图谱" stroke="none" stroke-width="1" fill="none" fill-rule="evenodd">
        <g id="列表详情" transform="translate(-1256.000000, -48.000000)">
            <g id="标准代码" transform="translate(1256.000000, 48.000000)">
                <circle id="椭圆形" fill="#F5EEF3" cx="32" cy="32" r="32"></circle>
                <g id="编组-6" transform="translate(18.000000, 16.000000)" fill="#9D5B8B">
                    <path d="M26.6666667,0 C27.4030463,0 28,0.600770779 28,1.34185909 L28,30.6578675 C28,31.3989558 27.4030463,32 26.6666667,32 C26.4511701,32 26.2388844,31.9471599 26.0479907,31.8465286 L14.618676,25.8214633 C14.2311951,25.6171993 13.7688049,25.6171993 13.381324,25.8214633 L1.95200933,31.8465286 C1.299701,32.1903988 0.493909936,31.9369789 0.15222462,31.2804995 C0.0522326839,31.0883852 0,30.8747421 0,30.6578675 L0,1.34185909 C0,0.600770779 0.596953667,0 1.33333333,0 L26.6666667,0 Z M2,16 L2,29.5484081 L12.45331,24.0384717 C13.3710278,23.5546885 14.456825,23.5292263 15.3922353,23.9620849 L15.54669,24.0384717 L26,29.5484081 L26,16 L2,16 Z M19.3391927,7.33333333 C18.9806858,7.33333333 18.655599,7.38042535 18.3639323,7.47460938 C18.0722656,7.5687934 17.8223741,7.70399306 17.6142578,7.88020833 C17.4061415,8.05642361 17.2435981,8.26985677 17.1266276,8.52050781 C17.0330512,8.72102865 16.9730165,8.94050781 16.9465234,9.17894531 L16.9329427,9.36132812 L18.2044271,9.36132812 C18.2135417,9.21853299 18.2462023,9.09016927 18.3024089,8.97623698 C18.3586155,8.86230469 18.4338108,8.76508247 18.5279948,8.68457031 C18.6221788,8.60405816 18.734592,8.54177517 18.8652344,8.49772135 C18.9958767,8.45366753 19.1417101,8.43164062 19.3027344,8.43164062 C19.4637587,8.43164062 19.6088325,8.45214844 19.7379557,8.49316406 C19.867079,8.53417969 19.9772135,8.59190538 20.0683594,8.66634115 C20.1595052,8.74077691 20.2301432,8.83192274 20.2802734,8.93977865 C20.3304036,9.04763455 20.3554688,9.16688368 20.3554688,9.29752604 C20.3554688,9.4312066 20.3304036,9.55349392 20.2802734,9.66438802 C20.2301432,9.77528212 20.1587457,9.87022569 20.0660807,9.94921875 C19.9734158,10.0282118 19.8625217,10.0897352 19.7333984,10.1337891 C19.6473163,10.1631583 19.5554953,10.1827378 19.4579355,10.1925275 L19.3072917,10.1998698 L18.5052083,10.1998698 L18.5052083,11.2252604 L19.3209635,11.2252604 C19.6916233,11.2252604 19.9825304,11.3080512 20.1936849,11.4736328 C20.4048394,11.6392144 20.5104167,11.8663194 20.5104167,12.1549479 C20.5104167,12.2947049 20.4815538,12.4230686 20.4238281,12.5400391 C20.3661024,12.6570095 20.2863498,12.75727 20.1845703,12.8408203 C20.0827908,12.9243707 19.9605035,12.9889323 19.8177083,13.0345052 C19.6749132,13.0800781 19.5169271,13.1028646 19.34375,13.1028646 C19.1675347,13.1028646 19.0065104,13.0815972 18.8606771,13.0390625 C18.7148438,12.9965278 18.5895182,12.9357639 18.4847005,12.8567708 C18.3798828,12.7777778 18.2963325,12.6828342 18.2340495,12.5719401 C18.1925275,12.4980107 18.1628207,12.4176673 18.1449291,12.33091 L18.1269531,12.1959635 L16.8098958,12.1959635 C16.8250868,12.5058594 16.8957248,12.7868924 17.0218099,13.0390625 C17.147895,13.2912326 17.321072,13.5069444 17.5413411,13.6861979 C17.7616102,13.8654514 18.022895,14.0036892 18.3251953,14.1009115 C18.6274957,14.1981337 18.9624566,14.2467448 19.3300781,14.2467448 C19.703776,14.2467448 20.0486111,14.1973741 20.3645833,14.0986328 C20.6805556,13.9998915 20.9532335,13.8624132 21.1826172,13.6861979 C21.4120009,13.5099826 21.5912543,13.3003472 21.7203776,13.0572917 C21.8495009,12.8142361 21.9140625,12.5483941 21.9140625,12.2597656 C21.9140625,12.0440538 21.8798828,11.8458116 21.8115234,11.6650391 C21.7431641,11.4842665 21.6451823,11.3255208 21.5175781,11.1888021 C21.389974,11.0520833 21.2357856,10.9411892 21.055013,10.8561198 C20.9194336,10.7923177 20.771464,10.7456055 20.6111043,10.7159831 L20.4466146,10.6920573 L20.4466146,10.610026 C20.6289062,10.5735677 20.7952474,10.5097656 20.945638,10.4186198 C21.0960286,10.327474 21.2236328,10.2165799 21.3284505,10.0859375 C21.4332682,9.95529514 21.5145399,9.80718316 21.5722656,9.64160156 C21.6299913,9.47601997 21.6588542,9.29752604 21.6588542,9.10611979 C21.6588542,8.84787326 21.6011285,8.61013455 21.4856771,8.39290365 C21.3702257,8.17567274 21.2099609,7.98882378 21.0048828,7.83235677 C20.7998047,7.67588976 20.55523,7.55360243 20.2711589,7.46549479 C19.9870877,7.37738715 19.6764323,7.33333333 19.3391927,7.33333333 Z M9.07161458,7.50195312 L7.69986979,7.50195312 L6,8.67317708 L6,9.95377604 L7.61328125,8.84179688 L7.6953125,8.84179688 L7.6953125,14.078125 L9.07161458,14.078125 L9.07161458,7.50195312 Z M13.2141927,7.33333333 C12.858724,7.33333333 12.5336372,7.38498264 12.2389323,7.48828125 C11.9442274,7.59157986 11.6920573,7.73741319 11.4824219,7.92578125 C11.2727865,8.11414931 11.1094835,8.33897569 10.992513,8.60026042 C10.8989366,8.80928819 10.8427908,9.03678819 10.8240755,9.28276042 L10.8170573,9.47070312 L10.8170573,9.49348958 L12.093099,9.49348958 L12.093099,9.46614583 C12.093099,9.31423611 12.1189236,9.17523872 12.1705729,9.04915365 C12.2222222,8.92306858 12.2958984,8.81521267 12.3916016,8.72558594 C12.4873047,8.6359592 12.6004774,8.56608073 12.7311198,8.51595052 C12.8617622,8.46582031 13.0075955,8.44075521 13.1686198,8.44075521 C13.3174913,8.44075521 13.4549696,8.46278212 13.5810547,8.50683594 C13.7071398,8.55088976 13.8157552,8.61317274 13.906901,8.6936849 C13.9980469,8.77419705 14.0694444,8.86990017 14.1210938,8.98079427 C14.1727431,9.09168837 14.1985677,9.2124566 14.1985677,9.34309896 C14.1985677,9.44943576 14.1818576,9.55425347 14.1484375,9.65755208 C14.1150174,9.76085069 14.055013,9.87554253 13.9684245,10.0016276 C13.8818359,10.1277127 13.7633464,10.2720269 13.6129557,10.4345703 C13.5001628,10.5564779 13.3647257,10.6959025 13.2066447,10.8528442 L13.0410156,11.015625 L10.8945312,13.1165365 L10.8945312,14.078125 L15.6386719,14.078125 L15.6386719,12.9342448 L12.7584635,12.9342448 L12.7584635,12.8522135 L14.016276,11.6536458 C14.3018663,11.3862847 14.5418837,11.1439887 14.7363281,10.9267578 C14.9307726,10.7095269 15.0879991,10.5067274 15.2080078,10.3183594 C15.3280165,10.1299913 15.4138455,9.9499783 15.4654948,9.77832031 C15.5171441,9.60666233 15.5429688,9.4312066 15.5429688,9.25195312 C15.5429688,8.96940104 15.4860026,8.71039497 15.3720703,8.4749349 C15.258138,8.23947483 15.0986328,8.0374349 14.8935547,7.8688151 C14.6884766,7.70019531 14.4431424,7.5687934 14.1575521,7.47460938 C13.8719618,7.38042535 13.5575087,7.33333333 13.2141927,7.33333333 Z M2,5.33333333 L26,5.33333333 L26,2.01278864 L2,2.01278864 L2,5.33333333 Z" id="形状结合" fill-rule="nonzero"></path>
                    <rect id="矩形备份-9" opacity="0.7" x="2" y="18.6666667" width="24" height="2.66666667"></rect>
                </g>
            </g>
        </g>
    </g>
</svg>