<?xml version="1.0" encoding="UTF-8"?>
<svg width="64px" height="64px" viewBox="0 0 64 64" version="1.1" xmlns="http://www.w3.org/2000/svg" xmlns:xlink="http://www.w3.org/1999/xlink">
    <title>血缘</title>
    <g id="元数据-知识图谱" stroke="none" stroke-width="1" fill="none" fill-rule="evenodd">
        <g id="列表详情" transform="translate(-356.000000, -48.000000)">
            <g id="血缘" transform="translate(356.000000, 48.000000)">
                <circle id="椭圆形" fill="#F5EEEF" cx="32" cy="32" r="32"></circle>
                <g id="编组-42" transform="translate(16.000000, 16.000000)" fill="#A25768" fill-rule="nonzero">
                    <path d="M21.0039282,3 L21.0039282,5 L17.8732248,5 C17.0514822,5 16.268916,5.33687851 15.7050767,5.92655097 L15.5687775,6.07918696 L7.301,15.997 L15.5688944,25.9202934 C16.0950299,26.5518007 16.8550267,26.9374351 17.6692052,26.9930267 L17.8737747,27 L21.0039282,27 L21.0039282,29 L17.8737747,29 C16.4769781,29 15.1481166,28.4159927 14.2046197,27.3966759 L14.0323075,27.200489 L4.69829171,15.9971025 L14.0324794,4.79864494 C14.9265701,3.72598203 16.2255666,3.07918597 17.612268,3.00680395 L17.8732248,3 L21.0039282,3 Z M21,15 L21,17 L11,17 L11,15 L21,15 Z" id="形状结合" fill-opacity="0.5"></path>
                    <path d="M30.0039282,24 C31.1084977,24 32.0039282,24.8954305 32.0039282,26 L32.0039282,30 C32.0039282,31.1045695 31.1084977,32 30.0039282,32 L22.0039282,32 C20.8993587,32 20.0039282,31.1045695 20.0039282,30 L20.0039282,26 C20.0039282,24.8954305 20.8993587,24 22.0039282,24 L30.0039282,24 Z M30.0039282,26 L22.0039282,26 L22.0039282,30 L30.0039282,30 L30.0039282,26 Z M6,9.99724927 C9.3137085,9.99724927 12,12.6835408 12,15.9972493 C12,19.3109578 9.3137085,21.9972493 6,21.9972493 C2.6862915,21.9972493 0,19.3109578 0,15.9972493 C0,12.6835408 2.6862915,9.99724927 6,9.99724927 Z M30.0039282,12 C31.1084977,12 32.0039282,12.8954305 32.0039282,14 L32.0039282,18 C32.0039282,19.1045695 31.1084977,20 30.0039282,20 L22.0039282,20 C20.8993587,20 20.0039282,19.1045695 20.0039282,18 L20.0039282,14 C20.0039282,12.8954305 20.8993587,12 22.0039282,12 L30.0039282,12 Z M30.0039282,14 L22.0039282,14 L22.0039282,18 L30.0039282,18 L30.0039282,14 Z M30.0039282,0 C31.1084977,0 32.0039282,0.8954305 32.0039282,2 L32.0039282,6 C32.0039282,7.1045695 31.1084977,8 30.0039282,8 L22.0039282,8 C20.8993587,8 20.0039282,7.1045695 20.0039282,6 L20.0039282,2 C20.0039282,0.8954305 20.8993587,0 22.0039282,0 L30.0039282,0 Z M30.0039282,2 L22.0039282,2 L22.0039282,6 L30.0039282,6 L30.0039282,2 Z" id="形状结合"></path>
                </g>
            </g>
        </g>
    </g>
</svg>