<?xml version="1.0" encoding="UTF-8"?>
<svg width="64px" height="64px" viewBox="0 0 64 64" version="1.1" xmlns="http://www.w3.org/2000/svg" xmlns:xlink="http://www.w3.org/1999/xlink">
    <title>数据服务</title>
    <g id="元数据-知识图谱" stroke="none" stroke-width="1" fill="none" fill-rule="evenodd">
        <g id="列表详情" transform="translate(-1380.000000, -48.000000)">
            <g id="数据服务" transform="translate(1380.000000, 48.000000)">
                <circle id="椭圆形" fill="#E5F5F4" cx="32" cy="32" r="32"></circle>
                <path d="M45,16 C46.6568542,16 48,17.3431458 48,19 L48,19 L48,45 C48,46.6568542 46.6568542,48 45,48 L45,48 L19,48 C17.3431458,48 16,46.6568542 16,45 L16,45 L16,19 C16,17.3431458 17.3431458,16 19,16 L19,16 Z M45,18 L19,18 C18.4477153,18 18,18.4477153 18,19 L18,19 L18,45 C18,45.5522847 18.4477153,46 19,46 L19,46 L45,46 C45.5522847,46 46,45.5522847 46,45 L46,45 L46,19 C46,18.4477153 45.5522847,18 45,18 L45,18 Z M38,21 C40.209139,21 42,22.790861 42,25 C42,27.209139 40.209139,29 38,29 C36.8979662,29 35.9000224,28.554338 35.1765625,27.833408 L28.898133,31.0990848 C28.9647826,31.388641 29,31.6902078 29,32 C29,32.3944245 28.9429122,32.7755154 28.8365485,33.1354608 L34.7420877,36.6786828 C35.4674292,35.6625071 36.6563462,35 38,35 C40.209139,35 42,36.790861 42,39 C42,41.209139 40.209139,43 38,43 C35.790861,43 34,41.209139 34,39 C34,38.8578736 34.0074125,38.7174784 34.021872,38.5791801 L27.8064077,34.8502775 C27.0843568,35.5612838 26.0934122,36 25,36 C22.790861,36 21,34.209139 21,32 C21,29.790861 22.790861,28 25,28 C26.1805529,28 27.2416549,28.5114306 27.9738338,29.3248199 L34.1556382,26.1086737 C34.0542947,25.7566275 34,25.3846543 34,25 C34,22.790861 35.790861,21 38,21 Z M38,37 C36.8954305,37 36,37.8954305 36,39 C36,40.1045695 36.8954305,41 38,41 C39.1045695,41 40,40.1045695 40,39 C40,37.8954305 39.1045695,37 38,37 Z M38,23 C36.8954305,23 36,23.8954305 36,25 C36,26.1045695 36.8954305,27 38,27 C39.1045695,27 40,26.1045695 40,25 C40,23.8954305 39.1045695,23 38,23 Z" id="形状结合" fill="#00A497" fill-rule="nonzero"></path>
                <path d="M38,36 C39.6568542,36 41,37.3431458 41,39 C41,40.6568542 39.6568542,42 38,42 C36.3431458,42 35,40.6568542 35,39 C35,37.3431458 36.3431458,36 38,36 Z M38,22 C39.6568542,22 41,23.3431458 41,25 C41,26.6568542 39.6568542,28 38,28 C36.3431458,28 35,26.6568542 35,25 C35,23.3431458 36.3431458,22 38,22 Z" id="形状结合" fill-opacity="0.2" fill="#33A097"></path>
            </g>
        </g>
    </g>
</svg>