<?xml version="1.0" encoding="UTF-8"?>
<svg width="48px" height="48px" viewBox="0 0 48 48" version="1.1" xmlns="http://www.w3.org/2000/svg" xmlns:xlink="http://www.w3.org/1999/xlink">
    <title>企业架构</title>
    <g id="archy-icon" stroke="none" stroke-width="1" fill="none" fill-rule="evenodd">
        <g id="画板" transform="translate(-30.000000, -72.000000)" fill="#409EFF" fill-rule="nonzero">
            <path d="M54.8739824,72.129368 L55.0649674,72.2021374 L66.5263764,77.1141698 C67.7954509,77.6580589 68.3833298,79.1277562 67.8394407,80.3968307 C67.6118549,80.9278641 67.2082716,81.3617923 66.6996937,81.627612 L66.5263764,81.709895 L63.72,82.911 L66.5263764,84.1141698 C67.7954509,84.6580589 68.3833298,86.1277562 67.8394407,87.3968307 C67.6118549,87.9278641 67.2082716,88.3617923 66.6996937,88.627612 L66.5263764,88.709895 L55.0649674,93.6219274 L55,93.645 L55,99 L71,99 C71.5522847,99 72,99.4477153 72,100 L72,106 L76,106 C77.1045695,106 78,106.895431 78,108 L78,118 C78,119.104569 77.1045695,120 76,120 L66,120 C64.8954305,120 64,119.104569 64,118 L64,108 C64,106.895431 64.8954305,106 66,106 L70,106 L70,101 L55,101 L55,106 L59,106 C60.1045695,106 61,106.895431 61,108 L61,118 C61,119.104569 60.1045695,120 59,120 L49,120 C47.8954305,120 47,119.104569 47,118 L47,108 C47,106.895431 47.8954305,106 49,106 L53,106 L53,101 L38,101 L38,106 L42,106 C43.1045695,106 44,106.895431 44,108 L44,118 C44,119.104569 43.1045695,120 42,120 L32,120 C30.8954305,120 30,119.104569 30,118 L30,108 C30,106.895431 30.8954305,106 32,106 L36,106 L36,100 C36,99.4477153 36.4477153,99 37,99 L53,99 L53,93.58 L41.5158428,88.6592725 C40.2467684,88.1153834 39.6588894,86.6456861 40.2027785,85.3766117 C40.4149234,84.8816067 40.7804392,84.4700535 41.2428106,84.2008816 L41.4206296,84.1067314 L44.162,82.793 L41.633962,81.709895 C40.4177656,81.188668 39.8271811,79.8171761 40.2587735,78.5868319 L40.3208976,78.4272342 C40.5484834,77.8962007 40.9520668,77.4622726 41.4606447,77.1964528 L41.633962,77.1141698 L53.0953709,72.2021374 C53.6613557,71.9595725 54.2945547,71.935316 54.8739824,72.129368 Z M41,109 L33,109 L33,117 L41,117 L41,109 Z M58,109 L50,109 L50,117 L58,117 L58,109 Z M75,109 L67,109 L67,117 L75,117 L75,109 Z M47.827,84.363 L43.7111692,86.3350324 L54.0801692,90.7800324 L64.2721692,86.4120324 L59.912,84.543 L55.0649674,86.6219274 C54.4989826,86.8644923 53.8657836,86.8887488 53.286356,86.6946969 L53.0953709,86.6219274 L47.827,84.363 Z M54.0801692,75.0430324 L43.8871692,79.4120324 L54.0791692,83.7800324 L64.2721692,79.4110324 L54.0801692,75.0430324 Z" id="企业架构"></path>
        </g>
    </g>
</svg>