<?xml version="1.0" encoding="UTF-8"?>
<svg width="48px" height="48px" viewBox="0 0 48 48" version="1.1" xmlns="http://www.w3.org/2000/svg" xmlns:xlink="http://www.w3.org/1999/xlink">
    <title>业务领域</title>
    <g id="archy-icon" stroke="none" stroke-width="1" fill="none" fill-rule="evenodd">
        <g id="画板" transform="translate(-118.000000, -72.000000)" fill="#409EFF" fill-rule="nonzero">
            <path d="M142,72 L148,75.5 L148.00103,79.0248727 C153.010178,80.7955823 156.993393,84.715951 158.854783,89.6690016 L160,89 L166,92.5 L166,99.5 L160,103 L158.854545,102.331705 C156.991208,107.289663 153.004397,111.206506 148.000594,112.975274 L148,116.5 L142,120 L136,116.5 L136.000355,112.975618 C130.991103,111.205339 127.007756,107.285411 125.145921,102.33287 L124,103 L118,99.5 L118,92.5 L124,89 L125.145212,89.6689267 C127.009143,84.708709 130.997564,80.792526 136.000357,79.0243947 L136,75.5 L142,72 Z M142,109.464 L138.968416,111.232 L138.968416,114.767 L142,116.535 L145.030594,114.767 L145.030594,111.232 L142,109.464 Z M148.000884,81.1630876 L148,82.5 L142,86 L136,82.5 L136.000326,81.1626425 C131.763023,82.877909 128.425021,86.3575826 126.901296,90.6917642 L130,92.5 L130,99.5 L126.901195,101.307868 C128.422896,105.636153 131.756944,109.119709 135.999862,110.837215 L136,109.5 L142,106 L148,109.5 L148.000798,110.836915 C152.239153,109.120891 155.575938,105.640227 157.09895,101.307521 L154,99.5 L154,92.5 L157.099165,90.6931541 C155.577701,86.3645824 152.243711,82.880811 148.000884,81.1630876 Z M142,89 L148,92.5 L148,99.5 L142,103 L136,99.5 L136,92.5 L142,89 Z M124,92.464 L120.968416,94.232 L120.968416,97.767 L124,99.535 L127.030594,97.767 L127.030594,94.232 L124,92.464 Z M160,92.464 L156.968416,94.232 L156.968416,97.767 L160,99.535 L163.030594,97.767 L163.030594,94.232 L160,92.464 Z M142,92.464 L138.968416,94.232 L138.968416,97.767 L142,99.535 L145.030594,97.767 L145.030594,94.232 L142,92.464 Z M142,75.464 L138.968416,77.232 L138.968416,80.767 L142,82.535 L145.030594,80.767 L145.030594,77.232 L142,75.464 Z" id="业务领域"></path>
        </g>
    </g>
</svg>