<?xml version="1.0" encoding="UTF-8"?>
<svg width="48px" height="48px" viewBox="0 0 48 48" version="1.1" xmlns="http://www.w3.org/2000/svg" xmlns:xlink="http://www.w3.org/1999/xlink">
    <title>C’实体</title>
    <g id="archy-icon" stroke="none" stroke-width="1" fill="none" fill-rule="evenodd">
        <g id="画板" transform="translate(-470.000000, -72.000000)" fill="#31A9E1" fill-rule="nonzero">
            <path d="M515,72 C516.656854,72 518,73.3431458 518,75 L518,117 C518,118.656854 516.656854,120 515,120 L473,120 C471.343146,120 470,118.656854 470,117 L470,75 C470,73.3431458 471.343146,72 473,72 L515,72 Z M515,88 L473,88 L473,117 L515,117 L515,88 Z M490.757615,93 C493.65068,93 495.76604,93.948801 497.103694,95.8464031 C497.842515,96.91186 498.239145,97.9812054 498.293584,99.0544394 L494.700583,99.0544394 C494.467272,98.2300713 494.167855,97.6079067 493.802333,97.1879456 C493.14906,96.441348 492.180817,96.0680493 490.897602,96.0680493 C489.591056,96.0680493 488.560596,96.5949449 487.806222,97.6487362 C487.051847,98.7025275 486.67466,100.193778 486.67466,102.122489 C486.67466,104.051199 487.073234,105.495787 487.870382,106.456254 C488.667531,107.416721 489.680493,107.896954 490.909268,107.896954 C492.169151,107.896954 493.129618,107.48477 493.790668,106.660402 C494.156189,106.21711 494.459494,105.552171 494.700583,104.665587 L498.258587,104.665587 C497.947505,106.539857 497.154245,108.064161 495.878808,109.238496 C494.595593,110.412832 492.954634,111 490.95593,111 C488.482826,111 486.538561,110.20674 485.123137,108.62022 C483.707712,107.025924 483,104.84057 483,102.064161 C483,99.0622165 483.804925,96.7485418 485.414776,95.1231367 C486.814647,93.7077122 488.595593,93 490.757615,93 Z M504.092991,93.4003906 L502.92419,100.4132 L501.755388,100.4132 L500.586587,93.4003906 L504.092991,93.4003906 Z" id="C’实体"></path>
        </g>
    </g>
</svg>