<?xml version="1.0" encoding="UTF-8"?>
<svg width="48px" height="48px" viewBox="0 0 48 48" version="1.1" xmlns="http://www.w3.org/2000/svg" xmlns:xlink="http://www.w3.org/1999/xlink">
    <title>业务实体</title>
    <g id="archy-icon" stroke="none" stroke-width="1" fill="none" fill-rule="evenodd">
        <g id="画板" transform="translate(-382.000000, -72.000000)" fill="#008B9C" fill-rule="nonzero">
            <path d="M427,72 C428.656854,72 430,73.3431458 430,75 L430,117 C430,118.656854 428.656854,120 427,120 L385,120 C383.343146,120 382,118.656854 382,117 L382,75 C382,73.3431458 383.343146,72 385,72 L427,72 Z M427,88 L385,88 L385,117 L427,117 L427,88 Z M405.757615,93 C408.65068,93 410.76604,93.948801 412.103694,95.8464031 C412.842515,96.91186 413.239145,97.9812054 413.293584,99.0544394 L409.700583,99.0544394 C409.467272,98.2300713 409.167855,97.6079067 408.802333,97.1879456 C408.14906,96.441348 407.180817,96.0680493 405.897602,96.0680493 C404.591056,96.0680493 403.560596,96.5949449 402.806222,97.6487362 C402.051847,98.7025275 401.67466,100.193778 401.67466,102.122489 C401.67466,104.051199 402.073234,105.495787 402.870382,106.456254 C403.667531,107.416721 404.680493,107.896954 405.909268,107.896954 C407.169151,107.896954 408.129618,107.48477 408.790668,106.660402 C409.156189,106.21711 409.459494,105.552171 409.700583,104.665587 L413.258587,104.665587 C412.947505,106.539857 412.154245,108.064161 410.878808,109.238496 C409.595593,110.412832 407.954634,111 405.95593,111 C403.482826,111 401.538561,110.20674 400.123137,108.62022 C398.707712,107.025924 398,104.84057 398,102.064161 C398,99.0622165 398.804925,96.7485418 400.414776,95.1231367 C401.814647,93.7077122 403.595593,93 405.757615,93 Z" id="业务实体"></path>
        </g>
    </g>
</svg>