<?xml version="1.0" encoding="UTF-8"?>
<svg width="48px" height="48px" viewBox="0 0 48 48" version="1.1" xmlns="http://www.w3.org/2000/svg" xmlns:xlink="http://www.w3.org/1999/xlink">
    <title>业务对象</title>
    <g id="archy-icon" stroke="none" stroke-width="1" fill="none" fill-rule="evenodd">
        <g id="画板" transform="translate(-294.000000, -72.000000)" fill="#465DCB" fill-rule="nonzero">
            <path d="M339,72 C340.656854,72 342,73.3431458 342,75 L342,117 C342,118.656854 340.656854,120 339,120 L297,120 C295.343146,120 294,118.656854 294,117 L294,75 C294,73.3431458 295.343146,72 297,72 L339,72 Z M339,88 L297,88 L297,117 L339,117 L339,88 Z M319.743555,93 C321.949796,93.0325645 323.51289,93.6716418 324.432836,94.917232 C324.986431,95.6824966 325.263229,96.5983718 325.263229,97.6648575 C325.263229,98.7639077 324.986431,99.6472185 324.432836,100.31479 C324.123474,100.689281 323.667571,101.031208 323.065129,101.34057 C323.985075,101.674355 324.679104,102.203528 325.147218,102.928087 C325.615332,103.652646 325.849389,104.531886 325.849389,105.565807 C325.849389,106.632293 325.580733,107.588874 325.043419,108.43555 C324.701493,108.997286 324.274084,109.469471 323.761194,109.852103 C323.183175,110.291723 322.501357,110.592944 321.715739,110.755767 C320.930122,110.918589 320.077341,111 319.157395,111 L311,111 L311,93 L319.743555,93 Z M319.071913,103.074627 L314.590231,103.074627 L314.590231,107.873813 L319.010855,107.873813 C319.800543,107.873813 320.415197,107.767978 320.854817,107.556309 C321.652646,107.165536 322.05156,106.416554 322.05156,105.309362 C322.05156,104.373134 321.664858,103.729986 320.891452,103.379919 C320.459973,103.184532 319.85346,103.082768 319.071913,103.074627 Z M318.546811,96.1261872 L314.590231,96.1261872 L314.590231,100.09498 L319.010855,100.09498 C319.800543,100.09498 320.443691,99.9443691 320.940299,99.6431479 C321.428765,99.3500678 321.672999,98.8249661 321.672999,98.0678426 C321.672999,97.229308 321.347354,96.6757123 320.696065,96.4070556 C320.134328,96.21981 319.41791,96.1261872 318.546811,96.1261872 Z" id="业务对象"></path>
        </g>
    </g>
</svg>