<?xml version="1.0" encoding="UTF-8"?>
<svg width="48px" height="48px" viewBox="0 0 48 48" version="1.1" xmlns="http://www.w3.org/2000/svg" xmlns:xlink="http://www.w3.org/1999/xlink">
    <title>物理表</title>
    <g id="archy-icon" stroke="none" stroke-width="1" fill="none" fill-rule="evenodd">
        <g id="画板" transform="translate(-558.000000, -72.000000)" fill="#0098DF" fill-rule="nonzero">
            <path d="M603,72 C604.656854,72 606,73.3431458 606,75 L606,117 C606,118.656854 604.656854,120 603,120 L561,120 C559.343146,120 558,118.656854 558,117 L558,75 C558,73.3431458 559.343146,72 561,72 L603,72 Z M603,88 L561,88 L561,117 L603,117 L603,88 Z M582.75441,93 C583.869742,93.0162822 584.797829,93.14654 585.53867,93.3907734 C586.800543,93.8059701 587.822252,94.5671642 588.603799,95.6743555 C589.230665,96.5698779 589.658073,97.5386703 589.886024,98.5807327 C590.113976,99.6227951 590.227951,100.616011 590.227951,101.56038 C590.227951,103.953867 589.747626,105.981004 588.786974,107.641791 C587.484396,109.880597 585.473541,111 582.75441,111 L575,111 L575,93 L582.75441,93 Z M582.119403,96.1261872 L578.651289,96.1261872 L578.651289,107.873813 L582.119403,107.873813 C583.894166,107.873813 585.131615,106.998643 585.83175,105.248304 C586.214383,104.287653 586.405699,103.143826 586.405699,101.816825 C586.405699,99.9850746 586.12076,98.5766621 585.550882,97.5915875 C584.972863,96.614654 583.829037,96.1261872 582.119403,96.1261872 Z" id="物理表"></path>
        </g>
    </g>
</svg>