<?xml version="1.0" encoding="UTF-8"?>
<svg width="48px" height="48px" viewBox="0 0 48 48" version="1.1" xmlns="http://www.w3.org/2000/svg" xmlns:xlink="http://www.w3.org/1999/xlink">
    <title>业务主题</title>
    <g id="archy-icon" stroke="none" stroke-width="1" fill="none" fill-rule="evenodd">
        <g id="画板" transform="translate(-206.000000, -72.000000)" fill="#68C6C5">
            <path d="M218.5,72.000208 L218.523718,72.0001238 C218.557734,72.0006307 218.591799,72.0022978 218.625852,72.0051413 L218.5,72.000208 C218.555298,72.000208 218.609896,72.0032002 218.663643,72.0090317 C218.69808,72.0125437 218.732384,72.0174986 218.766592,72.0236733 C218.781105,72.026428 218.795793,72.0292896 218.810403,72.0323638 C218.837661,72.0380341 218.864697,72.0445507 218.891625,72.0518505 C218.914434,72.0579963 218.937148,72.0647095 218.95963,72.0719389 C218.978846,72.0782434 218.997873,72.0848151 219.016821,72.0917933 C219.040226,72.1002058 219.063588,72.1094558 219.086653,72.1192669 C219.107536,72.1284283 219.128166,72.1377791 219.148665,72.1476373 C219.173232,72.1591328 219.197418,72.1715773 219.22121,72.1846485 C219.230334,72.1899606 219.240186,72.1955035 219.25,72.2011699 L225.83,76 L252.5,76.000208 C253.328427,76.000208 254,76.6717809 254,77.500208 L254,118.500208 C254,119.328635 253.328427,120.000208 252.5,120.000208 L252.479,119.999 L207.521285,120.00006 C207.514202,120.000159 207.507107,120.000208 207.5,120.000208 C206.671573,120.000208 206,119.328635 206,118.500208 L206,73.500208 C206,72.6717809 206.671573,72.000208 207.5,72.000208 L218.5,72.000208 Z M251,87 L209,87 L209,116.999 L251,116.999 L251,87 Z M225,90 C225.552285,90 226,90.4477153 226,91 L226,93.999 L231,94 L231,98 L236,98 L236,96 C236,95.4477153 236.447715,95 237,95 L245,95 C245.552285,95 246,95.4477153 246,96 L246,102 C246,102.552285 245.552285,103 245,103 L237,103 C236.447715,103 236,102.552285 236,102 L236,100 L229,100 L229,96 L226,95.999 L226,99 C226,99.5522847 225.552285,100 225,100 L221,99.999 L221,107.999 L229,108 L229,106 C229,105.447715 229.447715,105 230,105 L238,105 C238.552285,105 239,105.447715 239,106 L239,112 C239,112.552285 238.552285,113 238,113 L230,113 C229.447715,113 229,112.552285 229,112 L229,110 L219,110 L219,99.999 L215,100 C214.447715,100 214,99.5522847 214,99 L214,91 C214,90.4477153 214.447715,90 215,90 L225,90 Z M237,107 L231,107 L231,111 L237,111 L237,107 Z M244,97 L238,97 L238,101 L244,101 L244,97 Z M224,92 L216,92 L216,98 L224,98 L224,92 Z M218.098,75 L209,75 L209,84 L251,84 L251,79 L225.5,79.000208 L225.479651,78.9995267 C225.208174,79.0091002 224.930796,78.9450808 224.678203,78.7992461 L218.098,75 Z" id="业务主题"></path>
        </g>
    </g>
</svg>