<?xml version="1.0" encoding="UTF-8"?>
<svg width="24px" height="24px" viewBox="0 0 24 24" version="1.1" xmlns="http://www.w3.org/2000/svg" xmlns:xlink="http://www.w3.org/1999/xlink">
    <title>影响程度</title>
    <g id="dam-icon" stroke="none" stroke-width="1" fill="none" fill-rule="evenodd">
        <g id="资产icon" transform="translate(-1512.000000, -412.000000)" fill="#409EFF">
            <g id="影响程度" transform="translate(1512.000000, 412.000000)">
                <circle id="椭圆形" opacity="0.1" cx="12" cy="12" r="12"></circle>
                <g id="编组-36" transform="translate(4.400000, 5.000000)">
                    <path d="M3.60033215,9.73224343 L3.6,13.6 C3.6,13.8209139 3.4209139,14 3.19999999,14 L2.00000001,14 C1.7790861,14 1.6,13.8209139 1.6,13.6 L1.59940385,9.73209062 C1.8937119,9.90247407 2.23546675,10 2.6,10 C2.96442426,10 3.30608373,9.90253238 3.60033215,9.73224343 Z M3.19999999,0 C3.4209139,-4.05812257e-17 3.6,0.179086103 3.6,0.400000006 L3.60033215,6.26775657 C3.30608373,6.09746762 2.96442426,6 2.6,6 C2.23546675,6 1.8937119,6.09752593 1.59940385,6.26790938 L1.6,0.400000006 C1.6,0.179086103 1.7790861,-2.3697453e-16 2.00000001,0 L3.19999999,0 Z M8.60033215,5.73224343 L8.6,13.6 C8.6,13.8209139 8.4209139,14 8.19999999,14 L7.00000001,14 C6.7790861,14 6.6,13.8209139 6.6,13.6 L6.59940385,5.73209062 C6.8937119,5.90247407 7.23546675,6 7.6,6 C7.96442426,6 8.30608373,5.90253238 8.60033215,5.73224343 Z M8.19999999,0 C8.4209139,-4.05812257e-17 8.6,0.179086103 8.6,0.400000006 L8.60033215,2.26775657 C8.30608373,2.09746762 7.96442426,2 7.6,2 C7.23546675,2 6.8937119,2.09752593 6.59940385,2.26790938 L6.6,0.400000006 C6.6,0.179086103 6.7790861,-2.3697453e-16 7.00000001,0 L8.19999999,0 Z M13.6003321,11.7322434 L13.6,13.6 C13.6,13.8209139 13.4209139,14 13.2,14 L12,14 C11.7790861,14 11.6,13.8209139 11.6,13.6 L11.5994038,11.7320906 C11.8937119,11.9024741 12.2354668,12 12.6,12 C12.9644243,12 13.3060837,11.9025324 13.6003321,11.7322434 Z M13.2,0 C13.4209139,-4.05812257e-17 13.6,0.179086103 13.6,0.400000006 L13.6003321,8.26775657 C13.3060837,8.09746762 12.9644243,8 12.6,8 C12.2354668,8 11.8937119,8.09752593 11.5994038,8.26790938 L11.6,0.400000006 C11.6,0.179086103 11.7790861,-2.3697453e-16 12,0 L13.2,0 Z" id="形状结合" opacity="0.6"></path>
                    <path d="M12.6,7.4 C14.0359403,7.4 15.2,8.56405965 15.2,10 C15.2,11.4359403 14.0359403,12.6 12.6,12.6 C11.1640597,12.6 10,11.4359403 10,10 C10,8.56405965 11.1640597,7.4 12.6,7.4 Z M12.6,8.6 C11.8268014,8.6 11.2,9.22680135 11.2,10 C11.2,10.7731986 11.8268014,11.4 12.6,11.4 C13.3731986,11.4 14,10.7731986 14,10 C14,9.22680135 13.3731986,8.6 12.6,8.6 Z M2.6,5.4 C4.03594035,5.4 5.2,6.56405965 5.2,8 C5.2,9.43594035 4.03594035,10.6 2.6,10.6 C1.16405965,10.6 0,9.43594035 0,8 C0,6.56405965 1.16405965,5.4 2.6,5.4 Z M2.6,6.6 C1.82680135,6.6 1.2,7.22680135 1.2,8 C1.2,8.77319865 1.82680135,9.4 2.6,9.4 C3.37319865,9.4 4,8.77319865 4,8 C4,7.22680135 3.37319865,6.6 2.6,6.6 Z M7.6,1.4 C9.03594035,1.4 10.2,2.56405965 10.2,4 C10.2,5.43594035 9.03594035,6.6 7.6,6.6 C6.16405965,6.6 5,5.43594035 5,4 C5,2.56405965 6.16405965,1.4 7.6,1.4 Z M7.6,2.6 C6.82680135,2.6 6.2,3.22680135 6.2,4 C6.2,4.77319865 6.82680135,5.4 7.6,5.4 C8.37319865,5.4 9,4.77319865 9,4 C9,3.22680135 8.37319865,2.6 7.6,2.6 Z" id="形状结合" fill-rule="nonzero"></path>
                </g>
            </g>
        </g>
    </g>
</svg>