<?xml version="1.0" encoding="UTF-8"?>
<svg width="20px" height="20px" viewBox="0 0 20 20" version="1.1" xmlns="http://www.w3.org/2000/svg" xmlns:xlink="http://www.w3.org/1999/xlink">
    <title>列表-男</title>
    <g id="系统管理" stroke="none" stroke-width="1" fill="none" fill-rule="evenodd">
        <path d="M9.60660172,1.60660172 C12.9203102,1.60660172 15.6066017,4.29289322 15.6066017,7.60660172 C15.6066017,10.5810595 13.4421886,13.0499916 10.6024161,13.524344 C10.6054243,13.5502321 10.6066017,13.5782794 10.6066017,13.6066017 L10.6056017,16.0786017 L12.1566131,14.4789469 L12.1810134,14.4546269 C12.5420532,14.1071742 13.0999915,14.0906144 13.4797462,14.3977541 L13.5707556,14.4812786 L13.6070905,14.5190344 C13.9518658,14.8772921 13.977524,15.4282083 13.6846532,15.8151353 L13.6047998,15.9082443 L10.3938158,19.2233518 C10.2107489,19.4566897 9.92618222,19.6066017 9.60660172,19.6066017 L9.49060172,19.5996017 L9.40329908,19.6028878 C9.16770275,19.5958498 8.93413704,19.504749 8.75115043,19.3286488 L8.72675009,19.3043288 L5.43683071,15.9082443 C5.06204626,15.5213656 5.06103349,14.9071469 5.43454007,14.5190344 L5.47087494,14.4812786 C5.84728197,14.0901523 6.46949076,14.0782199 6.86061715,14.4546269 L6.8850175,14.4789469 L6.8850175,14.4789469 L8.60560172,16.2556017 L8.60660172,13.6066017 L8.61078731,13.524344 C5.77101488,13.0499916 3.60660172,10.5810595 3.60660172,7.60660172 C3.60660172,4.29289322 6.29289322,1.60660172 9.60660172,1.60660172 Z M9.60660172,3.60660172 C7.39746272,3.60660172 5.60660172,5.39746272 5.60660172,7.60660172 C5.60660172,9.81574072 7.39746272,11.6066017 9.60660172,11.6066017 C11.8157407,11.6066017 13.6066017,9.81574072 13.6066017,7.60660172 C13.6066017,5.39746272 11.8157407,3.60660172 9.60660172,3.60660172 Z" id="男" fill="#70B3FF" transform="translate(9.606602, 10.606602) rotate(45.000000) translate(-9.606602, -10.606602) "></path>
    </g>
</svg>