<svg xmlns="http://www.w3.org/2000/svg" width="32" height="31" viewBox="0 0 32 31">
  <g id="产品" transform="translate(-329.797 -185)">
    <path id="联合_412" data-name="联合 412" d="M-3076.2-356a1,1,0,0,1-1-1v-9a1,1,0,0,1,1-1h3v-19a1,1,0,0,1,1-1h22a1,1,0,0,1,1,1v19h3a1,1,0,0,1,1,1v9a1,1,0,0,1-1,1Zm29-2v-7h-28v7Zm-4-9v-18h-20v18Z" transform="translate(3407 572)" fill="#2566a5"/>
    <rect id="矩形_17816" data-name="矩形 17816" width="14" height="2" rx="1" transform="translate(338.797 190)" fill="#c6e3ff"/>
    <rect id="矩形_17817" data-name="矩形 17817" width="14" height="2" rx="1" transform="translate(338.797 194)" fill="#c6e3ff"/>
    <rect id="矩形_17818" data-name="矩形 17818" width="8" height="2" rx="1" transform="translate(338.797 198)" fill="#c6e3ff"/>
  </g>
</svg>
