<svg xmlns="http://www.w3.org/2000/svg" width="33.835" height="27.797" viewBox="0 0 33.835 27.797">
  <g id="参与人" transform="translate(-328.797 -183)">
    <path id="路径_3386" data-name="路径 3386" d="M-309.613-198.6a7.234,7.234,0,0,0,2.784-5.7,7.259,7.259,0,0,0-7.251-7.251,7.259,7.259,0,0,0-7.251,7.251,7.237,7.237,0,0,0,2.784,5.7,12.1,12.1,0,0,0-7.618,11.22v2.417a1.208,1.208,0,0,0,1.208,1.209H-303.2a1.208,1.208,0,0,0,1.209-1.209v-2.417a12.1,12.1,0,0,0-7.619-11.22Zm-4.467-10.535a4.839,4.839,0,0,1,4.834,4.834,4.839,4.839,0,0,1-4.834,4.834,4.839,4.839,0,0,1-4.834-4.834,4.839,4.839,0,0,1,4.834-4.834Zm9.668,22.963h-19.337v-1.209a9.68,9.68,0,0,1,9.67-9.669,9.679,9.679,0,0,1,9.667,9.669Z" transform="translate(659.797 394.551)" fill="#e5ffff"/>
    <path id="路径_3387" data-name="路径 3387" d="M-322.171-198.179a1.086,1.086,0,0,0,.05-.227,1.086,1.086,0,0,0,.031-.138,1.172,1.172,0,0,0-.009-.28,1.045,1.045,0,0,0,0-.147c-.007-.028-.027-.048-.035-.077a1.2,1.2,0,0,0-.071-.153,1.187,1.187,0,0,0-.178-.282c-.011-.012-.024-.02-.036-.032a1.154,1.154,0,0,0-.38-.264,3.63,3.63,0,0,1-2.153-3.312,3.613,3.613,0,0,1,2.774-3.525,1.211,1.211,0,0,0,.892-1.459,1.216,1.216,0,0,0-1.459-.892,6.026,6.026,0,0,0-4.624,5.877,6.033,6.033,0,0,0,1.571,4.054,9.629,9.629,0,0,0-5.2,8.578v1.87a1.208,1.208,0,0,0,1.209,1.209,1.208,1.208,0,0,0,1.209-1.209v-1.87a7.214,7.214,0,0,1,5.472-7.023,1.2,1.2,0,0,0,.941-.7Zm19.81-.857a6.033,6.033,0,0,0,1.57-4.054,6.051,6.051,0,0,0-4.472-5.838,1.212,1.212,0,0,0-1.481.853,1.209,1.209,0,0,0,.854,1.481,3.631,3.631,0,0,1,2.683,3.5,3.629,3.629,0,0,1-2.151,3.311,1.183,1.183,0,0,0-.386.268c-.01.011-.021.018-.031.028a1.188,1.188,0,0,0-.18.286,1.219,1.219,0,0,0-.069.151c-.008.027-.029.048-.036.077a1,1,0,0,0,0,.147,1.14,1.14,0,0,0-.009.279,1.031,1.031,0,0,0,.031.138,1.092,1.092,0,0,0,.05.227,1.2,1.2,0,0,0,.94.7,7.214,7.214,0,0,1,5.472,7.022v1.87a1.208,1.208,0,0,0,1.209,1.209,1.208,1.208,0,0,0,1.209-1.209v-1.87a9.628,9.628,0,0,0-5.2-8.578Zm0,0" transform="translate(659.797 394.551)" fill="#329dc4"/>
  </g>
</svg>
