<svg xmlns="http://www.w3.org/2000/svg" width="39.96" height="33.992" viewBox="0 0 39.96 33.992">
  <g id="咨询" transform="translate(-326.317 -182.131)">
    <path id="路径_3388" data-name="路径 3388" d="M18.98,0C29.462,0,37.96,7.114,37.96,15.89a14.112,14.112,0,0,1-2.8,8.283c-.252.363,1.784,7.174.888,7.891-.473.383-7.282-2.511-8.082-2.141A21.867,21.867,0,0,1,18.98,31.78C8.5,31.78,0,24.666,0,15.89S8.5,0,18.98,0Z" transform="translate(327.317 183.131)" fill="none" stroke="#1db5b0" stroke-width="2"/>
    <rect id="矩形_17808" data-name="矩形 17808" width="6" height="4" rx="2" transform="translate(334.797 194)" fill="#d9fffd"/>
    <rect id="矩形_17813" data-name="矩形 17813" width="22" height="4" rx="2" transform="translate(334.797 201)" fill="#d9fffd"/>
    <rect id="矩形_17811" data-name="矩形 17811" width="14" height="4" rx="2" transform="translate(342.797 194)" fill="#d9fffd"/>
  </g>
</svg>
