<svg xmlns="http://www.w3.org/2000/svg" width="34.554" height="35.959" viewBox="0 0 34.554 35.959">
  <g id="渠道" transform="translate(-1316.539 -907)">
    <path id="路径_3313" data-name="路径 3313" d="M1331.143,925.4a15.628,15.628,0,0,0-10.135,17.558" transform="translate(-2.55 -13.817)" fill="none" stroke="#464fad" stroke-linecap="round" stroke-linejoin="round" stroke-width="2"/>
    <path id="路径_3314" data-name="路径 3314" d="M1432.385,942.956A15.63,15.63,0,0,0,1422.25,925.4" transform="translate(-83.16 -13.817)" fill="none" stroke="#464fad" stroke-linecap="round" stroke-linejoin="round" stroke-width="2"/>
    <path id="路径_3315" data-name="路径 3315" d="M1347.514,1054.871a15.626,15.626,0,0,0,20.267,0" transform="translate(-23.806 -116.643)" fill="none" stroke="#464fad" stroke-linecap="round" stroke-linejoin="round" stroke-width="2"/>
    <path id="路径_3316" data-name="路径 3316" d="M1349.056,930.505,1339,947.923h20.112Z" transform="translate(-15.137 -15.082)" fill="none" stroke="#464fad" stroke-linecap="round" stroke-linejoin="round" stroke-width="2"/>
    <g id="组_1384" data-name="组 1384" transform="translate(1317.539 908)">
      <circle id="椭圆_1559" data-name="椭圆 1559" cx="3.087" cy="3.087" r="3.087" transform="translate(13.267 0)" fill="none" stroke="#c7ccff" stroke-linecap="round" stroke-linejoin="round" stroke-width="2"/>
      <circle id="椭圆_1560" data-name="椭圆 1560" cx="3.087" cy="3.087" r="3.087" transform="translate(0 22.801)" fill="none" stroke="#c7ccff" stroke-linecap="round" stroke-linejoin="round" stroke-width="2"/>
      <circle id="椭圆_1561" data-name="椭圆 1561" cx="3.087" cy="3.087" r="3.087" transform="translate(26.379 22.89)" fill="none" stroke="#c7ccff" stroke-linecap="round" stroke-linejoin="round" stroke-width="2"/>
    </g>
  </g>
</svg>
