<?xml version="1.0" encoding="UTF-8"?>
<svg width="20px" height="20px" viewBox="0 0 20 20" version="1.1" xmlns="http://www.w3.org/2000/svg" xmlns:xlink="http://www.w3.org/1999/xlink">
    <title>备注</title>
    <g id="页面-1" stroke="none" stroke-width="1" fill="none" fill-rule="evenodd">
        <g id="light-tab" transform="translate(-382.000000, -70.000000)">
            <g id="备注" transform="translate(382.000000, 70.000000)">
                <path d="M14,0 L14,20 L0,20 L0,0 L14,0 Z M13,1 L1,1 L1,19 L13,19 L13,1 Z M7,9 L7,10 L3,10 L3,9 L7,9 Z M11,7 L11,8 L3,8 L3,7 L11,7 Z M11,5 L11,6 L3,6 L3,5 L11,5 Z M11,3 L11,4 L3,4 L3,3 L11,3 Z" id="形状结合" fill="#539FFD" fill-rule="nonzero"></path>
                <rect id="矩形备份-22" fill-opacity="0.1" fill="#539FFD" transform="translate(7.000000, 10.000000) scale(-1, -1) translate(-7.000000, -10.000000) " x="1" y="1" width="12" height="18"></rect>
                <path d="M20,16 L18,20 L16,16 L20,16 Z M20,0 L20,15 L16,15 L16,0 L20,0 Z M19,1 L17,1 L17,14 L19,14 L19,1 Z" id="形状结合" fill="#A0AAB9" fill-rule="nonzero"></path>
            </g>
        </g>
    </g>
</svg>