<?xml version="1.0" encoding="UTF-8"?>
<svg width="14px" height="80px" viewBox="0 0 14 80" version="1.1" xmlns="http://www.w3.org/2000/svg" xmlns:xlink="http://www.w3.org/1999/xlink">
    <title>收起</title>
    <g id="设计方案" stroke="none" stroke-width="1" fill="none" fill-rule="evenodd">
        <g id="画板" transform="translate(-84.000000, -647.000000)">
            <g id="收起" transform="translate(91.000000, 687.000000) scale(-1, 1) translate(-91.000000, -687.000000) translate(84.000000, 647.000000)">
                <g id="下拉备份" transform="translate(7.000000, 40.000000) rotate(-180.000000) translate(-7.000000, -40.000000) translate(0.000000, 0.000000)">
                    <path d="M4.5,12.7046221 C7.44742955,10.8041584 9.83934753,8.15744299 11.432781,5.03333141 L14,-9.09494702e-12 L14,-9.09494702e-12 L14,80 L11.4127622,74.7808661 C9.83131735,71.590679 7.44952478,68.8651766 4.5,66.8705424 C1.68601695,64.9675691 -2.54575269e-11,61.7920368 -2.54658516e-11,58.3950075 L-2.54658516e-11,20.9605011 C-2.54683309e-11,17.6227518 1.694822,14.5133639 4.5,12.7046221 Z" id="矩形" fill="#ECF4FF" transform="translate(7.000000, 40.000000) rotate(-180.000000) translate(-7.000000, -40.000000) "></path>
                    <path d="M6.57085992,38.1917626 C6.77684412,37.9611461 7.12886191,37.9353986 7.36655184,38.1315662 L7.42914994,38.1917626 L12.8729122,44.166925 C13.0568655,44.372876 13.0390327,44.6889558 12.8330818,44.8729091 C12.6500142,45.0364231 12.3799313,45.0405013 12.1929767,44.8947429 L12.1270977,44.8330786 L7.00004468,39.2109672 L1.8729122,44.8330786 C1.70939821,45.0161462 1.44148789,45.0505771 1.23932498,44.926772 L1.16692811,44.8729091 C0.98386056,44.7093951 0.949429684,44.4414848 1.07323472,44.2393219 L1.12709766,44.166925 L6.57085992,38.1917626 Z" id="下拉" fill="#4496FF" fill-rule="nonzero" transform="translate(7.000005, 41.500003) rotate(-270.000000) translate(-7.000005, -41.500003) "></path>
                </g>
            </g>
        </g>
    </g>
</svg>