<?xml version="1.0" encoding="UTF-8"?>
<svg width="20px" height="20px" viewBox="0 0 20 20" version="1.1" xmlns="http://www.w3.org/2000/svg" xmlns:xlink="http://www.w3.org/1999/xlink">
    <title>图框</title>
    <g id="页面-1" stroke="none" stroke-width="1" fill="none" fill-rule="evenodd">
        <g id="light-tab" transform="translate(-430.000000, -70.000000)">
            <g id="图框" transform="translate(430.000000, 70.000000)">
                <rect id="矩形备份-5" fill="#539FFD" opacity="0.5" x="5" y="5" width="7" height="7"></rect>
                <rect id="矩形备份-6" fill="#539FFD" opacity="0.3" x="8" y="8" width="7" height="7"></rect>
                <path d="M3,0 L3,1 L17,1 L17,0 L20,0 L20,3 L19,3 L19,17 L20,17 L20,20 L17,20 L17,19 L3,19 L3,20 L0,20 L0,17 L1,17 L1,3 L0,3 L0,0 L3,0 Z M17,2 L3,2 L3,3 L2,3 L2,17 L3,17 L3,18 L17,18 L17,17 L18,17 L18,3 L17,3 L17,2 Z" id="形状结合" fill="#A0AAB9"></path>
            </g>
        </g>
    </g>
</svg>