<?xml version="1.0" encoding="UTF-8"?>
<svg width="20px" height="14px" viewBox="0 0 20 14" version="1.1" xmlns="http://www.w3.org/2000/svg" xmlns:xlink="http://www.w3.org/1999/xlink">
    <title>灰色肩头</title>
    <g id="设计方案" stroke="none" stroke-width="1" fill="none" fill-rule="evenodd">
        <g id="图标" transform="translate(-645.000000, -80.000000)" fill="#B1B1B1" fill-rule="nonzero">
            <g id="操作功能备份" transform="translate(530.000000, 72.000000)">
                <g id="编组-8" transform="translate(64.000000, 7.000000)">
                    <g id="灰色肩头" transform="translate(61.000455, 8.000000) scale(-1, 1) translate(-61.000455, -8.000000) translate(51.000455, 1.000000)">
                        <path d="M7.27856303,8.61099246 C7.27856303,9.16327721 6.83084778,9.61099246 6.27856303,9.61099246 C6.05449912,9.61099246 5.83692703,9.53574231 5.66074147,9.3973108 L1.38313201,6.03633194 C0.948860386,5.69511852 0.873421805,5.06646367 1.21463523,4.63219205 C1.28347382,4.54457929 1.36647062,4.46908714 1.46019597,4.40883512 L5.73780543,1.65894333 C6.20237548,1.36029116 6.82108933,1.49479417 7.1197415,1.95936421 C7.22343265,2.12066155 7.27856303,2.30837018 7.27856303,2.5001218 L7.27856303,5.16845631 L15.4375367,5.16845631 C17.4057855,5.16845631 19.0013665,6.86568243 19.0013665,8.83393127 C19.0013665,10.7386882 17.4799353,12.3966715 15.5996773,12.49506 L15.410406,12.5 L12.4742358,12.5 C12.1980935,12.5 11.9742358,12.2761424 11.9742358,12 C11.9742358,11.7545401 12.151111,11.5503916 12.3843602,11.5080557 L12.4742358,11.5 L15.410406,11.5 C16.8263701,11.5 18.0013665,10.2498954 18.0013665,8.83393127 C18.0013665,7.47242734 16.9401001,6.25715026 15.5996773,6.17350033 L15.4375367,6.16845631 L7.27856303,6.16845631 L7.27856303,8.61099246 Z" id="形状结合"></path>
                    </g>
                </g>
            </g>
        </g>
    </g>
</svg>