<?xml version="1.0" encoding="UTF-8"?>
<svg width="20px" height="16px" viewBox="0 0 20 16" version="1.1" xmlns="http://www.w3.org/2000/svg" xmlns:xlink="http://www.w3.org/1999/xlink">
    <title>编组 30</title>
    <g id="设计方案" stroke="none" stroke-width="1" fill="none" fill-rule="evenodd">
        <g id="编组-29备份" transform="translate(9.999545, 8.000000) scale(-1, 1) translate(-9.999545, -8.000000) translate(-0.000455, 0.000000)" fill="#666666" fill-rule="nonzero">
            <g id="编组-30" transform="translate(0.000455, 0.500000)">
                <path d="M7.27765204,9.11099246 C7.27765204,9.66327721 6.82993679,10.1109925 6.27765204,10.1109925 C6.05358813,10.1109925 5.83601605,10.0357423 5.65983049,9.8973108 L1.38222103,6.53633194 C0.947949404,6.19511852 0.872510823,5.56646367 1.21372424,5.13219205 C1.28256284,5.04457929 1.36555964,4.96908714 1.45928499,4.90883512 L5.73689445,2.15894333 C6.2014645,1.86029116 6.82017835,1.99479417 7.11883052,2.45936421 C7.22252166,2.62066155 7.27765204,2.80837018 7.27765204,3.0001218 L7.27765204,5.66845631 L15.4366257,5.66845631 C17.4048745,5.66845631 19.0004555,7.36568243 19.0004555,9.33393127 C19.0004555,11.2386882 17.4790243,12.8966715 15.5987663,12.99506 L15.4094951,13 L12.4733249,13 C12.1971825,13 11.9733249,12.7761424 11.9733249,12.5 C11.9733249,12.2545401 12.1502,12.0503916 12.3834492,12.0080557 L12.4733249,12 L15.4094951,12 C16.8254592,12 18.0004555,10.7498954 18.0004555,9.33393127 C18.0004555,7.97242734 16.9391891,6.75715026 15.5987663,6.67350033 L15.4366257,6.66845631 L7.27765204,6.66845631 L7.27765204,9.11099246 Z" id="形状结合"></path>
            </g>
        </g>
    </g>
</svg>