<?xml version="1.0" encoding="UTF-8"?>
<svg width="16px" height="16px" viewBox="0 0 16 16" version="1.1" xmlns="http://www.w3.org/2000/svg" xmlns:xlink="http://www.w3.org/1999/xlink">
    <title>关系-灰</title>
    <g id="页面-1" stroke="none" stroke-width="1" fill="none" fill-rule="evenodd">
        <g id="web-er" transform="translate(-504.000000, -481.000000)" fill="#C5C5C5">
            <g id="编组-10" transform="translate(488.000000, 264.000000)">
                <g id="关系-灰" transform="translate(16.000000, 217.000000)">
                    <path d="M4,7 L1,7 L1,15 L4,15 L4,7 Z M5,16 L0,16 L0,6 L5,6 L5,10 L7,10 L7,5 L11,5 L11,0 L16,0 L16,10 L11,10 L11,6 L8,6 L8,11 L5,11 L5,16 Z M15,1 L12,1 L12,9 L15,9 L15,1 Z" id="形状结合" fill-rule="nonzero"></path>
                    <rect id="矩形备份-35" opacity="0.204101562" x="11" y="0" width="5" height="10"></rect>
                </g>
            </g>
        </g>
    </g>
</svg>