<?xml version="1.0" encoding="UTF-8"?>
<svg width="16px" height="16px" viewBox="0 0 16 16" version="1.1" xmlns="http://www.w3.org/2000/svg" xmlns:xlink="http://www.w3.org/1999/xlink">
    <title>Schema</title>
    <g id="页面-1" stroke="none" stroke-width="1" fill="none" fill-rule="evenodd">
        <g id="web-er" transform="translate(-504.000000, -511.000000)" fill="#539FFD">
            <g id="编组-10" transform="translate(488.000000, 264.000000)">
                <g id="Schema" transform="translate(16.000000, 247.000000)">
                    <path d="M8,0 C10.209139,0 12,1.790861 12,4 C12,5.38799308 11.2930472,6.61086849 10.2195745,7.32819345 C12.9976944,8.17043226 15,10.5546115 15,13.363961 C15,16.8786797 1,16.8786797 1,13.363961 C1,10.5546115 3.00230561,8.17043226 5.78026215,7.32662092 C4.70695276,6.61086849 4,5.38799308 4,4 C4,1.790861 5.790861,0 8,0 Z M8,8 C4.66615936,8 2,10.4239049 2,13.363961 C2,13.6441229 2.46545061,14.0447583 3.50492387,14.3927065 C4.66819192,14.7820932 6.29564928,15 8,15 C9.70435072,15 11.3318081,14.7820932 12.4950761,14.3927065 C13.5345494,14.0447583 14,13.6441229 14,13.363961 C14,10.4239049 11.3338406,8 8,8 Z M8,1 C6.34314575,1 5,2.34314575 5,4 C5,5.65685425 6.34314575,7 8,7 C9.65685425,7 11,5.65685425 11,4 C11,2.34314575 9.65685425,1 8,1 Z" id="形状结合" fill-rule="nonzero"></path>
                    <circle id="椭圆形" opacity="0.2" cx="8" cy="4" r="4"></circle>
                </g>
            </g>
        </g>
    </g>
</svg>