<?xml version="1.0" encoding="UTF-8"?>
<svg width="20px" height="20px" viewBox="0 0 20 20" version="1.1" xmlns="http://www.w3.org/2000/svg" xmlns:xlink="http://www.w3.org/1999/xlink">
    <title>筛选</title>
    <g id="页面-1" stroke="none" stroke-width="1" fill="none" fill-rule="evenodd">
        <g id="light-tab" transform="translate(-700.000000, -70.000000)">
            <g id="筛选" transform="translate(700.000000, 70.000000)">
                <path d="M12.4650389,0 L1.53587052,0 C1.27556521,0 1.01911613,0.06240815 0.790887928,0.181893388 L0.663653309,0.256298895 C0.0121592652,0.679875282 -0.201914921,1.51912804 0.212009363,2.18481214 L5.01336583,7.379 L5.01394616,15.7168274 C5.01394616,15.8540423 5.07033667,15.9852274 5.16990406,16.0796428 L9.15951282,19.8628154 L9.2257754,19.9162936 C9.54584478,20.1338767 10.0035549,19.9098074 10.0035549,19.5 L10.0033658,7.347 L13.7674449,2.21653898 C13.9270601,1.96261946 14.0003658,1.70899583 14.0003658,1.45 C14.0003658,0.639127955 13.3038328,0 12.4650389,0 Z M1.53587052,1 L12.4650389,1 C12.7698356,1 13.0003658,1.21153102 13.0003658,1.45 C13.0003658,1.52123186 12.9798727,1.5921341 12.9396838,1.65676701 L9.10040198,6.88783176 L9.05872489,6.95526823 C9.02263841,7.02557759 9.00355492,7.10379968 9.00355492,7.18358116 L9.00336583,18.337 L6.01336583,15.502 L6.01394616,7.18358116 C6.01394616,7.05754381 5.96634667,6.93615604 5.88067453,6.8437131 L1.00334589,1.58092151 C0.934293388,1.45263112 1.01093224,1.19544772 1.25470341,1.06782521 C1.33906283,1.02366018 1.43628782,1 1.53587052,1 Z" id="路径" fill="#539FFD" fill-rule="nonzero"></path>
                <path d="M1.53587052,1 L12.4650389,1 C12.7698356,1 13.0003658,1.21153102 13.0003658,1.45 C13.0003658,1.52123186 12.9798727,1.5921341 12.9396838,1.65676701 L9.10040198,6.88783176 L9.05872489,6.95526823 C9.02263841,7.02557759 9.00355492,7.10379968 9.00355492,7.18358116 L9.00336583,18.337 L6.01336583,15.502 L6.01394616,7.18358116 C6.01394616,7.05754381 5.96634667,6.93615604 5.88067453,6.8437131 L1.00334589,1.58092151 C0.934293388,1.45263112 1.01093224,1.19544772 1.25470341,1.06782521 C1.33906283,1.02366018 1.43628782,1 1.53587052,1 Z" id="路径" fill="#539FFD" fill-rule="nonzero" opacity="0.2"></path>
                <path d="M19.5003658,14 C19.7765082,14 20.0003658,14.2238576 20.0003658,14.5 C20.0003658,14.7761424 19.7765082,15 19.5003658,15 L12.5003658,15 C12.2242235,15 12.0003658,14.7761424 12.0003658,14.5 C12.0003658,14.2238576 12.2242235,14 12.5003658,14 L19.5003658,14 Z M19.5003658,11 C19.7765082,11 20.0003658,11.2238576 20.0003658,11.5 C20.0003658,11.7761424 19.7765082,12 19.5003658,12 L12.5003658,12 C12.2242235,12 12.0003658,11.7761424 12.0003658,11.5 C12.0003658,11.2238576 12.2242235,11 12.5003658,11 L19.5003658,11 Z M19.5003658,8 C19.7765082,8 20.0003658,8.22385763 20.0003658,8.5 C20.0003658,8.77614237 19.7765082,9 19.5003658,9 L12.5003658,9 C12.2242235,9 12.0003658,8.77614237 12.0003658,8.5 C12.0003658,8.22385763 12.2242235,8 12.5003658,8 L19.5003658,8 Z" id="形状结合" fill="#A0AAB9"></path>
            </g>
        </g>
    </g>
</svg>