<?xml version="1.0" encoding="UTF-8"?>
<svg width="16px" height="16px" viewBox="0 0 16 16" version="1.1" xmlns="http://www.w3.org/2000/svg" xmlns:xlink="http://www.w3.org/1999/xlink">
    <title>表-灰</title>
    <g id="页面-1" stroke="none" stroke-width="1" fill="none" fill-rule="evenodd">
        <g id="web-er" transform="translate(-504.000000, -301.000000)" fill="#C5C5C5">
            <g id="编组-10" transform="translate(488.000000, 264.000000)">
                <g id="表-灰" transform="translate(16.000000, 37.000000)">
                    <path d="M16,16 L0,16 L0,0 L16,0 L16,16 Z M7.5,11 L1,11 L1,15 L7.5,15 L7.5,11 Z M15,11 L8.5,11 L8.5,15 L15,15 L15,11 Z M7.5,6 L1,6 L1,10 L7.5,10 L7.5,6 Z M15,6 L8.5,6 L8.5,10 L15,10 L15,6 Z M15,1 L1,1 L1,5 L15,5 L15,1 Z" id="形状结合"></path>
                    <rect id="矩形备份-19" opacity="0.198800223" x="0" y="0" width="16" height="6"></rect>
                </g>
            </g>
        </g>
    </g>
</svg>