<?xml version="1.0" encoding="UTF-8"?>
<svg width="16px" height="16px" viewBox="0 0 16 16" version="1.1" xmlns="http://www.w3.org/2000/svg" xmlns:xlink="http://www.w3.org/1999/xlink">
    <title>样式</title>
    <g id="页面-1" stroke="none" stroke-width="1" fill="none" fill-rule="evenodd">
        <g id="web-er" transform="translate(-505.000000, -572.000000)" stroke="#539FFD">
            <g id="编组-10" transform="translate(488.000000, 264.000000)">
                <g id="样式" transform="translate(17.000000, 308.000000)">
                    <path d="M5,0.5 C5.41421356,0.5 5.78921356,0.667893219 6.06066017,0.939339828 C6.33210678,1.21078644 6.5,1.58578644 6.5,2 L6.5,2 L6.5,6.5 L2,6.5 C1.58578644,6.5 1.21078644,6.33210678 0.939339828,6.06066017 C0.667893219,5.78921356 0.5,5.41421356 0.5,5 L0.5,5 L0.5,2 C0.5,1.58578644 0.667893219,1.21078644 0.939339828,0.939339828 C1.21078644,0.667893219 1.58578644,0.5 2,0.5 L2,0.5 Z" id="矩形"></path>
                    <path d="M6.5,9.5 L6.5,14 C6.5,14.4142136 6.33210678,14.7892136 6.06066017,15.0606602 C5.78921356,15.3321068 5.41421356,15.5 5,15.5 L5,15.5 L2,15.5 C1.58578644,15.5 1.21078644,15.3321068 0.939339828,15.0606602 C0.667893219,14.7892136 0.5,14.4142136 0.5,14 L0.5,14 L0.5,11 C0.5,10.5857864 0.667893219,10.2107864 0.939339828,9.93933983 C1.21078644,9.66789322 1.58578644,9.5 2,9.5 L2,9.5 L6.5,9.5 Z" id="矩形备份-11" fill-opacity="0.2" fill="#539FFD"></path>
                    <path d="M14,0.5 C14.4142136,0.5 14.7892136,0.667893219 15.0606602,0.939339828 C15.3321068,1.21078644 15.5,1.58578644 15.5,2 L15.5,2 L15.5,5 C15.5,5.41421356 15.3321068,5.78921356 15.0606602,6.06066017 C14.7892136,6.33210678 14.4142136,6.5 14,6.5 L14,6.5 L9.5,6.5 L9.5,2 C9.5,1.58578644 9.66789322,1.21078644 9.93933983,0.939339828 C10.2107864,0.667893219 10.5857864,0.5 11,0.5 L11,0.5 Z" id="矩形备份-10" fill-opacity="0.2" fill="#539FFD"></path>
                    <path d="M14,9.5 C14.4142136,9.5 14.7892136,9.66789322 15.0606602,9.93933983 C15.3321068,10.2107864 15.5,10.5857864 15.5,11 L15.5,11 L15.5,14 C15.5,14.4142136 15.3321068,14.7892136 15.0606602,15.0606602 C14.7892136,15.3321068 14.4142136,15.5 14,15.5 L14,15.5 L11,15.5 C10.5857864,15.5 10.2107864,15.3321068 9.93933983,15.0606602 C9.66789322,14.7892136 9.5,14.4142136 9.5,14 L9.5,14 L9.5,9.5 Z" id="矩形备份-12"></path>
                </g>
            </g>
        </g>
    </g>
</svg>