<?xml version="1.0" encoding="UTF-8"?>
<svg width="16px" height="16px" viewBox="0 0 16 16" version="1.1" xmlns="http://www.w3.org/2000/svg" xmlns:xlink="http://www.w3.org/1999/xlink">
    <title>视图</title>
    <g id="页面-1" stroke="none" stroke-width="1" fill="none" fill-rule="evenodd">
        <g id="web-er" transform="translate(-504.000000, -331.000000)">
            <g id="编组-10" transform="translate(488.000000, 264.000000)">
                <g id="视图" transform="translate(16.000000, 67.000000)">
                    <path d="M8,6.00080078 C10.1710504,6.00080078 11.2823364,6.6321569 12.3084673,7.63813275 L12.6308147,7.96796262 L12.9543213,8.3209013 L13.8129179,9.29255834 C13.8741883,9.36115166 13.9365016,9.43044583 14,9.50040342 L13.1946504,10.4588762 C13.142406,10.5198461 13.0902579,10.5801468 13.0380903,10.6397283 L12.7239266,10.9881855 C11.617059,12.1747731 10.399582,13 8,13 C5.60041798,13 4.42356948,12.2391509 3.30969696,11.0414637 L2.99215946,10.6876605 L2.50913014,10.116054 L2,9.50040342 L2.5168849,8.94840918 L2.99253307,8.44969188 L3.43467832,8.00257291 C4.8612507,6.5963085 5.85833777,6.02203976 7.71490733,6 L8,6.00080078 Z M7.71144075,7.16677212 L7.5773696,7.16835655 C6.36229915,7.19870525 5.66296984,7.5081686 4.46849851,8.64973291 L4.07365897,9.03853174 L3.5792,9.54750688 L4.03492799,10.0778103 C5.2007494,11.3840196 6.10450814,11.833223 8,11.833223 C9.8372049,11.833223 10.7668907,11.3798134 11.9585527,10.0692348 L12.2566063,9.72992555 L12.4328,9.52067101 L11.7687589,8.78120874 L11.6957181,8.70304434 C10.6728866,7.62921737 9.86482321,7.21657528 8.29920234,7.17174076 L7.71144075,7.16677212 Z M8,8 C8.82842712,8 9.5,8.67157288 9.5,9.5 C9.5,10.3284271 8.82842712,11 8,11 C7.17157288,11 6.5,10.3284271 6.5,9.5 C6.5,8.67157288 7.17157288,8 8,8 Z M16,0 L16,5 L0,5 L0,0 L16,0 Z M15,1 L1,1 L1,4 L15,4 L15,1 Z" id="形状结合" fill="#539FFD" fill-rule="nonzero"></path>
                    <path d="M0,16 L0,5 L1,5 L1,15 L15,15 L15,5 L16,5 L16,16 L0,16 Z" id="形状结合" fill="#A0AAB9"></path>
                    <rect id="矩形备份-19" fill-opacity="0.2" fill="#539FFD" x="1" y="1" width="14" height="3"></rect>
                </g>
            </g>
        </g>
    </g>
</svg>