<?xml version="1.0" encoding="UTF-8"?>
<svg width="20px" height="20px" viewBox="0 0 20 20" version="1.1" xmlns="http://www.w3.org/2000/svg" xmlns:xlink="http://www.w3.org/1999/xlink">
    <title>虚拟</title>
    <g id="页面-1" stroke="none" stroke-width="1" fill="none" fill-rule="evenodd">
        <g id="light-tab" transform="translate(-595.000000, -70.000000)" fill="#A0AAB9">
            <g id="虚拟" transform="translate(595.000000, 70.000000)">
                <path d="M20,13 L20,20 L15,20 L15,17 L13,17 L13,16 L15,16 L15,13 L20,13 Z M19,14 L16,14 L16,19 L19,19 L19,14 Z M11,15 L11,16 L12,16 L12,17 L10,17 L10,15 L11,15 Z M11,11 L11,13 L10,13 L10,11 L11,11 Z M11,7 L11,9 L10,9 L10,7 L11,7 Z M4,1 L1,1 L1,6 L4,6 L4,1 Z M11,3 L11,5 L10,5 L10,4 L9,4 L9,3 L11,3 Z M5,7 L0,7 L0,0 L5,0 L5,3 L7,3 L7,4 L5,4 L5,7 Z" id="形状结合"></path>
            </g>
        </g>
    </g>
</svg>