<?xml version="1.0" standalone="no"?><!DOCTYPE svg PUBLIC "-//W3C//DTD SVG 1.1//EN" "http://www.w3.org/Graphics/SVG/1.1/DTD/svg11.dtd"><svg class="icon" width="200px" height="200.00px" viewBox="0 0 1024 1024" version="1.1" xmlns="http://www.w3.org/2000/svg"><path d="M987.456 658.304c20.16 0 36.544 16.384 36.544 36.544V960a64 64 0 0 1-64 64H64a64 64 0 0 1-64-64v-265.152a36.544 36.544 0 1 1 73.152 0v256h877.696v-256c0-20.16 16.384-36.544 36.608-36.544zM512 0c20.224 0 36.544 16.384 36.544 36.544v631.168l144.448-145.024a36.608 36.608 0 0 1 46.72-4.224l5.056 4.224c12.672 12.736 14.08 32.448 4.224 46.72l-4.224 4.992-227.584 228.352a7.296 7.296 0 0 1-10.368 0L279.232 574.4a36.544 36.544 0 0 1 46.72-55.936l5.056 4.224 144.384 145.024V36.544C475.456 16.384 491.84 0 512 0z" /></svg>