<?xml version="1.0" encoding="utf-8"?>
<!-- Generator: Adobe Illustrator 23.1.1, SVG Export Plug-In . SVG Version: 6.00 Build 0)  -->
<svg version="1.1" id="图层_1" xmlns="http://www.w3.org/2000/svg" xmlns:xlink="http://www.w3.org/1999/xlink" x="0px" y="0px"
	 viewBox="0 0 16 14" style="enable-background:new 0 0 16 14;" xml:space="preserve">
<style type="text/css">
	.st0{fill:#7D8493;}
</style>
<g>
	<path class="st0" d="M1,0h14c0.6,0,1,0.4,1,1l0,0c0,0.6-0.4,1-1,1H1C0.4,2,0,1.6,0,1l0,0C0,0.4,0.4,0,1,0z"/>
	<path class="st0" d="M1,12h14c0.6,0,1,0.4,1,1l0,0c0,0.6-0.4,1-1,1H1c-0.6,0-1-0.4-1-1l0,0C0,12.4,0.4,12,1,12z"/>
	<path class="st0" d="M9,6h6c0.6,0,1,0.4,1,1l0,0c0,0.6-0.4,1-1,1H9C8.4,8,8,7.6,8,7l0,0C8,6.4,8.4,6,9,6z"/>
	<path class="st0" d="M5.5,6.1C6,6.4,6.1,7,5.9,7.5C5.8,7.7,5.6,7.8,5.5,7.9l-4,2.3C1,10.4,0.4,10.3,0.1,9.8C0,9.6,0,9.5,0,9.3V4.7
		c0-0.6,0.4-1,1-1c0.2,0,0.3,0,0.5,0.1L5.5,6.1z"/>
</g>
</svg>
