<svg xmlns="http://www.w3.org/2000/svg" width="16.061" height="15.954" viewBox="0 0 16.061 15.954">
  <g id="版本" transform="translate(0.047 0.003)">
    <path id="路径_2581" data-name="路径 2581" d="M8.91.26l6.82,3.18a.64.64,0,0,1,.23.79c0,.12-.12.23-.23.34L8.91,7.76a1.56,1.56,0,0,1-1.71,0L.39,4.57a.48.48,0,0,1-.23-.79c0-.11.11-.23.23-.34L7.2.26a1.52,1.52,0,0,1,1.71,0Z" fill="#999"/>
    <path id="路径_2582" data-name="路径 2582" d="M15.27,7.42a.51.51,0,0,1,.69.34.89.89,0,0,1-.23.91L9.14,11.62a2.06,2.06,0,0,1-2.28,0L.27,8.55A.64.64,0,0,1,0,7.76a.51.51,0,0,1,.69-.34l6.59,3.07a1.48,1.48,0,0,0,1.36,0Z" fill="#999"/>
    <path id="路径_2583" data-name="路径 2583" d="M15.27,11.39a.52.52,0,0,1,.69.35.87.87,0,0,1-.23.9l-6.59,3A1.9,1.9,0,0,1,7,15.6L.39,12.53A.58.58,0,0,1,0,11.74a.52.52,0,0,1,.69-.35l6.59,3.07a1.43,1.43,0,0,0,1.36,0Z" fill="#999"/>
  </g>
</svg>
