<svg id="认证" xmlns="http://www.w3.org/2000/svg" width="70" height="26" viewBox="0 0 70 26">
  <path id="矩形_17794" data-name="矩形 17794" d="M0,0H48A10,10,0,0,1,58,10v0A10,10,0,0,1,48,20H0a0,0,0,0,1,0,0V0A0,0,0,0,1,0,0Z" transform="translate(12 3)" fill="#e6e6e6"/>
  <text id="未认证" transform="translate(22 18)" fill="#7d8493" font-size="12" font-family="SourceHanSansCN-Medium, Source Han Sans CN" font-weight="500"><tspan x="0" y="0">未认证</tspan></text>
  <g id="徽章" transform="translate(-407 -680)">
    <path id="路径_4090" data-name="路径 4090" d="M0,0H13V14L6.742,9.693,0,14Z" transform="translate(409.6 692)" fill="#c8cbd3"/>
    <path id="路径_4089" data-name="路径 4089" d="M268.287,31.628l2.422,1.909,3.14-.19.78,2.9,2.658,1.6-1.161,2.781,1.161,2.781-2.658,1.6-.78,2.9-3.14-.191-2.422,1.909-2.422-1.909-3.14.191-.78-2.9-2.658-1.6,1.161-2.781-1.161-2.781,2.658-1.6.78-2.9,3.14.19Z" transform="translate(147.713 648.372)" fill="#afb4bf" fill-rule="evenodd"/>
    <circle id="椭圆_1746" data-name="椭圆 1746" cx="5" cy="5" r="5" transform="translate(411 684)" fill="#dadbde"/>
  </g>
</svg>
