<?xml version="1.0" encoding="UTF-8"?>
<svg width="32px" height="32px" viewBox="0 0 32 32" version="1.1" xmlns="http://www.w3.org/2000/svg" xmlns:xlink="http://www.w3.org/1999/xlink">
    <title>编组 9</title>
    <g id="检核任务" stroke="none" stroke-width="1" fill="none" fill-rule="evenodd">
        <g id="检核任务-列表备份" transform="translate(-892.000000, -210.000000)" fill="#E6AD00">
            <g id="任务统计" transform="translate(402.000000, 156.000000)">
                <g id="发现问题-颜色" transform="translate(466.000000, 30.000000)">
                    <g id="编组-9" transform="translate(24.000000, 24.000000)">
                        <circle id="椭圆形" opacity="0.185523624" cx="16" cy="18" r="7"></circle>
                        <path d="M27.714,0 C28.976,0 30,1.024 30,2.286 L30,29.714 C30,30.976 28.976,32 27.714,32 L4.286,32 C3.02347706,32 2,30.9765229 2,29.714 L2,2.286 C2,1.024 3.024,0 4.286,0 L27.714,0 Z M7.332,2.284 L4.286,2.284 L4.286,29.714 L27.714,29.714 L27.714,2.286 L24.666,2.284 L23.664,5.294 C23.3532344,6.22758355 22.4799478,6.85757441 21.496,6.858 L10.504,6.858 C9.52,6.858 8.648,6.228 8.336,5.294 L7.332,2.284 Z M15.8777293,20.0786026 C16.2620087,20.0786026 16.5938865,20.2008734 16.8558952,20.4454148 C17.1004367,20.6899563 17.2401747,21.0043668 17.2401747,21.3886463 C17.2401747,21.7729258 17.1004367,22.1048035 16.8384279,22.349345 C16.5764192,22.5938865 16.2620087,22.7161572 15.8777293,22.7161572 C15.4934498,22.7161572 15.1790393,22.5764192 14.9170306,22.3318777 C14.6550218,22.0873362 14.5327511,21.7729258 14.5327511,21.3886463 C14.5327511,21.0043668 14.6550218,20.6899563 14.9170306,20.4454148 C15.1790393,20.2008734 15.4934498,20.0786026 15.8777293,20.0786026 Z M16.1921397,10 C17.3275109,10 18.2532751,10.2969432 18.9519651,10.9257642 C19.650655,11.5371179 20,12.3755459 20,13.441048 C20,14.3144105 19.7729258,15.0305677 19.3537118,15.5895197 C19.1965066,15.7641921 18.6899563,16.2358079 17.8515284,16.9694323 C17.5371179,17.231441 17.3100437,17.5283843 17.1528384,17.8427948 C16.9781659,18.1921397 16.8908297,18.558952 16.8908297,18.9781659 L16.8908297,18.9781659 L16.8908297,19.2227074 L14.8820961,19.2227074 L14.8820961,18.9781659 C14.8820961,18.3144105 14.9868996,17.7379913 15.231441,17.2663755 C15.4585153,16.7947598 16.139738,16.0611354 17.2751092,15.0480349 L17.2751092,15.0480349 L17.4847162,14.8034934 C17.7991266,14.419214 17.9563319,14 17.9563319,13.5633188 C17.9563319,12.9868996 17.7816594,12.5327511 17.4672489,12.2008734 C17.1353712,11.8689956 16.6637555,11.7117904 16.069869,11.7117904 C15.30131,11.7117904 14.7598253,11.9388646 14.4279476,12.4279476 C14.1310044,12.8296943 13.9912664,13.4061135 13.9912664,14.139738 L13.9912664,14.139738 L12,14.139738 C12,12.8471616 12.3668122,11.8340611 13.1353712,11.1004367 C13.8864629,10.3668122 14.8995633,10 16.1921397,10 Z M22.256,2.286 L9.742,2.286 L10.504,4.572 L21.496,4.572 L22.256,2.286 Z" id="形状结合" fill-rule="nonzero"></path>
                    </g>
                </g>
            </g>
        </g>
    </g>
</svg>