<?xml version="1.0" encoding="UTF-8"?>
<svg width="24px" height="24px" viewBox="0 0 24 24" version="1.1" xmlns="http://www.w3.org/2000/svg" xmlns:xlink="http://www.w3.org/1999/xlink">
    <title>布尔值</title>
    <g id="数据集-表" stroke="none" stroke-width="1" fill="none" fill-rule="evenodd">
        <g id="数据集-表-字段信息tab备份" transform="translate(-1074.000000, -412.000000)" fill="#CB7ADE">
            <g id="布尔值" transform="translate(1074.000000, 412.000000)">
                <path d="M9.71428571,4 C12.5126682,4 14.8412312,6.01153686 15.3329169,8.66755299 C17.9884631,9.15876883 20,11.4873318 20,14.2857143 C20,17.4416271 17.4416271,20 14.2857143,20 C11.4873318,20 9.15876883,17.9884631 8.66708311,15.332447 C6.01153686,14.8412312 4,12.5126682 4,9.71428571 C4,6.55837286 6.55837286,4 9.71428571,4 Z M15.4259741,9.857638 L15.4285714,9.71428571 C15.4285714,12.8219399 12.947843,15.350189 9.8586354,15.4267838 C10.3642116,17.3989801 12.1546768,18.8571429 14.2857143,18.8571429 C16.8104446,18.8571429 18.8571429,16.8104446 18.8571429,14.2857143 C18.8571429,12.1546768 17.3989801,10.3642116 15.4259741,9.857638 Z M14.2857143,9.71428571 C11.8331192,9.71428571 9.83163013,11.6457006 9.71926145,14.0705161 L9.71428571,14.2857143 L9.71428571,14.2857143 C12.1668808,14.2857143 14.1683699,12.3542994 14.2807386,9.92948389 L14.2857143,9.71428571 L14.2857143,9.71428571 Z M9.71428571,5.14285714 C7.18955543,5.14285714 5.14285714,7.18955543 5.14285714,9.71428571 C5.14285714,11.8453232 6.60101992,13.6357884 8.57402593,14.142362 L8.57142857,14.2857143 C8.57142857,11.1780601 11.052157,8.64981098 14.1413646,8.57321623 C13.6357884,6.60101992 11.8453232,5.14285714 9.71428571,5.14285714 Z" id="ic-data-boolean" fill-rule="nonzero"></path>
                <rect id="矩形" fill-opacity="0.1" x="0" y="0" width="24" height="24" rx="2"></rect>
            </g>
        </g>
    </g>
</svg>