<?xml version="1.0" encoding="UTF-8"?>
<svg width="24px" height="24px" viewBox="0 0 24 24" version="1.1" xmlns="http://www.w3.org/2000/svg" xmlns:xlink="http://www.w3.org/1999/xlink">
    <title>文件</title>
    <g id="数据集-表" stroke="none" stroke-width="1" fill="none" fill-rule="evenodd">
        <g id="数据集-表-字段信息tab备份" transform="translate(-1154.000000, -412.000000)" fill="#E3BC37">
            <g id="文件" transform="translate(1154.000000, 412.000000)">
                <rect id="矩形" fill-opacity="0.1" x="0" y="0" width="24" height="24" rx="2"></rect>
                <g id="file" transform="translate(4.000000, 5.000000)" fill-rule="nonzero">
                    <path d="M16,12.857 C16,13.488 15.488,14 14.857,14 L1.143,14 C0.511738531,14 0,13.4882615 0,12.857 L0,1.143 C0,0.512 0.512,0 1.143,0 L5.517,0 C5.639,0 5.752,0.065 5.814,0.17 L6.857,1.96 L14.857,1.96 C15.488,1.96 16,2.47 16,3.102 L16,12.857 L16,12.857 Z M14.857,6.142 L1.142,6.142 L1.142,12.857 L14.857,12.857 L14.857,6.142 Z M5.057,1.142 L1.143,1.142 L1.142,5 L14.857,5 L14.857,3.102 L6.201,3.102 L5.057,1.142 L5.057,1.142 Z" id="形状"></path>
                </g>
            </g>
        </g>
    </g>
</svg>