<?xml version="1.0" encoding="UTF-8"?>
<svg width="24px" height="24px" viewBox="0 0 24 24" version="1.1" xmlns="http://www.w3.org/2000/svg" xmlns:xlink="http://www.w3.org/1999/xlink">
    <title>编组</title>
    <g id="数据集-表" stroke="none" stroke-width="1" fill="none" fill-rule="evenodd">
        <g id="数据集-表-采样数据" transform="translate(-380.000000, -424.000000)" fill="#999999">
            <g id="编组" transform="translate(380.000000, 424.000000)">
                <rect id="矩形备份-2" opacity="0.1" x="0" y="0" width="24" height="24" rx="2"></rect>
                <path d="M11.4615385,12.5384615 L11.4615385,15.7692308 C11.4615385,17.5535353 10.0150738,19 8.23076923,19 C6.44646465,19 5,17.5535353 5,15.7692308 C5,13.9849262 6.44646465,12.5384615 8.23076923,12.5384615 L11.4615385,12.5384615 Z M15.7692308,12.5384615 C17.5535353,12.5384615 19,13.9849262 19,15.7692308 C19,17.5535353 17.5535353,19 15.7692308,19 C13.9849262,19 12.5384615,17.5535353 12.5384615,15.7692308 L12.5384615,12.5384615 L15.7692308,12.5384615 Z M10.3846154,13.6153846 L8.23076923,13.6153846 C7.04123285,13.6153846 6.07692308,14.5796944 6.07692308,15.7692308 C6.07692308,16.9587672 7.04123285,17.9230769 8.23076923,17.9230769 C9.36623578,17.9230769 10.2964855,17.0444393 10.3787077,15.9299748 L10.3846154,15.7692308 L10.3846154,13.6153846 Z M15.7692308,13.6153846 L13.6153846,13.6153846 L13.6153846,15.7692308 C13.6153846,16.9587672 14.5796944,17.9230769 15.7692308,17.9230769 C16.9587672,17.9230769 17.9230769,16.9587672 17.9230769,15.7692308 C17.9230769,14.6337642 17.0444393,13.7035145 15.9299748,13.6212923 L15.7692308,13.6153846 Z M8.23076923,5 C10.0150738,5 11.4615385,6.44646465 11.4615385,8.23076923 L11.4615385,11.4615385 L8.23076923,11.4615385 C6.44646465,11.4615385 5,10.0150738 5,8.23076923 C5,6.44646465 6.44646465,5 8.23076923,5 Z M15.7692308,5 C17.5535353,5 19,6.44646465 19,8.23076923 C19,10.0150738 17.5535353,11.4615385 15.7692308,11.4615385 L12.5384615,11.4615385 L12.5384615,8.23076923 C12.5384615,6.44646465 13.9849262,5 15.7692308,5 Z M8.23076923,6.07692308 C7.04123285,6.07692308 6.07692308,7.04123285 6.07692308,8.23076923 C6.07692308,9.36623578 6.9555607,10.2964855 8.07002517,10.3787077 L8.23076923,10.3846154 L10.3846154,10.3846154 L10.3846154,8.23076923 C10.3846154,7.15207601 9.59164493,6.25859096 8.55683391,6.10144397 L8.39151329,6.08283079 L8.23076923,6.07692308 Z M15.7692308,6.07692308 C14.6337642,6.07692308 13.7035145,6.9555607 13.6212923,8.07002517 L13.6153846,8.23076923 L13.6153846,10.3846154 L15.7692308,10.3846154 C16.9046973,10.3846154 17.8349471,9.50597776 17.9171692,8.39151329 L17.9230769,8.23076923 C17.9230769,7.04123285 16.9587672,6.07692308 15.7692308,6.07692308 Z" id="形状结合" fill-rule="nonzero"></path>
                <path d="M13.6153846,15.7692308 C13.6153846,16.9587672 14.5796944,17.9230769 15.7692308,17.9230769 C16.9587672,17.9230769 17.9230769,16.9587672 17.9230769,15.7692308 C17.9230769,14.6337642 17.0444393,13.7035145 15.9299748,13.6212923 L15.7692308,13.6153846 L13.6153846,13.6153846 L13.6153846,15.7692308 Z" id="路径" fill-rule="nonzero" opacity="0.5"></path>
                <path d="M8.39151329,6.08283079 L8.23076923,6.07692308 C7.04123285,6.07692308 6.07692308,7.04123285 6.07692308,8.23076923 C6.07692308,9.36623578 6.9555607,10.2964855 8.07002517,10.3787077 L8.23076923,10.3846154 L10.3846154,10.3846154 L10.3846154,8.23076923 C10.3846154,7.15207601 9.59164493,6.25859096 8.55683391,6.10144397 L8.39151329,6.08283079 Z" id="路径" fill-rule="nonzero" opacity="0.497372582"></path>
            </g>
        </g>
    </g>
</svg>