<svg xmlns="http://www.w3.org/2000/svg" viewBox="0 0 28 28"><defs><style>.cls-1{fill:#eaf1fb;}.cls-2{fill:#6ca3fe;}</style></defs><title>计划</title><g id="图层_2" data-name="图层 2"><g id="图层_1-2" data-name="图层 1"><g id="计划"><circle class="cls-1" cx="14" cy="14" r="14"/><path class="cls-2" d="M17.91,14.62a3.29,3.29,0,0,1,1.26.25,3.45,3.45,0,0,1,1,.69,3.25,3.25,0,0,1,0,4.56,3.24,3.24,0,0,1-3.53.69,3,3,0,0,1-1-.69,3.31,3.31,0,0,1-.7-1,3.3,3.3,0,0,1,0-2.52,3.31,3.31,0,0,1,1.72-1.71,3.27,3.27,0,0,1,1.24-.25Zm1.45,4.23a.3.3,0,0,0,.24-.15.66.66,0,0,0,0-.7.3.3,0,0,0-.24-.15H18V16.57a.26.26,0,0,0-.12-.21.57.57,0,0,0-.34-.09.5.5,0,0,0-.33.09.25.25,0,0,0-.11.21v1.88a.31.31,0,0,0,.07.25.29.29,0,0,0,.23.15Z"/><path class="cls-2" d="M13.49,17.84a4.77,4.77,0,0,1,.15-1.08H10.32a.89.89,0,0,1-.65-.27.85.85,0,0,1-.27-.64.92.92,0,0,1,.92-.92h4.29a4.4,4.4,0,0,1,3.3-1.51,4.48,4.48,0,0,1,.64.07V8.94a2,2,0,0,0-2-2h-7a2,2,0,0,0-2,2v9.75a2,2,0,0,0,2,2h5A4.37,4.37,0,0,1,13.49,17.84ZM9.67,11.22a.89.89,0,0,1,.65-.27h5.49a.87.87,0,0,1,.64.27.88.88,0,0,1,.26.65.89.89,0,0,1-.9.91H10.32a.92.92,0,0,1-.65-.26.88.88,0,0,1-.27-.65A.89.89,0,0,1,9.67,11.22Z"/></g></g></g></svg>