<?xml version="1.0" encoding="UTF-8"?>
<svg width="24px" height="24px" viewBox="0 0 24 24" version="1.1" xmlns="http://www.w3.org/2000/svg" xmlns:xlink="http://www.w3.org/1999/xlink">
    <title>新建映射</title>
    <g id="模型编辑" stroke="none" stroke-width="1" fill="none" fill-rule="evenodd">
        <g id="新建映射" transform="translate(-0.003503, 0.000000)">
            <circle id="椭圆形" fill-opacity="0.2" fill="#409EFF" cx="20.0035034" cy="4" r="4"></circle>
            <path d="M20.0035034,0 C22.2126424,0 24.0035034,1.790861 24.0035034,4 C24.0035034,6.209139 22.2126424,8 20.0035034,8 C19.0851629,8 18.2391038,7.69052666 17.563927,7.17018082 L11.2253101,13.2981877 L10.5302318,12.5792537 L16.8539749,6.46614305 C16.3211756,5.78665501 16.0035034,4.93042566 16.0035034,4 C16.0035034,1.790861 17.7943644,0 20.0035034,0 Z M20.0035034,1 C18.3466492,1 17.0035034,2.34314575 17.0035034,4 C17.0035034,5.65685425 18.3466492,7 20.0035034,7 C21.6603577,7 23.0035034,5.65685425 23.0035034,4 C23.0035034,2.34314575 21.6603577,1 20.0035034,1 Z" id="形状结合" fill="#409EFF" fill-rule="nonzero"></path>
            <path d="M7.00350342,2 C8.66035767,2 10.0035034,3.34314575 10.0035034,5 C10.0035034,6.65685425 8.66035767,8 7.00350342,8 C5.34664917,8 4.00350342,6.65685425 4.00350342,5 C4.00350342,3.34314575 5.34664917,2 7.00350342,2 Z M7.00350342,3 C5.89893392,3 5.00350342,3.8954305 5.00350342,5 C5.00350342,6.1045695 5.89893392,7 7.00350342,7 C8.10807292,7 9.00350342,6.1045695 9.00350342,5 C9.00350342,3.8954305 8.10807292,3 7.00350342,3 Z M5.21153643,19.0297904 C5.39832442,19.2331739 5.38487109,19.5494705 5.18148756,19.7362584 L1.62727798,23 L23.5035034,23.0008125 C23.7489633,23.0008125 23.9531118,23.1776877 23.9954477,23.4109369 L24.0035095,23.5008125 C24.0035095,23.7769549 23.7796458,24.0008125 23.5035034,24.0008125 L0.6,24.0008125 C0.26862915,24.0008125 0,23.7321833 0,23.4008125 C0,23.2328255 0.070423251,23.072532 0.194148507,22.9589024 L4.50506841,18.9997416 C4.70845193,18.8129536 5.02474844,18.8264069 5.21153643,19.0297904 Z M8.00350342,11 C10.2126424,11 12.0035034,12.790861 12.0035034,15 C12.0035034,17.209139 10.2126424,19 8.00350342,19 C5.79436442,19 4.00350342,17.209139 4.00350342,15 C4.00350342,12.790861 5.79436442,11 8.00350342,11 Z M20.0035034,12 C21.6603577,12 23.0035034,13.3431458 23.0035034,15 C23.0035034,16.6568542 21.6603577,18 20.0035034,18 C18.3466492,18 17.0035034,16.6568542 17.0035034,15 C17.0035034,13.3431458 18.3466492,12 20.0035034,12 Z M8.00350342,12 C6.34664917,12 5.00350342,13.3431458 5.00350342,15 C5.00350342,16.6568542 6.34664917,18 8.00350342,18 C9.66035767,18 11.0035034,16.6568542 11.0035034,15 C11.0035034,13.3431458 9.66035767,12 8.00350342,12 Z M20.0035034,13 C18.8989339,13 18.0035034,13.8954305 18.0035034,15 C18.0035034,16.1045695 18.8989339,17 20.0035034,17 C21.1080729,17 22.0035034,16.1045695 22.0035034,15 C22.0035034,13.8954305 21.1080729,13 20.0035034,13 Z" id="形状结合" fill="#999999" fill-rule="nonzero"></path>
        </g>
    </g>
</svg>