<?xml version="1.0" encoding="UTF-8"?>
<svg width="24px" height="24px" viewBox="0 0 24 24" version="1.1" xmlns="http://www.w3.org/2000/svg" xmlns:xlink="http://www.w3.org/1999/xlink">
    <title>数据权属</title>
    <g id="dam-icon" stroke="none" stroke-width="1" fill="none" fill-rule="evenodd">
        <g id="资产icon" transform="translate(-1292.000000, -362.000000)" fill="#409EFF">
            <g id="数据权属" transform="translate(1292.000000, 362.000000)">
                <circle id="椭圆形" opacity="0.1" cx="12" cy="12" r="12"></circle>
                <g id="编组" transform="translate(5.000000, 4.000000)">
                    <path d="M11.9853698,6.3278907 C11.9987849,6.43175329 11.9957841,6.53707718 11.9764771,6.64000889 C11.9533133,6.76920618 11.9160376,6.89547492 11.8653186,7.01655004 C11.8192039,7.13702443 11.7587434,7.25151383 11.6852418,7.35754748 C11.6253146,7.44681293 11.5444011,7.52003739 11.4495858,7.57080973 C11.3813522,7.60891007 11.3053152,7.63094405 11.2272687,7.6352327 C11.1536868,7.63372548 11.0808453,7.62021877 11.0116212,7.59524603 C10.9243175,7.56809012 10.8351564,7.54730168 10.7448407,7.53304454 C10.6346406,7.51456035 10.5223946,7.5115694 10.4113652,7.52415861 C10.297768,7.53448534 10.1858145,7.55835062 10.0778896,7.59524603 C9.96851253,7.62941353 9.87077121,7.69324319 9.79554699,7.77962901 C9.63011883,7.94475004 9.52517508,8.16073865 9.49764215,8.39275797 C9.46849865,8.61615141 9.50277928,8.84323236 9.59657324,9.04809508 C9.66942353,9.18523646 9.65822604,9.35178014 9.56767202,9.47795179 C9.50974271,9.54833918 9.4406476,9.60875148 9.36314035,9.65678107 C9.26527361,9.72038298 9.1622822,9.77574061 9.05523125,9.82228146 C8.9428226,9.87386669 8.82551893,9.91405454 8.70508191,9.94224148 C8.59969604,9.96938902 8.49152775,9.98429745 8.3827222,9.98667111 C8.31442936,9.98562348 8.24900121,9.95907587 8.19931064,9.91225147 C8.14617612,9.86974662 8.10547543,9.81372976 8.08148261,9.75008331 L8.06925518,9.75008331 C7.98831962,9.52649325 7.84900282,9.32860657 7.66574975,9.17694102 C7.48233447,9.01937669 7.24730565,8.93476732 7.00546814,8.93924247 C6.76339626,8.94052616 6.5297011,9.02794761 6.34629812,9.18582695 C6.15960163,9.33226971 6.01722597,9.52759917 5.9350116,9.75008331 C5.90499424,9.82984217 5.84849021,9.89688974 5.77494333,9.94001999 C5.7018285,9.97934774 5.62009903,10 5.5370641,10 C5.42398586,9.99854323 5.31169472,9.98096431 5.20358854,9.94779518 C5.07673983,9.91294324 4.95264478,9.86876332 4.83231908,9.81561702 C4.7146151,9.76589194 4.60277656,9.70330993 4.49884352,9.62901255 C4.41301469,9.57078442 4.33781846,9.49827518 4.27652648,9.41463956 C4.23949349,9.36306461 4.21895457,9.30149465 4.21761247,9.23803177 C4.22189345,9.13812558 4.24888312,9.04050481 4.29653502,8.95257137 C4.37634784,8.77586867 4.40743383,8.58105774 4.38657342,8.38831501 C4.36274379,8.16808587 4.26475964,7.96247545 4.10867712,7.80517605 C4.01220525,7.69947881 3.88514156,7.6264824 3.74518876,7.59635677 C3.61103832,7.56628453 3.47345699,7.55433002 3.33612541,7.56081306 C3.17945553,7.56908522 3.02463871,7.59860512 2.87592914,7.64856159 C2.77700357,7.67890075 2.67044845,7.67259117 2.57580113,7.63078974 C2.48206015,7.59038895 2.40402447,7.52060007 2.35348409,7.43196712 C2.28127604,7.32286958 2.21878762,7.20765115 2.16673778,7.08763745 C2.11292361,6.9634641 2.07123107,6.83438979 2.04224024,6.70221037 C2.01465738,6.59567241 2.00711895,6.48494166 2.02000853,6.37565256 C2.0240089,6.24152892 2.10812823,6.12288818 2.23343289,6.07464179 C2.45698261,5.97987895 2.65473986,5.83329184 2.81034561,5.64700655 C2.97515309,5.46420051 3.06590418,5.22660532 3.06489862,4.98056203 C3.06642996,4.73768117 2.97311619,4.503777 2.80478768,4.32855715 C2.64457551,4.15276408 2.44761433,4.01435132 2.22787497,3.92313673 C2.15492016,3.89542623 2.09635039,3.8393061 2.06558353,3.76763301 C2.02379161,3.69046311 2.00129122,3.60434063 2,3.51660558 C2.00158054,3.41125579 2.01576127,3.30647269 2.04224024,3.20448739 C2.07002633,3.09053823 2.10720616,2.97908345 2.15339876,2.87126513 C2.1965397,2.76723507 2.25017257,2.66786633 2.31346703,2.57469732 C2.36486324,2.49478334 2.43222455,2.42633874 2.51132919,2.37365323 C2.55923057,2.33996871 2.61748278,2.32423682 2.6758438,2.32922359 C2.73613016,2.33868269 2.79559259,2.35279429 2.85369743,2.37143174 C3.06506037,2.45643852 3.29526767,2.48365902 3.52064855,2.45029435 C3.75243108,2.41520272 3.96677438,2.30655479 4.13202041,2.14039765 C4.2176306,2.05038581 4.28017641,1.94101378 4.31432038,1.82161502 C4.38462493,1.59469573 4.40918322,1.35609489 4.38657342,1.11962679 C4.37656915,1.01743863 4.36656488,0.947461957 4.35989537,0.904143063 C4.34336696,0.857328437 4.32999796,0.809459251 4.31987831,0.760857492 C4.30882192,0.709666563 4.31467232,0.656273514 4.33655208,0.608685994 C4.38482941,0.498530124 4.46495909,0.405309913 4.56665022,0.340997445 C4.6785899,0.266194336 4.79866954,0.204336942 4.92458065,0.156614462 C5.0463776,0.108827367 5.17208532,0.0716639825 5.30029645,0.0455403754 C5.39491887,0.0240717342 5.4912659,0.0110617548 5.58819702,0.00666444518 C5.67208045,0.00167069363 5.75374857,0.0347211608 5.81051406,0.0966344552 C5.85935483,0.151023603 5.89711235,0.214408041 5.92167258,0.28323892 C6.00662291,0.482723774 6.14040996,0.657660699 6.31072739,0.791958236 C6.48843903,0.940292999 6.71394326,1.01921873 6.94544254,1.01410641 C7.18494721,1.01667651 7.41887654,0.941875988 7.61239366,0.800844163 C7.79866405,0.668401542 7.94017837,0.482441875 8.01812226,0.267688548 C8.05216137,0.201600053 8.0968512,0.141558532 8.1504009,0.08997001 C8.19861312,0.0362878201 8.26618155,0.0039275496 8.33825879,0 C8.44795102,0.00152467355 8.55715429,0.0149319486 8.66395326,0.0399866711 C8.78316123,0.0701881191 8.8998547,0.109551534 9.01299101,0.157725203 C9.12663139,0.207496436 9.23316137,0.272112885 9.32979279,0.349883372 C9.42148744,0.421687389 9.5004053,0.508431094 9.56322568,0.606464512 C9.59696791,0.662441119 9.60847086,0.729028311 9.59546165,0.793068977 C9.58626118,0.84334088 9.57172862,0.892490669 9.55210983,0.939686771 C9.46152623,1.14433087 9.43330216,1.3711109 9.47096411,1.59169166 C9.5075176,1.82008833 9.61710181,2.03051724 9.78331955,2.19149172 C9.95204498,2.36117552 10.1778718,2.46212655 10.4169231,2.47473065 C10.6576678,2.49447613 10.8994078,2.45121802 11.1183334,2.34921693 C11.1812311,2.31190618 11.2546608,2.2962947 11.3273114,2.30478729 C11.4069781,2.30865756 11.4821451,2.34283453 11.537401,2.40031101 C11.6641114,2.53059756 11.7618422,2.68616676 11.82419,2.8568255 C11.905234,3.05473486 11.9619682,3.26173198 11.9931509,3.47328668 C12.0121093,3.57233274 11.9913495,3.67485638 11.9353485,3.75874708 C11.8926753,3.81680943 11.8355888,3.86275021 11.7697223,3.89203599 C11.5456703,3.97548526 11.3498759,4.12067899 11.205037,4.31078529 C11.0517201,4.49887348 10.9691331,4.73465727 10.9716041,4.97722981 C10.9677452,5.20592402 11.0383558,5.42967932 11.172801,5.61479507 C11.3027491,5.7957794 11.4850846,5.93262096 11.6952461,6.00688659 C11.7396543,6.03302478 11.7823515,6.06196261 11.8230784,6.09352438 C11.898999,6.15688269 11.9540132,6.24166411 11.9809235,6.33677663 L11.9853698,6.3278907 Z M6.99991022,6.70332112 C7.45689082,6.70176727 7.89430515,6.5178169 8.21487284,6.19238032 C8.37060195,6.0341649 8.49505373,5.84800586 8.58169595,5.64367433 C8.9468238,4.77135215 8.53596662,3.76834969 7.66352658,3.40219927 C7.45274049,3.3125552 7.22564518,3.26754884 6.99657546,3.2700211 C6.76704495,3.26861388 6.53979274,3.31554367 6.32962434,3.40775297 C5.46208373,3.78180265 5.05866358,4.78487653 5.42590558,5.65478174 C5.51307724,5.85843709 5.63790347,6.04383848 5.79384028,6.20126624 C6.11459719,6.52319709 6.5519866,6.70186574 7.00657973,6.69665667 L6.99991022,6.70332112 Z" id="路径_4241" fill-rule="nonzero"></path>
                    <path d="M13,11 L13,13 L12,13 L12,12 L7.5,12 L7.5,13 L6.5,13 L6.5,12 L2,12 L2,13 L1,13 L1,11 L6.5,11 L6.5,8 L7.5,8 L7.5,11 L13,11 Z" id="形状结合" opacity="0.5"></path>
                    <rect id="矩形" x="0" y="13" width="3" height="3"></rect>
                    <rect id="矩形备份-8" x="5.5" y="13" width="3" height="3"></rect>
                    <rect id="矩形备份-9" x="11" y="13" width="3" height="3"></rect>
                </g>
            </g>
        </g>
    </g>
</svg>