<?xml version="1.0" standalone="no"?><!DOCTYPE svg PUBLIC "-//W3C//DTD SVG 1.1//EN" "http://www.w3.org/Graphics/SVG/1.1/DTD/svg11.dtd"><svg t="1700794728312" class="icon" viewBox="0 0 1024 1024" version="1.1" xmlns="http://www.w3.org/2000/svg" p-id="7691" xmlns:xlink="http://www.w3.org/1999/xlink" width="200" height="200"><path d="M853.312 0a102.4 102.4 0 0 1 102.4 102.4v819.2a102.4 102.4 0 0 1-102.4 102.4H102.4A102.4 102.4 0 0 1 0 921.6V102.4A102.4 102.4 0 0 1 102.4 0z m0 68.288H102.4a34.112 34.112 0 0 0-34.112 34.112v819.2c0 18.88 15.232 34.112 34.112 34.112h750.912a34.112 34.112 0 0 0 34.176-34.112V102.4a34.112 34.112 0 0 0-34.176-34.112z m-614.4 614.4a102.4 102.4 0 1 1 0 204.8 102.4 102.4 0 0 1 0-204.8z m0 68.224a34.112 34.112 0 1 0 0 68.288 34.112 34.112 0 0 0 0-68.288z m548.288 0a32 32 0 0 1 32 32v4.288a32 32 0 0 1-32 32H441.6a32 32 0 0 1-32-32v-4.288a32 32 0 0 1 32-32h345.6zM238.912 409.6a102.4 102.4 0 1 1 0 204.8 102.4 102.4 0 0 1 0-204.8z m0 68.288a34.112 34.112 0 1 0 0 68.224 34.112 34.112 0 0 0 0-68.224z m548.288 0a32 32 0 0 1 32 32v4.224a32 32 0 0 1-32 32H441.6a32 32 0 0 1-32-32v-4.224a32 32 0 0 1 32-32h345.6zM238.912 136.512a102.4 102.4 0 1 1 0 204.8 102.4 102.4 0 0 1 0-204.8z m0 68.288a34.112 34.112 0 1 0 0 68.288 34.112 34.112 0 0 0 0-68.288z m548.288 0a32 32 0 0 1 32 32v4.288a32 32 0 0 1-32 32H441.6a32 32 0 0 1-32-32V236.8a32 32 0 0 1 32-32h345.6z" fill="#409EFF" p-id="7692"></path></svg>