<?xml version="1.0" encoding="utf-8"?>
<!-- Generator: Adobe Illustrator 21.1.0, SVG Export Plug-In . SVG Version: 6.00 Build 0)  -->
<svg version="1.1" id="图层_1" xmlns="http://www.w3.org/2000/svg" xmlns:xlink="http://www.w3.org/1999/xlink" x="0px" y="0px"
	 viewBox="0 0 400 400" style="enable-background:new 0 0 400 400;" xml:space="preserve">
<style type="text/css">
	.st0{fill-rule:evenodd;clip-rule:evenodd;}
</style>
<g>
	<path class="st0" d="M360.6,187.1V334h-322V187.1H17.5v151.1c0,10.2,8.3,18.5,18.4,18.5h328.1c10.2,0,18.4-8.3,18.4-18.5V187.1
		H360.6L360.6,187.1z M38.6,65.1h322v122h21.9V61.7c0-10.2-8.3-18.5-18.4-18.5H35.9c-10.2,0-18.4,8.3-18.4,18.5v125.4h21.1V65.1
		L38.6,65.1z"/>
	<path class="st0" d="M103.9,139.3l-0.3,0.3c-3.8,4-8.7,7.8-14.8,11.5c-5.9,3.3-11.5,5.6-16.8,6.9l-0.8,0.2v21.6l1.3-0.4
		c10.2-2.9,18.9-7.4,25.9-13.3v94.6H120V139.3H103.9 M150.7,245.2c7.9,11.8,19.1,17.9,33.4,17.9c14.1,0,25.4-6,33.4-17.9
		c7.4-11.2,11.2-26.4,11.2-45.2c0-4.5-0.2-8.8-0.7-12.9h-21.5c0.4,4.3,0.6,8.6,0.6,12.9c0,12.2-1.3,22-3.9,29.2
		c-3.9,10.2-10.1,15.2-19.1,15.2c-9.1,0-15.3-5-19-15.2c-2.6-7.2-3.9-17-3.9-29.2c0-4.7,0.2-9,0.6-12.9h-21.5
		c-0.4,4.3-0.7,8.6-0.7,12.9C139.5,218.9,143.2,234.1,150.7,245.2L150.7,245.2z"/>
	<path class="st0" d="M165,170.8L165,170.8c3.7-10.2,9.9-15.2,19-15.2c9,0,15.2,5,19,15.2c1.6,4.4,2.8,9.9,3.4,16.3H228
		c-1.4-13-4.9-23.9-10.5-32.3l0,0c-7.9-11.8-19.2-17.9-33.4-17.9c-14.4,0-25.6,6-33.4,17.9c-5.6,8.5-9.2,19.3-10.5,32.3h21.5
		C162.3,180.6,163.4,175.2,165,170.8L165,170.8z M265.1,170.8L265.1,170.8c3.7-10.2,9.9-15.2,19-15.2c9,0,15.2,5,19,15.2
		c1.6,4.4,2.8,9.9,3.4,16.3h21.5c-1.4-13-4.9-23.8-10.5-32.3v0c-7.9-11.8-19.2-17.9-33.4-17.9c-14.4,0-25.6,6-33.4,17.9
		c-5.6,8.5-9.2,19.3-10.5,32.3h21.5C262.4,180.6,263.5,175.2,265.1,170.8L265.1,170.8z"/>
	<path class="st0" d="M250.8,245.2c7.9,11.8,19.1,17.9,33.4,17.9c14.1,0,25.4-6,33.4-17.9c7.4-11.2,11.2-26.4,11.2-45.2
		c0-4.5-0.2-8.8-0.7-12.9h-21.5c0.4,3.9,0.6,8.2,0.6,12.9c0,12.2-1.3,22-3.9,29.2c-3.9,10.2-10.1,15.2-19.1,15.2
		c-9.1,0-15.3-5-19-15.2c-2.6-7.2-3.9-17-3.9-29.2c0-4.7,0.2-9,0.6-12.9h-21.5c-0.4,4.3-0.7,8.6-0.7,12.9
		C239.6,218.9,243.4,234.1,250.8,245.2L250.8,245.2z"/>
</g>
</svg>
