<?xml version="1.0" standalone="no"?><!DOCTYPE svg PUBLIC "-//W3C//DTD SVG 1.1//EN" "http://www.w3.org/Graphics/SVG/1.1/DTD/svg11.dtd"><svg t="1667461629056" class="icon" viewBox="0 0 1024 1024" version="1.1" xmlns="http://www.w3.org/2000/svg" p-id="5198" xmlns:xlink="http://www.w3.org/1999/xlink" width="16" height="16"><path d="M0 0m512 0l0 0q512 0 512 512l0 0q0 512-512 512l0 0q-512 0-512-512l0 0q0-512 512-512Z" fill="#FFF1E8" p-id="5199"></path><path d="M620.544 411.2896V309.248a102.0416 102.0416 0 1 0-204.1344 0v101.9904h204.0832z m157.952 50.9952H255.7952v305.92h522.752V462.2848z m-241.2544 97.6384v108.3904c0 12.288-9.984 22.3232-22.3232 22.3232h-6.3488a22.3232 22.3232 0 0 1-22.3232-22.3232v-108.3904c0-12.288 9.984-22.3232 22.3232-22.3232h6.3488c12.3392 0 22.3232 9.984 22.3232 22.3232zM441.1392 174.5408a153.088 153.088 0 0 1 230.3488 134.7072v102.0416h107.008c28.16 0 51.0464 20.48 51.0464 45.9264v316.0576c0 25.344-22.8864 45.9264-51.0464 45.9264H255.7952c-28.16 0-50.9952-20.5312-50.9952-45.9264V457.216c0-25.3952 22.8352-45.9264 50.9952-45.9264h109.568V309.248a153.088 153.088 0 0 1 75.776-134.7584z" fill="#FF7519" p-id="5200"></path></svg>