<?xml version="1.0" encoding="UTF-8"?>
<svg width="14px" height="14px" viewBox="0 0 14 14" version="1.1" xmlns="http://www.w3.org/2000/svg" xmlns:xlink="http://www.w3.org/1999/xlink">
    <title>形状结合</title>
    <g id="设计方案" stroke="none" stroke-width="1" fill="none" fill-rule="evenodd">
        <g id="查看/资产目录-摘要信息" transform="translate(-572.000000, -609.000000)" fill="#66BF16" fill-rule="nonzero">
            <g id="Content" transform="translate(420.000000, 65.500000)">
                <g id="摘要信息" transform="translate(0.000000, 125.500000)">
                    <g id="下一级" transform="translate(0.000000, 379.000000)">
                        <g transform="translate(0.000000, 26.000000)" id="已发布">
                            <g transform="translate(150.000000, 12.000000)">
                                <path d="M9,1 C12.8659932,1 16,4.13400675 16,8 C16,11.8659932 12.8659932,15 9,15 C5.13400675,15 2,11.8659932 2,8 C2,4.13400675 5.13400675,1 9,1 Z M11.8876082,6.10815613 C11.6923584,5.91599551 11.3783002,5.91849977 11.1861396,6.11374955 L11.1861396,6.11374955 L8.02950212,9.32109558 L6.26739202,7.55898548 C6.07212987,7.36372334 5.75554738,7.36372334 5.56028524,7.55898548 C5.36502309,7.75424763 5.36502309,8.07083012 5.56028524,8.26609227 L5.56028524,8.26609227 L7.68441344,10.3901982 C7.72126781,10.4264694 7.76235515,10.4558051 7.80588586,10.4783458 C7.99405506,10.5754648 8.23097118,10.5451538 8.38871236,10.3874126 C8.3991946,10.3769304 8.40911412,10.3660985 8.41847092,10.3549546 L8.41847092,10.3549546 L11.8960318,6.81802608 C12.0886396,6.62232196 12.0873861,6.30791175 11.893224,6.11374963 L11.893224,6.11374963 Z" id="形状结合"></path>
                            </g>
                        </g>
                    </g>
                </g>
            </g>
        </g>
    </g>
</svg>