<?xml version="1.0" encoding="UTF-8"?>
<svg width="80px" height="80px" viewBox="0 0 80 80" version="1.1" xmlns="http://www.w3.org/2000/svg" xmlns:xlink="http://www.w3.org/1999/xlink">
    <title>发现问题-默认</title>
    <g id="检核任务" stroke="none" stroke-width="1" fill="none" fill-rule="evenodd">
        <g id="检核任务-列表备份" transform="translate(-868.000000, -188.000000)">
            <g id="任务统计" transform="translate(402.000000, 156.000000)">
                <g id="发现问题-默认" transform="translate(466.000000, 32.000000)">
                    <circle id="椭圆形" fill="#F5F5F5" cx="40" cy="40" r="40"></circle>
                    <path d="M51.714,24 C52.976,24 54,25.024 54,26.286 L54,53.714 C54,54.976 52.976,56 51.714,56 L28.286,56 C27.0234771,56 26,54.9765229 26,53.714 L26,26.286 C26,25.024 27.024,24 28.286,24 L51.714,24 Z M31.332,26.284 L28.286,26.284 L28.286,53.714 L51.714,53.714 L51.714,26.286 L48.666,26.284 L47.664,29.294 C47.3532344,30.2275836 46.4799478,30.8575744 45.496,30.858 L34.504,30.858 C33.52,30.858 32.648,30.228 32.336,29.294 L31.332,26.284 Z M39.8777293,44.0786026 C40.2620087,44.0786026 40.5938865,44.2008734 40.8558952,44.4454148 C41.1004367,44.6899563 41.2401747,45.0043668 41.2401747,45.3886463 C41.2401747,45.7729258 41.1004367,46.1048035 40.8384279,46.349345 C40.5764192,46.5938865 40.2620087,46.7161572 39.8777293,46.7161572 C39.4934498,46.7161572 39.1790393,46.5764192 38.9170306,46.3318777 C38.6550218,46.0873362 38.5327511,45.7729258 38.5327511,45.3886463 C38.5327511,45.0043668 38.6550218,44.6899563 38.9170306,44.4454148 C39.1790393,44.2008734 39.4934498,44.0786026 39.8777293,44.0786026 Z M40.1921397,34 C41.3275109,34 42.2532751,34.2969432 42.9519651,34.9257642 C43.650655,35.5371179 44,36.3755459 44,37.441048 C44,38.3144105 43.7729258,39.0305677 43.3537118,39.5895197 C43.1965066,39.7641921 42.6899563,40.2358079 41.8515284,40.9694323 C41.5371179,41.231441 41.3100437,41.5283843 41.1528384,41.8427948 C40.9781659,42.1921397 40.8908297,42.558952 40.8908297,42.9781659 L40.8908297,42.9781659 L40.8908297,43.2227074 L38.8820961,43.2227074 L38.8820961,42.9781659 C38.8820961,42.3144105 38.9868996,41.7379913 39.231441,41.2663755 C39.4585153,40.7947598 40.139738,40.0611354 41.2751092,39.0480349 L41.2751092,39.0480349 L41.4847162,38.8034934 C41.7991266,38.419214 41.9563319,38 41.9563319,37.5633188 C41.9563319,36.9868996 41.7816594,36.5327511 41.4672489,36.2008734 C41.1353712,35.8689956 40.6637555,35.7117904 40.069869,35.7117904 C39.30131,35.7117904 38.7598253,35.9388646 38.4279476,36.4279476 C38.1310044,36.8296943 37.9912664,37.4061135 37.9912664,38.139738 L37.9912664,38.139738 L36,38.139738 C36,36.8471616 36.3668122,35.8340611 37.1353712,35.1004367 C37.8864629,34.3668122 38.8995633,34 40.1921397,34 Z M46.256,26.286 L33.742,26.286 L34.504,28.572 L45.496,28.572 L46.256,26.286 Z" id="形状结合" fill="#999999" fill-rule="nonzero"></path>
                </g>
            </g>
        </g>
    </g>
</svg>