<?xml version="1.0" encoding="UTF-8"?>
<svg width="80px" height="80px" viewBox="0 0 80 80" version="1.1" xmlns="http://www.w3.org/2000/svg" xmlns:xlink="http://www.w3.org/1999/xlink">
    <title>运行失败-颜色</title>
    <g id="检核任务" stroke="none" stroke-width="1" fill="none" fill-rule="evenodd">
        <g id="检核任务-列表备份" transform="translate(-1088.000000, -186.000000)" fill="#FF4B53">
            <g id="任务统计" transform="translate(402.000000, 156.000000)">
                <g id="运行失败-颜色" transform="translate(686.000000, 30.000000)">
                    <circle id="椭圆形" opacity="0.0999116443" cx="40" cy="40" r="40"></circle>
                    <circle id="椭圆形" opacity="0.185523624" cx="40" cy="42" r="7"></circle>
                    <path d="M51.714,24 C52.976,24 54,25.024 54,26.286 L54,53.714 C54,54.976 52.976,56 51.714,56 L28.286,56 C27.0234771,56 26,54.9765229 26,53.714 L26,26.286 C26,25.024 27.024,24 28.286,24 L51.714,24 Z M31.332,26.284 L28.286,26.284 L28.286,53.714 L51.714,53.714 L51.714,26.286 L48.666,26.284 L47.664,29.294 C47.3532344,30.2275836 46.4799478,30.8575744 45.496,30.858 L34.504,30.858 C33.52,30.858 32.648,30.228 32.336,29.294 L31.332,26.284 Z M43.3941125,35.3941125 L45.0911688,37.0911688 L41.6970563,40.4852814 L45.0911688,43.8793939 L43.3941125,45.5764502 L40,42.1823376 L36.6058875,45.5764502 L34.9088312,43.8793939 L38.3029437,40.4852814 L34.9088312,37.0911688 L36.6058875,35.3941125 L40,38.7882251 L43.3941125,35.3941125 Z M46.256,26.286 L33.742,26.286 L34.504,28.572 L45.496,28.572 L46.256,26.286 Z" id="形状结合" fill-rule="nonzero"></path>
                </g>
            </g>
        </g>
    </g>
</svg>