<?xml version="1.0" encoding="UTF-8"?>
<svg width="14px" height="14px" viewBox="0 0 14 14" version="1.1" xmlns="http://www.w3.org/2000/svg" xmlns:xlink="http://www.w3.org/1999/xlink">
    <title>热门目录</title>
    <defs>
        <linearGradient x1="48.4876845%" y1="3.75061035%" x2="92.1863132%" y2="105.470276%" id="linearGradient-1">
            <stop stop-color="#FFFFFF" offset="0%"></stop>
            <stop stop-color="#A9BBF9" offset="100%"></stop>
        </linearGradient>
    </defs>
    <g id="7.0资产门户" stroke="none" stroke-width="1" fill="none" fill-rule="evenodd">
        <g id="资产门户：首页" transform="translate(-533.000000, -495.000000)" fill="url(#linearGradient-1)" fill-rule="nonzero">
            <g id="热门目录备份" transform="translate(512.000000, 474.000000)">
                <g id="标题" transform="translate(16.000000, 16.000000)">
                    <g id="热门目录" transform="translate(5.000000, 5.000000)">
                        <path d="M9.85787992,2.47474287 C9.67760362,2.33303889 9.45223624,2.3802551 9.31701581,2.47474287 C9.18179538,2.6164284 9.09163082,2.85262016 9.18179538,3.04152189 C9.27195994,3.23051589 9.31701581,3.46663384 9.36207168,3.70280714 C8.14512304,0.72707889 6.11676379,0.0657198412 6.02666966,0.018522083 C5.89144923,-0.0286941264 5.71112011,0.018522083 5.62095555,0.113009855 C5.48573512,0.207497626 5.44069686,0.396399366 5.48573512,0.538103347 C5.66608185,1.81345763 5.12521774,3.32492986 3.86308998,5.1198654 C3.77299585,4.74198812 3.63777542,4.36409238 3.41240804,3.93899889 C3.27718761,3.79729491 3.09685849,3.70280714 2.9165822,3.75009715 C2.69121482,3.79729491 2.55599439,3.93899889 2.55599439,4.17519065 C2.51093852,4.88367365 2.19540658,5.54495889 1.83480116,6.2535157 C1.51932204,6.86752938 1.2037725,7.52881463 1.06856967,8.23737144 C0.617870126,10.4574005 2.46582983,13.1025415 4.35889822,13.8583145 C4.49411865,13.9055122 4.6294095,13.9527284 4.8096682,14 C4.44908039,13.7166105 4.2236954,13.244227 4.13360127,12.5829602 C3.77299585,9.70162746 6.74779246,8.94585444 6.88308331,6.30073191 C9.04659256,7.85949415 10.038209,11.2603897 8.82120757,13.7638267 C8.86624584,13.7638267 8.91137213,13.7166105 8.956428,13.7166105 C8.956428,13.7166105 9.00146626,13.7166105 9.00146626,13.6693205 C11.3002664,12.3467684 12.5623061,10.5991045 12.6524707,8.56797716 C12.8777852,5.45054493 10.3536882,2.80534859 9.85787992,2.47474287 Z" id="hot"></path>
                    </g>
                </g>
            </g>
        </g>
    </g>
</svg>