<?xml version="1.0" encoding="UTF-8"?>
<svg width="56px" height="56px" viewBox="0 0 56 56" version="1.1" xmlns="http://www.w3.org/2000/svg" xmlns:xlink="http://www.w3.org/1999/xlink">
    <title>插画5</title>
    <defs>
        <radialGradient cx="50%" cy="76.4908854%" fx="50%" fy="76.4908854%" r="94.0071615%" gradientTransform="translate(0.500000,0.764909),scale(0.535714,1.000000),rotate(-90.000000),scale(1.000000,0.858196),translate(-0.500000,-0.764909)" id="radialGradient-1">
            <stop stop-color="#FBCA9E" offset="0%"></stop>
            <stop stop-color="#FFF5EC" offset="100%"></stop>
        </radialGradient>
        <linearGradient x1="50%" y1="66.3265306%" x2="61.0682896%" y2="26.7747529%" id="linearGradient-2">
            <stop stop-color="#FFFFFF" offset="0%"></stop>
            <stop stop-color="#FFF5EC" offset="100%"></stop>
        </linearGradient>
        <linearGradient x1="52.8331044%" y1="66.3265306%" x2="75.5644746%" y2="11.9517759%" id="linearGradient-3">
            <stop stop-color="#EFF5FE" offset="0%"></stop>
            <stop stop-color="#A7BDFA" offset="100%"></stop>
        </linearGradient>
        <linearGradient x1="70.106456%" y1="35.9031593%" x2="44.7995364%" y2="68.7389619%" id="linearGradient-4">
            <stop stop-color="#FBCA9E" offset="0%"></stop>
            <stop stop-color="#FFF5EC" offset="100%"></stop>
        </linearGradient>
        <ellipse id="path-5" cx="22.75" cy="13" rx="22.75" ry="13"></ellipse>
        <radialGradient cx="50%" cy="69.0085018%" fx="50%" fy="69.0085018%" r="116.210938%" gradientTransform="translate(0.500000,0.690085),scale(0.531250,1.000000),rotate(180.000000),translate(-0.500000,-0.690085)" id="radialGradient-7">
            <stop stop-color="#FFAC61" offset="0%"></stop>
            <stop stop-color="#FFD9B5" offset="100%"></stop>
        </radialGradient>
        <rect id="path-8" x="6.75" y="13" width="32" height="17"></rect>
        <filter x="-34.4%" y="-41.2%" width="168.8%" height="229.4%" filterUnits="objectBoundingBox" id="filter-9">
            <feOffset dx="0" dy="4" in="SourceAlpha" result="shadowOffsetOuter1"></feOffset>
            <feGaussianBlur stdDeviation="3" in="shadowOffsetOuter1" result="shadowBlurOuter1"></feGaussianBlur>
            <feColorMatrix values="0 0 0 0 0.980392157   0 0 0 0 0.792156863   0 0 0 0 0.619607843  0 0 0 0.3 0" type="matrix" in="shadowBlurOuter1"></feColorMatrix>
        </filter>
        <linearGradient x1="5.64880371%" y1="61.3674164%" x2="118.530273%" y2="25.6996155%" id="linearGradient-10">
            <stop stop-color="#FACA9E" offset="0%"></stop>
            <stop stop-color="#FFAC61" offset="100%"></stop>
        </linearGradient>
        <ellipse id="path-11" cx="28" cy="16" rx="16" ry="9"></ellipse>
        <filter x="-34.4%" y="-38.9%" width="168.8%" height="222.2%" filterUnits="objectBoundingBox" id="filter-12">
            <feOffset dx="0" dy="4" in="SourceAlpha" result="shadowOffsetOuter1"></feOffset>
            <feGaussianBlur stdDeviation="3" in="shadowOffsetOuter1" result="shadowBlurOuter1"></feGaussianBlur>
            <feColorMatrix values="0 0 0 0 0.913241621   0 0 0 0 0.549167632   0 0 0 0 0.215433142  0 0 0 0.3 0" type="matrix" in="shadowBlurOuter1"></feColorMatrix>
        </filter>
        <path d="M0.767497034,0 L0.761565836,1.93357058 C0.761565836,2.10913405 0.647686833,2.28351127 0.418742586,2.41518387 L0.424673784,0.481613286" id="path-13"></path>
        <path d="M0.767497034,0 L0.761565836,1.93357058 C0.761565836,2.10913405 0.647686833,2.28351127 0.418742586,2.41518387 L0.424673784,0.481613286" id="path-15"></path>
        <path d="M0.767497034,0 L0.761565836,1.93357058 C0.761565836,2.10913405 0.647686833,2.28351127 0.418742586,2.41518387 L0.424673784,0.481613286" id="path-17"></path>
        <path d="M0.767497034,0 L0.761565836,1.93357058 C0.761565836,2.10913405 0.647686833,2.28351127 0.418742586,2.41518387 L0.424673784,0.481613286" id="path-19"></path>
        <path d="M0.767497034,0 L0.761565836,1.93357058 C0.761565836,2.10913405 0.647686833,2.28351127 0.418742586,2.41518387 L0.424673784,0.481613286" id="path-21"></path>
        <path d="M0.767497034,0 L0.761565836,1.93357058 C0.761565836,2.10913405 0.647686833,2.28351127 0.418742586,2.41518387 L0.424673784,0.481613286" id="path-23"></path>
        <path d="M0.767497034,0 L0.761565836,1.93357058 C0.761565836,2.10913405 0.647686833,2.28351127 0.418742586,2.41518387 L0.424673784,0.481613286" id="path-25"></path>
        <path d="M0.767497034,0 L0.761565836,1.93357058 C0.761565836,2.10913405 0.647686833,2.28351127 0.418742586,2.41518387 L0.424673784,0.481613286" id="path-27"></path>
        <linearGradient x1="-55.2243629%" y1="50%" x2="100%" y2="50%" id="linearGradient-29">
            <stop stop-color="#FFFFFF" offset="0%"></stop>
            <stop stop-color="#FFF5EC" offset="100%"></stop>
        </linearGradient>
    </defs>
    <g id="7.0资产门户" stroke="none" stroke-width="1" fill="none" fill-rule="evenodd">
        <g id="资产门户：首页" transform="translate(-1280.000000, -940.000000)">
            <g id="插画5" transform="translate(1280.000000, 940.000000)">
                <rect id="矩形" x="0" y="0" width="56" height="56"></rect>
                <g id="柱子" transform="translate(0.000000, 9.000000)">
                    <rect id="矩形" fill="url(#radialGradient-1)" x="0" y="17" width="56" height="30"></rect>
                    <ellipse id="椭圆形" fill="url(#linearGradient-2)" cx="28" cy="16" rx="28" ry="16"></ellipse>
                    <ellipse id="椭圆形" fill="url(#linearGradient-3)" cx="28" cy="16" rx="22.75" ry="13"></ellipse>
                    <g id="矩形" transform="translate(5.250000, 3.000000)">
                        <mask id="mask-6" fill="white">
                            <use xlink:href="#path-5"></use>
                        </mask>
                        <use id="蒙版" fill="url(#linearGradient-4)" xlink:href="#path-5"></use>
                        <g mask="url(#mask-6)">
                            <use fill="black" fill-opacity="1" filter="url(#filter-9)" xlink:href="#path-8"></use>
                            <use fill="url(#radialGradient-7)" fill-rule="evenodd" xlink:href="#path-8"></use>
                        </g>
                    </g>
                    <g id="椭圆形">
                        <use fill="black" fill-opacity="1" filter="url(#filter-12)" xlink:href="#path-11"></use>
                        <use fill="url(#linearGradient-10)" fill-rule="evenodd" xlink:href="#path-11"></use>
                    </g>
                </g>
                <g id="消息" transform="translate(18.416480, 18.000000)">
                    <path d="M8.98681661e-06,6.50349941 L0.00594018492,4.56992883 C0.0047539453,4.74667853 0.121005428,4.92461447 0.353508394,5.05865955 L3.7238524,7.0044484 L3.71792121,8.93801898 L0.347814444,6.992586 C0.11507423,6.85818505 -0.0011772528,6.68143535 8.98681661e-06,6.50349941 Z M10.4568299,10.8917556 L10.4508987,12.8253262 L7.0807919,10.8798932 L7.0867231,8.94632266 L10.4568299,10.8917556 Z" id="形状结合" fill="#DDDDDD"></path>
                    <g id="编组" transform="translate(18.397281, 6.522598)">
                        <g>
                            <mask id="mask-14" fill="white">
                                <use xlink:href="#path-13"></use>
                            </mask>
                            <g id="Clip-76"></g>
                            <path d="M0.76737841,-0.000118623962 L0.761447212,1.93345196 C0.761447212,1.93701068 0.761447212,1.9405694 0.761447212,1.94412811 L0.76737841,0.0105575326 C0.76737841,0.00699881376 0.76737841,0.0034400949 0.76737841,-0.000118623962" id="Fill-75" fill="#FFFFFF" mask="url(#mask-14)"></path>
                        </g>
                        <g>
                            <mask id="mask-16" fill="white">
                                <use xlink:href="#path-15"></use>
                            </mask>
                            <g id="Clip-78"></g>
                            <path d="M0.767259786,0.0103202847 L0.761328588,1.94389087 C0.761328588,1.96761566 0.758956109,1.99015421 0.754211151,2.01269276 L0.758956109,0.0791221827 C0.763701068,0.0565836299 0.766073547,0.0328588375 0.767259786,0.0103202847" id="Fill-77" fill="#FFFFFF" mask="url(#mask-16)"></path>
                        </g>
                        <g>
                            <mask id="mask-18" fill="white">
                                <use xlink:href="#path-17"></use>
                            </mask>
                            <g id="Clip-80"></g>
                            <path d="M0.759430605,0.0788849348 L0.753499407,2.01245552 C0.749940688,2.03499407 0.74282325,2.05753262 0.734519573,2.08007117 L0.740450771,0.146500593 C0.748754448,0.12396204 0.754685647,0.101423488 0.759430605,0.0788849348" id="Fill-79" fill="#FFFFFF" mask="url(#mask-18)"></path>
                        </g>
                        <g>
                            <mask id="mask-20" fill="white">
                                <use xlink:href="#path-19"></use>
                            </mask>
                            <g id="Clip-82"></g>
                            <path d="M0.740094899,0.146144721 L0.734163701,2.0797153 C0.725860024,2.10344009 0.715183867,2.12597865 0.703321471,2.14733096 L0.708066429,0.21376038 C0.721115065,0.191221827 0.731791222,0.168683274 0.740094899,0.146144721" id="Fill-81" fill="#FFFFFF" mask="url(#mask-20)"></path>
                        </g>
                        <g>
                            <mask id="mask-22" fill="white">
                                <use xlink:href="#path-21"></use>
                            </mask>
                            <g id="Clip-84"></g>
                            <path d="M0.708422301,0.213879004 L0.702491103,2.14744958 C0.689442467,2.17236062 0.674021352,2.19608541 0.655041518,2.21862396 L0.660972716,0.285053381 C0.678766311,0.261328588 0.695373665,0.237603796 0.708422301,0.213879004" id="Fill-83" fill="#FFFFFF" mask="url(#mask-22)"></path>
                        </g>
                        <g>
                            <mask id="mask-24" fill="white">
                                <use xlink:href="#path-23"></use>
                            </mask>
                            <g id="Clip-86"></g>
                            <path d="M0.660735469,0.284697509 L0.65480427,2.21826809 C0.633451957,2.2455516 0.609727165,2.27164887 0.582443654,2.29774614 L0.587188612,0.362989324 C0.614472123,0.338078292 0.639383155,0.31198102 0.660735469,0.284697509" id="Fill-85" fill="#FFFFFF" mask="url(#mask-24)"></path>
                        </g>
                        <g>
                            <mask id="mask-26" fill="white">
                                <use xlink:href="#path-25"></use>
                            </mask>
                            <g id="Clip-88"></g>
                            <path d="M0.58742586,0.36346382 L0.581494662,2.2970344 C0.539976275,2.33618031 0.490154211,2.37295374 0.433214709,2.40735469 L0.439145907,0.473784104 C0.496085409,0.439383155 0.545907473,0.402609727 0.58742586,0.36346382" id="Fill-87" fill="#FFFFFF" mask="url(#mask-26)"></path>
                        </g>
                        <g>
                            <mask id="mask-28" fill="white">
                                <use xlink:href="#path-27"></use>
                            </mask>
                            <g id="Clip-90"></g>
                            <path d="M0.439027284,0.473428233 L0.433096085,2.40699881 C0.428351127,2.41055753 0.423606168,2.41293001 0.41886121,2.41530249 L0.424792408,0.48173191 C0.429537367,0.479359431 0.434282325,0.475800712 0.439027284,0.473428233" id="Fill-89" fill="#FFFFFF" mask="url(#mask-28)"></path>
                        </g>
                    </g>
                    <polygon id="Fill-129" fill="#9F9FA0" points="3.73476581 8.94596679 3.72883461 10.8795374 3.71815845 8.93884935 3.72408965 7.00409253"></polygon>
                    <path d="M7.08648586,8.94596679 L7.08055466,10.8795374 L3.72942773,10.8795374 L3.73417269,8.94596679 L7.08648586,8.94596679 Z M11.8705902,12.9392052 L11.8724918,12.0377556 L11.8696413,12.9383749 C11.7984669,12.9620996 11.7225475,12.9810795 11.645442,12.9941281 C11.5953827,13.0037367 11.5455606,13.0108541 11.493366,13.0155991 C11.4494752,13.0201068 11.4055843,13.0224792 11.3616934,13.0248517 L11.3614277,12.9064484 L11.3608631,13.02414 C11.3205309,13.0265125 11.2801988,13.0265125 11.2386804,13.0253262 C11.1992972,13.0247331 11.1601513,13.0223606 11.1210054,13.0188019 C11.0828085,13.0160735 11.0436626,13.0113286 11.0057029,13.0053974 L11.0054277,12.9064484 L11.0047539,13.005516 C10.965608,13.0007711 10.9264621,12.9936536 10.8873162,12.9853499 C10.8452047,12.9766904 10.8036863,12.9672005 10.7633542,12.9553381 C10.7145997,12.9416963 10.6659639,12.925089 10.6208868,12.9072954 L10.6224277,12.0374484 L10.6199378,12.9063464 C10.5606258,12.8838078 10.5036863,12.8565243 10.4514918,12.8256821 L10.457423,10.8921115 L10.538977,10.9346679 L10.6254918,10.9727556 C10.6718951,10.9915184 10.7193447,11.0069395 10.7691668,11.0211744 C10.8096175,11.0324437 10.8511359,11.0431198 10.8926543,11.0514235 C10.9312071,11.0588968 10.970353,11.0660142 11.0106851,11.0719454 L11.0686033,11.0792556 L11.1269366,11.0852313 C11.1660825,11.0876038 11.2052284,11.0899763 11.2443743,11.0911625 L11.2414277,12.0374484 L11.2446116,11.0905694 L11.3057029,11.0914591 L11.3664384,11.0900949 C11.4115155,11.0889087 11.4554064,11.0865362 11.4992972,11.0817912 C11.5503055,11.0772835 11.6013139,11.0701661 11.6511359,11.0606762 C11.7281314,11.0463868 11.8025385,11.0286893 11.8745945,11.0051245 C11.9678619,10.9747924 12.0544574,10.9368327 12.1327492,10.8917556 L18.822073,7.0044484 L18.8161418,8.93801898 L12.1269366,12.8253262 C12.0497124,12.8715896 11.9619307,12.908363 11.8705902,12.9392052 Z" id="形状结合" fill="#FFFFFF"></path>
                    <path d="M8.71329487,0.200177936 L18.8164977,6.03410439 C19.2791312,6.3010083 19.2815036,6.73754448 18.8224289,7.0044484 L12.1332237,10.8917556 C11.674149,11.1586595 10.9185143,11.1586595 10.4570671,10.8917556 L7.08696035,8.94632266 L3.73464718,8.94632266 L3.72397103,7.0044484 L0.353864266,5.05901542 C-0.108769186,4.79211151 -0.111141666,4.35438909 0.347933067,4.08748517 L7.03713829,0.200177936 C7.49621302,-0.0667259786 8.25184766,-0.0667259786 8.71329487,0.200177936 Z M12.1106851,6.99970344 C11.644493,7.27135231 11.6539829,7.70432977 12.1237338,7.97479241 C12.5863672,8.24169632 13.3336982,8.24644128 13.7998904,7.97479241 C14.2589651,7.70788849 14.2565926,7.27135231 13.7939592,7.0044484 C13.3242083,6.73279953 12.5697599,6.73279953 12.1106851,6.99970344 Z M8.74769582,5.05901542 C8.28150365,5.32947805 8.29217981,5.76245552 8.75362702,6.02935943 C9.21507423,6.29626335 9.96359143,6.3010083 10.4297836,6.02935943 C10.8888583,5.76245552 10.8864859,5.32591934 10.4238524,5.05901542 C9.96240519,4.79211151 9.20677055,4.79211151 8.74769582,5.05901542 Z M5.38589274,3.11714116 C4.91851432,3.38879004 4.9208868,3.81702254 5.39063769,4.08748517 C5.85327115,4.35438909 6.60060211,4.35913405 7.06679428,4.08748517 C7.52586901,3.82058126 7.52349653,3.38404508 7.06086308,3.11714116 C6.59229843,2.84549229 5.84496747,2.85023725 5.38589274,3.11714116 Z" id="形状结合" fill="url(#linearGradient-29)" fill-rule="nonzero"></path>
                </g>
            </g>
        </g>
    </g>
</svg>