<?xml version="1.0" encoding="UTF-8"?>
<svg width="14px" height="14px" viewBox="0 0 14 14" version="1.1" xmlns="http://www.w3.org/2000/svg" xmlns:xlink="http://www.w3.org/1999/xlink">
    <title>推荐数据</title>
    <defs>
        <linearGradient x1="33.7866211%" y1="26.4578683%" x2="77.2949219%" y2="72.115902%" id="linearGradient-1">
            <stop stop-color="#FFFFFF" offset="0%"></stop>
            <stop stop-color="#BAFFFF" offset="100%"></stop>
        </linearGradient>
    </defs>
    <g id="7.0资产门户" stroke="none" stroke-width="1" fill="none" fill-rule="evenodd">
        <g id="资产门户：首页" transform="translate(-965.000000, -495.000000)" fill="url(#linearGradient-1)" fill-rule="nonzero">
            <g id="热门目录备份-4" transform="translate(944.000000, 474.000000)">
                <g id="标题" transform="translate(16.000000, 16.000000)">
                    <g id="形状结合" transform="translate(5.000000, 5.000000)">
                        <path d="M2,6 C3.1045695,6 4,5.1045695 4,4 C4,2.8954305 3.1045695,2 2,2 C0.8954305,2 0,2.8954305 0,4 C0,5.1045695 0.8954305,6 2,6 Z M2,12 C3.1045695,12 4,11.1045695 4,10 C4,8.8954305 3.1045695,8 2,8 C0.8954305,8 0,8.8954305 0,10 C0,11.1045695 0.8954305,12 2,12 Z M7,3 L13,3 C13.5522847,3 14,3.44771525 14,4 C14,4.55228475 13.5522847,5 13,5 L7,5 C6.44771525,5 6,4.55228475 6,4 C6,3.44771525 6.44771525,3 7,3 Z M7,9 L13,9 C13.5522847,9 14,9.44771525 14,10 C14,10.5522847 13.5522847,11 13,11 L7,11 C6.44771525,11 6,10.5522847 6,10 C6,9.44771525 6.44771525,9 7,9 Z"></path>
                    </g>
                </g>
            </g>
        </g>
    </g>
</svg>