<svg id="创建时间" xmlns="http://www.w3.org/2000/svg" width="24" height="24" viewBox="0 0 24 24">
  <circle id="椭圆_1617" data-name="椭圆 1617" cx="12" cy="12" r="12" fill="#edf3ff"/>
  <path id="路径_4239" data-name="路径 4239" d="M8.048.078A6.925,6.925,0,0,1,14,7,7,7,0,0,1,0,7" transform="translate(19.5 5.5) rotate(90)" fill="none" stroke="#2e69f0" stroke-linecap="round" stroke-width="2"/>
  <path id="路径_4240" data-name="路径 4240" d="M7,0A7,7,0,1,1,0,7,7,7,0,0,1,7,0Z" transform="translate(5.5 5.5)" fill="none" stroke="#2e69f0" stroke-linecap="round" stroke-width="2" stroke-dasharray="3"/>
  <path id="路径_4231" data-name="路径 4231" d="M421.975,310.083a.9.9,0,0,1-.9.9h-3.2a.9.9,0,0,1-.9-.9v-4.2a.9.9,0,0,1,1.8,0v3.3h2.3A.9.9,0,0,1,421.975,310.083Z" transform="translate(-406.2 -296.02)" fill="#2e69f0"/>
</svg>
