<svg id="数据连接" xmlns="http://www.w3.org/2000/svg" width="24" height="24" viewBox="0 0 24 24">
  <circle id="椭圆_1617" data-name="椭圆 1617" cx="12" cy="12" r="12" fill="#edf3ff"/>
  <g id="组_3994" data-name="组 3994" transform="translate(-194.044 -446.17)">
    <path id="路径_4234" data-name="路径 4234" d="M203.966,454.67h4.767a2.259,2.259,0,0,1,1.977,2.461v.182a2.259,2.259,0,0,1-1.977,2.461h-5.212a2.259,2.259,0,0,0-1.977,2.461h0a2.259,2.259,0,0,0,1.977,2.461l5.068-.045" transform="translate(0 -1.387)" fill="none" stroke="#a0bbf9" stroke-width="2"/>
    <g id="椭圆_1797" data-name="椭圆 1797" transform="translate(198.544 450.481)" fill="#2e69f0" stroke="#edf3ff" stroke-width="1">
      <circle cx="2.5" cy="2.5" r="2.5" stroke="none"/>
      <circle cx="2.5" cy="2.5" r="3" fill="none"/>
    </g>
    <g id="椭圆_1798" data-name="椭圆 1798" transform="translate(207.544 460.67)" fill="#2e69f0" stroke="#edf3ff" stroke-width="1">
      <circle cx="2.5" cy="2.5" r="2.5" stroke="none"/>
      <circle cx="2.5" cy="2.5" r="3" fill="none"/>
    </g>
  </g>
</svg>
