<svg xmlns="http://www.w3.org/2000/svg" width="24" height="24" viewBox="0 0 24 24">
  <g id="数据管家" transform="translate(-393.545 -454.007)">
    <circle id="椭圆_1617" data-name="椭圆 1617" cx="12" cy="12" r="12" transform="translate(393.545 454.007)" fill="#edf3ff"/>
    <path id="路径_4228" data-name="路径 4228" d="M568.062,203.759a3,3,0,1,0-3-3h0a3,3,0,0,0,3,3Z" transform="translate(-162.517 261.248)" fill="#a0bbf9"/>
    <path id="矩形_18010" data-name="矩形 18010" d="M3,0H7a3,3,0,0,1,3,3V5A1,1,0,0,1,9,6H1A1,1,0,0,1,0,5V3A3,3,0,0,1,3,0Z" transform="translate(400.545 466.007)" fill="#2e69f0"/>
  </g>
</svg>
