<svg id="标签" xmlns="http://www.w3.org/2000/svg" width="24" height="24" viewBox="0 0 24 24">
  <circle id="椭圆_1617" data-name="椭圆 1617" cx="12" cy="12" r="12" fill="#edf3ff"/>
  <path id="路径_3373" data-name="路径 3373" d="M676.988,411.2l-6.3-6.3a1.273,1.273,0,0,0-.98-.42h-4.9a1.323,1.323,0,0,0-1.4,1.241,1.208,1.208,0,0,0,0,.159v4.9a1.266,1.266,0,0,0,.42.98l6.3,6.3a1.353,1.353,0,0,0,1.913.047c.015-.015.031-.03.047-.047l4.9-4.9a1.354,1.354,0,0,0,.047-1.913l-.047-.047Zm-8.826-1.966a1.772,1.772,0,1,1,0-2.506A1.787,1.787,0,0,1,668.162,409.237Z" transform="translate(-658.407 -399.481)" fill="#2e69f0"/>
  <rect id="矩形_18009" data-name="矩形 18009" width="6.673" height="1.602" rx="0.801" transform="translate(11.075 15.985) rotate(-45)" fill="#d6e4ff"/>
</svg>
