<svg id="业务系统" xmlns="http://www.w3.org/2000/svg" width="24" height="24" viewBox="0 0 24 24">
  <circle id="椭圆_1617" data-name="椭圆 1617" cx="12" cy="12" r="12" fill="#edf3ff"/>
  <g id="组件_13_1" data-name="组件 13 – 1" transform="translate(5 5)">
    <path id="路径_2680" data-name="路径 2680" d="M96.808,315.374H85.26a.217.217,0,0,0-.226.207v12.793h12V315.581A.217.217,0,0,0,96.808,315.374Zm-1.956,6.608a.726.726,0,0,1-.756.692H87.972a.726.726,0,0,1-.756-.692v-.215a.727.727,0,0,1,.756-.693H94.1a.727.727,0,0,1,.756.693Zm0-3.24a.727.727,0,0,1-.756.693H87.972a.727.727,0,0,1-.756-.693v-.215a.726.726,0,0,1,.756-.692H94.1a.726.726,0,0,1,.756.692Z" transform="translate(-84.034 -315.374)" fill="rgba(46,105,240,0.4)"/>
    <path id="路径_2681" data-name="路径 2681" d="M94.877,330.374H81.191a.154.154,0,0,1-.157-.153v-4.693a.155.155,0,0,1,.157-.154h4.974a.155.155,0,0,1,.157.154v1.407a.156.156,0,0,0,.158.154h3.328a.155.155,0,0,0,.157-.154v-1.407a.155.155,0,0,1,.157-.154h4.757a.155.155,0,0,1,.157.154v4.693A.154.154,0,0,1,94.877,330.374Z" transform="translate(-81.034 -316.374)" fill="#2e69f0"/>
  </g>
</svg>
