<svg xmlns="http://www.w3.org/2000/svg" width="24" height="24" viewBox="0 0 24 24">
  <g id="技术部门" transform="translate(-191.958 -440.866)">
    <circle id="椭圆_1617" data-name="椭圆 1617" cx="12" cy="12" r="12" transform="translate(191.958 440.866)" fill="#edf3ff"/>
    <g id="组_2072" data-name="组 2072">
      <path id="路径_2707" data-name="路径 2707" d="M207.049,459.288a7.51,7.51,0,0,1-8.13-1.48,2.049,2.049,0,0,1-.83.18,2,2,0,1,1,2-2,1.969,1.969,0,0,1-.39,1.19,6.508,6.508,0,0,0,4.39,1.71,6.381,6.381,0,0,0,2.56-.52.5.5,0,1,1,.4.92Z" fill="#a0bbf9"/>
      <path id="路径_2708" data-name="路径 2708" d="M196.546,452.359a7.509,7.509,0,0,1,5.287-6.351,2.053,2.053,0,0,1,.251-.811,2,2,0,1,1,.758,2.725A1.964,1.964,0,0,1,202,447a6.507,6.507,0,0,0-3.648,2.981,6.378,6.378,0,0,0-.806,2.485.5.5,0,0,1-1-.1Z" fill="#a0bbf9"/>
      <path id="路径_2709" data-name="路径 2709" d="M208.149,446.877a7.516,7.516,0,0,1,2.83,7.764,2.085,2.085,0,0,1,.575.626,1.994,1.994,0,1,1-1.513-.981,6.5,6.5,0,0,0-.742-4.652,6.416,6.416,0,0,0-1.742-1.947.5.5,0,1,1,.592-.81Z" fill="#a0bbf9"/>
    </g>
    <circle id="椭圆_1617-2" data-name="椭圆 1617-2" cx="3" cy="3" r="3" transform="translate(200.958 449.866)" fill="#2e69f0"/>
  </g>
</svg>
