<svg xmlns="http://www.w3.org/2000/svg" width="24" height="24" viewBox="0 0 24 24">
  <g id="top用户" transform="translate(-109 -241)">
    <circle id="椭圆_49" data-name="椭圆 49" cx="12" cy="12" r="12" transform="translate(109 241)" fill="#edf3ff"/>
    <path id="联合_404" data-name="联合 404" d="M617.644,317.108l-1.96-5.346a1.423,1.423,0,0,1-.543.107,1.5,1.5,0,1,1,1.456-1.5h0a1.526,1.526,0,0,1-.128.613c1.057.457,2.51.844,3.457.1a5.383,5.383,0,0,0,1.412-3,1.458,1.458,0,1,1,.747-.008,5.491,5.491,0,0,0,1.435,3.012c.943.74,2.366.358,3.406-.094a1.525,1.525,0,0,1-.13-.62,1.459,1.459,0,1,1,1.482,1.5h-.026a1.445,1.445,0,0,1-.543-.107l-1.96,5.347Z" transform="translate(-500.71 -58.108)" fill="#2e69f0"/>
  </g>
</svg>
