<svg xmlns="http://www.w3.org/2000/svg" viewBox="0 0 13.66 15.92"><defs><style>.cls-1{fill:none;}</style></defs><title>资源 5</title><g id="图层_2" data-name="图层 2"><g id="图层_4" data-name="图层 4"><path d="M8.3,13.11H5.41a.43.43,0,0,0-.42.42.42.42,0,0,0,.42.41H8.3a.42.42,0,0,0,.42-.41.4.4,0,0,0-.42-.42Z"/><path d="M6.08,15.28a.76.76,0,0,0,.76.64.78.78,0,0,0,.76-.64,1,1,0,0,0,.89-1H5.18a1,1,0,0,0,.9,1Z"/><path d="M6.84,2.36a.56.56,0,0,0,.54-.55V.54A.54.54,0,1,0,6.3.54V1.81a.56.56,0,0,0,.54.55Z"/><path d="M3.27,3.15a.52.52,0,0,0,.45.22A.65.65,0,0,0,4,3.28a.58.58,0,0,0,.13-.77l-.74-1a.55.55,0,0,0-.76-.13.56.56,0,0,0-.13.76Z"/><path d="M1.94,5,.73,4.58a.56.56,0,0,0-.7.35.55.55,0,0,0,.35.7L1.59,6c.06,0,.12,0,.19,0a.56.56,0,0,0,.51-.38A.56.56,0,0,0,1.94,5Z"/><path d="M13.27,8.66l-1.21-.38a.55.55,0,0,0-.7.35.56.56,0,0,0,.35.7l1.21.38a.36.36,0,0,0,.16,0,.56.56,0,0,0,.51-.38.52.52,0,0,0-.32-.7Z"/><path d="M1.62,8.28.41,8.66A.55.55,0,0,0,.57,9.74c.06,0,.13,0,.16,0l1.21-.38a.57.57,0,0,0,.35-.7.52.52,0,0,0-.67-.35Z"/><path d="M11.9,6.05c.06,0,.13,0,.16,0l1.21-.39a.56.56,0,0,0,.35-.7.57.57,0,0,0-.7-.35L11.71,5a.55.55,0,0,0-.35.7.62.62,0,0,0,.54.38Z"/><path d="M10.28,1.5l-.73,1a.53.53,0,0,0,.12.77.68.68,0,0,0,.32.09.52.52,0,0,0,.45-.22l.73-1A.52.52,0,0,0,11,1.37a.52.52,0,0,0-.76.13Z"/><rect class="cls-1" width="13.66" height="15.92"/><path d="M6.86,3.21A3.95,3.95,0,0,0,3.74,9.58,15.07,15.07,0,0,1,5,11.46v1.3h3.6V11.49A18.39,18.39,0,0,1,9.92,9.58a3.77,3.77,0,0,0,.82-2.42A3.87,3.87,0,0,0,6.86,3.21ZM7.2,8.65h0v4.09s0,0,0,0H6.46V8.64L5.78,7.47A.31.31,0,0,1,6.05,7H7.61a.31.31,0,0,1,.27.46Z"/></g></g></svg>