<svg xmlns="http://www.w3.org/2000/svg" viewBox="0 0 15.75 15.84"><title>资源 1</title><g id="图层_2" data-name="图层 2"><g id="图层_1-2" data-name="图层 1"><path d="M9.25,7h6a.47.47,0,0,0,.47-.52A7,7,0,0,0,9.31,0a.48.48,0,0,0-.53.47V6.58A.47.47,0,0,0,9.25,7Z"/><path d="M6.83,2.59h0M5.74,2.8V7.36C5.74,9.19,6.86,10,8,10h4.9a5.8,5.8,0,0,1-5.52,4.24A5.8,5.8,0,0,1,1.6,8.4,5.87,5.87,0,0,1,5.74,2.8M6.74,1h0A7.39,7.39,0,0,0,0,8.4a7.39,7.39,0,0,0,7.34,7.44,7.38,7.38,0,0,0,7.32-6.78A.62.62,0,0,0,14,8.4H8c-.34,0-.62-.27-.62-1V1.61A.62.62,0,0,0,6.74,1Z"/></g></g></svg>