<svg xmlns="http://www.w3.org/2000/svg" viewBox="0 0 14.23 15.91"><title>资源 2</title><g id="图层_2" data-name="图层 2"><g id="图层_1-2" data-name="图层 1"><path d="M0,3.66c0,2,3.19,3.65,7.12,3.65s7.11-1.63,7.11-3.65S11.05,0,7.12,0,0,1.64,0,3.66Z"/><path d="M7.12,8.7C4.21,8.7,1.71,7.8.61,6.52A2.25,2.25,0,0,0,0,8c0,2,3.19,3.66,7.12,3.66S14.23,10,14.23,8a2.24,2.24,0,0,0-.6-1.47C12.52,7.8,10,8.7,7.12,8.7Z"/><path d="M7.12,13.05c-2.95,0-5.48-.91-6.56-2.23A2.27,2.27,0,0,0,0,12.25c0,2,3.19,3.66,7.12,3.66s7.11-1.64,7.11-3.66a2.27,2.27,0,0,0-.56-1.43c-1.08,1.32-3.61,2.23-6.55,2.23Z"/></g></g></svg>