<svg xmlns="http://www.w3.org/2000/svg" viewBox="0 0 16 16"><title>资源 4</title><g id="图层_2" data-name="图层 2"><g id="图层_3" data-name="图层 3"><path d="M15,10.44H13.25V8.27a.22.22,0,0,0,0-.08.22.22,0,0,0,0-.08.75.75,0,0,0-.76-.75H8.75V6h1.67A1.09,1.09,0,0,0,11.5,4.92V1.08A1.09,1.09,0,0,0,10.42,0H5.58A1.09,1.09,0,0,0,4.5,1.08V4.92A1.09,1.09,0,0,0,5.58,6H7.25V7.36H3.36a.75.75,0,0,0-.76.75.22.22,0,0,0,0,.08.22.22,0,0,0,0,.08v2.17H1a1,1,0,0,0-1,1V15a1,1,0,0,0,1,1H6a1,1,0,0,0,1-1V11.48a1,1,0,0,0-1-1H4.1V8.85h7.65v1.59H10a1,1,0,0,0-1,1V15a1,1,0,0,0,1,1H15a1,1,0,0,0,1-1V11.48A1,1,0,0,0,15,10.44ZM6,4.5v-3h4v3Z"/></g></g></svg>