<svg xmlns="http://www.w3.org/2000/svg" viewBox="0 0 14.82 15.97"><title>icon_数据质量</title><g id="图层_2" data-name="图层 2"><g id="图层_5" data-name="图层 5"><path d="M14.81,2.3l0-.46-.42-.2A19.33,19.33,0,0,0,7.41,0a19.46,19.46,0,0,0-7,1.64L0,1.84,0,2.3A30.49,30.49,0,0,0,.5,8.62L1.72,7.45a.23.23,0,0,0,.07-.21A29.57,29.57,0,0,1,1.5,3a.24.24,0,0,1,.15-.21A17.39,17.39,0,0,1,7.41,1.5a17.4,17.4,0,0,1,5.77,1.27.22.22,0,0,1,.14.21,25.55,25.55,0,0,1-.67,6.18c-.84,3-4.07,4.67-5.14,5.16a.19.19,0,0,1-.18,0A10.55,10.55,0,0,1,2.9,10.75a.24.24,0,0,1,0-.29l1.85-2a.24.24,0,0,1,.33,0L6.85,9.89a.24.24,0,0,0,.33,0l3.24-3.54.06,1.26,1.36-.07L11.66,4a.23.23,0,0,0-.24-.23L8.05,4l.06,1.36,1.25-.06L7,7.79a.22.22,0,0,1-.32,0L5,6.36a.22.22,0,0,0-.32,0L1,10.34l.23.47c1.71,3.45,5.77,5,5.94,5.06l.26.1.27-.1c.21-.08,5.2-2,6.41-6.32a28.8,28.8,0,0,0,.71-7.25Z"/></g></g></svg>