<?xml version="1.0" standalone="no"?><!DOCTYPE svg PUBLIC "-//W3C//DTD SVG 1.1//EN" "http://www.w3.org/Graphics/SVG/1.1/DTD/svg11.dtd"><svg t="1689757979155" class="icon" viewBox="0 0 1024 1024" version="1.1" xmlns="http://www.w3.org/2000/svg" p-id="3430" xmlns:xlink="http://www.w3.org/1999/xlink" width="200" height="200"><path d="M512 512m-512 0a512 512 0 1 0 1024 0 512 512 0 1 0-1024 0Z" fill="#EBF5FF" p-id="3431"></path><path d="M243.2 256h452.266667a29.866667 29.866667 0 0 1 0 59.733333H243.2a29.866667 29.866667 0 0 1 0-59.733333z m396.8 170.666667a42.666667 42.666667 0 0 1 42.666667 42.666666v85.333334h85.333333a42.666667 42.666667 0 0 1 0 85.333333h-85.333333v85.333333a42.666667 42.666667 0 0 1-85.333334 0v-85.333333h-85.333333a42.666667 42.666667 0 0 1 0-85.333333h85.333333v-85.333334a42.666667 42.666667 0 0 1 42.666667-42.666666z" fill="#409EFF" p-id="3432"></path><path d="M213.333333 375.466667m29.866667 0l281.6 0q29.866667 0 29.866667 29.866666l0 0q0 29.866667-29.866667 29.866667l-281.6 0q-29.866667 0-29.866667-29.866667l0 0q0-29.866667 29.866667-29.866666Z" fill="#73B8FF" p-id="3433"></path><path d="M213.333333 494.933333m29.866667 0l153.6 0q29.866667 0 29.866667 29.866667l0 0q0 29.866667-29.866667 29.866667l-153.6 0q-29.866667 0-29.866667-29.866667l0 0q0-29.866667 29.866667-29.866667Z" fill="#97CAFF" p-id="3434"></path></svg>