<?xml version="1.0" standalone="no"?><!DOCTYPE svg PUBLIC "-//W3C//DTD SVG 1.1//EN" "http://www.w3.org/Graphics/SVG/1.1/DTD/svg11.dtd"><svg t="1689758006667" class="icon" viewBox="0 0 1024 1024" version="1.1" xmlns="http://www.w3.org/2000/svg" p-id="3568" xmlns:xlink="http://www.w3.org/1999/xlink" width="200" height="200"><path d="M512 512m-512 0a512 512 0 1 0 1024 0 512 512 0 1 0-1024 0Z" fill="#EBF5FF" p-id="3569"></path><path d="M170.666667 341.333333h94.378666l133.973334 237.226667h0.853333V341.333333H469.333333v341.333334H378.538667l-137.557334-242.986667h-0.853333V682.666667H170.666667V341.333333z m341.333333 213.333334c0-19.413333 3.328-36.992 9.941333-52.693334 6.656-15.744 15.744-29.226667 27.306667-40.405333 11.52-11.221333 25.088-19.84 40.746667-25.856A137.984 137.984 0 0 1 640 426.666667c17.706667 0 34.389333 2.986667 50.005333 9.045333 15.658667 5.973333 29.226667 14.634667 40.789334 25.856 11.52 11.178667 20.608 24.661333 27.264 40.405333 6.613333 15.701333 9.941333 33.28 9.941333 52.693334 0 19.413333-3.328 36.992-9.941333 52.693333a121.429333 121.429333 0 0 1-27.306667 40.405333c-11.52 11.221333-25.088 19.84-40.746667 25.856A137.984 137.984 0 0 1 640 682.666667c-17.706667 0-34.389333-2.986667-50.005333-9.045334a119.253333 119.253333 0 0 1-40.789334-25.856 121.429333 121.429333 0 0 1-27.264-40.405333A134.314667 134.314667 0 0 1 512 554.666667z m71.125333 0c0 18.389333 4.949333 33.28 14.933334 44.672 9.941333 11.392 23.893333 17.066667 41.941333 17.066666 18.005333 0 32-5.674667 41.941333-17.066666 9.984-11.392 14.933333-26.282667 14.933334-44.672 0-18.389333-4.949333-33.28-14.933334-44.672-9.941333-11.392-23.893333-17.066667-41.941333-17.066667-18.005333 0-32 5.674667-41.941333 17.066667-9.984 11.392-14.933333 26.282667-14.933334 44.672zM810.666667 640a43.434667 43.434667 0 0 1 12.288-30.378667A43.434667 43.434667 0 0 1 853.333333 597.333333a43.434667 43.434667 0 0 1 30.378667 12.288A43.434667 43.434667 0 0 1 896 640a43.434667 43.434667 0 0 1-12.288 30.378667A43.434667 43.434667 0 0 1 853.333333 682.666667a43.434667 43.434667 0 0 1-30.378666-12.288A43.434667 43.434667 0 0 1 810.666667 640z" fill="#409EFF" p-id="3570"></path></svg>