<?xml version="1.0" encoding="UTF-8"?>
<svg width="24px" height="24px" viewBox="0 0 24 24" version="1.1" xmlns="http://www.w3.org/2000/svg" xmlns:xlink="http://www.w3.org/1999/xlink">
    <title>发布时间 2</title>
    <g id="设计方案" stroke="none" stroke-width="1" fill="none" fill-rule="evenodd">
        <g id="查看/资产目录-摘要信息" transform="translate(-1595.000000, -822.000000)" fill-rule="nonzero">
            <g id="Content" transform="translate(420.000000, 65.500000)">
                <g id="摘要信息" transform="translate(0.000000, 125.500000)">
                    <g id="右侧属性" transform="translate(1161.000000, 44.000000)">
                        <g id="编组-3" transform="translate(0.000000, 484.000000)">
                            <g id="组_3880-6备份" transform="translate(0.000000, 98.000000)">
                                <g id="发布时间" transform="translate(14.000000, 5.000000)">
                                    <circle id="椭圆_1617-3" fill="#EDF3FF" cx="12" cy="12" r="12"></circle>
                                    <path d="M17.9819956,6.51591164 C17.9630488,6.5779235 16.631873,10.9544119 13.9884681,19.6453769 C13.9256662,19.8514877 13.7380031,19.9942735 13.5226085,19.9998321 C13.3072139,20.0053907 13.1124359,19.8724743 13.0390866,19.6698771 L11.7064524,15.9922268 L12.0267046,15.5398487 C12.1019512,15.4332983 12.2302067,15.3774327 12.3594734,15.3949012 C12.48874,15.4123697 12.5975673,15.5002735 12.6418339,15.6229743 L13.4695896,17.91549 L16.6388614,7.49591838 L6.22716477,12.237576 L10.0479382,12.9988312 L10.0304381,13.987588 L4.42377736,12.970831 C4.20542215,12.9372819 4.03502084,12.764314 4.00473961,12.5454817 C3.97445838,12.3266494 4.09148664,12.113908 4.29252646,12.0223245 L17.4333668,6.03640835 C17.6346415,5.94434961 17.8724353,6.03288568 17.9644955,6.23415971 C18.0038813,6.3226983 18.0104158,6.42289385 17.9819956,6.51591164 Z M10.0479382,13.0005812 L10.0479382,18.5007372 C10.0479382,18.776916 9.82405103,19.0008031 9.54787224,19.0008031 C9.27169345,19.0008031 9.04780631,18.776916 9.04780631,18.5007372 L9.04780631,13.0005812 L10.0479382,13.0005812 Z M12.1877058,15.3657225 C12.4638845,15.3657225 12.6877717,15.5896096 12.6877717,15.8657884 C12.6877717,16.1419672 12.4638845,16.3658544 12.1877058,16.3658544 C11.911527,16.3658544 11.6876398,16.1419672 11.6876398,15.8657884 C11.6876398,15.5896096 11.911527,15.3657225 12.1877058,15.3657225 Z" id="形状备份" stroke="#2E69F0" fill="#2E69F0"></path>
                                </g>
                            </g>
                        </g>
                    </g>
                </g>
            </g>
        </g>
    </g>
</svg>