<?xml version="1.0" standalone="no"?><!DOCTYPE svg PUBLIC "-//W3C//DTD SVG 1.1//EN" "http://www.w3.org/Graphics/SVG/1.1/DTD/svg11.dtd"><svg t="1658817800767" class="icon" viewBox="0 0 1024 1024" version="1.1" xmlns="http://www.w3.org/2000/svg" p-id="5320" xmlns:xlink="http://www.w3.org/1999/xlink" width="200" height="200"><defs><style type="text/css"></style></defs><path d="M928 0A96 96 0 0 1 1024 96v832a96 96 0 0 1-96 96h-832A96 96 0 0 1 0 928v-832A96 96 0 0 1 96 0z m0 64h-832A32 32 0 0 0 64 96v832A32 32 0 0 0 96 960h832a32 32 0 0 0 32-32v-832A32 32 0 0 0 928 64zM704 160a128 128 0 1 1-90.368 218.666667l-200.896 104.490666a128.405333 128.405333 0 0 1-1.962667 65.173334l188.970667 113.386666a128 128 0 1 1-23.04 60.821334l-198.890667-119.338667a128 128 0 1 1 5.376-176.789333l197.802667-102.912A128 128 0 0 1 704 160z m0 512a64 64 0 1 0 0 128 64 64 0 0 0 0-128z m0-448a64 64 0 1 0 0 128 64 64 0 0 0 0-128z" fill="#EF6666" p-id="5321"></path><path d="M704 640a96 96 0 1 1 0 192 96 96 0 0 1 0-192z m0-448a96 96 0 1 1 0 192 96 96 0 0 1 0-192z" fill="#EF6666" fill-opacity=".2" p-id="5322"></path></svg>