<svg id="组件_92_1" data-name="组件 92 – 1" xmlns="http://www.w3.org/2000/svg" width="114" height="90" viewBox="0 0 114 90">
  <circle id="椭圆_1699" data-name="椭圆 1699" cx="45" cy="45" r="45" transform="translate(10)" fill="#f7f7f7"/>
  <rect id="矩形_17690" data-name="矩形 17690" width="48" height="60" rx="2" transform="translate(31 15)" fill="#e0e0e0"/>
  <rect id="矩形_17691" data-name="矩形 17691" width="40" height="52" rx="2" transform="translate(35 19)" fill="#fdfdfd"/>
  <path id="路径_3390" data-name="路径 3390" d="M244.869,270.14h-2.4v-2.4a1.3,1.3,0,0,0-2.6,0v2.4h-2.4a1.3,1.3,0,0,0,0,2.6h2.4v2.4a1.3,1.3,0,1,0,2.6,0v-2.4h2.4a1.3,1.3,0,0,0,0-2.6Z" transform="translate(-233.169 -265.44)" fill="#efefef"/>
  <path id="路径_3391" data-name="路径 3391" d="M346.437,310.542H345V309.1a.78.78,0,1,0-1.56,0v1.441H342a.78.78,0,1,0,0,1.559h1.44v1.44a.78.78,0,1,0,1.56,0V312.1h1.44a.78.78,0,1,0,0-1.559Z" transform="translate(-233.217 -266.322)" fill="#e0e0e0"/>
  <circle id="椭圆_1700" data-name="椭圆 1700" cx="3" cy="3" r="3" transform="translate(0 39)" fill="#efefef"/>
  <circle id="椭圆_1701" data-name="椭圆 1701" cx="1.5" cy="1.5" r="1.5" transform="translate(99 17)" fill="#e0e0e0"/>
  <path id="路径_3392" data-name="路径 3392" d="M282.905,320.849a1.827,1.827,0,0,1-2.563,0l-2.91-2.91-2.91,2.91a1.812,1.812,0,0,1-2.563-2.563l2.91-2.91-2.91-2.91a1.812,1.812,0,0,1,2.563-2.563l2.91,2.91,2.91-2.91a1.812,1.812,0,0,1,2.563,2.563l-2.91,2.91,2.91,2.91A1.821,1.821,0,0,1,282.905,320.849Z" transform="translate(-213.433 -279.375)" fill="#fa5555"/>
  <rect id="矩形_17785" data-name="矩形 17785" width="16" height="5" rx="2.5" transform="translate(38 34)" fill="#e0e0e0"/>
  <rect id="矩形_17786" data-name="矩形 17786" width="34" height="5" rx="2.5" transform="translate(38 45)" fill="#e0e0e0"/>
  <rect id="矩形_17787" data-name="矩形 17787" width="34" height="5" rx="2.5" transform="translate(38 55)" fill="#e0e0e0"/>
  <path id="排除_2" data-name="排除 2" d="M2800.6-2219h-19.2a2.431,2.431,0,0,1-2.4-2.456,2.431,2.431,0,0,1,2.4-2.456h6.029a3.43,3.43,0,0,1,1.05-2.192,3.233,3.233,0,0,1,2.233-.9h.577a3.231,3.231,0,0,1,2.232.9,3.426,3.426,0,0,1,1.049,2.192h6.031a2.431,2.431,0,0,1,2.4,2.456A2.431,2.431,0,0,1,2800.6-2219Zm-9.6-5.594a1.578,1.578,0,0,0-1.558,1.595,1.578,1.578,0,0,0,1.558,1.594,1.578,1.578,0,0,0,1.557-1.594A1.578,1.578,0,0,0,2791-2224.594Z" transform="translate(-2737 2236)" fill="#b4b4b4"/>
</svg>
