<?xml version="1.0" encoding="UTF-8"?>
<svg width="112px" height="48px" viewBox="0 0 112 48" version="1.1" xmlns="http://www.w3.org/2000/svg" xmlns:xlink="http://www.w3.org/1999/xlink">
    <title>概念模型112-40</title>
    <g id="深色" stroke="none" stroke-width="1" fill="none" fill-rule="evenodd">
        <g id="模型-新建模型-弹窗备份" transform="translate(-1088.000000, -446.000000)">
            <g id="概念模型112-40" transform="translate(1088.000000, 446.000000)">
                <rect id="矩形" fill="#FFFFFF" x="0" y="0" width="112" height="48"></rect>
                <path d="M50.8669599,19.3739465 C50.2823896,19.9072157 49.5348482,20.1738502 48.6243357,20.1738502 C47.4977094,20.1738502 46.6119968,19.8136287 45.9671981,19.0931856 C45.3223994,18.369211 45,17.376836 45,16.1160607 C45,14.7528694 45.366685,13.7022233 46.100055,12.9641223 C46.737768,12.3213741 47.5490807,12 48.533993,12 C49.8519333,12 50.8155885,12.4308532 51.4249588,13.2925596 C51.7615295,13.7763865 51.9422149,14.2619793 51.9670148,14.7493378 L50.3302181,14.7493378 C50.2239326,14.37499 50.0875328,14.0924633 49.9210189,13.9017578 C49.6234195,13.5627257 49.1823346,13.3932097 48.5977643,13.3932097 C48.0025655,13.3932097 47.5331379,13.6324745 47.1894814,14.1110041 C46.8458249,14.5895337 46.6739967,15.2667148 46.6739967,16.1425476 C46.6739967,17.0183803 46.8555678,17.6743719 47.2187099,18.1105225 C47.5818521,18.5466731 48.0433083,18.7647484 48.6030786,18.7647484 C49.1770203,18.7647484 49.6145623,18.5775744 49.9157046,18.2032266 C50.0822186,18.0019263 50.2203897,17.6999759 50.3302181,17.2973754 L51.951072,17.2973754 C51.809358,18.148487 51.4479873,18.8406774 50.8669599,19.3739465 Z M57.9083746,14.9135565 C58.3972879,15.5245204 58.6417445,16.2467293 58.6417445,17.080183 C58.6417445,17.9277631 58.3972879,18.6526206 57.9083746,19.2547556 C57.4194612,19.8568906 56.6772341,20.1579581 55.6816932,20.1579581 C54.6861523,20.1579581 53.9439252,19.8568906 53.4550119,19.2547556 C52.9660986,18.6526206 52.7216419,17.9277631 52.7216419,17.080183 C52.7216419,16.2467293 52.9660986,15.5245204 53.4550119,14.9135565 C53.9439252,14.3025925 54.6861523,13.9971105 55.6816932,13.9971105 C56.6772341,13.9971105 57.4194612,14.3025925 57.9083746,14.9135565 Z M55.676379,15.273778 C55.2335227,15.273778 54.8925234,15.4300506 54.653381,15.7425957 C54.4142386,16.0551409 54.2946674,16.5010033 54.2946674,17.080183 C54.2946674,17.6593627 54.4142386,18.106108 54.653381,18.420419 C54.8925234,18.7347299 55.2335227,18.8918854 55.676379,18.8918854 C56.1192352,18.8918854 56.4593488,18.7347299 56.6967198,18.420419 C56.9340908,18.106108 57.0527763,17.6593627 57.0527763,17.080183 C57.0527763,16.5010033 56.9340908,16.0551409 56.6967198,15.7425957 C56.4593488,15.4300506 56.1192352,15.273778 55.676379,15.273778 Z M62.4520799,15.3002649 C61.9383666,15.3002649 61.585853,15.5174573 61.3945391,15.951842 C61.2953393,16.181395 61.2457394,16.4745164 61.2457394,16.8312064 L61.2457394,19.9566578 L59.7364852,19.9566578 L59.7364852,14.1931134 L61.1979109,14.1931134 L61.1979109,15.0353961 C61.3927677,14.7387431 61.5769959,14.5250823 61.7505956,14.3944137 C62.0623664,14.1613292 62.4573942,14.0447869 62.9356789,14.0447869 C63.5344206,14.0447869 64.0242197,14.2010595 64.405076,14.5136046 C64.7859324,14.8261498 64.9763606,15.3444097 64.9763606,16.0683843 L64.9763606,19.9566578 L63.4245923,19.9566578 L63.4245923,16.444498 C63.4245923,16.1407818 63.3838495,15.9076972 63.3023639,15.7452444 C63.1535642,15.4485914 62.8701362,15.3002649 62.4520799,15.3002649 Z M71.3853766,16.2537924 L69.8336082,16.2537924 C69.8052654,16.0383658 69.732637,15.8441287 69.6157229,15.6710811 C69.4456661,15.4379966 69.1817238,15.3214544 68.8238959,15.3214544 C68.3137255,15.3214544 67.9647547,15.5739626 67.7769837,16.0789791 C67.6777839,16.3473794 67.628184,16.7040693 67.628184,17.1490489 C67.628184,17.5728389 67.6777839,17.9136367 67.7769837,18.1714423 C67.957669,18.6517377 68.2977827,18.8918854 68.7973245,18.8918854 C69.1516096,18.8918854 69.4031519,18.7965326 69.5519516,18.6058271 C69.7007513,18.4151216 69.791094,18.1679107 69.8229797,17.8641946 L71.3694338,17.8641946 C71.3340053,18.3233004 71.1674913,18.7576852 70.8698919,19.1673489 C70.39515,19.827755 69.6918942,20.1579581 68.7601246,20.1579581 C67.828355,20.1579581 67.1428135,19.8824946 66.7035001,19.3315675 C66.2641867,18.7806405 66.04453,18.0654948 66.04453,17.1861305 C66.04453,16.1937555 66.2872152,15.4221045 66.7725857,14.8711775 C67.2579561,14.3202504 67.9275548,14.0447869 68.7813817,14.0447869 C69.507666,14.0447869 70.1019791,14.2072397 70.5643211,14.5321454 C71.026663,14.8570511 71.3003482,15.4309335 71.3853766,16.2537924 Z M77.3851933,18.2614977 C77.346222,18.6040613 77.167308,18.9519223 76.8484515,19.3050807 C76.3524525,19.8666025 75.6580539,20.1473634 74.7652556,20.1473634 C74.0283428,20.1473634 73.3782298,19.9107473 72.8149166,19.437515 C72.2516034,18.9642828 71.9699469,18.1943976 71.9699469,17.1278594 C71.9699469,16.1284212 72.2241464,15.3620676 72.7325454,14.8287985 C73.2409444,14.2955293 73.9008002,14.0288948 74.7121129,14.0288948 C75.1939405,14.0288948 75.6279396,14.1189502 76.0141103,14.2990609 C76.400281,14.4791717 76.7191375,14.7634642 76.9706799,15.1519384 C77.1974223,15.494502 77.3444506,15.8918051 77.4117647,16.3438478 C77.4507361,16.6087166 77.4666789,16.9901276 77.4595932,17.4880809 L73.4951439,17.4880809 C73.516401,18.0672606 73.6988577,18.4733927 74.0425142,18.7064772 C74.2515424,18.8512722 74.5030847,18.9236696 74.7971413,18.9236696 C75.1089121,18.9236696 75.3622259,18.83538 75.5570826,18.6588009 C75.6633682,18.5634481 75.7572537,18.4310137 75.8387392,18.2614977 L77.3851933,18.2614977 Z M75.8865677,16.4921743 C75.8617678,16.0931054 75.7404251,15.7902721 75.5225399,15.5836745 C75.3046546,15.3770768 75.0345122,15.273778 74.7121129,15.273778 C74.3613707,15.273778 74.089457,15.3832571 73.8963716,15.6022153 C73.7032863,15.8211734 73.5819437,16.1178265 73.5323438,16.4921743 L75.8865677,16.4921743 Z M83.3318673,14.8023116 C83.7995235,15.3002649 84.0333517,16.0313027 84.0333517,16.995425 C84.0333517,18.0125211 83.8039521,18.7877037 83.345153,19.3209728 C82.8863539,19.8542419 82.2955837,20.1208765 81.5728422,20.1208765 C81.1122717,20.1208765 80.7296439,20.0061 80.4249588,19.7765471 C80.2584448,19.6494101 80.0954737,19.4640019 79.9360454,19.2203227 L79.9360454,22.2292319 L78.4374198,22.2292319 L78.4374198,14.1825187 L79.888217,14.1825187 L79.888217,15.0353961 C80.0511881,14.7846537 80.2247877,14.586885 80.4090159,14.4420901 C80.7455867,14.1842845 81.1459288,14.0553817 81.6100421,14.0553817 C82.2867265,14.0553817 82.8606683,14.3043583 83.3318673,14.8023116 Z M82.4709547,17.0695882 C82.4709547,16.6246087 82.3690978,16.2308371 82.1653839,15.8882735 C81.96167,15.5457099 81.6312992,15.3744281 81.1742716,15.3744281 C80.6251298,15.3744281 80.2478163,15.6339995 80.042331,16.1531423 C79.9360454,16.4286058 79.8829027,16.7782326 79.8829027,17.2020226 C79.8829027,17.8730235 80.0618166,18.3444899 80.4196445,18.6164219 C80.6322155,18.7753431 80.8837579,18.8548038 81.1742716,18.8548038 C81.5958707,18.8548038 81.9173844,18.6923509 82.1388125,18.3674452 C82.3602407,18.0425395 82.4709547,17.6099205 82.4709547,17.0695882 Z M87.7799157,18.8812906 L87.7799157,20.0096316 L87.0624885,20.0361185 C86.3468328,20.0608396 85.8579195,19.9372341 85.5957486,19.6653022 C85.4256918,19.4922546 85.3406634,19.22562 85.3406634,18.8653985 L85.3406634,15.3108596 L84.5328935,15.3108596 L84.5328935,14.2354924 L85.3406634,14.2354924 L85.3406634,12.6250903 L86.839289,12.6250903 L86.839289,14.2354924 L87.7799157,14.2354924 L87.7799157,15.3108596 L86.839289,15.3108596 L86.839289,18.3621478 C86.839289,18.5987639 86.8694032,18.7462076 86.9296317,18.8044787 C86.9898601,18.8627498 87.1740883,18.8918854 87.4823163,18.8918854 C87.5283733,18.8918854 87.5770875,18.8910025 87.6284589,18.8892367 C87.6798302,18.8874709 87.7303158,18.8848222 87.7799157,18.8812906 Z M92.4671065,19.140862 C92.4529351,19.1585199 92.4175066,19.2114937 92.360821,19.2997833 C92.3041354,19.3880729 92.2368212,19.4657677 92.1588785,19.5328678 C91.9215075,19.7447628 91.692108,19.8895577 91.4706799,19.9672526 C91.2492517,20.0449474 90.989738,20.0837948 90.6921385,20.0837948 C89.8347688,20.0837948 89.2572842,19.7765471 88.9596848,19.1620515 C88.7931709,18.8230195 88.7099139,18.3233004 88.7099139,17.6628943 L88.7099139,14.1825187 L90.2616822,14.1825187 L90.2616822,17.6628943 C90.2616822,17.9913316 90.3006536,18.2385424 90.3785963,18.4045268 C90.5167675,18.6976483 90.7877955,18.844209 91.1916804,18.844209 C91.7089365,18.844209 92.0632216,18.6358456 92.2545355,18.2191187 C92.3537353,17.9930974 92.4033352,17.6946785 92.4033352,17.3238623 L92.4033352,14.1825187 L93.9391607,14.1825187 L93.9391607,19.9566578 L92.4671065,19.9566578 L92.4671065,19.140862 Z M95.6184717,14.807609 C96.0188138,14.2990609 96.7061267,14.0447869 97.6804105,14.0447869 C98.3145807,14.0447869 98.8778938,14.1701581 99.37035,14.4209006 C99.8628062,14.671643 100.109034,15.1448752 100.109034,15.8405972 L100.109034,18.4892849 C100.109034,18.6729272 100.112577,18.895417 100.119663,19.1567542 C100.130291,19.3545228 100.160406,19.488723 100.210005,19.5593547 C100.259605,19.6299864 100.334005,19.6882575 100.433205,19.7341681 L100.433205,19.9566578 L98.7857797,19.9566578 C98.7397227,19.8401156 98.707837,19.7306365 98.6901228,19.6282206 C98.6724085,19.5258046 98.6582371,19.4092624 98.6476086,19.2785938 C98.4385804,19.5046151 98.1976666,19.6970864 97.9248671,19.8560077 C97.5989249,20.0431816 97.2304685,20.1367686 96.8194979,20.1367686 C96.2951561,20.1367686 95.8620426,19.9875592 95.5201576,19.6891404 C95.1782726,19.3907216 95.00733,18.9678144 95.00733,18.420419 C95.00733,17.7105707 95.2819009,17.1967253 95.8310427,16.8788827 C96.132185,16.7058351 96.5750412,16.5822297 97.1596115,16.5080665 L97.6750962,16.444498 C97.9549814,16.4091821 98.1551524,16.3650373 98.2756093,16.3120636 C98.4917232,16.2202424 98.5997801,16.0772133 98.5997801,15.8829762 C98.5997801,15.6463601 98.5174088,15.4830243 98.3526663,15.3929689 C98.1879238,15.3029136 97.9461242,15.2578859 97.6272677,15.2578859 C97.2694399,15.2578859 97.0161261,15.3461755 96.8673264,15.5227546 C96.7610409,15.6534232 96.6901839,15.8300024 96.6547554,16.0524922 L95.1933297,16.0524922 C95.2252153,15.5474757 95.3669293,15.1325146 95.6184717,14.807609 Z M96.745098,18.8653985 C96.886812,18.9819408 97.0604117,19.0402119 97.265897,19.0402119 C97.5918392,19.0402119 97.8920958,18.9448591 98.1666667,18.7541536 C98.4412376,18.5634481 98.5838373,18.2155871 98.5944658,17.7105707 L98.5944658,17.1490489 C98.4988089,17.2090858 98.4022662,17.2576451 98.3048378,17.2947267 C98.2074094,17.3318083 98.0736668,17.3662413 97.90361,17.3980255 L97.5634964,17.461594 C97.2446399,17.5180994 97.0161261,17.5869652 96.8779549,17.6681917 C96.6441268,17.8059234 96.5272128,18.0195842 96.5272128,18.3091741 C96.5272128,18.5669797 96.5998412,18.7523878 96.745098,18.8653985 Z M101.485432,12.1483265 L103,12.1483265 L103,19.9566578 L101.485432,19.9566578 L101.485432,12.1483265 Z M56.2983907,25.8328919 L58.2260233,25.8328919 L61.0802722,34.2065976 L63.9142303,25.8328919 L65.821572,25.8328919 L65.821572,35.7370575 L64.5432472,35.7370575 L64.5432472,29.8916446 C64.5432472,29.6893812 64.5477563,29.3545228 64.5567745,28.8870696 C64.5657926,28.4196163 64.5703017,27.9184525 64.5703017,27.3835781 L61.7363436,35.7370575 L60.4039099,35.7370575 L57.549661,27.3835781 L57.549661,27.6869733 C57.549661,27.9296894 57.5552973,28.299382 57.56657,28.796051 C57.5778427,29.2927201 57.5834791,29.657918 57.5834791,29.8916446 L57.5834791,35.7370575 L56.2983907,35.7370575 L56.2983907,25.8328919 Z M70.5831626,34.9549723 C71.3902883,34.9549723 71.9437781,34.6504535 72.243632,34.0414158 C72.543486,33.4323782 72.693413,32.7547957 72.693413,32.0086684 C72.693413,31.334457 72.585195,30.7860984 72.3687591,30.3635926 C72.0260688,29.6983707 71.4353791,29.3657597 70.5966898,29.3657597 C69.8526913,29.3657597 69.3116014,29.6489285 68.9734203,30.2152661 C68.6352391,30.7816037 68.4661486,31.4648046 68.4661486,32.2648688 C68.4661486,33.0334698 68.6352391,33.6739706 68.9734203,34.1863713 C69.3116014,34.698772 69.8481822,34.9549723 70.5831626,34.9549723 Z M70.6305079,28.3072478 C71.5638879,28.3072478 72.3529773,28.617385 72.997776,29.2376595 C73.6425747,29.857934 73.9649741,30.7703668 73.9649741,31.9749579 C73.9649741,33.1390962 73.6809019,34.1009712 73.1127576,34.8605827 C72.5446133,35.6201942 71.6630877,36 70.468181,36 C69.4716739,36 68.68033,35.664018 68.0941493,34.9920539 C67.5079686,34.3200899 67.2148783,33.4177703 67.2148783,32.2850951 C67.2148783,31.0715146 67.5237504,30.1051449 68.1414947,29.385986 C68.7592389,28.6668272 69.58891,28.3072478 70.6305079,28.3072478 Z M76.1834425,32.2109319 C76.1834425,32.9840276 76.3480239,33.6312706 76.6771869,34.1526607 C77.0063499,34.6740509 77.5339125,34.934746 78.2598747,34.934746 C78.82351,34.934746 79.2868182,34.6931535 79.6497993,34.2099687 C80.0127804,33.7267839 80.1942709,33.0334698 80.1942709,32.1300265 C80.1942709,31.2175937 80.007144,30.5422586 79.6328902,30.1040212 C79.2586364,29.6657838 78.7964555,29.4466651 78.2463475,29.4466651 C77.6331123,29.4466651 77.135986,29.6803917 76.7549686,30.1478449 C76.3739512,30.6152982 76.1834425,31.3029938 76.1834425,32.2109319 Z M78.0163843,28.3881531 C78.5710014,28.3881531 79.0354368,28.5050165 79.4096906,28.7387431 C79.6261266,28.8735854 79.8718715,29.1095594 80.1469256,29.4466651 L80.1469256,25.7991813 L81.3170323,25.7991813 L81.3170323,35.7370575 L80.2213254,35.7370575 L80.2213254,34.7324825 C79.9372532,35.1774621 79.6013266,35.4988362 79.2135456,35.6966049 C78.8257645,35.8943735 78.3816199,35.9932579 77.8811118,35.9932579 C77.0739862,35.9932579 76.3750784,35.6550285 75.7843887,34.9785697 C75.1936989,34.3021109 74.8983541,33.4020387 74.8983541,32.278353 C74.8983541,31.2265832 75.1677717,30.3152741 75.706607,29.5444257 C76.2454423,28.7735773 77.0153681,28.3881531 78.0163843,28.3881531 Z M86.1327319,28.3544426 C86.6467673,28.3544426 87.1450209,28.4746769 87.6274926,28.7151457 C88.1099644,28.9556144 88.4774546,29.2668754 88.7299632,29.6489285 C88.9734536,30.0130026 89.1357806,30.4377558 89.216944,30.9231881 C89.2890894,31.255799 89.325162,31.7861787 89.325162,32.514327 L84.0157179,32.514327 C84.0382633,33.2469701 84.211863,33.8346577 84.5365169,34.2773898 C84.8611708,34.720122 85.3639335,34.9414881 86.0448048,34.9414881 C86.6805854,34.9414881 87.1878571,34.7324825 87.56662,34.3144715 C87.783056,34.0717554 87.9363647,33.7908339 88.0265464,33.4717072 L89.2237077,33.4717072 C89.1921441,33.736897 89.0873079,34.0324264 88.9091992,34.3582952 C88.7310905,34.6841641 88.5315636,34.9504776 88.3106186,35.1572357 C87.9408738,35.5168152 87.483202,35.7595313 86.9376031,35.8853841 C86.6445127,35.9572999 86.3130952,35.9932579 85.9433505,35.9932579 C85.0415341,35.9932579 84.2772447,35.6662654 83.6504823,35.0122803 C83.0237199,34.3582952 82.7103387,33.4424914 82.7103387,32.2648688 C82.7103387,31.1052251 83.0259744,30.1635765 83.6572459,29.4399229 C84.2885174,28.7162694 85.1136794,28.3544426 86.1327319,28.3544426 Z M88.0738917,31.5502047 C88.0242918,31.0243198 87.9093103,30.6040613 87.728947,30.2894293 C87.3952749,29.7051128 86.8384033,29.4129545 86.0583321,29.4129545 C85.4992059,29.4129545 85.0302614,29.6140942 84.6514985,30.0163737 C84.2727356,30.4186532 84.0720815,30.9299302 84.049536,31.5502047 L88.0738917,31.5502047 Z M90.8537408,25.8328919 L92.071193,25.8328919 L92.071193,35.7370575 L90.8537408,35.7370575 L90.8537408,25.8328919 Z" id="形状结合" fill="#333333" fill-rule="nonzero"></path>
                <g id="概念模型" transform="translate(8.000000, 8.000000)" fill-rule="nonzero">
                    <rect id="矩形" fill-opacity="0.16" fill="#5AB6AF" x="15" y="0" width="17" height="32" rx="2"></rect>
                    <path d="M30,0 C31.1045695,0 32,0.8954305 32,2 L32,30 C32,31.1045695 31.1045695,32 30,32 L17,32 C15.8954305,32 15,31.1045695 15,30 L15,2 C15,0.8954305 15.8954305,0 17,0 L30,0 Z M30,1 L17,1 C16.4477153,1 16,1.44771525 16,2 L16,30 C16,30.5522847 16.4477153,31 17,31 L30,31 C30.5522847,31 31,30.5522847 31,30 L31,2 C31,1.44771525 30.5522847,1 30,1 Z" id="矩形" fill-opacity="0.49808785" fill="#5AB6AF"></path>
                    <rect id="矩形备份-20" fill-opacity="0.3" fill="#5A86B6" x="18" y="5" width="11" height="7" rx="1"></rect>
                    <path d="M28,5 C28.5522847,5 29,5.44771525 29,6 L29,11 C29,11.5522847 28.5522847,12 28,12 L24,12 L24,20 L28,20 C28.5522847,20 29,20.4477153 29,21 L29,26 C29,26.5522847 28.5522847,27 28,27 L19,27 C18.4477153,27 18,26.5522847 18,26 L18,24 L10,24 L10,23 L18,23 L18,21 C18,20.4477153 18.4477153,20 19,20 L23,20 L23,12 L19,12 C18.4477153,12 18,11.5522847 18,11 L18,9 L11,9 L11,8 L18,8 L18,6 C18,5.44771525 18.4477153,5 19,5 L28,5 Z M28,21 L19,21 L19,26 L28,26 L28,21 Z M28,6 L19,6 L19,11 L28,11 L28,6 Z" id="形状结合" fill="#5A86B6"></path>
                    <rect id="矩形备份-20备份" fill-opacity="0.3" fill="#5A86B6" x="18" y="20" width="11" height="7" rx="1"></rect>
                    <path d="M5.5,20 C8.53756612,20 11,21.5670034 11,23.5 C11,25.4329966 8.53756612,27 5.5,27 C2.46243388,27 0,25.4329966 0,23.5 C0,21.5670034 2.46243388,20 5.5,20 Z M5.5,21 C2.94593955,21 1,22.2383252 1,23.5 C1,24.7616748 2.94593955,26 5.5,26 C8.05406045,26 10,24.7616748 10,23.5 C10,22.2383252 8.05406045,21 5.5,21 Z" id="椭圆形备份-3" fill="#979797"></path>
                    <path d="M9,5 C10.1045695,5 11,5.8954305 11,7 L11,10 C11,11.1045695 10.1045695,12 9,12 L2,12 C0.8954305,12 0,11.1045695 0,10 L0,7 C0,5.8954305 0.8954305,5 2,5 L9,5 Z M9,6 L2,6 C1.44771525,6 1,6.44771525 1,7 L1,10 C1,10.5522847 1.44771525,11 2,11 L9,11 C9.55228475,11 10,10.5522847 10,10 L10,7 C10,6.44771525 9.55228475,6 9,6 Z" id="矩形备份-21" fill="#979797"></path>
                </g>
            </g>
        </g>
    </g>
</svg>