<?xml version="1.0" encoding="UTF-8"?>
<svg width="112px" height="48px" viewBox="0 0 112 48" version="1.1" xmlns="http://www.w3.org/2000/svg" xmlns:xlink="http://www.w3.org/1999/xlink">
    <title>逻辑模型112-40</title>
    <g id="深色" stroke="none" stroke-width="1" fill="none" fill-rule="evenodd">
        <g id="模型-新建模型-弹窗备份" transform="translate(-1257.000000, -446.000000)">
            <g id="逻辑模型112-40" transform="translate(1257.000000, 446.000000)">
                <rect id="矩形" fill="#FFFFFF" x="0" y="0" width="112" height="48"></rect>
                <path d="M52,11.0605814 L54.0629004,11.0605814 L54.0629004,19.1986833 L58.9522423,19.1986833 L58.9522423,20.9824691 L52,20.9824691 L52,11.0605814 Z M66.313046,14.5743028 C66.929237,15.3506423 67.2373326,16.2683384 67.2373326,17.3273911 C67.2373326,18.4043938 66.929237,19.3254555 66.313046,20.0905762 C65.696855,20.8556969 64.7614056,21.2382573 63.5066977,21.2382573 C62.2519899,21.2382573 61.3165405,20.8556969 60.7003494,20.0905762 C60.0841584,19.3254555 59.7760629,18.4043938 59.7760629,17.3273911 C59.7760629,16.2683384 60.0841584,15.3506423 60.7003494,14.5743028 C61.3165405,13.7979634 62.2519899,13.4097936 63.5066977,13.4097936 C64.7614056,13.4097936 65.696855,13.7979634 66.313046,14.5743028 Z M63.5,15.032029 C62.941856,15.032029 62.512085,15.2306014 62.2106872,15.6277461 C61.9092895,16.0248909 61.7585906,16.5914392 61.7585906,17.3273911 C61.7585906,18.0633429 61.9092895,18.6310131 62.2106872,19.0304017 C62.512085,19.4297902 62.941856,19.6294844 63.5,19.6294844 C64.058144,19.6294844 64.4867987,19.4297902 64.7859639,19.0304017 C65.0851291,18.6310131 65.2347117,18.0633429 65.2347117,17.3273911 C65.2347117,16.5914392 65.0851291,16.0248909 64.7859639,15.6277461 C64.4867987,15.2306014 64.058144,15.032029 63.5,15.032029 Z M70.6665696,22.2681411 C70.8719666,22.4431541 71.2180159,22.5306606 71.7047175,22.5306606 C72.392351,22.5306606 72.8522617,22.2995537 73.0844496,21.83734 C73.2362648,21.5411643 73.3121724,21.0430505 73.3121724,20.3429987 L73.3121724,19.87181 C73.1291011,20.1859358 72.9326344,20.4215302 72.7227723,20.5785931 C72.3432343,20.8702813 71.849835,21.0161255 71.2425743,21.0161255 C70.3048923,21.0161255 69.5558629,20.6851715 68.9954863,20.0232636 C68.4351097,19.3613556 68.1549214,18.4649752 68.1549214,17.3341223 C68.1549214,16.2436571 68.4250631,15.3270829 68.9653465,14.5843997 C69.50563,13.8417166 70.2714036,13.470375 71.2626674,13.470375 C71.6288099,13.470375 71.9480683,13.5264689 72.2204426,13.6386567 C72.6848185,13.8316197 73.0598913,14.1861331 73.345661,14.7021969 L73.345661,13.645388 L75.2009319,13.645388 L75.2009319,20.6055182 C75.2009319,21.5523831 75.0424189,22.2658974 74.7253931,22.7460611 C74.1806445,23.5717632 73.1357989,23.9846142 71.5908561,23.9846142 C70.6576393,23.9846142 69.8963308,23.8006263 69.3069307,23.4326503 C68.7175306,23.0646744 68.3915745,22.5149543 68.3290623,21.7834899 L70.4053582,21.7834899 C70.45894,22.0078655 70.5460105,22.1694159 70.6665696,22.2681411 Z M70.3450786,18.4784378 C70.6040575,19.0977143 71.0684333,19.4073526 71.7382062,19.4073526 C72.1847214,19.4073526 72.5620268,19.2379491 72.8701223,18.8991419 C73.1782178,18.5603348 73.3322656,18.0207116 73.3322656,17.2802722 C73.3322656,16.5847079 73.1860318,16.0551816 72.8935644,15.6916932 C72.6010969,15.3282047 72.2092798,15.1464605 71.718113,15.1464605 C71.0483401,15.1464605 70.5861969,15.4628301 70.3316832,16.0955692 C70.1977286,16.4321326 70.1307513,16.8472274 70.1307513,17.3408536 C70.1307513,17.7671672 70.2021937,18.1463619 70.3450786,18.4784378 Z M78.9449621,13.645388 L78.9449621,20.9824691 L77.0093186,20.9824691 L77.0093186,13.645388 L78.9449621,13.645388 Z M78.9449621,11 L78.9449621,12.7703232 L77.0093186,12.7703232 L77.0093186,11 L78.9449621,11 Z M87.1094933,16.2773134 L85.1537566,16.2773134 C85.1180353,16.0035752 85.0264997,15.7567621 84.8791497,15.536874 C84.6648224,15.2406983 84.3321685,15.0926104 83.8811881,15.0926104 C83.2382062,15.0926104 82.7983887,15.4134675 82.5617356,16.0551816 C82.4367113,16.3962325 82.3741992,16.8494711 82.3741992,17.4148976 C82.3741992,17.9533989 82.4367113,18.3864438 82.5617356,18.7140321 C82.7894584,19.3243337 83.218113,19.6294844 83.8476995,19.6294844 C84.2942147,19.6294844 84.6112405,19.5083216 84.7987769,19.265996 C84.9863133,19.0236704 85.1001747,18.7095446 85.1403611,18.3236186 L87.0894001,18.3236186 C87.0447486,18.9069951 86.8348864,19.458959 86.4598136,19.9795103 C85.8614832,20.818675 84.9751505,21.2382573 83.8008154,21.2382573 C82.6264803,21.2382573 81.7624733,20.8882314 81.2087944,20.1881796 C80.6551155,19.4881278 80.3782761,18.5794068 80.3782761,17.4620164 C80.3782761,16.2010257 80.684139,15.2205045 81.2958649,14.5204527 C81.9075908,13.8204009 82.7515046,13.470375 83.8276063,13.470375 C84.7429625,13.470375 85.4919918,13.6768006 86.0746942,14.0896516 C86.6573966,14.5025027 87.0023296,15.2317233 87.1094933,16.2773134 Z M88.696855,14.4396775 C89.2014172,13.7934758 90.0676568,13.470375 91.2955737,13.470375 C92.094836,13.470375 92.8047952,13.6296817 93.4254514,13.948295 C94.0461076,14.2669083 94.3564356,14.8682348 94.3564356,15.7522746 L94.3564356,19.1179081 C94.3564356,19.3512587 94.3609008,19.6339719 94.3698311,19.9660478 C94.3832266,20.2173484 94.4211804,20.3878739 94.4836925,20.4776241 C94.5462046,20.5673743 94.6399728,20.6414183 94.7649971,20.6997559 L94.7649971,20.9824691 L92.6887012,20.9824691 C92.6306542,20.8343812 92.5904679,20.6952684 92.5681421,20.5651306 C92.5458163,20.4349927 92.5279557,20.2869048 92.5145603,20.1208669 C92.2511163,20.4080677 91.9474859,20.652637 91.6036692,20.854575 C91.1928752,21.0924131 90.7284993,21.2113322 90.2105416,21.2113322 C89.5496991,21.2113322 89.0038342,21.0217348 88.572947,20.6425401 C88.1420598,20.2633454 87.9266162,19.7259659 87.9266162,19.0304017 C87.9266162,18.1284119 88.2726655,17.475479 88.9647641,17.0716029 C89.3443021,16.8517149 89.9024461,16.694652 90.6391963,16.6004142 L91.2888759,16.519639 C91.641623,16.4747639 91.8939041,16.41867 92.0457193,16.3513573 C92.3180936,16.2346821 92.4542807,16.0529378 92.4542807,15.8061247 C92.4542807,15.5054614 92.3504659,15.297914 92.1428363,15.1834825 C91.9352068,15.069051 91.6304601,15.0118352 91.2285964,15.0118352 C90.777616,15.0118352 90.4583576,15.124023 90.2708212,15.3483986 C90.1368666,15.5144365 90.0475636,15.738812 90.0029121,16.0215253 L88.1610367,16.0215253 C88.2012231,15.3798111 88.3798292,14.8525285 88.696855,14.4396775 Z M90.1167734,19.5958281 C90.2953795,19.743916 90.514172,19.8179599 90.7731508,19.8179599 C91.1839449,19.8179599 91.5623665,19.6967971 91.9084158,19.4544715 C92.2544652,19.2121459 92.4341875,18.770126 92.447583,18.1284119 L92.447583,17.4148976 C92.3270239,17.4911852 92.2053485,17.5528885 92.0825568,17.6000074 C91.9597651,17.6471263 91.7912056,17.6908795 91.5768783,17.7312671 L91.1482236,17.8120423 C90.7463599,17.8838425 90.4583576,17.971349 90.2842167,18.0745617 C89.9895166,18.2495747 89.8421666,18.5210691 89.8421666,18.889045 C89.8421666,19.2166334 89.9337022,19.4522277 90.1167734,19.5958281 Z M96.0911474,11.0605814 L98,11.0605814 L98,20.9824691 L96.0911474,20.9824691 L96.0911474,11.0605814 Z M57.2945545,26.8492492 L59.2034071,26.8492492 L62.0298486,35.2094829 L64.8361969,26.8492492 L66.7249563,26.8492492 L66.7249563,36.7374806 L65.4590856,36.7374806 L65.4590856,30.901472 C65.4590856,30.699534 65.4635508,30.3652144 65.4724811,29.8985132 C65.4814114,29.431812 65.4858765,28.9314545 65.4858765,28.3974406 L62.6795282,36.7374806 L61.3600757,36.7374806 L58.5336342,28.3974406 L58.5336342,28.7003477 C58.5336342,28.9426733 58.5392157,29.3117711 58.5503786,29.8076411 C58.5615414,30.3035111 58.5671229,30.6681214 58.5671229,30.901472 L58.5671229,36.7374806 L57.2945545,36.7374806 L57.2945545,26.8492492 Z M71.4401573,35.9566536 C72.2394195,35.9566536 72.787517,35.6526247 73.0844496,35.0445669 C73.3813823,34.4365091 73.5298486,33.7600168 73.5298486,33.0150899 C73.5298486,32.3419632 73.4226849,31.7944868 73.2083576,31.3726607 C72.869006,30.708509 72.2840711,30.3764332 71.4535527,30.3764332 C70.7168026,30.3764332 70.1809843,30.6591464 69.8460978,31.2245728 C69.5112114,31.7899993 69.3437682,32.472101 69.3437682,33.270878 C69.3437682,34.0382425 69.5112114,34.6777128 69.8460978,35.1892891 C70.1809843,35.7008654 70.7123374,35.9566536 71.4401573,35.9566536 Z M71.4870414,29.3196242 C72.4113279,29.3196242 73.1927296,29.6292625 73.8312464,30.2485391 C74.4697632,30.8678157 74.7890215,31.7787805 74.7890215,32.9814335 C74.7890215,34.143699 74.5077169,35.1040264 73.9451077,35.8624159 C73.3824985,36.6208053 72.5095613,37 71.3262959,37 C70.3394972,37 69.5558629,36.6645585 68.9753931,35.9936756 C68.3949233,35.3227926 68.1046884,34.4219247 68.1046884,33.2910718 C68.1046884,32.0794437 68.4105513,31.1146288 69.0222772,30.396627 C69.6340031,29.6786251 70.4555911,29.3196242 71.4870414,29.3196242 Z M76.9858765,33.2170279 C76.9858765,33.9888798 77.1488546,34.6350815 77.4748107,35.1556328 C77.8007668,35.6761841 78.3231897,35.9364598 79.0420792,35.9364598 C79.6002233,35.9364598 80.0590177,35.6952561 80.4184624,35.2128486 C80.7779072,34.7304411 80.9576296,34.0382425 80.9576296,33.1362527 C80.9576296,32.2252879 80.7723258,31.5510393 80.4017181,31.1135069 C80.0311105,30.6759746 79.5734323,30.4572084 79.0286838,30.4572084 C78.421423,30.4572084 77.92914,30.690559 77.5518346,31.1572602 C77.1745292,31.6239613 76.9858765,32.3105506 76.9858765,33.2170279 Z M78.800961,29.4003994 C79.3501747,29.4003994 79.8100854,29.5170747 80.1806931,29.7504253 C80.3950204,29.8850507 80.6383712,30.120645 80.9107455,30.4572084 L80.9107455,26.8155929 L82.0694525,26.8155929 L82.0694525,36.7374806 L80.9844205,36.7374806 L80.9844205,35.7345218 C80.7031159,36.1787854 80.370462,36.4996425 79.9864589,36.697093 C79.6024558,36.8945435 79.1626383,36.9932687 78.6670064,36.9932687 C77.8677441,36.9932687 77.1756455,36.6555835 76.5907105,35.980213 C76.0057756,35.3048426 75.7133081,34.4062184 75.7133081,33.2843406 C75.7133081,32.2342629 75.980101,31.32442 76.5136867,30.5548117 C77.0472724,29.7852035 77.8096971,29.4003994 78.800961,29.4003994 Z M86.8382353,29.3667431 C87.3472627,29.3667431 87.840662,29.486784 88.3184333,29.7268659 C88.7962046,29.9669478 89.1601145,30.2777079 89.4101631,30.6591464 C89.6512813,31.0226348 89.8120268,31.4467046 89.8923995,31.9313559 C89.963842,32.2634317 89.9995632,32.7929581 89.9995632,33.5199349 L84.7418462,33.5199349 C84.764172,34.2513993 84.9360804,34.8381414 85.2575713,35.2801613 C85.5790623,35.7221811 86.0769268,35.9431911 86.7511648,35.9431911 C87.3807513,35.9431911 87.883081,35.7345218 88.2581538,35.3171832 C88.4724811,35.0748576 88.6242963,34.7943881 88.7135993,34.4757748 L89.8990973,34.4757748 C89.8678412,34.740538 89.7640264,35.0355919 89.5876529,35.3609365 C89.4112794,35.686281 89.2136964,35.9521661 88.9949039,36.1585916 C88.6287614,36.5175925 88.1755484,36.7599181 87.635265,36.8855685 C87.3450301,36.9573686 87.0168414,36.9932687 86.6506989,36.9932687 C85.7576684,36.9932687 85.0008251,36.6668023 84.3801689,36.0138694 C83.7595127,35.3609365 83.4491846,34.446606 83.4491846,33.270878 C83.4491846,32.1131001 83.7617453,31.1729664 84.3868666,30.4504771 C85.011988,29.7279878 85.8291109,29.3667431 86.8382353,29.3667431 Z M88.7604834,32.5573637 C88.7113667,32.0323249 88.5975053,31.6127426 88.4188992,31.2986168 C88.088478,30.7152403 87.5370316,30.423552 86.7645603,30.423552 C86.2108814,30.423552 85.7465055,30.6243682 85.3714327,31.0260004 C84.9963599,31.4276327 84.7976606,31.9380871 84.7753349,32.5573637 L88.7604834,32.5573637 Z M91.5132499,26.8492492 L92.718841,26.8492492 L92.718841,36.7374806 L91.5132499,36.7374806 L91.5132499,26.8492492 Z" id="logical-model" fill="#333333" fill-rule="nonzero"></path>
                <g id="逻辑模型logo" transform="translate(12.000000, 8.000000)">
                    <path d="M16,10 L16,12 C17.6568542,12 19,13.3431458 19,15 L19,16 L28,16 L28,22 L27,22 L27,17 L19,17 L19,19 L12,19 L12,17 L5,17 L5,22 L4,22 L4,16 L12,16 L12,15 C12,13.3431458 13.3431458,12 15,12 L15,10 L16,10 Z M16,13 L15,13 C14.6356829,13 14.2941173,13.0974103 13.9999275,13.2676063 L14,14 L13.2676063,13.9999275 C13.0974103,14.2941173 13,14.6356829 13,15 L13,17 L14,17 L14,18 L17,18 L17,17 L18,17 L18,15 C18,14.6358397 17.9026735,14.2944111 17.7326133,14.0003072 L17,14 L17.0004881,13.2678468 C16.7467415,13.1209668 16.4577302,13.0282437 16.1492623,13.0054857 L16,13 Z M15,16 L15,17 L14,17 L14,16 L15,16 Z M17,16 L17,17 L16,17 L16,16 L17,16 Z M16,15 L16,16 L15,16 L15,15 L16,15 Z M15,14 L15,15 L14,15 L14,14 L15,14 Z M17,14 L17,15 L16,15 L16,14 L17,14 Z" id="形状结合" fill="#999999"></path>
                    <path d="M10,22 C10.5522847,22 11,22.4477153 11,23 L11,31 C11,31.5522847 10.5522847,32 10,32 L1,32 C0.44771525,32 0,31.5522847 0,31 L0,23 C0,22.4477153 0.44771525,22 1,22 L10,22 Z M10,23 L1,23 L1,31 L10,31 L10,23 Z M20,0 C20.5522847,0 21,0.44771525 21,1 L21,9 C21,9.55228475 20.5522847,10 20,10 L11,10 C10.4477153,10 10,9.55228475 10,9 L10,1 C10,0.44771525 10.4477153,0 11,0 L20,0 Z M20,1 L11,1 L11,9 L20,9 L20,1 Z M31,22 C31.5522847,22 32,22.4477153 32,23 L32,31 C32,31.5522847 31.5522847,32 31,32 L22,32 C21.4477153,32 21,31.5522847 21,31 L21,23 C21,22.4477153 21.4477153,22 22,22 L31,22 Z M31,23 L22,23 L22,31 L31,31 L31,23 Z" id="形状结合" fill="#879CB2" fill-rule="nonzero"></path>
                    <path d="M1,22 L10,22 C10.5522847,22 11,22.4477153 11,23 L11,26 L11,26 L0,26 L0,23 C-6.76353751e-17,22.4477153 0.44771525,22 1,22 Z M22,22 L31,22 C31.5522847,22 32,22.4477153 32,23 L32,26 L32,26 L21,26 L21,23 C21,22.4477153 21.4477153,22 22,22 Z" id="形状结合" fill-opacity="0.401688156" fill="#5A86B6" fill-rule="nonzero"></path>
                    <path d="M10,22 C10.5522847,22 11,22.4477153 11,23 L11,26 L0,26 L0,23 C0,22.4477153 0.44771525,22 1,22 L10,22 Z M10,23 L1,23 L1,25 L10,25 L10,23 Z M11,0 L20,0 C20.5522847,-1.01453063e-16 21,0.44771525 21,1 L21,4 L21,4 L10,4 L10,1 C10,0.44771525 10.4477153,1.01453063e-16 11,0 Z M31,22 C31.5522847,22 32,22.4477153 32,23 L32,26 L21,26 L21,23 C21,22.4477153 21.4477153,22 22,22 L31,22 Z M31,23 L22,23 L22,25 L31,25 L31,23 Z" id="形状结合" fill="#5A86B6" fill-rule="nonzero"></path>
                </g>
            </g>
        </g>
    </g>
</svg>