<svg xmlns="http://www.w3.org/2000/svg" width="16.004" height="14.001" viewBox="0 0 16.004 14.001">
  <path id="路径_3371" data-name="路径 3371" d="M489.526,349.187a1.014,1.014,0,0,1-.555-.165,28.221,28.221,0,0,1-5.588-4.811,7.788,7.788,0,0,1-1.855-4.579c0-.036,0-.073,0-.109a4.623,4.623,0,0,1,4.808-4.332,4.972,4.972,0,0,1,3.192,1.125,5.005,5.005,0,0,1,3.16-1.126h.042a4.621,4.621,0,0,1,4.8,4.334.759.759,0,0,1,0,.107,7.763,7.763,0,0,1-1.837,4.56,28.218,28.218,0,0,1-5.606,4.831A1.014,1.014,0,0,1,489.526,349.187Z" transform="translate(-481.528 -335.186)" fill="#7d8493"/>
</svg>
