<?xml version="1.0" encoding="UTF-8"?>
<svg width="20px" height="20px" viewBox="0 0 20 20" version="1.1" xmlns="http://www.w3.org/2000/svg" xmlns:xlink="http://www.w3.org/1999/xlink">
    <title>列表-男</title>
    <g id="系统管理" stroke="none" stroke-width="1" fill="none" fill-rule="evenodd">
        <path d="M9.60660172,1.60660172 C12.9203102,1.60660172 15.6066017,4.29289322 15.6066017,7.60660172 C15.6066017,10.5810595 13.4421886,13.0499916 10.6024161,13.524344 C10.6054243,13.5502321 10.6066017,13.5782794 10.6066017,13.6066017 L10.6066017,14.6066017 L14.6066017,14.6066017 C15.1588865,14.6066017 15.6066017,15.054317 15.6066017,15.6066017 C15.6066017,16.1588865 15.1588865,16.6066017 14.6066017,16.6066017 L10.6066017,16.6066017 L10.6066017,18.6066017 C10.6066017,19.1588865 10.1588865,19.6066017 9.60660172,19.6066017 C9.05431697,19.6066017 8.60660172,19.1588865 8.60660172,18.6066017 L8.60660172,16.6066017 L4.60660172,16.6066017 C4.05431697,16.6066017 3.60660172,16.1588865 3.60660172,15.6066017 C3.60660172,15.054317 4.05431697,14.6066017 4.60660172,14.6066017 L8.60660172,14.6066017 L8.60660172,13.6066017 L8.61078731,13.524344 C5.77101488,13.0499916 3.60660172,10.5810595 3.60660172,7.60660172 C3.60660172,4.29289322 6.29289322,1.60660172 9.60660172,1.60660172 Z M9.60660172,3.60660172 C7.39746272,3.60660172 5.60660172,5.39746272 5.60660172,7.60660172 C5.60660172,9.81574072 7.39746272,11.6066017 9.60660172,11.6066017 C11.8157407,11.6066017 13.6066017,9.81574072 13.6066017,7.60660172 C13.6066017,5.39746272 11.8157407,3.60660172 9.60660172,3.60660172 Z" id="女" fill="#FF94D2" transform="translate(9.606602, 10.606602) rotate(45.000000) translate(-9.606602, -10.606602) "></path>
    </g>
</svg>