<?xml version="1.0" encoding="UTF-8"?>
<svg width="34px" height="34px" viewBox="0 0 34 34" version="1.1" xmlns="http://www.w3.org/2000/svg" xmlns:xlink="http://www.w3.org/1999/xlink">
    <title>加载(1)</title>
    <g id="元数据" stroke="none" stroke-width="1" fill="none" fill-rule="evenodd">
        <g id="1.5-数据集/全部元数据-详情（质量-1）" transform="translate(-970.000000, -695.000000)" fill="" fill-rule="nonzero">
            <g id="Group" transform="translate(923.000000, 695.000000)">
                <g id="加载(1)" transform="translate(47.000000, 0.000000)">
                    <path d="M16.9999952,0 C7.74569413,0 0.217267702,7.39742858 0.00488991343,16.6017143 C0.200179822,8.57042858 6.30787208,2.12742861 13.8118873,2.12742857 C21.4403998,2.12742857 27.626208,8.78657142 27.626208,17 C27.6221574,18.7561106 29.0491321,20.1833567 30.814316,20.1887143 C32.5785453,20.1820198 34.0040359,18.7551656 33.9999914,17 C33.9999914,7.61114288 26.3885581,0 16.9999952,0 Z M17.0000038,34 C26.2567374,34 33.7827227,26.6025714 33.9951006,17.3982857 C33.7998106,25.4295714 27.6921184,31.875 20.1881032,31.875 C12.5595907,31.875 6.37378243,25.2134285 6.37378243,17 C6.37648415,15.2448369 4.94990341,13.8190715 3.1856745,13.8137143 C1.42239988,13.8204077 -0.00269721355,15.2457817 3.83321519e-06,17 C3.83321519e-06,26.3888571 7.61143233,34 17.0000038,34 Z" id="Shape"></path>
                </g>
            </g>
        </g>
    </g>
</svg>