<?xml version="1.0" encoding="utf-8"?>
<!-- Generator: Adobe Illustrator 23.1.1, SVG Export Plug-In . SVG Version: 6.00 Build 0)  -->
<svg version="1.1" id="图层_1" xmlns="http://www.w3.org/2000/svg" xmlns:xlink="http://www.w3.org/1999/xlink" x="0px" y="0px"
	 viewBox="0 0 15.7 15.8" style="enable-background:new 0 0 15.7 15.8;" xml:space="preserve">
<style type="text/css">
	.st0{fill:#7D8493;}
</style>
<path id="路径_2559" class="st0" d="M9.2,7h6c0.3,0,0.5-0.2,0.5-0.5V6.5C15.4,3,12.7,0.3,9.3,0C9,0,8.8,0.2,8.7,0.4v6.1
	C8.8,6.8,9,7,9.2,7z"/>
<path id="路径_2560" class="st0" d="M5.7,2.8v4.6c0,1.8,1.1,2.6,2.3,2.6h4.9c-0.7,2.5-2.9,4.2-5.5,4.2c-3.2,0-5.8-2.6-5.8-5.8
	c0,0,0,0,0,0l0,0C1.5,5.8,3.2,3.6,5.7,2.8 M6.7,1L6.7,1C2.6,1.4-0.4,5.1,0,9.2c0.4,3.7,3.5,6.6,7.2,6.7l0,0c3.8,0,7-3,7.3-6.8
	c0-0.3-0.2-0.6-0.6-0.7H7.9c-0.3,0-0.6-0.3-0.6-1V1.6C7.3,1.3,7,1,6.7,1L6.7,1z"/>
</svg>
