<?xml version="1.0" encoding="utf-8"?>
<!-- Generator: Adobe Illustrator 23.1.1, SVG Export Plug-In . SVG Version: 6.00 Build 0)  -->
<svg version="1.1" id="普通用户" xmlns="http://www.w3.org/2000/svg" xmlns:xlink="http://www.w3.org/1999/xlink" x="0px"
	 y="0px" viewBox="0 0 13 15" style="enable-background:new 0 0 13 15;" xml:space="preserve">
<style type="text/css">
	.st0{fill:#B2D1FF;}
	.st1{fill:#4386F5;}
</style>
<path id="路径_2717" class="st0" d="M6.5,7.4c2.1,0,3.7-1.7,3.7-3.7S8.6,0,6.5,0C4.5,0,2.8,1.6,2.8,3.7c0,0,0,0,0,0l0,0
	C2.8,5.8,4.4,7.4,6.5,7.4L6.5,7.4z"/>
<path id="路径_2718" class="st1" d="M9.1,8.5H8.6c-1.3,0.6-2.9,0.6-4.2,0H3.9C1.7,8.5,0,10.2,0,12.4c0,0,0,0,0,0v1.2
	C0,14.4,0.6,15,1.4,15l0,0h10.2c0.8,0,1.4-0.6,1.4-1.4v0v-1.2C13,10.2,11.3,8.5,9.1,8.5C9.1,8.5,9.1,8.5,9.1,8.5L9.1,8.5z"/>
</svg>
