<?xml version="1.0" encoding="UTF-8"?>
<svg width="26px" height="24px" viewBox="0 0 26 24" version="1.1" xmlns="http://www.w3.org/2000/svg" xmlns:xlink="http://www.w3.org/1999/xlink">
    <title>icon概念模型</title>
    <g id="设计方案" stroke="none" stroke-width="1" fill="none" fill-rule="evenodd">
        <g id="1、首页" transform="translate(-643.000000, -544.000000)">
            <g id="内容" transform="translate(320.000000, 190.000000)">
                <g id="编组" transform="translate(292.000000, 221.000000)">
                    <g id="编组-2备份-10" transform="translate(0.000000, 102.000000)">
                        <g id="icon概念模型" transform="translate(31.000000, 31.000000)">
                            <rect id="矩形" stroke-opacity="0.205720061" stroke="#539FFD" stroke-width="0.8" fill-opacity="0.1" fill="#539FFD" fill-rule="nonzero" x="11.4" y="0.4" width="14.2" height="23.2" rx="1"></rect>
                            <path d="M22.4285714,3.4 L23.0285714,8 L14.4285714,8.6 L13.8285714,4 L22.4285714,3.4 Z" id="矩形备份-20" stroke="#409EFF" stroke-width="0.8" fill-opacity="0.2" fill="#409EFF" fill-rule="nonzero"></path>
                            <path d="M22.4285714,15.4 L23.0285714,20 L14.4285714,20.6 L13.8285714,16 L22.4285714,15.4 Z" id="矩形备份-20备份" stroke="#409EFF" stroke-width="0.8" fill-opacity="0.2" fill="#409EFF" fill-rule="nonzero"></path>
                            <polygon id="矩形" fill="#409EFF" points="18.1 9 18.9 9 18.9 15 18.1 15"></polygon>
                            <polygon id="矩形备份-27" fill="#A0AAB9" points="8 5.6 14 5.6 14 6.4 8 6.4"></polygon>
                            <polygon id="矩形备份-29" fill="#A0AAB9" points="8 17.6 14 17.6 14 18.4 8 18.4"></polygon>
                            <ellipse id="椭圆形备份-3" stroke="#979797" stroke-width="0.8" fill="#FFFFFF" fill-rule="nonzero" cx="4.5" cy="18" rx="4.1" ry="2.6"></ellipse>
                            <rect id="矩形备份-21" stroke="#979797" stroke-width="0.8" fill="#FFFFFF" fill-rule="nonzero" x="0.4" y="3.4" width="7.95" height="5.2" rx="1"></rect>
                        </g>
                    </g>
                </g>
            </g>
        </g>
    </g>
</svg>