<?xml version="1.0" encoding="UTF-8"?>
<svg width="24px" height="24px" viewBox="0 0 24 24" version="1.1" xmlns="http://www.w3.org/2000/svg" xmlns:xlink="http://www.w3.org/1999/xlink">
    <title>icon主题域分组</title>
    <g id="设计方案" stroke="none" stroke-width="1" fill="none" fill-rule="evenodd">
        <g id="1、首页" transform="translate(-646.000000, -442.000000)">
            <g id="内容" transform="translate(320.000000, 190.000000)">
                <g id="编组" transform="translate(292.000000, 221.000000)">
                    <g id="icon主题域分组" transform="translate(34.000000, 31.000000)">
                        <path d="M18.0545725,0 C18.5928901,0 18.9989706,0.466992637 18.9989706,1.01106155 L18.9989706,11.0813975 C18.9989706,11.3575263 18.775124,11.581373 18.4989951,11.581373 C18.2228663,11.581373 17.9990197,11.3575263 17.9990197,11.0813975 L17.9990197,1.01106155 C17.9990197,1.00696932 17.9993449,1.00406956 18.0002446,1.00204897 L0.995951179,0.999950983 L0.999950983,1.01106155 L0.999950983,21.4878356 C0.999950983,21.4919278 0.999625745,21.4948276 0.998725989,21.4968481 L7.88950821,21.4989461 C8.14591356,21.4989461 8.35723886,21.6919568 8.38612,21.9406139 L8.3894837,21.9989216 C8.3894837,22.2750505 8.16563705,22.4988971 7.88950821,22.4988971 L0.94439815,22.4988971 C0.406080554,22.4988971 0,22.0319045 0,21.4878356 L0,1.01106155 C0,0.466992637 0.406080554,0 0.94439815,0 L18.0545725,0 Z" id="路径" fill="#409EFF" fill-rule="nonzero"></path>
                        <rect id="矩形" fill="#409EFF" x="3.99980393" y="3.99980393" width="1.99990197" height="1.99990197" rx="0.999950983"></rect>
                        <rect id="矩形备份-13" fill="#409EFF" x="3.99980393" y="7.99960786" width="1.99990197" height="1.99990197" rx="0.999950983"></rect>
                        <rect id="矩形备份-15" fill="#409EFF" x="3.99980393" y="11.9994118" width="1.99990197" height="1.99990197" rx="0.999950983"></rect>
                        <path d="M7.74962012,4.24979168 L14.2492035,4.24979168 C14.6633967,4.24979168 14.9991667,4.58556165 14.9991667,4.99975491 C14.9991667,5.41394817 14.6633967,5.74971815 14.2492035,5.74971815 L7.74962012,5.74971815 C7.33542686,5.74971815 6.99965688,5.41394817 6.99965688,4.99975491 C6.99965688,4.58556165 7.33542686,4.24979168 7.74962012,4.24979168 Z" id="矩形备份-12" fill="#409EFF"></path>
                        <path d="M7.74962012,8.24959561 L14.2492035,8.24959561 C14.6633967,8.24959561 14.9991667,8.58536559 14.9991667,8.99955884 C14.9991667,9.4137521 14.6633967,9.74952208 14.2492035,9.74952208 L7.74962012,9.74952208 C7.33542686,9.74952208 6.99965688,9.4137521 6.99965688,8.99955884 C6.99965688,8.58536559 7.33542686,8.24959561 7.74962012,8.24959561 Z" id="矩形备份-14" fill="#409EFF"></path>
                        <g id="编组-16" transform="translate(9.621834, 11.142216)">
                            <path d="M0.263890871,3.58589262 L4.273631,0.178200231 C4.56905784,-0.0728296648 5.00282844,-0.0548076503 5.27655567,0.208054539 L5.33510907,0.271070948 L7.40515383,2.7696657 C7.66663857,3.08528129 7.62576743,3.55247776 7.31345282,3.81789642 L3.3037127,7.22558881 C3.00828586,7.47661871 2.57451526,7.45859669 2.30078803,7.1957345 L2.24223462,7.13271809 L0.172189877,4.63412334 C-0.0892948723,4.31850774 -0.0484237339,3.85131128 0.263890871,3.58589262 Z" id="矩形" fill-opacity="0.8" fill="#409EFF" fill-rule="nonzero"></path>
                            <path d="M2.0409198,9.56157712 L6.05065997,6.15388473 C6.34608674,5.90285485 6.77985734,5.92087684 7.0535846,6.18373902 L7.11213804,6.24675547 L8.7499678,8.223661 C9.0114526,8.53927662 8.97058145,9.00647305 8.65826683,9.27189171 L4.64852674,12.6795841 C4.35309987,12.930614 3.91932928,12.912592 3.64560205,12.6497298 L3.58704866,12.5867134 L1.94921881,10.6098078 C1.68773408,10.2941923 1.72860519,9.82699577 2.0409198,9.56157712 Z" id="矩形备份-14" fill="#F4D86A"></path>
                            <path d="M11.2691839,2.66793058 L14.2036586,6.20990376 C14.4651433,6.52551934 14.4242722,6.99271583 14.1119576,7.25813449 L12.1625922,8.91482997 C11.8671654,9.16585989 11.4333947,9.1478379 11.1596675,8.88497568 L11.1011142,8.82195928 L8.16663955,5.27998609 C7.90515475,4.96437047 7.9460259,4.49717404 8.25834051,4.23175538 L10.2077059,2.5750599 C10.5031327,2.32402998 10.9369033,2.34205199 11.2106306,2.60491419 L11.2691839,2.66793058 Z" id="矩形备份-11" fill="#72D8A9"></path>
                        </g>
                    </g>
                </g>
            </g>
        </g>
    </g>
</svg>