<?xml version="1.0" encoding="UTF-8"?>
<svg width="24px" height="24px" viewBox="0 0 24 24" version="1.1" xmlns="http://www.w3.org/2000/svg" xmlns:xlink="http://www.w3.org/1999/xlink">
    <title>icon主题域</title>
    <g id="设计方案" stroke="none" stroke-width="1" fill="none" fill-rule="evenodd">
        <g id="1、首页" transform="translate(-863.000000, -442.000000)">
            <g id="内容" transform="translate(320.000000, 190.000000)">
                <g id="编组" transform="translate(292.000000, 221.000000)">
                    <g id="编组-2备份" transform="translate(217.000000, 0.000000)">
                        <g id="icon主题域" transform="translate(34.000000, 31.000000)">
                            <g id="编组-11" fill="#409EFF">
                                <path d="M18.3770715,0 C18.9240458,0 19.3366566,0.474502379 19.3366566,1.0273205 L19.3366566,11.2595982 C19.3366566,11.5401675 19.1092102,11.7676139 18.8286409,11.7676139 C18.5480717,11.7676139 18.3206253,11.5401675 18.3206253,11.2595982 L18.3206253,1.0273205 C18.3206253,1.02316246 18.3209558,1.02021607 18.32187,1.01816299 L1.01196714,1.01603127 L1.01603127,1.0273205 L1.01603127,21.833383 C1.01603127,21.837541 1.0157008,21.8404874 1.01478657,21.8425405 L8.01637995,21.8446722 C8.27690858,21.8446722 8.49163222,22.0407867 8.52097779,22.2934425 L8.52439559,22.3526878 C8.52439559,22.6332571 8.29694924,22.8607035 8.01637995,22.8607035 L0.959585084,22.8607035 C0.412610764,22.8607035 0,22.3862011 0,21.833383 L0,1.0273205 C0,0.474502379 0.412610764,0 0.959585084,0 L18.3770715,0 Z" id="路径" fill-rule="nonzero"></path>
                                <rect id="矩形" x="4.06412506" y="4.06412506" width="2.03206253" height="2.03206253" rx="1"></rect>
                                <rect id="矩形备份-13" x="4.06412506" y="8.12825012" width="2.03206253" height="2.03206253" rx="1"></rect>
                                <rect id="矩形备份-15" x="4.06412506" y="12.1923752" width="2.03206253" height="2.03206253" rx="1"></rect>
                                <path d="M7.87424231,4.31813288 L14.5105081,4.31813288 C14.931362,4.31813288 15.2725315,4.6593024 15.2725315,5.08015633 C15.2725315,5.50101026 14.931362,5.84217978 14.5105081,5.84217978 L7.87424231,5.84217978 C7.45338838,5.84217978 7.11221886,5.50101026 7.11221886,5.08015633 C7.11221886,4.6593024 7.45338838,4.31813288 7.87424231,4.31813288 Z" id="矩形备份-12"></path>
                                <path d="M7.87424231,8.38225794 L14.5105081,8.38225794 C14.931362,8.38225794 15.2725315,8.72342746 15.2725315,9.14428139 C15.2725315,9.56513532 14.931362,9.90630484 14.5105081,9.90630484 L7.87424231,9.90630484 C7.45338838,9.90630484 7.11221886,9.56513532 7.11221886,9.14428139 C7.11221886,8.72342746 7.45338838,8.38225794 7.87424231,8.38225794 Z" id="矩形备份-14"></path>
                            </g>
                            <g id="主题域备份" transform="translate(11.289035, 11.945845)">
                                <path d="M5.23750463,1.14933267 L5.73750463,6.2535359 L2.66536394,6.7535359 L2.16536394,1.64933267 L5.23750463,1.14933267 Z" id="矩形" stroke="#409EFF" fill-opacity="0.2" fill="#409EFF" transform="translate(3.951434, 3.951434) rotate(-315.000000) translate(-3.951434, -3.951434) "></path>
                                <path d="M8.58194088,6.46069614 L10.1380503,6.46069614 C10.6903351,6.46069614 11.1380503,6.90841139 11.1380503,7.46069614 L11.1380503,10.5408525 C11.1380503,11.0931372 10.6903351,11.5408525 10.1380503,11.5408525 L8.58194088,11.5408525 C8.02965613,11.5408525 7.58194088,11.0931372 7.58194088,10.5408525 L7.58194088,7.46069614 C7.58194088,6.90841139 8.02965613,6.46069614 8.58194088,6.46069614 Z" id="矩形备份-19" fill="#F4D86A" transform="translate(9.359996, 9.000774) rotate(-315.000000) translate(-9.359996, -9.000774) "></path>
                                <rect id="矩形" fill="#409EFF" x="6.99952808" y="1.26256179" width="4.57214069" height="1.01603127" rx="0.508015633"></rect>
                                <rect id="矩形备份-17" fill="#409EFF" x="1.41135612" y="10.9148588" width="6.09618759" height="1.01603127" rx="0.508015633"></rect>
                                <rect id="矩形备份-16" fill="#409EFF" x="10.5556375" y="1.26256179" width="1.01603127" height="5.08015633" rx="0.508015633"></rect>
                                <rect id="矩形备份-18" fill="#409EFF" x="1.41135612" y="7.35874938" width="1.01603127" height="4.57214069" rx="0.508015633"></rect>
                            </g>
                        </g>
                    </g>
                </g>
            </g>
        </g>
    </g>
</svg>