<?xml version="1.0" encoding="UTF-8"?>
<svg width="26px" height="25px" viewBox="0 0 26 25" version="1.1" xmlns="http://www.w3.org/2000/svg" xmlns:xlink="http://www.w3.org/1999/xlink">
    <title>icon逻辑模型</title>
    <g id="设计方案" stroke="none" stroke-width="1" fill="none" fill-rule="evenodd">
        <g id="1、首页" transform="translate(-860.000000, -543.000000)" fill-rule="nonzero">
            <g id="内容" transform="translate(320.000000, 190.000000)">
                <g id="编组" transform="translate(292.000000, 221.000000)">
                    <g id="编组-2备份-8" transform="translate(217.000000, 102.000000)">
                        <g id="icon逻辑模型" transform="translate(31.000000, 30.000000)">
                            <path d="M10.5,13.6 L10.5,14.2 L5.5,14.2 L5.5,16.012207 L4.9,16.012207 L4.9,13.6 L10.5,13.6 Z M15.5,14.2 L15.5,13.6 L21.1,13.6 L21.1,16.012207 L20.5,16.012207 L20.5,14.2 L15.5,14.2 Z M13.3,9.04370117 L13.3,11.5555556 L12.7,11.5555556 L12.7,9.04370117 L13.3,9.04370117 Z" id="形状结合" fill="#999999"></path>
                            <path d="M17.9793701,0.4 L18.5793701,8.00543213 L8.00927734,8.60543213 L7.40927734,1 L17.9793701,0.4 Z" id="矩形" stroke="#999999" stroke-width="0.8" fill="#FFFFFF"></path>
                            <path d="M8.00927734,0 L17.9793701,0 C18.5316549,-1.01453063e-16 18.9793701,0.44771525 18.9793701,1 L18.9793701,4 L18.9793701,4 L7.00927734,4 L7.00927734,1 C7.00927734,0.44771525 7.45699259,1.01453063e-16 8.00927734,0 Z" id="矩形" fill="#409EFF"></path>
                            <g id="编组-19" transform="translate(15.934326, 16.012207)" stroke-width="0.8">
                                <path d="M9.06567383,0.4 L9.66567383,7.98779297 L1,8.58779297 L0.4,1 L9.06567383,0.4 Z" id="矩形备份-3" stroke="#A0AAB9" fill="#FFFFFF"></path>
                                <path d="M9.06567383,0.4 L9.66567383,3.6 L0.465673828,3.6 L0.465673828,1 L9.06567383,0.4 Z" id="矩形备份-3" stroke="#409EFF" fill-opacity="0.2" fill="#409EFF"></path>
                            </g>
                            <g id="编组-19" transform="translate(0.000000, 16.012207)" stroke-width="0.8">
                                <path d="M9.09692383,0.4 L9.69692383,7.98779297 L1,8.58779297 L0.4,1 L9.09692383,0.4 Z" id="矩形备份-3" stroke="#A0AAB9" fill="#FFFFFF"></path>
                                <path d="M9,0.4 L9.6,3.6 L0.4,3.6 L0.4,1 L9,0.4 Z" id="矩形备份-3" stroke="#409EFF" fill-opacity="0.2" fill="#409EFF"></path>
                            </g>
                            <path d="M13.2777778,11 C14.5050772,11 15.5,11.9949228 15.5,13.2222222 L15.5,16 L10.5,16 L10.5,13.2222222 C10.5,11.9949228 11.4949228,11 12.7222222,11 L13.2777778,11 Z M13.2777778,11.5555556 L12.7222222,11.5555556 C11.8346217,11.5555556 11.1090773,12.2494 11.0583848,13.1242929 L11.0555556,13.2222222 L11.0555556,14.8888889 L11.6111111,14.8888889 L11.6111111,15.4444444 L14.3888889,15.4444444 L14.3888889,14.8888889 L14.9444444,14.8888889 L14.9444444,13.2222222 C14.9444444,12.3346217 14.2506,11.6090773 13.3757071,11.5583848 L13.2777778,11.5555556 Z M14.3888889,14.3333333 L14.3888889,14.8888889 L13.8333333,14.8888889 L13.8333333,14.3333333 L14.3888889,14.3333333 Z M12.1666667,14.3333333 L12.1666667,14.8888889 L11.6111111,14.8888889 L11.6111111,14.3333333 L12.1666667,14.3333333 Z M13.8333333,13.7777778 L13.8333333,14.3333333 L13.2777778,14.3333333 L13.2777778,13.7777778 L13.8333333,13.7777778 Z M12.7222222,13.7777778 L12.7222222,14.3333333 L12.1666667,14.3333333 L12.1666667,13.7777778 L12.7222222,13.7777778 Z M13.2777778,13.2222222 L13.2777778,13.7777778 L12.7222222,13.7777778 L12.7222222,13.2222222 L13.2777778,13.2222222 Z M12.7222222,12.6666667 L12.7222222,13.2222222 L12.1666667,13.2222222 L12.1666667,12.6666667 L12.7222222,12.6666667 Z M13.8333333,12.6666667 L13.8333333,13.2222222 L13.2777778,13.2222222 L13.2777778,12.6666667 L13.8333333,12.6666667 Z M12.1666667,12.1111111 L12.1666667,12.6666667 L11.6111111,12.6666667 L11.6111111,12.1111111 L12.1666667,12.1111111 Z M14.3888889,12.1111111 L14.3888889,12.6666667 L13.8333333,12.6666667 L13.8333333,12.1111111 L14.3888889,12.1111111 Z" id="形状结合" fill="#999999"></path>
                        </g>
                    </g>
                </g>
            </g>
        </g>
    </g>
</svg>