<?xml version="1.0" encoding="UTF-8"?>
<svg width="26px" height="24px" viewBox="0 0 26 24" version="1.1" xmlns="http://www.w3.org/2000/svg" xmlns:xlink="http://www.w3.org/1999/xlink">
    <title>icon业务对象</title>
    <g id="设计方案" stroke="none" stroke-width="1" fill="none" fill-rule="evenodd">
        <g id="1、首页" transform="translate(-1297.000000, -442.000000)">
            <g id="内容" transform="translate(320.000000, 190.000000)">
                <g id="编组" transform="translate(292.000000, 221.000000)">
                    <g id="编组-2备份-3" transform="translate(654.000000, 0.000000)">
                        <g id="icon业务对象" transform="translate(31.000000, 31.000000)">
                            <rect id="矩形" stroke="#409EFF" x="0.5" y="0.5" width="24.0434783" height="23" rx="1"></rect>
                            <path d="M6.42068614,11.0698393 L12.7685122,11.0698393 C13.320797,11.0698393 13.7685122,11.5175546 13.7685122,12.0698393 L13.7685122,14.7654915 C13.7685122,15.3177763 13.320797,15.7654915 12.7685122,15.7654915 L6.42068614,15.7654915 C5.86840139,15.7654915 5.42068614,15.3177763 5.42068614,14.7654915 L5.42068614,12.0698393 C5.42068614,11.5175546 5.86840139,11.0698393 6.42068614,11.0698393 Z" id="矩形" fill-opacity="0.8" fill="#539FFD" transform="translate(9.594599, 13.417665) rotate(-45.000000) translate(-9.594599, -13.417665) "></path>
                            <path d="M10.2256739,16.0078217 L14.4865435,16.0078217 C15.0388282,16.0078217 15.4865435,16.4555369 15.4865435,17.0078217 L15.4865435,18.6599956 C15.4865435,19.2122803 15.0388282,19.6599956 14.4865435,19.6599956 L10.2256739,19.6599956 C9.67338916,19.6599956 9.22567391,19.2122803 9.22567391,18.6599956 L9.22567391,17.0078217 C9.22567391,16.4555369 9.67338916,16.0078217 10.2256739,16.0078217 Z" id="矩形备份-7" fill="#F4D86A" transform="translate(12.356109, 17.833909) rotate(-45.000000) translate(-12.356109, -17.833909) "></path>
                            <path d="M15.9942811,11.5099278 L17.7508028,11.5099278 C18.3030876,11.5099278 18.7508028,11.9576431 18.7508028,12.5099278 L18.7508028,16.7707974 C18.7508028,17.3230821 18.3030876,17.7707974 17.7508028,17.7707974 L15.9942811,17.7707974 C15.4419963,17.7707974 14.9942811,17.3230821 14.9942811,16.7707974 L14.9942811,12.5099278 C14.9942811,11.9576431 15.4419963,11.5099278 15.9942811,11.5099278 Z" id="矩形备份-8" fill="#72D8A9" transform="translate(16.872542, 14.640363) rotate(-45.000000) translate(-16.872542, -14.640363) "></path>
                            <path d="M24.0434783,0.5 L24.5434783,7.32608696 L0.5,7.32608696 L0.5,1 L24.0434783,0.5 Z" id="矩形备份-2" stroke="#409EFF" fill-opacity="0.1" fill="#409EFF"></path>
                        </g>
                    </g>
                </g>
            </g>
        </g>
    </g>
</svg>