<?xml version="1.0" encoding="UTF-8"?>
<svg width="24px" height="24px" viewBox="0 0 24 24" version="1.1" xmlns="http://www.w3.org/2000/svg" xmlns:xlink="http://www.w3.org/1999/xlink">
    <title>iocn物理模型</title>
    <g id="设计方案" stroke="none" stroke-width="1" fill="none" fill-rule="evenodd">
        <g id="1、首页" transform="translate(-1078.000000, -544.000000)">
            <g id="内容" transform="translate(320.000000, 190.000000)">
                <g id="编组" transform="translate(292.000000, 221.000000)">
                    <g id="编组-2备份-9" transform="translate(434.000000, 102.000000)">
                        <g id="iocn物理模型" transform="translate(32.000000, 31.000000)">
                            <rect id="矩形备份-26" stroke-opacity="0.201458698" stroke="#5AB6AF" stroke-width="0.5" fill-opacity="0.2" fill="#5AB6AF" x="0.25" y="0.25" width="12.5" height="23.5" rx="1"></rect>
                            <g id="编组-19" transform="translate(16.000000, 0.012207)" fill-rule="nonzero" stroke-width="0.8">
                                <path d="M7,0.4 L7.6,6 L1,6.6 L0.4,1 L7,0.4 Z" id="矩形备份-3" stroke="#A0AAB9" fill="#FFFFFF"></path>
                                <path d="M7,0.4 L7.6,2.6 L0.4,2.6 L0.4,1 L7,0.4 Z" id="矩形备份-3" stroke="#409EFF" fill-opacity="0.2" fill="#409EFF"></path>
                            </g>
                            <g id="编组-19备份-3" transform="translate(2.000000, 2.000000)" fill-rule="nonzero">
                                <path d="M8,0.512207031 L8.5,7.01220703 L1,7.51220703 L0.5,1.01220703 L8,0.512207031 Z" id="矩形备份-3" stroke="#9CC3C2" fill="#FFFFFF"></path>
                                <path d="M8,0.5 L8.5,3.5 L0.5,3.5 L0.5,1 L8,0.5 Z" id="矩形备份-3" stroke="#5AB6AF" fill-opacity="0.4" fill="#5AB6AF"></path>
                            </g>
                            <g id="编组-19备份" transform="translate(16.000000, 8.500000)" fill-rule="nonzero" stroke-width="0.8">
                                <path d="M7,0.4 L7.6,6 L1,6.6 L0.4,1 L7,0.4 Z" id="矩形备份-3" stroke="#A0AAB9" fill="#FFFFFF"></path>
                                <path d="M7,0.4 L7.6,2.6 L0.4,2.6 L0.4,1 L7,0.4 Z" id="矩形备份-3" stroke="#409EFF" fill-opacity="0.2" fill="#409EFF"></path>
                            </g>
                            <rect id="矩形" fill="#A0AAB9" x="13" y="12" width="3" height="1"></rect>
                            <g id="编组-19备份-4" transform="translate(2.000000, 14.000000)" fill-rule="nonzero">
                                <path d="M8,0.5 L8.5,7 L1,7.5 L0.5,1 L8,0.5 Z" id="矩形备份-3" stroke="#9CC3C2" fill="#FFFFFF"></path>
                                <path d="M8,0.5 L8.5,3.5 L0.5,3.5 L0.5,1 L8,0.5 Z" id="矩形备份-3" stroke="#5AB6AF" fill-opacity="0.4" fill="#5AB6AF"></path>
                            </g>
                            <g id="编组-19备份-2" transform="translate(16.000000, 16.987793)" fill-rule="nonzero" stroke-width="0.8">
                                <path d="M7,0.4 L7.6,6 L1,6.6 L0.4,1 L7,0.4 Z" id="矩形备份-3" stroke="#A0AAB9" fill="#FFFFFF"></path>
                                <path d="M7,0.4 L7.6,2.6 L0.4,2.6 L0.4,1 L7,0.4 Z" id="矩形备份-3" stroke="#409EFF" fill-opacity="0.2" fill="#409EFF"></path>
                            </g>
                        </g>
                    </g>
                </g>
            </g>
        </g>
    </g>
</svg>