<svg xmlns="http://www.w3.org/2000/svg" xmlns:xlink="http://www.w3.org/1999/xlink" viewBox="0 0 766.402 232.657">
  <defs>
    <style>
      .cls-1 {
        fill: #f4f5f5;
      }

      .cls-2 {
        fill: #eceeee;
      }

      .cls-3 {
        fill: #eff0f1;
      }

      .cls-4 {
        fill: #e9eaeb;
      }

      .cls-5 {
        fill: #f1f2f3;
      }

      .cls-6 {
        fill: #f8f8f9;
      }

      .cls-7 {
        fill: #f2f3f4;
      }

      .cls-8 {
        fill: #e2e2e2;
      }

      .cls-9 {
        fill: #f29d7e;
      }

      .cls-10 {
        fill: #184657;
      }

      .cls-11 {
        fill: #fcc14a;
      }

      .cls-12 {
        fill: #192e36;
      }

      .cls-13 {
        fill: #ed6d53;
      }

      .cls-14, .cls-17, .cls-19, .cls-25, .cls-27 {
        fill: #cbc7ff;
      }

      .cls-14 {
        opacity: 0.48;
      }

      .cls-15 {
        opacity: 0.72;
        fill: url(#linear-gradient);
      }

      .cls-16 {
        fill: #035e80;
      }

      .cls-18 {
        fill: #0d232b;
      }

      .cls-19 {
        opacity: 0.7;
      }

      .cls-20 {
        fill: url(#linear-gradient-2);
      }

      .cls-21 {
        fill: #4386f5;
      }

      .cls-22 {
        fill: #4e5456;
      }

      .cls-23 {
        fill: #e85f5b;
      }

      .cls-24 {
        fill: #fff;
      }

      .cls-25 {
        opacity: 0.74;
      }

      .cls-26 {
        fill: url(#linear-gradient-3);
      }

      .cls-27 {
        opacity: 0.58;
      }

      .cls-28 {
        fill: #4c5c62;
      }

      .cls-29 {
        fill: #efdf6f;
      }

      .cls-30 {
        fill: #3fd15e;
      }

      .cls-31 {
        fill: #efefef;
      }
    </style>
    <linearGradient id="linear-gradient" x1="0.619" y1="0.061" x2="0.491" y2="0.98" gradientUnits="objectBoundingBox">
      <stop offset="0" stop-color="#f0c3a8"/>
      <stop offset="1" stop-color="#fff"/>
    </linearGradient>
    <linearGradient id="linear-gradient-2" x1="-0.001" y1="0.503" x2="0.996" y2="0.503" xlink:href="#linear-gradient"/>
    <linearGradient id="linear-gradient-3" x1="1259.077" y1="252.409" x2="1259.006" y2="253.323" xlink:href="#linear-gradient"/>
  </defs>
  <g id="组_322" data-name="组 322" transform="translate(0 -24.916)">
    <path id="路径_2322" data-name="路径 2322" class="cls-1" d="M122.233,230.079a14.54,14.54,0,0,0-7.321-12.42,6.31,6.31,0,0,1-3.138-6.733,8.775,8.775,0,0,0,.261-2.288,11.138,11.138,0,0,0-9.086-10.655,2.63,2.63,0,0,1-2.157-2.811,6.809,6.809,0,0,0,0-1.634c-.392-3.007-2.223-4.641-4.837-6.014a3.038,3.038,0,0,1-1.634-3.53,11.435,11.435,0,0,0,.327-2.157c.131-5.556-3.007-7.844-5.23-8.89A3.805,3.805,0,0,1,87.26,170.4a7.126,7.126,0,0,0-7.321-4.9,6.994,6.994,0,0,0-6.6,5.949v.065a2.114,2.114,0,0,1-2.288,1.83H69.872a8.679,8.679,0,0,0-8.106,7.714,9.044,9.044,0,0,0,.065,1.9,3.524,3.524,0,0,1-1.7,3.6,12.3,12.3,0,0,0-5.3,6.21,3.359,3.359,0,0,1-2.353,2.026,10.943,10.943,0,0,0-8.433,10.459,10.562,10.562,0,0,0,.719,3.791,3.486,3.486,0,0,1-2.157,4.576,13.459,13.459,0,0,0-8.825,12.355,12.823,12.823,0,0,0,1.634,6.276,6.714,6.714,0,0,1-1.5,8.433,15.936,15.936,0,0,0-5.818,12.29v6.014h95.637v-6.014c0-2.419-1.634-4.772-3.6-6.864a6.327,6.327,0,0,1-.458-8.106A13.6,13.6,0,0,0,122.233,230.079Z" transform="translate(-9.731 -57.305)"/>
    <path id="路径_2323" data-name="路径 2323" class="cls-2" d="M173.641,213.577a17.272,17.272,0,0,0-8.89-14.97,7.582,7.582,0,0,1-3.792-8.171,13.121,13.121,0,0,0,.327-2.746A13.435,13.435,0,0,0,150.3,174.813a3.135,3.135,0,0,1-2.615-3.4,9.808,9.808,0,0,0,0-1.961c-.523-3.661-2.68-5.622-5.883-7.256a3.692,3.692,0,0,1-1.961-4.249,16.794,16.794,0,0,0,.392-2.615c.2-6.733-3.661-9.479-6.341-10.721a4.823,4.823,0,0,1-2.68-3.072,8.576,8.576,0,0,0-8.89-5.949,8.462,8.462,0,0,0-7.975,7.191v.065a2.6,2.6,0,0,1-2.746,2.223h-1.438a10.44,10.44,0,0,0-9.806,9.283,8.809,8.809,0,0,0,.131,2.288,4.225,4.225,0,0,1-2.092,4.314,14.976,14.976,0,0,0-6.406,7.518,4.24,4.24,0,0,1-2.876,2.484,13.284,13.284,0,0,0-10.2,12.617,11.667,11.667,0,0,0,.915,4.576,4.234,4.234,0,0,1-2.615,5.557,16.207,16.207,0,0,0-10.655,14.97,15.125,15.125,0,0,0,2.026,7.583,8.068,8.068,0,0,1-1.83,10.263,19.5,19.5,0,0,0-7.06,14.9v7.322H175.536v-7.322c0-2.942-1.961-5.753-4.314-8.3a7.7,7.7,0,0,1-.588-9.806A17.69,17.69,0,0,0,173.641,213.577Z" transform="translate(-20.674 -46.948)"/>
    <path id="路径_2324" data-name="路径 2324" class="cls-3" d="M299.3,103.5V224.258H459.261V103.5h-60.6v12.182H360.552V103.5Z" transform="translate(-103.646 -22.459)"/>
    <rect id="矩形_16842" data-name="矩形 16842" class="cls-4" width="57.853" height="83.335" transform="translate(355.615 118.398)"/>
    <path id="路径_2325" data-name="路径 2325" class="cls-5" d="M744.574,176.883H642.4V0L744.574,14.726Z" transform="translate(-222.461 24.916)"/>
    <rect id="矩形_16843" data-name="矩形 16843" class="cls-5" width="43.079" height="133.946" transform="translate(522.113 67.853)"/>
    <path id="路径_2326" data-name="路径 2326" class="cls-6" d="M956.513,237.64H876.5V115.79l80.013-12.29Z" transform="translate(-303.529 -35.842)"/>
    <path id="路径_2327" data-name="路径 2327" class="cls-4" d="M1074.774,219.439a16.531,16.531,0,0,0-7.844-14.055,7.312,7.312,0,0,1-3.334-7.648,11.441,11.441,0,0,0,.262-2.615,12.4,12.4,0,0,0-9.675-12.094,2.942,2.942,0,0,1-2.288-3.2,8.566,8.566,0,0,0,0-1.83c-.458-3.4-2.354-5.3-5.164-6.8a3.438,3.438,0,0,1-1.7-3.988,9.817,9.817,0,0,0,.327-2.419c.2-6.341-3.2-8.89-5.622-10.067a4.5,4.5,0,0,1-2.354-2.876,7.576,7.576,0,0,0-14.839,1.177v.065a2.308,2.308,0,0,1-2.419,2.092h-1.242a9.458,9.458,0,0,0-8.629,8.76,11.906,11.906,0,0,0,.065,2.157,4.026,4.026,0,0,1-1.83,4.053,14.133,14.133,0,0,0-5.687,7.06,3.6,3.6,0,0,1-2.549,2.288,12.352,12.352,0,0,0-9.021,11.832,11.763,11.763,0,0,0,.784,4.314,4.054,4.054,0,0,1-2.288,5.23,15.208,15.208,0,0,0-9.348,14.055,15.532,15.532,0,0,0,1.765,7.125,7.952,7.952,0,0,1-1.634,9.609,18.869,18.869,0,0,0-6.21,13.924v6.864h101.913v-6.864c0-2.746-1.765-5.426-3.857-7.779a7.653,7.653,0,0,1-.523-9.217A15.443,15.443,0,0,0,1074.774,219.439Z" transform="translate(-337.396 -50.653)"/>
    <path id="路径_2328" data-name="路径 2328" class="cls-2" d="M237.606,231.8H195.9v50.27h70.927V231.8Z" transform="translate(-67.839 -80.271)"/>
    <path id="路径_2329" data-name="路径 2329" class="cls-7" d="M1123.3,234.214a13.9,13.9,0,0,0-6.537-11.767,6.126,6.126,0,0,1-2.746-6.406,12.026,12.026,0,0,0,.2-2.157,10.3,10.3,0,0,0-8.106-10.067,2.556,2.556,0,0,1-1.961-2.68,5.738,5.738,0,0,0,0-1.5c-.392-2.876-1.961-4.445-4.314-5.687a2.988,2.988,0,0,1-1.438-3.334,6.9,6.9,0,0,0,.261-2.027c.131-5.295-2.68-7.452-4.641-8.433a3.844,3.844,0,0,1-1.961-2.419,6.3,6.3,0,0,0-12.355.981v.065a1.993,1.993,0,0,1-2.027,1.765h-1.046a7.9,7.9,0,0,0-7.191,7.256,7.819,7.819,0,0,0,.066,1.765,3.481,3.481,0,0,1-1.5,3.4,11.353,11.353,0,0,0-4.707,5.883,3.291,3.291,0,0,1-2.092,1.961,10.255,10.255,0,0,0-7.518,9.871,10.949,10.949,0,0,0,.654,3.6,3.431,3.431,0,0,1-1.9,4.38,12.753,12.753,0,0,0-7.844,11.7,12.9,12.9,0,0,0,1.438,5.949,6.572,6.572,0,0,1-1.373,8.041,15.5,15.5,0,0,0-5.164,11.636v5.687h84.982v-5.687c0-2.288-1.438-4.511-3.2-6.472a6.29,6.29,0,0,1-.457-7.648A12.742,12.742,0,0,0,1123.3,234.214Z" transform="translate(-359.975 -59.937)"/>
    <path id="路径_2330" data-name="路径 2330" class="cls-2" d="M226.353,166.2,269.5,210.129H187Z" transform="translate(-64.757 -57.554)"/>
    <path id="路径_2331" data-name="路径 2331" class="cls-2" d="M353.1,279.576c1.5-30.267,4.511-55.107,6.668-54.977s2.615,24.71,1.111,54.977Z" transform="translate(-122.277 -77.778)"/>
    <path id="路径_2332" data-name="路径 2332" class="cls-2" d="M343.641,283.109c-.523-26.671.85-48.309,3.007-48.309,2.157-.065,4.314,21.7,4.772,48.309Z" transform="translate(-118.963 -81.31)"/>
    <path id="路径_2333" data-name="路径 2333" class="cls-1" d="M362.8,283.074c1.373-26.606,4.184-48.5,6.276-48.374,2.157.131,2.811,21.768,1.438,48.374Z" transform="translate(-125.636 -81.275)"/>
    <path id="路径_2334" data-name="路径 2334" class="cls-2" d="M414.906,248.877c1.373-6.341.327-9.413,1.046-17.258s4.184-9.152,4.38-15.95c.131-6.8,1.373-13.009,2.615-20.069a28.524,28.524,0,0,0-2.615,5.949c-.981,3.334-1.046,5.949-2.353,10.786-1.373,4.837-2.942,4.445-4.38,10.655s-.981,13.139-2.353,17.585c-1.438,4.445-5.491,7.844-6.145,12.813-.654,4.9.654,11.113.065,16.081h5.687a70.938,70.938,0,0,1,.458-7.256C411.9,256.264,413.6,255.218,414.906,248.877Z" transform="translate(-140.22 -67.736)"/>
    <path id="路径_2335" data-name="路径 2335" class="cls-1" d="M426.713,225.7c1.046-5.949-1.046-11.963-.654-16.277a106.986,106.986,0,0,0,0-13.728c-1.242,7.06-2.484,13.27-2.615,20.069s-3.661,8.106-4.38,15.95.327,10.917-1.046,17.258-3.007,7.387-3.661,13.336c-.327,3.072-.392,5.556-.458,7.256h8.237s1.5-3.269,1.7-9.871c.131-6.537-1.765-9.609-1.242-18.5C423.052,232.242,425.667,231.654,426.713,225.7Z" transform="translate(-143.332 -67.77)"/>
    <path id="路径_2336" data-name="路径 2336" class="cls-2" d="M396.529,255.066c-1.7-4.053-4.511-4.38-4.314-8.76.262-4.38,1.5-8.629.719-12.682-.523-2.68-1.373-6.537-1.961-8.825-.915.2-.2,6.406.131,9.936s-3.2,8.3-3.2,12.355,2.549,7.583,2.876,11.44-2.68,7.387-2.615,12.486a17.62,17.62,0,0,0,2.353,8.629h8.433c-.327-3.792-2.157-8.5-2.288-12.616C396.529,262.257,398.229,259.119,396.529,255.066Z" transform="translate(-134.328 -77.847)"/>
    <path id="路径_2337" data-name="路径 2337" class="cls-1" d="M409.762,265.655c-2.092-2.68-5.426-3.857-5.164-7.779s-.131-7.387-2.68-9.479c-2.549-2.157-4.576-4.511-4.445-7.583s.131-6.6-1.438-8.89c-1.569-2.223-2.353-7.256-3.334-7.125h0c.523,2.288,1.438,6.145,1.961,8.825.784,4.053-.458,8.3-.719,12.682s2.615,4.707,4.314,8.76,0,7.125.131,11.963c.131,4.053,1.961,8.76,2.288,12.616h9.806C410.415,279.644,411.853,268.335,409.762,265.655Z" transform="translate(-135.99 -77.846)"/>
    <g id="组_298" data-name="组 298" transform="translate(190.751 132.336)">
      <path id="路径_2338" data-name="路径 2338" class="cls-1" d="M321.281,262.489c-1.242-2.223-4.118-4.641-3.334-8.5s1.373-7.714,0-10.132a22.286,22.286,0,0,1-3.2-10.917c0-4.641-.392-8.106-1.5-10-1.046-1.83-2.157-8.041-3.072-9.609s-2.157-9.217-3.007-10.721c-.065-.2-.2-.2-.261-.131.261,3.334.654,8.564,1.046,11.9.588,5.3-.784,7.779-.784,11.113s2.876,7.583,2.876,11.636-2.876,7.779-2.876,12.29,2.419,6.341,3.53,10.59c.85,3.268-.2,7.714-1.373,11.832H320.17C320.17,271.9,322.589,264.712,321.281,262.489Z" transform="translate(-297.029 -202.44)"/>
      <path id="路径_2339" data-name="路径 2339" class="cls-8" d="M305.462,260.126c-1.046-4.249-3.53-6.079-3.53-10.59s2.876-8.237,2.876-12.29-2.876-8.3-2.876-11.636,1.307-5.883.784-11.113c-.327-3.334-.784-8.564-1.046-11.9-.719.458-1.242,7.191-1.242,10.851,0,4.118-3.334,7.06-3.334,11.113s1.177,11.178-.392,16.146c-1.569,4.9-4.9,5.687-4.9,13.074s3.138,12.224,1.765,18.3h10.59C305.266,267.84,306.312,263.394,305.462,260.126Z" transform="translate(-291.8 -202.496)"/>
    </g>
    <g id="组_299" data-name="组 299" transform="translate(208.775 155.516)">
      <path id="路径_2340" data-name="路径 2340" class="cls-2" d="M325.274,258.557c-.261-3.857,2.484-5.622,3.072-9.283.523-2.876-.392-7.779-1.111-11.374-.981.392-.065,9.283.065,11.44.131,2.223-2.876,3.988-3.726,7.91-.85,3.988,1.569,6.6-.131,10.852s-4.314,8.694-4.053,16.016h4.184c.261-4.968,2.419-8.171,3.53-12.943C328.346,266.075,325.47,262.414,325.274,258.557Z" transform="translate(-319.372 -237.9)"/>
      <path id="路径_2341" data-name="路径 2341" class="cls-1" d="M330.572,260.289c-1.373-4.968,1.046-6.6,1.242-10.852S330.572,237.8,329.461,238H329.4c.719,3.6,1.634,8.564,1.111,11.374-.654,3.661-3.334,5.426-3.072,9.283s3.072,7.518,1.9,12.682c-1.111,4.772-3.269,7.91-3.53,12.943h6.21a44.312,44.312,0,0,1,.131-8.5A43.644,43.644,0,0,0,330.572,260.289Z" transform="translate(-321.598 -237.933)"/>
    </g>
    <path id="路径_2342" data-name="路径 2342" class="cls-2" d="M847.6,279.576c1.5-30.267,4.511-55.107,6.668-54.977s2.615,24.71,1.111,54.977Z" transform="translate(-293.521 -77.778)"/>
    <path id="路径_2343" data-name="路径 2343" class="cls-2" d="M838.041,283.109c-.523-26.671.85-48.309,3.007-48.309,2.157-.065,4.314,21.7,4.772,48.309Z" transform="translate(-290.172 -81.31)"/>
    <path id="路径_2344" data-name="路径 2344" class="cls-1" d="M857.3,283.074c1.373-26.606,4.184-48.5,6.275-48.374,2.157.131,2.811,21.768,1.438,48.374Z" transform="translate(-296.88 -81.275)"/>
    <g id="组_300" data-name="组 300" transform="translate(587.949 127.864)">
      <path id="路径_2345" data-name="路径 2345" class="cls-2" d="M909.406,248.877c1.373-6.341.327-9.413,1.046-17.258s4.184-9.152,4.38-15.95,1.373-13.009,2.615-20.069a28.529,28.529,0,0,0-2.615,5.949c-.981,3.334-1.046,5.949-2.353,10.786-1.373,4.837-2.942,4.445-4.38,10.655s-.98,13.139-2.353,17.585c-1.438,4.445-5.491,7.844-6.145,12.813-.654,4.9.654,11.113.065,16.081h5.687a70.935,70.935,0,0,1,.458-7.256C906.4,256.264,908.033,255.218,909.406,248.877Z" transform="translate(-899.412 -195.6)"/>
      <path id="路径_2346" data-name="路径 2346" class="cls-1" d="M921.113,225.7c1.046-5.949-1.046-11.963-.654-16.277a107,107,0,0,0,0-13.728c-1.242,7.06-2.484,13.27-2.615,20.069s-3.661,8.106-4.38,15.95.327,10.917-1.046,17.258-3.007,7.387-3.661,13.336c-.327,3.072-.392,5.556-.458,7.256h8.3s1.5-3.269,1.7-9.871c.131-6.537-1.765-9.609-1.242-18.5C917.452,232.242,920.132,231.654,921.113,225.7Z" transform="translate(-902.49 -195.635)"/>
    </g>
    <g id="组_301" data-name="组 301" transform="translate(576.828 146.95)">
      <path id="路径_2347" data-name="路径 2347" class="cls-2" d="M891.029,255.066c-1.7-4.053-4.511-4.38-4.314-8.76.261-4.38,1.5-8.629.719-12.682-.523-2.68-1.373-6.537-1.961-8.825-.915.2-.2,6.406.131,9.936s-3.2,8.3-3.2,12.355,2.55,7.583,2.876,11.44-2.68,7.387-2.615,12.486a17.619,17.619,0,0,0,2.353,8.629h8.433c-.327-3.792-2.157-8.5-2.288-12.616C891.029,262.257,892.663,259.119,891.029,255.066Z" transform="translate(-882.4 -224.798)"/>
      <path id="路径_2348" data-name="路径 2348" class="cls-1" d="M904.262,265.655c-2.092-2.68-5.426-3.857-5.164-7.779s-.131-7.387-2.68-9.479c-2.549-2.157-4.576-4.511-4.445-7.583s.131-6.6-1.438-8.89c-1.569-2.223-2.353-7.256-3.334-7.125h0c.523,2.288,1.438,6.145,1.961,8.825.784,4.053-.458,8.3-.719,12.682s2.615,4.707,4.314,8.76,0,7.125.131,11.963c.131,4.053,1.961,8.76,2.288,12.616h9.806C904.915,279.644,906.354,268.335,904.262,265.655Z" transform="translate(-884.062 -224.796)"/>
    </g>
    <g id="组_302" data-name="组 302" transform="translate(514.007 132.336)">
      <path id="路径_2349" data-name="路径 2349" class="cls-1" d="M815.781,262.489c-1.242-2.223-4.118-4.641-3.334-8.5s1.373-7.714,0-10.132a22.285,22.285,0,0,1-3.2-10.917c0-4.641-.392-8.106-1.5-10-1.046-1.83-2.157-8.041-3.072-9.609s-2.157-9.217-3.007-10.721c-.065-.2-.2-.2-.261-.131.261,3.334.654,8.564,1.046,11.9.588,5.3-.785,7.779-.785,11.113s2.876,7.583,2.876,11.636-2.876,7.779-2.876,12.29,2.419,6.341,3.53,10.59c.85,3.268-.2,7.714-1.373,11.832H814.67C814.67,271.9,817.024,264.712,815.781,262.489Z" transform="translate(-791.529 -202.44)"/>
      <path id="路径_2350" data-name="路径 2350" class="cls-2" d="M799.962,260.126c-1.046-4.249-3.53-6.079-3.53-10.59s2.876-8.237,2.876-12.29-2.876-8.3-2.876-11.636,1.307-5.883.784-11.113c-.327-3.334-.784-8.564-1.046-11.9-.719.458-1.242,7.191-1.242,10.851,0,4.118-3.334,7.06-3.334,11.113s1.177,11.178-.392,16.146c-1.569,4.9-4.9,5.687-4.9,13.074s3.138,12.224,1.765,18.3h10.459C799.766,267.84,800.747,263.394,799.962,260.126Z" transform="translate(-786.3 -202.496)"/>
    </g>
    <g id="组_303" data-name="组 303" transform="translate(531.966 155.516)">
      <path id="路径_2351" data-name="路径 2351" class="cls-2" d="M819.674,258.557c-.261-3.857,2.484-5.622,3.072-9.283.523-2.876-.392-7.779-1.111-11.374-.981.392-.065,9.283.065,11.44.131,2.223-2.876,3.988-3.726,7.91-.85,3.988,1.569,6.6-.131,10.852s-4.314,8.694-4.053,16.016h4.184c.261-4.968,2.419-8.171,3.53-12.943C822.746,266.075,819.935,262.414,819.674,258.557Z" transform="translate(-813.772 -237.9)"/>
      <path id="路径_2352" data-name="路径 2352" class="cls-1" d="M824.972,260.289c-1.373-4.968,1.046-6.6,1.242-10.852S824.972,237.8,823.861,238H823.8c.719,3.6,1.634,8.564,1.111,11.374-.654,3.661-3.334,5.426-3.073,9.283s3.073,7.518,1.9,12.682c-1.111,4.772-3.268,7.91-3.53,12.943h6.21a44.317,44.317,0,0,1,.131-8.5A43.645,43.645,0,0,0,824.972,260.289Z" transform="translate(-815.998 -237.933)"/>
    </g>
    <path id="路径_2353" data-name="路径 2353" class="cls-6" d="M28.305,306.731S0,308.561,0,327.453c0,18.957,18.892,31.574,61.383,24.318,42.491-7.191,99.1-24.318,125.9-12.616s26.671,34.516,86.55,19.807c62.625-15.362,117.274-1.765,161.334,1.83s170.617.654,224.22-22.618C706.2,317.909,766.337,366.283,766.4,306.6H28.305Z" transform="translate(0 -106.174)"/>
    <ellipse id="椭圆_1480" data-name="椭圆 1480" class="cls-5" cx="16.343" cy="3.595" rx="16.343" ry="3.595" transform="translate(61.644 213.761)"/>
    <g id="组_306" data-name="组 306" transform="translate(43.655 137.689)">
      <path id="路径_2354" data-name="路径 2354" class="cls-9" d="M87.553,319.7s-.131.981-.327,3.072c-.2,2.223-.261,3.726.327,5.23h3.726c.784,0,1.7-.327.85-1.7-.784-1.373-.915-4.772-.654-6.014Z" transform="translate(-73.813 -248.4)"/>
      <path id="路径_2355" data-name="路径 2355" class="cls-9" d="M68.428,320s-.131,1.438-.523,3.465c-.458,2.223-1.5,3.53-.981,4.053,0,0,2.615.523,3.4.588.784,0,2.157-.392,1.373-1.765s-.065-3.791.2-5.034Z" transform="translate(-66.781 -248.504)"/>
      <g id="组_304" data-name="组 304" transform="translate(0.012 77.772)">
        <path id="路径_2356" data-name="路径 2356" class="cls-10" d="M66.8,330.646c.981-.131,3.138.654,3.726.523.654-.131.719-.588,1.111-1.569,1.569.654,3.791,1.177,3.726,1.7-.065.719-8.106.523-8.106.523S67.061,331.365,66.8,330.646Z" transform="translate(-66.8 -329.6)"/>
        <path id="路径_2357" data-name="路径 2357" class="cls-11" d="M67.4,332.323c.588,0,7.779.131,8.106-.523a.261.261,0,0,1,.131.261c-.065.719-8.106.523-8.106.523A.716.716,0,0,1,67.4,332.323Z" transform="translate(-67.008 -330.362)"/>
      </g>
      <g id="组_305" data-name="组 305" transform="translate(13.413 77.902)">
        <path id="路径_2358" data-name="路径 2358" class="cls-10" d="M87.3,330.584c.981-.065,3.138.85,3.726.719.654-.131.719-.523,1.177-1.5,1.5.719,3.726,1.373,3.6,1.83-.131.719-8.106.131-8.106.131S87.561,331.3,87.3,330.584Z" transform="translate(-87.3 -329.8)"/>
        <path id="路径_2359" data-name="路径 2359" class="cls-11" d="M87.8,332.331c.588.065,7.779.523,8.106-.131a.261.261,0,0,1,.131.261c-.131.719-8.106.131-8.106.131A.715.715,0,0,1,87.8,332.331Z" transform="translate(-87.473 -330.631)"/>
      </g>
      <path id="路径_2360" data-name="路径 2360" class="cls-12" d="M76.06,249.411c-1.438,3.269-3.138,5.491-3.334,11.113-.131,4.511-.065,14.185-.85,18.434S69,296.543,69,296.543l3.661.2s4.837-15.166,6.406-22.161c1.5-6.995,1.373-6.8,1.373-6.8a73.766,73.766,0,0,1,.784,11.113c0,6.472-.2,17.65-.2,17.65l4.249-.327a247.726,247.726,0,0,0,1.9-26.606A77.075,77.075,0,0,0,84.166,248.3Z" transform="translate(-67.55 -223.674)"/>
      <path id="路径_2361" data-name="路径 2361" class="cls-9" d="M75.656,231.8c-1.83,1.765-5.818,8.956-4.837,11.178,1.046,2.157,5.556-.131,5.556-.131Z" transform="translate(-68.127 -217.96)"/>
      <path id="路径_2362" data-name="路径 2362" class="cls-13" d="M74.3,235.33a4.237,4.237,0,0,0,2.549,1.307V231.8a15.465,15.465,0,0,0-1.5,1.765C74.823,234.48,74.3,235.33,74.3,235.33Z" transform="translate(-69.385 -217.96)"/>
      <path id="路径_2363" data-name="路径 2363" class="cls-14" d="M75.684,231.8a15.464,15.464,0,0,0-1.5,1.765c-.588.915-1.046,1.765-1.046,1.765l.065.065c-1.569,2.746-2.942,6.21-2.288,7.583,1.046,2.157,5.556-.131,5.556-.131Z" transform="translate(-68.154 -217.96)"/>
      <path id="路径_2364" data-name="路径 2364" class="cls-9" d="M87.2,217.7l.654.784c.065.131,0,.261-.131.261l-.458.065Z" transform="translate(-73.852 -213.078)"/>
      <path id="路径_2365" data-name="路径 2365" class="cls-9" d="M80.684,219.888a24.459,24.459,0,0,0-.784,5.426,6.29,6.29,0,0,0,2.223.719,4.72,4.72,0,0,0,2.092-.065,10,10,0,0,1-.915-3.138,23.166,23.166,0,0,1,.065-3.53Z" transform="translate(-71.324 -213.632)"/>
      <path id="路径_2366" data-name="路径 2366" class="cls-15" d="M80.684,219.888a28.365,28.365,0,0,0-.784,5.426,6.29,6.29,0,0,0,2.223.719,4.72,4.72,0,0,0,2.092-.065,10,10,0,0,1-.915-3.138,23.166,23.166,0,0,1,.065-3.53Z" transform="translate(-71.324 -213.632)"/>
      <path id="路径_2367" data-name="路径 2367" class="cls-16" d="M77.105,221.265a.589.589,0,0,0-.327.065c-1.242.065-1.373-1.111-1.9-.915s-1.569-.588-.981-1.373.131-1.046-.392-1.83a3.029,3.029,0,0,1,.327-3.334c.85-1.111.131-1.307,1.634-2.615a2.709,2.709,0,0,1,2.223-.588,3.363,3.363,0,0,0-1.438.588c-1.5,1.307-.784,1.438-1.634,2.615a3.033,3.033,0,0,0-.327,3.334c.523.784.981,1.046.392,1.83s.458,1.569.981,1.373C76.125,220.22,76.321,221.069,77.105,221.265Z" transform="translate(-68.987 -210.629)"/>
      <path id="路径_2368" data-name="路径 2368" class="cls-10" d="M77.105,221.265a.589.589,0,0,0-.327.065c-1.242.065-1.373-1.111-1.9-.915s-1.569-.588-.981-1.373.131-1.046-.392-1.83a3.029,3.029,0,0,1,.327-3.334c.85-1.111.131-1.307,1.634-2.615a2.709,2.709,0,0,1,2.223-.588,3.363,3.363,0,0,0-1.438.588c-1.5,1.307-.784,1.438-1.634,2.615a3.033,3.033,0,0,0-.327,3.334c.523.784.981,1.046.392,1.83s.458,1.569.981,1.373C76.125,220.22,76.321,221.069,77.105,221.265Z" transform="translate(-68.987 -210.629)"/>
      <path id="路径_2369" data-name="路径 2369" class="cls-16" d="M80.859,212.2c-.458.85-2.026,2.288-1.177,3.661a2.153,2.153,0,0,1-.065,2.615c-.261.588-1.242,1.242-.981,1.5.458.523.065,1.111-.915,1.307h0c-.784-.2-.981-1.046-1.438-.85-.523.2-1.569-.588-.981-1.373s.131-1.046-.392-1.83a3.029,3.029,0,0,1,.327-3.334c.85-1.111.131-1.307,1.634-2.615a2.145,2.145,0,0,1,1.438-.588,3.1,3.1,0,0,1,1.242.392v-.131a.829.829,0,0,1,.392-.065,1.439,1.439,0,0,1,.523.065h0A.818.818,0,0,1,80.859,212.2Z" transform="translate(-69.472 -210.654)"/>
      <path id="路径_2370" data-name="路径 2370" class="cls-9" d="M81.907,212.18c1.634-.261,3.2.85,3.007,3.4-.065,1.373.85,3.6-.261,4.118-1.046.458-2.288.2-2.876-1.765C80.992,215.645,78.639,212.7,81.907,212.18Z" transform="translate(-71.436 -211.153)"/>
      <path id="路径_2371" data-name="路径 2371" class="cls-16" d="M83.582,212.758c-.065.654-.915.131-.981,1.307-.065,1.307-.261,1.438-1.111,1.83s-.458,2.026-1.242,2.615a6.424,6.424,0,0,1-2.288.654s-1.177-4.314.261-5.687a5.046,5.046,0,0,1,4.184-1.7C83.582,211.973,83.582,212.758,83.582,212.758Z" transform="translate(-70.495 -211.012)"/>
      <path id="路径_2372" data-name="路径 2372" class="cls-13" d="M78.619,228.5a10.4,10.4,0,0,0-1.9,7.321,28.864,28.864,0,0,1-.523,6.929,20.8,20.8,0,0,0,5.426.654,15.229,15.229,0,0,0,5.949-.981l-2.026-7.06a2.515,2.515,0,0,0,.458-2.288c-.327-1.569-3.334-4.576-3.334-4.576a9.983,9.983,0,0,1-1.961.327A3.5,3.5,0,0,1,78.619,228.5Z" transform="translate(-70.043 -216.818)"/>
      <path id="路径_2373" data-name="路径 2373" class="cls-14" d="M80,235.861a9.932,9.932,0,0,0,2.092,1.242s2.615.392,2.68-.85a2.861,2.861,0,0,0-.392-1.9,5.435,5.435,0,0,0-1.373-2.157,9.116,9.116,0,0,1,1.961,1.7,38.447,38.447,0,0,1,3.072,6.733c.261.915.392,1.5.392,1.5s-.981.2-3.6-1.569A24.221,24.221,0,0,1,80,235.861Z" transform="translate(-71.359 -218.099)"/>
      <path id="路径_2374" data-name="路径 2374" class="cls-9" d="M85.419,230.894s4.9,3.334,5.818,3.334,6.8-8.041,7.06-8.825c.2-.784.458-2.353,1.046-2.549a1.922,1.922,0,0,1,1.046-.065l-.2-.588s1.111-.065,1.307.784a4.609,4.609,0,0,1-.719,3.661,57.987,57.987,0,0,1-5.36,8.041c-2.484,2.876-3.661,2.811-5.556,2.746S83,233.508,83,233.508a3.2,3.2,0,0,0,1.438-1.111A2.736,2.736,0,0,0,85.419,230.894Z" transform="translate(-72.398 -214.635)"/>
      <path id="路径_2375" data-name="路径 2375" class="cls-10" d="M85.6,217.932a11.067,11.067,0,0,0-3.072-.2c-.2,0-.2.2-.2.261H82.2a.3.3,0,0,1,.327-.327,11.916,11.916,0,0,1,3.138.2Z" transform="translate(-72.121 -213.049)"/>
      <path id="路径_2376" data-name="路径 2376" class="cls-9" d="M82,220.322c-.654.065-1.242-1.046-1.307-1.634-.065-.654.458-.588,1.111-.588Z" transform="translate(-71.598 -213.215)"/>
      <path id="路径_2377" data-name="路径 2377" class="cls-10" d="M87.165,218.369h0a.064.064,0,0,1-.065-.065l.261-1.438a.065.065,0,0,1,.131,0l-.261,1.438A.064.064,0,0,1,87.165,218.369Z" transform="translate(-73.818 -212.766)"/>
      <path id="路径_2378" data-name="路径 2378" class="cls-17" d="M80.967,257.5c-.588,3.268,3.138,11.505,3.4,13.466l-.915,4.511a70.381,70.381,0,0,0-2.288-7.583C79.855,264.233,80.967,257.5,80.967,257.5Z" transform="translate(-71.541 -226.86)"/>
      <path id="路径_2379" data-name="路径 2379" class="cls-18" d="M108.5,222.408h-.065l-1.961-1.438a.139.139,0,1,1,.2-.2l1.961,1.438a.123.123,0,0,1,0,.2Z" transform="translate(-80.51 -214.125)"/>
    </g>
    <g id="组_312" data-name="组 312" transform="translate(659.129 126.748)">
      <ellipse id="椭圆_1481" data-name="椭圆 1481" class="cls-5" cx="11.767" cy="3.595" rx="11.767" ry="3.595" transform="translate(0 87.013)"/>
      <ellipse id="椭圆_1482" data-name="椭圆 1482" class="cls-5" cx="20.919" cy="3.595" rx="20.919" ry="3.595" transform="translate(36.607 87.013)"/>
      <g id="组_308" data-name="组 308" transform="translate(40.815)">
        <path id="路径_2380" data-name="路径 2380" class="cls-9" d="M1102.643,208.4l-.981.85c-.13.131-.065.261.066.327l.654.261Z" transform="translate(-1081.421 -198.916)"/>
        <path id="路径_2381" data-name="路径 2381" class="cls-9" d="M1102.64,207.571c-.523,2.353-.589,4.249,1.634,4.772a24.88,24.88,0,0,0,1.961-3.988c.85-2.223,1.765-3.988.392-4.314C1103.947,203.453,1103.163,205.283,1102.64,207.571Z" transform="translate(-1081.679 -197.368)"/>
        <path id="路径_2382" data-name="路径 2382" class="cls-9" d="M1073,204.814s-.588-4.249-.654-4.576c-.131-.327-1.111-2.549-1.438-3.726-.262-1.111-.2-1.438,0-1.5s.719,1.569.719,1.569-.719-1.961-.261-2.157.85,1.961.85,1.961-.719-2.353-.261-2.484.98,2.288.98,2.288-.523-2.026-.065-2.157c.327-.065.915,1.9,1.111,2.746,0,.065.2.065.2,0a3.768,3.768,0,0,0,.2-.915.489.489,0,0,1,.392-.458.25.25,0,0,1,.327.2v.981a15.868,15.868,0,0,0,.065,3.072c.262,1.046,1.308,4.184,1.308,4.184a9.666,9.666,0,0,1-1.569.719C1074.243,204.683,1073,204.814,1073,204.814Z" transform="translate(-1070.736 -193.892)"/>
        <path id="路径_2383" data-name="路径 2383" class="cls-16" d="M1082.324,329.715v1.765a7.066,7.066,0,0,1-3.269.065c-2.288-.327-4.315.2-5.818.065-1.438-.131-1.242-1.177-1.242-1.177a19.955,19.955,0,0,1,3.269-.719,2.639,2.639,0,0,0,1.83-.915Z" transform="translate(-1071.169 -240.61)"/>
        <path id="路径_2384" data-name="路径 2384" class="cls-16" d="M1110.358,329.75v1.765a6.841,6.841,0,0,1-3.2.065c-2.288-.327-4.314.261-5.818.131-1.438-.131-1.242-1.177-1.242-1.177a19.932,19.932,0,0,1,3.268-.719,2.638,2.638,0,0,0,1.83-.915Z" transform="translate(-1080.9 -240.645)"/>
        <path id="路径_2385" data-name="路径 2385" class="cls-18" d="M1101.514,253.658c1.5,6.079.327,19.611.2,28.632a196.381,196.381,0,0,0,1.373,21.441c-1.111.588-4.706,0-6.341-.523a169.48,169.48,0,0,1-2.68-21.115c-.85-12.42-.523-17.585-.523-17.585s-4.314,3.922-6.276,16.669a193.069,193.069,0,0,0-2.288,22.684,13.7,13.7,0,0,1-6.276-.654s0-8.5.85-21.507,6.079-28.5,6.079-28.5Z" transform="translate(-1073.494 -214.43)"/>
        <path id="路径_2386" data-name="路径 2386" class="cls-19" d="M1105.039,254.669c-2.223,1.373-6.014,1.373-9.805,1.307a65.163,65.163,0,0,1-6.733-.458l.523-2.419,15.754.458Z" transform="translate(-1076.888 -214.396)"/>
        <path id="路径_2387" data-name="路径 2387" class="cls-9" d="M1130.876,264.8a11.772,11.772,0,0,1-.327,5.491c-.523,1.046-1.242,1.046-1.438.915s.2-.588.589-1.177-.065-1.765-.065-1.765,0,1.7-.392,1.9c-.458.2-.458-1.7-.654-2.157a14.281,14.281,0,0,1-.589-2.484Z" transform="translate(-1090.566 -218.447)"/>
        <path id="路径_2388" data-name="路径 2388" class="cls-9" d="M1103.882,217.164c.458-1.046,2.419-6.864,2.419-6.864l3.6,2.68s-.784,4.118-.85,5.1C1108.981,218.733,1103.359,218.275,1103.882,217.164Z" transform="translate(-1082.203 -199.574)"/>
        <path id="路径_2389" data-name="路径 2389" class="cls-20" d="M1103.882,217.164c.458-1.046,2.419-6.864,2.419-6.864l3.6,2.68s-.784,4.118-.85,5.1C1108.981,218.733,1103.359,218.275,1103.882,217.164Z" transform="translate(-1082.203 -199.574)"/>
        <path id="路径_2390" data-name="路径 2390" class="cls-21" d="M1109.661,233.982c-1.634-4.641-2.615-9.74-7.779-16.016h0a6.86,6.86,0,0,0-2.157-1.961c-2.419-1.373-6.733-2.157-11.375-1.5a76.866,76.866,0,0,1-9.609.458c-.85-4.445-2.353-10.459-2.353-10.459l-3.988.85s.588,11.178,3.072,13.989c1.9,2.353,9.021,3.268,9.021,3.268a98.744,98.744,0,0,1-1.569,13.989,57.856,57.856,0,0,0,9.936,1.438,29.01,29.01,0,0,0,6.537-.327s1.373-5.1,2.484-9.348c.915,2.223,2.157,5.295,3.334,7.779a47.321,47.321,0,0,1,3.072,9.021l3.661-.915C1112.145,244.245,1111.361,238.885,1109.661,233.982Z" transform="translate(-1071.312 -197.566)"/>
        <path id="路径_2391" data-name="路径 2391" class="cls-22" d="M1105.451,202.718s-1.177-2.353.2-2.876a1.834,1.834,0,0,1,2.223.981s3.268.131,3.988,2.419c.915,2.876-1.83,6.668-1.83,6.668s-2.876-.065-2.811-1.765a6.5,6.5,0,0,0-.261-2.288l-.654-.654-.261,1.5-.327-.131S1106.628,203.633,1105.451,202.718Z" transform="translate(-1082.595 -195.914)"/>
        <path id="路径_2392" data-name="路径 2392" class="cls-19" d="M1104.707,215.484c.2-.784.85-2.484.85-2.484a4.217,4.217,0,0,1-.915,1.242,2.948,2.948,0,0,1-1.242.654s.261.2.458.327A5.17,5.17,0,0,0,1104.707,215.484Z" transform="translate(-1082.047 -200.509)"/>
        <g id="组_307" data-name="组 307" transform="translate(23.183 9.353)">
          <path id="路径_2393" data-name="路径 2393" class="cls-9" d="M1106.2,211.011a1.724,1.724,0,0,0,1.438-1.177c.327-.915,0-1.373-.85-1.634Z" transform="translate(-1106.2 -208.2)"/>
        </g>
      </g>
      <g id="组_311" data-name="组 311" transform="translate(0.227 10.566)">
        <path id="路径_2394" data-name="路径 2394" class="cls-9" d="M1015.276,283.5c.065,4.707.261,13.532.327,17,1.046.458,3.465.654,3.334,0-.065-1.111.523-7.518.719-13.6.262-7.518,0-25.3.262-25.3.523,0,2.942,13.6,3.138,20.919.262,7.844.065,14.643.131,17.977,1.046.523,3.465.719,3.334,0-.131-1.177.85-9.675,1.046-15.82.261-10.263.654-23.926,0-27.913-1.046-6.145-2.68-8.367-3.007-10.263l-9.348.131c-.261,1.5-2.157,3.334-3.334,7.648C1010.57,259.247,1015.211,277.224,1015.276,283.5Z" transform="translate(-1009.685 -222.676)"/>
        <g id="组_309" data-name="组 309" transform="translate(13.501 77.658)">
          <path id="路径_2395" data-name="路径 2395" class="cls-16" d="M1029.3,328.949v.327l.065,1.9h.588l.2-1.569a3.136,3.136,0,0,1,1.373.915,2.449,2.449,0,0,0,2.157.784,6.2,6.2,0,0,0,1.111,0c0-.719-1.83-.719-2.157-2.157v-.131C1032.176,329.864,1030.215,328.492,1029.3,328.949Z" transform="translate(-1029.3 -328.853)"/>
          <path id="路径_2396" data-name="路径 2396" class="cls-18" d="M1030.215,329.531c.85.2,1.569,1.111,2.026,1.438a5.18,5.18,0,0,0,2.55.327v.131a6.114,6.114,0,0,1-1.111,0,2.4,2.4,0,0,1-2.157-.784,2.648,2.648,0,0,0-1.373-.915l-.2,1.569h-.589l-.065-1.9A5.129,5.129,0,0,1,1030.215,329.531Z" transform="translate(-1029.3 -329.042)"/>
        </g>
        <g id="组_310" data-name="组 310" transform="translate(5.853 77.654)">
          <path id="路径_2397" data-name="路径 2397" class="cls-16" d="M1017.7,328.947c0,.131.065,2.353.065,2.353h.588l.262-1.634a5.276,5.276,0,0,1,1.373,1.177,2.439,2.439,0,0,0,2.092.85.941.941,0,0,0,.588-.131c-.065-.392-1.242-.981-1.634-2.484v-.131C1020.838,329.47,1018.746,328.554,1017.7,328.947Z" transform="translate(-1017.635 -328.846)"/>
          <path id="路径_2398" data-name="路径 2398" class="cls-18" d="M1019.888,331.069a6.958,6.958,0,0,0-1.373-1.177l-.261,1.634h-.588l-.065-2.026a2.9,2.9,0,0,1,.98.2c.654.2,1.242,1.177,1.9,1.634a2.463,2.463,0,0,0,2.026.261.2.2,0,0,1,.065.131.941.941,0,0,1-.588.131A2.173,2.173,0,0,1,1019.888,331.069Z" transform="translate(-1017.6 -329.072)"/>
        </g>
        <path id="路径_2399" data-name="路径 2399" class="cls-23" d="M1015.13,246.561s-2.811,4.772-3.334,7.06c-.719,3.269-.784,7.648-.065,14.381s2.745,8.76,2.745,8.76a26.238,26.238,0,0,0,6.733.2c4.184-.262,6.471-.588,6.471-.588a78.727,78.727,0,0,0,.458-12.224c-.2-6.929-1.111-11.767-1.9-13.728s-1.765-4.118-1.765-4.118a47.479,47.479,0,0,1-5.1.392A25.685,25.685,0,0,1,1015.13,246.561Z" transform="translate(-1009.539 -222.607)"/>
        <path id="路径_2400" data-name="路径 2400" class="cls-24" d="M1033.191,242.493a8.392,8.392,0,0,0-.131-4.576,23.193,23.193,0,0,0-2.745-5.164h-.327a40.276,40.276,0,0,0-.588-4.053c.065,0,.131.065.261.065,2.942.784,5.687,4.38,6.668,7.91s1.111,7.06-1.111,7.844C1033.453,245.108,1033.191,242.493,1033.191,242.493Z" transform="translate(-1015.834 -216.512)"/>
        <path id="路径_2401" data-name="路径 2401" class="cls-10" d="M1013.842,220.651c.719,1.438.719,2.615-.458,3.661-1.111,1.046-1.83-.523-1.307-.719.262-.131.589-.2.654-.523,1.111-.458-.654-3.726-.85-5.3-.261-1.569-.458-2.549.392-3.791.85-1.177-.392-2.68-.392-2.68h0a5.316,5.316,0,0,1,.785-.523,1.23,1.23,0,0,1,1.9.719s1.046,5.23-.261,6.079C1012.862,218.494,1013.123,219.213,1013.842,220.651Z" transform="translate(-1009.69 -210.228)"/>
        <path id="路径_2402" data-name="路径 2402" class="cls-10" d="M1011.689,223.467c.065-.262-.131-.654-.654-1.307-1.111-1.438-1.373-1.177-1.5-1.83s1.046-1.9-.261-3.726a2.692,2.692,0,0,1,.458-3.922c.588-.261.523-.523,1.046-.981h0s1.242,1.5.392,2.68-.654,2.157-.392,3.791C1011.035,219.741,1012.8,223.074,1011.689,223.467Z" transform="translate(-1008.647 -210.625)"/>
        <path id="路径_2403" data-name="路径 2403" class="cls-25" d="M1011.689,223.467c.065-.262-.131-.654-.654-1.307-1.111-1.438-1.373-1.177-1.5-1.83s1.046-1.9-.261-3.726a2.692,2.692,0,0,1,.458-3.922c.588-.261.523-.523,1.046-.981h0s1.242,1.5.392,2.68-.654,2.157-.392,3.791C1011.035,219.741,1012.8,223.074,1011.689,223.467Z" transform="translate(-1008.647 -210.625)"/>
        <path id="路径_2404" data-name="路径 2404" class="cls-10" d="M1020.128,213.222s.327-1.307-.392-1.765-1.046.065-1.7-.654-2.811-1.242-3.072,0c-.327,1.242-1.373,1.111-1.765,2.157s-1.242,1.373-.392,2.419a3.334,3.334,0,0,1,.981,2.549c.131,1.177.719,1.111,1.961,1.373S1020.128,213.222,1020.128,213.222Z" transform="translate(-1009.961 -210.056)"/>
        <path id="路径_2405" data-name="路径 2405" class="cls-9" d="M1015.211,230.771a5.562,5.562,0,0,0-1.111-2.026c1.373-.915,2.55-1.5,2.55-2.288,0-.915-.065-3.857-.065-3.857l3.857.85a22.6,22.6,0,0,0,.784,2.353c.392.85.719.392,3.007.784a29.654,29.654,0,0,1,.85,4.184,17,17,0,0,0-3.661.392c-1.765.327-3.922.327-5.426,1.7A19.741,19.741,0,0,0,1015.211,230.771Z" transform="translate(-1010.535 -214.4)"/>
        <path id="路径_2406" data-name="路径 2406" class="cls-26" d="M1022.637,226.065c-.065-.065-.065-.131-.131-.2-.392-.981-.915-2.746-.915-2.746l-3.726-.523s.065,2.942.065,3.857a.93.93,0,0,1-.131.392Z" transform="translate(-1011.817 -214.4)"/>
        <path id="路径_2407" data-name="路径 2407" class="cls-27" d="M1021.092,223.469a2.9,2.9,0,0,0,1.307-.2c-.523-1.634-.98-3.072-.98-3.072L1019,221.246C1019.327,222.88,1019.915,223.4,1021.092,223.469Z" transform="translate(-1012.232 -213.569)"/>
        <path id="路径_2408" data-name="路径 2408" class="cls-9" d="M1021.713,215.114c1.634,2.549,1.634,4.184.327,4.968s-3.857-.2-5.034-1.961-1.438-3.661.392-4.772C1019.36,212.172,1020.536,213.349,1021.713,215.114Z" transform="translate(-1011.219 -211.032)"/>
        <path id="路径_2409" data-name="路径 2409" class="cls-9" d="M1016.951,220.5s-.915-.131-.588.654c.261.85,1.242.588,1.5.588Z" transform="translate(-1011.294 -213.668)"/>
        <path id="路径_2410" data-name="路径 2410" class="cls-10" d="M1018.337,212.474s.915.458.458,1.242-1.046.458-1.373,1.046a3.707,3.707,0,0,0-.458,2.615c.327.654-.065.784.2,1.046,0,0-.719-.2-1.177-1.569s-.719-2.484.262-3.138C1017.16,213.063,1017.552,212.213,1018.337,212.474Z" transform="translate(-1011.046 -210.876)"/>
        <path id="路径_2411" data-name="路径 2411" class="cls-10" d="M1019.549,212.734a6.255,6.255,0,0,0,1.373.588,4.472,4.472,0,0,1,1.9,1.7,2.9,2.9,0,0,0-1.046-1.83c-.85-.523-1.438-.719-1.765-.981s-1.046-.261-.915.327C1019.288,213.192,1019.549,212.734,1019.549,212.734Z" transform="translate(-1012.258 -210.744)"/>
        <path id="路径_2412" data-name="路径 2412" class="cls-24" d="M1014.788,233.922c-.131-.392-.327-.85-.458-1.242-.261-.784.392-1.373-.131-2.026a17.48,17.48,0,0,0,1.83-1.242,27.482,27.482,0,0,0,4.838,2.811,9.4,9.4,0,0,0,1.111-3.922,16.472,16.472,0,0,1,1.9.2h0a.394.394,0,0,1,.262.065.24.24,0,0,1,.2.065h0c.2.065.458.131.654.2a5.127,5.127,0,0,1,.458,1.111,5.61,5.61,0,0,1,.327,1.83h0a3.633,3.633,0,0,1,1.242,3.007,3.006,3.006,0,0,1-1.634,2.223l.523,2.876a12.868,12.868,0,0,1-4.51.654,26.994,26.994,0,0,1-5.3-.2l-1.438-3.53.392-2.615S1014.331,234.118,1014.788,233.922Z" transform="translate(-1010.57 -216.374)"/>
        <path id="路径_2413" data-name="路径 2413" class="cls-28" d="M1023.8,251.54h7.583a.765.765,0,0,0,.719-.523l3.007-8.694c.065-.261-.065-.523-.327-.523h-7.714a.667.667,0,0,0-.523.327l-3.072,8.89A.345.345,0,0,0,1023.8,251.54Z" transform="translate(-1013.769 -221.049)"/>
        <path id="路径_2414" data-name="路径 2414" class="cls-24" d="M1009.347,241.8c.458,3.661,1.307,6.341,3.6,6.864,1.7.392,5.491-.588,7.452-1.111a3.709,3.709,0,0,1-.457-3.007c-2.223.458-6.537,1.111-6.537,1.111a37.132,37.132,0,0,1-.588-3.922,24.136,24.136,0,0,1,.523-5.818l.262-.131a27.342,27.342,0,0,1-.981-3.988c-.065.065-.131.065-.2.131C1010,233.826,1008.889,238.141,1009.347,241.8Z" transform="translate(-1008.854 -217.586)"/>
        <path id="路径_2415" data-name="路径 2415" class="cls-9" d="M1025.887,253.854c.589-.2,1.046-.261,1.177-.327.654-.2,3.072-.719,2.942-1.111-.065-.2-.2-.2-.458-.131s-.523.065-.719.131c.392-.065,1.83-.392,1.765-.719-.066-.2-.523-.131-1.046-.065a5.612,5.612,0,0,0-.85.2,7.063,7.063,0,0,1,1.111-.261c.458-.131.785-.327.719-.523s-.392-.2-.784-.065c-.261.065-.588.131-.85.2.523-.131,1.307-.392,1.177-.654-.131-.327-2.223.327-2.419.392.131-.065.785-.392.85-.458.2-.131.261-.392-.065-.458a6.235,6.235,0,0,0-2.288.85,6.767,6.767,0,0,1-.785.2A3.674,3.674,0,0,0,1025.887,253.854Z" transform="translate(-1014.412 -223.885)"/>
        <path id="路径_2416" data-name="路径 2416" class="cls-25" d="M1015.98,242.818a9.851,9.851,0,0,0-.392-4.118l-.588,1.7Z" transform="translate(-1010.847 -219.975)"/>
      </g>
    </g>
    <g id="组_321" data-name="组 321" transform="translate(72.692 198.783)">
      <g id="组_313" data-name="组 313" transform="translate(2.942 1.316)">
        <path id="路径_2417" data-name="路径 2417" class="cls-29" d="M122.041,306.231l-4.968-.131a1.229,1.229,0,0,0-1.242,1.177l-.131,4.968a1.229,1.229,0,0,0,1.177,1.242l4.968.131a1.229,1.229,0,0,0,1.242-1.177l.131-4.968A1.148,1.148,0,0,0,122.041,306.231Z" transform="translate(-115.7 -306.1)"/>
      </g>
      <g id="组_314" data-name="组 314" transform="translate(4.698)">
        <path id="路径_2418" data-name="路径 2418" class="cls-30" d="M123.952,304.422a1.245,1.245,0,0,0-1.765.065l-3.465,3.6a1.246,1.246,0,0,0,.065,1.765l3.6,3.465a1.306,1.306,0,0,0,1.765,0l3.465-3.6a1.245,1.245,0,0,0-.065-1.765Z" transform="translate(-118.387 -304.087)"/>
      </g>
      <g id="组_315" data-name="组 315" transform="translate(10.263 3.408)">
        <path id="路径_2419" data-name="路径 2419" class="cls-31" d="M133.11,309.3h-4.968a1.241,1.241,0,0,0-1.242,1.242v4.968a1.241,1.241,0,0,0,1.242,1.242h4.968a1.241,1.241,0,0,0,1.242-1.242v-4.968A1.286,1.286,0,0,0,133.11,309.3Z" transform="translate(-126.9 -309.3)"/>
      </g>
      <g id="组_318" data-name="组 318" transform="translate(2.484 5.107)">
        <g id="组_316" data-name="组 316">
          <rect id="矩形_16844" data-name="矩形 16844" class="cls-5" width="12.813" height="10.982"/>
        </g>
        <g id="组_317" data-name="组 317" transform="translate(12.813)">
          <rect id="矩形_16845" data-name="矩形 16845" class="cls-4" width="4.707" height="10.982"/>
        </g>
      </g>
      <g id="组_319" data-name="组 319" transform="translate(0 5.107)">
        <path id="路径_2420" data-name="路径 2420" class="cls-24" d="M111.2,316.411h13.2l2.157-4.511H113.749Z" transform="translate(-111.2 -311.9)"/>
      </g>
      <g id="组_320" data-name="组 320" transform="translate(15.427 5.107)">
        <path id="路径_2421" data-name="路径 2421" class="cls-1" d="M134.8,311.9l1.9,5.426h4.641l-1.9-5.426Z" transform="translate(-134.8 -311.9)"/>
      </g>
    </g>
  </g>
</svg>
