<?xml version="1.0" standalone="no"?><!DOCTYPE svg PUBLIC "-//W3C//DTD SVG 1.1//EN" "http://www.w3.org/Graphics/SVG/1.1/DTD/svg11.dtd"><svg t="1701247023258" class="icon" viewBox="0 0 1024 1024" version="1.1" xmlns="http://www.w3.org/2000/svg" p-id="9549" xmlns:xlink="http://www.w3.org/1999/xlink" width="200" height="200"><path d="M73.300126 0.479775a73.117726 73.117726 0 0 1 36.590848 136.38407v750.752085c11.066812 6.397001 20.278494 15.608683 26.739466 26.675496h750.624145a73.053756 73.053756 0 1 1 0 73.181696H136.63044A73.053756 73.053756 0 1 1 36.645308 887.55196V136.927815A73.053756 73.053756 0 0 1 73.300126 0.479775z m529.799656 10.043292L918.024162 192.389817c23.221115 13.433703 37.486428 38.190098 37.486428 64.993535V620.988911c0 26.867406-14.265313 51.623801-37.486428 64.993535l-314.92438 181.80278c-23.221115 13.433703-51.815711 13.433703-75.036826 0l-314.924379-181.80278A75.036826 75.036826 0 0 1 175.652149 620.988911V257.319382c0-26.803436 14.265313-51.559831 37.486428-64.993535L528.062956 10.523067c23.221115-13.433703 51.815711-13.433703 75.036826 0z m-3.45438 494.488209v278.013681l231.251601-133.505419-231.251601-144.508262z m-73.117726 0L297.642965 648.048227l228.884711 132.162049V505.011276z m353.946087-221.144339L632.014229 439.058191l248.459534 155.255225V283.866937z m-629.848758 3.070561v304.305357l243.533844-152.120694-243.533844-152.184663z m275.902671-188.903451L297.642965 230.132126l228.884711 143.036951V98.034047z m73.117726-2.814681v277.949711l231.251601-144.508262-231.251601-133.441449z" fill="#409eff" p-id="9550"></path></svg>