<?xml version="1.0" encoding="UTF-8"?>
<svg width="24px" height="24px" viewBox="0 0 24 24" version="1.1" xmlns="http://www.w3.org/2000/svg" xmlns:xlink="http://www.w3.org/1999/xlink">
    <title>模型分支</title>
    <g id="icon、颜色" stroke="none" stroke-width="1" fill="none" fill-rule="evenodd">
        <g id="属性icon" transform="translate(-59.000000, -184.000000)">
            <g id="模型分支" transform="translate(59.000000, 184.000000)">
                <circle id="椭圆形" fill="#EBF5FF" cx="12" cy="12" r="12"></circle>
                <path d="M10.3846154,6 L10.3846154,8 C10.3846154,8.55228475 9.93690013,9 9.38461538,9 L6,9 C5.44771525,9 5,8.55228475 5,8 L5,6 C5,5.44771525 5.44771525,5 6,5 L9.38461538,5 C9.93690013,5 10.3846154,5.44771525 10.3846154,6 Z" id="路径" fill="#409EFF" fill-rule="nonzero"></path>
                <path d="M10.3846154,16 L10.3846154,18 C10.3846154,18.5522847 9.93690013,19 9.38461538,19 L6,19 C5.44771525,19 5,18.5522847 5,18 L5,16 C5,15.4477153 5.44771525,15 6,15 L9.38461538,15 C9.93690013,15 10.3846154,15.4477153 10.3846154,16 Z" id="路径" fill="#409EFF" fill-rule="nonzero" opacity="0.8"></path>
                <path d="M8.17688802,8.99462326 L8.17684615,8.99962326 L8.23076923,9 L8.22943051,9.45267549 C8.44593405,10.3818776 9.33652714,10.8568316 11.0441748,10.8968998 L11.2856445,10.8996704 C11.4379812,10.8996704 11.5704856,10.8961121 11.7763334,10.8864458 L12.5000369,10.850641 C13.5065297,10.8120054 14.2090163,10.9081269 14.953985,11.2756357 C16.3800351,11.9791365 16.7923072,13.2554568 16.7923072,15 L15.8230765,15 C15.8230765,13.5645471 15.4999089,12.5640786 14.4992527,12.0704336 C13.9342146,11.7916884 13.3901366,11.717242 12.5400699,11.749873 L11.5850831,11.7950009 C11.4802778,11.798297 11.3876473,11.7996704 11.2856445,11.7996704 C9.9494263,11.7996704 8.91956318,11.5531226 8.22902072,11.0644918 L8.23076923,15 L7.15384615,15 L7.15384615,9 L7.69184615,8.99962326 L8.17688802,8.99462326 Z" id="形状结合" fill="#409EFF" opacity="0.403924851"></path>
                <path d="M19,16 L19,18 C19,18.5522847 18.5522847,19 18,19 L14.6153846,19 C14.0630999,19 13.6153846,18.5522847 13.6153846,18 L13.6153846,16 C13.6153846,15.4477153 14.0630999,15 14.6153846,15 L18,15 C18.5522847,15 19,15.4477153 19,16 Z" id="路径" fill="#409EFF" fill-rule="nonzero" opacity="0.6"></path>
            </g>
        </g>
    </g>
</svg>