<?xml version="1.0" encoding="UTF-8"?>
<svg width="24px" height="24px" viewBox="0 0 24 24" version="1.1" xmlns="http://www.w3.org/2000/svg" xmlns:xlink="http://www.w3.org/1999/xlink">
    <title>创建时间</title>
    <g id="icon、颜色" stroke="none" stroke-width="1" fill="none" fill-rule="evenodd">
        <g id="属性icon" transform="translate(-59.000000, -400.000000)">
            <g id="创建时间" transform="translate(59.000000, 400.000000)">
                <circle id="椭圆形" fill="#EBF5FF" cx="12" cy="12" r="12"></circle>
                <g id="编组-28" transform="translate(4.000000, 4.000000)" fill="#409EFF" fill-rule="nonzero">
                    <path d="M8.00838596,0 C8.76994143,0 9.51832964,0.106482616 10.2370913,0.314149661 C10.7681874,0.46759577 11.0742029,1.0220761 10.9205959,1.55261614 C10.766989,2.08315619 10.2119274,2.38885122 9.68083125,2.23540511 C9.14240666,2.07984165 8.58125827,2 8.00838596,2 C4.69120388,2 2.00209649,4.6862915 2.00209649,8 C2.00209649,11.3137085 4.69120388,14 8.00838596,14 C11.1692687,14 13.7839972,11.5521362 14.0002353,8.41991369 C14.0382728,7.86893763 14.5162308,7.45308649 15.0677845,7.49108419 C15.6193381,7.52908188 16.0356251,8.00653944 15.9975876,8.5575155 C15.7090728,12.7366716 12.2232916,16 8.00838596,16 C3.58547652,16 0,12.418278 0,8 C0,3.581722 3.58547652,0 8.00838596,0 Z M7,4 C7.55228475,4 8,4.44771525 8,5 L8,8 L10,8 C10.5522847,8 11,8.44771525 11,9 C11,9.55228475 10.5522847,10 10,10 L7,10 C6.44771525,10 6,9.55228475 6,9 L6,5 C6,4.44771525 6.44771525,4 7,4 Z" id="形状结合"></path>
                    <path d="M12.054343,2.20642704 C12.4318867,1.8033399 13.064713,1.78263281 13.4678001,2.16017645 C14.3233621,2.96152177 14.9953025,3.94180923 15.4310725,5.0320089 C15.6360602,5.54484267 15.3865017,6.12675197 14.8736679,6.33173971 C14.3608342,6.53672745 13.7789249,6.28716894 13.5739371,5.77433517 C13.2473805,4.95736317 12.7431038,4.22167867 12.1005936,3.61988411 C11.6975065,3.24234046 11.6767994,2.60951418 12.054343,2.20642704 Z" id="路径" opacity="0.5"></path>
                </g>
            </g>
        </g>
    </g>
</svg>