<svg xmlns="http://www.w3.org/2000/svg" width="24" height="24" viewBox="0 0 24 24">
  <g id="数据权属" transform="translate(-393.545 -454.007)">
    <circle id="椭圆_1617" data-name="椭圆 1617" cx="12" cy="12" r="12" transform="translate(393.545 454.007)" fill="#edf3ff"/>
    <g id="组_3997" data-name="组 3997" transform="translate(56.316 11.839)">
      <rect id="矩形_18017" data-name="矩形 18017" width="3" height="3" rx="1" transform="translate(342.729 459.168)" fill="#a0bbf9"/>
      <rect id="矩形_18018" data-name="矩形 18018" width="3" height="3" rx="1" transform="translate(347.729 459.168)" fill="#a0bbf9"/>
      <rect id="矩形_18019" data-name="矩形 18019" width="3" height="3" rx="1" transform="translate(352.729 459.168)" fill="#a0bbf9"/>
      <rect id="矩形_18020" data-name="矩形 18020" width="1" height="2" transform="translate(343.729 457.168)" fill="#a0bbf9"/>
      <rect id="矩形_18023" data-name="矩形 18023" width="11" height="1" transform="translate(343.729 456.168)" fill="#a0bbf9"/>
      <rect id="矩形_18022" data-name="矩形 18022" width="1" height="6" transform="translate(348.729 453.168)" fill="#a0bbf9"/>
      <rect id="矩形_18021" data-name="矩形 18021" width="1" height="2" transform="translate(353.729 457.168)" fill="#a0bbf9"/>
      <path id="路径_4241" data-name="路径 4241" d="M354.888,451.874a.9.9,0,0,1-.008.281,1.616,1.616,0,0,1-.1.339,1.447,1.447,0,0,1-.162.307.592.592,0,0,1-.212.192.462.462,0,0,1-.2.058.608.608,0,0,1-.194-.036,1.7,1.7,0,0,0-.24-.056,1.078,1.078,0,0,0-.3-.008,1.287,1.287,0,0,0-.3.064.557.557,0,0,0-.254.166.936.936,0,0,0-.268.552,1.082,1.082,0,0,0,.089.59.368.368,0,0,1-.026.387.75.75,0,0,1-.184.161,1.894,1.894,0,0,1-.277.149,1.664,1.664,0,0,1-.315.108,1.273,1.273,0,0,1-.29.04.246.246,0,0,1-.165-.067.341.341,0,0,1-.106-.146l-.011,0a1.2,1.2,0,0,0-.363-.516.886.886,0,0,0-.594-.214.916.916,0,0,0-.593.222,1.154,1.154,0,0,0-.37.508.335.335,0,0,1-.144.171.452.452,0,0,1-.214.054,1.069,1.069,0,0,1-.3-.047,2.4,2.4,0,0,1-.334-.119,1.559,1.559,0,0,1-.3-.168.816.816,0,0,1-.2-.193.283.283,0,0,1-.053-.159.593.593,0,0,1,.071-.257.979.979,0,0,0,.081-.508.88.88,0,0,0-.25-.525.619.619,0,0,0-.327-.188,1.383,1.383,0,0,0-.368-.032,1.557,1.557,0,0,0-.414.079.387.387,0,0,1-.27-.016.423.423,0,0,1-.2-.179,2.013,2.013,0,0,1-.168-.31,1.893,1.893,0,0,1-.112-.347.8.8,0,0,1-.02-.294.3.3,0,0,1,.192-.271,1.376,1.376,0,0,0,.519-.385.891.891,0,0,0,.229-.6.84.84,0,0,0-.234-.587,1.459,1.459,0,0,0-.519-.365.259.259,0,0,1-.146-.14.49.49,0,0,1-.059-.226,1.19,1.19,0,0,1,.038-.281,1.913,1.913,0,0,1,.1-.3,1.493,1.493,0,0,1,.144-.267.621.621,0,0,1,.178-.181.224.224,0,0,1,.148-.04,1.063,1.063,0,0,1,.16.038,1.154,1.154,0,0,0,.6.071.983.983,0,0,0,.55-.279.693.693,0,0,0,.164-.287,1.617,1.617,0,0,0,.065-.632c-.009-.092-.018-.155-.024-.194a1,1,0,0,1-.036-.129.218.218,0,0,1,.015-.137.543.543,0,0,1,.207-.241,1.6,1.6,0,0,1,.322-.166,2.04,2.04,0,0,1,.338-.1,1.471,1.471,0,0,1,.259-.035.251.251,0,0,1,.2.081.506.506,0,0,1,.1.168,1.164,1.164,0,0,0,.35.458.861.861,0,0,0,.571.2,1,1,0,0,0,.6-.192,1.013,1.013,0,0,0,.365-.48.61.61,0,0,1,.119-.16.245.245,0,0,1,.169-.081,1.365,1.365,0,0,1,.293.036,2.147,2.147,0,0,1,.314.106,1.262,1.262,0,0,1,.285.173.932.932,0,0,1,.21.231.235.235,0,0,1,.029.168.648.648,0,0,1-.039.132,1.025,1.025,0,0,0-.073.587.964.964,0,0,0,.281.54.868.868,0,0,0,.57.255,1.251,1.251,0,0,0,.631-.113.3.3,0,0,1,.188-.04.281.281,0,0,1,.189.086,1.161,1.161,0,0,1,.258.411,2.382,2.382,0,0,1,.152.555.346.346,0,0,1-.052.257.373.373,0,0,1-.149.12,1.138,1.138,0,0,0-.508.377.935.935,0,0,0-.21.6.95.95,0,0,0,.181.574.981.981,0,0,0,.47.353,1.092,1.092,0,0,1,.115.078.442.442,0,0,1,.142.219Zm-4.485.338a1.541,1.541,0,0,0,1.093-.46,1.588,1.588,0,0,0,.33-.494A1.543,1.543,0,0,0,351,449.24a1.491,1.491,0,0,0-.6-.119,1.47,1.47,0,0,0-.6.124,1.548,1.548,0,0,0-.813,2.023,1.586,1.586,0,0,0,.331.492,1.515,1.515,0,0,0,1.091.446Z" transform="translate(-1.177)" fill="#2e69f0"/>
    </g>
  </g>
</svg>
