<?xml version="1.0" encoding="UTF-8"?>
<svg width="24px" height="24px" viewBox="0 0 24 24" version="1.1" xmlns="http://www.w3.org/2000/svg" xmlns:xlink="http://www.w3.org/1999/xlink">
    <title>模型类型</title>
    <g id="icon、颜色" stroke="none" stroke-width="1" fill="none" fill-rule="evenodd">
        <g id="属性icon" transform="translate(-59.000000, -152.000000)">
            <g id="模型类型" transform="translate(59.000000, 152.000000)">
                <circle id="椭圆形" fill="#EBF5FF" cx="12" cy="12" r="12"></circle>
                <g id="模型" transform="translate(4.000000, 4.000000)">
                    <rect id="矩形" x="0" y="0" width="16" height="16"></rect>
                    <g id="编组-16" transform="translate(1.000000, 1.000000)" fill="#409EFF" fill-rule="nonzero">
                        <path d="M6.777,0.0360867077 L13.105,2.59008669 C13.2556445,2.65028965 13.3550079,2.79551891 13.3565604,2.95774035 C13.3580769,3.11996179 13.2614786,3.26704474 13.112,3.33008671 L7.563,5.6900867 C7.46801972,5.73007978 7.3612685,5.73187091 7.26500002,5.69508669 L0.9,3.29108671 C0.748947961,3.23404863 0.646999566,3.09178861 0.641533116,2.93041891 C0.636066666,2.76904922 0.728154192,2.62021617 0.875000016,2.55308671 L6.38300002,0.0450867077 C6.5075624,-0.0117284479 6.64997328,-0.0149814885 6.777,0.0360867077 L6.777,0.0360867077 Z" id="路径" opacity="0.3"></path>
                        <path d="M0.549,4.36608669 L6.74900002,6.84908671 C6.90055688,6.90991963 6.99991308,7.05677681 7,7.2200867 L7,13.3650867 C6.99992935,13.4978632 6.93397752,13.621951 6.82396543,13.6962943 C6.71395333,13.7706376 6.57422084,13.7855459 6.45100001,13.7360867 L0.314000016,11.2790867 C0.12470909,11.2032268 0.00045551252,11.0200121 0,10.8160867 L0,4.73808669 C7.06614979e-05,4.60531024 0.0660224904,4.48122243 0.176034583,4.40687911 C0.286046675,4.33253578 0.42577917,4.31762745 0.549,4.3670867 L0.549,4.36608669 Z" id="路径"></path>
                        <path d="M13.434,4.4060867 L8.109,6.84308671 C7.96676657,6.90796363 7.8753631,7.04975618 7.87499999,7.20608671 L7.87499999,13.3330867 C7.87499999,13.4691922 7.944161,13.5959704 8.05863688,13.6695909 C8.17311276,13.7432114 8.31716831,13.7535705 8.44100002,13.6970867 L13.708,11.2870867 C13.8860078,11.2056549 14.0001244,11.0278363 14.0000001,10.8320867 L14.0000001,4.77008671 C14.0000001,4.6339812 13.930839,4.50720303 13.8163631,4.4335825 C13.7018873,4.35996197 13.5578317,4.34960291 13.434,4.4060867 L13.434,4.4060867 Z" id="路径" opacity="0.6"></path>
                    </g>
                </g>
            </g>
        </g>
    </g>
</svg>