<?xml version="1.0" encoding="UTF-8"?>
<svg width="24px" height="25px" viewBox="0 0 24 25" version="1.1" xmlns="http://www.w3.org/2000/svg" xmlns:xlink="http://www.w3.org/1999/xlink">
    <title>业务系统</title>
    <g id="模型目录" stroke="none" stroke-width="1" fill="none" fill-rule="evenodd">
        <g id="模型基本信息-模型摘要" transform="translate(-1555.000000, -437.000000)">
            <g id="展示区" transform="translate(208.000000, 86.000000)">
                <g id="右侧属性" transform="translate(1311.000000, 101.000000)">
                    <g id="编组-3" transform="translate(22.000000, 10.000000)">
                        <g id="组_3880-6备份-7" transform="translate(0.000000, 234.000000)">
                            <g id="业务系统" transform="translate(14.000000, 6.016000)">
                                <circle id="椭圆_1617-3" fill="#EDF3FF" fill-rule="nonzero" cx="12" cy="12" r="12"></circle>
                                <path d="M19.9644563,14.1086251 C19.9859041,14.2748053 19.9811065,14.4433235 19.9502388,14.6080142 C19.9132048,14.8147299 19.8536089,15.0167599 19.7725203,15.2104801 C19.6987928,15.4032391 19.6021294,15.5864221 19.4846162,15.756076 C19.3888055,15.8989007 19.2594423,16.0160598 19.1078529,16.0972956 C18.9987621,16.1582561 18.8771953,16.1935105 18.7524159,16.2003723 C18.6347743,16.1979608 18.5183164,16.17635 18.4076419,16.1363936 C18.2680621,16.0929442 18.1255128,16.0596827 17.9811174,16.0368713 C17.8049311,16.0072966 17.6254739,16.002511 17.4479618,16.0226538 C17.2663444,16.0391765 17.0873548,16.077361 16.9148062,16.1363936 C16.7399357,16.1910616 16.5836684,16.2931891 16.4634011,16.4314064 C16.1989171,16.6956001 16.0311346,17.0411818 15.9871154,17.4124128 C15.9405212,17.7698422 15.9953286,18.1331718 16.1452849,18.4609521 C16.2617568,18.6803783 16.2438545,18.9468482 16.0990781,19.1487229 C16.0064616,19.2613427 15.8959934,19.3580024 15.772076,19.4348497 C15.6156081,19.5366128 15.4509471,19.625185 15.2797956,19.6996503 C15.1000784,19.7821867 14.9125351,19.8464873 14.7199822,19.8915864 C14.5514929,19.9350224 14.3785551,19.9588759 14.2045985,19.9626738 C14.0954129,19.9609976 13.9908074,19.9185214 13.9113629,19.8436024 C13.8264122,19.7755946 13.7613406,19.6859676 13.7229812,19.5841333 L13.7034322,19.5841333 C13.5740337,19.2263892 13.3512961,18.9097705 13.0583139,18.6671056 C12.7650724,18.4150027 12.3893119,18.2796277 12.0026658,18.286788 C11.615645,18.2888419 11.2420167,18.4287162 10.9487948,18.6813231 C10.6503074,18.9156315 10.4226793,19.2281587 10.2912363,19.5841333 C10.243245,19.7117475 10.1529072,19.8190236 10.0353216,19.888032 C9.91842669,19.9509564 9.78775887,19.984 9.65500389,19.984 C9.47421614,19.9816692 9.29468679,19.9535429 9.12184827,19.9004723 C8.9190445,19.8447092 8.72064324,19.7740213 8.52826835,19.6889872 C8.34008502,19.6094271 8.16127929,19.5092959 7.99511274,19.3904201 C7.85789091,19.2972551 7.73766834,19.1812403 7.63967566,19.0474233 C7.58046788,18.9649034 7.54763057,18.8663914 7.54548484,18.7648508 C7.55232921,18.6050009 7.59547987,18.4488077 7.671665,18.3081142 C7.79926852,18.0253899 7.84896832,17.7136924 7.81561702,17.405304 C7.77751858,17.0529374 7.62086302,16.7239607 7.37132067,16.4722817 C7.21708292,16.3031661 7.01393544,16.1863718 6.79018105,16.1381708 C6.57570338,16.0900552 6.35574046,16.070928 6.13617683,16.0813009 C5.88569543,16.0945364 5.63817668,16.1417682 5.40042208,16.2216985 C5.2422614,16.2702412 5.07190272,16.2601459 4.92058203,16.1932636 C4.77071038,16.1286223 4.64594814,16.0169601 4.56514495,15.8751474 C4.44969982,15.7005913 4.34979429,15.5162418 4.26657781,15.3242199 C4.18054054,15.1255426 4.11388315,14.9190237 4.06753304,14.7075366 C4.023434,14.5370759 4.01138167,14.3599067 4.03198934,14.1850441 C4.03838507,13.9704463 4.17287376,13.7806211 4.37320893,13.7034269 C4.7306168,13.5518063 5.04678806,13.3172669 5.29556814,13.0192105 C5.55905982,12.7267208 5.70415128,12.3465685 5.7025436,11.9528993 C5.70499188,11.5642899 5.55580326,11.1900432 5.28668222,10.9096914 C5.03053745,10.6284225 4.71563893,10.4069621 4.364323,10.2610188 C4.24768397,10.216682 4.15404352,10.1268898 4.10485394,10.0122128 C4.03803766,9.88874098 4.00206438,9.75094501 4,9.61056892 C4.00252695,9.44200926 4.02519888,9.27435631 4.06753304,9.11117983 C4.11195702,8.92886117 4.17139957,8.75053352 4.24525158,8.57802421 C4.31422466,8.41157611 4.39997207,8.25258613 4.50116628,8.10351572 C4.58333775,7.97565334 4.691034,7.86614199 4.81750528,7.78184516 C4.89408927,7.72794993 4.987222,7.70277892 5.08052871,7.71075775 C5.17691361,7.72589231 5.27198125,7.74847087 5.36487837,7.77829079 C5.70280221,7.91430163 6.07085411,7.95785443 6.4311896,7.90447095 C6.80175996,7.84832435 7.14444875,7.67448767 7.40864156,7.40863623 C7.54551383,7.2646173 7.64551112,7.08962205 7.70009997,6.89858403 C7.8125018,6.53551316 7.85176523,6.15375182 7.81561702,5.77540287 C7.79962235,5.61190181 7.78362768,5.49993913 7.77296457,5.4306289 C7.74653919,5.3557255 7.72516505,5.2791348 7.70898589,5.20137199 C7.69130911,5.1194665 7.70066264,5.03403762 7.73564367,4.95789759 C7.81282872,4.7816482 7.94093882,4.63249586 8.10352105,4.52959591 C8.28248849,4.40991094 8.47446999,4.31093911 8.67577474,4.23458314 C8.87050183,4.15812379 9.07148141,4.09866237 9.2764634,4.0568646 C9.42774428,4.02251477 9.58178244,4.00169881 9.73675442,3.99466311 C9.87086596,3.98667311 10.0014357,4.03955386 10.0921915,4.13861513 C10.1702774,4.22563777 10.2306435,4.32705287 10.26991,4.43718227 C10.4057273,4.75635804 10.619624,5.03625712 10.8919249,5.25113318 C11.1760476,5.4884688 11.5365803,5.61474996 11.9066978,5.60657025 C12.2896142,5.61068242 12.6636168,5.49100158 12.973009,5.26535066 C13.2708152,5.05344247 13.4970662,4.755907 13.6216817,4.41230168 C13.6761029,4.30656009 13.7475523,4.21049365 13.8331667,4.12795202 C13.9102477,4.04206051 14.0182751,3.99028408 14.1335111,3.984 C14.3088853,3.98643948 14.4834778,4.00789112 14.6542264,4.04797867 C14.8448143,4.09630099 15.031382,4.15928246 15.2122626,4.23636032 C15.3939491,4.3159943 15.5642676,4.41938062 15.7187604,4.5438134 C15.8653604,4.65869982 15.9915331,4.79748975 16.0919693,4.95434322 C16.1459159,5.04390579 16.1643066,5.1504453 16.1435077,5.25291036 C16.1287982,5.33334541 16.1055637,5.41198507 16.0741975,5.48749883 C15.9293738,5.8149294 15.8842496,6.17777745 15.944463,6.53070665 C16.0029041,6.89614133 16.1781057,7.23282758 16.443852,7.49038676 C16.7136077,7.76188082 17.0746561,7.92340248 17.4568477,7.94356903 C17.8417466,7.97516182 18.2282368,7.90594883 18.5782517,7.74274708 C18.6788117,7.68304989 18.79621,7.65807153 18.9123625,7.67165967 C19.0397325,7.6778521 19.1599082,7.73253526 19.2482506,7.82449761 C19.4508333,8.0329561 19.6070838,8.28186682 19.7067644,8.5549208 C19.8363364,8.87157577 19.9270422,9.20277116 19.9768966,9.54125869 C20.007207,9.69973239 19.9740165,9.86377021 19.884483,9.99799533 C19.8162577,10.0908951 19.7249887,10.1644003 19.6196823,10.2112576 C19.2614714,10.3447764 18.9484383,10.5770864 18.7168722,10.8812565 C18.4717515,11.1821976 18.3397126,11.5594516 18.3436632,11.9475677 C18.3374936,12.3134784 18.4503848,12.6714869 18.6653338,12.9676721 C18.8730927,13.257247 19.1646079,13.4761935 19.5006109,13.5950185 C19.5716101,13.6368396 19.6398738,13.6831402 19.7049872,13.733639 C19.8263679,13.8350123 19.9143238,13.9706626 19.9573476,14.1228426 L19.9644563,14.1086251 Z M11.9918357,15.9625965 C13.0558164,15.958976 14.0742413,15.5303616 14.8206141,14.7720768 C15.1831957,14.4034263 15.4729548,13.9696656 15.6746826,13.4935621 C16.524804,11.4610042 15.5682117,9.12395417 13.5369232,8.27080385 C13.0461533,8.06192833 12.5174109,7.95706108 11.9840714,7.96282158 C11.4496591,7.95954268 10.9205514,8.06889161 10.4312196,8.28374429 C8.41133844,9.15530029 7.47206164,11.4925167 8.32710541,13.519443 C8.53006581,13.993971 8.82069678,14.4259663 9.18376199,14.7927815 C9.93057527,15.5428978 10.9489422,15.9592054 12.0073642,15.947068 L11.9918357,15.9625965 Z" id="路径_4241" fill="#2E69F0" fill-rule="nonzero"></path>
                                <path d="M11.9949382,13.9625965 C12.5269286,13.9607862 13.036141,13.7464791 13.4093274,13.3673366 C13.5906182,13.1830114 13.7354978,12.9661311 13.8363616,12.7280793 C14.2614224,11.7118003 13.7831262,10.5432753 12.767482,10.1167002 C12.522097,10.0122624 12.2577258,9.95982879 11.9910561,9.96270904 C11.7238499,9.96106959 11.4592961,10.0157441 11.2146302,10.1231704 C10.2046896,10.5589484 9.73505118,11.7275566 10.1625731,12.7410197 C10.2640533,12.9782837 10.4093688,13.1942814 10.5909014,13.377689 C10.964308,13.7527471 11.4734914,13.9609009 12.0027025,13.9548322 L11.9949382,13.9625965 Z" id="路径_4241-path" fill="#A0BBF9"></path>
                            </g>
                        </g>
                    </g>
                </g>
            </g>
        </g>
    </g>
</svg>