<?xml version="1.0" encoding="UTF-8"?>
<svg width="24px" height="24px" viewBox="0 0 24 24" version="1.1" xmlns="http://www.w3.org/2000/svg" xmlns:xlink="http://www.w3.org/1999/xlink">
    <title>所有标签</title>
    <g id="icon、颜色" stroke="none" stroke-width="1" fill="none" fill-rule="evenodd">
        <g id="属性icon" transform="translate(-59.000000, -604.000000)">
            <g id="所有标签" transform="translate(59.000000, 604.000000)">
                <circle id="椭圆形" fill="#EBF5FF" cx="12" cy="12" r="12"></circle>
                <path d="M6.40796126,5.52450905 L11.5454136,5.00510719 C11.8500841,4.97430468 12.1550448,5.08397698 12.3742461,5.30317832 L18.521575,11.4505072 C18.9200873,11.8490195 18.9265629,12.4886601 18.5360386,12.8791844 L12.8791844,18.5360386 C12.4886601,18.9265629 11.8490195,18.9200873 11.4505072,18.521575 L5.30317832,12.3742461 C5.08397698,12.1550448 4.97430468,11.8500841 5.00510719,11.5454136 L5.52450905,6.40796126 C5.57193286,5.9388879 5.9388879,5.57193286 6.40796126,5.52450905 Z M15.3540581,11.8185242 L11.8185242,15.3540581 C11.6232621,15.5493203 11.6232621,15.8659028 11.8185242,16.0611649 C12.0137864,16.256427 12.3303689,16.256427 12.525631,16.0611649 L16.0611649,12.525631 C16.256427,12.3303689 16.256427,12.0137864 16.0611649,11.8185242 C15.8659028,11.6232621 15.5493203,11.6232621 15.3540581,11.8185242 Z M7.92943692,7.92943692 C7.34365048,8.51522336 7.34365048,9.46497082 7.92943692,10.0507573 C8.51522336,10.6365437 9.46497082,10.6365437 10.0507573,10.0507573 C10.6365437,9.46497082 10.6365437,8.51522336 10.0507573,7.92943692 C9.46497082,7.34365048 8.51522336,7.34365048 7.92943692,7.92943692 Z" id="形状" fill="#409EFF"></path>
            </g>
        </g>
    </g>
</svg>