<?xml version="1.0" encoding="UTF-8"?>
<svg width="24px" height="24px" viewBox="0 0 24 24" version="1.1" xmlns="http://www.w3.org/2000/svg" xmlns:xlink="http://www.w3.org/1999/xlink">
    <title>最后修改时间</title>
    <g id="icon、颜色" stroke="none" stroke-width="1" fill="none" fill-rule="evenodd">
        <g id="属性icon" transform="translate(-59.000000, -432.000000)">
            <g id="最后修改时间" transform="translate(59.000000, 432.000000)">
                <circle id="椭圆形" fill="#EBF5FF" cx="12" cy="12" r="12"></circle>
                <g id="编组-35" transform="translate(6.000000, 5.000000)" fill="#409EFF">
                    <path d="M8.3,4.5519144e-14 C8.68659932,4.61142607e-14 9,0.313400675 9,0.7 C9,1.08659932 8.68659932,1.4 8.3,1.4 L1.4,1.4 L1.4,12.599 L10.599,12.599 L10.6,9.7 C10.6,9.31340068 10.9134007,9 11.3,9 C11.6865993,9 12,9.31340068 12,9.7 L11.9998755,13.2866631 C11.9999584,13.2910987 12,13.2955445 12,13.3 C12,13.6865993 11.6865993,14 11.3,14 L11.286,13.999 L0.713336931,13.9998755 C0.708901255,13.9999584 0.704455489,14 0.7,14 C0.313400675,14 4.80104871e-14,13.6865993 4.5519144e-14,13.3 L4.5519144e-14,0.7 C4.55828215e-14,0.313400675 0.313400675,4.73447626e-17 0.7,0 L8.3,4.5519144e-14 Z M10.7015055,3.28066288 L12.1157191,4.69487645 C12.3109812,4.89013859 12.3109812,5.20672108 12.1157191,5.40198323 L7.68645025,9.83125204 C7.57667539,9.9410269 7.44284966,10.0237357 7.29557123,10.0728286 L5.09649111,10.8058553 C4.88691378,10.8757144 4.66038579,10.7624504 4.59052668,10.552873 C4.56315777,10.4707663 4.56315777,10.3819976 4.59052668,10.2998908 L5.32355339,8.10081071 C5.3726462,7.95353228 5.45535504,7.81970655 5.5651299,7.70993169 L9.99439871,3.28066288 C10.1896609,3.08540074 10.5062433,3.08540074 10.7015055,3.28066288 Z M12.3278511,1.51289593 L13.883486,3.06853084 C14.0396957,3.22474056 14.0396957,3.47800656 13.883486,3.63421628 L13.4592219,4.05848034 C13.3030122,4.21469006 13.0497462,4.21469006 12.8935365,4.05848034 L11.3379016,2.50284543 C11.1816919,2.34663571 11.1816919,2.09336971 11.3379016,1.93715999 L11.7621657,1.51289593 C11.9183754,1.35668622 12.1716414,1.35668622 12.3278511,1.51289593 Z" id="形状结合"></path>
                    <path d="M3.1,2.6 L6.7,2.6 C7.08659932,2.6 7.4,2.91340068 7.4,3.3 C7.4,3.68659932 7.08659932,4 6.7,4 L3.1,4 C2.71340068,4 2.4,3.68659932 2.4,3.3 C2.4,2.91340068 2.71340068,2.6 3.1,2.6 Z M3.1,5 L4.7,5 C5.08659932,5 5.4,5.31340068 5.4,5.7 C5.4,6.08659932 5.08659932,6.4 4.7,6.4 L3.1,6.4 C2.71340068,6.4 2.4,6.08659932 2.4,5.7 C2.4,5.31340068 2.71340068,5 3.1,5 Z" id="形状结合" opacity="0.5"></path>
                </g>
            </g>
        </g>
    </g>
</svg>