<?xml version="1.0" encoding="UTF-8"?>
<svg width="24px" height="24px" viewBox="0 0 24 24" version="1.1" xmlns="http://www.w3.org/2000/svg" xmlns:xlink="http://www.w3.org/1999/xlink">
    <title>版本</title>
    <g id="模型目录" stroke="none" stroke-width="1" fill="none" fill-rule="evenodd">
        <g id="模型基本信息-模型摘要" transform="translate(-1555.000000, -369.000000)" fill-rule="nonzero">
            <g id="展示区" transform="translate(208.000000, 86.000000)">
                <g id="右侧属性" transform="translate(1311.000000, 101.000000)">
                    <g id="编组-3" transform="translate(22.000000, 10.000000)">
                        <g id="组_3880-6备份-5" transform="translate(0.000000, 166.000000)">
                            <g id="版本" transform="translate(14.000000, 6.000000)">
                                <circle id="椭圆_1617-3" fill="#EDF3FF" cx="12" cy="12" r="12"></circle>
                                <g id="编组-5" transform="translate(4.000000, 4.000000)">
                                    <path d="M3.56883904,6.35396147 L4.94730107,6.89042219 C4.94805893,6.89071712 4.94882035,6.89100281 4.94958517,6.89127917 L7.99983224,7.99345776 L7.99983224,7.99345776 C8.07240421,8.02326191 9.09111658,7.65611189 11.0559694,6.8920077 L11.0559694,6.8920077 L12.4341434,6.35425749 C12.5519392,6.30829471 12.6827748,6.30866913 12.8003056,6.35530535 L15.709116,7.50952148 L15.709116,7.50952148 C15.9839565,7.66476715 16.0809073,8.01342085 15.9256616,8.28826132 C15.8745217,8.37879734 15.7996521,8.45366694 15.709116,8.50480688 L8.56713894,11.2938627 C8.14570114,11.4635078 7.85582965,11.4635078 7.44275037,11.2938627 L0.290548432,8.50480688 C0.01570796,8.34956121 -0.0812427868,8.00090751 0.0740028781,7.72606704 C0.125142816,7.63553102 0.200012412,7.56066142 0.290548432,7.50952148 L3.20327352,6.35509612 C3.32061719,6.3085883 3.45120893,6.30818296 3.56883904,6.35396147 Z" id="路径" fill="#2E69F0"></path>
                                    <path d="M3.56883904,10.8895926 L4.94730107,11.4260533 C4.94805893,11.4263482 4.94882035,11.4266339 4.94958517,11.4269103 L7.99983224,12.5290889 L7.99983224,12.5290889 C8.07240421,12.558893 9.09111658,12.191743 11.0559694,11.4276388 L11.0559694,11.4276388 L12.4341434,10.8898886 C12.5519392,10.8439258 12.6827748,10.8443002 12.8003056,10.8909365 L15.709116,12.0451526 L15.709116,12.0451526 C15.9839565,12.2003983 16.0809073,12.549052 15.9256616,12.8238924 C15.8745217,12.9144285 15.7996521,12.9892981 15.709116,13.040438 L8.56713894,15.8294939 C8.14570114,15.999139 7.85582965,15.999139 7.44275037,15.8294939 L0.290548432,13.040438 C0.01570796,12.8851923 -0.0812427868,12.5365386 0.0740028781,12.2616982 C0.125142816,12.1711621 0.200012412,12.0962925 0.290548432,12.0451526 L3.20327352,10.8907272 C3.32061719,10.8442194 3.45120893,10.8438141 3.56883904,10.8895926 Z" id="路径备份-5" fill="#2E69F0"></path>
                                    <path d="M8.56713894,0.107622572 L15.709116,2.94370254 C15.9839565,3.0989482 16.0809073,3.44760191 15.9256616,3.72244238 C15.8745217,3.8129784 15.7996521,3.88784799 15.709116,3.93898793 L8.56713894,6.7280438 C8.14570114,6.8976889 7.85582965,6.8976889 7.44275037,6.7280438 L0.290548432,3.93898793 C0.01570796,3.78374227 -0.0812427868,3.43508857 0.0740028781,3.16024809 C0.125142816,3.06971207 0.200012412,2.99484248 0.290548432,2.94370254 L7.44275037,0.107622572 C7.84086427,-0.0358741908 8.17175974,-0.0358741908 8.56713894,0.107622572 Z" id="矩形" fill="#A0BBF9"></path>
                                </g>
                            </g>
                        </g>
                    </g>
                </g>
            </g>
        </g>
    </g>
</svg>