<?xml version="1.0" encoding="UTF-8"?>
<svg width="64px" height="64px" viewBox="0 0 64 64" version="1.1" xmlns="http://www.w3.org/2000/svg" xmlns:xlink="http://www.w3.org/1999/xlink">
    <title>字段</title>
    <g id="元数据-知识图谱" stroke="none" stroke-width="1" fill="none" fill-rule="evenodd">
        <g id="列表详情" transform="translate(-656.000000, -48.000000)">
            <g id="字段" transform="translate(656.000000, 48.000000)">
                <circle id="椭圆形" fill="#F7EDF4" cx="32" cy="32" r="32"></circle>
                <g id="编组" transform="translate(16.000000, 16.000000)" fill="#B44C97">
                    <path d="M31.41,0.590009829 L31.31,0.500004933 C31.2517182,0.440950921 31.1881157,0.387390938 31.12,0.340009868 C30.7889253,0.117524205 30.3988854,-0.000880752256 30,4.93266854e-06 L2,4.93266854e-06 C0.8954305,4.93266854e-06 0,0.895440282 0,2.00000493 L0,30.0000049 C0,31.1045746 0.8954305,32.0000049 2,32.0000049 L30,32.0000049 C31.1045695,32.0000049 32,31.1045746 32,30.0000049 L32,2.00000493 C31.9977672,1.47043284 31.7855878,0.963360061 31.41,0.590009829 Z M14.6666667,30.0000049 L2,30.0000049 L2,9.33333827 L14.6666667,9.33333827 L14.6666667,30.0000049 Z M30,30.0000049 L17.3333333,30.0000049 L17.3333333,9.33333827 L30,9.33333827 L30,30.0000049 Z" id="字段(48*48)" fill-rule="nonzero"></path>
                    <rect id="矩形" opacity="0.20031157" x="2" y="9" width="13" height="21"></rect>
                </g>
            </g>
        </g>
    </g>
</svg>