<?xml version="1.0" encoding="UTF-8"?>
<svg width="64px" height="64px" viewBox="0 0 64 64" version="1.1" xmlns="http://www.w3.org/2000/svg" xmlns:xlink="http://www.w3.org/1999/xlink">
    <title>权属部门</title>
    <g id="元数据-知识图谱" stroke="none" stroke-width="1" fill="none" fill-rule="evenodd">
        <g id="列表详情" transform="translate(-2088.000000, -48.000000)" fill-rule="nonzero">
            <g id="权属部门" transform="translate(2088.000000, 48.000000)">
                <circle id="椭圆_1817" fill="#FDF2F1" cx="32" cy="32" r="32"></circle>
                <polygon id="联合_462" fill="#EE827C" opacity="0.395763579" points="43 45 43 38 33 38 33 45 31 45 31 38 21 38 21 45 19 45 19 36 31 36 31 29 33 29 33 36 45 36 45 45"></polygon>
                <path d="M23,42 C23.5522847,42 24,42.4477153 24,43 L24,49 C24,49.5522847 23.5522847,50 23,50 L17,50 C16.4477153,50 16,49.5522847 16,49 L16,43 C16,42.4477153 16.4477153,42 17,42 L23,42 Z M35,42 C35.5522847,42 36,42.4477153 36,43 L36,49 C36,49.5522847 35.5522847,50 35,50 L29,50 C28.4477153,50 28,49.5522847 28,49 L28,43 C28,42.4477153 28.4477153,42 29,42 L35,42 Z M47,42 C47.5522847,42 48,42.4477153 48,43 L48,49 C48,49.5522847 47.5522847,50 47,50 L41,50 C40.4477153,50 40,49.5522847 40,49 L40,43 C40,42.4477153 40.4477153,42 41,42 L47,42 Z M34.677,14.018 C34.8962876,14.0214229 35.1145598,14.0485812 35.328,14.099 C35.5670436,14.159167 35.8010751,14.2377347 36.028,14.334 C36.2550671,14.4334167 36.4679275,14.5625453 36.661,14.718 C36.8439742,14.8612966 37.0015103,15.0343835 37.127,15.23 C37.1950225,15.3420213 37.2182374,15.4755966 37.192,15.604 C37.173799,15.7044387 37.1449703,15.8026574 37.106,15.897 C36.9256446,16.3050596 36.8693063,16.7571574 36.944,17.197 C37.0170742,17.6540658 37.2363723,18.0751183 37.569,18.397 C37.9060935,18.7364439 38.3572919,18.9385209 38.835,18.964 C39.3155277,19.0029635 39.7979379,18.9164742 40.235,18.713 C40.3608593,18.6375032 40.5083194,18.6061811 40.654,18.624 C40.8135873,18.631518 40.9642367,18.6998648 41.075,18.815 C41.3281298,19.0752276 41.5233975,19.3860201 41.648,19.727 C41.8098608,20.1228328 41.9230235,20.5368671 41.985,20.96 C42.022857,21.1577289 41.9815604,21.3624167 41.87,21.53 C41.7843888,21.6460683 41.6699447,21.7377614 41.538,21.796 C41.0899292,21.9623369 40.6981398,22.2521918 40.408,22.632 C40.0993078,23.0107925 39.9342741,23.4864154 39.942,23.975 C39.933463,24.432143 40.0738598,24.8796577 40.342,25.25 C40.6014706,25.6116894 40.9654446,25.8852806 41.385,26.034 C41.4738864,26.0858593 41.5593917,26.1433082 41.641,26.206 C41.7928393,26.3325101 41.9029724,26.5018922 41.957,26.692 L41.963,26.666 C41.9896986,26.87366 41.9836246,27.0842243 41.945,27.29 C41.9013193,27.5477242 41.8295586,27.7998926 41.731,28.042 C41.6384838,28.2830022 41.5172777,28.5119844 41.37,28.724 C41.250131,28.9023211 41.0884226,29.0485797 40.899,29.15 C40.7617449,29.2262784 40.6088261,29.2700672 40.452,29.278 C40.3048863,29.2746 40.1593106,29.2472412 40.021,29.197 C39.8462541,29.1424855 39.6677864,29.1007094 39.487,29.072 C39.2701817,29.0360671 39.0494625,29.0300107 38.831,29.054 C38.60554,29.074696 38.3833252,29.1220257 38.169,29.195 C37.9502456,29.2630282 37.7546572,29.3904203 37.604,29.563 C37.2718598,29.8921889 37.0604651,30.3237866 37.004,30.788 C36.9465931,31.2344551 37.015898,31.6880558 37.204,32.097 C37.3500513,32.371189 37.3279608,32.7044851 37.147,32.957 C37.0314331,33.0977846 36.8936131,33.218715 36.739,33.315 C36.5435489,33.4425087 36.3378412,33.5535573 36.124,33.647 C35.899273,33.750191 35.6647672,33.830593 35.424,33.887 C35.2137932,33.9412486 34.9980389,33.9711119 34.781,33.976 C34.6446954,33.9736762 34.5141706,33.9205391 34.415,33.827 C34.3090167,33.7420398 34.2278459,33.6301278 34.18,33.503 L34.156,33.498 C33.9941257,33.0516307 33.7158502,32.656659 33.35,32.354 C32.9830307,32.038548 32.5128363,31.8691215 32.029,31.878 C31.5449086,31.8807399 31.0776331,32.0558796 30.711,32.372 C30.3380683,32.6650485 30.053842,33.0559031 29.89,33.501 C29.8300114,33.6600225 29.7174521,33.7937528 29.571,33.88 C29.4247682,33.9589278 29.2611725,34.0000005 29.095,34.0000005 C28.8663605,33.9993176 28.6390166,33.9656371 28.42,33.9 C28.1661833,33.830375 27.9178438,33.7421359 27.677,33.636 C27.4387945,33.5368176 27.2123949,33.4113754 27.002,33.262 C26.8277472,33.1465065 26.6748195,33.0016988 26.55,32.834 C26.4758436,32.7309893 26.4346969,32.607898 26.432,32.481 C26.4406087,32.2818976 26.4942902,32.0873451 26.589,31.912 C26.7487444,31.5584934 26.8108976,31.168655 26.769,30.783 C26.7212683,30.3430211 26.525592,29.9322772 26.214,29.618 C26.02102,29.4064695 25.7668987,29.2603585 25.487,29.2 C25.2184046,29.1398075 24.9429468,29.1159277 24.668,29.129 C24.3544884,29.1453295 24.0446517,29.2042018 23.747,29.304 C23.5491802,29.3645586 23.3361596,29.3517774 23.147,29.268 C22.9590172,29.186759 22.8027467,29.0462912 22.702,28.868 C22.5574273,28.6504112 22.4322782,28.4205249 22.328,28.181 C22.2203474,27.9326249 22.1369595,27.6744238 22.079,27.41 C22.023984,27.1969423 22.0090638,26.9755123 22.035,26.757 C22.0419896,26.4890513 22.2103378,26.2519411 22.461,26.157 C22.9076228,25.9678032 23.3028341,25.6750795 23.614,25.303 C23.9415031,24.9404841 24.1231819,24.4695442 24.124,23.981 C24.1262906,23.4965379 23.9397705,23.0302377 23.604,22.681 C23.2837216,22.3297086 22.8900862,22.0531737 22.451,21.871 C22.3053068,21.8155404 22.188376,21.7033013 22.127,21.56 C22.0438034,21.406276 21.9988688,21.2347699 21.996,21.06 C21.9989277,20.8490588 22.0271288,20.6392288 22.08,20.435 C22.1364443,20.2071572 22.2117027,19.9843925 22.305,19.769 C22.3909239,19.5610153 22.4978089,19.3623233 22.624,19.176 C22.7268044,19.0169589 22.8612645,18.8807967 23.019,18.776 C23.1151302,18.7084901 23.2319606,18.6769813 23.349,18.687 C23.4696341,18.7054209 23.5886577,18.7331708 23.705,18.77 C24.1308836,18.9416411 24.5950222,18.9958597 25.049,18.927 C25.5117974,18.8567812 25.9398114,18.6397945 26.27,18.308 C26.4409426,18.1281388 26.5658289,17.9095877 26.634,17.671 C26.7740555,17.2184368 26.822999,16.7425973 26.778,16.271 C26.757,16.071 26.739,15.926 26.726,15.84 C26.6925689,15.7462662 26.6655073,15.6503813 26.645,15.553 C26.6240554,15.4519328 26.6359686,15.3468166 26.679,15.253 C26.7754042,15.0324292 26.93561,14.8457546 27.139,14.717 C27.3632868,14.5675664 27.6038304,14.4441075 27.856,14.349 C28.0992208,14.2507872 28.3504938,14.1738328 28.607,14.119 C28.7959859,14.0760638 28.9884054,14.0499617 29.182,14.041 C29.3478252,14.0326997 29.5087338,14.0986759 29.621,14.221 C29.7208326,14.3294771 29.7983087,14.4565651 29.849,14.595 C30.0187273,14.9934512 30.2859189,15.3428292 30.626,15.611 C30.9825498,15.9037542 31.4328417,16.0578762 31.894,16.045 C32.3720122,16.0503489 32.8389273,15.900908 33.225,15.619 C33.5972383,15.3541912 33.880097,14.9823941 34.036,14.553 C34.1039576,14.4210029 34.193146,14.3010714 34.3,14.198 C34.3967687,14.0903053 34.5324128,14.0255415 34.677,14.018 Z M31.98,20.552 C31.5227145,20.5494017 31.069968,20.6427444 30.651,20.826 C28.9169365,21.5721365 28.1099415,23.5777893 28.844,25.317 C29.0181765,25.7239671 29.2675332,26.0944399 29.579,26.409 C30.2204028,27.0524288 31.0945457,27.4094426 32.003,27.399 L31.996,27.416 C32.9098671,27.4129621 33.7846679,27.0450418 34.426,26.394 C34.7371718,26.076765 34.9855366,25.7035392 35.158,25.294 C35.8855692,23.5496052 35.0625611,21.5455648 33.319,20.816 C32.8957827,20.6361649 32.439805,20.5462634 31.98,20.552 Z" id="形状结合" fill="#EE827C"></path>
            </g>
        </g>
    </g>
</svg>