<?xml version="1.0" encoding="UTF-8"?>
<svg width="24px" height="24px" viewBox="0 0 24 24" version="1.1" xmlns="http://www.w3.org/2000/svg" xmlns:xlink="http://www.w3.org/1999/xlink">
    <title>文本</title>
    <g id="数据集-表" stroke="none" stroke-width="1" fill="none" fill-rule="evenodd">
        <g id="数据集-表-字段信息tab备份" transform="translate(-588.000000, -412.000000)" fill="#5C8CFF">
            <g id="文本" transform="translate(588.000000, 412.000000)">
                <rect id="矩形备份-2" fill-opacity="0.1" x="0" y="0" width="24" height="24" rx="2"></rect>
                <path d="M17.857,4 C18.488,4 19,4.512 19,5.143 L19,18.857 C19,19.488 18.488,20 17.857,20 L6.143,20 C5.51173853,20 5,19.4882615 5,18.857 L5,5.143 C5,4.512 5.512,4 6.143,4 L17.857,4 Z M17.857,5.143 L16.333,5.142 L15.832,6.647 C15.6766172,7.11379178 15.2399739,7.4287872 14.748,7.429 L9.252,7.429 C8.76,7.429 8.324,7.114 8.168,6.647 L7.666,5.142 L6.143,5.142 L6.143,18.857 L17.857,18.857 L17.857,5.143 Z M15.128,5.143 L8.871,5.143 L9.252,6.286 L14.748,6.286 L15.128,5.143 L15.128,5.143 Z M7.786,9.714 L16.214,9.714 C16.4901424,9.714 16.714,9.93785763 16.714,10.214 L16.714,10.357 C16.714,10.6331424 16.4901424,10.857 16.214,10.857 L7.786,10.857 C7.50985763,10.857 7.286,10.6331424 7.286,10.357 L7.286,10.214 C7.286,9.93785763 7.50985763,9.714 7.786,9.714 Z M7.786,14.286 L16.214,14.286 C16.4901424,14.286 16.714,14.5098576 16.714,14.786 L16.714,14.929 C16.714,15.2051424 16.4901424,15.429 16.214,15.429 L7.786,15.429 C7.50985763,15.429 7.286,15.2051424 7.286,14.929 L7.286,14.786 C7.286,14.5098576 7.50985763,14.286 7.786,14.286 Z" id="形状" fill-rule="nonzero"></path>
            </g>
        </g>
    </g>
</svg>