<?xml version="1.0" encoding="UTF-8"?>
<svg width="48px" height="48px" viewBox="0 0 48 48" version="1.1" xmlns="http://www.w3.org/2000/svg" xmlns:xlink="http://www.w3.org/1999/xlink">
    <title>数据服务-48</title>
    <g id="dam-icon" stroke="none" stroke-width="1" fill="none" fill-rule="evenodd">
        <g id="资产状态" transform="translate(-1428.000000, -626.000000)">
            <g id="编组-27" transform="translate(0.000000, 600.000000)">
                <g id="数据服务-48" transform="translate(1428.000000, 26.000000)">
                    <path d="M43.5,0 C45.9852814,0 48,2.01471863 48,4.5 L48,4.5 L48,43.5 C48,45.9852814 45.9852814,48 43.5,48 L43.5,48 L4.5,48 C2.01471863,48 0,45.9852814 0,43.5 L0,43.5 L0,4.5 C0,2.01471863 2.01471863,0 4.5,0 L4.5,0 Z M43.5,3 L4.5,3 C3.67157288,3 3,3.67157288 3,4.5 L3,4.5 L3,43.5 C3,44.3284271 3.67157288,45 4.5,45 L4.5,45 L43.5,45 C44.3284271,45 45,44.3284271 45,43.5 L45,43.5 L45,4.5 C45,3.67157288 44.3284271,3 43.5,3 L43.5,3 Z M33,7.5 C36.3137085,7.5 39,10.1862915 39,13.5 C39,16.8137085 36.3137085,19.5 33,19.5 C31.3466603,19.5 29.8495101,18.8312732 28.7642745,17.7495446 L19.3471405,22.6483705 C19.4471531,23.0827833 19.5,23.5352201 19.5,24 C19.5,24.5915777 19.4143853,25.1631591 19.2548705,25.7030296 L28.1129598,31.0182649 C29.2009561,29.4938654 30.9844132,28.5 33,28.5 C36.3137085,28.5 39,31.1862915 39,34.5 C39,37.8137085 36.3137085,40.5 33,40.5 C29.6862915,40.5 27,37.8137085 27,34.5 C27,34.2870148 27.0110975,34.0766216 27.0327457,33.869367 L17.7099431,28.2750898 C16.6268386,29.3417914 15.1402857,30 13.5,30 C10.1862915,30 7.5,27.3137085 7.5,24 C7.5,20.6862915 10.1862915,18 13.5,18 C15.2712699,18 16.8632741,18.7675276 17.9615701,19.9881404 L27.2337792,15.1641283 C27.0815569,14.6357286 27,14.0773886 27,13.5 C27,10.1862915 29.6862915,7.5 33,7.5 Z M33,31.5 C31.3431458,31.5 30,32.8431458 30,34.5 C30,36.1568542 31.3431458,37.5 33,37.5 C34.6568542,37.5 36,36.1568542 36,34.5 C36,32.8431458 34.6568542,31.5 33,31.5 Z M33,10.5 C31.3431458,10.5 30,11.8431458 30,13.5 C30,15.1568542 31.3431458,16.5 33,16.5 C34.6568542,16.5 36,15.1568542 36,13.5 C36,11.8431458 34.6568542,10.5 33,10.5 Z" id="形状结合" fill="#00A497" fill-rule="nonzero"></path>
                    <path d="M33,30 C35.4852814,30 37.5,32.0147186 37.5,34.5 C37.5,36.9852814 35.4852814,39 33,39 C30.5147186,39 28.5,36.9852814 28.5,34.5 C28.5,32.0147186 30.5147186,30 33,30 Z M33,9 C35.4852814,9 37.5,11.0147186 37.5,13.5 C37.5,15.9852814 35.4852814,18 33,18 C30.5147186,18 28.5,15.9852814 28.5,13.5 C28.5,11.0147186 30.5147186,9 33,9 Z" id="形状结合" fill-opacity="0.2" fill="#33A097"></path>
                </g>
            </g>
        </g>
    </g>
</svg>