<?xml version="1.0" encoding="UTF-8"?>
<svg width="48px" height="48px" viewBox="0 0 48 48" version="1.1" xmlns="http://www.w3.org/2000/svg" xmlns:xlink="http://www.w3.org/1999/xlink">
    <title>字段-48</title>
    <g id="dam-icon" stroke="none" stroke-width="1" fill="none" fill-rule="evenodd">
        <g id="资产状态" transform="translate(-704.000000, -626.000000)" fill="#B44C97" fill-rule="nonzero">
            <g id="编组-27" transform="translate(0.000000, 600.000000)">
                <path d="M751.115,26.8850147 L750.965,26.7500148 C750.877577,26.6614264 750.782174,26.5810864 750.68,26.5100148 C750.183388,26.1762863 749.598328,25.9986789 749,26.0000074 L707,26.0000074 C705.343146,26.0000074 704,27.3431604 704,29.0000074 L704,71.0000074 C704,72.6568619 705.343146,74.0000074 707,74.0000074 L749,74.0000074 C750.656854,74.0000074 752,72.6568619 752,71.0000074 L752,29.0000074 C751.996651,28.2056493 751.678382,27.4450401 751.115,26.8850147 Z M726,71.0000074 L707,71.0000074 L707,40.0000074 L726,40.0000074 L726,71.0000074 Z M749,71.0000074 L730,71.0000074 L730,40.0000074 L749,40.0000074 L749,71.0000074 Z" id="字段-48"></path>
            </g>
        </g>
    </g>
</svg>