<?xml version="1.0" standalone="no"?><!DOCTYPE svg PUBLIC "-//W3C//DTD SVG 1.1//EN" "http://www.w3.org/Graphics/SVG/1.1/DTD/svg11.dtd"><svg t="1701243859275" class="icon" viewBox="0 0 1024 1024" version="1.1" xmlns="http://www.w3.org/2000/svg" p-id="8983" xmlns:xlink="http://www.w3.org/1999/xlink" width="200" height="200"><path d="M938.666667 0v1024H170.666667a85.333333 85.333333 0 0 1-85.333334-85.333333V85.333333a85.333333 85.333333 0 0 1 85.333334-85.333333h768z m-59.733334 870.4H192a46.933333 46.933333 0 0 0-46.677333 41.813333l-0.256 5.12a46.933333 46.933333 0 0 0 46.933333 46.933334h686.933333v-93.866667z m0-810.666667H554.666667V512l-128-85.333333-128 85.333333V59.733333H170.666667a25.6 25.6 0 0 0-25.258667 21.461334L145.066667 85.333333v736.170667A106.24 106.24 0 0 1 192 810.666667h686.933333V59.733333z m-384 0H358.4v340.650667L426.666667 354.858667l68.266666 45.525333V59.733333z" fill="#999999" p-id="8984"></path></svg>