<?xml version="1.0" encoding="UTF-8"?>
<svg width="48px" height="48px" viewBox="0 0 48 48" version="1.1" xmlns="http://www.w3.org/2000/svg" xmlns:xlink="http://www.w3.org/1999/xlink">
    <title>表-48</title>
    <g id="icon" stroke="none" stroke-width="1" fill="none" fill-rule="evenodd">
        <g id="资产状态" transform="translate(-220.000000, -842.000000)" fill="#E68355" fill-rule="nonzero">
            <path d="M265,842 L223,842 C221.343146,842 220,843.343146 220,845 L220,887 C220,888.656854 221.343146,890 223,890 L265,890 C266.656854,890 268,888.656854 268,887 L268,845 C268,843.343146 266.656854,842 265,842 Z M235,887 L223,887 L223,878 L235,878 L235,887 Z M235,875 L223,875 L223,867 L235,867 L235,875 Z M235,864 L223,864 L223,856 L235,856 L235,864 Z M250,887 L238,887 L238,878 L250,878 L250,887 Z M250,875 L238,875 L238,867 L250,867 L250,875 Z M250,864 L238,864 L238,856 L250,856 L250,864 Z M265,887 L253,887 L253,878 L265,878 L265,887 Z M265,875 L253,875 L253,867 L265,867 L265,875 Z M265,864 L253,864 L253,856 L265,856 L265,864 Z" id="表-48"></path>
        </g>
    </g>
</svg>