<?xml version="1.0" encoding="UTF-8"?>
<svg width="160px" height="160px" viewBox="0 0 160 160" version="1.1" xmlns="http://www.w3.org/2000/svg" xmlns:xlink="http://www.w3.org/1999/xlink">
    <title>初始-暂无数据</title>
    <defs>
        <linearGradient x1="80.9165737%" y1="88.9655413%" x2="16.4892578%" y2="12.9778181%" id="linearGradient-1">
            <stop stop-color="#F7FAFF" stop-opacity="0.226535184" offset="0%"></stop>
            <stop stop-color="#EAF4FF" offset="100%"></stop>
        </linearGradient>
    </defs>
    <g id="dam-icon" stroke="none" stroke-width="1" fill="none" fill-rule="evenodd">
        <g id="类型" transform="translate(-137.000000, -428.000000)">
            <g id="初始-暂无数据" transform="translate(137.000000, 428.000000)">
                <circle id="椭圆_1699" fill="url(#linearGradient-1)" fill-rule="nonzero" cx="80" cy="80" r="60"></circle>
                <rect id="矩形_17690" fill="#467FBA" fill-rule="nonzero" opacity="0.155110677" x="46" y="39" width="68" height="82" rx="2"></rect>
                <rect id="矩形_17691" fill="#FDFDFD" fill-rule="nonzero" x="52" y="44" width="56" height="71" rx="2"></rect>
                <circle id="椭圆_1700" fill="#B9CCFF" fill-rule="nonzero" cx="5" cy="68" r="5"></circle>
                <circle id="椭圆_1701" fill="#745BFD" fill-rule="nonzero" cx="129" cy="16" r="4"></circle>
                <path d="M80,33 C83.2383969,33 85.8775718,35.5655749 85.9958615,38.7750617 L86,39 L97,39 C98.6568542,39 100,40.3431458 100,42 L100,46 L60,46 L60,42 C60,40.3431458 61.3431458,39 63,39 L74,39 C74,35.6862915 76.6862915,33 80,33 Z M80,36 C78.8954305,36 78,36.8954305 78,38 C78,39.1045695 78.8954305,40 80,40 C81.1045695,40 82,39.1045695 82,38 C82,36.8954305 81.1045695,36 80,36 Z" id="形状结合" fill="#5E85B7"></path>
                <path d="M86,98 C87.1045695,98 88,98.8954305 88,100 C88,101.104569 87.1045695,102 86,102 L60,102 C58.8954305,102 58,101.104569 58,100 C58,98.8954305 58.8954305,98 60,98 L86,98 Z M100,88 C101.104569,88 102,88.8954305 102,90 C102,91.1045695 101.104569,92 100,92 L60,92 C58.8954305,92 58,91.1045695 58,90 C58,88.8954305 58.8954305,88 60,88 L100,88 Z M100,78 C101.104569,78 102,78.8954305 102,80 C102,81.1045695 101.104569,82 100,82 L60,82 C58.8954305,82 58,81.1045695 58,80 C58,78.8954305 58.8954305,78 60,78 L100,78 Z M100,68 C101.104569,68 102,68.8954305 102,70 C102,71.1045695 101.104569,72 100,72 L80,72 C78.8954305,72 78,71.1045695 78,70 C78,68.8954305 78.8954305,68 80,68 L100,68 Z M100,58 C101.104569,58 102,58.8954305 102,60 C102,61.1045695 101.104569,62 100,62 L80,62 C78.8954305,62 78,61.1045695 78,60 C78,58.8954305 78.8954305,58 80,58 L100,58 Z" id="形状结合" fill="#5D656C" fill-rule="nonzero"></path>
                <rect id="矩形_17671" fill="#409EFF" fill-rule="nonzero" x="58" y="58" width="14" height="14" rx="2"></rect>
                <path d="M20,0 C21.1045695,-2.02906125e-16 22,0.8954305 22,2 L22,5 L25,5 C26.1045695,5 27,5.8954305 27,7 C27,8.1045695 26.1045695,9 25,9 L22,9 L22,12 C22,13.1045695 21.1045695,14 20,14 C18.8954305,14 18,13.1045695 18,12 L18,9 L15,9 C13.8954305,9 13,8.1045695 13,7 C13,5.8954305 13.8954305,5 15,5 L18,5 L18,2 C18,0.8954305 18.8954305,2.02906125e-16 20,0 Z" id="形状结合" fill="#83EDC1"></path>
                <path d="M153,39 C154.104569,39 155,39.8954305 155,41 L155,44 L158,44 C159.104569,44 160,44.8954305 160,46 C160,47.1045695 159.104569,48 158,48 L155,48 L155,51 C155,52.1045695 154.104569,53 153,53 C151.895431,53 151,52.1045695 151,51 L151,48 L148,48 C146.895431,48 146,47.1045695 146,46 C146,44.8954305 146.895431,44 148,44 L151,44 L151,41 C151,39.8954305 151.895431,39 153,39 Z" id="形状结合备份-2" fill="#85D1F6"></path>
            </g>
        </g>
    </g>
</svg>