<?xml version="1.0" encoding="UTF-8"?>
<svg width="14px" height="12px" viewBox="0 0 14 12" version="1.1" xmlns="http://www.w3.org/2000/svg" xmlns:xlink="http://www.w3.org/1999/xlink">
    <title>形状结合</title>
    <g id="设计方案" stroke="none" stroke-width="1" fill="none" fill-rule="evenodd">
        <g id="管理/资产目录-摘要信息备份" transform="translate(-1850.000000, -229.000000)" fill="#409EFF">
            <path d="M1859.87291,229.166927 C1860.03642,229.349994 1860.0405,229.620077 1859.89474,229.807032 L1859.83308,229.872911 L1854.757,234.499998 L1863.5,234.5 C1863.77614,234.5 1864,234.723858 1864,235 C1864,235.276142 1863.77614,235.5 1863.5,235.5 L1854.759,235.499998 L1859.83308,240.127096 C1860.01615,240.29061 1860.05058,240.55852 1859.92677,240.760683 L1859.87291,240.83308 C1859.7094,241.016148 1859.44149,241.050579 1859.23932,240.926774 L1859.16693,240.872911 L1853.19176,235.429148 C1852.96115,235.223164 1852.9354,234.871146 1853.13157,234.633456 L1853.19176,234.570858 L1859.16693,229.127096 C1859.37288,228.943143 1859.68896,228.960976 1859.87291,229.166927 Z M1850.5,230 C1850.77614,230 1851,230.223858 1851,230.5 L1851,239.5 C1851,239.776142 1850.77614,240 1850.5,240 C1850.22386,240 1850,239.776142 1850,239.5 L1850,230.5 C1850,230.223858 1850.22386,230 1850.5,230 Z" id="形状结合" transform="translate(1857.000000, 235.000003) scale(-1, 1) translate(-1857.000000, -235.000003) "></path>
        </g>
    </g>
</svg>