<?xml version="1.0" standalone="no"?><!DOCTYPE svg PUBLIC "-//W3C//DTD SVG 1.1//EN" "http://www.w3.org/Graphics/SVG/1.1/DTD/svg11.dtd"><svg t="1701243060591" class="icon" viewBox="0 0 1024 1024" version="1.1" xmlns="http://www.w3.org/2000/svg" p-id="8560" xmlns:xlink="http://www.w3.org/1999/xlink" width="200" height="200"><path d="M914.24686 0C974.787076 0 1023.936004 49.148928 1023.936004 109.689144v182.836573a36.541716 36.541716 0 1 1-73.147428 0V109.689144a36.541716 36.541716 0 0 0-36.541716-36.541716H109.689144a36.541716 36.541716 0 0 0-36.541716 36.541716v804.557716c0 20.15874 16.382976 36.541716 36.541716 36.541716h329.13143a36.541716 36.541716 0 0 1 0 73.147428H109.689144A109.689144 109.689144 0 0 1 0 914.24686V109.689144C0 49.148928 49.148928 0 109.689144 0h804.557716z m-26.622337 585.11543c11.903256 0 22.910568 6.463596 28.606213 16.766952l103.801512 188.212237c5.247672 9.5994 5.183676 21.11868-0.063996 30.590088l-103.737516 186.612337a32.63796 32.63796 0 0 1-28.606213 16.63896h-230.001624a32.63796 32.63796 0 0 1-28.030249-15.743016l-114.488844-190.580089a25.5984 25.5984 0 0 1 0-26.366352l114.55284-190.388101a32.63796 32.63796 0 0 1 27.966253-15.743016h230.001624z m-25.022436 73.083433H681.557403L593.626898 804.429723l87.994501 146.294857h181.10868l80.826949-145.526905-80.954941-146.998812z m-137.719392 73.147428h89.27442l40.509468 73.403412-40.509468 72.827448h-89.210424l-44.029248-73.147428 43.965252-73.083432zM365.673145 146.294857v73.147428H219.506281V292.461721h146.23086V511.968002H146.294857V438.820574H292.461721V365.673145H146.294857V146.294857h219.378288z m292.589714 0V511.968002H585.11543V365.673145H438.820574V146.294857h219.442285z m146.23086 0v292.525717h146.294857V511.968002H731.474283V146.294857h73.083432zM585.11543 219.442285H511.968002V292.461721h73.147428V219.506281z" fill="#999999" p-id="8561"></path></svg>