<?xml version="1.0" standalone="no"?><!DOCTYPE svg PUBLIC "-//W3C//DTD SVG 1.1//EN" "http://www.w3.org/Graphics/SVG/1.1/DTD/svg11.dtd"><svg t="1701243448374" class="icon" viewBox="0 0 1024 1024" version="1.1" xmlns="http://www.w3.org/2000/svg" p-id="8842" xmlns:xlink="http://www.w3.org/1999/xlink" width="200" height="200"><path d="M620.8 0c47.36 0 87.68 30.528 102.592 73.152H838.4c60.096 0 108.8 49.088 108.8 109.696v731.456c0 60.544-48.704 109.696-108.8 109.696H185.6c-60.096 0-108.8-49.152-108.8-109.696V182.848c0-60.608 48.704-109.696 108.8-109.696h115.008A108.928 108.928 0 0 1 403.2 0h217.6zM300.608 146.304H185.6a36.48 36.48 0 0 0-36.288 36.544v731.456a36.48 36.48 0 0 0 36.288 36.544h652.8a36.48 36.48 0 0 0 36.288-36.544V182.848a36.48 36.48 0 0 0-36.288-36.544h-115.008A108.928 108.928 0 0 1 620.8 219.456H403.2c-47.36 0-87.68-30.528-102.592-73.152z m156.288 450.56a40.064 40.064 0 0 1 0 56.32l-111.744 112.64a39.296 39.296 0 0 1-55.872 0l-55.872-56.32a40.064 40.064 0 0 1 0-56.32 39.296 39.296 0 0 1 55.872 0l28.032 28.096 83.712-84.48a39.296 39.296 0 0 1 55.872 0z m308.672 61.44a36.544 36.544 0 0 1 0 73.152h-216.96a36.544 36.544 0 1 1 0-73.152h216.96zM330.688 292.48c60.096 0 108.8 49.152 108.8 109.76 0 60.544-48.704 109.696-108.8 109.696-60.16 0-108.8-49.152-108.8-109.696 0-60.608 48.64-109.76 108.8-109.76z m0 73.152a36.48 36.48 0 0 0-36.288 36.608 36.48 36.48 0 0 0 36.288 36.544 36.48 36.48 0 0 0 36.224-36.544 36.48 36.48 0 0 0-36.224-36.608z m434.88 0a36.544 36.544 0 0 1 0 73.152h-216.96a36.544 36.544 0 0 1 0-73.152h216.96zM620.8 73.152H403.2a36.48 36.48 0 0 0-36.288 36.544 36.48 36.48 0 0 0 36.288 36.608h217.6a36.48 36.48 0 0 0 36.288-36.608 36.48 36.48 0 0 0-36.288-36.544z" fill="#999999" p-id="8843"></path></svg>