<?xml version="1.0" standalone="no"?><!DOCTYPE svg PUBLIC "-//W3C//DTD SVG 1.1//EN" "http://www.w3.org/Graphics/SVG/1.1/DTD/svg11.dtd"><svg t="1702464928025" class="icon" viewBox="0 0 1092 1024" version="1.1" xmlns="http://www.w3.org/2000/svg" p-id="8228" xmlns:xlink="http://www.w3.org/1999/xlink" width="213.28125" height="200"><path d="M679.168 39.744h-0.064c60.48 20.48 117.312 51.2 167.104 95.488 5.952 5.76 9.408 13.76 8.32 20.224l-1.216 3.648c-17.728 51.2-10.624 105.728 17.792 150.08 28.48 47.744 71.104 78.464 124.48 88.704 10.624 3.392 17.728 10.24 17.728 20.48 7.104 30.72 10.688 64.768 10.688 95.488s-3.584 61.44-10.688 95.488a35.392 35.392 0 0 1-17.728 20.48c-53.376 13.632-99.584 44.288-124.48 88.64-26.048 43.776-31.232 90.432-20.928 137.28l3.2 12.8c3.52 10.24 0 20.48-7.168 23.872-49.792 40.96-106.624 71.68-167.04 95.488-10.752 3.456-17.856 0-24.96-6.784-39.04-37.568-88.896-61.44-142.208-61.44s-106.688 20.48-142.208 61.44a27.776 27.776 0 0 1-17.792 6.784h-7.104a479.36 479.36 0 0 1-167.104-95.488c-5.952-5.696-9.408-13.76-8.32-20.224l1.216-3.648c17.728-51.2 10.624-105.728-17.792-150.08C124.416 670.72 81.792 640 28.416 629.824c-10.624-3.456-17.728-10.24-17.728-20.48-7.04-31.36-10.624-63.36-10.688-95.488 0-30.72 3.584-61.44 10.688-95.552a35.392 35.392 0 0 1 17.728-20.48C81.792 384.256 128 353.664 152.96 309.248c26.048-43.776 31.232-90.432 20.928-137.28l-3.2-12.8c-3.52-10.24 0-20.48 7.168-23.872 49.728-40.96 106.56-71.68 166.976-95.552 10.752-3.392 17.856 0 24.96 6.784 39.04 37.568 88.896 61.44 142.208 61.44s106.688-20.48 142.208-61.44c7.104-6.784 17.792-10.24 24.96-6.784z m4.672 80l-8.832 7.296A266.368 266.368 0 0 1 512 181.12c-60.288 0-118.08-21.568-167.04-59.52l-1.984-1.664-18.56 8.576c-21.824 10.56-42.88 22.528-63.168 35.84l-12.8 8.96 2.176 16.064a251.2 251.2 0 0 1-25.984 141.184l-8 14.4c-27.136 48.384-71.232 85.504-124.544 108.352l-14.4 5.632-1.28 8.384c-1.536 10.88-2.432 21.248-2.944 31.36l-0.32 15.168c0 12.992 0.768 26.688 2.24 40.128l1.856 13.248 10.56 3.84A251.52 251.52 0 0 1 206.016 665.6l8.448 13.312c32 49.984 44.8 108.864 36.864 166.08l-1.984 11.392 8.512 6.464c21.888 15.616 45.504 29.056 70.976 40.32l11.264 4.672 8.96-7.296a264.512 264.512 0 0 1 146.752-53.568L512 846.592c60.288 0 118.08 21.504 167.04 59.52l1.92 1.536 18.624-8.512c22.592-10.88 43.648-22.912 63.168-35.84l12.736-8.96-2.112-16a251.2 251.2 0 0 1 25.984-141.248l8-14.4c27.136-48.384 71.232-85.504 124.544-108.352l14.336-5.76 1.408-8.256c1.472-10.88 2.368-21.248 2.88-31.36l0.32-15.104c0-13.056-0.768-26.752-2.24-40.128l-1.92-13.376-10.496-3.712a251.52 251.52 0 0 1-118.208-94.656l-8.448-13.312a245.12 245.12 0 0 1-36.864-166.08l1.92-11.456-8.448-6.4a402.688 402.688 0 0 0-70.976-40.32l-11.328-4.736zM512 302.848A213.312 213.312 0 1 1 512 729.6a213.312 213.312 0 0 1 0-426.688zM512 377.6a138.688 138.688 0 1 0 0 277.312A138.688 138.688 0 0 0 512 377.6z" fill="#999999" p-id="8229"></path></svg>