<?xml version="1.0" encoding="UTF-8"?>
<svg width="48px" height="48px" viewBox="0 0 48 48" version="1.1" xmlns="http://www.w3.org/2000/svg" xmlns:xlink="http://www.w3.org/1999/xlink">
    <title>储存过程-48</title>
    <g id="dam-icon" stroke="none" stroke-width="1" fill="none" fill-rule="evenodd">
        <g id="资产状态" transform="translate(-916.000000, -626.000000)" fill="#867BA9" fill-rule="nonzero">
            <g id="编组-27" transform="translate(0.000000, 600.000000)">
                <path d="M958,26 L928.495,26 C925.322124,26 922.75,28.5721241 922.75,31.745 L922.75,62 L922,62 C918.686292,62 916,64.6862915 916,68 C916,71.3137085 918.686292,74 922,74 L951.55,74 C953.069563,74 954.526242,73.3933401 955.596502,72.3146303 C956.666763,71.2359205 957.261997,69.7745158 957.25,68.255 L957.25,38 L958,38 C961.313708,38 964,35.3137085 964,32 C964,28.6862915 961.313708,26 958,26 Z M923,71 L922.2,71 C920.432689,71 919,69.6568542 919,68 C919,66.3431458 920.432689,65 922.2,65 L923,65 L923,71 Z M954.954283,68.2550027 C954.962759,69.7569412 953.737059,70.9835181 952.211249,71 L926,71 L926,31.7450388 C925.99596,31.0157959 926.288463,30.3152582 926.812343,29.7995978 C927.336222,29.2839373 928.047926,28.9960235 928.788793,29 L936.819785,29 C937.999396,31.5971097 937.560917,34.6299752 935.692093,36.8000338 C935.511186,37.0179035 935.472524,37.318315 935.592525,37.5737047 C935.712525,37.8290945 935.970125,37.9946349 936.255939,38.0000326 L955,38.0000326 L955,68.2550027 L954.954283,68.2550027 Z M957.850307,34.996989 L940,34.996989 C940.296492,34.0266379 940.444792,33.0152865 940.439663,31.9986541 C940.444792,30.9820216 940.296492,29.9706703 940,29.0003191 L958.026173,29.0003191 C958.898117,28.9873182 959.730443,29.3721474 960.297023,30.0502556 C960.863603,30.7283639 961.105596,31.6293274 960.957258,32.508371 C960.662566,34.0077359 959.343941,35.0639342 957.850307,34.996989 L957.850307,34.996989 Z M939,47.3084371 C938.919053,47.8450278 938.584786,48.3162555 938.093439,48.5864454 C937.88668,48.6777317 937.775348,48.5864454 937.520875,48.373444 C937.072627,47.7195477 936.356262,47.2774324 935.548708,47.1562932 C935.229436,47.1558344 934.924056,47.2811655 934.704395,47.5028081 C934.484734,47.7244507 934.370179,48.0228427 934.387674,48.3278008 C934.387674,49.0428769 935.071571,49.5449516 936.089463,50.3056708 C937.775348,51.5684647 938.316103,52.1770401 938.316103,53.1964039 C938.316103,55.219917 935.135189,57 933.544732,57 C932.335984,57 931.063618,56.2392808 931,55.219917 C931.071275,54.6377749 931.485782,54.1465639 932.065606,53.9571231 C932.224652,53.9571231 932.335984,53.9571231 932.49503,54.1549101 C933.038802,55.0340571 933.967708,55.632043 935.023857,55.7828492 C935.362516,55.7993673 935.693776,55.6842386 935.942372,55.4636214 C936.190968,55.2430041 936.335792,54.9356316 936.343936,54.6113416 C936.343936,54.1092669 936.025845,53.6071923 934.864811,52.6943292 C933.703777,51.7814661 932.479125,51.1120332 932.479125,49.7427386 C932.533421,48.7060589 933.085192,47.7514791 933.974155,47.1562932 C934.779078,46.4947828 935.780025,46.0905008 936.836978,46 C938.093439,46 939,46.6085754 939,47.3084371 Z M944.432905,45.8088235 C945.141938,45.6371046 945.871454,45.5579735 946.6021,45.5735294 C949.029172,45.5735294 950,46.75 950,48.75 C949.934926,50.5123746 949.237499,52.1974875 948.028005,53.5147059 C946.812582,54.8301463 945.233061,55.7795382 943.477246,56.25 C943.064701,56.25069 942.654804,56.1861161 942.263711,56.0588235 L941.611435,59.5882353 C941.353559,60.8676471 941.459743,61.0588235 942.718786,61.2058824 L943.280047,61.2058824 L943.173862,61.7058824 L937,62 L937.106184,61.5 C938.774796,61.2058824 938.88098,61.0147059 939.229872,59.5 C940.033839,55.9117647 941.004667,51.2058824 941.808635,47.2941176 C941.14401,47.5163203 940.499622,47.7917815 939.882147,48.1176471 L939.730455,47.5882353 C940.451331,47.1706783 941.19579,46.7926341 941.960327,46.4558824 L942.218203,45.4705882 C942.940035,44.834484 943.778798,44.3356222 944.690782,44 L944.887981,44.1470588 L944.432905,45.8088235 Z M942,55.205 C942.270556,55.6883178 942.796536,55.9930411 943.37224,56 C944.791798,56 947,52.655 947,49.46 C947,47.45 946.100946,47 944.791798,47 C944.418255,47.0013819 944.046705,47.0518595 943.687697,47.15 C943.15142,49.655 942.473186,52.565 942,55.16 L942,55.205 Z" id="储存过程-48"></path>
            </g>
        </g>
    </g>
</svg>