<?xml version="1.0" standalone="no"?><!DOCTYPE svg PUBLIC "-//W3C//DTD SVG 1.1//EN" "http://www.w3.org/Graphics/SVG/1.1/DTD/svg11.dtd"><svg t="1672193071414" class="icon" viewBox="0 0 1024 1024" version="1.1" xmlns="http://www.w3.org/2000/svg" p-id="6483" xmlns:xlink="http://www.w3.org/1999/xlink" width="200" height="200"><path d="M405.333333 405.333333h554.666667v554.666667H405.333333z" fill="#7BB15D" fill-opacity=".2" p-id="6484"></path><path d="M608 0a74.666667 74.666667 0 0 1 74.56 70.570667L682.666667 74.666667V405.333333H416.213333a10.666667 10.666667 0 0 0-10.517333 8.746667l-0.170667 1.92V682.666667H74.666667a74.666667 74.666667 0 0 1-74.56-70.570667L0 608v-533.333333A74.666667 74.666667 0 0 1 70.570667 0.106667L74.666667 0h533.333333z m0 64h-533.333333a10.666667 10.666667 0 0 0-10.496 8.746667L64 74.666667v533.333333a10.666667 10.666667 0 0 0 8.746667 10.496L74.666667 618.666667h267.114666l-0.426666-198.485334c-0.042667 2.773333-0.021333 5.632-0.021334 8.618667h-58.026666l-23.893334 67.84H192L307.2 192h68.693333l55.829334 149.333333H618.666667V74.666667a10.666667 10.666667 0 0 0-6.954667-10.005334l-1.792-0.490666L608 64zM341.333333 267.093333h-0.853333l-39.68 111.786667h50.389333l0.149334-0.277333c4.330667-7.381333 9.92-14.037333 16.597333-19.626667l0.810667-0.661333 3.093333-2.432L341.333333 267.093333z" fill="#7BB15D" opacity=".5" p-id="6485"></path><path d="M609.92 64.170667A10.666667 10.666667 0 0 1 618.666667 74.666667V341.333333h-202.666667l-4.096 0.106667A74.666667 74.666667 0 0 0 341.333333 416V618.666667H74.666667a10.666667 10.666667 0 0 1-10.666667-10.666667v-533.333333a10.666667 10.666667 0 0 1 10.666667-10.666667h533.333333l1.92 0.170667z" fill="#7BB15D" fill-opacity=".2" opacity=".5" p-id="6486"></path><path d="M949.333333 341.333333a74.666667 74.666667 0 0 1 74.666667 74.666667v533.333333a74.666667 74.666667 0 0 1-74.666667 74.666667h-533.333333a74.666667 74.666667 0 0 1-74.666667-74.666667v-533.333333a74.666667 74.666667 0 0 1 74.666667-74.666667z m0 64h-533.333333a10.666667 10.666667 0 0 0-10.666667 10.666667v533.333333a10.666667 10.666667 0 0 0 10.666667 10.666667h533.333333a10.666667 10.666667 0 0 0 10.666667-10.666667v-533.333333a10.666667 10.666667 0 0 0-10.666667-10.666667z m-264.96 133.461334c38.912 0 68.096 9.728 86.528 29.184 16.384 16.896 24.576 41.472 24.576 73.728V810.666667h-54.272v-34.816c-10.24 13.312-23.04 23.04-37.888 30.208-16.896 7.68-36.864 11.776-59.904 11.776-27.648 0-49.152-7.168-65.024-20.992-16.384-14.336-24.576-32.256-24.576-54.272 0-29.696 11.264-52.736 34.816-68.608 21.504-15.36 51.712-23.552 90.624-24.576l57.856-1.536v-10.24c0-34.816-18.944-51.712-56.832-51.712-16.384 0-29.184 2.56-38.912 8.704a45.952 45.952 0 0 0-22.016 30.72l-57.856-4.608c5.632-29.184 19.968-50.688 43.008-64 19.456-12.288 46.08-17.92 79.872-17.92z m52.736 151.04l-53.76 1.536c-46.592 1.024-69.632 17.408-69.632 49.152 0 9.216 3.584 16.896 11.776 23.04 8.192 6.144 18.432 9.728 31.232 9.728 22.528 0 41.472-6.656 56.832-19.456 15.36-13.312 23.552-30.208 23.552-50.688v-13.312z" fill="#7BB15D" p-id="6487"></path></svg>