<svg xmlns="http://www.w3.org/2000/svg" viewBox="0 0 28 32"><defs><style>.eeadd656-ed92-4659-845c-b2b40bead941{fill:#9e9fa5;}.af506337-6b41-46be-af8c-899c2f7df3bb,.b50eda2a-80ba-4241-ad87-62852143202e{fill:#9fa0a6;}.af506337-6b41-46be-af8c-899c2f7df3bb{opacity:0.3;}</style></defs><title>资源 127</title><g id="a32ca915-872d-4c0f-81d3-32f4a7f2c583" data-name="图层 2"><g id="b57a984e-7caf-4d3b-a0ac-36a896ed1f6f" data-name="ddc图标"><g id="a7eff6ac-58b4-4f0b-8e6c-6ecea76f9072" data-name="video"><path class="eeadd656-ed92-4659-845c-b2b40bead941" d="M27.71,8.29,26,6.58,21.42,2,19.71.29A1,1,0,0,0,19,0H2A2,2,0,0,0,0,2V30a2,2,0,0,0,2,2H26a2,2,0,0,0,2-2V9A1,1,0,0,0,27.71,8.29ZM20,3.41,24.59,8H21a1,1,0,0,1-1-1ZM26,30H2V2H18V7a3,3,0,0,0,3,3h5Z"/><circle class="af506337-6b41-46be-af8c-899c2f7df3bb" cx="14" cy="17.32" r="8"/><path class="b50eda2a-80ba-4241-ad87-62852143202e" d="M17.53,16.36l-4.15-2.49a1.12,1.12,0,0,0-1.69,1v5a1.11,1.11,0,0,0,1.69,1l4.15-2.49A1.12,1.12,0,0,0,17.53,16.36Z"/></g></g></g></svg>