<svg xmlns="http://www.w3.org/2000/svg" viewBox="0 0 28 32"><defs><style>.fe4eff26-6442-4934-9a63-9138083bef9c{fill:#9e9fa5;}.ace0ad8e-03fa-4afe-b0dc-4e45974b5f5f{fill:#175abd;}</style></defs><title>资源 83</title><g id="a1247a31-6e97-49c7-9332-b02e76e822ae" data-name="图层 2"><g id="f62a5bd3-7f6f-4514-8c89-f855fd74fe2f" data-name="ddc图标"><path class="fe4eff26-6442-4934-9a63-9138083bef9c" d="M27.71,8.29,26,6.58,21.42,2,19.71.29A1,1,0,0,0,19,0H2A2,2,0,0,0,0,2V30a2,2,0,0,0,2,2H26a2,2,0,0,0,2-2V9A1,1,0,0,0,27.71,8.29ZM20,3.41,24.59,8H21a1,1,0,0,1-1-1ZM26,30H2V2H18V7a3,3,0,0,0,3,3h5Z"/><path class="ace0ad8e-03fa-4afe-b0dc-4e45974b5f5f" d="M14.83,22a.88.88,0,0,0-.33-.28,1,1,0,0,0-.86,0,.79.79,0,0,0-.32.28,1.19,1.19,0,0,0-.2.44,2.25,2.25,0,0,0-.07.6,1.85,1.85,0,0,0,.26,1.05.87.87,0,0,0,.76.37.9.9,0,0,0,.76-.37,1.77,1.77,0,0,0,.27-1.05,2.74,2.74,0,0,0-.07-.6A1.63,1.63,0,0,0,14.83,22Z"/><path class="ace0ad8e-03fa-4afe-b0dc-4e45974b5f5f" d="M22.9,22.06a.86.86,0,0,0-.33-.27,1,1,0,0,0-.88,0,1,1,0,0,0-.33.27,1.14,1.14,0,0,0-.2.43,2,2,0,0,0-.07.57,2.1,2.1,0,0,0,.07.58,1.14,1.14,0,0,0,.2.43,1.09,1.09,0,0,0,.33.27,1,1,0,0,0,.44.09.92.92,0,0,0,.44-.1.86.86,0,0,0,.33-.27,1.23,1.23,0,0,0,.21-.43,1.93,1.93,0,0,0,.07-.57,2,2,0,0,0-.07-.57A1.44,1.44,0,0,0,22.9,22.06Z"/><path class="ace0ad8e-03fa-4afe-b0dc-4e45974b5f5f" d="M2,16V28H26V16Zm8,9.38H8.76l-1.15-4H7.55l-1.14,4H5.21l-1.6-6.06H4.93l.94,4.27h.07l1.11-4.27H8.12l1.12,4.27h.07l.94-4.27h1.31Zm6.25-1.3a2.39,2.39,0,0,1-.45.76,1.84,1.84,0,0,1-.72.47,2.61,2.61,0,0,1-1,.17,2.69,2.69,0,0,1-1-.17,1.74,1.74,0,0,1-.71-.47,2.07,2.07,0,0,1-.45-.76,3,3,0,0,1-.16-1,2.89,2.89,0,0,1,.16-1,2.13,2.13,0,0,1,.45-.76,2,2,0,0,1,.72-.48,2.74,2.74,0,0,1,1.9,0,2,2,0,0,1,1.17,1.24,2.89,2.89,0,0,1,.16,1A3.22,3.22,0,0,1,16.2,24.08Zm3.56-2.24-.11,0-.14,0-.17,0h-.16a1.35,1.35,0,0,0-.46.07.81.81,0,0,0-.35.2,1.27,1.27,0,0,0-.24.33,1.23,1.23,0,0,0-.08.44v2.57H16.83V20.75H18v.73h.08a.88.88,0,0,1,.16-.32,1.28,1.28,0,0,1,.26-.26,1.27,1.27,0,0,1,.35-.17,1.42,1.42,0,0,1,.42-.06h.26a1,1,0,0,1,.22.05Zm4.63,3.54H23.21v-.73h-.08a1.36,1.36,0,0,1-.23.34,2,2,0,0,1-.33.25,1.74,1.74,0,0,1-.4.15,1.65,1.65,0,0,1-.46.06,1.79,1.79,0,0,1-.78-.17,1.72,1.72,0,0,1-.6-.47,2.34,2.34,0,0,1-.37-.76,3.87,3.87,0,0,1,0-2,2.21,2.21,0,0,1,.38-.75,1.58,1.58,0,0,1,.59-.47,1.66,1.66,0,0,1,.78-.17,1.64,1.64,0,0,1,.84.21,1.44,1.44,0,0,1,.55.6h.07V19h1.22Z"/><rect class="fe4eff26-6442-4934-9a63-9138083bef9c" x="6" y="12.14" width="16" height="2" rx="0.84" transform="translate(28 26.29) rotate(180)"/><rect class="fe4eff26-6442-4934-9a63-9138083bef9c" x="6" y="6.56" width="6" height="4" rx="1.26"/></g></g></svg>