<?xml version="1.0" encoding="UTF-8"?>
<svg width="18px" height="18px" viewBox="0 0 18 18" version="1.1" xmlns="http://www.w3.org/2000/svg" xmlns:xlink="http://www.w3.org/1999/xlink">
    <title>已废弃</title>
    <g id="设计方案" stroke="none" stroke-width="1" fill="none" fill-rule="evenodd">
        <g id="业务对象（说明）" transform="translate(-707.000000, -1721.000000)" fill="#AAB4BE" fill-rule="nonzero">
            <g id="已认证" transform="translate(707.000000, 1550.000000)">
                <g id="编组-7备份-5" transform="translate(0.000000, 171.000000)">
                    <path d="M9,0 C13.9705627,0 18,4.02943725 18,9 C18,13.9705627 13.9705627,18 9,18 C4.02943725,18 0,13.9705627 0,9 C0,4.02943725 4.02943725,0 9,0 Z M10.9311429,7.999875 L8.5,10.00025 L7.07142857,9 L4.5,10.000125 L4.5,12.999875 C4.5,13.552 4.884,14 5.35714286,14 L12.6428571,14 C13.116,14 13.5,13.552 13.5,12.999875 L13.5,10.000125 L10.9311429,7.999875 Z M10.9594286,9.224875 L12.6428571,10.535625 L12.6428571,12.999875 L5.35714286,12.999875 L5.35714286,10.721125 L7.00457143,10.07975 L8.59085714,11.171 L10.9594286,9.224875 Z M12.6428571,4 L5.35714286,4 C4.884,4 4.5,4.448 4.5,5.000125 L4.5,8.999875 L7.068,7.99975 L8.50685714,9 L10.9285714,6.999625 L13.5,8.999875 L13.5,5.000125 C13.5,4.448 13.116,4 12.6428571,4 Z M12.6428571,4.99925 L12.6428571,7.13175 L10.8985714,5.776375 L8.41428571,7.830125 L7.13228571,6.92 L5.35714286,7.61125 L5.35714286,5.000125 L12.6428571,4.99925 Z" id="已废弃"></path>
                </g>
            </g>
        </g>
    </g>
</svg>