<svg xmlns="http://www.w3.org/2000/svg" width="48.001" height="48.001" viewBox="0 0 48.001 48.001">
  <path id="API-48" d="M10503-4048.99l-7.021-2.981A4.993,4.993,0,0,1,10492-4050a5,5,0,0,1-5-5,5,5,0,0,1,5-5,4.994,4.994,0,0,1,4.174,2.245l7.028-2.984a4,4,0,0,1-.2-1.264,4,4,0,0,1,4-4,4,4,0,0,1,4,4,4,4,0,0,1-4,4,3.984,3.984,0,0,1-2.686-1.037l-7.394,3.137a4.958,4.958,0,0,1,.082.9,5,5,0,0,1-.152,1.229l6.656,2.826A4,4,0,0,1,10507-4053a4,4,0,0,1,4,4,4,4,0,0,1-4,4A4,4,0,0,1,10503-4048.99Zm-35,3.989a3,3,0,0,1-3-3v-42a3,3,0,0,1,3-3h42a3,3,0,0,1,3,3v23h-30v22Zm0-3h12v-8h-12Zm0-11h12v-8h-12Zm30-11h12v-9h-12Zm-15,0h12v-9h-12Zm-15,0h12v-9h-12Z" transform="translate(-10465.001 4093.001)" fill="#849fca"/>
</svg>
