<?xml version="1.0" encoding="UTF-8"?>
<svg width="24px" height="25px" viewBox="0 0 24 25" version="1.1" xmlns="http://www.w3.org/2000/svg" xmlns:xlink="http://www.w3.org/1999/xlink">
    <title>业务对象</title>
    <g id="icon、颜色" stroke="none" stroke-width="1" fill="none" fill-rule="evenodd">
        <g id="属性icon" transform="translate(-339.000000, -389.000000)" fill-rule="nonzero">
            <g id="业务对象" transform="translate(339.000000, 389.333000)">
                <path d="M0,12 C0,18.627417 5.372583,24 12,24 C18.627417,24 24,18.627417 24,12 C24,5.372583 18.627417,0 12,0 C5.372583,0 0,5.372583 0,12 Z" id="路径" fill="#EBF5FF"></path>
                <g id="编组-18" transform="translate(5.000000, 4.667000)" fill="#409EFF">
                    <path d="M12.6,0 C13.3731987,0 14,0.62680134 14,1.39999998 L14,12.6 C14,13.3731987 13.3731987,14 12.6,14 L1.39999998,14 C0.62680134,14 0,13.3731987 0,12.6 L0,1.39999998 C0,0.62680134 0.62680134,0 1.39999998,0 L12.6,0 Z M1.4,12.6 L12.6,12.6 L12.6,1.4 L1.4,1.4 L1.4,12.6 Z" id="矩形" opacity="0.7"></path>
                    <path d="M2.8420024,5.84981425 L6.04981424,2.64200241 C6.23920796,2.45266586 6.54621521,2.45266586 6.73560892,2.64200241 L8.213899,4.11932247 C8.30512007,4.21031322 8.35638694,4.33386148 8.35638694,4.46270481 C8.35638694,4.59154813 8.30512007,4.71509639 8.213899,4.80608714 L5.00511712,8.01389901 C4.8157234,8.20323554 4.50871617,8.20323554 4.31932245,8.01389901 L2.8420024,6.53657893 C2.65266587,6.34718521 2.65266587,6.04017798 2.8420024,5.85078426 L2.8420024,5.84981425 Z" id="路径"></path>
                    <path d="M4.49780368,9.19439704 L6.40871669,7.28348403 C6.59811041,7.0941475 6.90511764,7.0941475 7.09451135,7.28348403 L8.57183143,8.7617741 C8.76116796,8.95116782 8.76116796,9.25817505 8.57183143,9.44756877 L6.6609184,11.3584818 C6.47163629,11.5471727 6.16537586,11.5471727 5.97609375,11.3584818 L4.49780368,9.88019171 C4.30846715,9.69079799 4.30846715,9.38379076 4.49780368,9.19439704 L4.49780368,9.19439704 Z" id="路径" opacity="0.5"></path>
                    <path d="M7.55817452,6.13499619 L8.60287164,5.09029907 C8.79226535,4.90096254 9.09927259,4.90096254 9.2886663,5.09029907 L11.1995793,7.00024209 C11.3889159,7.18963581 11.3889159,7.49664304 11.1995793,7.68603676 L10.1539122,8.73073388 C9.96451849,8.92007041 9.65751126,8.92007041 9.46811754,8.73073388 L7.55720451,6.81982086 C7.36851353,6.63053875 7.36851353,6.32427831 7.55720451,6.13499619 L7.55817452,6.13499619 Z" id="路径" opacity="0.7"></path>
                </g>
            </g>
        </g>
    </g>
</svg>