<?xml version="1.0" encoding="UTF-8"?>
<svg width="24px" height="24px" viewBox="0 0 24 24" version="1.1" xmlns="http://www.w3.org/2000/svg" xmlns:xlink="http://www.w3.org/1999/xlink">
    <title>id</title>
    <g id="icon、颜色" stroke="none" stroke-width="1" fill="none" fill-rule="evenodd">
        <g id="属性icon" transform="translate(-339.000000, -184.000000)">
            <g id="id" transform="translate(339.000000, 184.000000)">
                <circle id="椭圆形" fill="#EBF5FF" cx="12" cy="12" r="12"></circle>
                <path d="M6.56645902,16.6 C6.20900867,16.6 5.94190291,16.5237833 5.76514175,16.3713499 C5.58838058,16.2189164 5.5,16.0196511 5.5,15.7735537 C5.5,15.5384757 5.58936259,15.3447199 5.76808777,15.1922865 C5.94681294,15.0398531 6.2129367,14.9636364 6.56645902,14.9636364 L7.124,14.963 L7.124,9.236 L6.56645902,9.23636364 C6.20900867,9.23636364 5.94190291,9.16014692 5.76514175,9.0077135 C5.58838058,8.85528007 5.5,8.65601469 5.5,8.40991736 C5.5,8.1748393 5.58936259,7.98108356 5.76808777,7.82865014 C5.94681294,7.67621671 6.2129367,7.6 6.56645902,7.6 L9.31161347,7.6 C9.66513579,7.6 9.93027754,7.67529844 10.1070387,7.82589532 C10.2837999,7.97649219 10.3721805,8.17116621 10.3721805,8.40991736 C10.3721805,8.65601469 10.2847819,8.85528007 10.1099847,9.0077135 C9.93518757,9.16014692 9.66906382,9.23636364 9.31161347,9.23636364 L8.748,9.236 L8.748,14.963 L9.31161347,14.9636364 C9.66513579,14.9636364 9.93027754,15.0389348 10.1070387,15.1895317 C10.2837999,15.3401286 10.3721805,15.5348026 10.3721805,15.7735537 C10.3721805,16.0196511 10.2847819,16.2189164 10.1099847,16.3713499 C9.93518757,16.5237833 9.66906382,16.6 9.31161347,16.6 L6.56645902,16.6 Z M12.4929853,7.6 L14.8442595,7.6 C15.4558743,7.6 15.9804049,7.65729877 16.4178513,7.77189632 C16.8552977,7.88649386 17.2522397,8.10136426 17.6086775,8.4165075 C18.5362258,9.21869031 19,10.4383356 19,12.0754434 C19,12.6156889 18.9534201,13.1088677 18.8602602,13.5549795 C18.7671003,14.0010914 18.6233101,14.403206 18.4288895,14.7613233 C18.2344689,15.1194407 17.9853674,15.4396999 17.6815852,15.722101 C17.4426099,15.9390177 17.1813572,16.1129604 16.8978272,16.2439291 C16.6142971,16.3748977 16.3095023,16.466985 15.9834427,16.520191 C15.6573832,16.573397 15.2898067,16.6 14.8807134,16.6 L12.5294391,16.6 C12.2013543,16.6 11.9542782,16.5498636 11.7882106,16.4495907 C11.6221429,16.3493179 11.513794,16.2081173 11.4631636,16.0259891 C11.4125332,15.8438608 11.387218,15.6075034 11.387218,15.3169168 L11.387218,8.71732606 C11.387218,8.32442019 11.4743023,8.03997271 11.6484707,7.86398363 C11.8226392,7.68799454 12.104144,7.6 12.4929853,7.6 Z M13.1916843,9.04270123 L13.1916843,15.1511596 L14.5587042,15.1511596 C14.858436,15.1511596 15.0933609,15.1429741 15.2634789,15.126603 C15.433597,15.1102319 15.6097906,15.0693042 15.79206,15.0038199 C15.9743293,14.9383356 16.132296,14.8462483 16.2659602,14.727558 C16.8694742,14.211869 17.1712312,13.3237381 17.1712312,12.0631651 C17.1712312,11.1750341 17.0385796,10.5099591 16.7732765,10.06794 C16.5079733,9.62592087 16.1809012,9.34454297 15.79206,9.22380628 C15.4032187,9.10306958 14.9333689,9.04270123 14.3825105,9.04270123 L13.1916843,9.04270123 Z" id="形状结合" fill="#409EFF" fill-rule="nonzero"></path>
            </g>
        </g>
    </g>
</svg>