<?xml version="1.0" encoding="UTF-8"?>
<svg width="24px" height="24px" viewBox="0 0 24 24" version="1.1" xmlns="http://www.w3.org/2000/svg" xmlns:xlink="http://www.w3.org/1999/xlink">
    <title>资产类型</title>
    <g id="icon、颜色" stroke="none" stroke-width="1" fill="none" fill-rule="evenodd">
        <g id="属性icon" transform="translate(-339.000000, -216.000000)">
            <g id="资产类型" transform="translate(339.000000, 216.000000)">
                <circle id="椭圆形" fill="#EBF5FF" cx="12" cy="12" r="12"></circle>
                <g id="编组-22" transform="translate(6.000000, 6.000000)" fill="#409EFF">
                    <path d="M1,0 L4,0 C4.55228475,-1.01453063e-16 5,0.44771525 5,1 L5,3 C5,3.55228475 4.55228475,4 4,4 L1,4 C0.44771525,4 3.38176876e-17,3.55228475 0,3 L0,1 C-6.76353751e-17,0.44771525 0.44771525,6.76353751e-17 1,0 Z M7,8 L11,8 C11.5522847,8 12,8.44771525 12,9 L12,11 C12,11.5522847 11.5522847,12 11,12 L7,12 C6.44771525,12 6,11.5522847 6,11 L6,9 C6,8.44771525 6.44771525,8 7,8 Z" id="形状结合" opacity="0.5"></path>
                    <path d="M1,5 L4,5 C4.55228475,5 5,5.44771525 5,6 L5,11 C5,11.5522847 4.55228475,12 4,12 L1,12 C0.44771525,12 3.38176876e-17,11.5522847 0,11 L0,6 C-6.76353751e-17,5.44771525 0.44771525,5 1,5 Z M7,0 L11,0 C11.5522847,-1.01453063e-16 12,0.44771525 12,1 L12,6 C12,6.55228475 11.5522847,7 11,7 L7,7 C6.44771525,7 6,6.55228475 6,6 L6,1 C6,0.44771525 6.44771525,6.76353751e-17 7,0 Z" id="形状结合"></path>
                </g>
            </g>
        </g>
    </g>
</svg>