<?xml version="1.0" encoding="UTF-8"?>
<svg width="24px" height="24px" viewBox="0 0 24 24" version="1.1" xmlns="http://www.w3.org/2000/svg" xmlns:xlink="http://www.w3.org/1999/xlink">
    <title>名称</title>
    <g id="icon、颜色" stroke="none" stroke-width="1" fill="none" fill-rule="evenodd">
        <g id="属性icon" transform="translate(-339.000000, -152.000000)">
            <g id="名称" transform="translate(339.000000, 152.000000)">
                <circle id="椭圆形" fill="#EBF5FF" cx="12" cy="12" r="12"></circle>
                <path d="M17.5,5 C17.7761424,5 18,5.22385763 18,5.5 L18,18.5 C18,18.7761424 17.7761424,19 17.5,19 L6.5,19 C6.22385763,19 6,18.7761424 6,18.5 L6,5.5 C6,5.22385763 6.22385763,5 6.5,5 L17.5,5 Z M16.6,6.4 L7.4,6.4 L7.4,17.6 L16.6,17.6 L16.6,6.4 Z" id="矩形" fill="#409EFF" fill-rule="nonzero"></path>
                <rect id="矩形" fill="#409EFF" opacity="0.6" x="9" y="14" width="6" height="1.6" rx="0.5"></rect>
                <rect id="矩形备份" fill="#409EFF" opacity="0.6" x="9" y="11.4" width="6" height="1.6" rx="0.5"></rect>
                <rect id="矩形" fill="#409EFF" x="9" y="8" width="2.4" height="2.4" rx="0.5"></rect>
            </g>
        </g>
    </g>
</svg>