<?xml version="1.0" encoding="UTF-8"?>
<svg width="24px" height="24px" viewBox="0 0 24 24" version="1.1" xmlns="http://www.w3.org/2000/svg" xmlns:xlink="http://www.w3.org/1999/xlink">
    <title>表属性</title>
    <g id="icon、颜色" stroke="none" stroke-width="1" fill="none" fill-rule="evenodd">
        <g id="属性icon" transform="translate(-339.000000, -516.000000)">
            <g id="表属性" transform="translate(339.000000, 516.000000)">
                <circle id="椭圆形" fill="#EBF5FF" cx="12" cy="12" r="12"></circle>
                <path d="M4.99999999,7 C5.2209139,7 5.4,7.1790861 5.4,7.40000001 L5.40000001,10.6 L8.6,10.599 L8.6,7.40000001 C8.6,7.1790861 8.7790861,7 9.00000001,7 L9.59999999,7 C9.8209139,7 10,7.1790861 10,7.40000001 L10,10.599 L14,10.599 L14,7.40000001 C14,7.1790861 14.1790861,7 14.4,7 L15,7 C15.2209139,7 15.4,7.1790861 15.4,7.40000001 L15.4,10.599 L18.6,10.599 L18.6,7.40000001 C18.6,7.1790861 18.7790861,7 19,7 L19.6,7 C19.8209139,7 20,7.1790861 20,7.40000001 L20,11.6 C20,11.8209139 19.8209139,12 19.6,12 L19,12 L18.991,11.999 L15.0091802,11.9998967 C15.0061284,11.9999655 15.0030682,12 15,12 L14.4,12 L14.391,11.999 L10,11.999 L10,19.6 C10,19.8209139 9.8209139,20 9.59999999,20 L9.00000001,20 L8.991,19.999 L5.00459627,19.9999741 L4.40000001,20 C4.1790861,20 4,19.8209139 4,19.6 L4,7.40000001 C4,7.1790861 4.1790861,7 4.40000001,7 L4.99999999,7 Z M8.6,15.999 L5.40000001,16 L5.4,18.599 L8.6,18.599 L8.6,15.999 Z M8.6,11.999 L5.40000001,12 L5.40000001,14.6 L8.6,14.599 L8.6,11.999 Z" id="形状结合" fill="#409EFF" opacity="0.6"></path>
                <path d="M6,4 L18,4 C19.1045695,4 20,4.8954305 20,6 L20,8 L20,8 L4,8 L4,6 C4,4.8954305 4.8954305,4 6,4 Z" id="矩形" fill="#409EFF"></path>
                <path d="M16.8798845,12.8 C17.2515232,12.8 17.5949316,12.9980762 17.780751,13.3196152 L19.2606355,15.8803848 C19.4464548,16.2019238 19.4464548,16.5980762 19.2606355,16.9196152 L17.780751,19.4803848 C17.5949316,19.8019238 17.2515232,20 16.8798845,20 L13.9201155,20 C13.5484768,20 13.2050684,19.8019238 13.019249,19.4803848 L11.5393645,16.9196152 C11.3535452,16.5980762 11.3535452,16.2019238 11.5393645,15.8803848 L13.019249,13.3196152 C13.2050684,12.9980762 13.5484768,12.8 13.9201155,12.8 L16.8798845,12.8 Z M16.8798845,13.8392305 L13.9201155,13.8392305 L12.4402311,16.4 L13.9201155,18.9607695 L16.8798845,18.9607695 L18.3597689,16.4 L16.8798845,13.8392305 Z M16.169171,14.6696152 C16.3120177,14.6696152 16.4440229,14.7457918 16.5154978,14.8694709 L17.2843353,16.1998556 C17.3558996,16.3236894 17.3558996,16.4763106 17.2843353,16.6001444 L16.5154978,17.9305291 C16.4440229,18.0542082 16.3120177,18.1303848 16.169171,18.1303848 L14.630829,18.1303848 C14.4879823,18.1303848 14.3559771,18.0542082 14.2845022,17.9305291 L13.5156647,16.6001444 C13.4441004,16.4763106 13.4441004,16.3236894 13.5156647,16.1998556 L14.2845022,14.8694709 C14.3559771,14.7457918 14.4879823,14.6696152 14.630829,14.6696152 L16.169171,14.6696152 Z" id="形状结合" fill="#409EFF" fill-rule="nonzero"></path>
            </g>
        </g>
    </g>
</svg>