<?xml version="1.0" standalone="no"?><!DOCTYPE svg PUBLIC "-//W3C//DTD SVG 1.1//EN" "http://www.w3.org/Graphics/SVG/1.1/DTD/svg11.dtd"><svg t="1716456524651" class="icon" viewBox="0 0 1024 1024" version="1.1" xmlns="http://www.w3.org/2000/svg" p-id="3697" xmlns:xlink="http://www.w3.org/1999/xlink" width="200" height="200"><path d="M594.304 73.088h222.976c35.456 0 64.256 28.672 64.256 64v237.76c0 35.328-28.8 64-64.256 64H73.472v365.632h440.704l120.832-203.52a32.192 32.192 0 0 1 27.584-15.808H889.6c11.776 0 22.592 6.464 28.16 16.768l102.4 188.224c5.248 9.6 5.184 21.12 0 30.592l-102.4 186.624a32.192 32.192 0 0 1-28.16 16.64h-226.944a32.192 32.192 0 0 1-27.584-15.744l-77.44-130.56H64.192c-17.024 0-33.344-6.72-45.44-18.752A63.872 63.872 0 0 1 0 813.696v-384c0-35.328 28.8-64 64.256-64H808V146.368l-213.76-0.064V73.088z m270.528 585.152h-178.56L599.488 804.48l86.784 146.304h178.688l79.744-145.536-79.872-147.008z m-47.744 73.152l25.024 46.08 14.848 27.328-39.872 72.832H728.96l-43.392-73.152 43.328-73.088h88.128z" fill="#539FFD" p-id="3698"></path><path d="M256.576 0h329.152a64 64 0 0 1 64 64v91.456a64 64 0 0 1-64 64H256.576a64 64 0 0 1-64-64V64a64 64 0 0 1 64-64z" fill="#72D8A9" p-id="3699"></path><path d="M256.576 292.544h329.152a64 64 0 0 1 64 64V448a64 64 0 0 1-64 64H256.576a64 64 0 0 1-64-64V356.544a64 64 0 0 1 64-64z" fill="#F9D445" p-id="3700"></path></svg>