<?xml version="1.0" encoding="UTF-8"?>
<svg width="16px" height="16px" viewBox="0 0 16 16" version="1.1" xmlns="http://www.w3.org/2000/svg" xmlns:xlink="http://www.w3.org/1999/xlink">
    <title>分支</title>
    <g id="工作台、数据模型" stroke="none" stroke-width="1" fill="none" fill-rule="evenodd">
        <g id="数据模型-列表" transform="translate(-522.000000, -790.000000)">
            <g id="分支" transform="translate(522.000000, 790.000000)">
                <path d="M6.15384615,0 L6.15384615,4.57142857 L0,4.57142857 L0,0 L6.15384615,0 Z M4.92307692,1.14285714 L1.23076923,1.14285714 L1.23076923,3.42857143 L4.92307692,3.42857143 L4.92307692,1.14285714 Z M6.15384615,11.4285714 L6.15384615,16 L0,16 L0,11.4285714 L6.15384615,11.4285714 Z M4.92307692,12.5714286 L1.23076923,12.5714286 L1.23076923,14.8571429 L4.92307692,14.8571429 L4.92307692,12.5714286 Z" id="形状结合" fill="#409EFF" fill-rule="nonzero"></path>
                <path d="M3.63072917,4.56528373 L3.63053846,4.57128373 L3.69230769,4.57142857 L3.69122223,5.09067565 C3.93942741,6.15136599 4.95719752,6.69354924 6.90762829,6.73931401 L7.18359375,6.74248047 C7.35769279,6.74248047 7.50912638,6.73841387 7.74438098,6.72736668 L8.57147077,6.68644685 C9.72174827,6.64229194 10.52459,6.75214497 11.3759829,7.17215511 C13.0057544,7.97615597 13.4769226,9.43480777 13.4769226,11.4285714 L12.3692302,11.4285714 C12.3692302,9.78805386 11.9998959,8.64466122 10.8562888,8.08049556 C10.210531,7.76192957 9.58872749,7.67684804 8.6172227,7.71414053 L7.52580923,7.76571527 C7.40603182,7.76948232 7.30016838,7.7710519 7.18359375,7.7710519 C5.65695916,7.7710519 4.48022832,7.48945716 3.69104121,6.9313654 L3.69230769,11.4285714 L2.46153846,11.4285714 L2.46153846,4.57142857 L3.07653846,4.57128373 L3.63072917,4.56528373 Z" id="形状结合" fill="#999999"></path>
                <path d="M16,11.4285714 L16,16 L9.84615385,16 L9.84615385,11.4285714 L16,11.4285714 Z M14.7692308,12.5714286 L11.0769231,12.5714286 L11.0769231,14.8571429 L14.7692308,14.8571429 L14.7692308,12.5714286 Z" id="矩形备份" fill="#64C271" fill-rule="nonzero"></path>
                <polygon id="路径" fill="#64C271" fill-rule="nonzero" opacity="0.3" points="14.7692308 12.5714286 11.0769231 12.5714286 11.0769231 14.8571429 14.7692308 14.8571429"></polygon>
            </g>
        </g>
    </g>
</svg>