<?xml version="1.0" encoding="UTF-8"?>
<svg width="18px" height="18px" viewBox="0 0 18 18" version="1.1" xmlns="http://www.w3.org/2000/svg" xmlns:xlink="http://www.w3.org/1999/xlink">
    <title>业务对象</title>
    <g id="设计方案" stroke="none" stroke-width="1" fill="none" fill-rule="evenodd">
        <g id="业务对象-主列表（所有）" transform="translate(-442.000000, -190.000000)">
            <g id="默认状态备份-3" transform="translate(416.000000, 98.000000)">
                <g id="列表1" transform="translate(0.000000, 81.000000)">
                    <g id="业务对象" transform="translate(26.000000, 11.000000)">
                        <path d="M1.125,5.04 L1.125,16.29 L16.875,16.29 L16.875,5.04 L1.125,5.04 Z M16.875,1.665 L1.125,1.665 L1.125,3.915 L16.875,3.915 L16.875,1.665 Z M0,16.915 L0,1.665 L0,1.665 C0,1.04367966 0.503679656,0.54 1.125,0.54 L16.875,0.54 C17.4963203,0.54 18,1.04367966 18,1.665 L18,16.915 C18,17.1911424 17.7761424,17.415 17.5,17.415 L0.5,17.415 C0.223857625,17.415 2.55862292e-16,17.1911424 0,16.915 Z" id="形状" fill="#539FFD" fill-rule="nonzero"></path>
                        <path d="M3.375,9.54 L3.375,8.415 L4.5,8.415 L4.5,7.29 L5.625,7.29 L5.625,6.165 L6.75,6.165 L6.75,5.04 L7.875,5.04 L7.875,6.165 L9,6.165 L9,7.29 L10.125,7.29 L10.125,8.415 L9,8.415 L9,9.54 L7.875,9.54 L7.875,10.665 L6.75,10.665 L6.75,11.79 L5.625,11.79 L5.625,10.665 L4.5,10.665 L4.5,9.54 L3.375,9.54 Z" id="形状结合" fill="#539FFD"></path>
                        <path d="M10.125,10.665 L12.375,10.665 L12.375,11.79 L11.25,11.79 L11.25,12.915 L10.125,12.915 L10.125,10.665 Z M10.125,9.54 L10.125,8.415 L11.25,8.415 L11.25,7.29 L13.5,7.29 L13.5,8.415 L14.625,8.415 L14.625,9.54 L13.5,9.54 L13.5,10.665 L9,10.665 L9,9.54 L10.125,9.54 Z" id="形状结合备份" fill="#72D8A9" transform="translate(11.812500, 10.102500) rotate(-270.000000) translate(-11.812500, -10.102500) "></path>
                        <path d="M6.75,12.915 L6.75,11.79 L7.875,11.79 L7.875,10.665 L10.125,10.665 L10.125,11.79 L11.25,11.79 L11.25,12.915 L10.125,12.915 L10.125,14.04 L9,14.04 L9,15.165 L6.75,15.165 L6.75,14.04 L5.625,14.04 L5.625,12.915 L6.75,12.915 Z" id="形状结合备份-2" fill="#F4D86A"></path>
                    </g>
                </g>
            </g>
        </g>
    </g>
</svg>