<?xml version="1.0" standalone="no"?><!DOCTYPE svg PUBLIC "-//W3C//DTD SVG 1.1//EN" "http://www.w3.org/Graphics/SVG/1.1/DTD/svg11.dtd"><svg t="1717402978299" class="icon" viewBox="0 0 1024 1024" version="1.1" xmlns="http://www.w3.org/2000/svg" p-id="11192" xmlns:xlink="http://www.w3.org/1999/xlink" width="200" height="200"><path d="M512 512m-512 0a512 512 0 1 0 1024 0 512 512 0 1 0-1024 0Z" fill="#409EFF" opacity=".1" p-id="11193"></path><path d="M512.341333 170.666667c32.512 0 64.426667 4.522667 95.146667 13.397333a42.666667 42.666667 0 1 1-23.765333 81.962667A256.64 256.64 0 0 0 512.341333 256a256.128 256.128 0 0 0-256.256 256c0 141.397333 114.773333 256 256.256 256A256.170667 256.170667 0 0 0 768 529.92a42.666667 42.666667 0 0 1 85.248 5.888C840.917333 714.112 692.181333 853.333333 512.341333 853.333333 323.626667 853.333333 170.666667 700.501333 170.666667 512s152.96-341.333333 341.674666-341.333333zM469.333333 341.333333a42.666667 42.666667 0 0 1 42.666667 42.666667v128h85.333333a42.666667 42.666667 0 0 1 0 85.333333h-128a42.666667 42.666667 0 0 1-42.666666-42.666666V384a42.666667 42.666667 0 0 1 42.666666-42.666667z" fill="#409EFF" p-id="11194"></path><path d="M684.970667 264.789333a42.666667 42.666667 0 0 1 60.330666-1.962666 341.845333 341.845333 0 0 1 83.754667 122.538666 42.666667 42.666667 0 0 1-79.232 31.658667A256.512 256.512 0 0 0 686.933333 325.12a42.666667 42.666667 0 0 1-2.005333-60.330667z" fill="#409EFF" opacity=".5" p-id="11195"></path></svg>