<svg xmlns="http://www.w3.org/2000/svg" viewBox="0 0 32 32"><defs><style>.a52526c7-e6f0-4c58-a962-629128d15bab,.a82b3ab5-5cf9-405f-9c44-7df92eae6ef0{fill:#7e69cc;}.a52526c7-e6f0-4c58-a962-629128d15bab{opacity:0.2;}</style></defs><title>资源 91</title><g id="e11dfba0-776c-43bd-96a2-13d00af2892b" data-name="图层 2"><g id="aa224c12-8bd3-4196-8b02-1b791d7eba19" data-name="ddc图标"><rect class="a52526c7-e6f0-4c58-a962-629128d15bab" x="2" y="9" width="13" height="21"/><path class="a82b3ab5-5cf9-405f-9c44-7df92eae6ef0" d="M31.41.58h0L31.31.5A.39.39,0,0,1,31.41.58Z"/><path class="a82b3ab5-5cf9-405f-9c44-7df92eae6ef0" d="M31.41.59,31.31.5a1.35,1.35,0,0,0-.19-.16A2,2,0,0,0,30,0H2A2,2,0,0,0,0,2V30a2,2,0,0,0,2,2H30a2,2,0,0,0,2-2V2A2,2,0,0,0,31.41.59ZM15,30H2V9H15Zm15,0H17V9H30Z"/></g></g></svg>