<?xml version="1.0" encoding="UTF-8"?>
<svg width="16px" height="16px" viewBox="0 0 16 16" version="1.1" xmlns="http://www.w3.org/2000/svg" xmlns:xlink="http://www.w3.org/1999/xlink">
    <title>切片</title>
    <g id="dark" stroke="none" stroke-width="1" fill="none" fill-rule="evenodd">
        <g id="编组-16备份-6" transform="translate(1.000000, 0.000000)">
            <g id="编组-15备份-2" transform="translate(0.000000, 10.674064)" fill="#409EFF">
                <path d="M14,0 L14,2.6629681 C14,4.13368477 10.8659932,5.3259362 7,5.3259362 C3.13400675,5.3259362 0,4.13368477 0,2.6629681 L0,0 C0,1.47071667 3.13400675,2.6629681 7,2.6629681 C10.7693434,2.6629681 13.8428422,1.52958409 13.9941613,0.10976735 L14,0 Z" id="形状结合"></path>
            </g>
            <g id="编组-15" transform="translate(0.000000, 6.668516)" fill="#ABD4FF">
                <path d="M14,0 L14,2.6629681 C14,4.13368477 10.8659932,5.3259362 7,5.3259362 C3.13400675,5.3259362 0,4.13368477 0,2.6629681 L0,0 C0,1.47071667 3.13400675,2.6629681 7,2.6629681 C10.7693434,2.6629681 13.8428422,1.52958409 13.9941613,0.10976735 L14,0 Z" id="形状结合"></path>
            </g>
            <g id="编组-15">
                <path d="M0,2.6629681 L14,2.6629681 L14,5.3259362 C14,6.79665287 10.8659932,7.9889043 7,7.9889043 C3.13400675,7.9889043 0,6.79665287 0,5.3259362 L0,2.6629681 Z" id="形状结合" fill="#409EFF"></path>
                <ellipse id="椭圆形" fill="#7FBEFF" cx="7" cy="2.6629681" rx="7" ry="2.6629681"></ellipse>
            </g>
        </g>
    </g>
</svg>