<svg xmlns="http://www.w3.org/2000/svg" width="41" height="49" viewBox="0 0 41 49">
  <g id="组_4024" data-name="组 4024" transform="translate(-500.5 -285.5)">
    <path id="联合_453" data-name="联合 453" d="M3020.259-2861.42,3002-2852a2.005,2.005,0,0,1-2-2v-44a2,2,0,0,1,2-2h36a1.993,1.993,0,0,1,2,2v44a2,2,0,0,1-2,2ZM3003-2855.89l15.879-8.19a3,3,0,0,1,2.779.01l15.341,8.14V-2876h-34Zm23.5-31.24h4.459l-4.529,5.76v1.37h6.489v-1.37h-4.641l4.57-5.76v-1.37H3026.5Zm-14.351,5.179.791,1.95h1.729l-3.659-8.5H3009.7l-3.7,8.5h1.7l.76-1.95ZM3016-2883h8v-2h-8Zm-13-9h34v-5h-34Zm5.979,8.76,1.331-3.46,1.31,3.46Z" transform="translate(-2499 3186)" fill="#57a07f" stroke="rgba(0,0,0,0)" stroke-miterlimit="10" stroke-width="1"/>
    <rect id="矩形_18051" data-name="矩形 18051" width="34" height="4" transform="translate(504 313)" fill="#57a07f" opacity="0.696"/>
  </g>
</svg>
