<svg xmlns="http://www.w3.org/2000/svg" viewBox="0 0 28 32"><defs><style>.a3a06f2b-d550-4054-a2a9-88523bcebfb8{fill:#57a07f;}</style></defs><title>资源 94</title><g id="a23784f1-b96c-49fe-a2bc-0bde5fab8572" data-name="图层 2"><g id="b763b98a-fc27-4787-9251-2de31840d80a" data-name="ddc图标"><path class="a3a06f2b-d550-4054-a2a9-88523bcebfb8" d="M8.83,17.47H6.12l1.34-3.94h0ZM28,4.58V19.24c0,4.84-4.55,9.09-13.54,12.56L14,32l-.48-.2C4.4,27.89,0,23.78,0,19.24V4.48H1.15a22.59,22.59,0,0,0,12.17-4L14.06,0l.7.53q4,3.12,12.2,4ZM25.05,22.15h-22c1.56,2.57,5.24,5.14,11,7.65Q22.83,26.29,25.05,22.15ZM5,20.71l.73-2H9.24l.72,2h1.48l-3.4-9H6.87L3.51,20.71Zm12-3.77V15.43h-5.5v1.51Zm7.28-4.45v-1H18.45v1.24H22.5l-4.22,6.68v1.13h5.94v-1.3H20l4.26-6.75ZM26,9.79V6.35c-5.16-.6-9.19-1.91-12-3.88A25.9,25.9,0,0,1,2,6.41V9.79H26Z"/></g></g></svg>