<?xml version="1.0" standalone="no"?><!DOCTYPE svg PUBLIC "-//W3C//DTD SVG 1.1//EN" "http://www.w3.org/Graphics/SVG/1.1/DTD/svg11.dtd"><svg t="1717494662501" class="icon" viewBox="0 0 1024 1024" version="1.1" xmlns="http://www.w3.org/2000/svg" p-id="3896" xmlns:xlink="http://www.w3.org/1999/xlink" width="200" height="200"><path d="M512 512m-512 0a512 512 0 1 0 1024 0 512 512 0 1 0-1024 0Z" fill="#EDF3FF" p-id="3897"></path><path d="M725.333333 256a85.333333 85.333333 0 0 1 85.333334 85.333333v384a85.333333 85.333333 0 0 1-85.333334 85.333334H341.333333a85.333333 85.333333 0 0 1-85.333333-85.333334V341.333333a85.333333 85.333333 0 0 1 85.333333-85.333333h384z m0 42.666667H341.333333a42.666667 42.666667 0 0 0-42.666666 42.666666v384a42.666667 42.666667 0 0 0 42.666666 42.666667h384a42.666667 42.666667 0 0 0 42.666667-42.666667V341.333333a42.666667 42.666667 0 0 0-42.666667-42.666666z" fill="#409EFF" p-id="3898"></path><path d="M537.386667 384c48.853333 0 85.589333 13.397333 110.677333 40.96 22.912 25.130667 34.602667 61.525333 34.602667 108.373333 0 45.994667-12.544 82.389333-37.205334 108.373334-25.941333 27.136-63.146667 40.96-111.530666 40.96H512a42.666667 42.666667 0 0 1-42.666667-42.666667v-213.333333a42.666667 42.666667 0 0 1 42.666667-42.666667h25.386667z m0 42.666667H512v213.333333h21.930667c37.290667 0 63.317333-9.6 80.64-27.733333 16.554667-17.408 25.429333-43.264 25.429333-78.933334 0-36.906667-8.362667-63.061333-23.509333-79.658666-16.128-17.749333-41.216-27.008-79.104-27.008z" fill="#84C0FF" p-id="3899"></path><path d="M384 384m21.333333 0l0 0q21.333333 0 21.333334 21.333333l0 256q0 21.333333-21.333334 21.333334l0 0q-21.333333 0-21.333333-21.333334l0-256q0-21.333333 21.333333-21.333333Z" fill="#84C0FF" p-id="3900"></path></svg>