<svg xmlns="http://www.w3.org/2000/svg" viewBox="0 0 28 32"><defs><style>.b16fca20-6ddb-4a82-9190-faf408dca194{fill:#c4ab7a;}</style></defs><title>资源 93</title><g id="a7a49861-7f90-4951-b559-21599745bf88" data-name="图层 2"><g id="bb68aa01-4eef-4eb8-943f-c40a7502642c" data-name="ddc图标"><path class="b16fca20-6ddb-4a82-9190-faf408dca194" d="M27,4.5C21.5,4,17.4,2.64,14.78.53L14.07,0l-.73.47a22.59,22.59,0,0,1-12.19,4H0V19.25C0,23.79,4.4,27.9,13.52,31.8L14,32l.48-.2C23.46,28.36,28,24.13,28,19.29V4.6ZM14,29.83c-5.71-2.5-9.38-5.07-11-7.64h22C23.57,25,19.86,27.53,14,29.83Zm3.81-15.55a.57.57,0,0,1,.14-1l4.46-1.73a.57.57,0,0,1,.79.6l-.69,4.6a.58.58,0,0,1-.93.37l-1-.8-3.06,3.57a1,1,0,0,1-.79.37,1.09,1.09,0,0,1-.54-.14L9.92,16.42,5.84,19.49a1,1,0,0,1-1.44-.17,1,1,0,0,1,.17-1.4l4.63-3.5a1,1,0,0,1,1.16-.07L16.47,18l2.44-2.87ZM26,9.84H2V6.47A26,26,0,0,0,14,2.54c2.86,2,6.91,3.27,12.06,3.87V9.84Z"/></g></g></svg>