<?xml version="1.0" encoding="UTF-8"?>
<svg width="20px" height="20px" viewBox="0 0 20 20" version="1.1" xmlns="http://www.w3.org/2000/svg" xmlns:xlink="http://www.w3.org/1999/xlink">
    <title>主键</title>
    <g id="页面-1" stroke="none" stroke-width="1" fill="none" fill-rule="evenodd">
        <g id="light-tab" transform="translate(-487.000000, -70.000000)">
            <g id="主键" transform="translate(487.000000, 70.000000)">
                <path d="M5,0 L5,7 L0,7 L0,0 L5,0 Z M4,1 L1,1 L1,6 L4,6 L4,1 Z" id="矩形" fill="#539FFD" fill-rule="nonzero"></path>
                <rect id="矩形" fill-opacity="0.2" fill="#539FFD" x="0" y="0" width="5" height="7"></rect>
                <path d="M11,3 L11,16 L15,16 L15,13 L20,13 L20,20 L15,20 L15,17 L10,17 L10,4 L5,4 L5,3 L11,3 Z M16,19 L19,19 L19,14 L16,14 L16,19 Z" id="形状结合" fill="#A0AAB9"></path>
                <rect id="矩形备份-83" fill-opacity="0.2" fill="#A0AAB9" x="15" y="13" width="5" height="7"></rect>
            </g>
        </g>
    </g>
</svg>