<?xml version="1.0" standalone="no"?><!DOCTYPE svg PUBLIC "-//W3C//DTD SVG 1.1//EN" "http://www.w3.org/Graphics/SVG/1.1/DTD/svg11.dtd"><svg t="1717494889572" class="icon" viewBox="0 0 1024 1024" version="1.1" xmlns="http://www.w3.org/2000/svg" p-id="4186" xmlns:xlink="http://www.w3.org/1999/xlink" width="200" height="200"><path d="M512 512m-512 0a512 512 0 1 0 1024 0 512 512 0 1 0-1024 0Z" fill="#EDF3FF" p-id="4187"></path><path d="M480.64 312.917333h327.082667a28.458667 28.458667 0 1 1 0 56.874667h-327.082667a28.458667 28.458667 0 1 1 0-56.874667z m0 184.874667h327.082667a28.458667 28.458667 0 1 1 0 56.874667h-327.082667a28.458667 28.458667 0 1 1 0-56.874667z m0 184.874667h327.082667a28.458667 28.458667 0 0 1 0 56.917333h-327.082667a28.458667 28.458667 0 1 1 0-56.917333zM338.346667 398.250667a56.874667 56.874667 0 1 0 0-113.792 56.874667 56.874667 0 0 0 0 113.792z m0 184.874666a56.917333 56.917333 0 1 0 0-113.792 56.917333 56.917333 0 0 0 0 113.792z m0 184.874667a56.874667 56.874667 0 1 0 0-113.749333 56.874667 56.874667 0 0 0 0 113.749333z" fill="#409EFF" p-id="4188"></path></svg>