<?xml version="1.0" standalone="no"?><!DOCTYPE svg PUBLIC "-//W3C//DTD SVG 1.1//EN" "http://www.w3.org/Graphics/SVG/1.1/DTD/svg11.dtd"><svg t="1709544521991" class="icon" viewBox="0 0 1024 1024" version="1.1" xmlns="http://www.w3.org/2000/svg" p-id="8160" xmlns:xlink="http://www.w3.org/1999/xlink" width="200" height="200"><path d="M804.544 0c40.448 0 73.152 32.768 73.152 73.152v658.304h73.152c40.384 0 73.152 32.704 73.152 73.088v146.304c0 40.384-32.768 73.152-73.152 73.152H73.152A73.152 73.152 0 0 1 0 950.848v-228.544c0-40.384 32.768-73.152 73.152-73.152h73.152v-576C146.304 32.768 179.008 0 219.456 0h585.088zM73.152 722.304v228.544h877.696v-146.304H365.696v-82.24H73.152z m368.96-73.152v82.304h362.432V73.152H219.52v576h222.656z m252.8-210.752a36.544 36.544 0 0 1 0 73.152H329.088a36.544 36.544 0 0 1 0-73.152h365.696z m-128-204.8a36.544 36.544 0 0 1 0 73.216H329.088a36.544 36.544 0 1 1 0-73.152h237.696z" fill="#409EFF" p-id="8161"></path></svg>