<?xml version="1.0" standalone="no"?><!DOCTYPE svg PUBLIC "-//W3C//DTD SVG 1.1//EN" "http://www.w3.org/Graphics/SVG/1.1/DTD/svg11.dtd"><svg t="1717494823288" class="icon" viewBox="0 0 1024 1024" version="1.1" xmlns="http://www.w3.org/2000/svg" p-id="4041" xmlns:xlink="http://www.w3.org/1999/xlink" width="200" height="200"><path d="M512 512m-512 0a512 512 0 1 0 1024 0 512 512 0 1 0-1024 0Z" fill="#EDF3FF" p-id="4042"></path><path d="M726.272 248.618667l0.298667 4.693333v144.554667a21.333333 21.333333 0 0 1-42.410667 3.84l-0.384-3.84V256H256.085333v512h149.290667a21.333333 21.333333 0 0 1 21.034667 17.493333l0.426666 3.84a21.333333 21.333333 0 0 1-17.621333 20.992L405.418667 810.666667H254.293333a40.661333 40.661333 0 0 1-40.618666-35.285334L213.333333 770.645333V253.354667c0-20.693333 15.957333-37.461333 36.266667-39.722667L254.293333 213.333333h431.274667c20.821333 0 38.314667 15.232 40.704 35.285334zM419.370667 490.666667a21.333333 21.333333 0 0 1-21.418667 21.333333H320.256a21.333333 21.333333 0 1 1 0-42.666667h77.653333c11.818667 0 21.418667 9.557333 21.418667 21.333334z m218.88-117.333334a21.376 21.376 0 0 1-18.56 10.666667H320.256a21.333333 21.333333 0 1 1 0-42.666667h299.392a21.333333 21.333333 0 0 1 18.517333 32h0.042667z" fill="#409EFF" p-id="4043"></path><path d="M702.592 469.333333c8.746667 0 16.810667 4.650667 21.205333 12.202667l83.584 147.456a24.32 24.32 0 0 1 0 24.490667l-83.626666 144.298666a24.448 24.448 0 0 1-21.162667 12.202667h-167.296a24.448 24.448 0 0 1-21.205333-12.202667l-83.626667-144.341333a24.32 24.32 0 0 1 0-24.405333l83.626667-147.498667a24.448 24.448 0 0 1 21.162666-12.202667h167.338667z m-14.08 48.64l-139.136 0.128-69.504 123.093334 69.546667 120.021333 139.093333-0.085333 69.504-119.893334-69.546667-123.264z" fill="#409EFF" p-id="4044"></path><path d="M691.242667 637.952c1.706667 2.645333 1.706667 6.058667 0 8.704l-31.872 51.669333a9.514667 9.514667 0 0 1-8.149334 4.352h-64a9.514667 9.514667 0 0 1-8.106666-4.352l-32-51.626666a8.192 8.192 0 0 1 0-8.746667l32-52.821333a9.514667 9.514667 0 0 1 8.106666-4.394667h63.914667a9.813333 9.813333 0 0 1 8.192 4.394667l31.957333 52.821333z" fill="#409EFF" opacity=".6" p-id="4045"></path></svg>