<?xml version="1.0" standalone="no"?><!DOCTYPE svg PUBLIC "-//W3C//DTD SVG 1.1//EN" "http://www.w3.org/Graphics/SVG/1.1/DTD/svg11.dtd"><svg t="1717494957381" class="icon" viewBox="0 0 1024 1024" version="1.1" xmlns="http://www.w3.org/2000/svg" p-id="4329" xmlns:xlink="http://www.w3.org/1999/xlink" width="200" height="200"><path d="M512 512m-512 0a512 512 0 1 0 1024 0 512 512 0 1 0-1024 0Z" fill="#EDF3FF" p-id="4330"></path><path d="M502.485333 216.746667l269.994667 108.970666a17.066667 17.066667 0 0 1 0.298667 31.573334l-236.757334 100.693333a17.066667 17.066667 0 0 1-12.714666 0.213333L251.733333 355.626667a17.066667 17.066667 0 0 1-1.066666-31.488l235.008-107.008a21.333333 21.333333 0 0 1 16.810666-0.384z" fill="#409EFF" p-id="4331"></path><path d="M236.757333 401.493333l264.533334 105.941334a17.066667 17.066667 0 0 1 10.709333 15.829333v262.186667a17.066667 17.066667 0 0 1-23.424 15.829333l-261.845333-104.832A21.333333 21.333333 0 0 1 213.333333 676.693333V417.365333a17.066667 17.066667 0 0 1 23.424-15.829333z" fill="#409EFF" opacity=".6" p-id="4332"></path><path d="M786.517333 403.2l-227.2 103.978667a17.066667 17.066667 0 0 0-9.984 15.488v261.418666a17.066667 17.066667 0 0 0 24.149334 15.530667l224.725333-102.826667a21.333333 21.333333 0 0 0 12.458667-19.413333V418.730667a17.066667 17.066667 0 0 0-24.149334-15.530667z" fill="#409EFF" opacity=".3" p-id="4333"></path></svg>