<?xml version="1.0" encoding="UTF-8"?>
<svg width="16px" height="16px" viewBox="0 0 16 16" version="1.1" xmlns="http://www.w3.org/2000/svg" xmlns:xlink="http://www.w3.org/1999/xlink">
    <title>编组 23</title>
    <g id="工作台、数据模型" stroke="none" stroke-width="1" fill="none" fill-rule="evenodd">
        <g id="数据模型-列表" transform="translate(-990.000000, -478.000000)">
            <g id="编组-3" transform="translate(256.000000, 106.000000)">
                <g id="列表备份-3" transform="translate(0.000000, 360.000000)">
                    <g id="评分" transform="translate(734.000000, 8.000000)">
                        <g id="编组-23" transform="translate(0.000000, 4.000000)">
                            <rect id="矩形" fill="#999999" opacity="0.0977725074" x="0" y="0" width="16" height="16" rx="2"></rect>
                            <path d="M7.39747942,3.37656125 L6.2158071,5.78083782 L3.57524405,6.16763223 C3.42902344,6.18898686 3.29388483,6.25819191 3.19074925,6.36453362 L3.1315057,6.43445006 C2.93446177,6.70167723 2.95932736,7.08079208 3.20289281,7.31941129 L5.11321778,9.19087874 L4.66285681,11.835459 C4.63787935,11.9818258 4.6616057,12.1323863 4.73036276,12.2638319 L4.7742133,12.3363566 C4.96506554,12.611674 5.33451621,12.7074895 5.63768501,12.5472976 L7.99995638,11.2984266 L10.3622277,12.5472976 C10.4930114,12.6164027 10.6428137,12.6402491 10.7884435,12.6151452 L10.8706219,12.5956412 C11.1901224,12.4982891 11.394956,12.1747509 11.3370559,11.835459 L10.8859485,9.19087874 L12.7970199,7.31941129 C12.9028262,7.21575374 12.9716827,7.0799312 12.9929298,6.93297057 L12.9998683,6.8483917 C13.0064782,6.51290734 12.7636217,6.21713426 12.4246687,6.16763223 L9.78335915,5.78083782 L8.60243334,3.37656125 C8.53704149,3.24339232 8.42979488,3.13560294 8.29729653,3.06988015 C7.9645577,2.90483262 7.56169585,3.04213842 7.39747942,3.37656125 Z" id="路径" fill="#CCCCCC" fill-rule="nonzero"></path>
                        </g>
                    </g>
                </g>
            </g>
        </g>
    </g>
</svg>