<?xml version="1.0" encoding="UTF-8"?>
<svg width="24px" height="24px" viewBox="0 0 24 24" version="1.1" xmlns="http://www.w3.org/2000/svg" xmlns:xlink="http://www.w3.org/1999/xlink">
    <title>结点</title>
    <g id="icon、颜色" stroke="none" stroke-width="1" fill="none" fill-rule="evenodd">
        <g id="属性icon" transform="translate(-339.000000, -453.000000)">
            <g id="结点" transform="translate(339.000000, 453.000000)">
                <circle id="椭圆形" fill="#EBF5FF" cx="12" cy="12" r="12"></circle>
                <g id="编组-21" transform="translate(5.000000, 4.000000)" fill="#409EFF">
                    <path d="M13.8240007,3.80830041 L8.54884634,6.94870458 C8.37722302,7.05087535 8.15461791,6.99565817 8.05164391,6.82537355 C8.01785081,6.76949104 8,6.70554664 8,6.640377 L8,0.35956866 C8,0.160984373 8.16224996,0 8.36239543,0 C8.42807741,0 8.49252451,0.0177115731 8.54884634,0.0512410778 L13.8240007,3.19164525 C13.995624,3.29381602 14.0512753,3.51468476 13.9483013,3.68496938 C13.9176971,3.73557853 13.8750077,3.77793492 13.8240007,3.80830041 Z" id="三角形"></path>
                    <path d="M1,2.5 L8,2.5 L8,2.5 L8,4.5 L1,4.5 C0.44771525,4.5 3.38176876e-17,4.05228475 0,3.5 C-6.76353751e-17,2.94771525 0.44771525,2.5 1,2.5 Z" id="矩形" opacity="0.5"></path>
                </g>
                <g id="编组-21备份" transform="translate(12.000000, 16.500000) scale(-1, 1) translate(-12.000000, -16.500000) translate(5.000000, 13.000000)" fill="#409EFF">
                    <path d="M13.8240007,3.80830041 L8.54884634,6.94870458 C8.37722302,7.05087535 8.15461791,6.99565817 8.05164391,6.82537355 C8.01785081,6.76949104 8,6.70554664 8,6.640377 L8,0.35956866 C8,0.160984373 8.16224996,0 8.36239543,0 C8.42807741,0 8.49252451,0.0177115731 8.54884634,0.0512410778 L13.8240007,3.19164525 C13.995624,3.29381602 14.0512753,3.51468476 13.9483013,3.68496938 C13.9176971,3.73557853 13.8750077,3.77793492 13.8240007,3.80830041 Z" id="三角形"></path>
                    <path d="M1,2.5 L8,2.5 L8,2.5 L8,4.5 L1,4.5 C0.44771525,4.5 3.38176876e-17,4.05228475 0,3.5 C-6.76353751e-17,2.94771525 0.44771525,2.5 1,2.5 Z" id="矩形" opacity="0.5"></path>
                </g>
            </g>
        </g>
    </g>
</svg>