<?xml version="1.0" encoding="UTF-8"?>
<svg width="18px" height="18px" viewBox="0 0 18 18" version="1.1" xmlns="http://www.w3.org/2000/svg" xmlns:xlink="http://www.w3.org/1999/xlink">
    <title>已发布</title>
    <g id="设计方案" stroke="none" stroke-width="1" fill="none" fill-rule="evenodd">
        <g id="业务对象（说明）" transform="translate(-707.000000, -1569.000000)" fill="#66BF16">
            <g id="已认证" transform="translate(707.000000, 1550.000000)">
                <g id="编组-7" transform="translate(0.000000, 19.000000)">
                    <path d="M9,0 C13.9705627,-9.13077564e-16 18,4.02943725 18,9 C18,13.9705627 13.9705627,18 9,18 C4.02943725,18 6.08718376e-16,13.9705627 0,9 C-6.08718376e-16,4.02943725 4.02943725,9.13077564e-16 9,0 Z M13.8544987,6.14302702 C13.6592424,5.94988699 13.3443849,5.95160261 13.1512449,6.14685897 L8.03091633,11.3225098 L4.85317846,8.14477192 C4.65791631,7.94950978 4.34133382,7.94950978 4.14607167,8.14477192 C3.95080953,8.34003407 3.95080953,8.65661656 4.14607167,8.8518787 L7.68352678,12.3893234 C7.71916881,12.4245791 7.75879604,12.4533421 7.80132829,12.4759635 C7.99021628,12.575947 8.22969495,12.54643 8.38871236,12.3874126 C8.39626932,12.3798556 8.40353382,12.372117 8.41050585,12.3642106 L13.8602624,6.85203409 C14.0537099,6.65646689 14.0528514,6.34136925 13.8544987,6.14302702 Z" id="已发布"></path>
                </g>
            </g>
        </g>
    </g>
</svg>