<svg xmlns="http://www.w3.org/2000/svg" viewBox="0 0 32 32"><defs><style>.a00e0cb7-094b-4b7c-a269-3ae6f56e77f7{fill:#56a7b2;}</style></defs><title>资源 90</title><g id="a324fe52-e477-4dbe-8e9d-224df0c3ea22" data-name="图层 2"><g id="b63a5644-5fa3-4d15-9d4a-63b27f87ad2b" data-name="ddc图标"><path class="a00e0cb7-094b-4b7c-a269-3ae6f56e77f7" d="M30,0H2A2,2,0,0,0,0,2V30a2,2,0,0,0,2,2H30a2,2,0,0,0,2-2V2A2,2,0,0,0,30,0Zm0,30H2V2H30Z"/><rect class="a00e0cb7-094b-4b7c-a269-3ae6f56e77f7" x="5.5" y="22" width="3" height="6" rx="1"/><rect class="a00e0cb7-094b-4b7c-a269-3ae6f56e77f7" x="11.5" y="16" width="3" height="12" rx="1"/><rect class="a00e0cb7-094b-4b7c-a269-3ae6f56e77f7" x="17.5" y="20" width="3" height="8" rx="1"/><rect class="a00e0cb7-094b-4b7c-a269-3ae6f56e77f7" x="23.5" y="14" width="3" height="14" rx="1"/><path class="a00e0cb7-094b-4b7c-a269-3ae6f56e77f7" d="M19,14.39a1.34,1.34,0,0,1-.72-.21L13,10.67,7.38,14.11A1.3,1.3,0,0,1,6,11.89L12.32,8a1.31,1.31,0,0,1,1.4,0L18.8,11.4l5.25-5.59A1.3,1.3,0,0,1,26,7.59L20,14A1.31,1.31,0,0,1,19,14.39Z"/></g></g></svg>