<?xml version="1.0" encoding="UTF-8"?>
<svg width="18px" height="18px" viewBox="0 0 18 18" version="1.1" xmlns="http://www.w3.org/2000/svg" xmlns:xlink="http://www.w3.org/1999/xlink">
    <title>审核中</title>
    <g id="设计方案" stroke="none" stroke-width="1" fill="none" fill-rule="evenodd">
        <g id="业务对象（说明）" transform="translate(-707.000000, -1645.000000)" fill="#409EFF" fill-rule="nonzero">
            <g id="已认证" transform="translate(707.000000, 1550.000000)">
                <g id="编组-7备份-3" transform="translate(0.000000, 95.000000)">
                    <path d="M9,0 C13.9705627,0 18,4.02943725 18,9 C18,13.9705627 13.9705627,18 9,18 C4.02943725,18 0,13.9705627 0,9 C0,4.02943725 4.02943725,0 9,0 Z M4.5,11 C5.32842712,11 6,10.3284271 6,9.5 C6,8.67157288 5.32842712,8 4.5,8 C3.67157288,8 3,8.67157288 3,9.5 C3,10.3284271 3.67157288,11 4.5,11 Z M9,11 C9.82842712,11 10.5,10.3284271 10.5,9.5 C10.5,8.67157288 9.82842712,8 9,8 C8.17157288,8 7.5,8.67157288 7.5,9.5 C7.5,10.3284271 8.17157288,11 9,11 Z M13.5,11 C14.3284271,11 15,10.3284271 15,9.5 C15,8.67157288 14.3284271,8 13.5,8 C12.6715729,8 12,8.67157288 12,9.5 C12,10.3284271 12.6715729,11 13.5,11 Z" id="审核中"></path>
                </g>
            </g>
        </g>
    </g>
</svg>