<?xml version="1.0" encoding="UTF-8"?>
<svg width="24px" height="24px" viewBox="0 0 24 24" version="1.1" xmlns="http://www.w3.org/2000/svg" xmlns:xlink="http://www.w3.org/1999/xlink">
    <title>数据管家</title>
    <g id="icon、颜色" stroke="none" stroke-width="1" fill="none" fill-rule="evenodd">
        <g id="属性icon" transform="translate(-339.000000, -484.000000)">
            <g id="数据管家" transform="translate(339.000000, 484.000000)">
                <circle id="椭圆形" fill="#EBF5FF" cx="12" cy="12" r="12"></circle>
                <g id="编组-46" transform="translate(4.000000, 4.000000)" fill="#409EFF">
                    <path d="M13.4764183,8.8 C13.8480571,8.8 14.1914655,8.99807621 14.3772848,9.31961524 L15.8571693,11.8803848 C16.0429887,12.2019238 16.0429887,12.5980762 15.8571693,12.9196152 L14.3772848,15.4803848 C14.1914655,15.8019238 13.8480571,16 13.4764183,16 L10.5166494,16 C10.1450106,16 9.80160223,15.8019238 9.61578285,15.4803848 L8.13589838,12.9196152 C7.950079,12.5980762 7.950079,12.2019238 8.13589838,11.8803848 L9.61578285,9.31961524 C9.80160223,8.99807621 10.1450106,8.8 10.5166494,8.8 L13.4764183,8.8 Z M13.4764183,9.83923048 L10.5166494,9.83923048 L9.03676492,12.4 L10.5166494,14.9607695 L13.4764183,14.9607695 L14.9563028,12.4 L13.4764183,9.83923048 Z M12.7657049,10.6696152 C12.9085515,10.6696152 13.0405568,10.7457918 13.1120316,10.8694709 L13.8808692,12.1998556 C13.9524335,12.3236894 13.9524335,12.4763106 13.8808692,12.6001444 L13.1120316,13.9305291 C13.0405568,14.0542082 12.9085515,14.1303848 12.7657049,14.1303848 L11.2273628,14.1303848 C11.0845161,14.1303848 10.9525109,14.0542082 10.881036,13.9305291 L10.1121985,12.6001444 C10.0406342,12.4763106 10.0406342,12.3236894 10.1121985,12.1998556 L10.881036,10.8694709 C10.9525109,10.7457918 11.0845161,10.6696152 11.2273628,10.6696152 L12.7657049,10.6696152 Z M4.5,7 L6,8 L7.5,7 L10,7 C10.5128358,7 10.9355072,7.38604019 10.9932723,7.88337887 L11,8 L10.0661904,8 C9.71492753,8 9.3894207,8.18429883 9.20869745,8.48550424 L6.5,13 L0,13 L0,10 C-2.02906125e-16,8.34314575 1.34314575,7 3,7 L4.5,7 Z" id="形状结合" fill-rule="nonzero"></path>
                    <circle id="椭圆形" opacity="0.5" cx="6" cy="3" r="3"></circle>
                </g>
            </g>
        </g>
    </g>
</svg>