<?xml version="1.0" standalone="no"?><!DOCTYPE svg PUBLIC "-//W3C//DTD SVG 1.1//EN" "http://www.w3.org/Graphics/SVG/1.1/DTD/svg11.dtd"><svg t="1717495226587" class="icon" viewBox="0 0 1024 1024" version="1.1" xmlns="http://www.w3.org/2000/svg" p-id="4764" xmlns:xlink="http://www.w3.org/1999/xlink" width="200" height="200"><path d="M512 512m-512 0a512 512 0 1 0 1024 0 512 512 0 1 0-1024 0Z" fill="#EDF3FF" p-id="4765"></path><path d="M429.056 379.264l-0.042667 116.138667h165.930667V379.264h33.194667v116.138667H810.666667v33.194666l-182.528-0.042666v116.181333H810.666667v33.194667l-182.528-0.042667V810.666667h-33.194667v-132.778667h-165.973333L429.098667 810.666667h-33.194667l-0.042667-132.778667h-149.333333v-33.152h149.333333v-116.181333h-149.333333v-33.152h149.333333V379.264h33.237334z m165.888 149.290667h-165.973333v116.181333h165.973333v-116.181333z" fill="#409EFF" opacity=".6" p-id="4766"></path><path d="M246.528 246.528h530.944V346.026667H246.528z" fill="#409EFF" p-id="4767"></path><path d="M810.666667 346.069333h-33.194667V246.528H246.528V346.026667H213.333333V246.528c0-18.346667 14.848-33.194667 33.194667-33.194667h530.944c16.810667 0 30.72 12.501333 32.853333 28.672l0.341334 4.522667V346.026667z m-597.333334 0h597.333334v33.194667H213.333333V346.026667z" fill="#539FFD" p-id="4768"></path><path d="M213.333333 379.264h33.194667V810.666667A33.194667 33.194667 0 0 1 213.333333 777.472V379.306667z" fill="#409EFF" p-id="4769"></path><path d="M213.333333 777.472h564.138667V810.666667H246.528A33.194667 33.194667 0 0 1 213.333333 777.472zM777.472 379.264H810.666667v398.208c0 18.346667-14.848 33.194667-33.194667 33.194667V379.264z" fill="#409EFF" p-id="4770"></path></svg>