<?xml version="1.0" encoding="UTF-8"?>
<svg width="16px" height="16px" viewBox="0 0 16 16" version="1.1" xmlns="http://www.w3.org/2000/svg" xmlns:xlink="http://www.w3.org/1999/xlink">
    <title>主题域备份</title>
    <g id="设计方案" stroke="none" stroke-width="1" fill="none" fill-rule="evenodd">
        <g id="业务对象-主列表（所有）" transform="translate(-215.000000, -166.000000)">
            <g id="树菜单" transform="translate(160.000000, 50.000000)">
                <g id="菜单" transform="translate(0.000000, 44.000000)">
                    <g id="对公-主题域" transform="translate(0.000000, 64.000000)">
                        <g id="主题域备份" transform="translate(55.000000, 8.000000)">
                            <path d="M5,9 L5,10 L3,10 L3,9 L5,9 Z M3,8 L3,9 L2,9 L2,8 L3,8 Z M6,8 L6,9 L5,9 L5,8 L6,8 Z M7,7 L7,8 L6,8 L6,7 L7,7 Z M2,7 L2,8 L1,8 L1,7 L2,7 Z M8,6 L8,7 L7,7 L7,6 L8,6 Z M0,5 L1,5 L1,7 L0,7 L0,5 Z M9,5 L9,6 L8,6 L8,5 L9,5 Z M10,4 L10,5 L9,5 L9,4 L10,4 Z M2,4 L2,5 L1,5 L1,4 L2,4 Z M3,3 L3,4 L2,4 L2,3 L3,3 Z M9,3 L9,4 L8,4 L8,3 L9,3 Z M4,2 L4,3 L3,3 L3,2 L4,2 Z M8,2 L8,3 L7,3 L7,2 L8,2 Z M5,1 L5,2 L4,2 L4,1 L5,1 Z M7,1 L7,2 L6,2 L6,1 L7,1 Z M6,0 L6,1 L5,1 L5,0 L6,0 Z" id="形状结合" fill="#539FFD"></path>
                            <path d="M9,12 L9,11 L10,11 L10,10 L11,10 L11,9 L12,9 L12,8 L13,8 L13,9 L14,9 L14,10 L15,10 L15,11 L16,11 L16,12 L15,12 L15,13 L14,13 L14,14 L13,14 L13,15 L12,15 L12,16 L11,16 L11,15 L10,15 L10,14 L9,14 L9,13 L8,13 L8,12 L9,12 Z" id="形状结合" fill="#F4D86A"></path>
                            <path d="M9,3 L9,2 L14,2 L14,8 L13,8 L13,3 L9,3 Z M2,15 L2,10 L3,10 L3,14 L9,14 L9,15 L2,15 Z" id="形状结合" fill="#409EFF"></path>
                        </g>
                    </g>
                </g>
            </g>
        </g>
    </g>
</svg>