<?xml version="1.0" encoding="UTF-8"?>
<svg width="18px" height="18px" viewBox="0 0 18 18" version="1.1" xmlns="http://www.w3.org/2000/svg" xmlns:xlink="http://www.w3.org/1999/xlink">
    <title>未发布</title>
    <g id="设计方案" stroke="none" stroke-width="1" fill="none" fill-rule="evenodd">
        <g id="业务对象（说明）" transform="translate(-707.000000, -1607.000000)" fill="#5DC4C0" fill-rule="nonzero">
            <g id="已认证" transform="translate(707.000000, 1550.000000)">
                <g id="编组-7备份-2" transform="translate(0.000000, 57.000000)">
                    <path d="M9,0 C13.9705627,0 18,4.02943725 18,9 C18,13.9705627 13.9705627,18 9,18 C4.02943725,18 0,13.9705627 0,9 C0,4.02943725 4.02943725,0 9,0 Z M12.8355488,4.99161955 C12.6392256,4.79742424 12.3226478,4.79914924 12.1284525,4.99547244 L8.962,8.196 L5.76213257,5.03126261 C5.58829505,4.85930927 5.32001373,4.84088164 5.12593105,4.97552025 L5.05695748,5.03318381 L4.85397555,5.23616836 C4.65882097,5.43345871 4.66054597,5.7500365 4.85686916,5.9442318 L8.057,9.11 L4.89265934,12.3105518 C4.720706,12.4843893 4.70227836,12.7526706 4.83691697,12.9467533 L4.89458053,13.0157269 L5.09853224,13.2196681 C5.29485543,13.4138634 5.61143322,13.4121384 5.80562852,13.2158152 L8.971,10.014 L12.1719485,13.180025 C12.345786,13.3519783 12.6140673,13.370406 12.80815,13.2357674 L12.8771236,13.1781038 L13.0810648,12.9741521 C13.2752601,12.7778289 13.2735351,12.4612511 13.0772119,12.2670558 L9.875,9.1 L13.0414217,5.90073584 C13.2133751,5.72689833 13.2318027,5.45861701 13.0971641,5.26453432 L13.0395005,5.19556075 Z" id="未发布"></path>
                </g>
            </g>
        </g>
    </g>
</svg>