<?xml version="1.0" standalone="no"?><!DOCTYPE svg PUBLIC "-//W3C//DTD SVG 1.1//EN" "http://www.w3.org/Graphics/SVG/1.1/DTD/svg11.dtd"><svg t="1717495137937" class="icon" viewBox="0 0 1024 1024" version="1.1" xmlns="http://www.w3.org/2000/svg" p-id="4618" xmlns:xlink="http://www.w3.org/1999/xlink" width="200" height="200"><path d="M512 512m-512 0a512 512 0 1 0 1024 0 512 512 0 1 0-1024 0Z" fill="#EDF3FF" p-id="4619"></path><path d="M253.525333 328.192v402.048h516.949334V328.192H253.525333zM213.333333 752.64V253.525333c0-22.186667 18.005333-40.192 40.192-40.192h516.949334c22.186667 0 40.192 18.005333 40.192 40.192V752.64a17.877333 17.877333 0 0 1-17.877334 17.877333H231.253333a17.877333 17.877333 0 0 1-17.877333-17.92z" fill="#409EFF" p-id="4620"></path><path d="M341.674667 477.013333l141.098666-141.098666a21.333333 21.333333 0 0 1 30.165334 0l65.024 64.981333a21.333333 21.333333 0 0 1 0 30.208l-141.141334 141.098667a21.333333 21.333333 0 0 1-30.165333 0l-64.981333-64.981334a21.333333 21.333333 0 0 1 0-30.165333z" fill="#409EFF" p-id="4621"></path><path d="M414.506667 624.128l84.053333-84.053333a21.333333 21.333333 0 0 1 30.165333 0l64.981334 65.024a21.333333 21.333333 0 0 1 0 30.165333l-84.053334 84.053333a21.333333 21.333333 0 0 1-30.122666 0l-65.024-65.024a21.333333 21.333333 0 0 1 0-30.165333z" fill="#409EFF" opacity=".3" p-id="4622"></path><path d="M549.12 489.557333l45.952-45.952a21.333333 21.333333 0 0 1 30.165333 0l84.053334 84.010667a21.333333 21.333333 0 0 1 0 30.165333l-45.994667 45.952a21.333333 21.333333 0 0 1-30.165333 0l-84.053334-84.053333a21.333333 21.333333 0 0 1 0-30.122667z" fill="#409EFF" opacity=".6" p-id="4623"></path></svg>