<?xml version="1.0" standalone="no"?><!DOCTYPE svg PUBLIC "-//W3C//DTD SVG 1.1//EN" "http://www.w3.org/Graphics/SVG/1.1/DTD/svg11.dtd"><svg t="1709544463401" class="icon" viewBox="0 0 1024 1024" version="1.1" xmlns="http://www.w3.org/2000/svg" p-id="7977" xmlns:xlink="http://www.w3.org/1999/xlink" width="200" height="200"><path d="M896 0a64 64 0 0 1 64 64v288a64 64 0 0 1-64 64h-32v192h32a64 64 0 0 1 64 64V960a64 64 0 0 1-64 64H128a64 64 0 0 1-64-64v-288a64 64 0 0 1 64-64h32v-192H128a64 64 0 0 1-64-64V64a64 64 0 0 1 64-64h768z m0 672H128V960h768v-288z m-640 64a64 64 0 1 1 0 128 64 64 0 0 1 0-128z m160 0a64 64 0 1 1 0 128 64 64 0 0 1 0-128z m384-320h-576v192h576v-192zM896 64H128v288h768V64zM256 128a64 64 0 1 1 0 128 64 64 0 0 1 0-128z m160 0a64 64 0 1 1 0 128 64 64 0 0 1 0-128z" fill="#409EFF" p-id="7978"></path></svg>