<?xml version="1.0" standalone="no"?><!DOCTYPE svg PUBLIC "-//W3C//DTD SVG 1.1//EN" "http://www.w3.org/Graphics/SVG/1.1/DTD/svg11.dtd"><svg t="1717495033210" class="icon" viewBox="0 0 1024 1024" version="1.1" xmlns="http://www.w3.org/2000/svg" p-id="4474" xmlns:xlink="http://www.w3.org/1999/xlink" width="200" height="200"><path d="M512 512m-512 0a512 512 0 1 0 1024 0 512 512 0 1 0-1024 0Z" fill="#409EFF" opacity=".1" p-id="4475"></path><path d="M724.693333 440.661333c0.597333 4.437333 0.426667 8.96-0.384 13.312-0.981333 5.546667-2.56 10.88-4.693333 16.085334-2.005333 5.12-4.565333 10.026667-7.68 14.506666a28.074667 28.074667 0 0 1-10.069333 9.130667 21.930667 21.930667 0 0 1-9.514667 2.730667 28.842667 28.842667 0 0 1-9.173333-1.706667 80.64 80.64 0 0 0-11.392-2.645333 61.098667 61.098667 0 0 0-28.458667 2.645333 26.453333 26.453333 0 0 0-12.032 7.893333 44.373333 44.373333 0 0 0-12.714667 26.154667c-1.28 9.514667 0.213333 19.2 4.224 27.946667a17.408 17.408 0 0 1-1.28 18.346666 35.541333 35.541333 0 0 1-8.704 7.637334c-4.181333 2.688-8.533333 5.077333-13.141333 7.04a78.933333 78.933333 0 0 1-28.672 7.04 11.690667 11.690667 0 0 1-7.850667-3.2 16.170667 16.170667 0 0 1-5.034666-6.912h-0.512a56.874667 56.874667 0 0 0-17.194667-24.448 42.026667 42.026667 0 0 0-28.16-10.154667 43.477333 43.477333 0 0 0-28.16 10.538667c-7.936 6.229333-14.037333 14.592-17.536 24.064a15.872 15.872 0 0 1-6.826667 8.106666 21.418667 21.418667 0 0 1-10.154666 2.56 50.773333 50.773333 0 0 1-14.208-2.218666 113.92 113.92 0 0 1-15.872-5.632 73.941333 73.941333 0 0 1-14.208-7.978667 38.698667 38.698667 0 0 1-9.472-9.130667 13.397333 13.397333 0 0 1-2.56-7.552 28.074667 28.074667 0 0 1 3.413333-12.16c3.413333-7.552 4.693333-15.872 3.84-24.106666a41.685333 41.685333 0 0 0-11.861333-24.874667 29.354667 29.354667 0 0 0-15.530667-8.917333 65.621333 65.621333 0 0 0-17.450667-1.493334 73.898667 73.898667 0 0 0-19.626666 3.754667 18.346667 18.346667 0 0 1-12.8-0.768 20.053333 20.053333 0 0 1-9.514667-8.490667 95.36 95.36 0 0 1-13.226667-31.146666 37.888 37.888 0 0 1-0.981333-13.909334 14.208 14.208 0 0 1 9.088-12.842666 65.28 65.28 0 0 0 24.618667-18.261334 42.24 42.24 0 0 0 10.88-28.416 39.808 39.808 0 0 0-11.093334-27.818666 69.205333 69.205333 0 0 0-24.618666-17.322667 12.288 12.288 0 0 1-6.912-6.613333A23.210667 23.210667 0 0 1 298.666667 320.725333a56.32 56.32 0 0 1 1.792-13.354666c1.194667-4.821333 2.773333-9.6 4.736-14.208 1.877333-4.437333 4.138667-8.661333 6.826666-12.629334a29.44 29.44 0 0 1 8.448-8.576 10.666667 10.666667 0 0 1 7.04-1.92c2.56 0.426667 5.12 1.024 7.594667 1.792 9.002667 3.626667 18.816 4.821333 28.458667 3.413334 9.856-1.536 19.029333-6.144 26.069333-13.226667a32.853333 32.853333 0 0 0 7.765333-13.653333c2.986667-9.642667 4.053333-19.84 3.114667-29.909334a163.84 163.84 0 0 0-1.152-9.216 47.36 47.36 0 0 1-1.706667-6.101333 10.325333 10.325333 0 0 1 0.725334-6.485333 25.728 25.728 0 0 1 9.813333-11.434667c4.778667-3.2 9.898667-5.845333 15.274667-7.850667a96.810667 96.810667 0 0 1 28.288-6.4 11.946667 11.946667 0 0 1 9.514666 3.84 23.978667 23.978667 0 0 1 4.693334 7.936c3.669333 8.533333 9.386667 16 16.64 21.717334a40.874667 40.874667 0 0 0 27.050666 9.472c10.24 0.128 20.224-3.072 28.458667-9.088 7.978667-5.674667 13.994667-13.610667 17.322667-22.741334a28.928 28.928 0 0 1 5.632-7.594666 11.605333 11.605333 0 0 1 8.021333-3.84c4.693333 0.085333 9.386667 0.64 13.909333 1.706666 5.12 1.28 10.069333 2.986667 14.890667 5.034667 4.864 2.133333 9.386667 4.864 13.525333 8.192 3.882667 3.072 7.253333 6.741333 9.941334 10.922667a11.093333 11.093333 0 0 1 1.365333 7.978666 30.72 30.72 0 0 1-1.834667 6.272c-3.84 8.704-5.077333 18.389333-3.456 27.818667 1.578667 9.728 6.229333 18.730667 13.312 25.6 7.210667 7.253333 16.853333 11.52 27.050667 12.074667 10.24 0.853333 20.565333-1.024 29.909333-5.376a14.250667 14.250667 0 0 1 8.96-1.877334c3.370667 0.170667 6.570667 1.621333 8.96 4.053334 5.376 5.546667 9.557333 12.202667 12.202667 19.498666 3.456 8.448 5.888 17.28 7.253333 26.282667a16.384 16.384 0 0 1-2.517333 12.202667 17.706667 17.706667 0 0 1-7.04 5.674666c-9.557333 3.541333-17.92 9.770667-24.106667 17.877334a44.288 44.288 0 0 0-9.941333 28.416c-0.170667 9.770667 2.816 19.328 8.533333 27.221333 5.546667 7.68 13.354667 13.568 22.314667 16.725333 1.92 1.109333 3.712 2.346667 5.461333 3.712a20.906667 20.906667 0 0 1 6.741334 10.368l0.170666-0.426666zM512 456.661333a73.130667 73.130667 0 0 0 51.84-21.76 73.088 73.088 0 0 0-80.426667-118.826666 73.344 73.344 0 0 0-22.869333 119.168c13.653333 13.738667 32.341333 21.333333 51.754667 21.162666l-0.298667 0.256zM213.333333 725.333333h128v128H213.333333z m234.666667 0h128v128h-128z m234.666667 0h128v128h-128z" fill="#409EFF" p-id="4476"></path><path d="M768 640v85.333333h-42.666667v-42.666666h-192v42.666666h-42.666666v-42.666666H298.666667v42.666666H256v-85.333333h234.666667v-128h42.666666v128H768z" fill="#409EFF" opacity=".5" p-id="4477"></path></svg>