<?xml version="1.0" encoding="UTF-8"?>
<svg width="48px" height="48px" viewBox="0 0 48 48" version="1.1" xmlns="http://www.w3.org/2000/svg" xmlns:xlink="http://www.w3.org/1999/xlink">
    <title>报表-48</title>
    <g id="dam-icon" stroke="none" stroke-width="1" fill="none" fill-rule="evenodd">
        <g id="资产状态" transform="translate(-792.000000, -626.000000)" fill="#008899" fill-rule="nonzero">
            <g id="编组-27" transform="translate(0.000000, 600.000000)">
                <g id="报表-48" transform="translate(792.000000, 26.000000)">
                    <path d="M45,0 L3,0 C1.34314575,0 0,1.34314575 0,3 L0,45 C0,46.6568542 1.34314575,48 3,48 L45,48 C46.6568542,48 48,46.6568542 48,45 L48,3 C48,1.34314575 46.6568542,0 45,0 Z M45,45 L3,45 L3,3 L45,3 L45,45 Z" id="形状"></path>
                    <rect id="矩形" x="8.25" y="33" width="4.5" height="9" rx="1"></rect>
                    <rect id="矩形" x="17.25" y="24" width="4.5" height="18" rx="1"></rect>
                    <rect id="矩形" x="26.25" y="30" width="4.5" height="12" rx="1"></rect>
                    <rect id="矩形" x="35.25" y="21" width="4.5" height="21" rx="1"></rect>
                    <path d="M28.5,21.585 C28.1173554,21.5849405 27.7426779,21.4756596 27.42,21.27 L19.5,16.005 L11.07,21.165 C10.4751528,21.5347699 9.72822142,21.5591041 9.1105677,21.2288363 C8.49291398,20.8985684 8.09837421,20.263874 8.0755677,19.5638363 C8.05276119,18.8637986 8.40515279,18.2047699 9,17.835 L18.48,12 C19.1213004,11.594588 19.9386996,11.594588 20.58,12 L28.2,17.1 L36.075,8.715 C36.5519496,8.19249907 37.2714201,7.96413787 37.9623939,8.11593785 C38.6533678,8.26773782 39.2108696,8.77663695 39.4248939,9.45093785 C39.6389182,10.1252387 39.4769496,10.8624991 39,11.385 L30,21 C29.6065039,21.4002912 29.0606045,21.613192 28.5,21.585 L28.5,21.585 Z" id="路径"></path>
                </g>
            </g>
        </g>
    </g>
</svg>