<?xml version="1.0"?>
<svg xmlns="http://www.w3.org/2000/svg" id="&#x8BA4;&#x8BC1;" width="70" height="26" viewBox="0 0 70 26">
  <path id="&#x77E9;&#x5F62;_17794" d="M0,0H48A10,10,0,0,1,58,10v0A10,10,0,0,1,48,20H0a0,0,0,0,1,0,0V0A0,0,0,0,1,0,0Z" transform="translate(12 3)" fill="#4386f5"/>
  <text id="&#x5DF2;&#x8BA4;&#x8BC1;" transform="translate(22 18)" fill="#fff" font-size="12" font-family="SourceHanSansCN-Medium, Source Han Sans CN" font-weight="500"><tspan x="0" y="0">&#x5DF2;&#x8BA4;&#x8BC1;</tspan></text>
  <g id="&#x5FBD;&#x7AE0;" transform="translate(-407 -680)">
    <path id="&#x8DEF;&#x5F84;_4090" d="M0,0H13V14L6.742,9.693,0,14Z" transform="translate(409.6 692)" fill="#66cea6"/>
    <path id="&#x8DEF;&#x5F84;_4089" d="M268.287,31.628l2.422,1.909,3.14-.19.78,2.9,2.658,1.6-1.161,2.781,1.161,2.781-2.658,1.6-.78,2.9-3.14-.191-2.422,1.909-2.422-1.909-3.14.191-.78-2.9-2.658-1.6,1.161-2.781-1.161-2.781,2.658-1.6.78-2.9,3.14.19Z" transform="translate(147.713 648.372)" fill="#ffb103" fill-rule="evenodd"/>
    <circle id="&#x692D;&#x5706;_1746" cx="5" cy="5" r="5" transform="translate(411 684)" fill="#f6e17c"/>
  </g>
</svg>
