<?xml version="1.0" standalone="no"?>
<!DOCTYPE svg PUBLIC "-//W3C//DTD SVG 1.1//EN" "http://www.w3.org/Graphics/SVG/1.1/DTD/svg11.dtd" >
<svg xmlns="http://www.w3.org/2000/svg">
<metadata>Generated by IcoMoon</metadata>
<defs>
<font id="icomoon" horiz-adv-x="1024">
<font-face units-per-em="1024" ascent="960" descent="-64" />
<missing-glyph horiz-adv-x="1024" />
<glyph unicode="&#x20;" horiz-adv-x="512" d="" />
<glyph unicode="&#xe900;" glyph-name="business" d="M378.88 519.68c0-28.277-22.923-51.2-51.2-51.2s-51.2 22.923-51.2 51.2c0 28.277 22.923 51.2 51.2 51.2s51.2-22.923 51.2-51.2zM747.52 519.68c0-28.277-22.923-51.2-51.2-51.2s-51.2 22.923-51.2 51.2c0 28.277 22.923 51.2 51.2 51.2s51.2-22.923 51.2-51.2zM563.2 519.68c0-28.277-22.923-51.2-51.2-51.2s-51.2 22.923-51.2 51.2c0 28.277 22.923 51.2 51.2 51.2s51.2-22.923 51.2-51.2zM880.64 232.96h-737.28c-34.816 0-61.44 26.624-61.44 61.44v450.56c0 34.816 26.624 61.44 61.44 61.44h737.28c34.816 0 61.44-26.624 61.44-61.44v-450.56c0-34.816-26.624-61.44-61.44-61.44zM143.36 765.44c-12.288 0-20.48-8.192-20.48-20.48v-450.56c0-12.288 8.192-20.48 20.48-20.48h737.28c12.288 0 20.48 8.192 20.48 20.48v450.56c0 12.288-8.192 20.48-20.48 20.48h-737.28zM675.84 89.6h-327.68c-12.288 0-20.48 8.192-20.48 20.48s8.192 20.48 20.48 20.48h327.68c12.288 0 20.48-8.192 20.48-20.48s-8.192-20.48-20.48-20.48zM512 89.6c-12.288 0-20.48 8.192-20.48 20.48v143.36c0 12.288 8.192 20.48 20.48 20.48s20.48-8.192 20.48-20.48v-143.36c0-12.288-8.192-20.48-20.48-20.48z" />
<glyph unicode="&#xe901;" glyph-name="dataSource" d="M512 316.928c-208.896 0-430.080 55.296-430.080 157.696 0 22.528 12.288 45.056 32.768 63.488 8.192 8.192 20.48 6.144 28.672-2.048s6.144-20.48-2.048-28.672c-12.288-12.288-20.48-22.528-20.48-32.768 0-55.296 165.888-116.736 389.12-116.736s389.12 61.44 389.12 116.736c0 18.432-18.432 34.816-34.816 45.056-10.24 6.144-12.288 18.432-6.144 28.672s18.432 12.288 28.672 6.144c43.008-28.672 53.248-59.392 53.248-77.824 2.048-104.448-219.136-159.744-428.032-159.744zM512 75.264c-208.896 0-430.080 55.296-430.080 157.696 0 22.528 12.288 45.056 32.768 63.488 8.192 8.192 20.48 6.144 28.672-2.048s6.144-20.48-2.048-28.672c-12.288-12.288-20.48-22.528-20.48-32.768 0-55.296 165.888-116.736 389.12-116.736s389.12 61.44 389.12 116.736c0 18.432-18.432 34.816-34.816 45.056-10.24 6.144-12.288 18.432-6.144 28.672s18.432 12.288 28.672 6.144c43.008-28.672 53.248-59.392 53.248-77.824 2.048-104.448-219.136-159.744-428.032-159.744zM512 523.776c-208.896 0-430.080 55.296-430.080 157.696s221.184 155.648 430.080 155.648 430.080-55.296 430.080-157.696-221.184-155.648-430.080-155.648zM512 796.16c-223.232 0-389.12-61.44-389.12-116.736s165.888-116.736 389.12-116.736 389.12 61.44 389.12 116.736-165.888 116.736-389.12 116.736z" />
<glyph unicode="&#xe902;" glyph-name="home" d="M935.936 443.904l-380.928 380.928c-22.528 22.528-61.44 22.528-86.016 0l-380.928-380.928c-8.192-8.192-8.192-24.576 0-32.768s24.576-8.192 32.768 0l30.72 30.72v-329.728c0-32.768 26.624-59.392 59.392-59.392h593.92c32.768 0 59.392 26.624 59.392 59.392v333.824l34.816-34.816c4.096-4.096 10.24-6.144 16.384-6.144s12.288 2.048 16.384 6.144c12.288 10.24 12.288 24.576 4.096 32.768v0zM616.448 99.84h-212.992v233.472c0 8.192 6.144 14.336 14.336 14.336h186.368c8.192 0 14.336-6.144 14.336-14.336v-233.472h-2.048zM821.248 114.176c0-8.192-6.144-14.336-14.336-14.336h-143.36v233.472c0 32.768-26.624 59.392-59.392 59.392h-186.368c-32.768 0-59.392-26.624-59.392-59.392v-233.472h-143.36c-8.192 0-14.336 6.144-14.336 14.336v374.784l301.056 303.104c6.144 6.144 14.336 6.144 20.48 0l299.008-299.008v-378.88z" />
<glyph unicode="&#xe903;" glyph-name="ic-data-add-tag" d="M44.8 702.72h594.688v-84.992h-594.688v84.992zM554.496 490.496h424.704v-84.992h-424.704v84.992zM724.34 235.66v424.704h84.992v-424.704h-84.992zM44.8 490.496h421.12v-84.992h-421.12v84.992zM44.8 278.016h421.12v-84.992h-421.12v84.992z" />
<glyph unicode="&#xe904;" glyph-name="ic-data-bin" d="M972.267 887.058h-920.562c-28.563-0.032-51.705-23.194-51.705-51.761 0-0.020 0-0.040 0-0.059v0.003-775.771c0-0.017 0-0.036 0-0.056 0-28.567 23.142-51.729 51.702-51.761h920.565c28.575 0.016 51.733 23.184 51.733 51.761 0 0.020 0 0.039 0 0.059v-0.003 775.771c0 0.017 0 0.036 0 0.056 0 28.577-23.158 51.745-51.732 51.761h-0.002zM962.56 71.42h-903.364v754.337h903.364v-754.337zM429.294 543.891v-11.867c0-34.171-12.765-56.11-41.212-66.883 34.255-10.913 47.693-36.050 47.693-71.147v-27.045c0-51.228-33.077-78.75-96.957-78.75h-100.436v332.085h96.368c66.097 0 94.545-25.165 94.545-76.393zM302.15 572.844v-87.755h24.969c23.79 0 38.323 8.416 38.323 35.097v18.488c0 23.734-9.875 34.171-32.516 34.171zM302.15 437.648v-102.007h36.471c21.49 0 33.077 8.052 33.077 32.74v28.924c0 30.86-12.204 40.315-41.212 40.315zM473.986 620.284h63.853v-332.085h-63.853zM641.052 528.714v-240.514h-57.372v332.085h80.096l65.592-198.768v198.768h56.895v-332.085h-65.564z" />
<glyph unicode="&#xe905;" glyph-name="ic-data-boolean" d="M354.304 214.272c-169.472 0-309.504 140.288-309.504 315.392s140.288 315.392 309.504 315.392 309.504-140.288 309.504-315.392c-5.888-175.104-140.032-315.392-309.504-315.392v0zM354.304 786.688c-140.032 0-251.136-116.736-251.136-257.024s110.848-257.024 251.136-257.024 251.136 116.736 251.136 257.024c-5.888 140.288-116.736 257.024-251.136 257.024v0zM669.696 50.944c-169.472 0-309.504 140.288-309.504 315.392s140.032 315.392 309.504 315.392 309.504-140.288 309.504-315.392-140.032-315.392-309.504-315.392v0zM669.696 623.104c-140.288 0-251.136-116.736-251.136-257.024s110.848-257.024 251.136-257.024 251.136 116.736 251.136 257.024-111.104 257.024-251.136 257.024v0z" />
<glyph unicode="&#xe906;" glyph-name="ic-data-ext" d="M242.176 273.408c9.472 9.472 9.472 22.272 0 31.744l-120.576 120.576h301.568c12.8 0 22.272 9.472 22.272 22.272s-9.472 22.272-22.272 22.272h-301.568l120.576 120.576c9.472 9.472 9.472 22.272 0 31.744s-22.272 9.472-31.744 0l-158.72-158.72c-9.472-9.472-9.472-22.272 0-31.744l158.72-158.72c9.728-9.472 22.272-9.472 31.744 0v0zM600.832 425.728h301.568l-120.576-120.576c-9.472-9.472-9.472-22.272 0-31.744s22.272-9.472 31.744 0l158.72 158.72c9.472 9.472 9.472 22.272 0 31.744l-158.72 158.72c-9.472 9.472-22.272 9.472-31.744 0s-9.472-22.272 0-31.744l120.576-120.576h-301.568c-12.8 0-22.272-9.472-22.272-22.272-1.536-11.008 9.472-22.272 22.272-22.272v0z" />
<glyph unicode="&#xe907;" glyph-name="ic-data-float" d="M932.096 849.152h-840.192c-12.544 0-24.576-5.12-33.28-13.824-8.96-8.96-13.824-20.992-13.824-33.536v-707.84c0-12.544 4.864-24.576 13.824-33.536s20.736-13.824 33.28-13.824h839.936c12.544 0 24.576 5.12 33.28 13.824 8.96 8.96 13.824 20.992 13.824 33.536v708.096c0 12.544-4.864 24.576-13.824 33.536-8.704 8.704-20.48 13.568-33.024 13.568v0zM923.136 104.96h-824.32v688.384h824.32v-688.384zM271.104 302.592c-30.976 0-55.808 11.264-73.728 33.792-20.736 26.112-30.976 68.096-30.976 125.44 0 35.584 3.84 65.024 11.264 87.040 7.68 22.784 19.456 40.704 34.816 53.248 15.616 12.8 35.584 19.2 58.88 19.2 17.152 0 32.512-3.584 45.824-10.496s24.32-17.408 32.768-30.464c8.192-12.8 14.848-28.416 19.456-46.336s6.912-41.984 6.912-71.936c0-35.328-3.84-64.512-11.008-86.528-7.68-22.784-19.2-40.704-34.56-53.248-16.384-13.056-36.096-19.712-59.648-19.712v0zM270.592 573.952c-13.824 0-24.576-5.632-32.768-17.408-11.264-16.384-17.152-48.384-17.152-94.72 0-57.856 8.448-81.92 15.36-91.648 9.728-13.824 21.248-20.48 35.072-20.48s25.344 6.656 35.072 20.48c7.168 9.984 15.36 34.048 15.36 91.648 0 57.856-8.448 81.92-15.36 91.904-9.984 13.568-21.504 20.224-35.584 20.224v0zM374.528 366.080h58.368v-58.368h-58.368v58.368zM383.232 316.416v41.216h41.216v-41.216h-41.216zM527.872 307.712v221.184c-6.912-5.12-14.080-9.728-21.248-14.080-14.592-8.448-27.904-15.104-39.424-19.456l-11.52-4.352v52.736l4.864 2.304c19.456 9.216 36.608 20.224 50.944 33.28 14.336 12.8 24.32 25.088 30.208 36.864l2.304 4.864h37.376v-313.344h-53.504zM628.48 307.712l-0.256 8.448c-0.256 9.728 1.28 19.456 4.864 28.416 5.376 14.080 13.824 28.16 25.344 41.728 11.264 13.312 27.648 28.672 48.64 45.824 31.232 25.6 52.736 46.336 63.488 60.928 10.24 13.824 15.36 26.624 15.36 38.4 0 12.032-4.096 22.016-12.8 30.208-8.704 8.448-19.968 12.288-34.304 12.288-15.104 0-26.88-4.352-35.84-13.056-8.96-8.96-13.312-21.248-13.312-37.376v-9.472l-55.040 5.632 0.768 8.448c2.816 29.952 13.312 53.248 31.744 69.12 18.176 15.872 42.496 24.064 72.704 24.064 30.464 0 55.040-8.704 73.216-25.856 18.176-17.408 27.392-39.168 27.392-64.512 0-13.056-2.816-26.112-7.936-38.144-5.12-12.288-13.824-25.088-25.6-38.4-11.52-12.8-30.464-30.72-56.832-52.736-21.504-17.92-35.328-30.208-41.216-36.608-1.536-1.792-3.072-3.328-4.608-5.12h136.448v-51.968h-212.224v-0.256z" />
<glyph unicode="&#xe908;" glyph-name="ic-data-int" d="M923.136 481.024v-376.064h-824.32v376.064h-54.016v-386.816c0-26.112 21.248-47.36 47.104-47.36h839.936c26.112 0 47.104 21.248 47.104 47.36v386.816h-55.808zM98.816 793.344h824.32v-312.32h56.064v321.024c0 26.112-21.248 47.36-47.104 47.36h-840.192c-26.112 0-47.104-21.248-47.104-47.36v-321.024h54.016v312.32zM265.984 603.392l-0.768-0.768c-9.728-10.24-22.272-19.968-37.888-29.44-15.104-8.448-29.44-14.336-43.008-17.664l-2.048-0.512v-55.296l3.328 1.024c26.112 7.424 48.384 18.944 66.304 34.048v-242.176h55.296v310.784h-41.216zM385.792 332.288c20.224-30.208 48.896-45.824 85.504-45.824 36.096 0 65.024 15.36 85.504 45.824 18.944 28.672 28.672 67.584 28.672 115.712 0 11.52-0.512 22.528-1.792 33.024h-55.040c1.024-11.008 1.536-22.016 1.536-33.024 0-31.232-3.328-56.32-9.984-74.752-9.984-26.112-25.856-38.912-48.896-38.912-23.296 0-39.168 12.8-48.64 38.912-6.656 18.432-9.984 43.52-9.984 74.752 0 12.032 0.512 23.040 1.536 33.024h-55.040c-1.024-11.008-1.792-22.016-1.792-33.024-0.256-48.384 9.216-87.296 28.416-115.712v0zM422.4 522.752v0c9.472 26.112 25.344 38.912 48.64 38.912 23.040 0 38.912-12.8 48.64-38.912 4.096-11.264 7.168-25.344 8.704-41.728h55.296c-3.584 33.28-12.544 61.184-26.88 82.688v0c-20.224 30.208-49.152 45.824-85.504 45.824-36.864 0-65.536-15.36-85.504-45.824-14.336-21.76-23.552-49.408-26.88-82.688h55.040c1.536 16.64 4.352 30.464 8.448 41.728v0zM678.656 522.752v0c9.472 26.112 25.344 38.912 48.64 38.912 23.040 0 38.912-12.8 48.64-38.912 4.096-11.264 7.168-25.344 8.704-41.728h55.040c-3.584 33.28-12.544 60.928-26.88 82.688v0c-20.224 30.208-49.152 45.824-85.504 45.824-36.864 0-65.536-15.36-85.504-45.824-14.336-21.76-23.552-49.408-26.88-82.688h55.040c1.792 16.64 4.608 30.464 8.704 41.728v0zM642.048 332.288c20.224-30.208 48.896-45.824 85.504-45.824 36.096 0 65.024 15.36 85.504 45.824 18.944 28.672 28.672 67.584 28.672 115.712 0 11.52-0.512 22.528-1.792 33.024h-55.040c1.024-9.984 1.536-20.992 1.536-33.024 0-31.232-3.328-56.32-9.984-74.752-9.984-26.112-25.856-38.912-48.896-38.912-23.296 0-39.168 12.8-48.64 38.912-6.656 18.432-9.984 43.52-9.984 74.752 0 12.032 0.512 23.040 1.536 33.024h-55.040c-1.024-11.008-1.792-22.016-1.792-33.024-0.256-48.384 9.472-87.296 28.416-115.712v0z" />
<glyph unicode="&#xe909;" glyph-name="ic-data-modify" d="M883.2-7.936h-749.824c-45.568 0-82.176 36.608-82.176 82.176v749.568c0 45.824 36.608 82.432 82.176 82.432h496.64c18.176 0 30.464-12.288 30.464-27.392s-12.288-27.392-27.392-27.392h-472.064c-30.464 0-55.040-24.576-55.040-55.040v-691.712c0-30.464 24.32-54.784 54.784-54.784h691.712c30.464 0 54.784 24.32 54.784 54.784v496.896c0 15.36 12.288 27.392 27.392 27.392s27.392-12.288 27.392-27.392v-524.032c3.328-48.896-33.28-85.504-78.848-85.504v0zM429.056 357.632c-12.288-12.288-27.392-12.288-39.68 0s-12.288 27.392 0 39.68l499.968 499.712c12.288 12.288 27.392 12.288 39.68 0s12.288-27.392 0-39.68l-499.968-499.712z" />
<glyph unicode="&#xe90a;" glyph-name="ic-data-shrink" d="M249.088 623.616c-9.472-9.472-9.472-22.272 0-31.744l120.32-120.32h-301.056c-12.8 0-22.272-9.472-22.272-22.272s9.472-22.272 22.272-22.272h301.056l-120.32-120.32c-9.472-9.472-9.472-22.272 0-31.744s22.272-9.472 31.744 0l158.464 158.464c9.472 9.472 9.472 22.272 0 31.744l-158.464 158.464c-9.728 9.472-22.272 9.472-31.744 0v0zM957.184 471.552h-301.056l120.32 120.32c9.472 9.472 9.472 22.272 0 31.744s-22.272 9.472-31.744 0l-158.464-158.464c-9.472-9.472-9.472-22.272 0-31.744l158.464-158.464c9.472-9.472 22.272-9.472 31.744 0s9.472 22.272 0 31.744l-120.32 120.32h301.056c12.8 0 22.272 9.472 22.272 22.272 1.536 11.008-9.472 22.272-22.272 22.272v0z" />
<glyph unicode="&#xe90b;" glyph-name="ic-data-str" d="M932.096 849.152h-840.192c-12.544 0-24.576-5.12-33.28-13.824-8.96-8.96-13.824-20.992-13.824-33.536v-707.84c0-12.544 4.864-24.576 13.824-33.536s20.736-13.824 33.28-13.824h839.936c12.544 0 24.576 5.12 33.28 13.824 8.96 8.96 13.824 20.992 13.824 33.536v708.096c0 12.544-4.864 24.576-13.824 33.536-8.704 8.704-20.48 13.568-33.024 13.568v0zM923.136 104.96h-824.32v688.384h824.32v-688.384zM311.808 609.28c56.576 0 85.76-27.648 85.76-76.288v-9.472h-55.040v12.544c0 21.76-10.496 29.952-29.184 29.952-18.432 0-29.184-8.192-29.184-29.952 0-62.464 113.92-73.984 113.92-160.512 0-48.384-29.696-76.288-86.784-76.288s-86.784 27.648-86.784 76.288v18.688h55.040v-21.76c0-21.76 11.776-29.44 30.208-29.44s30.208 7.68 30.208 29.44c0 62.464-113.92 73.984-113.92 160.512 0 48.64 28.928 76.288 85.76 76.288zM414.464 605.696h180.224v-43.264h-60.928v-259.84h-58.368v259.84h-60.928v43.264zM741.888 302.848c-3.072 7.68-5.376 12.544-5.376 37.12v47.616c0 28.16-11.776 38.4-38.144 38.4h-19.968v-123.392h-58.368v303.104h87.808c60.416 0 86.272-23.040 86.272-69.632v-23.808c0-31.232-12.288-51.456-38.144-61.44 29.184-9.984 38.656-33.024 38.656-64.512v-46.848c0-14.848 0.512-25.6 6.4-36.864h-59.136zM678.4 562.432v-93.184h22.784c21.76 0 35.072 7.68 35.072 32v29.952c0 21.76-8.96 31.232-29.696 31.232h-28.16z" />
<glyph unicode="&#xe90c;" glyph-name="ic-data-time" d="M844.288 777.472c-88.064 88.064-205.056 136.448-329.728 136.448-124.416 0-241.408-48.384-329.472-136.448s-136.448-205.056-136.448-329.472c0-124.416 48.384-241.408 136.448-329.472s205.056-136.448 329.472-136.448c124.416 0 241.664 48.384 329.728 136.448 181.504 181.76 181.504 477.184 0 658.944v0 0 0zM801.28 161.536c-76.544-76.544-178.432-118.784-286.72-118.784s-209.92 42.24-286.464 118.528c-76.544 76.8-118.784 178.432-118.784 286.72s42.24 210.176 118.784 286.464c76.544 76.544 178.176 118.784 286.464 118.784s210.176-42.24 286.72-118.528c157.952-158.208 157.952-415.232 0-573.184v0 0 0zM716.032 333.824l-161.024 93.184v253.952c0 21.504-17.408 38.912-38.912 38.912s-38.912-17.408-38.912-38.912v-271.872c0-14.336 17.92-26.368 29.44-33.28 3.328-4.864 12.032-9.216 17.408-12.288l160.256-97.024c18.432-10.752 38.656-4.352 49.408 14.336 11.008 18.688 1.024 42.24-17.664 52.992v0 0 0zM716.032 333.824v0z" />
<glyph unicode="&#xe90d;" glyph-name="ic-left-dashboard-asset" d="M129.024-6.656h76.8v236.544h-76.8v-236.544zM364.8-6.656h76.8v348.16h-76.8v-348.16zM630.784-6.656h76.8v437.248h-76.8v-437.248zM878.848-6.656h70.656v566.784h-70.656v-566.784zM925.44 654.592l53.504 248.064-289.28-58.88 88.576-70.656-248.32-218.624-124.16 93.952-359.68-318.72 53.504-41.216 307.2 271.36 124.16-94.464 300.544 265.984 93.952-76.8z" />
<glyph unicode="&#xe90e;" glyph-name="ic-left-dashboard-catalog" d="M979.2 448c0-257.28-208.64-465.92-465.92-465.92s-465.92 208.64-465.92 465.92c0 257.28 208.64 465.92 465.92 465.92 0-61.44 0-304.128 0-436.992 0-10.496 0-19.968 0-28.928 9.728 0 20.48 0 31.744 0 132.096 0 364.8 0 434.176 0v0zM453.12 387.84c-6.4 6.144-6.656 15.104-6.656 28.416 0 129.792 0.512 405.248 0.512 424.448-188.416-32-332.032-196.096-332.032-393.728 0-220.672 178.944-399.36 399.36-399.36 198.144 0 362.752 144.384 393.984 333.824-24.064 0.256-295.424-0.256-425.216-0.256-14.080-0.256-24.32 1.28-29.952 6.656v0zM913.152 537.6c-35.328 150.272-157.44 274.432-307.456 310.528-8.704 2.816-30.976 19.456-21.76 46.080 12.544 24.576 39.936 18.944 43.52 17.92 173.312-44.544 312.32-188.672 352-363.776 0.256-1.28 5.12-29.44-28.672-34.816-26.88-4.096-35.84 16.128-37.632 24.064v0z" />
<glyph unicode="&#xe90f;" glyph-name="ic-left-dashboard-quality" d="M934.656 811.52c-24.32 16.128-58.624 30.208-101.632 42.24-85.504 23.808-198.912 36.864-319.232 36.864s-233.472-13.056-319.232-36.864c-42.752-12.032-77.056-26.112-101.376-42.24-30.464-19.968-45.824-43.008-45.824-68.352v-589.312c0-25.344 15.36-48.384 45.824-68.352 24.32-16.128 58.624-30.208 101.632-42.24 85.504-23.808 198.912-36.864 319.232-36.864s233.472 13.056 319.232 36.864c43.008 12.032 77.312 26.112 101.632 42.24 30.464 19.968 45.824 43.008 45.824 68.352v589.568c-0.256 25.344-15.616 48.384-46.080 68.096v0 0zM207.872 806.4c81.408 22.528 189.952 35.072 305.92 35.072s224.512-12.544 305.92-35.072c88.064-24.576 111.36-51.968 111.36-63.232s-23.296-38.656-111.36-63.232c-81.152-22.528-189.952-34.816-305.664-34.816s-224.512 12.544-305.92 35.072c-88.32 24.32-111.616 51.968-111.616 62.976 0 11.264 23.296 38.656 111.36 63.232v0zM819.968 90.88c-81.408-22.528-189.952-35.072-305.92-35.072s-224.512 12.544-305.92 35.072c-88.064 24.576-111.36 51.968-111.36 63.232v125.952c24.064-15.104 57.088-28.672 98.304-40.192 85.504-23.808 198.912-36.864 319.232-36.864s233.472 13.056 319.232 36.864c41.216 11.52 74.24 24.832 98.304 40.192v-125.952c-0.512-11.264-23.808-38.656-111.872-63.232v0 0zM819.968 287.232c-81.408-22.528-189.952-35.072-305.92-35.072s-224.512 12.544-305.92 35.072c-88.064 24.576-111.36 51.968-111.36 63.232v125.952c24.064-15.104 57.088-28.672 98.304-40.192 85.504-23.808 198.912-36.864 319.232-36.864s233.472 13.056 319.232 36.864c41.216 11.52 74.24 24.832 98.304 40.192v-125.952c-0.512-11.264-23.808-38.656-111.872-63.232v0zM819.968 483.584c-81.408-22.528-189.952-35.072-305.92-35.072s-224.512 12.544-305.92 35.072c-88.064 24.576-111.36 51.968-111.36 63.232v125.952c24.064-15.104 57.088-28.672 98.304-40.192 85.504-23.808 198.912-36.864 319.232-36.864s233.472 13.056 319.232 36.864c41.216 11.52 74.24 24.832 98.304 40.192v-125.952c-0.512-11.008-23.808-38.656-111.872-63.232v0z" />
<glyph unicode="&#xe910;" glyph-name="ic-left-dataCatalog" d="M822.528 84.736c-57.088 0-103.424 46.336-103.424 103.424s46.336 103.424 103.424 103.424c57.088 0 103.424-46.336 103.424-103.424s-46.336-103.424-103.424-103.424v0zM672.512 230.4h-321.024c-9.472 51.712-32 67.328-62.976 88.32l146.944 253.696c22.784-13.056 48.384-21.504 76.544-21.504 30.976 0 59.648 9.216 83.968 24.832l146.944-252.672c-34.56-20.736-60.16-40.96-70.4-92.672v0zM201.472 84.736c-57.088 0-103.424 46.336-103.424 103.424s46.336 103.424 103.424 103.424c57.088 0 103.424-46.336 103.424-103.424s-46.336-103.424-103.424-103.424v0zM512 809.216c57.088 0 103.424-46.336 103.424-103.424s-46.336-103.424-103.424-103.424-103.424 46.336-103.424 103.424c0 56.832 46.336 103.424 103.424 103.424v0zM822.528 343.552c-10.752 0-20.992-1.024-30.976-3.072l-156.672 271.36c20.224 25.856 32.512 58.624 32.512 94.208 0 85.248-69.632 154.88-155.136 154.88s-155.136-69.632-155.136-155.136c0-38.656 14.848-73.728 38.4-100.864l-154.624-267.264c-12.288 3.584-26.368 5.632-40.96 5.632-83.968 0-153.6-69.632-153.6-155.136s69.632-153.088 155.136-153.088c80.896 0 146.688 39.936 153.856 143.616h313.344c7.168-103.424 72.96-143.616 153.856-143.616 85.504 0 155.136 68.608 155.136 154.112-0.256 85.248-69.376 154.112-154.624 154.112 0 0.256-0.256 0.256-0.512 0.256v0z" />
<glyph unicode="&#xe911;" glyph-name="ic-left-datasource" d="M395.52 333.312c-123.648 7.68-229.376 38.912-291.328 82.944v-84.736c0-57.6 125.952-105.728 291.328-114.944v-58.112c-123.648 7.68-229.376 38.912-291.328 82.944v-84.736h-58.112v553.472c0 112.64 182.528 203.776 407.808 203.776s407.552-91.136 407.552-203.776v-183.808h-58.368v78.848c-71.424-59.136-201.216-98.816-349.44-98.816s-278.016 39.424-349.184 98.56v-98.816c0-57.6 125.952-105.728 291.328-114.944v-57.856h-0.256zM453.888-17.92c-225.28 0-407.808 78.336-407.808 174.848h58.112c0-64.256 156.416-116.48 349.44-116.48v-58.368h0.256zM453.888 564.48c193.024 0 349.44 65.28 349.44 145.664s-156.416 145.664-349.44 145.664c-193.024 0-349.44-65.28-349.44-145.664s156.416-145.664 349.44-145.664v0zM960.512 182.528l-40.448 23.552c2.304 12.288 3.84 25.088 3.84 38.144 0 12.8-1.28 25.6-3.84 38.144l40.448 23.552c16.64 9.728 22.272 30.976 12.8 47.872l-34.56 60.416c-4.608 7.936-12.032 13.824-20.992 16.384-8.96 2.304-18.432 1.28-26.368-3.584l-40.96-23.808c-19.2 16.64-41.216 29.696-65.024 38.4v29.696c0 19.2-15.616 34.816-34.56 34.816h-69.376c-19.2 0-34.816-15.616-34.56-34.816v-29.696c-23.808-8.704-45.824-21.76-65.024-38.4l-40.96 23.808c-7.936 4.608-17.408 5.888-26.368 3.584s-16.384-8.192-20.992-16.384l-34.56-60.672c-9.472-16.64-3.84-37.888 12.8-47.872l40.448-23.552c-2.304-12.544-3.584-25.344-3.84-38.144 0-13.056 1.536-25.856 3.84-38.144l-40.448-23.552c-16.64-9.728-22.272-30.976-12.8-47.872l34.56-60.416c4.608-7.936 12.032-13.824 20.992-16.384 8.96-2.304 18.432-1.28 26.368 3.584l40.96 23.808c19.2-16.384 40.96-29.696 65.024-38.4v-29.696c0-19.2 15.616-35.072 34.56-35.072h69.376c19.2 0 34.816 15.616 34.56 35.072v29.696c23.808 8.704 45.824 21.76 65.024 38.4l40.96-23.808c7.936-4.608 17.408-5.888 26.368-3.584s16.384 8.192 20.992 16.384l34.56 60.672c9.472 16.64 3.84 38.144-12.8 47.872v0zM917.504 147.968l-15.872-27.136c-4.608-7.424-14.336-9.984-21.76-5.632l-44.288 25.088c-23.040-25.6-53.76-43.008-87.552-49.664v-34.56c0-8.704-7.168-15.616-16.128-15.616h-32c-4.096 0-8.192 1.536-11.264 4.608s-4.608 6.912-4.864 11.264v34.56c-33.792 6.656-64.512 24.064-87.552 49.664l-44.288-25.088c-7.68-4.352-17.408-1.792-21.76 5.632l-15.872 27.136c-2.048 3.584-2.56 7.936-1.536 12.032s3.84 7.424 7.424 9.472l44.544 25.344c-5.632 15.872-8.448 32.768-8.448 49.408 0 17.408 3.072 33.792 8.448 49.408l-44.544 25.344c-3.584 2.048-6.4 5.376-7.424 9.472s-0.512 8.192 1.536 12.032l15.872 27.136c4.608 7.424 14.336 9.984 21.76 5.632l44.288-25.088c23.040 25.6 53.76 43.008 87.552 49.664v34.56c0 8.704 7.168 15.616 16.128 15.616h32c8.96 0 16.128-6.912 16.128-15.616v-34.56c33.792-6.656 64.512-24.064 87.552-49.664l44.288 25.088c7.68 4.352 17.408 1.792 21.76-5.632l15.872-27.136c2.048-3.584 2.56-7.936 1.536-12.032s-3.84-7.424-7.424-9.472l-44.544-25.344c5.12-15.616 8.448-32.256 8.448-49.408 0-17.408-3.072-33.792-8.448-49.408l44.544-25.344c3.584-2.048 6.4-5.376 7.424-9.472 1.28-4.352 0.512-8.704-1.536-12.288v0zM715.776 331.52c-48.128 0-87.296-39.168-87.296-87.296s39.168-87.296 87.296-87.296c48.128 0 87.296 39.168 87.296 87.296s-38.912 87.296-87.296 87.296v0zM715.776 215.040c-10.496 0-19.968 5.632-25.344 14.592-5.12 8.96-5.12 20.224 0 29.184s14.848 14.592 25.344 14.592c16.128 0 29.184-13.056 29.184-29.184s-13.056-29.184-29.184-29.184v0z" />
<glyph unicode="&#xe912;" glyph-name="ic-left-dataStandard" d="M779.008 770.56c0 19.712-16.64 35.84-36.352 35.84h-91.648v-35.84c0-19.712-16.64-35.84-36.352-35.84h-310.528c-20.224 0-36.352 16.128-36.352 35.84v35.84h-110.336c-20.224 0-36.352-16.128-36.352-35.84v-680.192c0-19.712 16.64-35.84 36.352-35.84h292.352l72.704-71.68h-401.408c-40.192 0-72.704 32-72.704 71.68v751.872c0 39.68 32.768 71.68 72.704 71.68h146.176c0 19.712 16.64 35.84 36.352 35.84h310.528c20.224 0 36.352-16.128 36.352-35.84h128c40.192 0 72.704-32 72.704-71.68v-328.704l-72.96-74.496v367.36h0.768zM614.656 519.424h-329.216c-10.24 0-18.176 7.936-18.176 17.664v17.664c0 9.728 7.936 17.664 18.176 17.664h329.216c10.24 0 18.176-7.936 18.176-17.664v-17.664c0-9.728-8.704-17.664-18.176-17.664v0zM632.832 340.736c0-9.728-7.936-17.664-18.176-17.664h-329.216c-10.24 0-18.176 7.936-18.176 17.664v17.664c0 9.728 7.936 17.664 18.176 17.664h329.216c10.24 0 18.176-7.936 18.176-17.664v-17.664zM473.344 229.376l135.424-115.712 370.944 369.92-366.336-501.504-188.416 200.192 48.384 47.104z" />
<glyph unicode="&#xe913;" glyph-name="ic-left-job" d="M890.624 913.92h-757.248c-48.128 0-87.296-39.168-87.296-87.296v-756.992c0-48.128 39.168-87.296 87.296-87.296h756.992c48.128 0 87.296 39.168 87.296 87.296v756.992c0.256 48.128-38.912 87.296-87.040 87.296v0zM133.376 851.712h758.016c13.824 0 24.32-11.264 24.32-25.344v-122.368h-807.424v122.624c0 13.824 11.264 25.088 25.088 25.088v0zM890.624 44.288h-757.248c-13.824 0-25.344 11.264-25.344 25.344v603.648h807.68v-603.648c0-14.080-11.264-25.344-25.088-25.344v0zM830.464 424.704h-310.784c-12.8 0-23.296 10.496-23.296 23.296s10.496 23.296 23.296 23.296h310.528c12.8 0 23.296-10.496 23.296-23.296 0.256-12.8-10.24-23.296-23.040-23.296v0zM830.464 246.016h-310.784c-12.8 0-23.296 10.496-23.296 23.296s10.496 23.296 23.296 23.296h310.528c12.8 0 23.296-10.496 23.296-23.296 0.256-12.8-10.24-23.296-23.040-23.296v0zM830.464 114.176h-310.784c-12.8 0-23.296 10.496-23.296 23.296s10.496 23.296 23.296 23.296h310.528c12.8 0 23.296-10.496 23.296-23.296 0.256-13.056-10.24-23.296-23.040-23.296v0zM807.168 813.056h69.888v-69.888h-69.888v69.888zM667.392 813.056h69.888v-69.888h-69.888v69.888zM271.36 308.224h69.888v-69.888h-69.888v69.888zM271.36 176.128h69.888v-69.888h-69.888v69.888zM519.68 813.056h69.888v-69.888h-69.888v69.888zM313.088 375.552c-6.144 0-12.032 2.304-16.384 6.656l-91.392 89.344c-9.216 8.96-9.472 23.808-0.256 33.024 8.96 9.216 23.808 9.472 33.024 0.512l71.68-69.888 114.944 166.144c7.424 10.496 21.76 13.312 32.512 5.888 10.496-7.424 13.312-21.76 5.888-32.512l-130.816-188.928c-3.84-5.632-9.984-9.216-16.896-9.984-1.024 0-1.536-0.256-2.304-0.256v0z" />
<glyph unicode="&#xe914;" d="M193.28 455.168c0 13.568 11.008 24.576 24.576 24.576s24.576-11.008 24.576-24.576c0-13.568-11.008-24.576-24.576-24.576-13.824 0.256-24.576 11.264-24.576 24.576v0zM291.328 455.168c0 13.568 11.008 24.576 24.576 24.576s24.576-11.008 24.576-24.576c0-13.568-11.008-24.576-24.576-24.576-13.568 0.256-24.576 11.264-24.576 24.576v0zM463.104 430.848h-49.152c-13.568 0-24.576 11.008-24.576 24.576s11.008 24.576 24.576 24.576h49.152c13.568 0 24.576-11.008 24.576-24.576s-11.008-24.576-24.576-24.576v0zM193.28 206.080c0 13.568 11.008 24.576 24.576 24.576s24.576-11.008 24.576-24.576-11.008-24.576-24.576-24.576c-13.824 0-24.576 11.008-24.576 24.576v0zM291.328 206.080c0 13.568 11.008 24.576 24.576 24.576s24.576-11.008 24.576-24.576-11.008-24.576-24.576-24.576c-13.568 0-24.576 11.008-24.576 24.576v0zM414.208 181.504c-13.568 0-24.576 11.008-24.576 24.576s11.008 24.576 24.576 24.576h49.152c13.568 0 24.576-11.008 24.576-24.576s-11.008-24.576-24.576-24.576h-49.152zM782.336 497.152c0 27.136-22.016 49.152-49.152 49.152h-589.056c-27.136 0-49.152-22.016-49.152-49.152v-98.304c0-27.136 22.016-49.152 49.152-49.152h343.808v-49.152h-343.808c-27.136 0-49.152-22.016-49.152-49.152v-98.304c0-27.136 22.016-49.152 49.152-49.152h392.704v-49.152h-392.704c-54.272 0-98.304 44.032-98.304 98.304v98.304c0 28.416 12.544 55.296 33.792 73.728-21.504 18.432-33.792 45.312-33.792 73.728v98.304c0 28.416 12.544 55.296 33.792 73.728-21.504 18.432-33.792 45.312-33.792 73.728v98.048c0 54.272 44.032 98.304 98.304 98.304h589.056c54.272 0 98.304-44.032 98.304-98.304v-98.304c0-28.416-12.544-55.296-33.792-73.728 21.504-18.432 33.792-45.312 33.792-73.728h-49.152v0.256zM782.336 742.656c0 27.136-22.016 49.152-49.152 49.152h-589.056c-27.136 0-49.152-22.016-49.152-49.152v-98.304c0-27.136 22.016-49.152 49.152-49.152h589.056c27.136 0 49.152 22.016 49.152 49.152v98.304zM659.456 681.984h-245.504c-13.568 0-24.576 11.008-24.576 24.576s11.008 24.576 24.576 24.576h245.504c13.568 0 24.576-11.008 24.576-24.576s-11.008-24.576-24.576-24.576v0zM315.904 681.984c-13.568 0-24.576 11.008-24.576 24.576s11.008 24.576 24.576 24.576c13.568 0 24.576-11.008 24.576-24.576s-11.008-24.576-24.576-24.576v0zM217.6 681.984c-13.568 0-24.576 11.008-24.576 24.576s11.008 24.576 24.576 24.576c13.568 0 24.576-11.008 24.576-24.576s-11.008-24.576-24.576-24.576v0z" />
<glyph unicode="&#xe915;" d="M902.912 356.864h-15.104v45.056c0 41.472-33.792 75.264-75.264 75.264h-90.624c-41.472 0-75.264-33.792-75.264-75.264v-45.312h-15.104c-41.472 0-75.264-33.792-75.264-75.264v-151.040c0-41.472 33.792-75.264 75.264-75.264h271.616c41.472 0 75.264 33.792 75.264 75.264v151.040c-0.256 41.728-34.048 75.52-75.52 75.52v0zM676.608 399.36c0 23.552 20.224 43.008 45.312 43.008h90.368c24.832 0 45.312-19.2 45.312-43.008v-43.008h-180.992v43.008zM939.008 134.4c0-23.552-19.2-43.008-43.008-43.008h-257.792c-23.552 0-43.008 19.2-43.008 43.008v143.36c0 23.552 19.2 43.008 43.008 43.008h257.792c23.552 0 43.008-19.2 43.008-43.008v-143.36z" />
<glyph unicode="&#xe916;" d="M765.696 266.24c-33.28 0-60.416-27.136-60.416-60.416s27.136-60.416 60.416-60.416c33.28 0 60.416 27.136 60.416 60.416s-27.136 60.416-60.416 60.416v0zM765.696 175.872c-16.64 0-30.208 13.568-30.208 30.208s13.568 30.208 30.208 30.208c16.64 0 30.208-13.568 30.208-30.208s-13.568-30.208-30.208-30.208v0z" />
<glyph unicode="&#xe917;" glyph-name="ic-left-search" d="M108.544 495.872c0 196.608 160.768 356.096 358.912 356.096s358.912-159.488 358.912-356.096-160.768-355.84-358.912-355.84c-198.144 0-358.912 159.232-358.912 355.84v0zM732.16 171.008l190.464-188.928 55.296 54.784-189.696 188.16c65.024 75.264 100.864 171.52 100.608 271.104 0 230.656-188.672 417.792-421.376 417.792s-421.376-187.136-421.376-418.048c0-230.912 188.672-417.792 421.376-417.792 96.256-0.256 189.696 32.512 264.704 92.928v0z" />
<glyph unicode="&#xe918;" glyph-name="ic-left-semantics" d="M84.992 719.872l427.008 194.048 427.008-194.048v-543.488l-427.008-194.304-427.008 194.048v543.744zM122.88 658.944v-458.752l371.968-166.4v466.944l-371.968 158.208zM907.008 198.912v468.992l-371.968-166.144v-466.944l371.968 164.096zM899.584 703.232l-387.584 172.032-383.744-176.64 383.744-164.352 387.584 168.96zM798.208 698.624v0z" />
<glyph unicode="&#xe919;" glyph-name="ic-left-standard" d="M165.376 370.176c16.64 0 32.512 6.656 44.288 18.432 17.92 17.92 23.296 45.056 13.824 68.608l149.248 150.272c7.68-3.072 15.616-4.864 23.808-4.608 14.848 0.256 29.184 5.888 40.192 15.616l129.024-65.024c-0.256-1.28-0.768-2.56-0.768-3.84 0-16.64 6.4-32.768 18.176-44.544 13.312-13.312 31.744-19.968 50.432-18.176s35.584 12.032 45.824 27.648c11.52 17.664 13.824 39.68 5.632 59.136l150.016 188.672c23.296-9.472 49.92-3.84 67.584 13.824 24.32 24.576 24.576 64.512 0 89.088-24.832 23.808-64 23.808-88.576 0-18.176-18.176-23.552-45.312-13.568-68.864l-150.016-188.928c-21.504 7.936-45.568 3.84-62.976-10.752l-129.28 65.024c0 1.28 0.768 2.56 0.768 3.84 0 16.64-6.656 32.768-18.176 44.544-23.552 23.808-64.768 23.808-88.576 0-17.92-18.176-23.040-45.056-13.568-68.608l-149.504-150.528c-23.296 9.216-49.92 3.84-67.84-13.568-24.32-24.832-24.32-64.512 0-89.088 11.52-11.52 27.392-18.176 44.032-18.176v0zM848.384 830.976c5.632 5.632 14.592 5.632 20.224 0s5.632-14.848 0-20.48c-5.632-5.376-14.592-5.376-20.224 0-2.816 2.816-4.096 6.4-4.096 10.24s1.28 7.424 4.096 10.24v0zM617.472 559.872c2.56 2.816 6.4 4.352 10.24 4.352s7.424-1.536 10.24-4.352c5.632-5.632 5.632-14.848 0-20.48-5.632-5.376-14.592-5.376-20.48 0-5.888 5.632-5.632 14.848 0 20.48v0zM386.304 676.096c2.56 2.816 6.4 4.352 10.24 4.352s7.424-1.536 10.24-4.352c2.816-2.816 4.352-6.4 4.352-10.24s-1.536-7.424-4.352-10.24c-5.632-5.376-14.592-5.376-20.224 0-5.888 5.632-5.888 14.848-0.256 20.48v0zM155.392 443.392c2.56 2.816 6.4 4.352 10.24 4.096 3.84 0 7.424-1.28 10.24-4.096 5.632-5.632 5.632-14.848 0-20.48-5.632-5.376-14.592-5.376-20.224-0.256-5.888 6.144-5.888 15.104-0.256 20.736v0zM954.624 61.44h-14.336v518.144c0 6.4-2.56 12.544-7.168 17.152s-10.752 7.168-17.152 7.168h-115.456c-6.4 0-12.544-2.56-17.152-7.168s-7.168-10.752-6.912-17.152v-518.144h-67.328v247.040c0 6.4-2.56 12.544-7.168 17.152s-10.752 7.168-17.152 7.168h-115.456c-13.312 0-24.064-11.008-24.064-24.32v-247.040h-67.328v363.008c0 6.4-2.56 12.544-6.912 17.152-4.608 4.608-10.752 7.168-17.152 7.168h-115.456c-6.4 0-12.544-2.56-17.152-7.168s-7.168-10.752-7.168-17.152v-363.008h-66.816v130.56c0 6.4-2.56 12.544-7.168 17.152s-10.752 7.168-17.152 7.168h-115.2c-6.4 0-12.544-2.56-17.152-7.168s-7.168-10.752-7.168-17.152v-130.56h-14.336c-8.704 0-16.64-4.608-20.992-12.032s-4.352-16.64 0-24.32c4.352-7.424 12.288-12.032 20.992-12.032h885.504c13.312 0 24.064 10.752 24.064 24.32 0.256 13.056-10.496 24.064-24.064 24.064v0zM199.168 61.44h-67.328v106.496h67.328v-106.496zM430.080 61.44h-67.328v338.688h67.328v-338.688zM661.248 61.44h-67.328v222.72h67.328v-222.72zM892.16 61.44h-67.328v493.824h67.328v-493.824z" />
<glyph unicode="&#xe91a;" glyph-name="ic-left-task" d="M861.44-17.92h-698.88c-64.256 0-116.48 52.224-116.48 116.48v698.88c0 64.256 52.224 116.48 116.48 116.48h698.88c64.256 0 116.48-52.224 116.48-116.48v-698.88c0-64.256-52.224-116.48-116.48-116.48v0zM919.808 797.44c0 32-26.112 58.112-58.112 58.112h-698.88c-32.256 0.256-58.624-26.112-58.624-58.112v-698.88c0-32 26.112-58.368 58.368-58.368h698.88c32 0 58.112 26.112 58.112 58.368v698.88h0.256zM805.888 255.232h-268.288c-18.432 0-33.536 15.104-33.536 33.536s15.104 33.536 33.536 33.536h268.288c15.872 0 29.952-10.752 33.024-26.112 4.352-21.76-12.032-40.96-33.024-40.96v0 0zM804.864 601.344h-266.24c-18.432 0-33.28 14.848-33.28 33.28s14.848 33.28 33.28 33.28h266.24c18.432 0 33.28-14.848 33.28-33.28s-14.848-33.28-33.28-33.28v0 0zM432.128 667.648l-131.584-104.704-0.256 0.256c-9.728-7.68-23.296-8.96-34.048-1.792l-87.296 58.368c-13.312 8.96-16.896 27.136-8.192 40.448 5.632 8.448 14.848 13.056 24.32 13.056 5.632 0 11.264-1.536 16.128-4.864l69.632-46.592 111.36 85.504c0 0 5.888 6.656 19.968 6.656 14.592 0 26.624-12.032 26.624-26.624 0-13.824-6.656-19.712-6.656-19.712v0zM271.872 418.048c72.192 0 131.072-58.88 131.072-131.072s-58.88-131.072-131.072-131.072c-72.192 0-131.072 58.88-131.072 131.072s58.88 131.072 131.072 131.072v0zM271.872 214.272c40.192 0 72.704 32.768 72.704 72.704 0 40.192-32.768 72.704-72.704 72.704-40.192 0-72.704-32.768-72.704-72.704 0-40.192 32.768-72.704 72.704-72.704v0 0z" />
<glyph unicode="&#xe91b;" glyph-name="ic-left-user" d="M120.064 30.208c-7.424 0.768-10.24 1.024-16.128 7.168s-6.912 16.128-6.912 25.088c0 203.52 165.632 369.152 369.152 369.152 53.76 0 105.472-11.264 154.112-33.536 16.896-7.68 24.064-27.648 16.384-44.544s-24.832-17.92-41.728-10.24c-39.424 18.176-87.808 25.6-131.072 27.648-168.96 8.448-308.992-137.472-308.992-303.872 0-18.432-4.864-36.352-23.552-36.608h-11.264zM463.872 858.624c117.504 0 212.992-95.488 212.992-212.992s-95.488-212.992-212.992-212.992c-117.504 0-212.992 95.488-212.992 212.992 0 117.248 95.488 212.992 212.992 212.992v0zM463.872 913.92c-148.224 0-268.544-120.064-268.544-268.288s120.064-268.288 268.288-268.288c148.224 0 268.288 120.064 268.288 268.288 0.256 148.224-119.808 268.288-268.032 268.288zM913.664 132.352l-30.464 17.664c1.792 9.216 2.816 18.688 2.816 28.672 0 9.472-1.024 19.2-2.816 28.672l30.464 17.664c12.544 7.424 16.64 23.296 9.472 35.84l-25.856 45.312c-3.328 5.888-8.96 10.496-15.616 12.288s-13.824 0.768-19.712-2.56l-30.72-17.92c-14.336 12.544-30.976 22.272-48.896 28.928v22.272c0 14.336-11.52 26.112-25.856 26.112h-51.968c-14.336 0-26.112-11.776-25.856-26.112v-22.272c-17.92-6.656-34.56-16.384-48.896-28.928l-30.72 17.92c-5.888 3.584-13.056 4.352-19.712 2.56s-12.288-6.144-15.616-12.288l-25.856-45.312c-7.168-12.544-2.816-28.416 9.472-35.84l30.464-17.664c-1.792-9.472-2.816-18.944-2.816-28.672s1.024-19.2 2.816-28.672l-30.464-17.664c-12.544-7.424-16.64-23.296-9.472-35.84l25.856-45.312c3.328-5.888 8.96-10.496 15.616-12.288s13.824-0.768 19.712 2.56l30.72 17.92c14.336-12.288 30.72-22.272 48.896-28.928v-22.272c0-14.336 11.52-26.112 25.856-26.112h51.968c14.336 0 26.112 11.776 25.856 26.112v22.272c17.92 6.656 34.56 16.384 48.896 28.928l30.72-17.92c5.888-3.584 13.056-4.352 19.712-2.56s12.288 6.144 15.616 12.288l25.856 45.312c7.424 12.544 3.072 28.416-9.472 35.84v0zM881.408 106.496l-12.032-20.48c-3.328-5.632-10.752-7.424-16.384-4.352l-33.28 18.944c-17.408-19.2-40.192-32.256-65.536-37.376v-25.856c0-6.4-5.376-11.776-12.032-11.776h-23.808c-3.072 0-6.144 1.28-8.448 3.328-2.304 2.304-3.584 5.12-3.584 8.448v25.856c-25.344 5.12-48.384 18.176-65.536 37.376l-33.28-18.944c-5.632-3.328-13.056-1.28-16.384 4.352l-12.032 20.48c-1.536 2.816-2.048 5.888-1.28 8.96s2.816 5.632 5.632 7.168l33.28 18.944c-4.096 12.032-6.4 24.576-6.4 37.12 0 13.056 2.304 25.344 6.4 37.12l-33.536 18.944c-2.816 1.536-4.608 4.096-5.632 7.168-0.768 3.072-0.512 6.144 1.28 8.96l12.032 20.48c3.328 5.632 10.752 7.424 16.384 4.352l33.28-18.944c17.408 19.2 40.192 32.256 65.536 37.376v25.856c0 6.4 5.376 11.776 12.032 11.776h23.808c6.656 0 12.032-5.12 12.032-11.776v-25.856c25.344-5.12 48.384-18.176 65.536-37.376l33.28 18.944c5.632 3.328 13.056 1.28 16.384-4.352l12.032-20.48c1.536-2.816 2.048-5.888 1.28-8.96s-2.816-5.632-5.632-7.168l-33.28-18.944c3.84-11.776 6.4-24.064 6.4-37.12s-2.304-25.344-6.4-37.12l33.28-18.944c2.816-1.536 4.608-4.096 5.632-7.168s0.768-6.4-1.024-8.96v0zM730.368 243.968c-36.096 0-65.536-29.44-65.536-65.536s29.44-65.536 65.536-65.536c36.096 0 65.536 29.44 65.536 65.536 0 36.352-29.44 65.536-65.536 65.536v0zM730.368 156.672c-7.68 0-15.104 4.096-18.944 11.008-3.84 6.656-3.84 15.104 0 21.76s11.008 11.008 18.944 11.008c12.032 0 21.76-9.728 21.76-21.76 0-12.288-9.728-22.016-21.76-22.016v0z" />
<glyph unicode="&#xe91c;" glyph-name="ic-quality-add" d="M543.744 479.744v402.176c0 17.408-14.080 31.744-31.744 31.744-17.408 0-31.744-14.080-31.744-31.744v-402.176h-402.176c-17.408 0-31.744-14.080-31.744-31.744 0-17.408 14.080-31.744 31.744-31.744h402.176v-402.176c0-17.408 14.080-31.744 31.744-31.744 8.704 0 16.64 3.584 22.272 9.216s9.216 13.568 9.216 22.272v402.176h402.176c8.704 0 16.64 3.584 22.272 9.216s9.216 13.568 9.216 22.272c0 17.408-14.080 31.744-31.744 31.744l-401.664 0.512z" />
<glyph unicode="&#xe91d;" glyph-name="ic-quality-close" d="M571.136 448l391.424 391.424c16.896 17.152 16.896 44.544 0 61.696-17.152 16.896-44.544 16.896-61.696 0l-391.424-391.424-391.424 391.424c-17.152 16.896-44.544 16.896-61.696 0-16.896-16.896-16.896-44.544 0-61.696l391.424-391.424-391.424-391.424c-16.896-17.152-16.896-44.544 0-61.696 8.448-8.448 19.712-12.8 30.72-12.8 11.264 0 22.272 4.352 30.72 12.8l391.68 391.424 391.424-391.424c8.448-8.448 19.712-12.8 30.72-12.8 11.264 0 22.272 4.352 30.72 12.8 16.896 17.152 16.896 44.544 0 61.696l-391.168 391.424z" />
<glyph unicode="&#xe91e;" glyph-name="ic-quality-correct" d="M512 913.92c-256.768 0-465.92-209.152-465.92-465.92 0-257.024 208.896-465.92 465.92-465.92s465.92 208.896 465.92 465.92c0 256.768-208.896 465.92-465.92 465.92v0zM736.768 524.8l-267.52-270.592c0 0-0.256 0-0.256-0.256 0 0 0-0.256-0.256-0.256-2.048-2.048-4.864-3.328-7.168-4.864-1.28-0.768-2.304-1.792-3.584-2.304-4.096-1.536-8.192-2.56-12.544-2.56s-8.704 0.768-12.544 2.56c-1.28 0.512-2.304 1.792-3.584 2.304-2.56 1.28-5.12 2.56-7.168 4.864 0 0 0 0.256-0.256 0.256 0 0-0.256 0-0.256 0.256l-131.584 135.168c-12.8 13.312-12.544 34.304 0.768 47.36 13.312 12.8 34.304 12.544 47.36-0.768l107.776-110.848 243.712 246.272c13.056 13.056 34.048 13.312 47.36 0.256 12.544-12.544 12.8-33.536-0.256-46.848v0z" />
<glyph unicode="&#xe91f;" glyph-name="ic-quality-error" d="M512 913.408c-257.024 0-465.408-208.384-465.408-465.408s208.384-465.408 465.408-465.408c257.024 0 465.408 208.384 465.408 465.408s-208.384 465.408-465.408 465.408v0zM708.352 288.256l-35.584-35.584-160.256 160.256-160.256-160.256-35.584 35.584 160.256 160.256-160.256 160.256 35.584 35.584 160.256-160.256 160.256 160.256 35.584-35.584-160.256-160.256 160.256-160.256zM512-17.92c-62.976 0-123.904 12.288-181.248 36.608-55.552 23.552-105.216 57.088-148.224 99.84s-76.288 92.672-99.84 147.968c-24.32 57.6-36.608 118.528-36.608 181.504s12.288 123.904 36.608 181.248c23.552 55.552 57.088 105.216 99.84 148.224 42.752 42.752 92.672 76.288 148.224 99.84 57.344 24.32 118.272 36.608 181.248 36.608s123.904-12.288 181.248-36.608c55.552-23.552 105.216-57.088 148.224-99.84 42.752-42.752 76.288-92.672 99.84-148.224 24.32-57.344 36.608-118.528 36.608-181.248 0-62.976-12.288-123.904-36.608-181.248-23.552-55.552-57.088-105.216-99.84-147.968s-92.672-76.288-148.224-99.84c-57.344-24.576-118.272-36.864-181.248-36.864v0zM512 912.896c-256.256 0-464.896-208.64-464.896-464.896s208.64-464.896 464.896-464.896c256.256 0 464.896 208.64 464.896 464.896s-208.64 464.896-464.896 464.896v0zM672.768 251.904l-160.256 160.256-160.256-160.256-36.352 36.352 160.256 160.256-160.256 160.256 36.352 36.352 160.256-160.256 160.256 160.256 36.352-36.352-160.256-160.256 160.256-160.256-36.352-36.352zM317.184 288.256l34.816-34.816 160.256 160.256 160.256-160.256 34.816 34.816-160.256 160.256 160.256 160.256-34.816 34.816-160.256-160.256-160.256 160.256-34.816-34.816 160.256-160.256-160.256-160.256z" />
<glyph unicode="&#xe920;" glyph-name="ic-quality-export" d="M830.208-17.92h-656.64c-71.68 0-130.048 58.368-130.048 130.048v654.592c0 73.728 60.416 147.2 133.888 147.2h250.88v-66.048h-250.88c-35.84 0-66.048-30.208-66.048-66.048l-1.792-669.696c0-35.84 30.208-66.048 66.048-66.048l667.648 1.792c35.84 0 66.048 30.208 66.048 66.048v250.88h66.048v-250.88c0-71.424-73.472-131.84-145.152-131.84v0zM943.36 613.888c-18.944 0-34.048 15.104-34.048 34.048l-1.792 158.464-505.6-482.816c-13.312-13.312-34.048-13.312-49.152 0-13.312 13.312-13.312 34.048 0 45.312l501.76 479.232-147.2-1.792c-18.944 0-34.048 15.104-34.048 34.048s15.36 33.536 34.304 33.536h231.936c18.944 0 34.048-15.104 34.048-32v-233.984c1.792-18.944-11.52-34.048-30.208-34.048v0z" />
<glyph unicode="&#xe921;" glyph-name="ic-quality-import" d="M832.256-17.92h-655.872c-71.936 0-130.304 58.112-130.304 130.304v655.872c0 71.936 61.696 145.664 133.632 145.664h251.904v-66.816h-251.904c-36.096 0-66.816-30.72-66.816-66.816l-1.792-668.16c0-36.096 29.184-65.024 65.024-65.024l668.16 1.792c36.096 0 66.816 30.72 66.816 66.816v250.112h66.816v-250.112c0-73.728-73.728-133.632-145.664-133.632v0zM380.16 614.144c18.944 0 32.512-15.36 32.512-32.512l1.792-159.232 505.344 481.28c13.824 12.032 34.304 12.032 47.872 0s13.824-32.512 0-46.336l-502.016-479.488 145.664 1.792c18.944 0 32.512-15.36 32.512-32.512 0-18.944-13.824-32.512-32.512-32.512h-231.168c-18.944 0-34.304 13.824-34.304 32.512v232.96c0 18.688 15.36 34.048 34.304 34.048v0z" />
<glyph unicode="&#xe922;" glyph-name="ic-quality-problem" d="M512 913.92c-257.28 0-465.92-208.64-465.92-465.92s208.64-465.92 465.92-465.92 465.92 208.64 465.92 465.92-208.64 465.92-465.92 465.92v0zM544.256 215.040h-64v64h64v-64zM645.632 500.736c-9.472-16.896-27.648-37.376-55.040-61.44-18.176-16.384-30.208-28.416-35.84-36.096s-9.728-16.64-12.544-26.624c-2.56-9.984-4.352-26.112-4.608-48.64h-54.016c-0.256 7.68-0.256 13.056-0.256 16.896 0 22.016 3.072 41.216 9.472 57.088 4.608 12.032 12.032 24.32 22.016 36.608 7.424 8.96 20.992 22.016 40.448 39.168s32.256 30.976 37.888 41.216c5.888 10.24 8.704 21.248 8.704 33.536 0 22.016-8.448 41.216-25.6 57.6-17.152 16.64-37.888 24.832-62.72 24.832-24.064 0-44.032-7.68-59.904-22.528-16.128-15.104-26.624-38.4-31.488-70.144l-57.856 6.912c5.12 42.752 20.736 75.264 46.336 98.048 25.856 22.784 59.648 34.048 102.144 34.048 44.8 0 80.384-12.288 107.264-36.608 26.624-24.32 39.936-53.76 39.936-88.32-0.256-20.224-4.864-38.656-14.336-55.552v0z" />
<glyph unicode="&#xe923;" glyph-name="ic-quality-sort" d="M627.456-17.92c-4.352 0-8.96 1.024-13.312 3.072-9.984 4.864-16.384 15.36-16.384 26.88v872.192c0 16.384 13.312 29.696 29.696 29.696s29.696-13.312 29.696-29.696v-812.288l215.296 163.584c12.8 9.984 31.744 7.424 41.728-5.376s7.424-31.744-5.376-41.728l-262.912-199.936c-5.376-4.352-11.776-6.4-18.432-6.4v0zM396.544-17.92c-16.384 0-29.696 13.312-29.696 29.696v812.288l-215.296-163.584c-12.8-9.984-31.744-7.424-41.728 5.376s-7.424 31.744 5.376 41.728l262.912 199.936c8.96 6.912 21.248 7.936 31.232 3.072s16.384-15.36 16.384-26.88v-872.448c0.512-15.872-12.8-29.184-29.184-29.184v0z" />
<glyph unicode="&#xe924;" glyph-name="ic-source-delete" d="M305.408 183.808c1.28-12.8 11.776-22.528 24.32-22.528s23.040 9.728 24.32 22.528v412.16c-1.28 12.8-11.776 22.528-24.32 22.528s-23.040-9.728-24.32-22.528v-412.16zM978.432 760.576c0 14.080-11.008 25.344-24.32 25.344h-254.208v78.848c0 27.136-21.248 49.152-47.36 49.152h-277.76c-26.112 0-47.36-22.016-47.36-49.152v-79.104h-254.72c-9.216 1.024-18.432-3.584-23.296-11.776s-4.864-18.688 0-26.88c4.864-8.192 14.080-12.8 23.296-11.776h59.904v-704.256c0.256-27.136 21.248-48.896 47.36-49.152h666.624c12.544 0 24.576 5.12 33.536 14.336s13.824 21.76 13.824 34.816v704h59.904c13.568 0.256 24.576 11.52 24.576 25.6v0zM374.784 863.744h276.224v-77.824h-275.456l-0.768 77.824zM846.848 32h-665.6v703.232h663.040l2.56-703.232zM513.28 158.464c13.568 0 24.32 11.264 24.32 25.344v412.16c-1.28 12.8-11.776 22.528-24.32 22.528s-23.040-9.728-24.32-22.528v-412.672c0.256-13.568 11.008-24.576 24.32-24.832v0zM697.088 158.464c13.568 0 24.32 11.264 24.32 25.344v412.16c-1.28 12.8-11.776 22.528-24.32 22.528s-23.040-9.728-24.32-22.528v-412.672c0.256-13.568 11.008-24.576 24.32-24.832v0z" />
<glyph unicode="&#xe925;" glyph-name="ic-source-history" d="M941.312 629.248c-23.552 55.552-57.088 105.216-99.84 147.968s-92.672 76.288-148.224 99.84c-57.344 24.576-118.272 36.864-181.248 36.864-110.848 0-216.32-38.912-299.52-109.056v75.52c0 18.432-14.848 33.28-33.28 33.28s-33.28-14.848-33.28-33.28v-149.248c-3.072-12.032 0.768-25.344 11.264-33.792 8.448-6.912 19.2-8.96 28.928-6.656 2.048-0.256 3.84-0.512 5.888-0.512h162.816c18.432 0 33.28 14.848 33.28 33.28s-14.848 33.28-33.28 33.28h-95.744c70.912 58.112 159.744 90.368 253.184 90.368 220.16 0 399.104-179.2 399.104-399.104s-179.2-399.36-399.36-399.36-399.104 179.2-399.104 399.36c0 18.432-14.848 33.28-33.28 33.28s-33.28-14.848-33.28-33.28c0-62.976 12.288-123.904 36.608-181.248 23.552-55.552 57.088-105.216 99.84-147.968s92.672-76.288 147.968-99.84c57.344-24.32 118.528-36.608 181.248-36.608s123.904 12.288 181.248 36.608c55.552 23.552 105.216 57.088 147.968 99.84s76.288 92.672 99.84 147.968c24.576 57.344 36.864 118.528 36.864 181.248s-12.288 123.904-36.608 181.248v0zM474.88 667.136c-18.432 0-33.28-14.848-33.28-33.28v-267.008c0-18.432 14.848-33.28 33.28-33.28h256.768c18.432 0 33.28 14.848 33.28 33.28s-14.848 33.28-33.28 33.28h-223.488v233.728c0 18.176-14.848 33.28-33.28 33.28v0z" />
<glyph unicode="&#xe926;" glyph-name="ic-top-collect" d="M512 847.104c9.728 0 18.688-5.12 22.784-13.312l105.216-213.504c6.144-12.288 17.92-20.992 31.744-23.040l241.92-35.072c9.216-1.28 16.896-7.424 19.712-15.36 2.816-7.68 0.768-16.384-5.376-22.272l-177.152-173.056c-9.728-9.472-14.080-22.784-11.776-36.096l41.216-240.128c1.536-8.448-2.304-16.64-9.728-21.504-4.352-3.072-9.472-4.608-14.848-4.608-4.352 0-8.704 1.024-12.288 3.072l-210.944 111.104c-6.144 3.328-13.056 4.864-19.968 4.864s-13.824-1.792-19.968-4.864l-210.688-111.104c-3.84-2.048-8.192-3.072-12.544-3.072-5.376 0-10.496 1.536-14.592 4.352-7.424 5.12-11.264 13.312-9.984 21.76l41.216 240.128c2.304 13.312-2.048 26.624-11.776 36.096l-177.152 173.056c-6.144 5.888-8.192 14.336-5.376 22.016 2.816 8.192 10.496 14.080 19.712 15.616l241.92 35.072c13.824 2.048 25.856 10.496 31.744 23.040l105.216 213.504c3.072 7.936 12.032 13.312 21.76 13.312v0zM512 888.32c-26.112 0-49.664-14.336-60.672-36.608l-105.216-213.504-241.92-35.072c-24.832-3.584-45.568-20.224-53.504-42.752-7.936-22.784-2.048-47.872 15.616-65.024l177.152-173.056-40.96-240.384c-4.096-24.32 6.4-48.384 27.648-62.72 11.52-7.68 25.088-11.776 38.656-11.776 11.008 0 22.272 2.56 32.512 7.936l210.944 111.104 210.944-111.104c10.24-5.376 21.248-7.936 32.512-7.936 13.568 0 27.136 4.096 38.656 11.776 20.992 14.080 31.744 38.4 27.648 62.72l-41.216 240.128 177.152 173.056c17.408 17.152 23.552 42.24 15.616 65.024-7.936 22.528-28.672 39.424-53.504 42.752l-241.92 35.072-105.216 213.504c-11.264 22.528-34.816 36.864-60.928 36.864v0 0zM512 888.32v0z" />
<glyph unicode="&#xe927;" glyph-name="ic-top-message" d="M901.376 84.736h-778.752c-43.008 0-77.824 36.096-77.824 80.896v564.992c0 44.544 34.816 80.896 77.824 80.896h778.752c43.008 0 77.824-36.096 77.824-80.896v-565.248c0-44.544-34.816-80.64-77.824-80.64v0 0zM203.264 743.936l308.736-320.256 308.736 320.256h-617.472zM924.672 743.936h-25.088l-355.072-368.128c-1.024-1.792-2.048-3.328-3.328-4.864-16.384-16.384-42.24-16.384-58.624 0-1.28 1.536-2.304 3.072-3.328 4.864l-354.816 368.128h-25.088v-599.296h825.344v599.296z" />
<glyph unicode="&#xe928;" glyph-name="ic-top-user" d="M941.312 628.992c-23.552 55.552-57.088 105.472-100.096 148.224-42.752 42.752-92.672 76.544-148.224 100.096-57.6 24.32-118.528 36.608-181.504 36.608s-124.16-12.288-181.504-36.608c-55.552-23.552-105.472-57.088-148.224-100.096-43.264-42.752-76.8-92.672-100.352-148.224-24.32-57.6-36.608-118.528-36.608-181.504s12.288-124.16 36.608-181.504c23.552-55.552 57.088-105.472 100.096-148.224 42.752-42.752 92.672-76.544 148.224-100.096 57.6-24.32 118.528-36.608 181.504-36.608s124.16 12.288 181.504 36.608c55.552 23.552 105.472 57.088 148.224 100.096 42.752 42.752 76.544 92.672 100.096 148.224 24.32 57.6 36.608 118.528 36.608 181.504 0.256 62.976-12.032 123.904-36.352 181.504v0zM512.256 393.216c-91.392 0-165.632 74.24-165.632 165.632s74.24 165.632 165.632 165.632c91.392 0 165.632-74.24 165.632-165.632s-74.24-165.632-165.632-165.632v0zM333.568 284.16c50.944 40.448 112.64 61.952 177.92 61.952s126.72-21.504 177.664-61.952c48.64-38.656 83.712-92.672 99.328-152.32-34.048-29.952-72.192-54.016-113.664-71.424-51.712-21.76-106.752-33.024-163.328-33.024-56.832 0-111.616 11.008-163.328 33.024-41.472 17.664-79.872 41.728-113.664 71.424 15.36 59.648 50.432 113.664 99.072 152.32v0zM718.336 320.768c-28.672 22.784-60.928 40.704-95.488 52.992-1.28 0.512-2.816 1.024-4.096 1.536 29.44 17.152 54.528 40.96 72.704 69.888 21.76 34.048 33.024 73.216 33.024 113.664 0 116.992-95.232 212.224-212.224 212.224s-212.224-95.232-212.224-212.224c0-40.192 11.264-79.616 33.024-113.408 18.176-28.928 43.264-52.736 72.448-69.888-1.792-0.512-3.584-1.28-5.376-1.792-34.56-12.288-66.56-30.208-95.488-52.992-48.896-38.912-87.040-92.416-107.52-151.552-30.208 34.304-54.528 72.704-72.448 114.688-21.76 51.712-33.024 106.752-33.024 163.328 0 56.832 11.008 111.616 33.024 163.328 21.248 49.92 51.456 94.976 90.112 133.376 38.656 38.656 83.456 68.864 133.376 90.112 51.712 21.76 106.752 33.024 163.328 33.024s111.616-11.008 163.328-33.024c49.92-21.248 94.976-51.456 133.376-90.112 38.656-38.656 68.864-83.456 90.112-133.376 21.76-51.712 33.024-106.752 33.024-163.328 0-56.832-11.008-111.616-33.024-163.328-17.664-41.984-41.984-80.384-72.448-114.688-20.48 59.136-58.624 112.64-107.52 151.552v0z" />
<glyph unicode="&#xe929;" glyph-name="lineage" d="M878.592 318.976c-16.384 10.24-34.816 12.288-51.2 12.288-28.672 0-55.296-10.24-75.776-30.72l-2.048 2.048-90.112 51.2c6.144 18.432 10.24 36.864 10.24 55.296 0 77.824-57.344 141.312-131.072 153.6v110.592c45.056 10.24 77.824 51.2 77.824 102.4 0 55.296-47.104 102.4-104.448 102.4s-104.448-47.104-104.448-104.448c0-49.152 34.816-88.064 77.824-102.4v-108.544c-73.728-12.288-131.072-75.776-131.072-153.6 0-18.432 2.048-36.864 10.24-55.296l-90.112-51.2-2.048-2.048c-20.48 20.48-49.152 30.72-75.776 30.72-18.432 0-36.864-6.144-51.2-12.288-49.152-28.672-67.584-94.208-38.912-143.36 18.432-34.816 55.296-51.2 90.112-51.2 18.432 0 36.864 6.144 51.2 12.288 40.96 22.528 59.392 73.728 47.104 118.784h2.048l90.112 51.2c28.672-34.816 73.728-57.344 118.784-57.344 47.104 0 90.112 20.48 118.784 57.344l90.112-51.2h2.048c-12.288-45.056 6.144-94.208 47.104-118.784 16.384-10.24 34.816-12.288 51.2-12.288 36.864 0 69.632 18.432 90.112 51.2 40.96 49.152 22.528 114.688-26.624 143.36v0zM223.232 183.808c-8.192-6.144-16.384-8.192-26.624-8.192-18.432 0-36.864 10.24-45.056 26.624-16.384 26.624-6.144 57.344 18.432 69.632 8.192 6.144 16.384 8.192 26.624 8.192 18.432 0 36.864-10.24 45.056-26.624 16.384-26.624 4.096-57.344-18.432-69.632v0zM460.8 773.632c0 28.672 22.528 51.2 51.2 51.2s51.2-22.528 51.2-51.2c0-28.672-22.528-51.2-51.2-51.2s-51.2 22.528-51.2 51.2v0zM512 304.64c-57.344 0-104.448 47.104-104.448 104.448s47.104 104.448 104.448 104.448c57.344 0 104.448-47.104 104.448-104.448s-47.104-104.448-104.448-104.448v0zM874.496 202.24c-10.24-16.384-26.624-26.624-45.056-26.624-10.24 0-18.432 2.048-26.624 8.192-26.624 16.384-34.816 47.104-18.432 69.632 10.24 16.384 26.624 26.624 45.056 26.624 10.24 0 18.432-2.048 26.624-8.192 22.528-12.288 30.72-45.056 18.432-69.632v0zM696.32 122.368h-8.192l-4.096-2.048c-104.448-61.44-241.664-61.44-346.112 0l-6.144 2.048h-8.192c-16.384 0-26.624-10.24-26.624-26.624 0-10.24 6.144-18.432 12.288-22.528 59.392-36.864 126.976-55.296 198.656-55.296 69.632 0 137.216 18.432 198.656 55.296 8.192 6.144 16.384 12.288 16.384 22.528 0 14.336-10.24 26.624-26.624 26.624v0zM147.456 376.32c0 0 2.048 0 0 0 16.384 2.048 28.672 12.288 26.624 28.672v6.144c0 122.88 67.584 237.568 174.080 296.96 12.288 8.192 18.432 22.528 10.24 36.864-8.192 12.288-22.528 18.432-36.864 10.24-122.88-69.632-200.704-200.704-200.704-344.064v-10.24c4.096-14.336 14.336-24.576 26.624-24.576v0zM675.84 706.048c106.496-59.392 174.080-174.080 174.080-296.96v-6.144c-2.048-12.288 8.192-26.624 22.528-28.672h2.048c12.288 0 22.528 10.24 26.624 22.528v10.24c0 143.36-77.824 272.384-200.704 339.968-12.288 8.192-28.672 2.048-36.864-10.24-6.144-10.24 0-24.576 12.288-30.72v0z" />
<glyph unicode="&#xe92a;" glyph-name="model" d="M634.88 570.88h-245.76c-34.816 0-61.44 26.624-61.44 61.44v163.84c0 34.816 26.624 61.44 61.44 61.44h245.76c34.816 0 61.44-26.624 61.44-61.44v-163.84c0-34.816-26.624-61.44-61.44-61.44zM389.12 816.64c-12.288 0-20.48-8.192-20.48-20.48v-163.84c0-12.288 8.192-20.48 20.48-20.48h245.76c12.288 0 20.48 8.192 20.48 20.48v163.84c0 12.288-8.192 20.48-20.48 20.48h-245.76zM389.12 38.4h-245.76c-34.816 0-61.44 26.624-61.44 61.44v163.84c0 34.816 26.624 61.44 61.44 61.44h245.76c34.816 0 61.44-26.624 61.44-61.44v-163.84c0-34.816-26.624-61.44-61.44-61.44zM143.36 284.16c-12.288 0-20.48-8.192-20.48-20.48v-163.84c0-12.288 8.192-20.48 20.48-20.48h245.76c12.288 0 20.48 8.192 20.48 20.48v163.84c0 12.288-8.192 20.48-20.48 20.48h-245.76zM880.64 38.4h-245.76c-34.816 0-61.44 26.624-61.44 61.44v163.84c0 34.816 26.624 61.44 61.44 61.44h245.76c34.816 0 61.44-26.624 61.44-61.44v-163.84c0-34.816-26.624-61.44-61.44-61.44zM634.88 284.16c-12.288 0-20.48-8.192-20.48-20.48v-163.84c0-12.288 8.192-20.48 20.48-20.48h245.76c12.288 0 20.48 8.192 20.48 20.48v163.84c0 12.288-8.192 20.48-20.48 20.48h-245.76zM266.24 304.64c-12.288 0-20.48 8.192-20.48 20.48v122.88c0 12.288 8.192 20.48 20.48 20.48h225.28v122.88c0 12.288 8.192 20.48 20.48 20.48s20.48-8.192 20.48-20.48v-143.36c0-12.288-8.192-20.48-20.48-20.48h-225.28v-102.4c0-12.288-8.192-20.48-20.48-20.48zM757.76 304.64c-12.288 0-20.48 8.192-20.48 20.48v102.4h-225.28c-12.288 0-20.48 8.192-20.48 20.48s8.192 20.48 20.48 20.48h245.76c12.288 0 20.48-8.192 20.48-20.48v-122.88c0-12.288-8.192-20.48-20.48-20.48z" />
<glyph unicode="&#xe92b;" glyph-name="quality" d="M456.704 327.168c-180.224 0-372.736 49.152-372.736 137.216 0 20.48 10.24 38.912 30.72 57.344 8.192 8.192 20.48 6.144 28.672-2.048s6.144-20.48-2.048-28.672c-8.192-6.144-16.384-16.384-16.384-26.624 0-40.96 126.976-96.256 331.776-96.256 34.816 0 67.584 2.048 100.352 4.096 12.288 0 20.48-6.144 22.528-18.432 2.048-10.24-6.144-20.48-18.432-22.528-32.768-4.096-69.632-4.096-104.448-4.096zM448.512 118.272c0 0 0 0 0 0-182.272 2.048-364.544 49.152-364.544 137.216 0 20.48 10.24 38.912 30.72 57.344 8.192 8.192 20.48 6.144 28.672-2.048s6.144-20.48-2.048-28.672c-10.24-10.24-16.384-18.432-16.384-26.624 0-38.912 122.88-96.256 325.632-96.256 12.288 0 20.48-10.24 20.48-20.48-2.048-12.288-10.24-20.48-22.528-20.48zM456.704 503.296c-180.224 0-372.736 49.152-372.736 137.216s192.512 137.216 372.736 137.216 372.736-49.152 372.736-137.216-192.512-137.216-372.736-137.216zM456.704 738.816c-204.8 0-331.776-57.344-331.776-96.256s126.976-96.256 331.776-96.256c204.8 0 331.776 57.344 331.776 96.256s-126.976 96.256-331.776 96.256zM550.912 192c-26.624-26.624-26.624-67.584 0-92.16 12.288-12.288 28.672-18.432 47.104-18.432v0c18.432 0 34.816 6.144 47.104 18.432l92.16 92.16c16.384-6.144 34.816-8.192 51.2-8.192 83.968 0 153.6 69.632 153.6 153.6 0 20.48-4.096 40.96-12.288 61.44l-2.048 6.144c0 0 0 0 0 0 0 2.048-2.048 2.048-2.048 4.096-4.096 4.096-10.24 4.096-12.288 0 0 0 0 0 0 0l-83.968-83.968-51.2 51.2 86.016 86.016c0 0 0 0 0 0 2.048 2.048 2.048 8.192 0 10.24 0 0-2.048 2.048-2.048 2.048s0 0 0 0l-8.192 4.096c-18.432 8.192-38.912 12.288-61.44 12.288-83.968 0-153.6-69.632-153.6-153.6 0-18.432 2.048-34.816 8.192-51.2l-96.256-94.208zM571.392 120.32c-14.336 14.336-14.336 36.864 0 51.2l106.496 106.496-4.096 8.192c-6.144 16.384-10.24 32.768-10.24 49.152 0 67.584 55.296 124.928 124.928 124.928 10.24 0 18.432-2.048 28.672-4.096l-77.824-77.824c-2.048-4.096-2.048-8.192 0-12.288 0 0 0 0 0 0l81.92-81.92c4.096-2.048 8.192-2.048 10.24 0l77.824 77.824c2.048-8.192 4.096-18.432 4.096-28.672 0-67.584-55.296-124.928-124.928-124.928-16.384 0-32.768 4.096-49.152 10.24l-8.192 4.096-106.496-102.4c-6.144-6.144-16.384-10.24-26.624-10.24v0c-10.24-2.048-18.432 2.048-26.624 10.24v0z" />
<glyph unicode="&#xe92c;" glyph-name="standard" d="M819.2 17.92h-614.4c-34.816 0-61.44 26.624-61.44 61.44v675.84c0 34.816 26.624 61.44 61.44 61.44h122.88v-40.96c0-12.288 8.192-20.48 20.48-20.48h327.68c12.288 0 20.48 8.192 20.48 20.48v40.96h122.88c34.816 0 61.44-26.624 61.44-61.44v-675.84c0-34.816-26.624-61.44-61.44-61.44zM204.8 775.68c-12.288 0-20.48-8.192-20.48-20.48v-675.84c0-12.288 8.192-20.48 20.48-20.48h614.4c12.288 0 20.48 8.192 20.48 20.48v675.84c0 12.288-8.192 20.48-20.48 20.48h-81.92c0-34.816-26.624-61.44-61.44-61.44h-327.68c-34.816 0-61.44 26.624-61.44 61.44h-81.92zM675.84 714.24h-327.68c-34.816 0-61.44 26.624-61.44 61.44v40.96c0 34.816 26.624 61.44 61.44 61.44h327.68c34.816 0 61.44-26.624 61.44-61.44v-40.96c0-34.816-26.624-61.44-61.44-61.44zM348.16 837.12c-12.288 0-20.48-8.192-20.48-20.48v-40.96c0-12.288 8.192-20.48 20.48-20.48h327.68c12.288 0 20.48 8.192 20.48 20.48v40.96c0 12.288-8.192 20.48-20.48 20.48h-327.68zM317.44 509.44h-20.48c-12.288 0-20.48 10.24-20.48 20.48v20.48c0 10.24 8.192 20.48 20.48 20.48h20.48c10.24 0 20.48-10.24 20.48-20.48v-20.48c0-10.24-10.24-20.48-20.48-20.48zM747.52 519.68h-348.16c-6.144 0-10.24 4.096-10.24 10.24v20.48c0 6.144 4.096 10.24 10.24 10.24h348.16c6.144 0 10.24-4.096 10.24-10.24v-20.48c0-6.144-4.096-10.24-10.24-10.24zM317.44 386.56h-20.48c-12.288 0-20.48 10.24-20.48 20.48v20.48c0 10.24 8.192 20.48 20.48 20.48h20.48c10.24 0 20.48-10.24 20.48-20.48v-20.48c0-10.24-10.24-20.48-20.48-20.48zM747.52 396.8h-348.16c-6.144 0-10.24 4.096-10.24 10.24v20.48c0 6.144 4.096 10.24 10.24 10.24h348.16c6.144 0 10.24-4.096 10.24-10.24v-20.48c0-6.144-4.096-10.24-10.24-10.24zM317.44 263.68h-20.48c-12.288 0-20.48 10.24-20.48 20.48v20.48c0 10.24 8.192 20.48 20.48 20.48h20.48c10.24 0 20.48-10.24 20.48-20.48v-20.48c0-10.24-10.24-20.48-20.48-20.48zM747.52 273.92h-348.16c-6.144 0-10.24 4.096-10.24 10.24v20.48c0 6.144 4.096 10.24 10.24 10.24h348.16c6.144 0 10.24-4.096 10.24-10.24v-20.48c0-6.144-4.096-10.24-10.24-10.24z" />
<glyph unicode="&#xe92d;" glyph-name="system" d="M512 620.032c-106.496 0-190.464-96.256-167.936-206.848 12.288-67.584 67.584-120.832 133.12-133.12 110.592-22.528 206.848 63.488 206.848 167.936 0 94.208-77.824 172.032-172.032 172.032v0zM512 318.976c-79.872 0-143.36 73.728-126.976 157.696 10.24 49.152 49.152 88.064 98.304 98.304 83.968 18.432 157.696-45.056 157.696-126.976 0-71.68-57.344-129.024-129.024-129.024v0zM942.080 515.584c0 10.24-8.192 20.48-18.432 22.528l-106.496 18.432c-4.096 12.288-8.192 22.528-14.336 34.816l63.488 88.064c6.144 8.192 6.144 20.48-2.048 28.672l-94.208 94.208c-8.192 8.192-20.48 8.192-28.672 2.048l-88.064-63.488c-10.24 6.144-22.528 10.24-34.816 14.336l-18.432 106.496c0 8.192-10.24 16.384-20.48 16.384h-133.12c-10.24 0-20.48-8.192-22.528-18.432l-18.432-106.496c-12.288-4.096-22.528-8.192-34.816-14.336l-86.016 61.44c-8.192 6.144-20.48 6.144-28.672-2.048l-94.208-94.208c-8.192-8.192-8.192-20.48-2.048-28.672l61.44-86.016c-6.144-10.24-10.24-22.528-14.336-34.816l-106.496-18.432c-10.24 0-18.432-10.24-18.432-20.48v-133.12c0-10.24 8.192-20.48 18.432-22.528l106.496-18.432c4.096-12.288 8.192-24.576 14.336-34.816l-61.44-86.016c-6.144-8.192-6.144-20.48 2.048-28.672l94.208-94.208c8.192-8.192 20.48-8.192 28.672-2.048l86.016 61.44c10.24-6.144 22.528-10.24 32.768-14.336l18.432-106.496c2.048-10.24 10.24-18.432 22.528-18.432h133.12c10.24 0 20.48 8.192 22.528 18.432l18.432 106.496c12.288 4.096 24.576 8.192 34.816 14.336l88.064-63.488c8.192-6.144 20.48-6.144 28.672 2.048l94.208 94.208c8.192 8.192 8.192 20.48 2.048 28.672l-63.488 88.064c6.144 10.24 10.24 20.48 14.336 32.768l106.496 18.432c10.24 2.048 18.432 12.288 18.432 22.528v135.168zM776.192 353.792c-2.048-10.24-6.144-18.432-10.24-26.624-6.144-14.336-4.096-30.72 4.096-43.008l40.96-57.344c6.144-8.192 6.144-20.48-2.048-28.672l-43.008-43.008c-8.192-8.192-20.48-8.192-28.672-2.048l-57.344 40.96c-8.192 6.144-16.384 8.192-24.576 8.192-6.144 0-14.336-2.048-20.48-6.144-8.192-4.096-18.432-8.192-28.672-12.288-14.336-4.096-26.624-18.432-28.672-32.768-4.096-20.48-8.192-51.2-12.288-69.632-2.048-10.24-10.24-18.432-22.528-18.432h-61.44c-10.24 0-20.48 8.192-22.528 18.432l-12.288 69.632c-2.048 16.384-14.336 28.672-30.72 34.816-8.192 2.048-18.432 6.144-24.576 10.24-6.144 2.048-12.288 4.096-18.432 4.096-8.192 0-18.432-2.048-24.576-8.192l-57.344-40.96c-8.192-6.144-20.48-6.144-28.672 2.048l-43.008 43.008c-8.192 8.192-8.192 20.48-2.048 28.672l40.96 55.296c10.24 14.336 12.288 30.72 4.096 45.056-4.096 8.192-8.192 16.384-12.288 28.672-4.096 14.336-18.432 26.624-32.768 28.672-24.576 4.096-53.248 10.24-73.728 12.288-10.24 2.048-18.432 10.24-18.432 22.528v61.44c0 10.24 8.192 20.48 18.432 22.528l69.632 12.288c16.384 2.048 28.672 14.336 34.816 28.672 2.048 8.192 6.144 18.432 10.24 26.624 8.192 14.336 6.144 32.768-2.048 45.056l-40.96 57.344c-6.144 8.192-6.144 20.48 2.048 28.672l43.008 43.008c8.192 8.192 20.48 8.192 28.672 2.048l57.344-40.96c8.192-6.144 16.384-8.192 24.576-8.192 6.144 0 12.288 2.048 18.432 4.096 8.192 4.096 18.432 8.192 26.624 10.24 16.384 4.096 28.672 18.432 30.72 36.864l10.24 61.44c2.048 18.432 12.288 26.624 22.528 26.624h61.44c10.24 0 20.48-8.192 22.528-18.432l12.288-69.632c2.048-16.384 14.336-28.672 30.72-34.816 8.192-2.048 18.432-6.144 24.576-10.24s14.336-6.144 20.48-6.144c8.192 0 18.432 2.048 24.576 8.192l57.344 40.96c8.192 6.144 20.48 6.144 28.672-2.048l43.008-43.008c8.192-8.192 8.192-20.48 2.048-28.672l-40.96-57.344c-10.24-14.336-10.24-32.768-2.048-47.104 4.096-8.192 8.192-16.384 10.24-24.576 4.096-16.384 18.432-26.624 34.816-30.72l69.632-12.288c10.24-2.048 18.432-10.24 18.432-22.528v-61.44c0-10.24-8.192-20.48-18.432-22.528l-69.632-12.288c-14.336 0-28.672-10.24-32.768-26.624v0z" />
<glyph unicode="&#xe92e;" glyph-name="total" d="M860.16 611.84h-696.32c-34.816 0-61.44 26.624-61.44 61.44v122.88c0 34.816 26.624 61.44 61.44 61.44h696.32c34.816 0 61.44-26.624 61.44-61.44v-122.88c0-34.816-26.624-61.44-61.44-61.44zM163.84 816.64c-12.288 0-20.48-8.192-20.48-20.48v-122.88c0-12.288 8.192-20.48 20.48-20.48h696.32c12.288 0 20.48 8.192 20.48 20.48v122.88c0 12.288-8.192 20.48-20.48 20.48h-696.32zM808.96 734.72c0-22.622-18.338-40.96-40.96-40.96s-40.96 18.338-40.96 40.96c0 22.622 18.338 40.96 40.96 40.96s40.96-18.338 40.96-40.96zM860.16 325.12h-696.32c-34.816 0-61.44 26.624-61.44 61.44v122.88c0 34.816 26.624 61.44 61.44 61.44h696.32c34.816 0 61.44-26.624 61.44-61.44v-122.88c0-34.816-26.624-61.44-61.44-61.44zM163.84 529.92c-12.288 0-20.48-8.192-20.48-20.48v-122.88c0-12.288 8.192-20.48 20.48-20.48h696.32c12.288 0 20.48 8.192 20.48 20.48v122.88c0 12.288-8.192 20.48-20.48 20.48h-696.32zM808.96 448c0-22.622-18.338-40.96-40.96-40.96s-40.96 18.338-40.96 40.96c0 22.622 18.338 40.96 40.96 40.96s40.96-18.338 40.96-40.96zM860.16 38.4h-696.32c-34.816 0-61.44 26.624-61.44 61.44v122.88c0 34.816 26.624 61.44 61.44 61.44h696.32c34.816 0 61.44-26.624 61.44-61.44v-122.88c0-34.816-26.624-61.44-61.44-61.44zM163.84 243.2c-12.288 0-20.48-8.192-20.48-20.48v-122.88c0-12.288 8.192-20.48 20.48-20.48h696.32c12.288 0 20.48 8.192 20.48 20.48v122.88c0 12.288-8.192 20.48-20.48 20.48h-696.32zM808.96 161.28c0-22.622-18.338-40.96-40.96-40.96s-40.96 18.338-40.96 40.96c0 22.622 18.338 40.96 40.96 40.96s40.96-18.338 40.96-40.96z" />
</font>
</defs>
</svg>
