<svg id="访问次数" xmlns="http://www.w3.org/2000/svg" width="24" height="24" viewBox="0 0 24 24">
  <g id="类型" opacity="0.515">
    <circle id="椭圆_49" data-name="椭圆 49" cx="12" cy="12" r="12" fill="#edf4ff"/>
  </g>
  <path id="路径_4275" data-name="路径 4275" d="M361,294.968c-5.286,0-8,5.333-8,5.333a8.759,8.759,0,0,0,8,5.333c5.39,0,8-5.313,8-5.313s-2.63-5.354-8-5.354Zm.012,8.666a3.333,3.333,0,1,1,3.33-3.333,3.253,3.253,0,0,1-3.33,3.333Zm0-5.333a2,2,0,1,0,2,2,2.022,2.022,0,0,0-2-2Zm0,0" transform="translate(-349 -287.968)" fill="#4386f5"/>
</svg>
