<?xml version="1.0" encoding="UTF-8"?>
<svg width="64px" height="64px" viewBox="0 0 64 64" version="1.1" xmlns="http://www.w3.org/2000/svg" xmlns:xlink="http://www.w3.org/1999/xlink">
    <title>表</title>
    <g id="元数据-知识图谱" stroke="none" stroke-width="1" fill="none" fill-rule="evenodd">
        <g id="列表详情" transform="translate(-480.000000, -48.000000)">
            <g id="表" transform="translate(480.000000, 48.000000)">
                <circle id="椭圆形" fill="#E5F4FB" cx="32" cy="32" r="32"></circle>
                <path d="M46,16 L18,16 C16.8954305,16 16,16.8954305 16,18 L16,46 C16,47.1045695 16.8954305,48 18,48 L46,48 C47.1045695,48 48,47.1045695 48,46 L48,18 C48,16.8954305 47.1045695,16 46,16 Z M26,46 L18,46 L18,40 L26,40 L26,46 Z M26,38 L18,38 L18,33 L26,33 L26,38 Z M26,31 L18,31 L18,25 L26,25 L26,31 Z M36,46 L28,46 L28,40 L36,40 L36,46 Z M36,38 L28,38 L28,33 L36,33 L36,38 Z M36,31 L28,31 L28,25 L36,25 L36,31 Z M46,46 L38,46 L38,40 L46,40 L46,46 Z M46,38 L38,38 L38,33 L46,33 L46,38 Z M46,31 L38,31 L38,25 L46,25 L46,31 Z" id="路径_4205" fill="#0095D9" fill-rule="nonzero"></path>
            </g>
        </g>
    </g>
</svg>