<?xml version="1.0" encoding="UTF-8"?>
<svg width="64px" height="64px" viewBox="0 0 64 64" version="1.1" xmlns="http://www.w3.org/2000/svg" xmlns:xlink="http://www.w3.org/1999/xlink">
    <title>函数</title>
    <g id="元数据-知识图谱" stroke="none" stroke-width="1" fill="none" fill-rule="evenodd">
        <g id="列表详情" transform="translate(-956.000000, -48.000000)">
            <g id="函数" transform="translate(956.000000, 48.000000)">
                <circle id="椭圆形" fill="#F9F1F2" cx="32" cy="32" r="32"></circle>
                <path d="M43.7944523,16.0011166 L24.3400974,16.0011166 C22.2276315,16.0011166 20.5151396,17.7158032 20.5151396,19.8309763 L20.5151396,40.0002374 L20.2055477,40.0002374 C18.0999027,39.9515693 16.2958905,41.4992312 16.0210637,43.5901059 C15.904772,44.719975 16.2737231,45.8460674 17.0358539,46.6873935 C17.7979847,47.5287195 18.8814141,48.0059285 20.0157978,48 L39.6898631,48 C40.7015715,48 41.6714123,47.5955193 42.3839799,46.8764057 C43.0965475,46.1572922 43.4928476,45.1830581 43.4848604,44.1700847 L43.4848604,24.0008235 L43.9842022,24.0008235 C45.1185859,24.0068077 46.2020153,23.5295987 46.9641461,22.6882726 C47.7262769,21.8469466 48.095228,20.7208542 47.9789363,19.5909851 C47.7041095,17.5001104 45.9000973,15.9524484 43.7944523,16.0011166 Z M20.6666667,45.9979927 L20.2660074,45.9979927 C19.1914314,46.0426228 18.2427625,45.3384906 18.0307505,44.338914 C17.92403,43.7528849 18.098129,43.1522426 18.5057482,42.7001704 C18.9133673,42.2480983 19.512174,41.9915455 20.1394834,42.0002127 L20.6666667,42.0002127 L20.6666667,45.9979927 Z M41.9695219,44.1700018 C41.9751725,45.1712942 41.1580396,45.9890121 40.140833,46 L22.6666667,46 L22.6666667,19.8300259 C22.6639734,19.3438639 22.8589754,18.8768388 23.2082285,18.5330652 C23.5574816,18.1892916 24.0319508,17.997349 24.5258618,18 L29.8798565,18 C30.6242859,19.650507 30.3903038,21.569766 29.2702935,23.0000227 C29.1176516,23.1806686 29.083986,23.4315501 29.183743,23.6450107 C29.2835,23.8584714 29.498944,23.9965603 29.7376251,24.0000217 L42,24.0000217 L42,44.1700018 L41.9695219,44.1700018 Z M43.900205,21.9979927 L32,21.9979927 C32.1976614,21.3510919 32.2965282,20.6768577 32.2931085,19.9991027 C32.2965282,19.3213477 32.1976614,18.6471135 32,18.0002127 L44.0174484,18.0002127 C44.5987445,17.9915455 45.1536285,18.2480983 45.5313486,18.7001704 C45.9090688,19.1522426 46.0703976,19.7528849 45.971505,20.338914 C45.7750442,21.3384906 44.8959605,22.0426228 43.900205,21.9979927 L43.900205,21.9979927 Z M33.9993078,28.3244257 C34.0078826,28.5116962 33.9364563,28.6935799 33.8034512,28.8231661 C33.6875855,28.9513274 33.5240222,29.0237633 33.3529808,29.0226622 C33.19389,29.0322705 33.037968,28.974518 32.9220962,28.8630653 C32.8160692,28.6736148 32.730691,28.4729268 32.6674825,28.2645768 C32.6674825,28.1648288 32.5989327,28.0650807 32.5303828,28.0251814 C32.47245,27.9611008 32.3906684,27.9248828 32.3051477,27.9254334 C32.1995392,27.9236199 32.1001394,27.9761183 32.0407412,28.0650807 C31.9819842,28.1648288 31.9428128,28.2945013 31.8840558,28.4241738 L31.1006292,31.0874475 L32.2072193,31.0874475 L32.0113627,31.7158604 L30.9047725,31.7158604 L29.759011,35.5461866 C29.465226,36.5436674 29.171441,37.341652 28.9462059,37.9002413 C28.7045918,38.4601181 28.3471746,38.9602739 27.8983727,39.366538 C27.4292226,39.7819321 26.8257449,40.0057794 26.2042125,39.9949509 C25.796117,40.0264482 25.3902428,39.9098436 25.058451,39.6657823 C24.8301937,39.4925804 24.6872132,39.226792 24.6666667,38.9376213 C24.66412,38.7395362 24.733932,38.547541 24.8625944,38.3989817 C25.0039821,38.2389408 25.2099477,38.1542875 25.4207859,38.1695611 C25.6753995,38.1695611 25.8712562,38.2393848 25.939806,38.3989817 C26.0340828,38.5744067 26.09082,38.7681785 26.1062842,38.9675457 C26.1062842,39.26679 26.2629695,39.4363617 26.4979975,39.4363617 C26.733839,39.4264245 26.9449178,39.2843702 27.0463962,39.0672938 C27.2333988,38.692906 27.3874237,38.3023575 27.5066594,37.9002413 L29.3379192,31.785684 L28.1627792,31.785684 L28.3586359,31.1572711 L29.5337759,31.1572711 L29.6610827,30.6884552 C29.8137247,30.1449445 30.0001652,29.6118777 30.2192742,29.0924859 C30.4361325,28.6236722 30.7462661,28.2058735 31.1300077,27.8655845 C31.5563034,27.4938454 32.1072116,27.3044142 32.6674825,27.3369197 C32.8898688,27.3286781 33.1111031,27.3730643 33.3138095,27.4665922 C33.4988657,27.5381776 33.6660769,27.6505877 33.8034512,27.7957609 C33.9353818,27.9260836 34.0066057,28.1074523 33.9993078,28.2945013 L33.9993078,28.3244257 Z M39.3330198,32.3113725 C39.3375788,32.5937294 39.2923797,32.8745441 39.1996928,33.1397117 L38.6378144,33.1397117 C38.72038,32.8721362 38.7621611,32.5925891 38.7616181,32.3113725 C38.7570939,32.2411909 38.7375652,32.1729744 38.704478,32.1117726 C38.666322,32.040946 38.5909731,32.0014652 38.5140107,32.0119727 C38.4549575,32.0110602 38.3975377,32.0322977 38.3521136,32.0718527 C38.2269805,32.1866208 38.1092662,32.3099794 37.9997492,32.4411123 L36.7998056,33.7684511 L37.3331139,35.5648495 C37.3997774,35.7644493 37.466441,35.9341092 37.5235811,36.0638491 C37.5807213,36.1935889 37.6569082,36.2634489 37.7521418,36.2634489 C37.8473754,36.2634489 38.0378427,36.133709 38.1616464,35.9041692 C38.2597108,35.6969594 38.3455816,35.4836542 38.4187771,35.2654498 L38.9901788,35.2654498 C38.8962377,35.6964373 38.721425,36.1035365 38.4759173,36.4630487 C38.3064833,36.7373461 38.0781951,36.9663275 37.809282,37.1317081 C37.6075743,37.2582475 37.3777002,37.327075 37.1426467,37.3313079 C36.845291,37.3520144 36.5582809,37.2129075 36.3807777,36.9620483 C36.1654681,36.6624913 36.0041046,36.32429 35.9046096,35.9640492 L35.6570022,35.1357099 L34.2570681,36.6626485 C34.0139754,37.0166754 33.6481393,37.2567341 33.2380684,37.3313079 C32.8571339,37.3313079 32.6666667,37.0618482 32.6666667,36.5329086 C32.6672231,36.1444333 32.7450665,35.7603471 32.8952273,35.4051697 L33.5904327,35.4051697 C33.4749235,35.6913898 33.4010876,35.9941662 33.3713954,36.3033688 C33.3713954,36.4331087 33.3713954,36.5029687 33.4951991,36.5029687 C33.6190028,36.5029687 33.6856664,36.4031688 33.8475635,36.2335089 L35.4951051,34.4071706 L35.1808341,33.3393115 C35.1141706,33.1397117 35.0475071,32.9700519 35.018937,32.8702519 C34.9852314,32.780116 34.9293772,32.7009251 34.8570399,32.6407122 C34.8031211,32.5731228 34.7219448,32.5361365 34.6380025,32.5409122 C34.3808718,32.5409122 34.1904045,32.8702519 34.0380307,33.5389113 L33.3999655,33.5389113 C33.5041198,33.1276627 33.6645038,32.7343691 33.8761336,32.3712524 C34.036132,32.0921961 34.2425604,31.8454489 34.4856287,31.6427131 C34.6881725,31.4906677 34.9317018,31.4102603 35.1808341,31.4131733 C35.4839008,31.394044 35.7775083,31.527498 35.9712732,31.7724529 C36.199015,32.0696939 36.373271,32.407863 36.4855347,32.770452 L36.5807683,33.0997917 L37.5331045,31.9720528 C37.7822146,31.6155982 38.1618597,31.3841228 38.5806743,31.3333333 C38.8917707,31.3333333 39.082238,31.4331332 39.152076,31.6327331 C39.2585698,31.8270719 39.314404,32.0473499 39.3139731,32.2714525 L39.3330198,32.3113725 Z" id="函数(48*48)" fill="#C97586" fill-rule="nonzero"></path>
            </g>
        </g>
    </g>
</svg>