<?xml version="1.0" encoding="UTF-8"?>
<svg width="64px" height="64px" viewBox="0 0 64 64" version="1.1" xmlns="http://www.w3.org/2000/svg" xmlns:xlink="http://www.w3.org/1999/xlink">
    <title>同义词</title>
    <g id="元数据-知识图谱" stroke="none" stroke-width="1" fill="none" fill-rule="evenodd">
        <g id="列表详情" transform="translate(-1628.000000, -48.000000)">
            <g id="同义词" transform="translate(1628.000000, 48.000000)">
                <circle id="椭圆形" fill="#F1F7EE" cx="32" cy="32" r="32"></circle>
                <g id="编组-10备份" transform="translate(16.000000, 16.000000)" fill="#7BB15D">
                    <rect id="矩形备份-10" fill-opacity="0.2" x="12.6666667" y="12.6666667" width="17.3333333" height="17.3333333"></rect>
                    <g id="编组-8" opacity="0.5" fill-rule="nonzero">
                        <path d="M19,0 C20.2349701,0 21.245854,0.959426835 21.3279503,2.17357901 L21.3333333,2.33333333 L21.3333333,12.6666667 L13.0061035,12.6666667 C12.8450205,12.6666667 12.7106244,12.7809273 12.6795423,12.9328217 L12.6727702,13 L12.6727702,21.3333333 L2.33333333,21.3333333 C1.09836327,21.3333333 0.0874793464,20.3739065 0.00538306486,19.1597543 L0,19 L0,2.33333333 C0,1.09836327 0.959426835,0.0874793464 2.17357901,0.00538306486 L2.33333333,0 L19,0 Z M10.6666667,13.4 L10.5548898,13.4000581 L10.5548898,13.4000581 L8.85333333,13.4 L8.10666667,15.52 L6,15.52 L9.6,6 L11.7466667,6 L13.492,10.666 L19.3333333,10.6666667 L19.3333333,2.33333333 C19.3333333,2.19307054 19.2467006,2.0730419 19.1240245,2.02383682 L19.0599171,2.00537045 L19,2 L2.33333333,2 C2.17225028,2 2.03785424,2.11426066 2.00677215,2.26615504 L2,2.33333333 L2,19 C2,19.1610831 2.11426066,19.2954791 2.26615504,19.3265612 L2.33333333,19.3333333 L10.6807861,19.3333333 L10.6666136,13.1859858 L10.6666136,13.1859858 L10.6666667,13.4 L10.6666667,13.4 Z M10.6666667,8.34666667 L10.64,8.34666667 L9.4,11.84 L10.9746704,11.84 L10.984269,11.8231744 C11.1212537,11.5911002 11.2991084,11.3818505 11.5110693,11.2071421 L11.5221323,11.1980208 L11.5221323,11.1980208 L11.6197008,11.1210548 L10.6666667,8.34666667 Z" id="形状结合"></path>
                        <path d="M19.0599171,2.00537045 C19.2154166,2.03359442 19.3333333,2.16969341 19.3333333,2.33333333 L19.3333333,10.6666667 L13,10.6666667 L12.8719765,10.6701192 C11.6428517,10.7365824 10.6666667,11.7542911 10.6666667,13 L10.6666667,19.3333333 L2.33333333,19.3333333 C2.14923842,19.3333333 2,19.1840949 2,19 L2,2.33333333 C2,2.14923842 2.14923842,2 2.33333333,2 L19,2 L19.0599171,2.00537045 Z" id="路径" fill-opacity="0.2"></path>
                    </g>
                    <path d="M29.6666667,10.6666667 C30.9553311,10.6666667 32,11.7113356 32,13 L32,13 L32,29.6666667 C32,30.9553311 30.9553311,32 29.6666667,32 L29.6666667,32 L13,32 C11.7113356,32 10.6666667,30.9553311 10.6666667,29.6666667 L10.6666667,29.6666667 L10.6666667,13 C10.6666667,11.7113356 11.7113356,10.6666667 13,10.6666667 L13,10.6666667 Z M29.6666667,12.6666667 L13,12.6666667 C12.8159051,12.6666667 12.6666667,12.8159051 12.6666667,13 L12.6666667,13 L12.6666667,29.6666667 C12.6666667,29.8507616 12.8159051,30 13,30 L13,30 L29.6666667,30 C29.8507616,30 30,29.8507616 30,29.6666667 L30,29.6666667 L30,13 C30,12.8159051 29.8507616,12.6666667 29.6666667,12.6666667 L29.6666667,12.6666667 Z M21.3866667,16.8373333 C22.6026667,16.8373333 23.5146667,17.1413333 24.0906667,17.7493333 C24.6026667,18.2773333 24.8586667,19.0453333 24.8586667,20.0533333 L24.8586667,20.0533333 L24.8586667,25.3333333 L23.1626667,25.3333333 L23.1626667,24.2453333 C22.8426667,24.6613333 22.4426667,24.9653333 21.9786667,25.1893333 C21.4506667,25.4293333 20.8266667,25.5573333 20.1066667,25.5573333 C19.2426667,25.5573333 18.5706667,25.3333333 18.0746667,24.9013333 C17.5626667,24.4533333 17.3066667,23.8933333 17.3066667,23.2053333 C17.3066667,22.2773333 17.6586667,21.5573333 18.3946667,21.0613333 C19.0666667,20.5813333 20.0106667,20.3253333 21.2266667,20.2933333 L21.2266667,20.2933333 L23.0346667,20.2453333 L23.0346667,19.9253333 C23.0346667,18.8373333 22.4426667,18.3093333 21.2586667,18.3093333 C20.7466667,18.3093333 20.3466667,18.3893333 20.0426667,18.5813333 C19.6906667,18.7893333 19.4506667,19.1093333 19.3546667,19.5413333 L19.3546667,19.5413333 L17.5466667,19.3973333 C17.7226667,18.4853333 18.1706667,17.8133333 18.8906667,17.3973333 C19.4986667,17.0133333 20.3306667,16.8373333 21.3866667,16.8373333 Z M23.0346667,21.5573333 L21.3546667,21.6053333 C19.8986667,21.6373333 19.1786667,22.1493333 19.1786667,23.1413333 C19.1786667,23.4293333 19.2906667,23.6693333 19.5466667,23.8613333 C19.8026667,24.0533333 20.1226667,24.1653333 20.5226667,24.1653333 C21.2266667,24.1653333 21.8186667,23.9573333 22.2986667,23.5573333 C22.7786667,23.1413333 23.0346667,22.6133333 23.0346667,21.9733333 L23.0346667,21.9733333 L23.0346667,21.5573333 Z" id="形状结合" fill-rule="nonzero"></path>
                </g>
            </g>
        </g>
    </g>
</svg>