<?xml version="1.0" encoding="UTF-8"?>
<svg width="64px" height="64px" viewBox="0 0 64 64" version="1.1" xmlns="http://www.w3.org/2000/svg" xmlns:xlink="http://www.w3.org/1999/xlink">
    <title>报表</title>
    <g id="元数据-知识图谱" stroke="none" stroke-width="1" fill="none" fill-rule="evenodd">
        <g id="列表详情" transform="translate(-744.000000, -48.000000)">
            <g id="报表" transform="translate(744.000000, 48.000000)">
                <circle id="椭圆形" fill="#E5F3F4" cx="32" cy="32" r="32"></circle>
                <path d="M46,16 C47.1045695,16 48,16.8954305 48,18 L48,18 L48,46 C48,47.1045695 47.1045695,48 46,48 L46,48 L18,48 C16.8954305,48 16,47.1045695 16,46 L16,46 L16,18 C16,16.8954305 16.8954305,16 18,16 L18,16 Z M46,18 L18,18 L18,46 L46,46 L46,18 Z M23.5,38 C24.0522847,38 24.5,38.4477153 24.5,39 L24.5,43 C24.5,43.5522847 24.0522847,44 23.5,44 L22.5,44 C21.9477153,44 21.5,43.5522847 21.5,43 L21.5,39 C21.5,38.4477153 21.9477153,38 22.5,38 L23.5,38 Z M29.5,32 C30.0522847,32 30.5,32.4477153 30.5,33 L30.5,43 C30.5,43.5522847 30.0522847,44 29.5,44 L28.5,44 C27.9477153,44 27.5,43.5522847 27.5,43 L27.5,33 C27.5,32.4477153 27.9477153,32 28.5,32 L29.5,32 Z M35.5,36 C36.0522847,36 36.5,36.4477153 36.5,37 L36.5,43 C36.5,43.5522847 36.0522847,44 35.5,44 L34.5,44 C33.9477153,44 33.5,43.5522847 33.5,43 L33.5,37 C33.5,36.4477153 33.9477153,36 34.5,36 L35.5,36 Z M41.5,30 C42.0522847,30 42.5,30.4477153 42.5,31 L42.5,43 C42.5,43.5522847 42.0522847,44 41.5,44 L40.5,44 C39.9477153,44 39.5,43.5522847 39.5,43 L39.5,31 C39.5,30.4477153 39.9477153,30 40.5,30 L41.5,30 Z M41.3082626,21.4106252 C41.7689118,21.5118252 42.1405797,21.8510913 42.2832626,22.3006252 C42.4259455,22.7501592 42.3179664,23.241666 42,23.59 L36,30 C35.7376693,30.2668608 35.3737363,30.4087946 35,30.39 C34.7449036,30.3899603 34.4951186,30.3171064 34.28,30.18 L29,26.67 L23.38,30.11 C22.9834352,30.3565133 22.4854809,30.3727361 22.0737118,30.1525575 C21.6619427,29.932379 21.3989161,29.5092494 21.3837118,29.0425575 C21.3685075,28.5758657 21.6034352,28.1365133 22,27.89 L28.32,24 C28.7475336,23.7297253 29.2924664,23.7297253 29.72,24 L34.8,27.4 L40.05,21.81 C40.3679664,21.461666 40.8476134,21.3094252 41.3082626,21.4106252 Z" fill="#008899" fill-rule="nonzero"></path>
            </g>
        </g>
    </g>
</svg>