<?xml version="1.0" encoding="UTF-8"?>
<svg width="16px" height="16px" viewBox="0 0 16 16" version="1.1" xmlns="http://www.w3.org/2000/svg" xmlns:xlink="http://www.w3.org/1999/xlink">
    <title>部门</title>
    <g id="部门" stroke="none" stroke-width="1" fill="none" fill-rule="evenodd">
        <g id="编组-2" transform="translate(-0.000000, 1.000000)" fill="#B14B78" fill-rule="nonzero">
            <path d="M2.5070655,10.4426658 C3.05935025,10.4426658 3.5070655,10.890381 3.5070655,11.4426658 L3.5070655,13 C3.5070655,13.5522847 3.05935025,14 2.5070655,14 L1,14 C0.44771525,14 -4.33869274e-17,13.5522847 0,13 L0,11.4426658 C-1.78657678e-16,10.890381 0.44771525,10.4426658 1,10.4426658 L2.5070655,10.4426658 Z M8.75353275,10.4426658 C9.3058175,10.4426658 9.75353275,10.890381 9.75353275,11.4426658 L9.75353275,13 C9.75353275,13.5522847 9.3058175,14 8.75353275,14 L7.24646725,14 C6.6941825,14 6.24646725,13.5522847 6.24646725,13 L6.24646725,11.4426658 C6.24646725,10.890381 6.6941825,10.4426658 7.24646725,10.4426658 L8.75353275,10.4426658 Z M15,10.4426658 C15.5522847,10.4426658 16,10.890381 16,11.4426658 L16,13 C16,13.5522847 15.5522847,14 15,14 L13.4929345,14 C12.9406497,14 12.4929345,13.5522847 12.4929345,13 L12.4929345,11.4426658 C12.4929345,10.890381 12.9406497,10.4426658 13.4929345,10.4426658 L15,10.4426658 Z M8.80378581,0 C8.86956319,0.00102779213 8.93503602,0.00918262057 8.99905941,0.0243218891 C9.07076281,0.0423882601 9.14096275,0.0659797985 9.20903103,0.0948853944 C9.27714196,0.124737281 9.34099143,0.16351074 9.39890536,0.210189165 C9.45379019,0.25321687 9.50104465,0.305189723 9.53868647,0.363927525 C9.55909045,0.397564183 9.566054,0.437672887 9.55818383,0.476228593 C9.55272427,0.506387339 9.54407683,0.535879508 9.53238732,0.564207772 C9.47828801,0.686735922 9.4613888,0.822487426 9.48379389,0.954559078 C9.50571317,1.09180233 9.57149374,1.21823187 9.67126854,1.31488336 C9.77238293,1.41680825 9.90772416,1.47748596 10.0510172,1.48513658 C10.195156,1.49683616 10.3398595,1.47086601 10.4709604,1.40976875 C10.5087131,1.3870993 10.5529452,1.37769422 10.5966435,1.3830447 C10.6445132,1.38530212 10.6897019,1.40582465 10.7229264,1.44039632 C10.7988551,1.51853492 10.8574274,1.61185665 10.8948031,1.71424277 C10.9433548,1.83309958 10.9772991,1.95742176 10.9958895,2.08447597 C11.0072451,2.14384807 10.9948577,2.20530974 10.9613941,2.25563001 C10.9357143,2.29048186 10.9013857,2.31801459 10.8618076,2.33550189 C10.7274045,2.38544791 10.6098836,2.47248269 10.5228534,2.58652781 C10.4302583,2.70026792 10.3807549,2.84308331 10.3830723,2.98979073 C10.3805116,3.12705716 10.4226249,3.26143253 10.5030561,3.37263528 C10.5808867,3.48123985 10.6900642,3.56339115 10.8159138,3.60804715 C10.8425761,3.62361897 10.8682242,3.64086914 10.8927034,3.65969363 C10.9382491,3.69768085 10.9712845,3.74854124 10.9874906,3.80562496 L10.9892904,3.79781794 C10.9972989,3.86017205 10.9954769,3.92339826 10.9838911,3.98518656 C10.9707887,4.06257347 10.9492634,4.13829215 10.9196998,4.21098978 C10.8919487,4.28335557 10.8555917,4.35211212 10.8114144,4.41577408 C10.7754586,4.46931861 10.7269526,4.51323569 10.6701335,4.5436892 C10.6289625,4.56659333 10.5830931,4.5797418 10.5360516,4.58212379 C10.4919235,4.58110286 10.4482567,4.57288784 10.4067691,4.5578019 C10.3543524,4.54143283 10.3008194,4.5288887 10.2465908,4.52026812 C10.1815541,4.50947853 10.1153473,4.50766 10.0498174,4.51486326 C9.98218852,4.52107764 9.91553308,4.53528935 9.85124421,4.55720136 C9.78562676,4.57762821 9.72695816,4.61588026 9.68176712,4.66770081 C9.58213855,4.76654644 9.51872869,4.89614237 9.50179145,5.03553185 C9.48457172,5.16958903 9.50536039,5.30579181 9.56178334,5.42858558 C9.60559282,5.51091637 9.59896655,5.61099528 9.54468565,5.68681799 C9.51002028,5.72909142 9.46867985,5.7654032 9.4223022,5.79431473 C9.36367478,5.83260179 9.30197084,5.86594639 9.23782714,5.89400445 C9.17041816,5.92498962 9.10007591,5.94913195 9.02785552,5.96606931 C8.96480201,5.98235854 8.90008447,5.99132561 8.83498159,5.99279336 C8.79409573,5.99209559 8.75494358,5.97614008 8.72519643,5.94805309 C8.69340573,5.92254206 8.6690578,5.88893823 8.65470596,5.85076554 L8.64750693,5.84926418 C8.59895121,5.71523277 8.51547984,5.59663452 8.40573962,5.50575503 C8.29566369,5.4110342 8.15462447,5.36016044 8.00949318,5.3628264 C7.8642854,5.36364912 7.7241217,5.41623835 7.61414662,5.5111599 C7.50228225,5.59915365 7.41702586,5.71651563 7.36787991,5.85016499 C7.34988576,5.89791471 7.31612253,5.93806995 7.27219285,5.96396741 C7.22832923,5.98766708 7.17925717,6 7.12941215,6 C7.06082957,5.99979495 6.99263561,5.98968167 6.92693952,5.96997282 C6.85080479,5.9490665 6.77631302,5.92257094 6.70406965,5.89070148 C6.63261766,5.86091995 6.56470695,5.8232534 6.50159702,5.77840041 C6.44932825,5.74372115 6.40345612,5.7002397 6.36601534,5.64988475 C6.34377143,5.61895371 6.33142909,5.58199304 6.33062013,5.54388935 C6.3332024,5.48410484 6.34930466,5.42568652 6.37771376,5.37303559 C6.42563061,5.26688809 6.44427404,5.1498312 6.43170646,5.0340305 C6.41738888,4.90191794 6.35869392,4.77858376 6.26522897,4.68421567 C6.2073428,4.62069936 6.13111671,4.57682657 6.04715845,4.55870271 C5.96659071,4.54062868 5.88396455,4.53345831 5.80149166,4.53738353 C5.70745088,4.54228678 5.61451243,4.55996439 5.525229,4.58993082 C5.46589108,4.60811477 5.40199355,4.60427695 5.34525333,4.57912109 C5.2888661,4.55472684 5.2419913,4.51254853 5.21177137,4.45901299 C5.16840544,4.39367756 5.13086577,4.32464955 5.09958654,4.25272734 C5.06729513,4.17814769 5.04228214,4.1006176 5.02489663,4.02121899 C5.00839407,3.95724412 5.0039186,3.89075527 5.01169842,3.82514253 C5.01379502,3.74468552 5.06429266,3.67348839 5.13948115,3.64498039 C5.27344988,3.58817022 5.39199724,3.50027401 5.48533439,3.38854961 C5.58357206,3.27969686 5.63806832,3.13828764 5.63831371,2.99159235 C5.63900079,2.84612281 5.58305233,2.70610672 5.4823348,2.60124105 C5.38626426,2.49575869 5.2681896,2.41272351 5.13648155,2.35802216 C5.09277949,2.34136929 5.05770501,2.30766723 5.03929469,2.26463811 C5.01433907,2.21847937 5.00086051,2.1669812 5,2.114503 C5.00087818,2.05116362 5.00933738,1.98815794 5.02519659,1.9268341 C5.0421276,1.85841969 5.06470206,1.79153007 5.09268747,1.72685412 C5.11846117,1.66440251 5.15052231,1.6047412 5.18837454,1.54879387 C5.21921169,1.50103856 5.25954428,1.46015311 5.30685852,1.42868578 C5.33569369,1.40841457 5.37073805,1.39895342 5.40584514,1.40196173 C5.44203048,1.40749298 5.47773274,1.41582545 5.5126307,1.42688416 C5.64037852,1.47842288 5.77960127,1.4947031 5.91577621,1.47402659 C6.05459665,1.45294196 6.18298352,1.38778733 6.2820267,1.28815931 C6.33330253,1.23415236 6.37076338,1.16852796 6.39121194,1.09688717 C6.4332229,0.960995917 6.44790396,0.818115487 6.4344061,0.67650884 C6.42810695,0.616454793 6.42270768,0.572915609 6.41880821,0.547092369 C6.40878024,0.518946893 6.40066286,0.490155511 6.39451149,0.460914811 C6.38822896,0.430567331 6.39180243,0.399004077 6.40471011,0.370833741 C6.43362745,0.304602887 6.4816827,0.248550067 6.54269146,0.209888894 C6.60996841,0.165018441 6.68212173,0.127947405 6.75776239,0.0993894479 C6.83071876,0.0698990786 6.90609046,0.0467919494 6.98303194,0.0303272938 C7.03972005,0.0174348444 7.09743808,0.00959715587 7.15550862,0.00690621541 C7.20524946,0.00441388951 7.2535155,0.0242245707 7.28719082,0.0609548578 C7.31713656,0.0935273009 7.34037625,0.131688043 7.35558158,0.173255926 C7.40649288,0.292898973 7.48663953,0.397806771 7.58865007,0.478330485 C7.69560055,0.566235867 7.83066985,0.612514109 7.96899865,0.608647767 C8.11238292,0.610253883 8.25243853,0.565381228 8.36824468,0.480732647 C8.47990107,0.401218442 8.56474723,0.289578844 8.6115118,0.160644576 C8.63189631,0.121009765 8.65864924,0.0849979055 8.6907011,0.0540486424 C8.71972778,0.0217111315 8.76041552,0.00226450059 8.80378581,0 Z M7.99479517,1.96196572 C7.85762806,1.96118552 7.72182246,1.98921357 7.59614906,2.04423976 C7.07600032,2.26828233 6.83393453,2.87052018 7.05412233,3.39275339 C7.10636821,3.5149535 7.1811651,3.62619544 7.27459252,3.72064849 C7.46698737,3.91385099 7.7291948,4.02105161 8.00169423,4.01791602 L7.99959452,4.02302061 C8.27371759,4.02210842 8.53612235,3.9116329 8.72849599,3.71614443 C8.82183492,3.62088819 8.89633428,3.50881961 8.94806631,3.38584717 C9.16630758,2.86205735 8.91943851,2.26030364 8.39644087,2.04123706 C8.26949284,1.98723794 8.13271802,1.96024319 7.99479517,1.96196572 Z" id="形状结合"></path>
            <polygon id="联合_462" opacity="0.5" points="13.8080841 11.7766661 13.8080841 8.66399867 8.43838319 8.66399867 8.43838319 11.7766661 7.56161681 11.7766661 7.56161681 8.66399867 2.19191594 8.66399867 2.19191594 11.7766661 1.31514956 11.7766661 1.31514956 7.77466511 7.56161681 7.77466511 7.56161681 4.66199767 8.43838319 4.66199767 8.43838319 7.77466511 14.6848504 7.77466511 14.6848504 11.7766661"></polygon>
        </g>
    </g>
</svg>