<?xml version="1.0" standalone="no"?><!DOCTYPE svg PUBLIC "-//W3C//DTD SVG 1.1//EN" "http://www.w3.org/Graphics/SVG/1.1/DTD/svg11.dtd"><svg t="1655888381319" class="icon" viewBox="0 0 1024 1024" version="1.1" xmlns="http://www.w3.org/2000/svg" p-id="6013" xmlns:xlink="http://www.w3.org/1999/xlink" width="200" height="200"><defs><style type="text/css"></style></defs><path d="M917.333227 0c23.573333 0 42.666667 19.221333 42.666666 42.944v938.112A42.816 42.816 0 0 1 917.333227 1024a42.453333 42.453333 0 0 1-19.797334-4.906667l-365.738666-192.810666a42.432 42.432 0 0 0-39.594667 0L126.463893 1019.093333a42.538667 42.538667 0 0 1-57.6-18.133333A43.157333 43.157333 0 0 1 63.999893 981.077333V42.944C63.999893 19.2 83.093227 0 106.66656 0h810.666667zM127.999893 512v433.557333l334.506667-176.32a106.069333 106.069333 0 0 1 94.037333-2.453333l4.949334 2.453333L895.999893 945.557333V512H127.999893z m620.864-298.197333l-2.218666 0.746666-119.808 46.592a15.082667 15.082667 0 0 0-5.418667 24.469334l1.706667 1.536 28.608 22.549333-65.429334 77.013333-164.074666-97.728a26.88 26.88 0 0 0-29.013334 0.106667l-2.346666 1.685333-124.437334 94.165334a26.453333 26.453333 0 0 0-4.586666 37.610666 27.370667 27.370667 0 0 0 36.16 6.293334l2.538666-1.813334 109.696-82.410666 168.661334 100.416c4.544 2.453333 9.6 3.690667 14.762666 3.584 7.146667 0 13.973333-2.773333 19.114667-7.637334l2.090667-2.218666 82.026666-95.936 27.648 21.482666a15.594667 15.594667 0 0 0 24.341334-7.594666l0.554666-2.261334 18.432-123.776a15.338667 15.338667 0 0 0-18.986666-16.853333zM127.999893 170.666667h768V64.426667H127.999893V170.666667z" fill="#D1AF3E" p-id="6014"></path><path d="M127.999893 597.333333h768v85.333334H127.999893z" fill="#D1AF3E" p-id="6015"></path></svg>