<svg xmlns="http://www.w3.org/2000/svg" viewBox="0 0 328.7 66.08"><defs><style>.cls-1{fill:#fff;}</style></defs><title>资源 25</title><g id="图层_2" data-name="图层 2"><g id="图层_1-2" data-name="图层 1"><circle class="cls-1" cx="33.04" cy="33.04" r="11.01" transform="translate(-6.71 8.48) rotate(-13.28)"/><path class="cls-1" d="M55.07,8.42V33A22.08,22.08,0,1,1,44.05,14V1.89a33,33,0,1,0,11,6.53Z"/><path class="cls-1" d="M116.63,38.94A14.74,14.74,0,0,1,91.47,49.36a14.21,14.21,0,0,1-4.32-10.42A14.75,14.75,0,0,1,101.89,24.2a14.07,14.07,0,0,1,8.84,2.92V12.41h5.9Zm-14.74-8.85a8.86,8.86,0,0,0-8.84,8.85,8.84,8.84,0,1,0,15.09-6.25A8.52,8.52,0,0,0,101.89,30.09Z"/><path class="cls-1" d="M146.08,50.76A14.76,14.76,0,0,1,122.5,38.94a14.74,14.74,0,0,1,29.48,0V53.67h-5.9Zm-8.84-20.67a8.86,8.86,0,0,0-8.84,8.85,8.84,8.84,0,1,0,15.09-6.25A8.52,8.52,0,0,0,137.24,30.09Z"/><path class="cls-1" d="M157.9,12.41h5.89V24.2h8.84v5.89h-8.84v8.85a8.84,8.84,0,0,0,8.84,8.84v5.89A14.72,14.72,0,0,1,157.9,38.94Z"/><path class="cls-1" d="M252.13,38.94A8.86,8.86,0,0,0,261,47.78v5.89a14.72,14.72,0,0,1-14.73-14.73V12.41h5.89Z"/><path class="cls-1" d="M199.16,50.76a14.76,14.76,0,0,1-23.58-11.82,14.74,14.74,0,0,1,29.48,0V53.67h-5.9Zm-8.84-20.67a8.86,8.86,0,0,0-8.84,8.85,8.84,8.84,0,1,0,15.09-6.25A8.52,8.52,0,0,0,190.32,30.09Z"/><path class="cls-1" d="M211,12.41h5.9V27.12a14.78,14.78,0,0,1,19.26,1.4,14.19,14.19,0,0,1,4.32,10.42,14.74,14.74,0,0,1-29.48,0Zm8.49,20.28a8.84,8.84,0,0,0,0,12.5,8.84,8.84,0,0,0,15.09-6.25,8.83,8.83,0,0,0-15.09-6.25Z"/><path class="cls-1" d="M287.48,50.76A14.76,14.76,0,0,1,263.9,38.94a14.74,14.74,0,0,1,29.48,0V53.67h-5.9Zm-8.84-20.67a8.88,8.88,0,0,0-8.85,8.85,8.85,8.85,0,1,0,15.1-6.25A8.53,8.53,0,0,0,278.64,30.09Z"/><path class="cls-1" d="M307.71,45.19a8.85,8.85,0,0,0,15.1-6.25V24.2h5.89V38.94a14.74,14.74,0,1,1-29.47,0V24.2h5.89V38.94A8.53,8.53,0,0,0,307.71,45.19Z"/></g></g></svg>