<?xml version="1.0" encoding="UTF-8"?>
<svg width="32px" height="32px" viewBox="0 0 32 32" version="1.1" xmlns="http://www.w3.org/2000/svg" xmlns:xlink="http://www.w3.org/1999/xlink">
    <title>数据模型</title>
    <g id="项目管理-编辑" stroke="none" stroke-width="1" fill="none" fill-rule="evenodd">
        <g id="门户首页2.0" transform="translate(-564.000000, -348.000000)">
            <g id="编组-2" transform="translate(320.000000, 322.000000)">
                <g id="创建数据模型" transform="translate(212.000000, 0.000000)">
                    <g id="数据模型" transform="translate(32.000000, 26.000000)">
                        <path d="M1,0 C0.44771525,-1.01453063e-16 -8.8817842e-16,0.44771525 -8.8817842e-16,1 L-8.8817842e-16,5.85714286 C-8.8817842e-16,6.40942761 0.44771525,6.85714286 1,6.85714286 L1.28571429,6.85714286 C1.83799904,6.85714286 2.28571429,6.40942761 2.28571429,5.85714286 L2.28614286,2.285 L5.85714286,2.28571429 C6.40942761,2.28571429 6.85714286,1.83799904 6.85714286,1.28571429 L6.85714286,1 C6.85714286,0.44771525 6.40942761,1.01453063e-16 5.85714286,0 L1,0 Z M1,32 C0.44771525,32 -8.8817842e-16,31.5522847 -8.8817842e-16,31 L-8.8817842e-16,26.1428571 C-8.8817842e-16,25.5905724 0.44771525,25.1428571 1,25.1428571 L1.28571429,25.1428571 C1.83799904,25.1428571 2.28571429,25.5905724 2.28571429,26.1428571 L2.28614286,29.715 L5.85714286,29.7142857 C6.40942761,29.7142857 6.85714286,30.162001 6.85714286,30.7142857 L6.85714286,31 C6.85714286,31.5522847 6.40942761,32 5.85714286,32 L1,32 Z M31,0 C31.5522847,-1.01453063e-16 32,0.44771525 32,1 L32,5.85714286 C32,6.40942761 31.5522847,6.85714286 31,6.85714286 L30.7142857,6.85714286 C30.162001,6.85714286 29.7142857,6.40942761 29.7142857,5.85714286 L29.7138571,2.285 L26.1428571,2.28571429 C25.5905724,2.28571429 25.1428571,1.83799904 25.1428571,1.28571429 L25.1428571,1 C25.1428571,0.44771525 25.5905724,1.01453063e-16 26.1428571,0 L31,0 Z M31,32 C31.5522847,32 32,31.5522847 32,31 L32,26.1428571 C32,25.5905724 31.5522847,25.1428571 31,25.1428571 L30.7142857,25.1428571 C30.162001,25.1428571 29.7142857,25.5905724 29.7142857,26.1428571 L29.7138571,29.715 L26.1428571,29.7142857 C25.5905724,29.7142857 25.1428571,30.162001 25.1428571,30.7142857 L25.1428571,31 C25.1428571,31.5522847 25.5905724,32 26.1428571,32 L31,32 Z" id="形状结合" fill="#187FFF"></path>
                        <path d="M16.5806494,2.4345455 L27.9907791,8.7362427 C28.3500863,8.93468432 28.5714286,9.30141956 28.5714286,9.6983028 L28.5714286,22.3016972 C28.5714286,22.6985804 28.3500863,23.0653157 27.9907791,23.2637573 L16.5806494,29.5654545 C16.2213423,29.7638961 15.7786577,29.7638961 15.4193506,29.5654545 L4.00922085,23.2637573 C3.64991374,23.0653157 3.42857143,22.6985804 3.42857143,22.3016972 L3.42857143,9.6983028 C3.42857143,9.30141956 3.64991374,8.93468432 4.00922085,8.7362427 L15.4193506,2.4345455 C15.7786577,2.23610388 16.2213423,2.23610388 16.5806494,2.4345455 Z M16,4.72457143 L5.71428571,10.4045714 L5.71428571,21.5931429 L15.9977143,27.2731429 L26.2857143,21.5931429 L26.2857143,10.4045714 L16,4.72457143 Z M24.9918827,10.8534706 C25.3054186,11.4012723 25.1155086,12.0995243 24.5677069,12.4130602 L17.141948,16.6621255 L17.1428571,24 C17.1428571,24.6311826 16.6311826,25.1428571 16,25.1428571 C15.3688174,25.1428571 14.8571429,24.6311826 14.8571429,24 L14.856948,16.6621255 L7.43229312,12.4130602 C6.88449142,12.0995243 6.69458142,11.4012723 7.00811727,10.8534706 C7.32165312,10.3056689 8.01990517,10.1157589 8.56770688,10.4292947 L16,14.6828917 L23.4322931,10.4292947 C23.9800948,10.1157589 24.6783469,10.3056689 24.9918827,10.8534706 Z" id="形状结合" fill="#888888" fill-rule="nonzero"></path>
                    </g>
                </g>
            </g>
        </g>
    </g>
</svg>