<?xml version="1.0" encoding="UTF-8"?>
<svg width="32px" height="32px" viewBox="0 0 32 32" version="1.1" xmlns="http://www.w3.org/2000/svg" xmlns:xlink="http://www.w3.org/1999/xlink">
    <title>开发程序</title>
    <g id="项目管理-编辑" stroke="none" stroke-width="1" fill="none" fill-rule="evenodd">
        <g id="门户首页2.0" transform="translate(-776.000000, -348.000000)">
            <g id="编组-2" transform="translate(320.000000, 322.000000)">
                <g id="创建开发程序" transform="translate(424.000000, 0.000000)">
                    <g id="开发程序" transform="translate(32.000000, 26.000000)">
                        <path d="M32,28.4285714 C32,28.9414073 31.6139598,29.3640786 31.1166211,29.4218437 L31,29.4285714 L5.57142857,29.4285714 C5.01914382,29.4285714 4.57142857,28.9808562 4.57142857,28.4285714 L4.57142857,28.1428571 C4.57142857,27.5905724 5.01914382,27.1428571 5.57142857,27.1428571 L29.7134286,27.1424286 L29.7142857,7.57142857 C29.7142857,7.01914382 30.162001,6.57142857 30.7142857,6.57142857 L31,6.57142857 C31.5522847,6.57142857 32,7.01914382 32,7.57142857 L32,28.4285714 Z" id="形状结合" fill="#187FFF"></path>
                        <path d="M25.1428571,2 C26.4052223,2 27.4285714,3.02334914 27.4285714,4.28571429 L27.4285714,22.5714286 C27.4285714,23.8337937 26.4052223,24.8571429 25.1428571,24.8571429 L2.28571429,24.8571429 C1.02334914,24.8571429 0,23.8337937 0,22.5714286 L0,4.28571429 C0,3.02334914 1.02334914,2 2.28571429,2 L25.1428571,2 Z M2.28571429,22.5714286 L25.1428571,22.5714286 L25.1428571,4.28571429 L2.28571429,4.28571429 L2.28571429,22.5714286 Z" id="矩形" fill="#888888" fill-rule="nonzero"></path>
                        <path d="M8.44568172,9.14592237 C8.83072107,8.76088302 9.45499321,8.76088302 9.84003257,9.14592237 C10.2250719,9.53096173 10.2250719,10.1552339 9.84003257,10.5402732 L6.95173437,13.4285714 L9.84003257,16.3168696 C10.2250719,16.701909 10.2250719,17.3261811 9.84003257,17.7112205 C9.45499321,18.0962598 8.83072107,18.0962598 8.44568172,17.7112205 L4.86020809,14.1257469 C4.47516873,13.7407075 4.47516873,13.1164354 4.86020809,12.731396 L8.44568172,9.14592237 Z M18.9783685,9.14592237 C18.5933291,8.76088302 17.969057,8.76088302 17.5840176,9.14592237 C17.1989783,9.53096173 17.1989783,10.1552339 17.5840176,10.5402732 L20.4723158,13.4285714 L17.5840176,16.3168696 C17.1989783,16.701909 17.1989783,17.3261811 17.5840176,17.7112205 C17.969057,18.0962598 18.5933291,18.0962598 18.9783685,17.7112205 L22.5638421,14.1257469 C22.9488815,13.7407075 22.9488815,13.1164354 22.5638421,12.731396 L18.9783685,9.14592237 Z M16.0610192,9.28545012 C16.5949285,9.53441611 16.8259207,10.1690619 16.5769547,10.7029712 L13.6146019,17.0557572 C13.3656359,17.5896665 12.7309901,17.8206587 12.1970808,17.5716927 C11.6631715,17.3227267 11.4321793,16.6880809 11.6811453,16.1541716 L14.6434981,9.80138561 C14.8924641,9.26747631 15.5271099,9.03648412 16.0610192,9.28545012 Z" id="形状结合" fill="#888888"></path>
                    </g>
                </g>
            </g>
        </g>
    </g>
</svg>