<?xml version="1.0" standalone="no"?><!DOCTYPE svg PUBLIC "-//W3C//DTD SVG 1.1//EN" "http://www.w3.org/Graphics/SVG/1.1/DTD/svg11.dtd"><svg t="1680861872996" class="icon" viewBox="0 0 1024 1024" version="1.1" xmlns="http://www.w3.org/2000/svg" p-id="15017" id="mx_n_1680861872998" xmlns:xlink="http://www.w3.org/1999/xlink" width="200" height="200"><path d="M804.242409 146.633013c40.432838 0 73.124578 32.691741 73.124578 73.124578v731.117831c0 40.368862-32.691741 73.124578-73.124578 73.124578H73.124578A73.124578 73.124578 0 0 1 0 950.875422V219.821567c0-40.432838 32.755717-73.124578 73.124578-73.124578H804.178433z m0 365.494939H73.060602v438.74747h731.245783L804.178433 512.191928zM928.547795 0.383856C981.008122 0.383856 1023.616144 42.927902 1023.616144 95.452205v599.519181a36.530301 36.530301 0 0 1-73.124578 0V95.452205a21.943771 21.943771 0 0 0-21.943771-21.943771H329.028614a36.530301 36.530301 0 0 1 0-73.124578h599.519181zM804.242409 219.821567H73.124578l-0.063976 219.309759h731.181807V219.821567zM552.944646 292.754217a31.988004 31.988004 0 0 1 31.988004 31.988005v9.148569a31.988004 31.988004 0 0 1-31.988004 31.988004H178.237161a31.988004 31.988004 0 0 1-31.988004-31.988004v-9.148569a31.988004 31.988004 0 0 1 31.988004-31.988005h374.707485z m146.249156 0a31.988004 31.988004 0 0 1 31.988005 31.988005v9.148569a31.988004 31.988004 0 0 1-31.988005 31.988004h-9.148569a31.988004 31.988004 0 0 1-31.988004-31.988004v-9.148569a31.988004 31.988004 0 0 1 31.988004-31.988005h9.148569z" fill="#1E6ED2" p-id="15018"></path></svg>