<?xml version="1.0" encoding="UTF-8"?>
<svg width="32px" height="32px" viewBox="0 0 32 32" version="1.1" xmlns="http://www.w3.org/2000/svg" xmlns:xlink="http://www.w3.org/1999/xlink">
    <title>数据同步</title>
    <g id="项目管理-编辑" stroke="none" stroke-width="1" fill="none" fill-rule="evenodd">
        <g id="门户首页2.0" transform="translate(-352.000000, -348.000000)">
            <g id="编组-2" transform="translate(320.000000, 322.000000)">
                <g id="数据同步" transform="translate(32.000000, 26.000000)">
                    <path d="M26.2852117,0 C28.1787232,0 29.7137176,1.53499436 29.7137176,3.42850587 L29.7137176,13.7140235 C29.7137176,14.345194 29.2020528,14.8568588 28.5708823,14.8568588 C27.9397118,14.8568588 27.428047,14.345194 27.428047,13.7140235 L27.428047,3.42850587 C27.428047,2.79733537 26.9163822,2.28567058 26.2852117,2.28567058 L3.42850587,2.28567058 C2.79733537,2.28567058 2.28567058,2.79733537 2.28567058,3.42850587 L2.28567058,28.5708823 C2.28567058,29.2020528 2.79733537,29.7137176 3.42850587,29.7137176 L15.9996941,29.7137176 C16.6308646,29.7137176 17.1425294,30.2253824 17.1425294,30.8565529 C17.1425294,31.4877234 16.6308646,31.9993881 15.9996941,31.9993881 L3.42850587,31.9993881 C1.53499436,31.9993881 0,30.4643938 0,28.5708823 L0,3.42850587 C0,1.53499436 1.53499436,0 3.42850587,0 L26.2852117,0 Z M14.9996941,13.7140235 C15.5519788,13.7140235 15.9996941,14.1617387 15.9996941,14.7140235 L15.9996941,14.9996941 C15.9996941,15.5519788 15.5519788,15.9996941 14.9996941,15.9996941 L7.85701175,15.9996941 C7.304727,15.9996941 6.85701175,15.5519788 6.85701175,14.9996941 L6.85701175,14.7140235 C6.85701175,14.1617387 7.304727,13.7140235 7.85701175,13.7140235 L14.9996941,13.7140235 Z M21.8567058,6.85701175 C22.4089906,6.85701175 22.8567058,7.304727 22.8567058,7.85701175 L22.8567058,8.14268233 C22.8567058,8.69496708 22.4089906,9.14268233 21.8567058,9.14268233 L7.85701175,9.14268233 C7.304727,9.14268233 6.85701175,8.69496708 6.85701175,8.14268233 L6.85701175,7.85701175 C6.85701175,7.304727 7.304727,6.85701175 7.85701175,6.85701175 L21.8567058,6.85701175 Z" id="形状结合" fill="#888888" fill-rule="nonzero"></path>
                    <path d="M23.2655955,18.3048674 L23.3479011,18.3433143 C23.648536,18.4506414 23.8827427,18.6977948 23.9722073,19.0064606 C24.0914259,19.2528199 24.103546,19.5350283 24.0130702,19.786226 L24.0116182,30.9993881 C24.0116182,31.5516729 23.563903,31.9993881 23.0116182,31.9993881 L22.7501545,31.9993881 C22.1978697,31.9993881 21.7501545,31.5516729 21.7501545,30.9993881 L21.7493647,21.878338 L20.0474522,23.3230482 C19.6262462,23.6802652 18.9952098,23.6283918 18.6379928,23.2071858 C18.6357322,23.2045203 18.6334855,23.2018429 18.631253,23.1991538 L18.4552152,22.9871145 C18.105047,22.5653333 18.1597309,21.9402585 18.5778174,21.5856871 L21.8891862,18.7763976 C22.0218421,18.5524803 22.2393636,18.3847708 22.497451,18.3175689 C22.7432227,18.2101518 23.0206851,18.2078281 23.2655955,18.3048674 Z M27.0191573,31.9798588 L26.9368517,31.9414119 C26.6362168,31.8340848 26.4020101,31.5869313 26.3125455,31.2782656 C26.1933269,31.0319063 26.1812068,30.7496979 26.2716826,30.4985002 L26.2731346,19.285338 C26.2731346,18.7330533 26.7208499,18.285338 27.2731346,18.285338 L27.5345983,18.285338 C28.0868831,18.285338 28.5345983,18.7330533 28.5345983,19.285338 L28.5353881,28.4063881 L30.2373006,26.961678 C30.6585066,26.604461 31.289543,26.6563344 31.64676,27.0775403 C31.6490206,27.0802059 31.6512673,27.0828833 31.6534998,27.0855724 L31.8295376,27.2976117 C32.1797058,27.7193929 32.1250219,28.3444677 31.7069354,28.6990391 L28.3955666,31.5083286 C28.2629107,31.7322459 28.0453892,31.8999554 27.7873018,31.9671573 C27.5415301,32.0745744 27.2640677,32.0768981 27.0191573,31.9798588 Z" id="形状结合" fill="#187FFF"></path>
                </g>
            </g>
        </g>
    </g>
</svg>