<?xml version="1.0" encoding="UTF-8"?>
<svg width="32px" height="32px" viewBox="0 0 32 32" version="1.1" xmlns="http://www.w3.org/2000/svg" xmlns:xlink="http://www.w3.org/1999/xlink">
    <title>工作流</title>
    <g id="项目管理-编辑" stroke="none" stroke-width="1" fill="none" fill-rule="evenodd">
        <g id="门户首页2.0" transform="translate(-988.000000, -348.000000)">
            <g id="编组-2" transform="translate(320.000000, 322.000000)">
                <g id="创建工作流" transform="translate(636.000000, 0.000000)">
                    <g id="工作流" transform="translate(32.000000, 26.000000)">
                        <path d="M11.7679618,16 C12.3202465,16 12.7679618,16.4477153 12.7679618,17 L12.7679618,17.2857143 C12.7679618,17.837999 12.3202465,18.2857143 11.7679618,18.2857143 L2.285,18.2857143 L2.285,27.4277143 L8.14285714,27.4285714 C8.69514189,27.4285714 9.14285714,27.8762867 9.14285714,28.4285714 L9.14285714,28.7142857 C9.14285714,29.2665705 8.69514189,29.7142857 8.14285714,29.7142857 L1,29.7142857 C0.44771525,29.7142857 5.11724585e-16,29.2665705 0,28.7142857 L0,17 C-6.76353751e-17,16.4477153 0.44771525,16 1,16 L11.7679618,16 Z M31,2.28571429 C31.5522847,2.28571429 32,2.73342954 32,3.28571429 L31.9998557,14.6971242 C31.9999518,14.7028332 32,14.7085538 32,14.7142857 L32,15 C32,15.5522847 31.5522847,16 31,16 L19.8446568,16 C19.2923721,16 18.8446568,15.5522847 18.8446568,15 L18.8446568,14.7142857 C18.8446568,14.162001 19.2923721,13.7142857 19.8446568,13.7142857 L29.714,13.7137143 L29.714,4.57071429 L23.8571429,4.57142857 C23.3048581,4.57142857 22.8571429,4.12371332 22.8571429,3.57142857 L22.8571429,3.28571429 C22.8571429,2.73342954 23.3048581,2.28571429 23.8571429,2.28571429 L31,2.28571429 Z" id="形状结合" fill="#187FFF"></path>
                        <path d="M21.0210266,14.3263245 C21.9453721,15.2506699 21.9453721,16.7493301 21.0210266,17.6736755 L17.6736755,21.0210266 C16.7493301,21.9453721 15.2506699,21.9453721 14.3263245,21.0210266 L10.9789734,17.6736755 C10.0546279,16.7493301 10.0546279,15.2506699 10.9789734,14.3263245 L14.3263245,10.9789734 C15.2506699,10.0546279 16.7493301,10.0546279 17.6736755,10.9789734 L21.0210266,14.3263245 Z M19.3473511,16 L16,12.6526489 L12.6526489,16 L16,19.3473511 L19.3473511,16 Z M22.8571429,0 C24.119508,0 25.1428571,1.02334914 25.1428571,2.28571429 L25.1428571,4.57142857 C25.1428571,5.83379371 24.119508,6.85714286 22.8571429,6.85714286 L9.14285714,6.85714286 C7.880492,6.85714286 6.85714286,5.83379371 6.85714286,4.57142857 L6.85714286,2.28571429 C6.85714286,1.02334914 7.880492,0 9.14285714,0 L22.8571429,0 Z M22.8571429,2.28571429 L9.14285714,2.28571429 L9.14285714,4.57142857 L22.8571429,4.57142857 L22.8571429,2.28571429 Z M22.8571429,25.1428571 C24.119508,25.1428571 25.1428571,26.1662063 25.1428571,27.4285714 L25.1428571,29.7142857 C25.1428571,30.9766509 24.119508,32 22.8571429,32 L9.14285714,32 C7.880492,32 6.85714286,30.9766509 6.85714286,29.7142857 L6.85714286,27.4285714 C6.85714286,26.1662063 7.880492,25.1428571 9.14285714,25.1428571 L22.8571429,25.1428571 Z M22.8571429,27.4285714 L9.14285714,27.4285714 L9.14285714,29.7142857 L22.8571429,29.7142857 L22.8571429,27.4285714 Z" id="形状结合" fill="#888888" fill-rule="nonzero"></path>
                    </g>
                </g>
            </g>
        </g>
    </g>
</svg>