<svg xmlns="http://www.w3.org/2000/svg" width="19.306" height="19.306" viewBox="0 0 19.306 19.306"><path d="M11.367,1.285c-5.331,0-9.653,1.351-9.653,3.017V6.715c0,1.666,4.322,3.017,9.653,3.017S21.02,8.381,21.02,6.715V4.3c0-1.666-4.322-3.017-9.653-3.017Zm0,10.256c-5.331,0-9.653-1.351-9.653-3.017v3.62c0,1.666,4.322,3.017,9.653,3.017s9.653-1.351,9.653-3.017V8.525c0,1.666-4.322,3.017-9.653,3.017Zm0,5.43c-5.331,0-9.653-1.351-9.653-3.017v3.62c0,1.666,4.322,3.017,9.653,3.017s9.653-1.351,9.653-3.017v-3.62c0,1.666-4.322,3.017-9.653,3.017Z" transform="translate(-1.714 -1.285)" fill="lightGrey"/></svg>
