<svg xmlns="http://www.w3.org/2000/svg" width="17" height="17" viewBox="0 0 17 17">
  <g id="tips按钮" transform="translate(-463.893 -338.377)">
    <circle id="椭圆_1713" data-name="椭圆 1713" cx="8" cy="8" r="8" transform="translate(464.393 338.877)" fill="none" stroke="#888f9d" stroke-width="1"/>
    <g id="组_2685" data-name="组 2685" transform="translate(0.188 -0.035)">
      <path id="路径_3407" data-name="路径 3407" d="M474.314,342.6a2.349,2.349,0,0,1,.78,1.859,2.511,2.511,0,0,1-.494,1.586,13.639,13.639,0,0,1-1.092,1.014,2.167,2.167,0,0,0-.546.675,1.753,1.753,0,0,0-.208.859v.22h-1.391v-.22a2.583,2.583,0,0,1,.26-1.236,6.453,6.453,0,0,1,1.469-1.611l.22-.247a1.519,1.519,0,0,0,.365-.949,1.485,1.485,0,0,0-.377-1.067,1.512,1.512,0,0,0-1.1-.389,1.437,1.437,0,0,0-1.274.558,2.177,2.177,0,0,0-.351,1.326H469.2a2.85,2.85,0,0,1,3.081-3.068A2.909,2.909,0,0,1,474.314,342.6Z" fill="#888f9d"/>
      <path id="路径_3408" data-name="路径 3408" d="M472.741,349.778a.863.863,0,0,1,.273.663.922.922,0,0,1-.286.676.976.976,0,0,1-.676.26.936.936,0,0,1-.677-.273.906.906,0,0,1-.272-.663.865.865,0,0,1,.272-.663,1.027,1.027,0,0,1,1.366,0Z" fill="#888f9d"/>
    </g>
  </g>
</svg>
