<?xml version="1.0" encoding="UTF-8"?>
<svg width="24px" height="24px" viewBox="0 0 24 24" version="1.1" xmlns="http://www.w3.org/2000/svg" xmlns:xlink="http://www.w3.org/1999/xlink">
    <title>数据审批人</title>
    <g id="dam-icon" stroke="none" stroke-width="1" fill="none" fill-rule="evenodd">
        <g id="资产icon" transform="translate(-1292.000000, -784.000000)" fill="#409EFF">
            <g id="数据审批人" transform="translate(1292.000000, 784.000000)">
                <circle id="椭圆形" opacity="0.1" cx="12" cy="12" r="12"></circle>
                <g id="编组-44" transform="translate(5.000000, 5.000000)">
                    <path d="M6,5 L8,5 L8,8 L6,8 Z M2,12 L12,12 L12,13 C12,13.5522847 11.5522847,14 11,14 L3,14 C2.44771525,14 2,13.5522847 2,13 L2,12 L2,12 Z" id="形状结合" opacity="0.5"></path>
                    <path d="M1.5,8 L12.5,8 C13.3284271,8 14,8.67157288 14,9.5 L14,11 L14,11 L0,11 L0,9.5 C-1.01453063e-16,8.67157288 0.671572875,8 1.5,8 Z M7,6 C8.65685425,6 10,4.65685425 10,3 C10,1.34314575 8.65685425,0 7,0 C5.34314575,0 4,1.34314575 4,3 C4,4.65685425 5.34314575,6 7,6 Z" id="形状结合"></path>
                </g>
            </g>
        </g>
    </g>
</svg>