<?xml version="1.0" encoding="UTF-8"?>
<svg width="24px" height="24px" viewBox="0 0 24 24" version="1.1" xmlns="http://www.w3.org/2000/svg" xmlns:xlink="http://www.w3.org/1999/xlink">
    <title>icon/目录管理员</title>
    <g id="设计方案（6.2）" stroke="none" stroke-width="1" fill="none" fill-rule="evenodd">
        <g id="1、资产浏览-选择目录" transform="translate(-780.000000, -289.000000)" fill-rule="nonzero">
            <g id="Content" transform="translate(289.000000, 50.000000)">
                <g id="数据展示" transform="translate(21.000000, 178.000000)">
                    <g id="属性" transform="translate(50.000000, 56.000000)">
                        <g id="目录管理员" transform="translate(420.000000, 0.000000)">
                            <g id="icon/目录管理员" transform="translate(0.000000, 5.000000)">
                                <circle id="椭圆_1617-4" fill="#EDF3FF" cx="12" cy="12" r="12"></circle>
                                <g id="管理员" transform="translate(6.000000, 5.000000)">
                                    <path d="M5.82834331,7.2271457 C7.63093019,7.2271457 9.09221556,5.06645912 9.09221556,3.26387225 C9.09221556,1.46128537 7.63093019,0 5.82834331,0 C4.02575644,0 2.56447106,1.46128537 2.56447106,3.26387225 C2.56447106,5.06645912 4.02575644,7.2271457 5.82834331,7.2271457 Z" id="路径" fill="#A0BBF9"></path>
                                    <path d="M0,11.4267863 C0,10.5448725 0.639696875,9.51077231 1.42885119,9.11703481 L2.88038095,8.39281436 L3.97986717,12.1854379 C3.97986717,12.1854379 4.01061864,12.5136143 4.56026358,12.5136143 C5.10990853,12.5136143 5.10990853,12.1854379 5.10990853,12.1854379 L5.10990853,9.09221556 C5.10990853,9.09221556 5.1348507,8.39281436 5.85152334,8.39281436 C6.56819598,8.39281436 6.56819598,9.09221556 6.56819598,9.09221556 L6.56819598,12.1854379 C6.56819598,12.1854379 6.75557719,12.5741762 7.19956889,12.5741762 C7.64356063,12.5741762 7.69713452,12.1854379 7.69713452,12.1854379 L8.77359581,8.39281436 L10.227547,9.11756109 C11.016839,9.51099717 11.6566866,10.5447402 11.6566866,11.4267863 L11.6566866,12.3911778 C11.6566866,13.2730916 10.9417799,13.9880239 10.0599347,13.9880239 L1.59675189,13.9880239 C0.714890172,13.9880239 0,13.2732238 0,12.3911778 L0,11.4267863 Z" id="路径" fill="#2E69F0"></path>
                                </g>
                            </g>
                        </g>
                    </g>
                </g>
            </g>
        </g>
    </g>
</svg>