<?xml version="1.0" encoding="UTF-8"?>
<svg width="24px" height="24px" viewBox="0 0 24 24" version="1.1" xmlns="http://www.w3.org/2000/svg" xmlns:xlink="http://www.w3.org/1999/xlink">
    <title>重要程度</title>
    <g id="dam-icon" stroke="none" stroke-width="1" fill="none" fill-rule="evenodd">
        <g id="资产icon" transform="translate(-1489.000000, -430.000000)" fill="#409EFF">
            <g id="重要程度" transform="translate(1489.000000, 430.000000)">
                <circle id="椭圆形" opacity="0.1" cx="12" cy="12" r="12"></circle>
                <g id="编组-8" transform="translate(5.000000, 4.000000)">
                    <path d="M3,13 L11,13 C12.1045695,13 13,13.8954305 13,15 L13,15 L13,15 L1,15 C1,13.8954305 1.8954305,13 3,13 Z" id="矩形"></path>
                    <path d="M7,4 C8.65685425,4 10,5.34314575 10,7 L10,12 L10,12 L4,12 L4,7 C4,5.34314575 5.34314575,4 7,4 Z" id="矩形备份-28"></path>
                    <path d="M7,0 C7.55228475,-1.01453063e-16 8,0.44771525 8,1 L8,3 L8,3 L6,3 L6,1 C6,0.44771525 6.44771525,1.01453063e-16 7,0 Z" id="矩形备份-29" opacity="0.5"></path>
                    <path d="M11,6 L13,6 C13.5522847,6 14,6.44771525 14,7 C14,7.55228475 13.5522847,8 13,8 L11,8 L11,8 L11,6 Z" id="矩形备份-30" opacity="0.5"></path>
                    <path d="M10,2 L12,2 C12.5522847,2 13,2.44771525 13,3 C13,3.55228475 12.5522847,4 12,4 L10,4 L10,4 L10,2 Z" id="矩形备份-32" opacity="0.5" transform="translate(11.500000, 3.000000) scale(1, -1) rotate(45.000000) translate(-11.500000, -3.000000) "></path>
                    <path d="M2,2 L4,2 L4,2 L4,4 L2,4 C1.44771525,4 1,3.55228475 1,3 C1,2.44771525 1.44771525,2 2,2 Z" id="矩形备份-33" opacity="0.5" transform="translate(2.500000, 3.000000) rotate(45.000000) translate(-2.500000, -3.000000) "></path>
                    <path d="M1,6 L3,6 L3,6 L3,8 L1,8 C0.44771525,8 -2.65431532e-16,7.55228475 0,7 C-6.76353751e-17,6.44771525 0.44771525,6 1,6 Z" id="矩形备份-31" opacity="0.5"></path>
                </g>
            </g>
        </g>
    </g>
</svg>