<?xml version="1.0" encoding="UTF-8"?>
<svg width="24px" height="24px" viewBox="0 0 24 24" version="1.1" xmlns="http://www.w3.org/2000/svg" xmlns:xlink="http://www.w3.org/1999/xlink">
    <title>影响范围</title>
    <g id="dam-icon" stroke="none" stroke-width="1" fill="none" fill-rule="evenodd">
        <g id="资产icon" transform="translate(-1489.000000, -396.000000)" fill="#409EFF">
            <g id="影响范围" transform="translate(1489.000000, 396.000000)">
                <circle id="椭圆形" opacity="0.1" cx="12" cy="12" r="12"></circle>
                <g id="编组-14" transform="translate(4.000000, 4.000000)">
                    <path d="M7.5316352,0 L7.5316352,7.53037781 L1.01013671,11.2955667 C0.24631687,9.97259194 -0.0704397189,8.51418497 0.012993168,7.09528112 L0.0369510283,6.79247972 L0.0503759847,6.66756916 C0.17041548,5.61374636 0.507987277,4.62635645 1.01695603,3.75093177 C1.55359337,2.82388805 2.29432,2.00102283 3.21924002,1.35652586 C4.44059335,0.501554527 5.92754211,0 7.5316352,0 Z" id="路径"></path>
                    <path d="M15.9500272,8.43035998 C15.8324125,9.41155151 15.5185456,10.3855955 14.9931735,11.2955667 L12.9889542,10.138 Z M15.8578363,6.05696944 C15.8976329,6.25773209 15.9294474,6.46137902 15.9529342,6.66756916 L15.9903171,7.09528112 C15.9946103,7.16829333 15.9978438,7.24141013 16.0000114,7.31460769 L12.0479542,9.595 L10.8879542,8.925 Z M15.1469491,4.0417594 C15.3265615,4.38473621 15.4805131,4.74327372 15.6062452,5.11484646 L9.94695418,8.382 L8.78695418,7.712 Z M13.9158073,2.32485499 C14.1892397,2.61056642 14.4373867,2.91527443 14.6593058,3.2354641 L8.47095418,6.808 L8.47095418,5.469 Z M12.1153639,0.938773182 C12.3459527,1.06653959 12.5691245,1.20605964 12.7840702,1.35652586 C12.9232364,1.45349879 13.0582327,1.55450981 13.1889911,1.65930621 L8.47095418,4.382 L8.47095418,3.044 Z M8.47167504,0 C9.38310009,0 10.2567067,0.161920168 11.0652641,0.458587364 L8.47095418,1.956 Z" id="形状结合" opacity="0.8"></path>
                    <path d="M14.4906199,12.235775 L7.96912145,8.47058611 L1.44762297,12.235775 C2.16052149,13.4705515 3.17031153,14.4270497 4.3347642,15.0671596 L4.64463914,15.2277037 L4.97570606,15.380951 C5.94836312,15.8039051 6.97225376,16.0052543 7.98487815,16.0022213 C9.05604023,16.0009671 10.1390257,15.7709116 11.1596365,15.2921559 C12.5107401,14.6619185 13.6885734,13.6249604 14.4906199,12.235775 Z" id="路径" opacity="0.5"></path>
                </g>
            </g>
        </g>
    </g>
</svg>