<?xml version="1.0" encoding="UTF-8"?>
<svg width="24px" height="24px" viewBox="0 0 24 24" version="1.1" xmlns="http://www.w3.org/2000/svg" xmlns:xlink="http://www.w3.org/1999/xlink">
    <title>法规</title>
    <g id="dam-icon" stroke="none" stroke-width="1" fill="none" fill-rule="evenodd">
        <g id="资产icon" transform="translate(-1489.000000, -608.000000)" fill="#409EFF">
            <g id="法规" transform="translate(1489.000000, 608.000000)">
                <circle id="椭圆形" opacity="0.1" cx="12" cy="12" r="12"></circle>
                <path d="M12,4 C12.5522847,4 13,4.44771525 13,5 L12.9991463,5.57634985 C13.0083713,5.58043238 13.017657,5.58456051 13.0270046,5.58873425 L13.2055516,5.67037012 C13.3192837,5.72342953 13.4397143,5.78159309 13.5784265,5.8503074 L14.6143387,6.37497583 C14.7772652,6.45722562 14.9205276,6.52855788 15.0567678,6.59505396 L15.4761119,6.79399631 C16.2056188,7.12898725 16.7187531,7.3 17.0109863,7.3 C17.9156564,7.3 18.3743049,6.95981201 19.4459818,5.57214044 C19.6822821,5.26616462 20.1218837,5.20968146 20.4278596,5.44598177 C20.7338354,5.68228208 20.7903185,6.12188374 20.5540182,6.42785956 L20.2229403,6.84620559 C19.1015644,8.2233699 18.3431238,8.7 17.0109863,8.7 C16.4220624,8.7 15.7153305,8.45839614 14.702413,7.97820911 L14.2976752,7.7819287 L12.9999074,7.134 L13,18 L14,18 C15.0543618,18 15.9181651,18.8158778 15.9945143,19.8507377 L16,20 L8,20 C8,18.8954305 8.8954305,18 10,18 L11,18 L10.9999074,7.135 L10.1260658,7.61282182 C9.61504723,7.89432685 9.2277958,8.0910328 8.83891746,8.25712961 C8.16624053,8.5444418 7.56780009,8.7 7,8.7 C5.57057694,8.7 4.36181415,7.89415814 3.40700384,6.37196176 C3.20157503,6.04445903 3.3005355,5.61243265 3.62803824,5.40700384 C3.95554097,5.20157503 4.38756735,5.3005355 4.59299616,5.62803824 C5.31087465,6.77250852 6.10211186,7.3 7,7.3 C7.34866107,7.3 7.77509424,7.18915325 8.28901213,6.96964985 C8.57003487,6.84962007 8.86040759,6.70591021 9.22348347,6.51035236 L10.4368522,5.84264857 C10.5390238,5.7884986 10.632297,5.7405808 10.7227144,5.69589118 C10.8198128,5.64789939 10.9125064,5.60419541 11.0015045,5.5648164 L11,5 C11,4.44771525 11.4477153,4 12,4 Z" id="形状结合"></path>
                <path d="M7.00790607,8 L9.6760581,14.2048659 C9.79319073,14.4818575 9.88035451,14.6903545 9.93754945,14.8303571 C10.3522127,15.8453762 8.62590343,17 7.00790607,17 C5.3899087,17 3.60190954,16.0357143 4.07826268,14.8303571 L4.37319176,14.1108327 C4.84461117,12.9833728 5.72284928,10.9464286 7.00790607,8 Z M7,10 L5.18023682,14.4404907 L8.84173584,14.4404907 L7,10 Z" id="形状" opacity="0.7"></path>
                <path d="M17.0079061,8 L19.6760581,14.2048659 C19.7931907,14.4818575 19.8803545,14.6903545 19.9375494,14.8303571 C20.3522127,15.8453762 18.6259034,17 17.0079061,17 C15.3899087,17 13.6019095,16.0357143 14.0782627,14.8303571 L14.3731918,14.1108327 C14.8446112,12.9833728 15.7228493,10.9464286 17.0079061,8 Z M17,10 L15.1802368,14.4404907 L18.8417358,14.4404907 L17,10 Z" id="形状备份" opacity="0.7"></path>
            </g>
        </g>
    </g>
</svg>