<?xml version="1.0" encoding="UTF-8"?>
<svg width="24px" height="24px" viewBox="0 0 24 24" version="1.1" xmlns="http://www.w3.org/2000/svg" xmlns:xlink="http://www.w3.org/1999/xlink">
    <title>技术部门</title>
    <g id="dam-icon" stroke="none" stroke-width="1" fill="none" fill-rule="evenodd">
        <g id="资产icon" transform="translate(-1292.000000, -396.000000)" fill="#409EFF">
            <g id="技术部门" transform="translate(1292.000000, 396.000000)">
                <circle id="椭圆形" opacity="0.1" cx="12" cy="12" r="12"></circle>
                <g id="编组-4" transform="translate(4.870584, 4.000000)">
                    <circle id="椭圆形" cx="7.12941559" cy="8" r="3"></circle>
                    <path d="M2.79928857,10.5 C3.09654771,11.0148679 3.0538819,11.6327119 2.74092392,12.0936587 C4.60222149,14.0933731 7.66154988,14.6209754 10.1294156,13.1961524 C10.3685619,13.0580812 10.6743571,13.1400188 10.8124283,13.3791651 C10.9504995,13.6183114 10.8685619,13.9241066 10.6294156,14.0621778 C7.71462238,15.7450345 4.09261165,15.0933578 1.9285111,12.6872921 C1.27825482,12.8823869 0.555587109,12.6137951 0.201212357,12 C-0.213001205,11.2825611 0.0328115277,10.3651755 0.750250463,9.95096189 C1.4676894,9.53674833 2.38507501,9.78256106 2.79928857,10.5 Z M10.6294156,1.93782217 C13.5442088,3.62067882 14.7908456,7.08327044 13.7891819,10.1604693 C14.2832671,10.6260604 14.4119936,11.3862049 14.0576188,12 C13.6434053,12.7174389 12.7260196,12.9632517 12.0085807,12.5490381 C11.2911418,12.1348245 11.045329,11.2174389 11.4595426,10.5 C11.7568018,9.98513206 12.3132032,9.71315977 12.8688738,9.75371593 C13.6700285,7.14192776 12.5972813,4.22867051 10.1294156,2.80384758 C9.89026928,2.66577639 9.8083317,2.35998119 9.94640289,2.12083488 C10.0844741,1.88168856 10.3902693,1.79975099 10.6294156,1.93782217 Z M7.12941559,0 C7.95784271,0 8.62941559,0.671572875 8.62941559,1.5 C8.62941559,2.32842712 7.95784271,3 7.12941559,3 C6.5348973,3 6.02116166,2.65412835 5.77844901,2.15262539 C3.11599677,2.76469918 1.12941559,5.15035414 1.12941559,8 C1.12941559,8.27614237 0.905557962,8.5 0.629415587,8.5 C0.353273213,8.5 0.129415587,8.27614237 0.129415587,8 C0.129415587,4.63428671 2.50478948,1.82337173 5.67055378,1.15223853 C5.82672486,0.491552673 6.42066608,0 7.12941559,0 Z" id="形状" opacity="0.5"></path>
                </g>
            </g>
        </g>
    </g>
</svg>