<?xml version="1.0" encoding="UTF-8"?>
<svg width="24px" height="24px" viewBox="0 0 24 24" version="1.1" xmlns="http://www.w3.org/2000/svg" xmlns:xlink="http://www.w3.org/1999/xlink">
    <title>创建人</title>
    <g id="设计方案" stroke="none" stroke-width="1" fill="none" fill-rule="evenodd">
        <g id="查看/资产目录-摘要信息" transform="translate(-1595.000000, -754.000000)">
            <g id="Content" transform="translate(420.000000, 65.500000)">
                <g id="摘要信息" transform="translate(0.000000, 125.500000)">
                    <g id="右侧属性" transform="translate(1161.000000, 44.000000)">
                        <g id="编组-3" transform="translate(0.000000, 484.000000)">
                            <g id="组_3880-6备份-2" transform="translate(0.000000, 30.000000)">
                                <g id="创建人" transform="translate(14.000000, 5.000000)">
                                    <circle id="椭圆_1617-3" fill="#EDF3FF" fill-rule="nonzero" cx="12" cy="12" r="12"></circle>
                                    <path d="M13.5088421,5.53915802 C16.9481458,6.02708138 19.4937749,8.98757275 19.4608421,12.461158 C19.4608421,16.3271512 16.3268353,19.4611579 12.4608421,19.4611579 C8.59484893,19.4611579 5.46084212,16.3271512 5.46084212,12.461158" id="路径_4239" stroke="#2E69F0" stroke-width="2" stroke-linecap="round" transform="translate(12.461000, 12.500158) rotate(90.000000) translate(-12.461000, -12.500158) "></path>
                                    <path d="M12.5,5.5 C16.3659932,5.5 19.5,8.63400675 19.5,12.5 C19.5,16.3659932 16.3659932,19.5 12.5,19.5 C8.63400675,19.5 5.5,16.3659932 5.5,12.5 C5.5,8.63400675 8.63400675,5.5 12.5,5.5 Z" id="路径_4240" stroke="#2E69F0" stroke-width="2" stroke-linecap="round" stroke-dasharray="3"></path>
                                    <path d="M12.6153846,11.6923077 C13.6349872,11.6923077 14.4615385,10.8657565 14.4615385,9.84615385 C14.4615385,8.82655123 13.6349872,8 12.6153846,8 C11.595782,8 10.7692308,8.82655123 10.7692308,9.84615385 L10.7692308,9.84615385 C10.7692308,10.8657565 11.595782,11.6923077 12.6153846,11.6923077 L12.6153846,11.6923077 Z" id="路径_4228" fill="#A0BBF9" fill-rule="nonzero"></path>
                                    <path d="M11.3846154,12.3076923 L13.8461538,12.3076923 C14.8657565,12.3076923 15.6923077,13.1342435 15.6923077,14.1538462 L15.6923077,15.3846154 C15.6923077,15.7244829 15.4167906,16 15.0769231,16 L10.1538462,16 C9.81397862,16 9.53846154,15.7244829 9.53846154,15.3846154 L9.53846154,14.1538462 C9.53846154,13.1342435 10.3650128,12.3076923 11.3846154,12.3076923 Z" id="矩形_18010" fill="#2E69F0" fill-rule="nonzero"></path>
                                </g>
                            </g>
                        </g>
                    </g>
                </g>
            </g>
        </g>
    </g>
</svg>