<?xml version="1.0" encoding="UTF-8"?>
<svg width="42px" height="48px" viewBox="0 0 42 48" version="1.1" xmlns="http://www.w3.org/2000/svg" xmlns:xlink="http://www.w3.org/1999/xlink">
    <title>标准代码-48</title>
    <g id="dam-icon" stroke="none" stroke-width="1" fill="none" fill-rule="evenodd">
        <g id="资产状态" transform="translate(-1307.000000, -626.000000)" fill="#9D5B8B">
            <g id="编组-27" transform="translate(0.000000, 600.000000)">
                <g id="标准代码-48" transform="translate(1307.000000, 26.000000)">
                    <path d="M40,0 C41.1045695,0 42,0.901156168 42,2.01278864 L42,45.9868013 C42,47.0984337 41.1045695,48 40,48 C39.6767551,48 39.3583266,47.9207399 39.071986,47.7697929 L21.928014,38.732195 C21.3467927,38.425799 20.6532073,38.425799 20.071986,38.732195 L2.92801399,47.7697929 C1.94955149,48.2855981 0.740864903,47.9054684 0.228336929,46.9207493 C0.0783490258,46.6325778 0,46.3121131 0,45.9868013 L0,2.01278864 C0,0.901156168 0.8954305,0 2,0 L40,0 Z M3,24 L3,44.3226122 L18.679965,36.0577075 C20.0565417,35.3320328 21.6852374,35.2938394 23.088353,35.9431273 L23.320035,36.0577075 L39,44.3226122 L39,24 L3,24 Z M29.0087891,11 C28.4710286,11 27.9833984,11.070638 27.5458984,11.2119141 C27.1083984,11.3531901 26.7335612,11.5559896 26.4213867,11.8203125 C26.1092122,12.0846354 25.8653971,12.4047852 25.6899414,12.7807617 C25.5437283,13.0940755 25.4521077,13.438246 25.4150798,13.8132731 L25.3994141,14.0419922 L27.3066406,14.0419922 C27.3203125,13.8277995 27.3693034,13.6352539 27.4536133,13.4643555 C27.5379232,13.293457 27.6507161,13.1476237 27.7919922,13.0268555 C27.9332682,12.9060872 28.101888,12.8126628 28.2978516,12.746582 C28.4938151,12.6805013 28.7125651,12.6474609 28.9541016,12.6474609 C29.195638,12.6474609 29.4132487,12.6782227 29.6069336,12.7397461 C29.8006185,12.8012695 29.9658203,12.8878581 30.1025391,12.9995117 C30.2392578,13.1111654 30.3452148,13.2478841 30.4204102,13.409668 C30.4956055,13.5714518 30.5332031,13.7503255 30.5332031,13.9462891 C30.5332031,14.1468099 30.4956055,14.3302409 30.4204102,14.496582 C30.3452148,14.6629232 30.2381185,14.8053385 30.0991211,14.9238281 C29.9601237,15.0423177 29.7937826,15.1346029 29.6000977,15.2006836 C29.454834,15.2502441 29.2986755,15.2812195 29.1316223,15.2936096 L28.9609375,15.2998047 L27.7578125,15.2998047 L27.7578125,16.8378906 L28.9814453,16.8378906 C29.5374349,16.8378906 29.9737956,16.9620768 30.2905273,17.2104492 C30.6072591,17.4588216 30.765625,17.7994792 30.765625,18.2324219 C30.765625,18.4420573 30.7223307,18.6346029 30.6357422,18.8100586 C30.5491536,18.9855143 30.4295247,19.1359049 30.2768555,19.2612305 C30.1241862,19.386556 29.9407552,19.4833984 29.7265625,19.5517578 C29.5123698,19.6201172 29.2753906,19.6542969 29.015625,19.6542969 C28.7513021,19.6542969 28.5097656,19.6223958 28.2910156,19.5585938 C28.0722656,19.4947917 27.8842773,19.4036458 27.7270508,19.2851562 C27.5698242,19.1666667 27.4444987,19.0242513 27.3510742,18.8579102 C27.2810059,18.7331543 27.2333679,18.5962219 27.2081604,18.447113 L27.1904297,18.2939453 L25.2148438,18.2939453 C25.2376302,18.7587891 25.3435872,19.1803385 25.5327148,19.5585938 C25.7218424,19.936849 25.9816081,20.2604167 26.3120117,20.5292969 C26.6424154,20.7981771 27.0343424,21.0055339 27.487793,21.1513672 C27.9412435,21.2972005 28.4436849,21.3701172 28.9951172,21.3701172 C29.5556641,21.3701172 30.0729167,21.2960612 30.546875,21.1479492 C31.0208333,20.9998372 31.4298503,20.7936198 31.7739258,20.5292969 C32.1180013,20.264974 32.3868815,19.9505208 32.5805664,19.5859375 C32.7742513,19.2213542 32.8710938,18.8225911 32.8710938,18.3896484 C32.8710938,18.0660807 32.8198242,17.7687174 32.7172852,17.4975586 C32.6147461,17.2263997 32.4677734,16.9882812 32.2763672,16.7832031 C32.0849609,16.578125 31.8536784,16.4117839 31.5825195,16.2841797 C31.3655924,16.1820964 31.1275195,16.1091797 30.8683008,16.0654297 L30.6699219,16.0380859 L30.6699219,15.9150391 C30.9433594,15.8603516 31.1928711,15.7646484 31.418457,15.6279297 C31.644043,15.4912109 31.8354492,15.3248698 31.9926758,15.1289062 C32.1499023,14.9329427 32.2718099,14.7107747 32.3583984,14.4624023 C32.444987,14.2140299 32.4882812,13.9462891 32.4882812,13.6591797 C32.4882812,13.2718099 32.4016927,12.9152018 32.2285156,12.5893555 C32.0553385,12.2635091 31.8149414,11.9832357 31.5073242,11.7485352 C31.199707,11.5138346 30.8328451,11.3304036 30.4067383,11.1982422 C29.9806315,11.0660807 29.5146484,11 29.0087891,11 Z M13.6074219,11.2529297 L11.5498047,11.2529297 L9,13.0097656 L9,14.9306641 L11.4199219,13.2626953 L11.5429688,13.2626953 L11.5429688,21.1171875 L13.6074219,21.1171875 L13.6074219,11.2529297 Z M19.8212891,11 C19.2880859,11 18.8004557,11.077474 18.3583984,11.2324219 C17.9163411,11.3873698 17.5380859,11.6061198 17.2236328,11.8886719 C16.9091797,12.171224 16.6642253,12.5084635 16.4887695,12.9003906 C16.3425564,13.2269965 16.2572654,13.5836679 16.2328966,13.9704047 L16.2255859,14.2060547 L16.2255859,14.2402344 L18.1396484,14.2402344 L18.1396484,14.1992188 C18.1396484,13.9713542 18.1783854,13.7628581 18.2558594,13.5737305 C18.3333333,13.3846029 18.4438477,13.222819 18.5874023,13.0883789 C18.730957,12.9539388 18.9007161,12.8491211 19.0966797,12.7739258 C19.2926432,12.6987305 19.5113932,12.6611328 19.7529297,12.6611328 C19.976237,12.6611328 20.1824544,12.6941732 20.371582,12.7602539 C20.5607096,12.8263346 20.7236328,12.9197591 20.8603516,13.0405273 C20.9970703,13.1612956 21.1041667,13.3048503 21.1816406,13.4711914 C21.2591146,13.6375326 21.2978516,13.8186849 21.2978516,14.0146484 C21.2978516,14.1741536 21.2727865,14.3313802 21.2226562,14.4863281 C21.172526,14.641276 21.0825195,14.8133138 20.9526367,15.0024414 C20.8227539,15.191569 20.6450195,15.4080404 20.4194336,15.6518555 C20.2389648,15.8469076 20.0198503,16.0718555 19.7620898,16.3266992 L19.5615234,16.5234375 L16.3417969,19.6748047 L16.3417969,21.1171875 L23.4580078,21.1171875 L23.4580078,19.4013672 L19.1376953,19.4013672 L19.1376953,19.2783203 L21.0244141,17.4804688 C21.4527995,17.0794271 21.8128255,16.7159831 22.1044922,16.3901367 C22.3961589,16.0642904 22.6319987,15.7600911 22.8120117,15.4775391 C22.9920247,15.194987 23.1207682,14.9249674 23.1982422,14.6674805 C23.2757161,14.4099935 23.3144531,14.1468099 23.3144531,13.8779297 C23.3144531,13.4541016 23.2290039,13.0655924 23.0581055,12.7124023 C22.887207,12.3592122 22.6479492,12.0561523 22.340332,11.8032227 C22.0327148,11.550293 21.6647135,11.3531901 21.2363281,11.2119141 C20.8079427,11.070638 20.336263,11 19.8212891,11 Z M3,8 L39,8 L39,3.01918296 L3,3.01918296 L3,8 Z" id="形状结合" fill-rule="nonzero"></path>
                    <rect id="矩形备份-9" opacity="0.7" x="3" y="28" width="36" height="4"></rect>
                </g>
            </g>
        </g>
    </g>
</svg>