<?xml version="1.0" encoding="UTF-8"?>
<svg width="16px" height="16px" viewBox="0 0 16 16" version="1.1" xmlns="http://www.w3.org/2000/svg" xmlns:xlink="http://www.w3.org/1999/xlink">
    <title>用户组</title>
    <g id="用户组" stroke="none" stroke-width="1" fill="none" fill-rule="evenodd">
        <g id="用户" transform="translate(-0.000000, 2.300000)" fill="#D26A57" fill-rule="nonzero">
            <path d="M4.57142857,5.94285714 C5.94259797,5.94285714 7.70044643,6.25731027 8.81841518,7.88264509 C8.1863339,8.66612723 7.96084501,9.13342233 7.85919332,9.54593241 L7.83213017,9.66830328 L7.81080073,9.78895547 L7.79350845,9.90945738 L7.77142857,10.0933594 C7.74356399,10.3377007 7.74033621,10.537503 7.7482927,10.7008487 L7.75753779,10.8321198 C7.75943055,10.8525731 7.76147312,10.8723295 7.76362628,10.8914126 L7.77755856,10.99802 L7.81645463,11.2321952 L7.82217782,11.2854748 C7.8270501,11.3731798 7.79784727,11.4079259 7.68236722,11.4210773 L7.61050792,11.4262977 L7.46651429,11.4285714 L0.762057143,11.4285714 C0.341184604,11.4285714 0,11.0873868 0,10.6665143 L0,10.5142857 C0,7.98955543 2.04669829,5.94285714 4.57142857,5.94285714 Z M4.57142857,6.85714286 C2.58975348,6.85714286 0.976208975,8.43329727 0.916025977,10.4003752 L0.914285714,10.5142857 L6.83017143,10.5142857 L6.83020013,10.4750421 C6.83182394,10.37415 6.83706456,10.2693515 6.84625085,10.1591967 L6.86303064,9.98976607 C6.94828856,9.24214913 7.10481669,8.72814229 7.55311224,8.05259575 L7.65302857,7.90582857 L7.63590077,7.88848095 C6.92116925,7.18985315 5.94735901,6.8830782 4.73140332,6.85872651 L4.57142857,6.85714286 Z M4.57142857,0 C6.08626674,0 7.31428571,1.22801897 7.31428571,2.74285714 C7.31428571,4.25769531 6.08626674,5.48571429 4.57142857,5.48571429 C3.0565904,5.48571429 1.82857143,4.25769531 1.82857143,2.74285714 C1.82857143,1.22801897 3.0565904,0 4.57142857,0 Z" id="形状结合" fill-opacity="0.5"></path>
            <path d="M11.4285714,5.94285714 C13.9533017,5.94285714 16,7.98955543 16,10.5142857 L16,10.6665143 C16,10.8686244 15.9197121,11.0624566 15.7767986,11.2053701 C15.6338852,11.3482835 15.440053,11.4285714 15.2379429,11.4285714 L7.6192,11.4285714 C7.19832746,11.4285714 6.85714286,11.0873868 6.85714286,10.6665143 L6.85714286,10.5142857 C6.85714286,8.03234747 8.8350495,6.01237407 11.3006149,5.94461339 L11.4285714,5.94285714 Z M11.4411192,6.85705675 L11.3257326,6.85855402 C9.38792605,6.9118104 7.83228709,8.47099575 7.77317147,10.4003744 L7.77142857,10.5142857 L15.0857143,10.5142857 C15.0857143,8.53261062 13.5095599,6.91906612 11.542482,6.85888312 L11.4411192,6.85705675 Z M11.4285714,0 C12.9434096,0 14.1714286,1.22801897 14.1714286,2.74285714 C14.1714286,4.25769531 12.9434096,5.48571429 11.4285714,5.48571429 C9.91373326,5.48571429 8.68571429,4.25769531 8.68571429,2.74285714 C8.68571429,1.22801897 9.91373326,0 11.4285714,0 Z" id="形状结合"></path>
        </g>
    </g>
</svg>