<?xml version="1.0" encoding="UTF-8"?>
<svg width="14px" height="14px" viewBox="0 0 14 14" version="1.1" xmlns="http://www.w3.org/2000/svg" xmlns:xlink="http://www.w3.org/1999/xlink">
    <title>已经下线</title>
    <g id="设计方案" stroke="none" stroke-width="1" fill="none" fill-rule="evenodd">
        <path d="M7,0 C10.8659932,0 14,3.13400675 14,7 C14,10.8659932 10.8659932,14 7,14 C3.13400675,14 0,10.8659932 0,7 C0,3.13400675 3.13400675,0 7,0 Z M6.979,9.998 L7.00464127,10 L7.00780736,9.99998967 L7.03002289,9.99934526 L7.056134,9.99759769 C7.16954441,9.98795511 7.2802921,9.93974224 7.36707527,9.85295906 L7.36707527,9.85295906 L9.48839562,7.73163872 L9.54625107,7.66239083 C9.68124712,7.46752269 9.66196197,7.19809829 9.48839562,7.02453194 L9.48839562,7.02453194 L9.41914773,6.96667649 C9.22427959,6.83168043 8.95485519,6.85096558 8.78128883,7.02453194 L8.78128883,7.02453194 L7.482,8.324 L7.45060578,3.46574605 C7.44892479,3.20803167 7.23953178,3 6.98181191,3 C6.72458199,3 6.51605595,3.20852605 6.51605595,3.46575596 L6.51605595,3.46575596 L6.516,8.318 L5.22355339,7.02393684 C5.02829124,6.8286747 4.71170876,6.8286747 4.51644661,7.02393684 C4.32118446,7.21919899 4.32118446,7.53578148 4.51644661,7.73104362 L4.51644661,7.73104362 L6.63776695,9.85236397 C6.71447708,9.9290741 6.8099114,9.9756481 6.90954004,9.99075004 L6.90954004,9.99075004 L6.949,9.996 L6.976,9.998 L6.965,9.998 L7.00464127,10 L6.976,9.998 L6.979,9.998 Z" id="已经下线" fill="#999999" fill-rule="nonzero"></path>
    </g>
</svg>