<?xml version="1.0" encoding="UTF-8"?>
<svg width="16px" height="13px" viewBox="0 0 16 13" version="1.1" xmlns="http://www.w3.org/2000/svg" xmlns:xlink="http://www.w3.org/1999/xlink">
    <title>编组 3</title>
    <g id="设计方案" stroke="none" stroke-width="1" fill="none" fill-rule="evenodd">
        <g id="弹窗备份" transform="translate(-542.000000, -107.000000)" fill="#409A5F">
            <g id="Content" transform="translate(20.000000, 61.000000)">
                <g id="已选择" transform="translate(379.000000, 0.000000)">
                    <g id="人员" transform="translate(11.000000, 40.000000)">
                        <g id="编组备份" transform="translate(122.000000, 0.000000)">
                            <g id="编组-3" transform="translate(10.029489, 6.000000)">
                                <path d="M6.82765379,0 C8.7212015,0 10.2562252,1.53502371 10.2562252,3.42857143 C10.2562252,4.49161576 9.77242581,5.44166268 9.01299653,6.07054265 C11.4254271,6.88034541 13.238694,8.99616644 13.6133661,11.5780357 L13.6430687,11.8106329 L13.6430687,11.8106329 C13.6846102,12.1869832 13.4131942,12.5257514 13.036844,12.567293 C13.0118662,12.5700501 12.9867557,12.5714317 12.9616263,12.5714286 L0.611276202,12.5714286 C0.273677678,12.5714186 -3.63736818e-14,12.2977409 -3.64153152e-14,11.9601424 L0.000714568497,11.9305944 L0.000714568497,11.9305944 L0.00285660336,11.9011154 L0.00285660336,11.9011154 C0.267467695,9.17364212 2.12996482,6.91392143 4.64248849,6.06981281 C3.88288177,5.44166268 3.39908236,4.49161576 3.39908236,3.42857143 C3.39908236,1.53502371 4.93410608,0 6.82765379,0 Z M6.82765379,6.85714286 C4.08699263,6.85714286 1.79696931,8.78655286 1.24178072,11.361176 L1.22879665,11.4285714 L12.4253681,11.4285714 L12.4135269,11.361176 C11.8751622,8.86457174 9.70551119,6.97466928 7.07552764,6.8624223 L6.82765379,6.85714286 Z M6.82765379,1.14285714 C5.56528865,1.14285714 4.5419395,2.16620629 4.5419395,3.42857143 C4.5419395,4.69093657 5.56528865,5.71428571 6.82765379,5.71428571 C8.09001893,5.71428571 9.11336808,4.69093657 9.11336808,3.42857143 C9.11336808,2.16620629 8.09001893,1.14285714 6.82765379,1.14285714 Z" id="形状结合" fill-rule="nonzero"></path>
                                <path d="M15.4705109,4.57142857 C15.7466533,4.57142857 15.9705109,4.7952862 15.9705109,5.07142857 L15.9705109,5.21428571 C15.9705109,5.49042809 15.7466533,5.71428571 15.4705109,5.71428571 L12.4705109,5.71428571 C12.1943686,5.71428571 11.9705109,5.49042809 11.9705109,5.21428571 L11.9705109,5.07142857 C11.9705109,4.7952862 12.1943686,4.57142857 12.4705109,4.57142857 L15.4705109,4.57142857 Z M15.4705109,2.28571429 C15.7466533,2.28571429 15.9705109,2.50957191 15.9705109,2.78571429 L15.9705109,2.92857143 C15.9705109,3.2047138 15.7466533,3.42857143 15.4705109,3.42857143 L11.4705109,3.42857143 C11.1943686,3.42857143 10.9705109,3.2047138 10.9705109,2.92857143 L10.9705109,2.78571429 C10.9705109,2.50957191 11.1943686,2.28571429 11.4705109,2.28571429 L15.4705109,2.28571429 Z M15.4705109,0 C15.7466533,-5.41253928e-16 15.9705109,0.223857625 15.9705109,0.5 L15.9705109,0.642857143 C15.9705109,0.918999518 15.7466533,1.14285714 15.4705109,1.14285714 L10.4705109,1.14285714 C10.1943686,1.14285714 9.97051093,0.918999518 9.97051093,0.642857143 L9.97051093,0.5 C9.97051093,0.223857625 10.1943686,5.07265313e-17 10.4705109,0 L15.4705109,0 Z" id="形状结合"></path>
                            </g>
                        </g>
                    </g>
                </g>
            </g>
        </g>
    </g>
</svg>