<?xml version="1.0" standalone="no"?><!DOCTYPE svg PUBLIC "-//W3C//DTD SVG 1.1//EN" "http://www.w3.org/Graphics/SVG/1.1/DTD/svg11.dtd"><svg t="1655888205915" class="icon" viewBox="0 0 1024 1024" version="1.1" xmlns="http://www.w3.org/2000/svg" p-id="5306" xmlns:xlink="http://www.w3.org/1999/xlink" width="200" height="200"><defs><style type="text/css"></style></defs><path d="M960 0H64a64 64 0 0 0-64 64v896a64 64 0 0 0 64 64h896a64 64 0 0 0 64-64V64a64 64 0 0 0-64-64zM320 960H64v-192h256v192z m0-256H64v-170.666667h256v170.666667z m0-234.666667H64v-170.666666h256v170.666666z m320 490.666667H384v-192h256v192z m0-256H384v-170.666667h256v170.666667z m0-234.666667H384v-170.666666h256v170.666666z m320 490.666667H704v-192h256v192z m0-256H704v-170.666667h256v170.666667z m0-234.666667H704v-170.666666h256v170.666666z" fill="#0095D9" p-id="5307"></path></svg>