<svg id="udp" xmlns="http://www.w3.org/2000/svg" width="24" height="24" viewBox="0 0 24 24">
  <circle id="椭圆_1617" data-name="椭圆 1617" cx="12" cy="12" r="12" fill="#edf3ff"/>
  <path id="矩形_18015" data-name="矩形 18015" d="M555.9,441.67h9.956a1.1,1.1,0,0,1,1.022,1.157v11.685a1.033,1.033,0,0,1-1.481,1.034l-4.06-2.307a.917.917,0,0,0-.918,0l-4.06,2.307a1.033,1.033,0,0,1-1.481-1.034V442.827A1.1,1.1,0,0,1,555.9,441.67Z" transform="translate(-548.873 -436.67)" fill="#2e69f0"/>
  <rect id="矩形_18015-2" data-name="矩形 18015" width="5" height="1.4" rx="0.7" transform="translate(8 8)" fill="#d6e4ff"/>
  <rect id="矩形_18016" data-name="矩形 18016" width="8" height="1.4" rx="0.7" transform="translate(8 11)" fill="#d6e4ff"/>
</svg>
