<?xml version="1.0" encoding="UTF-8"?>
<svg width="48px" height="48px" viewBox="0 0 48 48" version="1.1" xmlns="http://www.w3.org/2000/svg" xmlns:xlink="http://www.w3.org/1999/xlink">
    <title>视图-48</title>
    <g id="dam-icon" stroke="none" stroke-width="1" fill="none" fill-rule="evenodd">
        <g id="资产状态" transform="translate(-616.000000, -626.000000)" fill="#4B5CC4" fill-rule="nonzero">
            <g id="编组-27" transform="translate(0.000000, 600.000000)">
                <path d="M661,26 C662.656854,26 664,27.3431458 664,29 L664,29 L664,71 C664,72.6568542 662.656854,74 661,74 L661,74 L619,74 C617.343146,74 616,72.6568542 616,71 L616,71 L616,29 C616,27.3431458 617.343146,26 619,26 L619,26 Z M661,51.5 L619,51.5 L619,71 L661,71 L661,51.5 Z M632.636715,53.2755319 C632.964112,53.0434638 633.370303,52.9526978 633.764711,53.0234742 C634.15912,53.0942506 634.508946,53.3206836 634.73618,53.6522801 C634.911202,53.9042561 635.005388,54.203978 635.006112,54.511266 C635.005304,55.0043896 634.764467,55.4659198 634.361276,55.747 L634.361276,55.747 L631.287059,57.8718598 C631.137725,57.7742406 630.983979,57.6838046 630.826344,57.6008279 L630.62,57.497 L630.822944,57.6018559 C630.900572,57.6446356 630.976887,57.6898225 631.051777,57.7373552 L631.272063,57.8869297 C631.629254,58.1047991 631.956891,58.3681979 632.246814,58.6705659 C632.855071,59.2812346 633.325584,60.0161709 633.626463,60.8255655 C635.140008,60.2788163 636.728102,59.9687841 638.335264,59.9063 C640.051528,59.9776306 641.748578,60.2973922 643.37398,60.8557054 C643.942333,59.2887201 645.131333,58.0284013 646.658144,57.3745522 C648.153452,56.7381178 649.841643,56.7381178 651.336952,57.3745522 C651.651443,57.4960526 651.948864,57.6581593 652.221727,57.8567898 L652.221727,57.8567898 L652.236723,57.8869297 L656.630604,54.7825247 C656.958,54.5504565 657.364192,54.4596905 657.7586,54.5304669 C658.153008,54.6012433 658.502834,54.8276764 658.730069,55.1592729 C658.90509,55.4112488 658.999276,55.7109708 659,56.0182587 C658.999192,56.5113824 658.758355,56.9729126 658.355164,57.2539928 L658.355164,57.2539928 L654.36618,60.1323489 C655.481786,62.2349511 655.26018,64.8006282 653.800757,66.678624 C652.341335,68.5566198 649.918022,69.3944431 647.617722,68.816314 C645.317423,68.2381849 643.571892,66.3526154 643.164034,64.0053202 C641.64927,63.391327 640.041917,63.039741 638.410245,62.9654952 C636.860821,63.027253 635.335881,63.3746061 633.91139,63.9902503 C633.425532,66.8391468 630.995746,68.9404902 628.120043,68.99876 C625.24434,69.0570298 622.732236,67.0558231 622.132493,64.2289239 C621.53275,61.4020248 623.014197,58.5452094 625.663491,57.419762 C626.242151,57.1621662 626.861477,57.009124 627.493025,56.9676641 C627.561551,56.8809066 627.642394,56.8047429 627.732964,56.7416152 L627.732964,56.7416152 Z M628.002895,59.9063 C626.346463,59.9063 625.003659,61.2557072 625.003659,62.9202854 C625.003659,64.5848636 626.346463,65.9342709 628.002895,65.9342709 C629.659328,65.9342709 631.002131,64.5848636 631.002131,62.9202854 C631.002131,61.2557072 629.659328,59.9063 628.002895,59.9063 Z M648.997548,59.9063 C647.341115,59.9063 645.998312,61.2557072 645.998312,62.9202854 L645.998312,62.9202854 L646.003403,63.09738 C646.094626,64.6795287 647.400274,65.9342709 648.997548,65.9342709 C650.65398,65.9342709 651.996784,64.5848636 651.996784,62.9202854 C651.996784,61.2557072 650.65398,59.9063 648.997548,59.9063 Z M646,39.5 L634,39.5 L634,48.5 L646,48.5 L646,39.5 Z M631,39.5 L619,39.5 L619,48.5 L631,48.5 L631,39.5 Z M661,39.5 L649,39.5 L649,48.5 L661,48.5 L661,39.5 Z" id="视图-48"></path>
            </g>
        </g>
    </g>
</svg>