<?xml version="1.0" encoding="UTF-8"?>
<svg width="64px" height="64px" viewBox="0 0 64 64" version="1.1" xmlns="http://www.w3.org/2000/svg" xmlns:xlink="http://www.w3.org/1999/xlink">
    <title>安全分类</title>
    <g id="icon、颜色" stroke="none" stroke-width="1" fill="none" fill-rule="evenodd">
        <g id="资产状态" transform="translate(-2460.000000, -408.000000)">
            <g id="安全分类" transform="translate(2460.000000, 408.000000)">
                <circle id="椭圆形" fill="#EBF6FA" cx="32" cy="32" r="32"></circle>
                <path d="M32.8002287,16.124495 L44.4535581,19.9663399 C45.3778222,20.2843271 46,21.152292 46,22.1302526 L45.2894155,37.5996282 C45.2894155,38.3435981 44.9273121,39.04157 44.3171377,39.4695527 L33.3763933,47.5832252 C32.586836,48.1389249 31.5331984,48.1389249 30.7436411,47.5832252 L19.546442,39.4695527 C18.984691,39.0741858 18.6330541,38.4493737 18.5824827,37.7703988 L18,22.1302526 C18,21.152292 18.6201773,20.2843271 19.546442,19.9663399 L31.3198057,16.124495 C31.7999429,15.9585017 32.3200915,15.9585017 32.8002287,16.124495 Z M31.9402417,18.0258259 L20.1958411,21.8579743 C20.0773099,21.8986661 20,22.0068504 19.9986142,22.0558132 L20.5761646,37.6003209 C20.5761324,37.6932273 20.6213695,37.7804084 20.7199697,37.8500365 L31.8947461,45.9476956 C31.993834,46.0174348 32.1262004,46.0174348 32.1850455,45.9767725 L43.1686635,37.8321746 C43.2292702,37.7896645 43.2701875,37.7257472 43.2852087,37.6073678 L44,22.1302526 C44,22.0079791 43.9216086,21.8983826 43.827355,21.8657792 L32.146739,18.0147201 C32.0899681,17.9950933 32.0300663,17.9950933 31.9402417,18.0258259 Z M26.2,33.8 C26.8627417,33.8 27.4,34.3372583 27.4,35 C27.4,35.6627417 26.8627417,36.2 26.2,36.2 C25.5372583,36.2 25,35.6627417 25,35 C25,34.3372583 25.5372583,33.8 26.2,33.8 Z M38,34.0027507 C38.5522847,34.0027507 39,34.450466 39,35.0027507 C39,35.5550355 38.5522847,36.0027507 38,36.0027507 L30,36.0027507 C29.4477153,36.0027507 29,35.5550355 29,35.0027507 C29,34.450466 29.4477153,34.0027507 30,34.0027507 L38,34.0027507 Z M26.2,29.8 C26.8627417,29.8 27.4,30.3372583 27.4,31 C27.4,31.6627417 26.8627417,32.2 26.2,32.2 C25.5372583,32.2 25,31.6627417 25,31 C25,30.3372583 25.5372583,29.8 26.2,29.8 Z M38,30.0027507 C38.5522847,30.0027507 39,30.450466 39,31.0027507 C39,31.5550355 38.5522847,32.0027507 38,32.0027507 L30,32.0027507 C29.4477153,32.0027507 29,31.5550355 29,31.0027507 C29,30.450466 29.4477153,30.0027507 30,30.0027507 L38,30.0027507 Z M26.2,25.8 C26.8627417,25.8 27.4,26.3372583 27.4,27 C27.4,27.6627417 26.8627417,28.2 26.2,28.2 C25.5372583,28.2 25,27.6627417 25,27 C25,26.3372583 25.5372583,25.8 26.2,25.8 Z M38,26.0027507 C38.5522847,26.0027507 39,26.450466 39,27.0027507 C39,27.5550355 38.5522847,28.0027507 38,28.0027507 L30,28.0027507 C29.4477153,28.0027507 29,27.5550355 29,27.0027507 C29,26.450466 29.4477153,26.0027507 30,26.0027507 L38,26.0027507 Z" id="形状结合" fill="#37A9D5" fill-rule="nonzero"></path>
            </g>
        </g>
    </g>
</svg>