<?xml version="1.0" encoding="UTF-8"?>
<svg width="64px" height="64px" viewBox="0 0 64 64" version="1.1" xmlns="http://www.w3.org/2000/svg" xmlns:xlink="http://www.w3.org/1999/xlink">
    <title>数据标准</title>
    <g id="元数据-知识图谱" stroke="none" stroke-width="1" fill="none" fill-rule="evenodd">
        <g id="列表详情" transform="translate(-1080.000000, -48.000000)">
            <g id="数据标准" transform="translate(1080.000000, 48.000000)">
                <circle id="椭圆形" fill="#EBF7F3" cx="32" cy="32" r="32"></circle>
                <g id="编组-5" transform="translate(18.000000, 16.000000)" fill="#38B48B">
                    <path d="M26.6666667,0 C27.4030463,0 28,0.600770779 28,1.34185909 L28,30.6578675 C28,31.3989558 27.4030463,32 26.6666667,32 C26.4511701,32 26.2388844,31.9471599 26.0479907,31.8465286 L14.618676,25.8214633 C14.2311951,25.6171993 13.7688049,25.6171993 13.381324,25.8214633 L1.95200933,31.8465286 C1.299701,32.1903988 0.493909936,31.9369789 0.15222462,31.2804995 C0.0522326839,31.0883852 0,30.8747421 0,30.6578675 L0,1.34185909 C0,0.600770779 0.596953667,0 1.33333333,0 L26.6666667,0 Z M2,16 L2,29.5484081 L12.45331,24.0384717 C13.3710278,23.5546885 14.456825,23.5292263 15.3922353,23.9620849 L15.54669,24.0384717 L26,29.5484081 L26,16 L2,16 Z M22.5787365,7.3343332 L18.3436463,7.3343332 L18.3436463,8.24721125 L21.3178164,8.24721125 L18.296612,12.0866983 L18.296612,12.9995764 L22.6257708,12.9995764 L22.6257708,12.0866983 L19.5295115,12.0866983 L22.5787365,8.24721125 L22.5787365,7.3343332 Z M8.00910554,7.33333333 L7.13546805,7.33333333 L4.66666667,12.9995764 L5.80049399,12.9995764 L6.3078642,11.69975 L8.76966047,11.69975 L9.2970453,12.9995764 L10.4498865,12.9995764 L8.00910554,7.33333333 Z M16.675429,9.66702159 L11.3385349,9.66702159 L11.3385349,10.9998435 L16.675429,10.9998435 L16.675429,9.66702159 Z M7.54176451,8.53417291 L8.41640273,10.8398649 L6.65411683,10.8398649 L7.54176451,8.53417291 Z M2,5.33333333 L26,5.33333333 L26,2.01278864 L2,2.01278864 L2,5.33333333 Z" id="形状结合" fill-rule="nonzero"></path>
                    <rect id="矩形备份" opacity="0.7" x="2" y="18.6666667" width="24" height="2.66666667"></rect>
                </g>
            </g>
        </g>
    </g>
</svg>