<svg t="1648540886470" class="icon" viewBox="0 0 1170 1024" version="1.1" xmlns="http://www.w3.org/2000/svg" p-id="5561"
     width="200" height="200">
    <path d="M1024 886.848c0 40.384-32.768 73.152-73.152 73.152H73.152A73.152 73.152 0 0 1 0 886.848V137.152C0 96.768 32.768 64 73.152 64h877.696C991.232 64 1024 96.768 1024 137.152v749.696z m-73.152-457.152H73.088v457.152h877.76V429.696z m0-292.544H73.152L73.088 356.48h877.76V137.152zM256 704a36.544 36.544 0 1 1 0 73.152A36.544 36.544 0 0 1 256 704z m512 0a36.544 36.544 0 0 1 0 73.152H402.304a36.544 36.544 0 1 1 0-73.152H768zM256 539.456A36.544 36.544 0 1 1 256 612.48 36.544 36.544 0 0 1 256 539.52z m512 0a36.544 36.544 0 1 1 0 73.088H402.304a36.544 36.544 0 1 1 0-73.088H768zM182.848 210.304a36.544 36.544 0 1 1 0 73.152 36.544 36.544 0 0 1 0-73.152z m146.304 0a36.544 36.544 0 1 1 0 73.152 36.544 36.544 0 0 1 0-73.152z"
          fill="#ffffff" p-id="5562"></path>
</svg>
