<?xml version="1.0" encoding="UTF-8"?>
<svg width="62px" height="26px" viewBox="0 0 62 26" version="1.1" xmlns="http://www.w3.org/2000/svg" xmlns:xlink="http://www.w3.org/1999/xlink">
    <title>未认证</title>
    <g id="元数据" stroke="none" stroke-width="1" fill="none" fill-rule="evenodd">
        <g id="1.4-数据集/全部元数据-详情（摘要）备份" transform="translate(-973.000000, -137.000000)">
            <g id="表" transform="translate(200.000000, 95.000000)">
                <g id="右边" transform="translate(773.000000, 25.000000)">
                    <g id="未认证" transform="translate(0.000000, 17.000000)">
                        <path d="M12,3 L53.3793103,3 C58.1403858,3 62,7.02943725 62,12 C62,16.9705627 58.1403858,21 53.3793103,21 L12,21 L12,3 Z" id="矩形_17794" fill="#E6E6E6" fill-rule="nonzero"></path>
                        <g transform="translate(22.000000, 6.000000)" fill="#555555" font-family="PingFangSC-Regular, PingFang SC" font-size="10" font-weight="normal" line-spacing="10">
                            <text>
                                <tspan x="0" y="11">未认证</tspan>
                            </text>
                        </g>
                        <g id="徽章">
                            <polygon id="路径_4090" fill="#C8CBD3" fill-rule="nonzero" points="2.6 12 15.6 12 15.6 26 9.342 21.693 2.6 26"></polygon>
                            <polygon id="路径_4089" fill="#AFB4BF" points="9 0 11.422 1.909 14.562 1.719 15.342 4.619 18 6.219 16.839 9 18 11.781 15.342 13.381 14.562 16.281 11.422 16.09 9 17.999 6.578 16.09 3.438 16.281 2.658 13.381 0 11.781 1.161 9 0 6.219 2.658 4.619 3.438 1.719 6.578 1.909"></polygon>
                            <circle id="椭圆_1746" fill="#DADBDE" fill-rule="nonzero" cx="9" cy="9" r="5"></circle>
                        </g>
                    </g>
                </g>
            </g>
        </g>
    </g>
</svg>