<?xml version="1.0" encoding="UTF-8"?>
<svg width="42px" height="48px" viewBox="0 0 42 48" version="1.1" xmlns="http://www.w3.org/2000/svg" xmlns:xlink="http://www.w3.org/1999/xlink">
    <title>指标标准-48</title>
    <g id="dam-icon" stroke="none" stroke-width="1" fill="none" fill-rule="evenodd">
        <g id="资产状态" transform="translate(-1219.000000, -626.000000)" fill="#D1AF3E">
            <g id="编组-27" transform="translate(0.000000, 600.000000)">
                <g id="指标标准-48" transform="translate(1219.000000, 26.000000)">
                    <path d="M40,0 C41.1045695,0 42,0.901156168 42,2.01278864 L42,45.9868013 C42,47.0984337 41.1045695,48 40,48 C39.6767551,48 39.3583266,47.9207399 39.071986,47.7697929 L21.928014,38.732195 C21.3467927,38.425799 20.6532073,38.425799 20.071986,38.732195 L2.92801399,47.7697929 C1.94955149,48.2855981 0.740864903,47.9054684 0.228336929,46.9207493 C0.0783490258,46.6325778 0,46.3121131 0,45.9868013 L0,2.01278864 C0,0.901156168 0.8954305,0 2,0 L40,0 Z M3,24 L3,44.3226122 L18.679965,36.0577075 C20.0565417,35.3320328 21.6852374,35.2938394 23.088353,35.9431273 L23.320035,36.0577075 L39,44.3226122 L39,24 L3,24 Z M32.1031542,10.0223688 L31.9994406,10.0574921 L26.3829301,12.2409441 C26.1453692,12.3338787 25.97628,12.5475635 25.940448,12.8001266 C25.9097349,13.0166092 25.9810066,13.232887 26.1294158,13.3880887 L26.2099335,13.4603182 L27.5502371,14.516773 L24.4833267,18.1278669 L16.7916969,13.5459767 C16.3729805,13.2796701 15.8412163,13.2858868 15.4314566,13.5511874 L15.3229055,13.6299556 L9.48888945,18.043888 C9.22263545,18.2465078 9.04960138,18.5481591 9.00911382,18.8802837 C8.96862625,19.2124082 9.06412425,19.5467949 9.2739034,19.8074454 C9.485328,20.077679 9.79617066,20.2519848 10.1370084,20.2914336 C10.429155,20.3252468 10.7224787,20.2575672 10.9688173,20.1022754 L11.0878482,20.0173927 L16.2298779,16.1543621 L24.1364938,20.8613809 C24.3486566,20.9757207 24.5866656,21.0335601 24.8276403,21.0293388 C25.1628275,21.0284813 25.4829535,20.8991299 25.7237812,20.6711244 L25.8219508,20.5674547 L29.6673459,16.0695434 L30.9631407,17.0772905 C31.1672872,17.2335608 31.4384863,17.2711825 31.677462,17.1763837 C31.8822983,17.0951275 32.0376794,16.9268097 32.1040332,16.7206009 L32.129608,16.6145666 L32.9937511,10.8133024 C33.0276722,10.5573306 32.9217039,10.3028299 32.7161406,10.146574 C32.5399434,10.0126404 32.3137781,9.96852451 32.1031542,10.0223688 Z M3,8 L39,8 L39,3.01918296 L3,3.01918296 L3,8 Z" id="形状结合" fill-rule="nonzero"></path>
                    <rect id="矩形备份-6" opacity="0.7" x="3" y="28" width="36" height="4"></rect>
                </g>
            </g>
        </g>
    </g>
</svg>