<?xml version="1.0" encoding="UTF-8"?>
<svg width="24px" height="24px" viewBox="0 0 24 24" version="1.1" xmlns="http://www.w3.org/2000/svg" xmlns:xlink="http://www.w3.org/1999/xlink">
    <title>复合数据</title>
    <g id="数据集-表" stroke="none" stroke-width="1" fill="none" fill-rule="evenodd">
        <g id="数据集-表-字段信息tab备份" transform="translate(-994.000000, -412.000000)" fill="#6180E7">
            <g id="复合数据" transform="translate(994.000000, 412.000000)">
                <rect id="矩形" fill-opacity="0.1" x="0" y="0" width="24" height="24" rx="2"></rect>
                <path d="M12,4 C12.8921523,4 13.6153846,4.7163444 13.6153846,5.6 C13.6153846,5.72557586 13.6007789,5.84777284 13.5731582,5.96501528 L16.3621664,7.56122228 C16.6406549,7.33545586 16.9966643,7.2 17.3846154,7.2 C18.2767677,7.2 19,7.9163444 19,8.8 C19,9.44390408 18.6159798,9.99896964 18.0624105,10.2527681 L18.0624105,13.7472319 C18.6159798,14.0010304 19,14.5560959 19,15.2 C19,16.0836556 18.2767677,16.8 17.3846154,16.8 C17.0133358,16.8 16.6713116,16.675936 16.398495,16.4673796 L13.5736264,18.036978 C13.6009439,18.1536119 13.6153846,18.2751356 13.6153846,18.4 C13.6153846,19.2836556 12.8921523,20 12,20 C11.1078477,20 10.3846154,19.2836556 10.3846154,18.4 C10.3846154,18.2737127 10.3993871,18.1508426 10.4273126,18.0329924 L7.64557622,16.4324612 C7.36595812,16.6620153 7.00694034,16.8 6.61538462,16.8 C5.72323233,16.8 5,16.0836556 5,15.2 C5,14.5560959 5.38402024,14.0010304 5.93758952,13.7472319 L5.93758952,10.2527681 C5.38402024,9.99896964 5,9.44390408 5,8.8 C5,7.9163444 5.72323233,7.2 6.61538462,7.2 C7.0028851,7.2 7.35851813,7.33514139 7.63686294,7.560436 L10.4268418,5.96501528 C10.3992211,5.84777284 10.3846154,5.72557586 10.3846154,5.6 C10.3846154,4.7163444 11.1078477,4 12,4 Z M12,17.8666667 C11.7026159,17.8666667 11.4615385,18.1054481 11.4615385,18.4 C11.4615385,18.6945519 11.7026159,18.9333333 12,18.9333333 C12.2973841,18.9333333 12.5384615,18.6945519 12.5384615,18.4 C12.5384615,18.1054481 12.2973841,17.8666667 12,17.8666667 Z M12.538,12.908 L12.5385682,16.8816328 C12.692844,16.9262043 12.8443806,16.9883942 12.9936492,17.0670415 L13.0543077,17.1018667 L15.808,15.5701333 L15.8029917,15.526982 C15.7808612,15.421425 15.7692308,15.3120578 15.7692308,15.2 C15.7692308,15.0673094 15.7855385,14.9383913 15.816277,14.8151048 L12.538,12.908 Z M11.461,12.91 L8.19943933,14.8172409 C8.25260818,15.0129522 8.26800221,15.2024439 8.24941503,15.3825292 L8.22538462,15.5317333 L10.9252308,17.0858667 L10.9707558,17.0600679 C11.1288664,16.9739528 11.2924684,16.9079566 11.4611841,16.8639012 L11.461,12.91 Z M6.61538462,14.6666667 C6.31800052,14.6666667 6.07692308,14.9054481 6.07692308,15.2 C6.07692308,15.4945519 6.31800052,15.7333333 6.61538462,15.7333333 C6.91276871,15.7333333 7.15384615,15.4945519 7.15384615,15.2 C7.15384615,14.9054481 6.91276871,14.6666667 6.61538462,14.6666667 Z M17.3846154,14.6666667 C17.2326191,14.6666667 17.095332,14.7290446 16.9974247,14.829365 L16.9925837,14.8409901 L16.9577149,14.9008094 C16.9390393,14.9327421 16.9173712,14.961845 16.8932733,14.9879697 C16.8620945,15.0522039 16.8461538,15.1242581 16.8461538,15.2 C16.8461538,15.4945519 17.0872313,15.7333333 17.3846154,15.7333333 C17.6819995,15.7333333 17.9230769,15.4945519 17.9230769,15.2 C17.9230769,14.9054481 17.6819995,14.6666667 17.3846154,14.6666667 Z M16.3709249,10.0458278 L13.063,11.976 L16.3988613,13.9162955 C16.5339155,13.7966787 16.6807367,13.7097127 16.8362631,13.6525672 L16.9850769,13.6074667 L16.9850769,10.3914667 L16.8542734,10.3117752 C16.6771109,10.2508111 16.5139711,10.1601577 16.3709249,10.0458278 Z M7.623,10.048 L7.59915176,10.0687236 C7.4459126,10.1997945 7.2697024,10.2945627 7.07673987,10.3538069 L7.01384615,10.3701333 L7.01384615,13.5509333 L7.07268841,13.5672725 C7.28320076,13.6326143 7.477683,13.7420333 7.6487537,13.8976456 L10.938,11.977 L7.623,10.048 Z M10.9553846,6.896 L8.19630769,8.47253333 C8.21928602,8.57996391 8.23076923,8.6886537 8.23076923,8.8 C8.23076923,8.91739386 8.21800477,9.03183481 8.19377554,9.14203554 L11.461,11.043 L11.461,7.156 L10.9553846,6.896 Z M13.0672308,6.9088 L12.538,7.158 L12.538,11.043 L15.805131,9.1370235 C15.7816114,9.02836623 15.7692308,8.91561517 15.7692308,8.8 L15.774,8.682 L15.752,8.4448 L13.0672308,6.9088 Z M6.61538462,8.26666667 C6.31800052,8.26666667 6.07692308,8.50544813 6.07692308,8.8 C6.07692308,9.09455187 6.31800052,9.33333333 6.61538462,9.33333333 C6.75794017,9.33333333 6.88755696,9.27846353 6.98388181,9.18888327 L7.01727584,9.11715052 L7.0521446,9.05733124 C7.0735233,9.02077672 7.09882341,8.98793035 7.12720069,8.95901494 C7.1451209,8.91005491 7.15384615,8.8560367 7.15384615,8.8 C7.15384615,8.50544813 6.91276871,8.26666667 6.61538462,8.26666667 Z M17.3846154,8.26666667 C17.0872313,8.26666667 16.8461538,8.50544813 16.8461538,8.8 C16.8461538,8.87918472 16.8635766,8.95433891 16.8948322,9.02190693 C16.9074494,9.03329542 16.916652,9.0473782 16.9252219,9.0620598 L16.9599815,9.12229375 C17.0597682,9.25362159 17.2127935,9.33333333 17.3846154,9.33333333 C17.6819995,9.33333333 17.9230769,9.09455187 17.9230769,8.8 C17.9230769,8.50544813 17.6819995,8.26666667 17.3846154,8.26666667 Z M12,5.06666667 C11.7026159,5.06666667 11.4615385,5.30544813 11.4615385,5.6 C11.4615385,5.89455187 11.7026159,6.13333333 12,6.13333333 C12.2973841,6.13333333 12.5384615,5.89455187 12.5384615,5.6 C12.5384615,5.30544813 12.2973841,5.06666667 12,5.06666667 Z" id="形状结合" fill-rule="nonzero"></path>
            </g>
        </g>
    </g>
</svg>