<?xml version="1.0" encoding="UTF-8"?>
<svg width="24px" height="24px" viewBox="0 0 24 24" version="1.1" xmlns="http://www.w3.org/2000/svg" xmlns:xlink="http://www.w3.org/1999/xlink">
    <title>时间/日期</title>
    <g id="数据集-表" stroke="none" stroke-width="1" fill="none" fill-rule="evenodd">
        <g id="数据集-表-字段信息tab备份" transform="translate(-874.000000, -412.000000)" fill="#43C1CA">
            <g id="编组-16" transform="translate(874.000000, 412.000000)">
                <path d="M12,4 C16.418278,4 20,7.581722 20,12 C20,16.418278 16.418278,20 12,20 C7.581722,20 4,16.418278 4,12 C4,7.581722 7.581722,4 12,4 Z M12,5.14285714 C8.21290457,5.14285714 5.14285714,8.21290457 5.14285714,12 C5.14285714,15.7870954 8.21290457,18.8571429 12,18.8571429 C15.7870954,18.8571429 18.8571429,15.7870954 18.8571429,12 C18.8571429,8.21290457 15.7870954,5.14285714 12,5.14285714 Z M11.0145044,12.9654543 L10.9825621,12.9286819 C10.9773668,12.9222043 10.9723098,12.9156112 10.9673954,12.9089069 L10.9583799,12.8963688 C10.9528656,12.8883755 10.9475647,12.8802541 10.9424801,12.8720143 C10.9031558,12.8086542 10.8757648,12.7365029 10.8638488,12.6592446 C10.8590772,12.62867 10.8567263,12.5968907 10.8570607,12.5649687 L10.8571429,8 C10.8571429,7.68440871 11.1129801,7.42857143 11.4285714,7.42857143 C11.7441627,7.42857143 12,7.68440871 12,8 L12,12.228 L15.7331727,14.2130428 C16.0118233,14.3612039 16.1176059,14.7072032 15.9694448,14.9858538 C15.8212836,15.2645043 15.4752844,15.3702869 15.1966338,15.2221258 L11.1765782,13.0844358 C11.1453088,13.0690469 11.1156509,13.0508832 11.0879257,13.0302661 L11.160302,13.0759701 C11.1133057,13.0509817 11.0712266,13.0203658 11.0344538,12.9853946 C11.0313439,12.982238 11.0279059,12.9788851 11.0245104,12.9754896 L11.0145044,12.9654543 L11.0145044,12.9654543 Z" id="ic-data-time" fill-rule="nonzero"></path>
                <rect id="矩形" fill-opacity="0.1" x="0" y="0" width="24" height="24" rx="2"></rect>
            </g>
        </g>
    </g>
</svg>