<svg xmlns="http://www.w3.org/2000/svg" width="17.091" height="15.381" viewBox="0 0 17.091 15.381">
  <path id="错误信息" d="M13586.541-5602.607h-13.085a1.979,1.979,0,0,1-1.73-1,1.982,1.982,0,0,1,0-2l6.544-11.38a1.976,1.976,0,0,1,1.732-1,1.973,1.973,0,0,1,1.732,1l6.545,11.38a1.984,1.984,0,0,1-.006,2A1.98,1.98,0,0,1,13586.541-5602.607ZM13580-5607a1,1,0,0,0-1,1,1,1,0,0,0,1,1,1,1,0,0,0,1-1A1,1,0,0,0,13580-5607Zm-.6-7a.4.4,0,0,0-.4.4l.286,5.2a.4.4,0,0,0,.4.4h.638a.4.4,0,0,0,.4-.4l.27-5.2a.4.4,0,0,0-.4-.4Z" transform="translate(-13571.454 5617.988)" fill="#fff"/>
</svg>
