<?xml version="1.0" encoding="UTF-8"?>
<svg width="32px" height="32px" viewBox="0 0 32 32" version="1.1" xmlns="http://www.w3.org/2000/svg" xmlns:xlink="http://www.w3.org/1999/xlink">
    <title>icon</title>
    <defs>
        <linearGradient x1="38.0262155%" y1="3.18725586%" x2="61.9215373%" y2="97.052002%" id="linearGradient-1">
            <stop stop-color="#74ECDC" offset="0%"></stop>
            <stop stop-color="#5CD5AC" offset="100%"></stop>
        </linearGradient>
        <path d="M11.8935311,25.1206498 C11.779348,25.0691599 11.6663054,25.0155889 11.5544515,24.959985 C11.53174,24.9484573 11.5093493,24.9372219 11.4870005,24.9259019 C11.3898509,24.876922 11.2934466,24.8260781 11.1979896,24.7737217 C11.1777643,24.7624214 11.1574719,24.7512014 11.1372173,24.73991 C11.0323728,24.6816543 10.9287826,24.6214197 10.8263945,24.5593998 C10.8174793,24.5538286 10.8085826,24.5484216 10.7996938,24.5430004 C9.85735297,23.9682728 9.01786907,23.2421915 8.31469115,22.3985204 L8.25918482,22.3312867 L8.24171577,22.3099413 C7.81409315,21.7848031 7.43872249,21.2154216 7.12352869,20.6097216 C7.11240335,20.5878927 7.10108993,20.5659497 7.08985746,20.5439635 C6.97525912,20.3201535 6.86912833,20.0915724 6.77156875,19.8585125 C6.76281807,19.8369301 6.75383392,19.8152515 6.74492542,19.7935383 C6.26463928,18.6236537 6,17.3427317 6,16 L6.002,16.163 L6.0013154,16.1636953 L6.00000046,16.0029115 C6,15.8814753 6.00206202,15.7634322 6.00615215,15.6459046 L6.00000046,16.0029115 C6.00000046,15.8378375 6.00398799,15.6733315 6.01192797,15.5094904 C6.01621547,15.4185874 6.02178189,15.3285752 6.02853119,15.238893 C6.0296313,15.226204 6.03068383,15.2125913 6.03176377,15.1989836 L6.03427544,15.1660937 C6.05410622,14.9258831 6.08242701,14.6880802 6.11893703,14.4529857 C6.12258139,14.4308073 6.12617402,14.4081875 6.12984366,14.3855854 C6.19168354,14.0034758 6.27522861,13.6291604 6.37907064,13.2633826 C6.38463839,13.244708 6.39001345,13.2259882 6.39544344,13.2072849 C6.74491147,12.0024478 7.31511212,10.8915322 8.05923566,9.92097886 L8.05996221,9.92011492 L8.0861292,9.88606083 C8.23912473,9.68831368 8.39936743,9.49645754 8.56645915,9.31089055 C8.5853449,9.2899267 8.60440155,9.26894024 8.62354537,9.24803609 C8.78612823,9.07050701 8.95499237,8.89891379 9.12982078,8.73356164 C9.15792412,8.70698645 9.18607993,8.68066349 9.21438629,8.65450317 C9.30205883,8.57346365 9.3913377,8.49384942 9.4820315,8.41583413 C9.49203147,8.40725692 9.50168366,8.39898741 9.51135166,8.3907361 C9.60893658,8.30740943 9.7085143,8.22565986 9.80967139,8.14582273 C9.82440061,8.13425192 9.8392815,8.12257657 9.85419599,8.11094281 C9.93410739,8.04854432 10.0149428,7.9874259 10.0967224,7.92752018 C10.1266794,7.90566554 10.156433,7.88412549 10.1863084,7.86274661 C10.2838027,7.79286476 10.3830768,7.72447258 10.4836253,7.65784964 C10.4880175,7.65507033 10.4927466,7.65194292 10.4974785,7.64881944 L10.6548845,7.54686879 C11.4647326,7.03370911 12.3533841,6.63372096 13.2986006,6.36914262 L13.5489386,6.30282583 L13.5697087,6.29737091 C13.6752411,6.27102237 13.7814374,6.24635048 13.8882675,6.22338518 L13.5489386,6.30282583 C13.6987406,6.26506811 13.8494736,6.23079057 14.0010465,6.20002175 C14.2358443,6.15218797 14.4736571,6.11277489 14.7141432,6.08190424 C14.7347403,6.0793651 14.7553968,6.07677624 14.7760656,6.07425134 C14.8785318,6.06164701 14.9814891,6.05069113 15.0849009,6.04130962 C15.1219144,6.03801034 15.1589553,6.03485282 15.1960307,6.03189945 C15.2972216,6.02379858 15.3988744,6.01725273 15.5009294,6.01223678 C15.5372295,6.01047389 15.57294,6.00890775 15.6086778,6.0075302 C15.7379512,6.00253126 15.86868,6 16,6 L15.9328383,6.00022128 C15.943867,6.00014859 15.9548981,6.0000938 15.9659314,6.00005692 L16,6 L16,6 C17.1316813,6 18.239043,6.18842585 19.2873338,6.55317598 L18.630088,8.44209841 C17.7924125,8.15063133 16.9071658,8 16,8 L16,15.3008218 L16,15.3008218 L16,16 C18.5150955,17.5837977 20.7656828,19.015585 22.7517619,20.2953617 C22.9285384,20.0159932 23.0890025,19.7263106 23.2310921,19.4271033 L25.0377264,20.2850499 C24.9177479,20.5376964 24.7873267,20.7848617 24.6469271,21.0259447 L24.4299703,21.3815051 C24.3614491,21.4886181 24.2909424,21.5943386 24.2185021,21.6986147 C24.1996162,21.7256406 24.1808496,21.7523784 24.1619528,21.7790238 C24.1040921,21.8607457 24.0447644,21.9417807 23.9842593,22.0218765 C23.9657283,22.0463123 23.9474727,22.0702552 23.9291091,22.0941164 C23.8556938,22.1895923 23.7801257,22.2841895 23.7028994,22.3773625 L23.6885066,22.3946466 C23.6763649,22.4092306 23.6641814,22.4237808 23.651956,22.438297 C23.5877374,22.5145856 23.522072,22.590231 23.4553023,22.6648679 C23.4254627,22.6982044 23.3958318,22.730889 23.3659818,22.7633828 C23.3062727,22.8283976 23.2452314,22.8931072 23.1833455,22.9569937 C23.1643111,22.9766376 23.1454255,22.9959763 23.1264596,23.0152412 C22.3923831,23.7609821 21.5415412,24.3923709 20.6037735,24.8795645 L20.3560187,25.0036799 L20.3448653,25.0093313 C20.1171488,25.1193521 19.8846262,25.2209939 19.6476978,25.3138561 C19.6159676,25.3260155 19.5835903,25.3385123 19.5511476,25.3508394 C19.1969217,25.4856898 18.8336302,25.6005677 18.4620506,25.694644 C18.4220247,25.7045366 18.3823077,25.7143329 18.3425193,25.7238865 C18.2405187,25.7486103 18.1371896,25.7716869 18.0332709,25.793151 C18.0109458,25.7975586 17.9895543,25.8019038 17.9681442,25.8061794 C17.8475583,25.830455 17.725308,25.8525077 17.6023073,25.8723171 C17.5604856,25.8789058 17.5185555,25.8853905 17.4765634,25.8916107 C17.3912303,25.904376 17.3055075,25.9159321 17.2194475,25.926395 C17.1973972,25.9289767 17.1753102,25.9315903 17.1532078,25.934131 C16.7750163,25.9776609 16.3901169,26 16,26 C15.2786917,26 14.5752204,25.9236309 13.8972307,25.7785373 L13.8975962,25.7784042 L13.8703502,25.7727458 C13.7465306,25.7458893 13.6235659,25.7167395 13.5015029,25.685343 L13.8975962,25.7784042 C13.7517401,25.7471801 13.6068266,25.7127258 13.4629458,25.6750894 C13.207554,25.6085711 12.9557104,25.5318038 12.7082935,25.4455899 C12.689921,25.4389018 12.6712016,25.4323166 12.6525037,25.425676 C12.4053158,25.3381627 12.1629503,25.2410698 11.9254797,25.1349891 L11.9249423,25.1344857 Z M25.7356647,13.7071037 C25.9082691,14.4425326 25.997444,15.1992779 25.9999513,15.9698909 C26.000004,16.3497632 25.98198,16.7021224 25.9449107,17.0551832 L23.9558441,16.8463428 C23.9855395,16.5635142 23.9999944,16.2809286 23.9999565,15.9732898 C23.9979499,15.3577444 23.9265826,14.7521151 23.7885723,14.1640841 L25.7356647,13.7071037 Z M22.2078762,8.15975434 C23.0837868,8.85413986 23.838936,9.69093656 24.439523,10.6337024 L22.752723,11.7082748 C22.271898,10.9535042 21.666979,10.2831807 20.9654187,9.7270129 L22.2078762,8.15975434 Z" id="path-2"></path>
        <filter x="-35.0%" y="-25.0%" width="170.0%" height="170.0%" filterUnits="objectBoundingBox" id="filter-3">
            <feOffset dx="0" dy="2" in="SourceAlpha" result="shadowOffsetOuter1"></feOffset>
            <feGaussianBlur stdDeviation="2" in="shadowOffsetOuter1" result="shadowBlurOuter1"></feGaussianBlur>
            <feColorMatrix values="0 0 0 0 0.41766194   0 0 0 0 0.94457654   0 0 0 0 0.816590181  0 0 0 0.528135927 0" type="matrix" in="shadowBlurOuter1"></feColorMatrix>
        </filter>
    </defs>
    <g id="数据资产" stroke="none" stroke-width="1" fill="none" fill-rule="evenodd">
        <g id="数据资产-首页" transform="translate(-986.000000, -896.000000)">
            <g id="热门资产推荐备份-5" transform="translate(970.000000, 880.000000)">
                <g id="icon" transform="translate(16.000000, 16.000000)">
                    <rect id="矩形" fill="#EAFCFA" x="0" y="0" width="32" height="32" rx="6"></rect>
                    <g id="形状结合">
                        <use fill="black" fill-opacity="1" filter="url(#filter-3)" xlink:href="#path-2"></use>
                        <use fill="url(#linearGradient-1)" fill-rule="evenodd" xlink:href="#path-2"></use>
                    </g>
                </g>
            </g>
        </g>
    </g>
</svg>