<?xml version="1.0" encoding="UTF-8"?>
<svg width="20px" height="20px" viewBox="0 0 20 20" version="1.1" xmlns="http://www.w3.org/2000/svg" xmlns:xlink="http://www.w3.org/1999/xlink">
    <title>字段</title>
    <g id="模型目录" stroke="none" stroke-width="1" fill="none" fill-rule="evenodd">
        <g id="模型基本信息-模型摘要" transform="translate(-569.000000, -186.000000)" fill="#409EFF">
            <g id="编组-2" transform="translate(219.000000, 166.000000)">
                <g id="数据项备份-4" transform="translate(320.000000, 0.000000)">
                    <g id="字段" transform="translate(30.000000, 20.000000)">
                        <path d="M1,20 C0.44771525,20 -1.04258765e-15,19.5522847 0,19 L0,6 L1,6 L1,19 L19,19 L19,6 L20,6 L20,19 C20,19.5128358 19.6139598,19.9355072 19.1166211,19.9932723 L19,20 L1,20 Z" id="形状结合"></path>
                        <rect id="矩形" opacity="0.2" x="1" y="1" width="18" height="5"></rect>
                        <path d="M19,6 L19,1 L1,1 L1,6 L0,6 L0,1 C-6.76353751e-17,0.44771525 0.44771525,1.01453063e-16 1,0 L19,0 C19.5128358,-9.42064153e-17 19.9355072,0.38604019 19.9932723,0.883378875 L20,1 L20,7 L0,7 L0,6 L19,6 Z" id="形状结合"></path>
                        <rect id="矩形" x="10" y="6" width="1" height="14"></rect>
                    </g>
                </g>
            </g>
        </g>
    </g>
</svg>