<?xml version="1.0" encoding="UTF-8"?>
<svg width="20px" height="20px" viewBox="0 0 20 20" version="1.1" xmlns="http://www.w3.org/2000/svg" xmlns:xlink="http://www.w3.org/1999/xlink">
    <title>编组 9</title>
    <g id="模型目录" stroke="none" stroke-width="1" fill="none" fill-rule="evenodd">
        <g id="模型基本信息-模型摘要" transform="translate(-1209.000000, -262.000000)" fill="#409EFF" fill-rule="nonzero">
            <g id="编组-10" transform="translate(219.000000, 242.000000)">
                <g id="数据项备份-13" transform="translate(960.000000, 0.000000)">
                    <g id="编组-9" transform="translate(30.000000, 20.000000)">
                        <path d="M18.5714286,1 C19.3604068,1 20,1.64262707 20,2.43534774 L20,13.6310601 C20,14.4237807 19.3604068,15.0664078 18.5714286,15.0664078 L15.8671096,15.0664078 L15.8671096,18.5693957 C15.8671096,18.8072119 15.6752317,19 15.4385382,19 C15.3458081,19 15.2555794,18.9697811 15.1813953,18.9138791 L10.1528239,15.0664078 L1.42857143,15.0664078 C0.639593215,15.0664078 0,14.4237807 0,13.6310601 L0,2.43534774 C0,1.64262707 0.639593215,1 1.42857143,1 L18.5714286,1 Z M18.5714286,2.43534774 L1.42857143,2.43534774 L1.42857143,13.6310601 L10.6290144,13.6310601 L14.4371429,16.5599089 L14.4385382,13.6310601 L18.5714286,13.6310601 L18.5714286,2.43534774 Z M4.28571429,6.74139094 C5.0746925,6.74139094 5.71428571,7.38401801 5.71428571,8.17673868 C5.71428571,8.96945934 5.0746925,9.61208641 4.28571429,9.61208641 C3.49673607,9.61208641 2.85714286,8.96945934 2.85714286,8.17673868 C2.85714286,7.38401801 3.49673607,6.74139094 4.28571429,6.74139094 Z M10,6.74139094 C10.7889782,6.74139094 11.4285714,7.38401801 11.4285714,8.17673868 C11.4285714,8.96945934 10.7889782,9.61208641 10,9.61208641 C9.21102179,9.61208641 8.57142857,8.96945934 8.57142857,8.17673868 C8.57142857,7.38401801 9.21102179,6.74139094 10,6.74139094 Z M15.7142857,6.74139094 C16.5032639,6.74139094 17.1428571,7.38401801 17.1428571,8.17673868 C17.1428571,8.96945934 16.5032639,9.61208641 15.7142857,9.61208641 C14.9253075,9.61208641 14.2857143,8.96945934 14.2857143,8.17673868 C14.2857143,7.38401801 14.9253075,6.74139094 15.7142857,6.74139094 Z" id="留言"></path>
                    </g>
                </g>
            </g>
        </g>
    </g>
</svg>