<?xml version="1.0" encoding="UTF-8"?>
<svg width="20px" height="20px" viewBox="0 0 20 20" version="1.1" xmlns="http://www.w3.org/2000/svg" xmlns:xlink="http://www.w3.org/1999/xlink">
    <title>编组 8</title>
    <g id="模型目录" stroke="none" stroke-width="1" fill="none" fill-rule="evenodd">
        <g id="模型基本信息-模型摘要" transform="translate(-569.000000, -262.000000)" fill="#409EFF" fill-rule="nonzero">
            <g id="编组-10" transform="translate(219.000000, 242.000000)">
                <g id="数据项备份-11" transform="translate(320.000000, 0.000000)">
                    <g id="编组-8" transform="translate(30.000000, 20.000000)">
                        <path d="M17.0714286,0 C17.8604068,0 18.5,0.639593215 18.5,1.42857143 L18.5,18.5714286 C18.5,19.3604068 17.8604068,20 17.0714286,20 L2.42857143,20 C1.63959321,20 1,19.3604068 1,18.5714286 L1,1.42857143 C1,0.639593215 1.63959321,0 2.42857143,0 L17.0714286,0 Z M4.333,1.428 L2.42857143,1.42857143 L2.42857143,18.5714286 L17.0714286,18.5714286 L17.0714286,1.42857143 L15.166,1.428 L14.5398915,3.30889681 C14.3454429,3.89224272 13.7995303,4.28571429 13.1846297,4.28571429 L6.31537031,4.28571429 C5.70046973,4.28571429 5.1545571,3.89224272 4.96010846,3.30889681 L4.333,1.428 Z M13.8938028,8.01635486 L14.1968486,8.31940063 C14.3921107,8.51466277 14.3921107,8.83124526 14.1968486,9.02650741 L8.84304009,14.3803159 C8.64777794,14.575578 8.33119545,14.575578 8.13593331,14.3803159 L4.80242991,11.0468125 C4.60716776,10.8515504 4.60716776,10.5349679 4.80242991,10.3397057 L5.10547567,10.03666 C5.30073782,9.84139781 5.61732031,9.84139781 5.81258245,10.03666 L8.48857756,12.7134632 L13.186696,8.01635486 C13.3819582,7.82109272 13.6985407,7.82109272 13.8938028,8.01635486 Z M13.66,1.42857143 L5.83857143,1.42857143 L6.31537031,2.85714286 L13.1846297,2.85714286 L13.66,1.42857143 Z" id="报告"></path>
                    </g>
                </g>
            </g>
        </g>
    </g>
</svg>