<?xml version="1.0" encoding="UTF-8"?>
<svg width="20px" height="20px" viewBox="0 0 20 20" version="1.1" xmlns="http://www.w3.org/2000/svg" xmlns:xlink="http://www.w3.org/1999/xlink">
    <title>实体/表备份</title>
    <g id="模型目录" stroke="none" stroke-width="1" fill="none" fill-rule="evenodd">
        <g id="模型基本信息-模型摘要" transform="translate(-249.000000, -186.000000)">
            <g id="编组-2" transform="translate(219.000000, 166.000000)">
                <g id="实体/表备份" transform="translate(30.000000, 20.000000)">
                    <path d="M20,19 C20,19.5522847 19.5522847,20 19,20 L1,20 C0.44771525,20 -1.5440923e-16,19.5522847 0,19 L0,5 L1,5 L1,9 L6,9 L6,5 L7,5 L7,9 L13,9 L13,5 L14,5 L14,9 L19,9 L19,5 L20,5 L20,19 Z M6,15 L1,15 L1,19 L6,19 L6,15 Z M13,15 L7,15 L7,19 L13,19 L13,15 Z M19,14 L19,10 L14,10 L14,14 L19,14 Z M13,10 L7,10 L7,14 L13,14 L13,10 Z M6,10 L1,10 L1,14 L6,14 L6,10 Z M19,19 L19,15 L14,15 L14,19 L19,19 Z" id="形状结合" fill="#A0AAB9"></path>
                    <rect id="矩形" fill="#539FFD" opacity="0.2" x="1" y="1" width="18" height="3"></rect>
                    <path d="M19,4 L19,1 L1,1 L1,4 L0,4 L0,1 C-6.76353751e-17,0.44771525 0.44771525,1.01453063e-16 1,0 L19,0 C19.5128358,-9.42064153e-17 19.9355072,0.38604019 19.9932723,0.883378875 L20,1 L20,5 L0,5 L0,4 L19,4 Z" id="形状结合" fill="#539FFD"></path>
                </g>
            </g>
        </g>
    </g>
</svg>