<?xml version="1.0" encoding="UTF-8"?>
<svg width="20px" height="20px" viewBox="0 0 20 20" version="1.1" xmlns="http://www.w3.org/2000/svg" xmlns:xlink="http://www.w3.org/1999/xlink">
    <title>主题</title>
    <g id="模型目录" stroke="none" stroke-width="1" fill="none" fill-rule="evenodd">
        <g id="模型基本信息-模型摘要" transform="translate(-1209.000000, -186.000000)" fill="#409EFF" fill-rule="nonzero">
            <g id="编组-2" transform="translate(219.000000, 166.000000)">
                <g id="数据项备份-10" transform="translate(960.000000, 0.000000)">
                    <g id="主题" transform="translate(30.000000, 20.000000)">
                        <path d="M8,11 C8.55228475,11 9,11.4477153 9,12 L9,19 C9,19.5522847 8.55228475,20 8,20 L1,20 C0.44771525,20 0,19.5522847 0,19 L0,12 C0,11.4477153 0.44771525,11 1,11 L8,11 Z M19,11 C19.5522847,11 20,11.4477153 20,12 L20,19 C20,19.5522847 19.5522847,20 19,20 L12,20 C11.4477153,20 11,19.5522847 11,19 L11,12 C11,11.4477153 11.4477153,11 12,11 L19,11 Z M8,12 L1,12 L1,19 L8,19 L8,12 Z M19,12 L12,12 L12,19 L19,19 L19,12 Z M8,0 C8.55228475,0 9,0.44771525 9,1 L9,8 C9,8.55228475 8.55228475,9 8,9 L1,9 C0.44771525,9 0,8.55228475 0,8 L0,1 C0,0.44771525 0.44771525,0 1,0 L8,0 Z M19,0 C19.5522847,0 20,0.44771525 20,1 L20,8 C20,8.55228475 19.5522847,9 19,9 L12,9 C11.4477153,9 11,8.55228475 11,8 L11,1 C11,0.44771525 11.4477153,0 12,0 L19,0 Z M8,1 L1,1 L1,8 L8,8 L8,1 Z M19,1 L12,1 L12,8 L19,8 L19,1 Z" id="形状结合"></path>
                        <polygon id="路径" fill-opacity="0.2" points="19 12 12 12 12 19 19 19"></polygon>
                    </g>
                </g>
            </g>
        </g>
    </g>
</svg>