<?xml version="1.0" encoding="UTF-8"?>
<svg width="20px" height="20px" viewBox="0 0 20 20" version="1.1" xmlns="http://www.w3.org/2000/svg" xmlns:xlink="http://www.w3.org/1999/xlink">
    <title>用户</title>
    <g id="模型目录" stroke="none" stroke-width="1" fill="none" fill-rule="evenodd">
        <g id="模型基本信息-模型摘要" transform="translate(-249.000000, -262.000000)" fill="#409EFF" fill-rule="nonzero">
            <g id="编组-10" transform="translate(219.000000, 242.000000)">
                <g id="用户" transform="translate(30.000000, 20.000000)">
                    <path d="M8.33397671,8.33333333 C3.7372616,8.33333333 0,11.9568841 0,16.4399748 C0.0337040589,18.4442716 1.35723652,19.4606808 3.71263172,19.8107197 L4.21559998,19.8742453 L4.75745754,19.9222136 L5.04653466,19.9416602 L5.60524425,19.9688854 L6.19247266,19.9870356 L7.40711509,20 L9.52010032,20 L10.4288136,19.9922214 L11.0173383,19.979257 L11.5864184,19.955921 L12.1373501,19.9196207 C15.0929368,19.6810757 16.6692497,18.7139312 16.6666603,16.4399748 C16.6666603,11.9568841 12.9306918,8.33333333 8.33397671,8.33333333 L8.33397671,8.33333333 Z M8.33397671,9.99925918 C12.0206822,9.99925918 14.9996041,12.8890247 14.9996041,16.4399748 C15.0008988,17.5899174 14.2023719,18.0812683 12.015497,18.2575842 L11.496973,18.2912916 L10.9628933,18.3133311 L10.4015911,18.3262955 L9.51361877,18.3340742 L7.41618926,18.3340742 L6.22617672,18.3211098 L5.67005975,18.304256 L4.89227378,18.2614735 L4.39319444,18.2160981 L3.93818965,18.1590547 C2.31391327,17.9179168 1.68261032,17.4330481 1.6670546,16.425714 C1.6670546,12.8890247 4.64597488,9.99925918 8.33397671,9.99925918 L8.33397671,9.99925918 Z" id="形状"></path>
                    <path d="M14.3256046,9.58125318 C17.4544038,9.58125318 19.9999989,12.005214 19.9999989,15.0055735 C20.0012796,16.6064365 18.870759,17.2885653 16.8353091,17.4496584 L16.4687231,17.4723121 L16.0918829,17.4874146 L15.7035067,17.4974829 L15.5150866,17.5 C15.5881475,17.2633945 15.6253188,16.999101 15.6253188,16.7033441 C15.6253188,16.4730313 15.6137829,16.2464941 15.5919928,16.0212154 L15.6791531,16.0212154 L16.0431756,16.0124056 L16.3892534,15.9985617 L16.7263587,15.9759079 C18.0683713,15.8701906 18.4964823,15.6109313 18.4952005,15.0068321 C18.4952005,12.8308163 16.6340713,11.0587918 14.3256046,11.0587918 C13.8833942,11.0587918 13.4578467,11.1229773 13.0579347,11.2437972 C12.608244,10.8597662 12.1144074,10.5286241 11.5864634,10.2571018 C12.4280285,9.8115811 13.369513,9.57928599 14.3256046,9.58125318 Z M7.62835943,0 C4.79639868,-0.00034753625 2.50035395,2.25352283 2.5,5.03416037 C2.49964605,7.81479791 4.79511691,10.0692318 7.62707766,10.0695793 C10.4590384,10.0699268 12.7550831,7.81605645 12.7554371,5.03541891 C12.755791,2.25478138 10.4603202,0.00034753625 7.62835943,0 Z M7.62835943,1.67889225 C8.84966437,1.67844283 9.97844098,2.31777768 10.58949,3.35606576 C11.2005391,4.39435384 11.2010277,5.6738545 10.5907718,6.71259222 C9.98051591,7.75132993 8.85222791,8.39149573 7.63092297,8.39194558 C5.74294915,8.39264039 4.21187012,6.89043579 4.21116197,5.03667745 C4.21045432,3.18291911 5.74038561,1.67958758 7.62835943,1.67889225 Z" id="形状"></path>
                    <path d="M14.1983187,4.16789204 C13.0038697,4.14476892 11.8902192,4.77481748 11.2862844,5.81537747 C10.6823496,6.85593746 10.6823496,8.14467262 11.2862844,9.18523261 C11.8902192,10.2257926 13.0038697,10.8558412 14.1983187,10.832718 C16.0217869,10.832718 17.5,9.34047159 17.5,7.49969235 C17.5,5.65891312 16.0217869,4.16666667 14.1983187,4.16666667 L14.1983187,4.16789204 Z M14.1983187,5.60525927 C14.8687695,5.60504047 15.4884073,5.96591509 15.8238205,6.55194525 C16.1592337,7.13797541 16.1594651,7.86012919 15.8244274,8.44637825 C15.4893898,9.0326273 14.8699834,9.39390645 14.1995325,9.39412534 C13.1631053,9.39412534 12.3229151,8.54595878 12.3229151,7.49969235 C12.3229151,6.45342592 13.1631053,5.60525927 14.1995325,5.60525927 L14.1983187,5.60525927 Z" id="形状"></path>
                </g>
            </g>
        </g>
    </g>
</svg>